<svg xmlns="http://www.w3.org/2000/svg" viewBox="0 0 360.31 91.75"><path fill="#0071ce" d="M92.778,71.632c-1.241,0-2.397-0.79-2.805-2.035c-0.507-1.549,0.338-3.216,1.888-3.723 c5.615-1.838,9.243-6.76,9.243-12.539c0-7.32-5.955-13.275-13.274-13.275c-0.509,0-1.056,0.04-1.722,0.126l-2.887,0.374 l-0.414-2.882c-1.773-12.357-12.538-21.676-25.04-21.676c-10.335,0-19.535,6.187-23.438,15.763l-0.734,1.801l-1.944,0.036 c-8.936,0.164-16.205,7.564-16.205,16.495c0,6.52,3.785,12.465,9.643,15.146c1.482,0.679,2.134,2.43,1.455,3.913 c-0.679,1.482-2.43,2.133-3.912,1.456c-7.951-3.64-13.09-11.692-13.09-20.515c0-11.481,8.846-21.098,20.082-22.279 C34.801,16.994,45.651,10.1,57.768,10.1c14.502,0,27.108,10.167,30.377,24.06c10.431,0.169,18.864,8.706,18.864,19.176 c0,8.25-5.35,15.544-13.312,18.149C93.393,71.585,93.083,71.632,92.778,71.632z"/><path fill="#dc8327" d="M47.67,73.004c0,0-0.001,0-0.001-0.001c-0.001,0-0.001,0-0.002-0.001h0c0,0,0,0,0,0l-0.001,0 c0,0,0,0-0.001,0h0l-0.001,0c0,0-0.001,0-0.001,0c0,0,0,0,0,0h-0.001c0,0,0,0,0,0c0,0.001-0.001,0-0.001,0s-0.001,0-0.002,0l0,0 c0,0,0,0,0,0s0,0-0.001,0c0,0,0,0,0,0c-0.002,0-0.001,0-0.001,0c-0.001,0-0.001-0.001-0.002,0l0,0c0,0,0,0-0.001,0c0,0,0,0-0.001,0 c-0.001,0-0.002,0-0.003-0.001s-0.002-0.001-0.003-0.001c0,0-0.001,0-0.001-0.001c0,0-0.001,0-0.001,0c0,0-0.001,0-0.001,0 c-0.001,0-0.002,0-0.001,0c-0.001,0-0.001,0-0.001,0l-0.001-0.001c0,0-0.001,0-0.001,0c0,0,0,0,0,0 c-0.045-0.016-0.094-0.026-0.145-0.028h-0.001c0,0-0.001,0-0.001,0h-0.001c0,0,0,0,0,0H47.48h0l-0.001,0c0,0-0.001,0-0.001,0 h-0.001h0c0,0,0,0-0.001,0h0c-0.001,0-0.001,0-0.001,0H47.47c0,0,0,0,0,0c0,0,0,0-0.001,0h0c0,0,0,0,0,0h-0.001h-0.001 c0,0,0,0-0.001,0h0c0,0,0,0,0,0c-1.277,0-2.323-1.04-2.331-2.315V44.666h1.98c0.003,0,0.007,0,0.01,0 c0.303,0.013,0.51-0.22,0.51-0.5c0-0.209-0.128-0.388-0.31-0.463l-9.551-6.592c-0.171-0.118-0.397-0.118-0.568,0l-9.626,6.644 c-0.18,0.125-0.258,0.352-0.193,0.561c0.065,0.209,0.259,0.351,0.478,0.351h1.99l0.001,25.981c0.01,1.796,1.453,3.262,3.289,3.309 c0.021,0.002,0.041,0.004,0.062,0.004h14.259c0.003,0,0.005,0,0.008,0c0.131-0.002,0.25-0.055,0.338-0.139c0,0,0,0,0,0 c0.001-0.001,0.003-0.003,0.004-0.004c0,0,0.001-0.001,0.002-0.002c0,0,0,0,0,0l0.001-0.001l0,0l0,0l0,0c0,0,0,0,0,0 c0.001,0,0,0,0.001-0.001c0,0,0,0,0,0l0,0c0,0,0,0,0,0c0.086-0.089,0.14-0.211,0.141-0.345v-0.001c0,0,0,0,0,0c0,0,0,0,0-0.001v0v0 v-0.001c0,0,0,0,0,0v-0.001C47.961,73.255,47.842,73.082,47.67,73.004z"/><path fill="#f4b21b" d="M68.323,73.004C68.323,73.003,68.322,73.003,68.323,73.004c-0.002-0.001-0.003-0.001-0.004-0.002h0 c0,0,0,0,0,0l-0.001,0c0,0,0,0-0.001,0h0l-0.001,0c0.001,0,0,0-0.001,0c0,0,0,0,0,0h0c0,0,0,0,0,0c-0.001,0.001-0.001,0-0.002,0 c0,0-0.001,0-0.001,0l-0.001,0h0c0,0,0,0,0,0s-0.001,0-0.001,0c-0.001,0-0.001,0-0.002,0c0,0,0-0.001-0.001,0c0,0,0,0,0,0 c0,0-0.001,0-0.001,0l-0.001,0c-0.001,0-0.002,0-0.003-0.001s-0.002-0.001-0.003-0.001c0,0-0.001,0-0.001-0.001 c0,0-0.001,0-0.001,0l-0.001,0c-0.002,0-0.001,0-0.001,0c-0.002,0-0.001,0-0.001,0c-0.001,0-0.001-0.001-0.002-0.001l-0.001,0h0 c-0.045-0.016-0.094-0.026-0.145-0.028c0,0-0.001,0-0.001,0h-0.001c0,0-0.001,0-0.001,0h0h-0.001h0l-0.001,0c0,0-0.001,0-0.001,0 h-0.001h0c0,0,0,0-0.001,0h0c-0.001,0-0.001,0-0.001,0c0,0-0.001,0-0.001,0h0h-0.001h0c0,0,0,0-0.001,0h0c0,0-0.001,0-0.001,0 c0,0,0,0,0,0h-0.001c0,0,0,0-0.001,0c-1.277,0-2.322-1.04-2.33-2.315V50.482h1.99c0.007,0,0.013-0.001,0.02,0 c0.276,0,0.5-0.224,0.5-0.5c0-0.209-0.128-0.388-0.31-0.463l-9.552-6.592c-0.171-0.118-0.397-0.118-0.568,0L48.24,49.57 c-0.18,0.125-0.258,0.352-0.193,0.561c0.065,0.209,0.259,0.351,0.478,0.351h1.981l0.001,20.165c0.009,1.797,1.454,3.264,3.29,3.309 c0.02,0.002,0.04,0.003,0.06,0.003h14.259c0.003,0,0.005,0,0.008,0c0.131-0.002,0.25-0.055,0.338-0.139c0,0,0,0,0,0 c0.001-0.001,0.004-0.003,0.004-0.004c0,0,0.001-0.001,0.002-0.002c0,0,0,0,0.001-0.001l0,0l0,0c0,0,0,0,0,0l0,0l0,0 c0.002,0,0.001,0,0.001-0.001c0,0,0,0,0,0c0,0,0,0,0,0c0,0,0,0,0,0c0.086-0.089,0.14-0.211,0.141-0.345v-0.001c0,0,0,0,0,0 c0,0,0,0,0-0.001v0v0v-0.001c0,0,0,0,0,0v-0.001C68.615,73.255,68.495,73.082,68.323,73.004z"/><path fill="#f2d864" d="M88.983,73.004C88.983,73.003,88.982,73.003,88.983,73.004c-0.002-0.001-0.003-0.001-0.003-0.001l-0.001,0 c0,0,0,0-0.001,0l0,0c0,0,0,0-0.001,0c0,0,0,0,0,0c0,0,0,0-0.001,0l-0.001,0c0,0,0,0,0,0h0c0,0,0,0,0,0 c-0.001,0.001-0.001,0-0.002,0c0.001,0,0,0-0.001,0l0,0h0c0,0,0,0,0,0l-0.001,0c-0.002,0-0.001,0-0.002,0c0,0,0-0.001-0.001,0 c0,0,0,0,0,0c0,0-0.001,0-0.001,0l-0.001,0c-0.001,0-0.002,0-0.003-0.001s-0.002-0.001-0.003-0.001c0,0-0.001,0-0.001,0 c-0.001,0-0.001,0-0.002-0.001l-0.001,0c-0.002,0-0.002,0-0.002,0c-0.002,0-0.001,0-0.001,0c0,0-0.001,0-0.001,0l-0.001,0h0 c-0.045-0.016-0.094-0.026-0.145-0.028c0,0-0.001,0-0.001,0h-0.001c0,0-0.001,0-0.001,0h0h-0.001h0c0,0-0.001,0-0.001,0H88.79 c0,0-0.001,0-0.001,0h0c0,0,0,0,0,0h-0.001c-0.001,0-0.001,0-0.001,0c0,0-0.001,0-0.001,0h0h-0.001h0c0,0,0,0-0.001,0h0 c0,0-0.001,0-0.001,0c0,0,0,0,0,0h-0.001c0,0,0,0-0.001,0c-1.277,0-2.322-1.04-2.33-2.315V56.296h1.985c0.003,0,0.007,0,0.01,0 c0.281-0.007,0.51-0.22,0.51-0.5c0-0.209-0.128-0.388-0.31-0.463l-9.552-6.592c-0.171-0.118-0.397-0.118-0.568,0l-9.625,6.643 c-0.18,0.125-0.258,0.352-0.193,0.561c0.065,0.209,0.259,0.351,0.478,0.351h1.985l0.001,14.35c0.01,1.797,1.455,3.264,3.29,3.309 c0.02,0.002,0.04,0.003,0.06,0.003h14.259c0.003,0,0.005,0,0.008,0c0.131-0.002,0.25-0.055,0.338-0.139c0,0,0,0,0,0 c0.001-0.001,0.004-0.003,0.004-0.004c0,0,0.001-0.001,0.002-0.002c0,0,0,0,0.001-0.001l0,0l0,0l0,0l0,0c0,0,0,0,0,0 c0.002,0,0,0,0.001-0.001c0,0,0,0,0,0c0,0,0,0,0,0c0,0,0,0,0,0c0.086-0.089,0.14-0.211,0.141-0.345v-0.001c0,0,0,0,0,0 c0,0,0,0,0-0.001v0v0v-0.001c0,0,0,0,0,0v-0.001C89.275,73.255,89.155,73.082,88.983,73.004z"/><path fill="#0e2f5a" d="M181.67 51.013c-1.036-1.126-2.335-2.017-3.859-2.647-1.553-.638-3.362-.966-5.377-.974-2.012.008-3.822.336-5.374.974-1.524.63-2.823 1.52-3.86 2.647-1.058 1.159-1.83 2.462-2.357 3.982-.537 1.525-.808 3.202-.808 4.987 0 1.356.14 2.68.418 3.936.269 1.222.711 2.383 1.317 3.453.595 1.039 1.38 1.963 2.334 2.742.946.781 2.12 1.397 3.49 1.831 1.37.441 2.999.669 4.841.677 1.842-.008 3.47-.236 4.838-.677 1.371-.434 2.545-1.049 3.49-1.83.949-.77 1.735-1.693 2.339-2.746.603-1.068 1.046-2.23 1.315-3.451.282-1.241.418-2.528.418-3.936 0-1.783-.272-3.461-.808-4.986C183.501 53.476 182.729 52.173 181.67 51.013zM178.489 63.138c-.231.985-.609 1.891-1.124 2.689-.515.799-1.19 1.441-2.004 1.909-.822.463-1.804.701-2.921.709-1.121-.008-2.1-.246-2.917-.707-.828-.476-1.505-1.118-2.017-1.911-.503-.779-.88-1.683-1.123-2.689-.236-.977-.356-2.039-.356-3.154 0-1.168.125-2.268.372-3.268.24-.997.627-1.897 1.153-2.671.534-.779 1.214-1.39 2.022-1.82.806-.425 1.768-.645 2.859-.654h.008c1.087.009 2.05.228 2.864.652.808.434 1.484 1.046 2.015 1.82.522.771.912 1.669 1.161 2.674.243 1.009.365 2.107.365 3.268C178.845 61.097 178.725 62.159 178.489 63.138zM200.314 72.086c.987-.36 1.865-.852 2.607-1.461.777-.631 1.483-1.369 2.098-2.197l.147-.197h.734l.095.489v.907c0 .635.095 1.175.289 1.653.183.423.458.746.837.976.382.237.899.36 1.541.367.631-.007 1.149-.13 1.527-.364.382-.233.657-.555.843-.987.192-.469.286-1.009.286-1.644V50.389c.007-.565-.084-1.086-.268-1.556-.163-.431-.447-.765-.87-1.03-.435-.265-1.063-.404-1.862-.411-.785.007-1.41.147-1.849.414-.418.261-.706.597-.876 1.027-.184.469-.274.991-.267 1.55v11.51c-.009.959-.182 1.787-.531 2.538-.347.737-.805 1.366-1.364 1.874-.557.506-1.182.898-1.859 1.167-.703.27-1.366.401-2.034.401-1.088-.009-2.006-.243-2.732-.695-.73-.462-1.28-1.107-1.639-1.92-.338-.762-.51-1.67-.51-2.695V50.389c.007-.563-.084-1.084-.269-1.556-.171-.434-.455-.77-.87-1.028-.434-.265-1.063-.404-1.862-.412-.79.007-1.418.147-1.856.414-.412.261-.698.599-.867 1.027-.185.47-.275.991-.267 1.549v13.564c.014 1.692.264 3.114.74 4.223.476 1.101 1.114 1.987 1.897 2.632.799.657 1.666 1.116 2.652 1.404.962.282 1.916.419 2.919.419l.082 0C198.207 72.615 199.337 72.434 200.314 72.086zM154.444 38.325c-.464-.225-.995-.337-1.617-.337-.613 0-1.159.115-1.623.34-.429.218-.757.535-.996.967-.243.438-.37 1.008-.376 1.693v28.638c.007.68.134 1.25.376 1.689.235.424.563.739 1.004.963.455.228 1 .345 1.616.345.624 0 1.154-.113 1.62-.346.436-.222.765-.536 1-.961.243-.438.37-1.008.377-1.694V40.984c-.008-.681-.135-1.25-.377-1.688C155.208 38.863 154.88 38.546 154.444 38.325zM350.254 49.343c-.101-.288-.271-.593-.501-.891-.228-.286-.539-.53-.944-.74-.396-.205-.903-.313-1.508-.32-.54.007-.984.118-1.345.341-.376.233-.687.548-.921.935-.254.427-.45.907-.598 1.464l-4.346 16.165h-.748l-.196-.359-4.487-16.279c-.194-.7-.545-1.238-1.074-1.643-.545-.412-1.213-.616-2.038-.624-.542.007-1.024.13-1.459.375-.441.254-.782.586-1.038 1.011-.263.424-.392.905-.4 1.473 0 .219.029.462.084.716.061.281.152.599.273.962.127.39.286.856.476 1.402l7.304 20.807-.035.142c-.19.761-.445 1.34-.756 1.719-.33.39-.704.638-1.116.744-.302.072-.596.106-.883.106l-.18-.004-.689 0c-.567 0-1.044.09-1.455.275-.394.171-.702.426-.921.761-.217.339-.327.764-.333 1.298 0 .48.123.91.376 1.306.259.407.655.727 1.215.979.576.27 1.352.41 2.313.418 1.032 0 1.938-.145 2.691-.43.762-.289 1.406-.703 1.967-1.265.582-.581 1.104-1.305 1.554-2.15.463-.896.9-1.934 1.298-3.081l8.069-22.869c.163-.443.286-.834.378-1.186.078-.322.119-.609.119-.847C350.398 49.937 350.374 49.719 350.254 49.343zM305.453 68.92c-.1-.35-.183-.756-.262-1.282-.072-.479-.108-1.074-.116-1.873V54.064c-.007-1.163-.262-2.165-.756-2.975-.509-.843-1.212-1.515-2.151-2.06-.949-.551-2.102-.965-3.423-1.232-1.335-.268-2.847-.404-4.494-.404-.22.001-.437.005-.652.012l-.174.015c-.674.028-1.273.078-1.831.155l-.261.042c-.662.102-1.217.218-1.699.354-1.319.366-2.439.853-3.332 1.448-.893.598-1.564 1.237-1.994 1.897-.434.666-.646 1.284-.646 1.889.007.396.106.751.304 1.075.2.328.478.589.853.796.373.2.82.307 1.322.313.428-.007.815-.115 1.138-.321.349-.228.709-.525 1.064-.88.396-.405.828-.798 1.278-1.164.503-.409 1.111-.744 1.855-1.025.317-.118.689-.212 1.137-.289.089-.016.186-.027.284-.038l.112-.012c.357-.044.749-.086 1.19-.09.849 0 1.63.106 2.324.315.749.226 1.357.588 1.81 1.075.487.506.741 1.167.751 1.958-.009.778-.173 1.367-.5 1.815-.335.434-.777.741-1.322.922-.475.161-1.022.273-1.626.333l-4.243.477c-1.279.136-2.525.367-3.707.686-1.127.314-2.121.756-2.95 1.311-.822.551-1.472 1.277-1.931 2.159-.468.893-.709 2.03-.716 3.381.007 1.006.217 1.932.625 2.747.408.815.947 1.495 1.649 2.078.692.575 1.491 1.022 2.371 1.331.902.313 1.8.466 2.742.466l.11 0c1.144 0 2.248-.124 3.279-.369.195-.046.388-.097.578-.154.147-.043.289-.099.432-.155l.392-.146c.093-.032.185-.063.275-.102.513-.215.961-.437 1.368-.678.957-.57 1.884-1.343 2.753-2.296l.81-.889.04 1.202c.021.647.155 1.262.398 1.829.231.522.592.936 1.101 1.259.508.323 1.222.49 2.121.497.493-.007.938-.104 1.348-.296.393-.183.715-.446.957-.782.227-.317.347-.691.353-1.115 0-.205-.03-.414-.095-.651L305.453 68.92zM299.083 63.468c0 .71-.158 1.411-.467 2.083-.315.666-.753 1.246-1.341 1.78-.572.513-1.275.925-2.092 1.227-.341.124-.728.225-1.185.308l-.203.038c-.456.072-.9.109-1.355.113-.879-.009-1.638-.154-2.263-.432-.651-.286-1.168-.688-1.535-1.195-.372-.515-.561-1.096-.561-1.726 0-.799.207-1.479.615-2.021.395-.532.975-.956 1.719-1.257.712-.288 1.578-.505 2.574-.644l2.526-.381c.262-.045.582-.107.94-.185.34-.074.685-.179 1.023-.311.308-.121.566-.278.789-.48l.817-.743V63.468zM129.007 43.948c1.148-.549 2.388-.827 3.688-.827 1.267.008 2.284.17 3.114.495.819.309 1.521.727 2.079 1.241.528.494.989 1.023 1.374 1.576.363.519.717 1.016 1.069 1.48.319.418.699.762 1.13 1.023.416.253.954.384 1.598.391 1.018-.007 1.789-.274 2.283-.794.503-.518.756-1.273.756-2.249 0-.588-.18-1.265-.534-2.01-.366-.746-.918-1.508-1.638-2.258-.722-.752-1.634-1.455-2.712-2.089-1.071-.631-2.335-1.147-3.755-1.533-1.426-.388-3.03-.588-4.767-.595-2.134.007-4.099.314-5.838.911-1.717.599-3.249 1.446-4.551 2.518-1.31 1.094-2.409 2.374-3.263 3.803-.886 1.477-1.556 3.092-1.992 4.803-.443 1.743-.668 3.584-.668 5.472.015 3.86.685 7.128 1.992 9.709 1.302 2.568 3.198 4.526 5.633 5.82 2.472 1.313 5.492 1.979 8.974 1.98 1.853-.015 3.595-.291 5.177-.818 1.592-.541 2.999-1.269 4.181-2.162 1.191-.907 2.123-1.924 2.77-3.024.649-1.099.983-2.24.99-3.392-.013-.519-.163-.956-.457-1.321-.312-.381-.722-.675-1.216-.871-.524-.216-1.08-.324-1.658-.324-.51.007-.947.138-1.331.4-.399.281-.77.647-1.127 1.118-.371.489-.751 1.018-1.145 1.571-.405.577-.877 1.132-1.401 1.648-.543.535-1.211.981-1.982 1.323-.789.342-1.728.519-2.796.528-1.766-.009-3.29-.346-4.537-1.003-1.246-.653-2.273-1.566-3.049-2.712-.756-1.13-1.315-2.439-1.662-3.892-.344-1.442-.515-2.983-.507-4.58.009-1.9.255-3.622.731-5.118.489-1.508 1.17-2.796 2.022-3.831C126.853 45.3 127.87 44.491 129.007 43.948zM238.851 40.984c0-.67-.127-1.238-.376-1.688-.239-.432-.567-.749-1.004-.971-.897-.443-2.305-.451-3.24.004-.429.218-.757.535-.996.967-.242.437-.369 1.006-.376 1.694v9.935h-.761l-.239-.232c-.647-1.045-1.524-1.864-2.605-2.435-.278-.145-.588-.275-.946-.399-.061-.021-.123-.038-.185-.055l-.139-.04c-.234-.07-.474-.134-.722-.183l-.117-.03c-.125-.026-.214-.036-.303-.046l-.454-.059c-.32-.032-.648-.053-.99-.055-1.405.008-2.67.232-3.754.666-1.088.432-2.049 1.045-2.858 1.824-.815.783-1.478 1.681-2.029 2.744-.545 1.067-.951 2.213-1.205 3.402-.267 1.214-.403 2.495-.403 3.812.016 2.198.307 4.123.863 5.718.56 1.603 1.33 2.937 2.291 3.965.952 1.034 2.066 1.818 3.314 2.332 1.245.508 2.583.767 3.974.767.527 0 1.042-.036 1.528-.108.53-.081 1.021-.195 1.478-.345.902-.303 1.696-.761 2.354-1.361.658-.585 1.174-1.347 1.537-2.268l.122-.309h.821l.095.489v1.098c.007.945.231 1.657.668 2.113.439.459 1.111.692 1.994.692.917 0 1.597-.231 2.021-.687.425-.458.641-1.17.641-2.118V40.984zM232.927 63.043c-.21.954-.558 1.823-1.034 2.579-.471.762-1.109 1.382-1.894 1.84-.198.116-.406.216-.625.303-.059.023-.123.042-.186.061l-.145.046c-.114.039-.228.078-.349.107-.074.018-.152.031-.23.043l-.096.016c-.195.038-.296.058-.403.071-.084.01-.172.014-.259.018l-.22.013c-.104.008-.207.016-.315.017-1.033-.034-1.93-.276-2.686-.72-.753-.433-1.391-1.035-1.894-1.789-.484-.739-.851-1.594-1.093-2.546-.237-.925-.357-1.943-.357-3.025 0-.698.053-1.412.156-2.123.106-.726.288-1.454.541-2.162.262-.72.624-1.377 1.077-1.959.46-.6 1.05-1.083 1.75-1.433.686-.352 1.528-.536 2.498-.545h.004c.13 0 .253.009.376.019l.214.013c.082.003.162.007.239.017.134.016.26.042.386.068l.17.032c.069.011.138.023.202.04.144.037.28.086.414.136l.121.042c.057.018.116.037.169.06.222.095.434.206.635.333.79.5 1.424 1.172 1.884 1.997.45.791.781 1.679.983 2.636.197.988.288 1.914.281 2.834C233.241 61.145 233.138 62.115 232.927 63.043zM325.395 52.076c.282-.44.427-1.041.434-1.788-.007-.559-.145-1.048-.424-1.482-.275-.43-.665-.773-1.159-1.02-.503-.259-1.074-.387-1.752-.394-.746.007-1.418.162-1.987.461-.569.299-1.056.701-1.488 1.229-.425.53-.788 1.131-1.077 1.782-.307.673-.55 1.354-.747 2.085l-.096.362h-.864l-.095-.489v-2.673c-.008-.608-.128-1.126-.359-1.534-.233-.405-.537-.702-.928-.904-.405-.213-.866-.32-1.375-.32-.509 0-.97.107-1.372.318-.394.204-.698.5-.933.909-.229.405-.349.922-.356 1.536v19.472c-.008.563.082 1.084.268 1.556.166.422.454.756.879 1.022.426.271 1.047.411 1.849.419.8-.008 1.425-.148 1.856-.419.418-.261.703-.595.872-1.022.185-.468.275-.99.268-1.549v-8.121c0-1.976.17-3.517.52-4.712.368-1.242.92-2.146 1.64-2.688.711-.545 1.582-.823 2.586-.823l1.328.001c.531 0 1.021-.098 1.456-.292C324.773 52.808 325.128 52.5 325.395 52.076zM275.383 49.216c-.8-.658-1.667-1.117-2.654-1.406-.964-.282-1.918-.419-2.92-.419-1.353.008-2.481.189-3.435.536-.99.361-1.868.852-2.609 1.461-.78.634-1.485 1.372-2.098 2.197l-.146.198h-.735l-.096-.489v-.907c0-.635-.097-1.19-.288-1.651-.182-.425-.457-.748-.837-.98-.392-.243-.908-.366-1.535-.366s-1.143.123-1.533.364c-.383.234-.658.556-.843.987-.189.456-.286 1.012-.286 1.645v19.238c-.007.565.083 1.087.268 1.555.166.421.453.756.875 1.024.43.269 1.055.41 1.858.417.794-.007 1.419-.148 1.852-.419.418-.261.703-.595.872-1.022.185-.471.275-.992.267-1.548V58.122c.01-.962.183-1.79.532-2.538.347-.737.805-1.367 1.364-1.874.554-.504 1.179-.896 1.858-1.166.679-.269 1.345-.4 2.035-.4 1.096.008 2.015.243 2.735.695.727.461 1.276 1.104 1.634 1.91.34.772.512 1.681.512 2.705v12.173c-.007.565.083 1.086.268 1.556.166.422.454.756.879 1.022.433.27 1.054.411 1.849.419.8-.008 1.426-.148 1.858-.419.426-.266.71-.599.867-1.015.188-.475.278-.996.271-1.556V56.069c-.015-1.693-.264-3.115-.74-4.223C276.799 50.734 276.161 49.849 275.383 49.216zM248.967 47.803c-.435-.265-1.064-.404-1.863-.411-.78.007-1.422.15-1.847.413-.419.262-.707.599-.877 1.028-.185.472-.275.993-.267 1.549v19.245c-.008.563.082 1.084.268 1.556.166.422.454.756.879 1.022.426.271 1.047.411 1.849.419.8-.008 1.426-.148 1.858-.419.416-.261.701-.595.87-1.022.185-.468.275-.99.268-1.549V50.389c.007-.565-.084-1.086-.268-1.556C249.665 48.399 249.381 48.062 248.967 47.803zM248.641 38.403c-.453-.266-.966-.406-1.531-.413-.566.007-1.079.146-1.531.413-.459.273-.819.632-1.092 1.092-.266.453-.406.966-.413 1.531.007.566.146 1.079.413 1.531.273.459.633.819 1.092 1.092.453.266.965.406 1.531.413.566-.007 1.078-.146 1.531-.413.459-.273.819-.633 1.092-1.092.266-.453.406-.965.413-1.531-.007-.566-.146-1.079-.413-1.531C249.46 39.036 249.1 38.676 248.641 38.403z"/></svg>