<?xml version="1.0" encoding="utf-8"?>
<!-- Generator: Adobe Illustrator 19.1.0, SVG Export Plug-In . SVG Version: 6.00 Build 0)  -->
<svg version="1.1" id="Layer_1" xmlns="http://www.w3.org/2000/svg" xmlns:xlink="http://www.w3.org/1999/xlink" x="0px" y="0px"
	 viewBox="0 0 360.313 91.75" enable-background="new 0 0 360.313 91.75" xml:space="preserve">
<g>
	<path fill="#0071CE" d="M92.778,71.632c-1.241,0-2.397-0.79-2.805-2.035c-0.507-1.549,0.338-3.216,1.888-3.723
		c5.615-1.838,9.243-6.76,9.243-12.539c0-7.32-5.955-13.275-13.274-13.275c-0.509,0-1.056,0.04-1.722,0.126l-2.887,0.374
		l-0.414-2.882c-1.773-12.357-12.538-21.676-25.04-21.676c-10.335,0-19.535,6.187-23.438,15.763l-0.734,1.801l-1.944,0.036
		c-8.936,0.164-16.205,7.564-16.205,16.495c0,6.52,3.785,12.465,9.643,15.146c1.482,0.679,2.134,2.43,1.455,3.913
		c-0.679,1.482-2.43,2.133-3.912,1.456c-7.951-3.64-13.09-11.692-13.09-20.515c0-11.481,8.846-21.098,20.082-22.279
		C34.801,16.994,45.651,10.1,57.768,10.1c14.502,0,27.108,10.167,30.377,24.06c10.431,0.169,18.864,8.706,18.864,19.176
		c0,8.25-5.35,15.544-13.312,18.149C93.393,71.585,93.083,71.632,92.778,71.632z"/>
	<path fill="#DC8327" d="M47.67,73.004c0,0-0.001,0-0.001-0.001c-0.001,0-0.001,0-0.002-0.001h0c0,0,0,0,0,0l-0.001,0
		c0,0,0,0-0.001,0h0l-0.001,0c0,0-0.001,0-0.001,0c0,0,0,0,0,0h-0.001c0,0,0,0,0,0c0,0.001-0.001,0-0.001,0s-0.001,0-0.002,0l0,0
		c0,0,0,0,0,0s0,0-0.001,0c0,0,0,0,0,0c-0.002,0-0.001,0-0.001,0c-0.001,0-0.001-0.001-0.002,0l0,0c0,0,0,0-0.001,0c0,0,0,0-0.001,0
		c-0.001,0-0.002,0-0.003-0.001s-0.002-0.001-0.003-0.001c0,0-0.001,0-0.001-0.001c0,0-0.001,0-0.001,0c0,0-0.001,0-0.001,0
		c-0.001,0-0.002,0-0.001,0c-0.001,0-0.001,0-0.001,0l-0.001-0.001c0,0-0.001,0-0.001,0c0,0,0,0,0,0
		c-0.045-0.016-0.094-0.026-0.145-0.028h-0.001c0,0-0.001,0-0.001,0h-0.001c0,0,0,0,0,0H47.48h0l-0.001,0c0,0-0.001,0-0.001,0
		h-0.001h0c0,0,0,0-0.001,0h0c-0.001,0-0.001,0-0.001,0H47.47c0,0,0,0,0,0c0,0,0,0-0.001,0h0c0,0,0,0,0,0h-0.001h-0.001
		c0,0,0,0-0.001,0h0c0,0,0,0,0,0c-1.277,0-2.323-1.04-2.331-2.315V44.666h1.98c0.003,0,0.007,0,0.01,0
		c0.303,0.013,0.51-0.22,0.51-0.5c0-0.209-0.128-0.388-0.31-0.463l-9.551-6.592c-0.171-0.118-0.397-0.118-0.568,0l-9.626,6.644
		c-0.18,0.125-0.258,0.352-0.193,0.561c0.065,0.209,0.259,0.351,0.478,0.351h1.99l0.001,25.981c0.01,1.796,1.453,3.262,3.289,3.309
		c0.021,0.002,0.041,0.004,0.062,0.004h14.259c0.003,0,0.005,0,0.008,0c0.131-0.002,0.25-0.055,0.338-0.139c0,0,0,0,0,0
		c0.001-0.001,0.003-0.003,0.004-0.004c0,0,0.001-0.001,0.002-0.002c0,0,0,0,0,0l0.001-0.001l0,0l0,0l0,0c0,0,0,0,0,0
		c0.001,0,0,0,0.001-0.001c0,0,0,0,0,0l0,0c0,0,0,0,0,0c0.086-0.089,0.14-0.211,0.141-0.345v-0.001c0,0,0,0,0,0c0,0,0,0,0-0.001v0v0
		v-0.001c0,0,0,0,0,0v-0.001C47.961,73.255,47.842,73.082,47.67,73.004z"/>
	<path fill="#F4B21B" d="M68.323,73.004C68.323,73.003,68.322,73.003,68.323,73.004c-0.002-0.001-0.003-0.001-0.004-0.002h0
		c0,0,0,0,0,0l-0.001,0c0,0,0,0-0.001,0h0l-0.001,0c0.001,0,0,0-0.001,0c0,0,0,0,0,0h0c0,0,0,0,0,0c-0.001,0.001-0.001,0-0.002,0
		c0,0-0.001,0-0.001,0l-0.001,0h0c0,0,0,0,0,0s-0.001,0-0.001,0c-0.001,0-0.001,0-0.002,0c0,0,0-0.001-0.001,0c0,0,0,0,0,0
		c0,0-0.001,0-0.001,0l-0.001,0c-0.001,0-0.002,0-0.003-0.001s-0.002-0.001-0.003-0.001c0,0-0.001,0-0.001-0.001
		c0,0-0.001,0-0.001,0l-0.001,0c-0.002,0-0.001,0-0.001,0c-0.002,0-0.001,0-0.001,0c-0.001,0-0.001-0.001-0.002-0.001l-0.001,0h0
		c-0.045-0.016-0.094-0.026-0.145-0.028c0,0-0.001,0-0.001,0h-0.001c0,0-0.001,0-0.001,0h0h-0.001h0l-0.001,0c0,0-0.001,0-0.001,0
		h-0.001h0c0,0,0,0-0.001,0h0c-0.001,0-0.001,0-0.001,0c0,0-0.001,0-0.001,0h0h-0.001h0c0,0,0,0-0.001,0h0c0,0-0.001,0-0.001,0
		c0,0,0,0,0,0h-0.001c0,0,0,0-0.001,0c-1.277,0-2.322-1.04-2.33-2.315V50.482h1.99c0.007,0,0.013-0.001,0.02,0
		c0.276,0,0.5-0.224,0.5-0.5c0-0.209-0.128-0.388-0.31-0.463l-9.552-6.592c-0.171-0.118-0.397-0.118-0.568,0L48.24,49.57
		c-0.18,0.125-0.258,0.352-0.193,0.561c0.065,0.209,0.259,0.351,0.478,0.351h1.981l0.001,20.165c0.009,1.797,1.454,3.264,3.29,3.309
		c0.02,0.002,0.04,0.003,0.06,0.003h14.259c0.003,0,0.005,0,0.008,0c0.131-0.002,0.25-0.055,0.338-0.139c0,0,0,0,0,0
		c0.001-0.001,0.004-0.003,0.004-0.004c0,0,0.001-0.001,0.002-0.002c0,0,0,0,0.001-0.001l0,0l0,0c0,0,0,0,0,0l0,0l0,0
		c0.002,0,0.001,0,0.001-0.001c0,0,0,0,0,0c0,0,0,0,0,0c0,0,0,0,0,0c0.086-0.089,0.14-0.211,0.141-0.345v-0.001c0,0,0,0,0,0
		c0,0,0,0,0-0.001v0v0v-0.001c0,0,0,0,0,0v-0.001C68.615,73.255,68.495,73.082,68.323,73.004z"/>
	<path fill="#F2D864" d="M88.983,73.004C88.983,73.003,88.982,73.003,88.983,73.004c-0.002-0.001-0.003-0.001-0.003-0.001l-0.001,0
		c0,0,0,0-0.001,0l0,0c0,0,0,0-0.001,0c0,0,0,0,0,0c0,0,0,0-0.001,0l-0.001,0c0,0,0,0,0,0h0c0,0,0,0,0,0
		c-0.001,0.001-0.001,0-0.002,0c0.001,0,0,0-0.001,0l0,0h0c0,0,0,0,0,0l-0.001,0c-0.002,0-0.001,0-0.002,0c0,0,0-0.001-0.001,0
		c0,0,0,0,0,0c0,0-0.001,0-0.001,0l-0.001,0c-0.001,0-0.002,0-0.003-0.001s-0.002-0.001-0.003-0.001c0,0-0.001,0-0.001,0
		c-0.001,0-0.001,0-0.002-0.001l-0.001,0c-0.002,0-0.002,0-0.002,0c-0.002,0-0.001,0-0.001,0c0,0-0.001,0-0.001,0l-0.001,0h0
		c-0.045-0.016-0.094-0.026-0.145-0.028c0,0-0.001,0-0.001,0h-0.001c0,0-0.001,0-0.001,0h0h-0.001h0c0,0-0.001,0-0.001,0H88.79
		c0,0-0.001,0-0.001,0h0c0,0,0,0,0,0h-0.001c-0.001,0-0.001,0-0.001,0c0,0-0.001,0-0.001,0h0h-0.001h0c0,0,0,0-0.001,0h0
		c0,0-0.001,0-0.001,0c0,0,0,0,0,0h-0.001c0,0,0,0-0.001,0c-1.277,0-2.322-1.04-2.33-2.315V56.296h1.985c0.003,0,0.007,0,0.01,0
		c0.281-0.007,0.51-0.22,0.51-0.5c0-0.209-0.128-0.388-0.31-0.463l-9.552-6.592c-0.171-0.118-0.397-0.118-0.568,0l-9.625,6.643
		c-0.18,0.125-0.258,0.352-0.193,0.561c0.065,0.209,0.259,0.351,0.478,0.351h1.985l0.001,14.35c0.01,1.797,1.455,3.264,3.29,3.309
		c0.02,0.002,0.04,0.003,0.06,0.003h14.259c0.003,0,0.005,0,0.008,0c0.131-0.002,0.25-0.055,0.338-0.139c0,0,0,0,0,0
		c0.001-0.001,0.004-0.003,0.004-0.004c0,0,0.001-0.001,0.002-0.002c0,0,0,0,0.001-0.001l0,0l0,0l0,0l0,0c0,0,0,0,0,0
		c0.002,0,0,0,0.001-0.001c0,0,0,0,0,0c0,0,0,0,0,0c0,0,0,0,0,0c0.086-0.089,0.14-0.211,0.141-0.345v-0.001c0,0,0,0,0,0
		c0,0,0,0,0-0.001v0v0v-0.001c0,0,0,0,0,0v-0.001C89.275,73.255,89.155,73.082,88.983,73.004z"/>
</g>
<g>
	<path fill="#0E2F5A" d="M181.67,51.013c-1.036-1.126-2.335-2.017-3.859-2.647c-1.553-0.638-3.362-0.966-5.377-0.974
		c-2.012,0.008-3.822,0.336-5.374,0.974c-1.524,0.63-2.823,1.52-3.86,2.647c-1.058,1.159-1.83,2.462-2.357,3.982
		c-0.537,1.525-0.808,3.202-0.808,4.987c0,1.356,0.14,2.68,0.418,3.936c0.269,1.222,0.711,2.383,1.317,3.453
		c0.595,1.039,1.38,1.963,2.334,2.742c0.946,0.781,2.12,1.397,3.49,1.831c1.37,0.441,2.999,0.669,4.841,0.677
		c1.842-0.008,3.47-0.236,4.838-0.677c1.371-0.434,2.545-1.049,3.49-1.83c0.949-0.77,1.735-1.693,2.339-2.746
		c0.603-1.068,1.046-2.23,1.315-3.451c0.282-1.241,0.418-2.528,0.418-3.936c0-1.783-0.272-3.461-0.808-4.986
		C183.501,53.476,182.729,52.173,181.67,51.013z M178.489,63.138c-0.231,0.985-0.609,1.891-1.124,2.689
		c-0.515,0.799-1.19,1.441-2.004,1.909c-0.822,0.463-1.804,0.701-2.921,0.709c-1.121-0.008-2.1-0.246-2.917-0.707
		c-0.828-0.476-1.505-1.118-2.017-1.911c-0.503-0.779-0.88-1.683-1.123-2.689c-0.236-0.977-0.356-2.039-0.356-3.154
		c0-1.168,0.125-2.268,0.372-3.268c0.24-0.997,0.627-1.897,1.153-2.671c0.534-0.779,1.214-1.39,2.022-1.82
		c0.806-0.425,1.768-0.645,2.859-0.654h0.008c1.087,0.009,2.05,0.228,2.864,0.652c0.808,0.434,1.484,1.046,2.015,1.82
		c0.522,0.771,0.912,1.669,1.161,2.674c0.243,1.009,0.365,2.107,0.365,3.268C178.845,61.097,178.725,62.159,178.489,63.138z"/>
	<path fill="#0E2F5A" d="M200.314,72.086c0.987-0.36,1.865-0.852,2.607-1.461c0.777-0.631,1.483-1.369,2.098-2.197l0.147-0.197
		h0.734l0.095,0.489v0.907c0,0.635,0.095,1.175,0.289,1.653c0.183,0.423,0.458,0.746,0.837,0.976
		c0.382,0.237,0.899,0.36,1.541,0.367c0.631-0.007,1.149-0.13,1.527-0.364c0.382-0.233,0.657-0.555,0.843-0.987
		c0.192-0.469,0.286-1.009,0.286-1.644V50.389c0.007-0.565-0.084-1.086-0.268-1.556c-0.163-0.431-0.447-0.765-0.87-1.03
		c-0.435-0.265-1.063-0.404-1.862-0.411c-0.785,0.007-1.41,0.147-1.849,0.414c-0.418,0.261-0.706,0.597-0.876,1.027
		c-0.184,0.469-0.274,0.991-0.267,1.55v11.51c-0.009,0.959-0.182,1.787-0.531,2.538c-0.347,0.737-0.805,1.366-1.364,1.874
		c-0.557,0.506-1.182,0.898-1.859,1.167c-0.703,0.27-1.366,0.401-2.034,0.401c-1.088-0.009-2.006-0.243-2.732-0.695
		c-0.73-0.462-1.28-1.107-1.639-1.92c-0.338-0.762-0.51-1.67-0.51-2.695V50.389c0.007-0.563-0.084-1.084-0.269-1.556
		c-0.171-0.434-0.455-0.77-0.87-1.028c-0.434-0.265-1.063-0.404-1.862-0.412c-0.79,0.007-1.418,0.147-1.856,0.414
		c-0.412,0.261-0.698,0.599-0.867,1.027c-0.185,0.47-0.275,0.991-0.267,1.549v13.564c0.014,1.692,0.264,3.114,0.74,4.223
		c0.476,1.101,1.114,1.987,1.897,2.632c0.799,0.657,1.666,1.116,2.652,1.404c0.962,0.282,1.916,0.419,2.919,0.419l0.082,0
		C198.207,72.615,199.337,72.434,200.314,72.086z"/>
	<path fill="#0E2F5A" d="M154.444,38.325c-0.464-0.225-0.995-0.337-1.617-0.337c-0.613,0-1.159,0.115-1.623,0.34
		c-0.429,0.218-0.757,0.535-0.996,0.967c-0.243,0.438-0.37,1.008-0.376,1.693v28.638c0.007,0.68,0.134,1.25,0.376,1.689
		c0.235,0.424,0.563,0.739,1.004,0.963c0.455,0.228,1,0.345,1.616,0.345c0.624,0,1.154-0.113,1.62-0.346
		c0.436-0.222,0.765-0.536,1-0.961c0.243-0.438,0.37-1.008,0.377-1.694V40.984c-0.008-0.681-0.135-1.25-0.377-1.688
		C155.208,38.863,154.88,38.546,154.444,38.325z"/>
	<path fill="#0E2F5A" d="M350.254,49.343c-0.101-0.288-0.271-0.593-0.501-0.891c-0.228-0.286-0.539-0.53-0.944-0.74
		c-0.396-0.205-0.903-0.313-1.508-0.32c-0.54,0.007-0.984,0.118-1.345,0.341c-0.376,0.233-0.687,0.548-0.921,0.935
		c-0.254,0.427-0.45,0.907-0.598,1.464l-4.346,16.165h-0.748l-0.196-0.359l-4.487-16.279c-0.194-0.7-0.545-1.238-1.074-1.643
		c-0.545-0.412-1.213-0.616-2.038-0.624c-0.542,0.007-1.024,0.13-1.459,0.375c-0.441,0.254-0.782,0.586-1.038,1.011
		c-0.263,0.424-0.392,0.905-0.4,1.473c0,0.219,0.029,0.462,0.084,0.716c0.061,0.281,0.152,0.599,0.273,0.962
		c0.127,0.39,0.286,0.856,0.476,1.402l7.304,20.807l-0.035,0.142c-0.19,0.761-0.445,1.34-0.756,1.719
		c-0.33,0.39-0.704,0.638-1.116,0.744c-0.302,0.072-0.596,0.106-0.883,0.106l-0.18-0.004l-0.689,0c-0.567,0-1.044,0.09-1.455,0.275
		c-0.394,0.171-0.702,0.426-0.921,0.761c-0.217,0.339-0.327,0.764-0.333,1.298c0,0.48,0.123,0.91,0.376,1.306
		c0.259,0.407,0.655,0.727,1.215,0.979c0.576,0.27,1.352,0.41,2.313,0.418c1.032,0,1.938-0.145,2.691-0.43
		c0.762-0.289,1.406-0.703,1.967-1.265c0.582-0.581,1.104-1.305,1.554-2.15c0.463-0.896,0.9-1.934,1.298-3.081l8.069-22.869
		c0.163-0.443,0.286-0.834,0.378-1.186c0.078-0.322,0.119-0.609,0.119-0.847C350.398,49.937,350.374,49.719,350.254,49.343z"/>
	<path fill="#0E2F5A" d="M305.453,68.92c-0.1-0.35-0.183-0.756-0.262-1.282c-0.072-0.479-0.108-1.074-0.116-1.873V54.064
		c-0.007-1.163-0.262-2.165-0.756-2.975c-0.509-0.843-1.212-1.515-2.151-2.06c-0.949-0.551-2.102-0.965-3.423-1.232
		c-1.335-0.268-2.847-0.404-4.494-0.404c-0.22,0.001-0.437,0.005-0.652,0.012l-0.174,0.015c-0.674,0.028-1.273,0.078-1.831,0.155
		l-0.261,0.042c-0.662,0.102-1.217,0.218-1.699,0.354c-1.319,0.366-2.439,0.853-3.332,1.448c-0.893,0.598-1.564,1.237-1.994,1.897
		c-0.434,0.666-0.646,1.284-0.646,1.889c0.007,0.396,0.106,0.751,0.304,1.075c0.2,0.328,0.478,0.589,0.853,0.796
		c0.373,0.2,0.82,0.307,1.322,0.313c0.428-0.007,0.815-0.115,1.138-0.321c0.349-0.228,0.709-0.525,1.064-0.88
		c0.396-0.405,0.828-0.798,1.278-1.164c0.503-0.409,1.111-0.744,1.855-1.025c0.317-0.118,0.689-0.212,1.137-0.289
		c0.089-0.016,0.186-0.027,0.284-0.038l0.112-0.012c0.357-0.044,0.749-0.086,1.19-0.09c0.849,0,1.63,0.106,2.324,0.315
		c0.749,0.226,1.357,0.588,1.81,1.075c0.487,0.506,0.741,1.167,0.751,1.958c-0.009,0.778-0.173,1.367-0.5,1.815
		c-0.335,0.434-0.777,0.741-1.322,0.922c-0.475,0.161-1.022,0.273-1.626,0.333l-4.243,0.477c-1.279,0.136-2.525,0.367-3.707,0.686
		c-1.127,0.314-2.121,0.756-2.95,1.311c-0.822,0.551-1.472,1.277-1.931,2.159c-0.468,0.893-0.709,2.03-0.716,3.381
		c0.007,1.006,0.217,1.932,0.625,2.747c0.408,0.815,0.947,1.495,1.649,2.078c0.692,0.575,1.491,1.022,2.371,1.331
		c0.902,0.313,1.8,0.466,2.742,0.466l0.11,0c1.144,0,2.248-0.124,3.279-0.369c0.195-0.046,0.388-0.097,0.578-0.154
		c0.147-0.043,0.289-0.099,0.432-0.155l0.392-0.146c0.093-0.032,0.185-0.063,0.275-0.102c0.513-0.215,0.961-0.437,1.368-0.678
		c0.957-0.57,1.884-1.343,2.753-2.296l0.81-0.889l0.04,1.202c0.021,0.647,0.155,1.262,0.398,1.829
		c0.231,0.522,0.592,0.936,1.101,1.259c0.508,0.323,1.222,0.49,2.121,0.497c0.493-0.007,0.938-0.104,1.348-0.296
		c0.393-0.183,0.715-0.446,0.957-0.782c0.227-0.317,0.347-0.691,0.353-1.115c0-0.205-0.03-0.414-0.095-0.651L305.453,68.92z
		 M299.083,63.468c0,0.71-0.158,1.411-0.467,2.083c-0.315,0.666-0.753,1.246-1.341,1.78c-0.572,0.513-1.275,0.925-2.092,1.227
		c-0.341,0.124-0.728,0.225-1.185,0.308l-0.203,0.038c-0.456,0.072-0.9,0.109-1.355,0.113c-0.879-0.009-1.638-0.154-2.263-0.432
		c-0.651-0.286-1.168-0.688-1.535-1.195c-0.372-0.515-0.561-1.096-0.561-1.726c0-0.799,0.207-1.479,0.615-2.021
		c0.395-0.532,0.975-0.956,1.719-1.257c0.712-0.288,1.578-0.505,2.574-0.644l2.526-0.381c0.262-0.045,0.582-0.107,0.94-0.185
		c0.34-0.074,0.685-0.179,1.023-0.311c0.308-0.121,0.566-0.278,0.789-0.48l0.817-0.743V63.468z"/>
	<path fill="#0E2F5A" d="M129.007,43.948c1.148-0.549,2.388-0.827,3.688-0.827c1.267,0.008,2.284,0.17,3.114,0.495
		c0.819,0.309,1.521,0.727,2.079,1.241c0.528,0.494,0.989,1.023,1.374,1.576c0.363,0.519,0.717,1.016,1.069,1.48
		c0.319,0.418,0.699,0.762,1.13,1.023c0.416,0.253,0.954,0.384,1.598,0.391c1.018-0.007,1.789-0.274,2.283-0.794
		c0.503-0.518,0.756-1.273,0.756-2.249c0-0.588-0.18-1.265-0.534-2.01c-0.366-0.746-0.918-1.508-1.638-2.258
		c-0.722-0.752-1.634-1.455-2.712-2.089c-1.071-0.631-2.335-1.147-3.755-1.533c-1.426-0.388-3.03-0.588-4.767-0.595
		c-2.134,0.007-4.099,0.314-5.838,0.911c-1.717,0.599-3.249,1.446-4.551,2.518c-1.31,1.094-2.409,2.374-3.263,3.803
		c-0.886,1.477-1.556,3.092-1.992,4.803c-0.443,1.743-0.668,3.584-0.668,5.472c0.015,3.86,0.685,7.128,1.992,9.709
		c1.302,2.568,3.198,4.526,5.633,5.82c2.472,1.313,5.492,1.979,8.974,1.98c1.853-0.015,3.595-0.291,5.177-0.818
		c1.592-0.541,2.999-1.269,4.181-2.162c1.191-0.907,2.123-1.924,2.77-3.024c0.649-1.099,0.983-2.24,0.99-3.392
		c-0.013-0.519-0.163-0.956-0.457-1.321c-0.312-0.381-0.722-0.675-1.216-0.871c-0.524-0.216-1.08-0.324-1.658-0.324
		c-0.51,0.007-0.947,0.138-1.331,0.4c-0.399,0.281-0.77,0.647-1.127,1.118c-0.371,0.489-0.751,1.018-1.145,1.571
		c-0.405,0.577-0.877,1.132-1.401,1.648c-0.543,0.535-1.211,0.981-1.982,1.323c-0.789,0.342-1.728,0.519-2.796,0.528
		c-1.766-0.009-3.29-0.346-4.537-1.003c-1.246-0.653-2.273-1.566-3.049-2.712c-0.756-1.13-1.315-2.439-1.662-3.892
		c-0.344-1.442-0.515-2.983-0.507-4.58c0.009-1.9,0.255-3.622,0.731-5.118c0.489-1.508,1.17-2.796,2.022-3.831
		C126.853,45.3,127.87,44.491,129.007,43.948z"/>
	<path fill="#0E2F5A" d="M238.851,40.984c0-0.67-0.127-1.238-0.376-1.688c-0.239-0.432-0.567-0.749-1.004-0.971
		c-0.897-0.443-2.305-0.451-3.24,0.004c-0.429,0.218-0.757,0.535-0.996,0.967c-0.242,0.437-0.369,1.006-0.376,1.694v9.935h-0.761
		l-0.239-0.232c-0.647-1.045-1.524-1.864-2.605-2.435c-0.278-0.145-0.588-0.275-0.946-0.399c-0.061-0.021-0.123-0.038-0.185-0.055
		l-0.139-0.04c-0.234-0.07-0.474-0.134-0.722-0.183l-0.117-0.03c-0.125-0.026-0.214-0.036-0.303-0.046l-0.454-0.059
		c-0.32-0.032-0.648-0.053-0.99-0.055c-1.405,0.008-2.67,0.232-3.754,0.666c-1.088,0.432-2.049,1.045-2.858,1.824
		c-0.815,0.783-1.478,1.681-2.029,2.744c-0.545,1.067-0.951,2.213-1.205,3.402c-0.267,1.214-0.403,2.495-0.403,3.812
		c0.016,2.198,0.307,4.123,0.863,5.718c0.56,1.603,1.33,2.937,2.291,3.965c0.952,1.034,2.066,1.818,3.314,2.332
		c1.245,0.508,2.583,0.767,3.974,0.767c0.527,0,1.042-0.036,1.528-0.108c0.53-0.081,1.021-0.195,1.478-0.345
		c0.902-0.303,1.696-0.761,2.354-1.361c0.658-0.585,1.174-1.347,1.537-2.268l0.122-0.309h0.821l0.095,0.489v1.098
		c0.007,0.945,0.231,1.657,0.668,2.113c0.439,0.459,1.111,0.692,1.994,0.692c0.917,0,1.597-0.231,2.021-0.687
		c0.425-0.458,0.641-1.17,0.641-2.118V40.984z M232.927,63.043c-0.21,0.954-0.558,1.823-1.034,2.579
		c-0.471,0.762-1.109,1.382-1.894,1.84c-0.198,0.116-0.406,0.216-0.625,0.303c-0.059,0.023-0.123,0.042-0.186,0.061l-0.145,0.046
		c-0.114,0.039-0.228,0.078-0.349,0.107c-0.074,0.018-0.152,0.031-0.23,0.043l-0.096,0.016c-0.195,0.038-0.296,0.058-0.403,0.071
		c-0.084,0.01-0.172,0.014-0.259,0.018l-0.22,0.013c-0.104,0.008-0.207,0.016-0.315,0.017c-1.033-0.034-1.93-0.276-2.686-0.72
		c-0.753-0.433-1.391-1.035-1.894-1.789c-0.484-0.739-0.851-1.594-1.093-2.546c-0.237-0.925-0.357-1.943-0.357-3.025
		c0-0.698,0.053-1.412,0.156-2.123c0.106-0.726,0.288-1.454,0.541-2.162c0.262-0.72,0.624-1.377,1.077-1.959
		c0.46-0.6,1.05-1.083,1.75-1.433c0.686-0.352,1.528-0.536,2.498-0.545h0.004c0.13,0,0.253,0.009,0.376,0.019l0.214,0.013
		c0.082,0.003,0.162,0.007,0.239,0.017c0.134,0.016,0.26,0.042,0.386,0.068l0.17,0.032c0.069,0.011,0.138,0.023,0.202,0.04
		c0.144,0.037,0.28,0.086,0.414,0.136l0.121,0.042c0.057,0.018,0.116,0.037,0.169,0.06c0.222,0.095,0.434,0.206,0.635,0.333
		c0.79,0.5,1.424,1.172,1.884,1.997c0.45,0.791,0.781,1.679,0.983,2.636c0.197,0.988,0.288,1.914,0.281,2.834
		C233.241,61.145,233.138,62.115,232.927,63.043z"/>
	<path fill="#0E2F5A" d="M325.395,52.076c0.282-0.44,0.427-1.041,0.434-1.788c-0.007-0.559-0.145-1.048-0.424-1.482
		c-0.275-0.43-0.665-0.773-1.159-1.02c-0.503-0.259-1.074-0.387-1.752-0.394c-0.746,0.007-1.418,0.162-1.987,0.461
		c-0.569,0.299-1.056,0.701-1.488,1.229c-0.425,0.53-0.788,1.131-1.077,1.782c-0.307,0.673-0.55,1.354-0.747,2.085l-0.096,0.362
		h-0.864l-0.095-0.489v-2.673c-0.008-0.608-0.128-1.126-0.359-1.534c-0.233-0.405-0.537-0.702-0.928-0.904
		c-0.405-0.213-0.866-0.32-1.375-0.32c-0.509,0-0.97,0.107-1.372,0.318c-0.394,0.204-0.698,0.5-0.933,0.909
		c-0.229,0.405-0.349,0.922-0.356,1.536v19.472c-0.008,0.563,0.082,1.084,0.268,1.556c0.166,0.422,0.454,0.756,0.879,1.022
		c0.426,0.271,1.047,0.411,1.849,0.419c0.8-0.008,1.425-0.148,1.856-0.419c0.418-0.261,0.703-0.595,0.872-1.022
		c0.185-0.468,0.275-0.99,0.268-1.549v-8.121c0-1.976,0.17-3.517,0.52-4.712c0.368-1.242,0.92-2.146,1.64-2.688
		c0.711-0.545,1.582-0.823,2.586-0.823l1.328,0.001c0.531,0,1.021-0.098,1.456-0.292C324.773,52.808,325.128,52.5,325.395,52.076z"
		/>
	<path fill="#0E2F5A" d="M275.383,49.216c-0.8-0.658-1.667-1.117-2.654-1.406c-0.964-0.282-1.918-0.419-2.92-0.419
		c-1.353,0.008-2.481,0.189-3.435,0.536c-0.99,0.361-1.868,0.852-2.609,1.461c-0.78,0.634-1.485,1.372-2.098,2.197l-0.146,0.198
		h-0.735l-0.096-0.489v-0.907c0-0.635-0.097-1.19-0.288-1.651c-0.182-0.425-0.457-0.748-0.837-0.98
		c-0.392-0.243-0.908-0.366-1.535-0.366s-1.143,0.123-1.533,0.364c-0.383,0.234-0.658,0.556-0.843,0.987
		c-0.189,0.456-0.286,1.012-0.286,1.645v19.238c-0.007,0.565,0.083,1.087,0.268,1.555c0.166,0.421,0.453,0.756,0.875,1.024
		c0.43,0.269,1.055,0.41,1.858,0.417c0.794-0.007,1.419-0.148,1.852-0.419c0.418-0.261,0.703-0.595,0.872-1.022
		c0.185-0.471,0.275-0.992,0.267-1.548V58.122c0.01-0.962,0.183-1.79,0.532-2.538c0.347-0.737,0.805-1.367,1.364-1.874
		c0.554-0.504,1.179-0.896,1.858-1.166c0.679-0.269,1.345-0.4,2.035-0.4c1.096,0.008,2.015,0.243,2.735,0.695
		c0.727,0.461,1.276,1.104,1.634,1.91c0.34,0.772,0.512,1.681,0.512,2.705v12.173c-0.007,0.565,0.083,1.086,0.268,1.556
		c0.166,0.422,0.454,0.756,0.879,1.022c0.433,0.27,1.054,0.411,1.849,0.419c0.8-0.008,1.426-0.148,1.858-0.419
		c0.426-0.266,0.71-0.599,0.867-1.015c0.188-0.475,0.278-0.996,0.271-1.556V56.069c-0.015-1.693-0.264-3.115-0.74-4.223
		C276.799,50.734,276.161,49.849,275.383,49.216z"/>
	<path fill="#0E2F5A" d="M248.967,47.803c-0.435-0.265-1.064-0.404-1.863-0.411c-0.78,0.007-1.422,0.15-1.847,0.413
		c-0.419,0.262-0.707,0.599-0.877,1.028c-0.185,0.472-0.275,0.993-0.267,1.549v19.245c-0.008,0.563,0.082,1.084,0.268,1.556
		c0.166,0.422,0.454,0.756,0.879,1.022c0.426,0.271,1.047,0.411,1.849,0.419c0.8-0.008,1.426-0.148,1.858-0.419
		c0.416-0.261,0.701-0.595,0.87-1.022c0.185-0.468,0.275-0.99,0.268-1.549V50.389c0.007-0.565-0.084-1.086-0.268-1.556
		C249.665,48.399,249.381,48.062,248.967,47.803z"/>
	<path fill="#0E2F5A" d="M248.641,38.403c-0.453-0.266-0.966-0.406-1.531-0.413c-0.566,0.007-1.079,0.146-1.531,0.413
		c-0.459,0.273-0.819,0.632-1.092,1.092c-0.266,0.453-0.406,0.966-0.413,1.531c0.007,0.566,0.146,1.079,0.413,1.531
		c0.273,0.459,0.633,0.819,1.092,1.092c0.453,0.266,0.965,0.406,1.531,0.413c0.566-0.007,1.078-0.146,1.531-0.413
		c0.459-0.273,0.819-0.633,1.092-1.092c0.266-0.453,0.406-0.965,0.413-1.531c-0.007-0.566-0.146-1.079-0.413-1.531
		C249.46,39.036,249.1,38.676,248.641,38.403z"/>
</g>
</svg>
