<svg xmlns="http://www.w3.org/2000/svg" viewBox="0 0 1000 600"><style>.s0 { fill: #0d1f31; } .s1 { fill: #dbdbdb; } .s2 { fill: #3b3b63; } .s3 { fill: #c6c6c6; } .s4 { fill: #53537a; } .s5 { fill: #bc9375; } .s6 { fill: #083251; } .s7 { fill: #fff; } .s8 { fill: #c49a7e; } .s9 { fill: #d8b7a0; } .s10 { fill: #333152; }</style><path d="M449.7 392c-18.5 0-33.5-3.2-46.4-9.3l3.9-29.5c13.6 6.7 28.9 9.8 41.7 9.8 9.4 0 15.5-3.2 15.5-8.8 0-16.2-58.5-12.3-58.5-54.7 0-27.1 24.9-41.3 56-41.3 15.5 0 31.6 4.2 41.9 7.9l-4.2 29c-10.9-4.2-25.7-8.1-38-8.1-7.6 0-13.8 2.7-13.8 7.6 0 16 59.7 12.8 59.7 54.1.2 27.5-24.3 43.3-57.8 43.3zm161.7-2.8v-73.1c0-16.7-7.4-24.6-21.5-24.6-6.9 0-14.1 1.9-19 4.9v92.8h-43.4V262.5L570 259l-1 20.7h1.4c9.1-12.3 24.7-21.6 43.2-21.6 22.2 0 41.4 13.7 41.4 46.2v84.9h-43.6zm286.7 0l-34.7-60.3h-3.5v60.3h-43.4V239.1l43.4-67.7v140.1c8.6-10.6 37.7-50.7 37.7-50.7h53.6l-50.8 53.6 52.5 74.9h-54.8v-.1zm-137.9-128L742.4 319c-3.5 10.9-6.9 30.9-6.9 30.9s-2.7-20.7-6.4-31.6l-19-57.1h-48.6l52.8 128c-7.2 17-18.3 31.4-33.1 31.4-2.7 0-5.3-.1-7.9-.4L656 446.9c5.4 3.1 15.8 6.3 28.2 6.3 32.1 0 53.6-25.9 68.6-64.3l50.4-127.6h-43v-.1z" class="s0"/><path d="M173.2 197.6l3 4.9c7.9-2.2 17.8-4.2 27.9-4.2 10.1 0 20.1 2 28 4.2l3-4.9 3.2-22.1c-10.6-.6-21.9-1-33.9-1-12.2 0-23.6.4-34.3 1l3.1 22.1z" class="s1"/><path d="M269.3 367.4h-65.4V257.3l-66.3 106.9-10.3 109.6 75.6 54.4 1 .7 77.3-55.4z" class="s2"/><path d="M232.13 202.55l3-4.9 3.2-22.1c-10.6-.6-21.9-1-33.9-1h-.2v23.8c10.1 0 20 2 27.9 4.2zm83.9-16.4c2.5 8.1 4 15.4 4 20.9v3l-16 43.2c8.2 74.8 4.5 84.2 3.1 87.8-.8 2.1-3.2 8.3-18.7 28.9l9.9 91.5 46.1-33v-234.3c-.1 0-9.9-3.8-28.4-8z" class="s3"/><path d="M281.5 473.2l-11.9-105.8h-65.4v161.2z" class="s2"/><path d="M127.3 473.8l76.6 55.1V257.3l-66.3 106.9z" class="s4"/><path d="M236.9 442.6c0 18.1-17 27.1-32.5 27.1s-32.9-9-32.9-27.1" class="s5"/><path d="M227.3 432.3c0 21.3-11.5 27-23.2 27s-23.2-5.7-23.2-27" class="s6"/><path d="M204.2 452c-12.5 0-18.6-9.2-18.6-28h6c0 22 8.5 22 12.6 22s12.6 0 12.6-22h6c0 18.8-6.1 28-18.6 28z" class="s7"/><path d="M303.3 207c0-23-38.8-95.2-38.8-95.2l-13.1 91.6-11.8 19.3-35.3 1.5-.1.3v-.3l-35.3-1.4-11.9-19.4-13.1-91.6S105.1 184 105.1 207l16.4 44.1s-8.3 74.1-4.5 83.8c3.8 9.7 29.9 42.2 29.9 42.2s-.1 27.3 7.1 46.9c5.1 14 16.4 19.7 27.2 19.7 16.5 0 23-15.1 23-15.1s6.6 15.1 23.1 15.1c10.8 0 22-5.7 27.2-19.7 7.2-19.6 7.1-46.9 7.1-46.9s26.2-32.5 29.9-42.2c3.8-9.7-4.5-83.8-4.5-83.8l16.3-44.1z" class="s8"/><path d="M204.2 224.4l-.1.1v-.3l-35.3-1.4-11.8-19.4-13.1-91.6S105.1 184 105.1 207l16.4 44.1s-8.3 74.1-4.5 83.8c3.8 9.7 29.9 42.2 29.9 42.2s-.1 27.3 7.1 46.9c5.1 14 16.4 19.7 27.2 19.7 16.5 0 23-15.1 23-15.1s0 .1.1.2l-.1-204.4z" class="s9"/><path d="M287.3 255.5c-3-6.3 1.3-21.2 1.3-21.2-24.5-25.1-30.6-77.5-30.6-77.5-4.6 16.5-14.5 65.2-14.5 65.2s-18.3-6.8-39.1-6.8h-.2c-1.1 0-2.3 0-3.4.1v205.3l1.6 2.3v-1.1h1v1.1-1.1h1.9v1.1-1.1h1v1.1l16.9-24.7 3.7-69.5 21.1 24.1 27.2 7.9 10.2-7.2c4.3-6 5.7-11.2 6.8-13.9 3.6-9.8-4.9-84.1-4.9-84.1z" class="s2"/><path d="M204.4 215.1s-.1 0 0 0c-20.9 0-39.2 6.8-39.2 6.8s-10-48.7-14.5-65.2c0 0-6.1 52.4-30.6 77.5 0 0 4.3 14.9 1.3 21.2 0 0-8.5 74.3-4.7 84 1 2.7 2.5 7.8 6.8 13.9l10.2 7.2 27.2-7.9 21.1-24.1 3.7 69.5 16.9 24.7v-1.1h1v1.1-1.1h1l-.2-206.5z" class="s4"/><path d="M253.47 302.03h-31.7v.3c0 11.1 9.6 20 20.8 20 11.3 0 20.8-9 20.8-20v-.3h-9.9z" class="s10"/><path d="M229.67 302.03v.3c0 6.6 5.3 11.9 11.9 11.9s11.9-5.3 11.9-11.9v-.3h-23.8z" class="s7"/><path d="M245.27 302.03h-5.7c.7.1 1.1 1.7.9 2.8-.2 1.6-1.6 2.7-3.1 2.7.5 2.1 2.2 3.8 4.4 4.1 2.9.4 5.6-1.6 6-4.4.2-2.2-.8-5.2-2.5-5.2zm-68.4 0h-31.8v.3c0 11.1 9.6 20 20.8 20 11.3 0 20.8-9 20.8-20v-.3h-9.8z" class="s10"/><path d="M153.06 302.03v.3c0 6.6 5.3 11.9 11.9 11.9 6.6 0 11.9-5.3 11.9-11.9v-.3h-23.8z" class="s7"/><path d="M168.66 302.03h-5.7c.7.1 1.1 1.7.9 2.8-.2 1.6-1.6 2.7-3.1 2.7.5 2.1 2.2 3.8 4.4 4.1 2.9.4 5.6-1.6 6-4.4.2-2.2-.8-5.2-2.5-5.2z" class="s10"/><path d="M251.1 292.5c1.3-1.5 12.7-14.3-2.5-14.3-13.7 0-23.5 11-26.1 14.3h28.6z" class="s8"/><path d="M185.8 292.5c-2.6-3.3-12.4-14.3-26.1-14.3-15.1 0-3.8 12.8-2.5 14.3h28.6z" class="s9"/><path d="M137.8 296.4h57.9v5.4h-57.9z" class="s4"/><path d="M311.1 207.2c0-24.3-35.6-91.4-39.7-99L260 87l-16.3 113.9-7.5 12.4c-7.3-2.4-19.6-5.8-32.1-5.8-12.4 0-24.7 3.4-32 5.8l-7.5-12.4-5.7-39.9v-.2L148.3 87l-11.6 21.3c-4.1 7.6-40 74.7-40 99v1.4l16.4 43.7c-2.6 23.8-7.6 75.6-3.7 85.7 2.5 6.3 11.9 19.4 19.9 29.8L118.6 468l14.8 10.4 7.8-72.9c1.1 7.1 2.8 14.6 5.3 21.3 3.4 9.3 9.4 16.4 17.1 20.6.5 22.3 21.2 34.3 40.8 34.3 19.4 0 40-12 40.4-34.3 7.7-4.2 13.7-11.2 17.1-20.5 2.6-7 4.3-14.9 5.4-22.2l7.9 73.1L290 467l-10.7-99.5c7.9-10.4 17.2-23.3 19.6-29.5 3.9-10.1-1.3-61.9-3.9-85.7l16.1-43.7v-1.4zM113 205.9c.9-12.6 14-42.7 26.5-68.1l3.4 23.2c-1.3 8.7-7.1 42.7-22.7 64.2l-7.2-19.3zM204.4 466c-8.7 0-21.1-3.9-24.2-14.2h.9c1.7 0 3.3-.2 4.8-.4 4.4 6.1 11.3 8 18.3 8s13.9-1.9 18.3-8c1.5.2 3.1.4 4.7.4h1c-3 10.3-15.3 14.2-23.8 14.2zm-10.1-16.9c2.1-.9 4-2.1 5.7-3.3 1.5.5 3 .5 4.2.5 1.1 0 2.6 0 4.1-.4 1.7 1.2 3.6 2.3 5.7 3.3-2.7 2-5.9 3.1-9.8 3.1-3.9-.1-7.2-1.3-9.9-3.2zM284 332.3c-2.3 5.9-18.2 27-28.7 40.1l-1.8 2.2v2.8c0 .3 0 26.1-6.6 44.2-4.8 13.1-15.4 14.5-19.7 14.5-11 0-15.7-10-15.9-10.4l-.6-9.4h-13.3l-.6 9.3c-.2.4-4.8 10.4-15.7 10.4-4.3 0-14.9-1.4-19.7-14.5-6.6-18-6.6-43.9-6.6-44.2v-2.8l-1.8-2.2c-10.5-13.1-26.4-34.1-28.7-39.9-1.8-6.2 1.2-46.5 4.9-80.2l.2-1.9-3-8c10.4-10.6 17.6-25.3 22.5-39.3l.5 3.4 16.2 26.6 6.3-2.7c.2-.1 16.4-7 32.2-7 15.7 0 32.2 6.9 32.4 7l6.3 2.7 16.2-26.6.6-4.4c4.9 14.1 12.1 29.1 22.3 40l-3.1 8.4.2 1.9c3.8 33.7 6.8 73.9 5 80zm4.3-107.5c-16.8-23.6-22.1-62-22.6-65.6l3.1-21.4c12.5 25.4 25.6 55.5 26.5 68.1l-7 18.9z" class="s10"/><path d="M222.88 388.98h-37.2s-5 8.7-5 11.5c0 8.4 22.9 21.8 22.9 21.8s24.2-13.8 24.2-21.8c0-3.8-4.9-11.5-4.9-11.5z" class="s10"/><path d="M215.67 414.56c-2.1-3.7-4.8-4.3-6-1.5-1.2 2.8-.5 8.1 1.6 11.8 2.1 3.7 4.8 4.4 6 1.5 1.2-2.8.5-8.1-1.6-11.8z" class="s8"/><path d="M192.67 414.56c-2.1 3.7-2.8 9-1.5 11.8 1.2 2.8 3.9 2.2 6-1.5s2.8-9 1.5-11.8c-1.2-2.8-3.9-2.2-6 1.5z" class="s9"/><path d="M120.1 370.2c-15.7-20.8-18.1-27.1-19-29.2-3.4-8.9-2.5-38.4 2.9-87.8L87.8 210v-3c0-5.5 1.5-12.6 4-20.7-18.1 4.2-27.8 7.8-27.8 7.8v234.3l46.3 33.1 9.8-91.3z" class="s1"/></svg>