<?xml version="1.0" encoding="utf-8"?>
<!-- Generator: Adobe Illustrator 21.0.2, SVG Export Plug-In . SVG Version: 6.00 Build 0)  -->
<svg version="1.1" id="Layer_1" xmlns="http://www.w3.org/2000/svg" xmlns:xlink="http://www.w3.org/1999/xlink" x="0px" y="0px"
	 viewBox="0 0 1000 600" style="enable-background:new 0 0 1000 600;" xml:space="preserve">
<style type="text/css">
	.st0{fill:#0D1F31;}
	.st1{fill:#DBDBDB;}
	.st2{fill:#3B3B63;}
	.st3{fill:#C6C6C6;}
	.st4{fill:#53537A;}
	.st5{fill:#BC9375;}
	.st6{fill:#083251;}
	.st7{fill:#FFFFFF;}
	.st8{fill:#C49A7E;}
	.st9{fill:#D8B7A0;}
	.st10{fill:#333152;}
</style>
<title>wordmark-symbol _horizontal</title>
<desc>Created with Sketch.</desc>
<g id="Logo">
	<g id="wordmark-symbol-_horizontal">
		<g id="wordmark" transform="translate(403.000000, 171.000000)">
			<path id="Shape" class="st0" d="M46.7,221c-18.5,0-33.5-3.2-46.4-9.3l3.9-29.5c13.6,6.7,28.9,9.8,41.7,9.8
				c9.4,0,15.5-3.2,15.5-8.8c0-16.2-58.5-12.3-58.5-54.7c0-27.1,24.9-41.3,56-41.3c15.5,0,31.6,4.2,41.9,7.9l-4.2,29
				c-10.9-4.2-25.7-8.1-38-8.1c-7.6,0-13.8,2.7-13.8,7.6c0,16,59.7,12.8,59.7,54.1C104.7,205.2,80.2,221,46.7,221L46.7,221z"/>
			<path id="Shape_1_" class="st0" d="M208.4,218.2v-73.1c0-16.7-7.4-24.6-21.5-24.6c-6.9,0-14.1,1.9-19,4.9v92.8h-43.4V91.5L167,88
				l-1,20.7h1.4c9.1-12.3,24.7-21.6,43.2-21.6c22.2,0,41.4,13.7,41.4,46.2v84.9H208.4L208.4,218.2z"/>
			<path id="Shape_2_" class="st0" d="M495.1,218.2l-34.7-60.3h-3.5v60.3h-43.4V68.1l43.4-67.7v140.1c8.6-10.6,37.7-50.7,37.7-50.7
				h53.6l-50.8,53.6l52.5,74.9h-54.8V218.2z"/>
			<path id="Shape_3_" class="st0" d="M357.2,90.2l-17.8,57.8c-3.5,10.9-6.9,30.9-6.9,30.9s-2.7-20.7-6.4-31.6l-19-57.1h-48.6
				l52.8,128c-7.2,17-18.3,31.4-33.1,31.4c-2.7,0-5.3-0.1-7.9-0.4l-17.3,26.7l0,0c5.4,3.1,15.8,6.3,28.2,6.3
				c32.1,0,53.6-25.9,68.6-64.3l50.4-127.6H357.2L357.2,90.2z"/>
		</g>
		<g id="symbol" transform="translate(64.000000, 87.000000)">
			<g id="Group">
				<path id="Shape_4_" class="st1" d="M109.2,110.6l3,4.9c7.9-2.2,17.8-4.2,27.9-4.2c10.1,0,20.1,2,28,4.2l3-4.9l3.2-22.1
					c-10.6-0.6-21.9-1-33.9-1c-12.2,0-23.6,0.4-34.3,1L109.2,110.6L109.2,110.6z"/>
				<polygon id="Shape_5_" class="st2" points="205.3,280.4 139.9,280.4 139.9,170.3 73.6,277.2 63.3,386.8 138.9,441.2 
					139.9,441.9 217.2,386.5 				"/>
				<g id="Shape_6_" transform="translate(139.531034, 87.052402)">
					<path class="st3" d="M28.6,28.5l3-4.9l3.2-22.1c-10.6-0.6-21.9-1-33.9-1c-0.1,0-0.1,0-0.2,0v23.8
						C10.8,24.3,20.7,26.3,28.6,28.5L28.6,28.5z"/>
					<path class="st3" d="M112.5,12.1c2.5,8.1,4,15.4,4,20.9v3l-16,43.2c8.2,74.8,4.5,84.2,3.1,87.8c-0.8,2.1-3.2,8.3-18.7,28.9
						l9.9,91.5l46.1-33V20.1C140.8,20.1,131,16.3,112.5,12.1L112.5,12.1z"/>
				</g>
				<polygon id="Shape_7_" class="st2" points="217.5,386.2 205.6,280.4 140.2,280.4 140.2,441.6 				"/>
				<polygon id="Shape_8_" class="st4" points="63.3,386.8 139.9,441.9 139.9,170.3 73.6,277.2 				"/>
				<path id="Shape_9_" class="st5" d="M172.9,355.6c0,18.1-17,27.1-32.5,27.1s-32.9-9-32.9-27.1"/>
				<path id="Shape_10_" class="st6" d="M163.3,345.3c0,21.3-11.5,27-23.2,27c-11.7,0-23.2-5.7-23.2-27"/>
				<path id="Shape_11_" class="st7" d="M140.2,365c-12.5,0-18.6-9.2-18.6-28h6c0,22,8.5,22,12.6,22c4.1,0,12.6,0,12.6-22h6
					C158.8,355.8,152.7,365,140.2,365L140.2,365z"/>
				<g id="Shape_12_" transform="translate(40.696552, 24.213974)">
					<path class="st8" d="M198.6,95.8c0-23-38.8-95.2-38.8-95.2l-13.1,91.6l-11.8,19.3L99.6,113l-0.1,0.3V113l-35.3-1.4L52.3,92.2
						L39.2,0.6c0,0-38.8,72.2-38.8,95.2l16.4,44.1c0,0-8.3,74.1-4.5,83.8c3.8,9.7,29.9,42.2,29.9,42.2s-0.1,27.3,7.1,46.9
						c5.1,14,16.4,19.7,27.2,19.7c16.5,0,23-15.1,23-15.1s6.6,15.1,23.1,15.1c10.8,0,22-5.7,27.2-19.7c7.2-19.6,7.1-46.9,7.1-46.9
						s26.2-32.5,29.9-42.2c3.8-9.7-4.5-83.8-4.5-83.8L198.6,95.8L198.6,95.8z"/>
					<path class="st9" d="M99.5,113.2l-0.1,0.1V113l-35.3-1.4L52.3,92.2L39.2,0.6c0,0-38.8,72.2-38.8,95.2l16.4,44.1
						c0,0-8.3,74.1-4.5,83.8c3.8,9.7,29.9,42.2,29.9,42.2s-0.1,27.3,7.1,46.9c5.1,14,16.4,19.7,27.2,19.7c16.5,0,23-15.1,23-15.1
						s0,0.1,0.1,0.2L99.5,113.2L99.5,113.2L99.5,113.2z"/>
				</g>
				<path id="Shape_13_" class="st2" d="M223.3,168.5c-3-6.3,1.3-21.2,1.3-21.2c-24.5-25.1-30.6-77.5-30.6-77.5
					c-4.6,16.5-14.5,65.2-14.5,65.2s-18.3-6.8-39.1-6.8l0,0h-0.1h-0.1l0,0c-1.1,0-2.3,0-3.4,0.1v205.3l1.6,2.3v-1.1h1v1.1l0-1.1h1.9
					v1.1v-1.1h1v1.1l16.9-24.7l3.7-69.5l21.1,24.1l27.2,7.9c0,0,10.2-7.2,10.2-7.2c4.3-6,5.7-11.2,6.8-13.9
					C231.8,242.8,223.3,168.5,223.3,168.5L223.3,168.5z"/>
				<path id="Shape_14_" class="st4" d="M140.4,128.1C140.4,128.1,140.3,128.1,140.4,128.1L140.4,128.1c-20.9,0-39.2,6.8-39.2,6.8
					s-10-48.7-14.5-65.2c0,0-6.1,52.4-30.6,77.5c0,0,4.3,14.9,1.3,21.2c0,0-8.5,74.3-4.7,84c1,2.7,2.5,7.8,6.8,13.9
					c0,0,10.2,7.2,10.2,7.2l27.2-7.9l21.1-24.1l3.7,69.5l16.9,24.7v-1.1h1v1.1v-1.1h1L140.4,128.1L140.4,128.1L140.4,128.1z"/>
				<g id="Shape_15_" transform="translate(79.455172, 214.729258)">
					<g transform="translate(77.517241, 0.000000)">
						<path class="st10" d="M32.5,0.3L32.5,0.3H8.7l0,0H0.8v0.3c0,11.1,9.6,20,20.8,20c11.3,0,20.8-9,20.8-20V0.3H32.5L32.5,0.3z"/>
						<path class="st7" d="M8.7,0.3v0.3c0,6.6,5.3,11.9,11.9,11.9S32.5,7.2,32.5,0.6V0.3H8.7L8.7,0.3z"/>
						<path class="st10" d="M24.3,0.3h-5.6c-0.1,0-0.1,0-0.1,0c0.7,0.1,1.1,1.7,0.9,2.8c-0.2,1.6-1.6,2.7-3.1,2.7
							c0.5,2.1,2.2,3.8,4.4,4.1c2.9,0.4,5.6-1.6,6-4.4C27,3.3,26,0.3,24.3,0.3L24.3,0.3z"/>
					</g>
					<g>
						<path class="st10" d="M33.4,0.3L33.4,0.3H9.6l0,0H1.6v0.3c0,11.1,9.6,20,20.8,20c11.3,0,20.8-9,20.8-20V0.3H33.4L33.4,0.3z"/>
						<path class="st7" d="M9.6,0.3v0.3c0,6.6,5.3,11.9,11.9,11.9c6.6,0,11.9-5.3,11.9-11.9V0.3H9.6L9.6,0.3z"/>
						<path class="st10" d="M25.2,0.3h-5.6c0,0-0.1,0-0.1,0c0.7,0.1,1.1,1.7,0.9,2.8c-0.2,1.6-1.6,2.7-3.1,2.7
							c0.5,2.1,2.2,3.8,4.4,4.1c2.9,0.4,5.6-1.6,6-4.4C27.9,3.3,26.9,0.3,25.2,0.3L25.2,0.3z"/>
					</g>
				</g>
				<path id="Shape_16_" class="st8" d="M187.1,205.5c1.3-1.5,12.7-14.3-2.5-14.3c-13.7,0-23.5,11-26.1,14.3H187.1L187.1,205.5z"/>
				<path id="Shape_17_" class="st9" d="M121.8,205.5c-2.6-3.3-12.4-14.3-26.1-14.3c-15.1,0-3.8,12.8-2.5,14.3H121.8L121.8,205.5z"
					/>
				<rect id="Rectangle-path" x="73.8" y="209.4" class="st4" width="57.9" height="5.4"/>
				<path id="Shape_18_" class="st10" d="M247.1,120.2c0-24.3-35.6-91.4-39.7-99L196,0l-16.3,113.9l-7.5,12.4
					c-7.3-2.4-19.6-5.8-32.1-5.8c-12.4,0-24.7,3.4-32,5.8l-7.5-12.4L94.9,74c0-0.1,0-0.2,0-0.2l0,0L84.3,0L72.7,21.3
					c-4.1,7.6-40,74.7-40,99v1.4l16.4,43.7c-2.6,23.8-7.6,75.6-3.7,85.7c2.5,6.3,11.9,19.4,19.9,29.8L54.6,381l14.8,10.4l7.8-72.9
					c1.1,7.1,2.8,14.6,5.3,21.3c3.4,9.3,9.4,16.4,17.1,20.6c0.5,22.3,21.2,34.3,40.8,34.3c19.4,0,40-12,40.4-34.3
					c7.7-4.2,13.7-11.2,17.1-20.5c2.6-7,4.3-14.9,5.4-22.2l7.9,73.1l14.8-10.8l-10.7-99.5c7.9-10.4,17.2-23.3,19.6-29.5
					c3.9-10.1-1.3-61.9-3.9-85.7l16.1-43.7L247.1,120.2L247.1,120.2z M49,118.9c0.9-12.6,14-42.7,26.5-68.1L78.9,74
					c-1.3,8.7-7.1,42.7-22.7,64.2L49,118.9L49,118.9z M140.4,379c-8.7,0-21.1-3.9-24.2-14.2c0.3,0,0.6,0,0.9,0
					c1.7,0,3.3-0.2,4.8-0.4c4.4,6.1,11.3,8,18.3,8c7,0,13.9-1.9,18.3-8c1.5,0.2,3.1,0.4,4.7,0.4c0.3,0,0.6,0,1,0
					C161.2,375.1,148.9,379,140.4,379L140.4,379z M130.3,362.1c2.1-0.9,4-2.1,5.7-3.3c1.5,0.5,3,0.5,4.2,0.5c1.1,0,2.6,0,4.1-0.4
					c1.7,1.2,3.6,2.3,5.7,3.3c-2.7,2-5.9,3.1-9.8,3.1C136.3,365.2,133,364,130.3,362.1L130.3,362.1z M220,245.3
					c-2.3,5.9-18.2,27-28.7,40.1l-1.8,2.2l0,2.8c0,0.3,0,26.1-6.6,44.2c-4.8,13.1-15.4,14.5-19.7,14.5c-11,0-15.7-10-15.9-10.4
					l-0.6-9.4h-13.3l-0.6,9.3c-0.2,0.4-4.8,10.4-15.7,10.4c-4.3,0-14.9-1.4-19.7-14.5c-6.6-18-6.6-43.9-6.6-44.2l0-2.8l-1.8-2.2
					c-10.5-13.1-26.4-34.1-28.7-39.9c-1.8-6.2,1.2-46.5,4.9-80.2l0.2-1.9l-3-8C72.8,144.7,80,130,84.9,116l0.5,3.4l16.2,26.6
					l6.3-2.7c0.2-0.1,16.4-7,32.2-7c15.7,0,32.2,6.9,32.4,7l6.3,2.7l16.2-26.6l0.6-4.4c4.9,14.1,12.1,29.1,22.3,40l-3.1,8.4l0.2,1.9
					C218.8,199,221.8,239.2,220,245.3L220,245.3z M224.3,137.8c-16.8-23.6-22.1-62-22.6-65.6l3.1-21.4
					c12.5,25.4,25.6,55.5,26.5,68.1L224.3,137.8L224.3,137.8z"/>
				<g id="Shape_19_" transform="translate(116.275862, 301.781659)">
					<path class="st10" d="M42.6,0.2H5.4c0,0-5,8.7-5,11.5c0,8.4,22.9,21.8,22.9,21.8s24.2-13.8,24.2-21.8
						C47.5,7.9,42.6,0.2,42.6,0.2L42.6,0.2z"/>
					<g transform="translate(9.689655, 21.279476)">
						<path class="st8" d="M25.7,4.5c-2.1-3.7-4.8-4.3-6-1.5c-1.2,2.8-0.5,8.1,1.6,11.8c2.1,3.7,4.8,4.4,6,1.5
							C28.5,13.5,27.8,8.2,25.7,4.5L25.7,4.5z"/>
						<path class="st9" d="M2.7,4.5c-2.1,3.7-2.8,9-1.5,11.8c1.2,2.8,3.9,2.2,6-1.5c2.1-3.7,2.8-9,1.5-11.8C7.5,0.2,4.8,0.8,2.7,4.5
							L2.7,4.5z"/>
					</g>
				</g>
				<path id="Shape_20_" class="st1" d="M56.1,283.2c-15.7-20.8-18.1-27.1-19-29.2c-3.4-8.9-2.5-38.4,2.9-87.8l-16.2-43.2v-3
					c0-5.5,1.5-12.6,4-20.7C9.7,103.5,0,107.1,0,107.1v234.3l46.3,33.1L56.1,283.2L56.1,283.2z"/>
			</g>
		</g>
	</g>
</g>
</svg>
