<svg xmlns="http://www.w3.org/2000/svg" xmlns:xlink="http://www.w3.org/1999/xlink" viewBox="0 0 262.2 189.4"><style>.a{fill:#9198cc;stroke:#2b2b2b;stroke-width:.25;stroke-miterlimit:10}.b{fill:#221f1f}.c{fill:#fff}.d,.e{fill:#d6d9ed;stroke:#2b2b2b;stroke-width:.25;stroke-miterlimit:10}.e{fill:none;stroke:#1a1a1a;stroke-width:.75;stroke-linecap:round;stroke-linejoin:round}.f{clip-path:url(#g)}.h,.i{stroke-width:.25;stroke-miterlimit:10}.h{stroke-linecap:round;stroke-linejoin:round;fill:none;stroke:#6b6b6b}.i{fill:#dd615b;stroke:#2b2b2b}.j{fill:#00035b}.k{fill:#d5d5d5;stroke:#55504f;stroke-width:.5;stroke-miterlimit:10}.l{fill:#f16f69}.m{fill:#c5665e;stroke:#2b2b2b;stroke-width:.25;stroke-miterlimit:10}</style><defs><path id="n" d="M193.9 173.2l-185.6-.6L9.8-29.7h184.1z"/></defs><clipPath id="g"><use xlink:href="#n" overflow="visible"/></clipPath><g class="f"><path d="M84 85.1c-37.3-3.6-70.7 26.5-74.7 67.3-.3 3.3-.4 6.5-.3 9.7 1 16.4 10.6 25.2 5.2 31.8L0 191.5c-6.2-2.7-27.3-17.4-32.1-18.1l.1-.2 1.9-3.3.8-1.3c3-5.1.4-12.4-5.8-16l-7.8-4.6c-.6-.4-1.4-.3-1.7.3l-7.7 13c-2 3.4-1.3 7.7 1.4 11.1l-.1.2c-4.3-.7-8.4.8-10.4 4.1l-7.7 13c-.3.5 0 1.3.6 1.6l7.8 4.6c6.2 3.7 13.8 2.5 16.8-2.7l1.4-2.4c4 6.3 11.5 14.1 20.5 21 2.4 1.8 4.3 3.1 7 4.8 8 5.3 16 9.4 23.1 12.1 12.6 5.2 28.3 8.2 45.2 8.2 16.3 0 31.4-2.8 43.7-7.7 5.1-1.9 10-4.3 14.5-7.4.9-.6 1.7-1.1 2.5-1.7.2-.2.4-.3.6-.5l1.4-1.1c15.3-12.2 26-31.1 28.2-53.1 4-40.6-23-76.6-60.2-80.3z" class="a"/><ellipse cx="63.4" cy="124" class="b" rx="4.3" ry="3.7"/><ellipse cx="110.5" cy="124" class="b" rx="4.3" ry="3.7"/><circle cx="64.1" cy="123.6" r=".7" class="c"/><circle cx="109.6" cy="123.6" r=".7" class="c"/><path d="M87.6 143.4c-48.4 0-58.2 43.4-58.2 43.4-32.5 7.4-51.3 25-51.3 25 2.2 1.6 4.4 3.3 6.8 4.8 8 5.3 16 9.4 23.1 12.1 12.6 5.2 28.3 8.2 45.2 8.2 16.3 0 31.4-2.8 43.7-7.7 5.1-1.9 10-4.3 14.5-7.4.9-.6 1.7-1.1 2.5-1.7.2-.2.4-.3.6-.5l1.4-1.1c13.8-11 23.9-27.5 27.3-46.8-.3-1.6-8.3-28.3-55.6-28.3z" class="d"/><path d="M82.1 136.8c2.9 2.2 6.9 2.2 9.9.1l.2-.1" class="e"/><path d="M108 7.5L94.5 104l-.7 5.2c-2.9 2.3-7 1.9-9.8.3l-.5-.3L108 7.5z" class="d"/><path d="M83.5 109.2s9-.7 11.1-5.7m-8.6-2.7c2.6-.4 8.2-1.7 9.8-5.5m-8.3-2.7c2.7-.5 7.8-1.9 9.3-5.4m-6.9-3.3c2.8-.6 6.8-2.1 8.1-5.2m-6.1-3.4c2.7-.7 6-2.2 7.2-4.9m-5.5-3.3c2.6-.8 5.6-2.2 6.8-4.8m-4.8-3.7c2.3-.8 4.8-2.2 5.8-4.5M97.7 50c2-.8 4-2.2 4.9-4.1m-2.5-4.8c1.5-.8 3.2-2.5 3.8-4m1.1-8.2c-.5 1.2-1.8 2.6-2.9 3.3" class="h"/><path d="M40.4 187.1s24.3-8.2 20.7-22.1c-.3-1.1-1.5-1.8-2.6-1.3l-23.8 8.6m95 11.9s-18.2-6.7-14.5-20.6c.3-1.1 1.5-1.7 2.6-1.3l21.2 8.9" class="a"/></g><path d="M250.6 172.8h-44.8V91.5c0-3.4 2.8-6.2 6.2-6.2h32.3c3.4 0 6.2 2.8 6.2 6.2v81.3z" class="i"/><path d="M-.3 172.8h262.9v14.7H-.3z" class="j"/><path d="M136.1 170.5H59l-2.3 2.7h79.4z" class="k"/><path d="M199.3 159.5H74.6c-.3 0-.5-.2-.5-.5V85.7c0-.3.2-.5.5-.5h124.6c.3 0 .5.2.5.5V159c0 .3-.2.5-.4.5z" class="i"/><path d="M198.8 86.5h-8.2s-14.4 27.8-48 33.4c-37 6.2-64.7 38.4-64.7 38.4h120.8V86.5z" class="l"/><path d="M142.4 167.9v-26.6h-7.9v26.6l-19.7 2.4v2.9H162v-2.9z" class="m"/></svg>