<svg xmlns="http://www.w3.org/2000/svg" viewBox="0 0 256.4 380"><path fill="#fff" d="M200.4 83.2l-27.5-13.8-13.6-15.3L127 70.9 112.6 9.8l-27.8 107L54.4 100 3.2 161.3l14.2 52.3 24.6 9.6 15 22.5L84.8 327l37.5 49.2 23.5-65.2 34.2-50.3 25.7-52.4 46.7-47z"/><path fill="#d3d3d3" d="M112.6 9.8L80.7 127.7l26.1 11.4zm11.5 102.9l35.2-58.6L127 70.9zm53.2 9.1l23.1-38.6-27.5-13.8z"/><path fill="#dbeef2" d="M124.1 112.7l2.9-41.8-14.4-61.1-6.7 102.7-5.8 21.7-15.3-17.4L54.4 100l15.2 37-20 24.3-7.6 18.1 27.9 28.9L86 245.7l2-37.4 48.3-47z"/><path fill="#dbeef2" d="M193.2 160.8h-.2l-14.7-38.7-5.4-52.7-13.6-15.3-10.4 66-.3 41.2-18.8 18.1 36.1 27.9 17.7 46.1 19.2-39.1z"/></svg>