<svg xmlns="http://www.w3.org/2000/svg" viewBox="0 0 452 120"><style>.a,.b{fill:#fff}.b{stroke:#fff;stroke-miterlimit:10}</style><path d="M138.4 80.4c-.7-1.4 0-2.4 1.5-2.9l2.1-.5c1.4-.4 2.2.2 2.9 1.5 2.3 4.2 7.4 7.9 14.7 7.9 9 0 14.4-4.8 14.4-10.8 0-5.5-4.7-8.9-10-10.8l-9.8-3.3c-11.6-3.8-13.7-10.5-13.7-15.7 0-10.3 9.1-16.5 19.4-16.5 9.5 0 16.3 4.6 18.8 11.6.5 1.4-.2 2.4-1.6 2.9l-1.8.5c-1.4.4-2.3-.1-2.9-1.5-1.9-4.6-6.6-7.3-12.6-7.3-6.7 0-12.3 3.8-12.3 10.2 0 3.1 1 6.9 8.8 9.7l9.9 3.5c9 2.9 14.6 9.3 14.6 16.3 0 10.2-8.3 17.3-21 17.3-10.8-.1-18.4-5.4-21.4-12.1zm52.8-19.6c0-17.4 14.4-31.6 31.8-31.6 17.5 0 31.8 14.2 31.8 31.6 0 17.4-14.3 31.6-31.8 31.6s-31.8-14.1-31.8-31.6zm56.5 0c0-14.3-11.2-25.4-24.8-25.4-13.6 0-24.7 11.1-24.7 25.4 0 14.3 11.1 25.4 24.7 25.4s24.8-11.1 24.8-25.4zm22.4 28.3V32.6c0-1.5.9-2.4 2.4-2.4h1.1c1.1 0 2.1.4 2.9 1.4l34.9 47.3V32.6c0-1.5.9-2.4 2.4-2.4h2.3c1.4 0 2.3.9 2.3 2.4v56.6c0 1.5-.8 2.4-2.3 2.4H315c-1.2 0-2.2-.4-2.9-1.4l-35-47.5v46.5c0 1.5-.9 2.4-2.4 2.4h-2.2c-1.5-.1-2.4-1-2.4-2.5zm61.9-.3l22.2-56.6c.4-1.3 1.4-1.9 2.7-1.9h4.2c1.3 0 2.3.6 2.7 1.9l22.3 56.6c.6 1.7-.1 2.7-1.8 2.7h-2.1c-1.4 0-2.3-.6-2.8-1.9L375 78.3h-32l-4.4 11.2c-.4 1.3-1.3 1.9-2.7 1.9h-2.2c-1.7.1-2.4-1-1.7-2.6zm40.9-16.1L359 36.8l-13.8 35.9h27.7zm48.4-5.1h-14.8v21.5c0 1.5-.9 2.4-2.3 2.4h-2.3c-1.4 0-2.3-.9-2.3-2.4V32.6c0-1.5.8-2.4 2.3-2.4h22.8c11.5 0 18 8.8 18 18.9 0 9.2-5.5 16.9-15 18.2.5 7.1 4.7 19.2 13 19.2 1.7 0 3.3-.4 4.8-1.1 1.4-.7 2.4-.6 3.2.8l.4.8c.6 1.2.5 2.4-.7 3.2-2.4 1.7-5.4 2.4-8.1 2.4-14-.2-18.4-17.3-19-25zm2.1-5.6c7.6 0 12.2-5.5 12.2-13 0-7.4-4.5-13.1-12.2-13.1h-17V62h17z" class="a"/><path d="M57.8 115.5C27.2 115.5 2.4 90.6 2.4 60S27.3 4.5 57.9 4.5s55.5 24.9 55.5 55.5c-.1 30.6-25 55.5-55.6 55.5zm0-106.4C29.8 9.1 7 32 7 60s22.8 50.9 50.9 50.9S108.7 88 108.7 60 85.9 9.1 57.8 9.1z" class="b"/><path d="M85.3 46.7l1.8-3.3 5.4-8.9s-12.3 7.2-12.6 7.3c-.3.2-.6.4-.8.6-1 1-1.3 2.4-1 3.7.2.6.5 1.3 1 1.8s1.1.8 1.8 1c1.3.3 2.7 0 3.7-1 .3-.3.5-.6.6-.9l.1-.3z" class="a"/><path d="M83.6 51.7c-.7.2-1.4.4-2.2.4-3.5 0-6.3-2.8-6.3-6.3 0-.7.1-1.4.3-2.1-3-1.9-6-2.7-10.4-2.7-19.3 0-22.5 9.2-22.5 20.6 0 2.7.4 5.6-1.4 8.4-2.7 4.2-6.3 4.1-7.2 4.1-1.2 0-5.6-.7-5.8-2h.7c4.7 0 8.2-3.8 8.2-8.9v-1.8h-4c-2.9 0-5.5 1.3-7.2 3.6-1.7-2.3-4.3-3.6-7.2-3.6h-4.1v1.8c0 5 4 9 9 9h1.3c0 2.9 4 14.3 33.5 14.3 11.5 0 28.6-2 28.6-23.7 0-4.1-1.3-7.9-3.3-11.1z" class="a"/></svg>