<svg xmlns="http://www.w3.org/2000/svg" viewBox="0 0 100 100"><path fill="#FFF" d="M50 100C22.4 100 0 77.6 0 50S22.4 0 50 0s50 22.4 50 50-22.4 50-50 50zm45.8-50C95.8 24.7 75.3 4.2 50 4.2S4.2 24.7 4.2 50 24.8 95.8 50 95.8c25.3 0 45.8-20.5 45.8-45.8z"/><path fill="#2623b0" d="M50 4.2c25.3 0 45.8 20.6 45.8 45.8 0 25.3-20.6 45.8-45.8 45.8C24.7 95.8 4.2 75.3 4.2 50S24.7 4.2 50 4.2z"/><path d="M38.9 28.3l3.2 5.7 5.6 3.1-5.6 3.1-3.2 5.7-3.1-5.7-5.6-3.1 5.6-3.1m22.4-8.2l2.1 3.9 3.9 2.1-3.9 2.1-2.1 3.8-2.1-3.8-3.8-2.1 3.8-2.1m-4.3 14.4l5.3 9.7 9.7 5.3-9.7 5.4-5.3 9.7-5.3-9.7-9.7-5.4 9.7-5.3" fill="#FFF"/></svg>