<svg xmlns="http://www.w3.org/2000/svg" viewBox="0 0 100 100"><path fill="#FFF" d="M50 100C22.4 100 0 77.6 0 50S22.4 0 50 0s50 22.4 50 50-22.4 50-50 50zm45.8-50C95.8 24.7 75.3 4.2 50 4.2S4.2 24.7 4.2 50 24.8 95.8 50 95.8c25.3 0 45.8-20.5 45.8-45.8z"/><path fill="#2623b0" d="M50 4.2c25.3 0 45.8 20.6 45.8 45.8 0 25.3-20.6 45.8-45.8 45.8C24.7 95.8 4.2 75.3 4.2 50S24.7 4.2 50 4.2z"/><path fill="#FFF" d="M38.6 29.9c2.5-2.3 5.8-3.5 10-3.5 4.1 0 7.4 1 9.8 2.9 2.4 1.9 3.6 4.7 3.6 8.3 0 1.7-.3 3.2-.8 4.5s-1.1 2.4-1.9 3.3-1.7 1.9-3 3.1c-1.7 1.7-3 3.1-3.8 4.4-.8 1.3-1.2 2.9-1.2 4.8h-5.9c0-2.6.4-4.6 1.3-6.2s2.2-3.2 3.8-4.8c1.4-1.5 2.5-2.8 3.2-3.9.7-1.1 1-2.5 1-4.1 0-1.9-.6-3.3-1.9-4.3-1.2-1-2.9-1.5-5.1-1.5-2.2 0-3.9.6-5.2 1.8-1.3 1.2-1.9 2.9-2 5.1l-6.1-.1c.5-4.2 1.8-7.5 4.2-9.8zM51.5 66c.8.8 1.2 1.9 1.2 3.1 0 1.3-.4 2.4-1.2 3.2-.8.9-1.8 1.3-3 1.3s-2.2-.4-3-1.3c-.8-.8-1.2-1.9-1.2-3.2 0-1.2.4-2.3 1.2-3.1.8-.8 1.8-1.2 3-1.2s2.2.4 3 1.2z"/></svg>