<svg xmlns="http://www.w3.org/2000/svg" viewBox="0 0 100 100"><path fill="#FFF" d="M50 100C22.4 100 0 77.6 0 50S22.4 0 50 0s50 22.4 50 50-22.4 50-50 50zm45.8-50C95.8 24.7 75.3 4.2 50 4.2S4.2 24.7 4.2 50 24.8 95.8 50 95.8c25.3 0 45.8-20.5 45.8-45.8z"/><path fill="#2623b0" d="M50 4.2c25.3 0 45.8 20.6 45.8 45.8 0 25.3-20.6 45.8-45.8 45.8C24.7 95.8 4.2 75.3 4.2 50S24.7 4.2 50 4.2z"/><path fill="#FFF" d="M21.3 30.7v41.9H81V30.7H21.3zm27.8 37.9H25.3V34.7h23.9v33.9zm27.9 0H53.1V34.7H77v33.9z"/><path fill="#FFF" d="M34.9 59.9l-5.7-5.7 2.8-2.8 2.9 2.9 7.5-7.5 2.8 2.8m13.988.468l2.828-2.828 8.98 8.98-2.828 2.828z"/><path fill="#FFF" d="M59.188 56.293l8.98-8.98 2.829 2.828-8.98 8.98z"/></svg>