<svg xmlns="http://www.w3.org/2000/svg" viewBox="0 0 34.9 34.9"><style>.a{fill:#fff}</style><circle cx="17.4" cy="17.4" r="16.1" fill="#4700a3"/><path d="M20.7 13.9l3.5-2.1.6 1-3.5 2.1-.6-1zm-.2 9.2l.8-.9 3.2 2.6-.8.9-3.2-2.6zM10.4 12.9l.6-1 3.6 2.1-.6 1-3.6-2.1zm.3 11.9l3.1-2.6.8.9-3.1 2.6-.8-.9zM9 18h3.1v1.2H9V18zm13.8 0h3.1v1.2h-3.1V18zm-5.2-8.9c-1.5 0-2.8 1-3.1 2.5h6.3a3.4 3.4 0 00-3.2-2.5z" class="a"/><path d="M17.1 11.3l-1.1.2h1.1v-.2zm-5.2 7.2c0 3.9 2.3 7 5.2 7.2V12.6h-2.8a8.2 8.2 0 00-2.4 5.9zm6.2-7.2v.2h1.1l-1.1-.2zm2.8 1.3h-2.8v13.1c2.9-.2 5.2-3.3 5.2-7.2-.1-2.4-1-4.6-2.4-5.9z" class="a"/></svg>