<svg xmlns="http://www.w3.org/2000/svg" viewBox="0 0 229 132.8"><path fill="#231f20" d="M29.1 24.2H200v100.6H29z"/><path fill="#231f20" d="M200.9 125.8H28V23.2h173zm-170.8-2H199V25.2H30z"/><path fill="#fff" d="M29.1 8H200v19.7H29z"/><path fill="#231f20" d="M200.9 28.7H28V7h173zM30 26.7h169V9H30z"/><path fill="#4c36e8" d="M40.9 58.5a1.4 1.4 0 01-1.1-.5 1.4 1.4 0 01.1-2l8.6-7.5-8.6-8.7a1.4 1.4 0 012-2l9.7 9.8a1.4 1.4 0 01-.1 2l-9.7 8.5a1.4 1.4 0 01-1 .4zM84.7 60H57.6a1.4 1.4 0 010-2.8h27a1.4 1.4 0 010 2.8z"/></svg>