<svg xmlns="http://www.w3.org/2000/svg" viewBox="0 0 590 670"><defs><clipPath id="q"><path d="M263.3 491.9l21.2 27.3s-12.7 10.5-21 1.7-.3-29-.3-29z" class="n"/></clipPath><clipPath id="p"><path d="M245.8 206.2l22.8 17.5s-10 11.8-21.3 3.6-1.5-21.1-1.5-21.1z" class="n"/></clipPath><style>.a,.n{fill:none}.o{fill:#96a3e2}.d{fill:#6b7fc6}.a,.v{stroke-linecap:round;stroke-linejoin:round}.v{stroke-width:4.1}.a{stroke-width:4.11px}.e{fill:#060b1c}.f{fill:#fff}.g{fill:#2b5599}.a{stroke:#9bd5f9}.h{fill:#9bd5f9}.i{fill:#211f1f}.j{fill:#83d4ed}.k{fill:#ad5c51}</style></defs><path fill="#7acff4" d="M503.6 214.3a.6.6 0 01-.1-.2c-5.8-7.8-19.7-7.1-3.4 29.7 19 42.9 46.4 104.2-23.4 188.5-63.7 77-9.2 161.2 48.6 70.4q5.5-9.5 10.2-19.6a256.3 256.3 0 0024-108.6c0-60.6-22.3-115-56-160.2zM321.3 519C194.8 507 189.7 458 171 402.5c-28.3-84.2-40 50.2-66.2-23.5-14.4-40.5-1.1-68.1 7.5-135.3 6.5-50.2-32.6-5.4-48.4 32.4a256.9 256.9 0 00-19.5 98.4A257.6 257.6 0 00302 632a258.1 258.1 0 0059.3-6.9h.2l9-2.3h.2C435 603 442 530.5 321.3 519zm-210-332.7c19.2-18.6 43.2-73.6 91.5-80.3 0 0 21.6-19.2 8.5-21.9 0 0-59-8.6-108 46.2s-11.3 74.4 8 56z" opacity=".4"/><path d="M504.6 368.3s-8.8 60.6-62.5 30.1c-60.3-34.2-134.5-48-195 27-69 85.3 42.7 206.3 154.8 168C476 568 529.2 463.8 521 366c0 0 50.7-27.4 24.7-83.5 0 0-46.2 13.3-40 52 0 0-24.4-29.8-61.3-17.5 0 0 5.3 56.1 60.3 51.2z" class="o"/><path d="M451.4 448.8c0 13.5-12.1 34.2-37 34.2s-45.8-14-48.2-28.4c-2.2-13.3 9.8-28.9 41.4-28.9 24.8 0 43.8 9.6 43.8 23.1zm-90.3-41.3c.9 2-1.8 4.3-5.3 5.8s-7 1.2-7.9-.8.5-5.4 4.2-6.1c4-.8 8.2-.9 9 1zm40.3 96.1c-.8 2.5-4.3 3-8.7 1.5s-6.9-5.5-6-8 4.9-4.2 9-2c4.1 2.5 6.4 6 5.7 8.5zm41.4-10.6c-.9-3.7-7.2-4.4-15.5-2.5s-13.6 7.9-12.7 11.5 8 6.4 15.7 3.2c8.3-3.4 13.3-8.6 12.5-12.3z" class="d"/><ellipse cx="394.7" cy="389.4" class="d" rx="12.1" ry="27.9" transform="rotate(-75.9 394.7 389.4)"/><path d="M458.4 410.4c-1.3 3.8-9.2 4.4-17.6 1.4s-14.2-8.5-12.9-12.2 9-2.8 17.3.2 14.5 7 13.2 10.6zM354.2 384c.7 3.5-5.8 7.1-13.6 8.7s-14.8 0-15.5-3.5 5.2-7.5 13.2-8.3c6.3-.8 15.2-.5 16 3z" class="d"/><path fill="none" stroke="#1c418c" d="M504.6 368.3s-8.8 60.6-62.5 30.1c-60.3-34.2-134.5-48-195 27-69 85.3 42.7 206.3 154.8 168C476 568 529.2 463.8 521 366c0 0 50.7-27.4 24.7-83.5 0 0-46.2 13.3-40 52 0 0-24.4-29.8-61.3-17.5 0 0 5.3 56.1 60.3 51.2z" class="v"/><path fill="#cae8ef" stroke="#4b8087" d="M332.6 427.7l-64.9-102.8s18.7 84.8 26 116.7c5.3 22.1 30.4 14.1 30.4 14.1s20.3-8.4 8.5-28z" class="v"/><path fill="none" stroke="#82bbc4" stroke-linecap="round" stroke-linejoin="round" stroke-width="4.1" d="M328 421.5c-3.4 2.4-20.6 11.7-37.6 3.1m21.3-30.1c-6.5 2.8-17 5.7-28 1.8m10.3-29.9a39 39 0 01-16.6 1.5"/><circle cx="252.4" cy="471" r="9.6" class="e"/><circle cx="249.7" cy="467.9" r="3.2" class="f"/><path d="M257.6 472.3a2 2 0 00-2.8.7 3.2 3.2 0 01-3.2 1.4 2 2 0 00-.6 4.1 7.2 7.2 0 007.2-3.3 2 2 0 00-.6-2.9z" class="g"/><circle cx="306.7" cy="533.8" r="9.6" class="e"/><circle cx="304" cy="530.7" r="3.2" class="f"/><path d="M312 535.1a2 2 0 00-3 .7 3.2 3.2 0 01-3 1.4 2 2 0 00-.7 4 7.3 7.3 0 001.1.2 7.2 7.2 0 006.2-3.5 2 2 0 00-.7-2.8z" class="g"/><path fill="#402b5e" d="M263.3 491.9l21.2 27.3s-12.7 10.5-21 1.7-.3-29-.3-29z"/><path fill="#e87ce1" d="M258.6 520s6.5-15.5 30-7.4l-2.2 13.6-23.6 1.3z" clip-path="url(#q)"/><path fill="none" stroke="#4b8087" d="M332.6 427.7l-64.9-102.8s18.7 84.8 26 116.7c5.3 22.1 30.4 14.1 30.4 14.1s20.3-8.4 8.5-28z" class="v"/><path d="M360.4 587.3s1.7 59.2 76 51.7c0 0-8.2-38-49.7-62.3" class="o"/><path fill="#1c418c" d="M362.3 587.2a46.3 46.3 0 00.8 6.2 58 58 0 001.6 6 56 56 0 005 11.5 49.7 49.7 0 0017.4 17.6 59.5 59.5 0 0011.4 5.2c2 .6 4 1.2 6 1.6 1 .2 2 .5 3.1.6l3.1.5a104.2 104.2 0 0025.4.1l-2.1 3-.6-2.2-.8-2.4c-.5-1.6-1-3.1-1.7-4.6a98.7 98.7 0 00-4.1-9.1c-1.6-3-3.3-5.8-5-8.6l-2.8-4.1-3-4c-1-1.4-2.2-2.6-3.3-3.9l-3.3-3.7-3.6-3.5-3.7-3.4c-2.4-2.3-5.2-4.2-7.8-6.2-1.3-1-2.8-1.9-4.2-2.8l-4.2-2.8h-.1a1.8 1.8 0 012-3l4.3 2.7c1.4 1 3 1.8 4.3 2.8 2.8 2.1 5.7 4 8.2 6.4 1.4 1 2.7 2.2 4 3.4l3.7 3.6c1.3 1.2 2.4 2.5 3.6 3.8l3.4 3.9 3.2 4 3 4.3a108.8 108.8 0 0110 18.3l1.8 5 .8 2.4.8 2.7a2.4 2.4 0 01-1.8 2.9h-.4a108.6 108.6 0 01-26.5-.4l-3.4-.5-3.2-.8c-2.2-.4-4.3-1.1-6.5-1.8a64.3 64.3 0 01-12.2-5.6 54 54 0 01-18.7-19.3 59 59 0 01-5.3-12.3 60.6 60.6 0 01-1.6-6.6 49 49 0 01-.8-6.7 1.9 1.9 0 013.8-.2z"/><circle cx="46.6" cy="426.7" r="16.1" class="a"/><circle cx="41" cy="423.2" r="3.5" class="h"/><circle cx="498.2" cy="253.1" r="16.1" class="a"/><circle cx="492.6" cy="249.6" r="3.5" class="h"/><circle cx="52.4" cy="313" r="10.2" class="a"/><circle cx="48.8" cy="310.8" r="2.2" class="h"/><circle cx="78" cy="457.1" r="10.2" class="a"/><circle cx="74.4" cy="454.9" r="2.2" class="h"/><circle cx="496.1" cy="175.9" r="10.2" class="a"/><circle cx="492.6" cy="173.7" r="2.2" class="h"/><circle cx="144.3" cy="529.7" r="12.8" class="a"/><circle cx="139.9" cy="526.9" r="2.8" class="h"/><circle cx="62.6" cy="350.3" r="5.2" class="a"/><circle cx="65.4" cy="499.2" r="5.2" class="a"/><circle cx="164.5" cy="558.9" r="7.5" class="a"/><circle cx="189.1" cy="564.1" r="5.2" class="a"/><circle cx="441.8" cy="134.9" r="7.5" class="a"/><circle cx="492.6" cy="142.4" r="5.8" class="a"/><circle cx="516.8" cy="205.9" r="7.5" class="a"/><circle cx="421.6" cy="117.5" r="5.2" class="a"/><path d="M206.3 224s-4.7-13-57.7-15.7c0 0-41.2-2.5-25.6-52.3 0 0 6.5-19.4-9.4-2-18.7 20.4-20.9 73.8 33.9 77.2s58.8-7.1 58.8-7.1z" class="i"/><ellipse cx="109.9" cy="166.6" class="j" rx="3.3" ry="1.8" transform="rotate(-72.8 110 166.6)"/><ellipse cx="106.2" cy="181.1" class="j" rx="3.9" ry="1.8" transform="rotate(-81 106.2 181.1)"/><ellipse cx="107.5" cy="196.9" class="j" rx="2" ry="4.4" transform="rotate(-15.3 107.4 196.8)"/><ellipse cx="116.4" cy="212.1" class="j" rx="2.4" ry="5" transform="rotate(-47.9 115.5 212.1)"/><ellipse cx="132.5" cy="221.6" class="j" rx="2.6" ry="5.5" transform="rotate(-69.5 132.5 221.6)"/><path d="M184.4 231.2l12.2-14.3c-7.8-3.5-21.7-7.1-46.4-8.6 8.3 3.8 12.1 11.5.5 23.1 14.9.8 25.8.6 33.7-.2z"/><path d="M111.1 299.8c-6.6 12.3-6.2-6.2-6.2-6.2s-1-37.8 40-66c44.5-30.8 73.2.3 73.2.3 40.4 39.6 17.2 64.4 4.2 76.4-15 13.8-31 21.8-41.4 36.4-9 12.4-20 25.1-13.2 1 6.5-23 24.8-41 34.9-50 12-10.8 11.4-21.4 11.4-21.4-4.3 13.8-26.9 25.2-38 36.2-22.4 22.4-26 43.3-26 43.3-3 15.3-8.4 16.5-10.1-.5-4-40.4 30.4-66.9 42.7-77.3 11.4-9.7 12.9-14.2 12.9-14.2-40.9 22-57.6 43.7-75 81.5-11 24-13.3 5.2-6.8-17.2 15.1-52.4 44.8-72.5 66.5-83.8 0 0-38.2 3.9-69 61.5z" class="i"/><path d="M218.2 227.8s-19.6-21-51.3-11.3c14.6 3.2 73 18.8 72.2 64.2 4.3-13.2 1.6-30.7-21-52.8z"/><path d="M304.5 276C259 272.3 176 212.8 159.2 170.2c-13-32.9 27.1-94.5 65.3-101.4C279.4 59 375 125 378.4 181.4c2.4 41-39.9 97.4-73.9 94.6z" class="i"/><path d="M221.3 79.5c6.3-35.6 32.8-49.1 32.8-49.1s25.3 17.7 27.8 53.8m90.8 84.2c11.5-34.3-5.4-58.8-5.4-58.8s-30.6 3.5-50 34" class="i"/><path fill="#f4cbb2" d="M239.1 237c37.6 27.6 69.3 39.7 93.5 16.2s14.4-53.7-1-62.6-38-24.2-38-24.2l-3.4-2.5S268.7 147 255.6 135s-44.9-12.2-60 18 6 56.6 43.7 84.1z"/><circle cx="264.5" cy="206" r="5.1" class="k"/><ellipse cx="231.7" cy="169.4" class="f" rx="24.7" ry="17" transform="rotate(-47.7 231.7 169.4)"/><ellipse cx="231.7" cy="175.9" class="k" rx="18.8" ry="12.2" transform="rotate(-35.7 231.7 176)"/><circle cx="233.8" cy="170.3" r="3.4" class="f"/><ellipse cx="306.1" cy="225.7" class="f" rx="24.7" ry="17" transform="rotate(-47.7 306.1 225.7)"/><ellipse cx="306.1" cy="232.2" class="k" rx="18.8" ry="12.2" transform="rotate(-35.7 306 232.2)"/><circle cx="308.2" cy="226.6" r="3.4" class="f"/><path d="M245.8 206.2l22.8 17.5s-10 11.8-21.3 3.6-1.5-21.1-1.5-21.1z" class="k"/><path fill="#e8a3d3" d="M237.6 201.3s25.3 6.1 13.8 31.4l-21-16.1z" clip-path="url(#p)"/><path fill="none" stroke="#211f1f" stroke-linecap="round" stroke-linejoin="round" stroke-width="1.4" d="M185.2 133.4S129.5 102.8 86.8 98m93.2 48.6s-60-21.3-102.8-19.1m244.1 140.8s16.6 36.2 14.2 67M308.4 272s4.4 17.7-.8 60.1"/><path fill="#e5a785" d="M237.7 241.2h-.1v-.1zM254 139c13.1 12 34.6 28.9 34.6 28.9l3.4 2.5s22.5 15.3 38 24.2c11.4 6.6 19.8 25 13.3 43.7 9.3-20 .6-40.6-11.7-47.7-15.5-8.9-38-24.2-38-24.2l-3.4-2.6s-21.4-16.7-34.6-28.7-44.8-12.2-60 18a50 50 0 00-2.5 5.9l.9-2c15-30.1 46.8-30 60-18zm-14.7 98.2l-.2-.1z"/></svg>