<svg xmlns="http://www.w3.org/2000/svg" viewBox="0 0 730 608"><defs><clipPath id="c1"><path d="M575.3 359.1c-109.5 78.5-191.2 35.1-232.7-12.3s-44-189 77.5-197c133.8-8.8 109.5 94.2 102 147.5-8.5 60 51.8 41.5 51.8 41.5S564 303 617 294c0 0 6 44.3-15.8 52.2 0 0 24.2 10.5 24.2 48.5-51.3-.7-50-35.7-50-35.7z" class="z"/></clipPath><clipPath id="c2"><path d="M162.3 390.4l200.6 7-2.8 32-197.8-9.6v-29.4z" class="z"/></clipPath><style>.a,.af,.d,.f,.z{fill:none}.ag{stroke:#53595b}.ah{fill:#cc961d}.aa{fill:#96a3e2}.x{fill:#1c418c}.g,.v{fill:#fff}.a,.ac,.d,.f,.g,.p,.q,.s,.t,.w{stroke-linecap:round;stroke-linejoin:round}.ad{stroke-width:3.8}.a,.d,.f,.p,.q,.s,.w{stroke-width:3.77px}.d{stroke:#995c14}.r{fill:#6b7fc6}.a{stroke:#1c418c}.u{fill:#efc929}.p,.s{stroke:#2d1404}.s{fill:#42240d}.p{fill:#512d10}.q,.w{stroke:#5e2e0b}.w{fill:#b26f2d}.q{fill:#422109}.t{fill:#c15a3a;stroke:#8e2d1c;stroke-width:3.77px}.y{fill:#230906}.m{fill:#f4e4e4}.h{fill:#1a3b6b}.f{stroke:#596372}.g{stroke:#9bd5f9;stroke-width:3.55px}.k{fill:#9bd5f9}.l{fill:#f9f5de}</style></defs><path fill="#7acff4" d="M107.6 163.5c80.3-92.6 470-100.2 568-14.3 53.4 47 18.4 239.6-40 280.3-101.5 70.5-388 77.4-484.3 0-54.3-43.8-91-211.5-43.7-266z" opacity=".4"/><path d="M352 301s-64.8-17.4-109.1 27.2c0 0 42 42.3 107.5 8.4" class="aa"/><path d="M351.6 302.6a113 113 0 00-14.3-2.3 142.5 142.5 0 00-14.4-.7 127.7 127.7 0 00-28.7 3.1 104.8 104.8 0 00-26.8 10 96.8 96.8 0 00-22.8 17.3v-3.5a40.6 40.6 0 005.2 4.4 76 76 0 005.8 4 84.3 84.3 0 0012.4 6.3 85.3 85.3 0 0027.2 6.3 93.8 93.8 0 0028-2.5 121.7 121.7 0 0026.5-9.8 1.6 1.6 0 011.5 2.8 125.1 125.1 0 01-27.2 10.6 97.4 97.4 0 01-29 3 90 90 0 01-42-12.7l-6.1-4.1-3-2.3-2.9-2.5a2.5 2.5 0 010-3.5 101.4 101.4 0 0124.2-17.8 108.7 108.7 0 0128-10 131.6 131.6 0 0129.7-2.9 147 147 0 0114.8 1 115.5 115.5 0 0114.7 2.7 1.6 1.6 0 01-.8 3.2z" class="x"/><path d="M257.4 154.1l-76.5 28-22 71.9 64.2 56 70.2-22.1 23.6-80-59.5-53.8z" class="v"/><path fill="#e2271e" d="M170.3 250.5l21.5-60.2 61.6-21.3 53.3 42.2-23.1 68.4-58.2 20.7-55.1-49.8z"/><path fill="#5f7f84" d="M253.8 300.4l13.4 57 17.1-3.5-22.3-56.1-8.2 2.6z" class="ac ad ag"/><path d="M257.4 154.1l-76.5 28-22 71.9 64.2 56 70.2-22.1 23.6-80-59.5-53.8z" class="ac ad af ag"/><path d="M208.6 240.8a13.8 13.8 0 01-6.4-2.4 7.4 7.4 0 01-2.5-3.7l-.3-.7a2.7 2.7 0 012-3.5q2.2-.7 3.5 3.7l.6 2 6.2-2.4-.5-1.7q-3.2-10.5-11.4-7.9h-.2q-9 3-6.6 11.4a4.4 4.4 0 00.1.4q2.5 8 9.6 9.4c4.9 1.1 7.7 2.8 8.6 5.3v.2c.8 2.3 0 3.9-2.2 4.6q-2.8.9-4.6-4.7a28.4 28.4 0 01-.7-2.7l-7 2.7c0 .7.3 1.3.5 1.9q2.2 7.3 5.7 9.2a9 9 0 007.4.8c.2 0 .4 0 .6-.2a11 11 0 006-4.8 10.8 10.8 0 001.3-7 14.3 14.3 0 00-.5-2 12 12 0 00-2.6-4.6 11 11 0 00-6.6-3.3zm21.2-24.2q-5.2 1.9-10.6 3.6l-7.2 2.1 2 6.4 6.2-2q3.2 11 8 28.6l6.9-2.5q-3.6-10.1-9-27.5l6.1-2zm13.6-4.9q-11.7 3.7-6.4 20.6 5.8 18.3 16.8 14.8t5.4-21.1q-5.5-17.6-15.8-14.3zm8.4 28.8q-4.3 1.4-7.2-7.8l-.3-1.3q-3-10.5 1.3-11.8t7.5 9q3.3 10.5-1.3 12zm21.5-36.5a16 16 0 00-8 1 56 56 0 00-7.2 3q3.8 10.8 7 21.2 2.2 6.7 4 13.2l7.6-2.6q-2.2-5.4-3.4-9.5l-.5-1.5a15.7 15.7 0 007.2-4.8c1.7-2.1 1.8-5.8.4-11l-.3-.8q-2.1-7-6.8-8.1zm1.2 14.5q.2 3.3-4.3 5l-3.9-12a8.9 8.9 0 011.7-.7 3.6 3.6 0 014.4 1.5 13.6 13.6 0 011.6 3.3 11.3 11.3 0 01.6 3z" class="v"/><path stroke="#995c14" d="M340.9 184.8s-42.2 1.3-65.3 12.6c-21.8 10.8 73.4 30 73.4 30l2.6-31z" class="ac ad ah"/><path d="M575.3 359.1c-109.5 78.5-191.2 35.1-232.7-12.3s-44-189 77.5-197c133.8-8.8 109.5 94.2 102 147.5-8.5 60 51.8 41.5 51.8 41.5S564 303 617 294c0 0 6 44.3-15.8 52.2 0 0 24.2 10.5 24.2 48.5-51.3-.7-50-35.7-50-35.7z" class="aa"/><g clip-path="url(#c1)"><path fill="#bbc6ef" d="M330.4 327.9s4.2-25.2 42.3-25c51.2.4 75.5 82 198 59.5L550 416.8l-141 44-92.3-45.5-6.2-25.5z"/><ellipse cx="520.6" cy="256.2" class="r" rx="32.7" ry="14.7" transform="rotate(-87 520.6 256.2)"/><path d="M494.8 289.2c-5 1.6-8.3-4.8-9.1-11.4s1.4-11.7 6-12.3c3.6-.6 7.1 3.3 8 9.8s-1.3 12.8-4.9 13.9z" class="r"/><ellipse cx="502.3" cy="296.7" class="r" rx="3.2" ry="5.6" transform="rotate(-7.7 502 296.6)"/></g><path d="M575.3 359.1c-109.5 78.5-191.2 35.1-232.7-12.3s-44-189 77.5-197c133.8-8.8 109.5 94.2 102 147.5-8.5 60 51.8 41.5 51.8 41.5S564 303 617 294c0 0 6 44.3-15.8 52.2 0 0 24.2 10.5 24.2 48.5-51.3-.7-50-35.7-50-35.7z" class="a"/><path fill="none" stroke="#060b1c" stroke-linecap="round" stroke-linejoin="round" stroke-width="4.3" d="M344.5 228s-5 13.3 3.6 14c9.8 1 12-12.4 12-12.4m66.5 4.5s-4.3 12.9 5.3 14.2c11.7 1.7 11.7-13.3 11.7-13.3"/><path d="M381.9 251.2s4.2-11.6 18.2-5.8" class="a"/><path d="M488.4 63.5c45.3 12.9 36 32 36 32a72.6 72.6 0 00-89.8 11.5c11.8-49.7 53.8-43.5 53.8-43.5z" class="ah"/><path d="M542.9 235l-4 12.5S511.8 235 442 214.2c11.2-3.5 16.9-8.7 16.9-8.7a138.1 138.1 0 0114.5 3 370.5 370.5 0 0164.6 24.2l4.9 2.3z" class="u"/><path d="M476 179s.7 10.5-2.6 29.6a138.1 138.1 0 00-14.5-3.1 202 202 0 00-24.3-10.8s7-16.2 17.7-24.9a71.2 71.2 0 0123.6 9.2z" class="u"/><path d="M337 179.6a188.6 188.6 0 0121.6-.5c30.5.9 57.6 8.7 76 15.6a202 202 0 0124.3 10.8s-5.7 5.2-16.9 8.7c-14.2 4.6-37.5 6.4-69.4-8.7-55.4-26.3-94.8-9-97-8a158.3 158.3 0 0161.3-17.9z" class="u"/><path d="M363.1 154.6a117.7 117.7 0 00-4.5 24.5 188.6 188.6 0 00-21.7.5c3.8-16.8 10.9-24.1 10.9-24.1a20.6 20.6 0 014.5-1.2 38.6 38.6 0 0110.8.3z" class="u"/><path d="M434.6 107c.8-1 37.1-40.5 89.8-11.6 31.4 20 37.3 59.8 14.2 136.1l-.6 1.2a370.5 370.5 0 00-64.6-24.1c3.3-19.1 2.5-29.7 2.5-29.7a71.2 71.2 0 00-23.6-9.1 76.2 76.2 0 00-17.7 24.9 240.8 240.8 0 00-76-15.7 117.7 117.7 0 014.5-24.4 38.6 38.6 0 00-10.8-.3v-.2S365 96.7 424.5 82c9.5-14.2 28.2-28.5 63.9-18.4 0 0-42-6.3-53.8 43.4z" class="u"/><path d="M275.7 197.4c2.1-1 41.5-18.2 96.9 8 32 15.1 55.2 13.3 69.4 8.8 11.3-3.6 17-8.8 17-8.8a202 202 0 00-24.4-10.8 240.8 240.8 0 00-76-15.6 188.6 188.6 0 00-21.7.6 158.3 158.3 0 00-61.2 17.8M524.4 95.5c31.4 20 37.3 59.7 14.2 136M352.3 154s12.6-57.3 72.2-72" class="d"/><path d="M459 205.4a138.1 138.1 0 0114.4 3.2 370.5 370.5 0 0164.6 24.1l4.8 2.3-4 12.5s-27-12.5-96.8-33.3" class="d"/><path d="M434.6 194.7s7-16.2 17.7-25a71.2 71.2 0 0123.6 9.3s.8 10.5-2.5 29.6M358.6 179a117.7 117.7 0 014.5-24.4 38.6 38.6 0 00-10.8-.3 20.6 20.6 0 00-4.5 1.1s-7 7.4-10.9 24.2m78.5-76.1a63.2 63.2 0 019-21.5c9.6-14.2 28.3-28.5 64-18.4 45.3 12.8 36 31.9 36 31.9M434.6 107c.8-1 37-40.5 89.8-11.6m-36-31.9s-42-6.2-53.8 43.5" class="d"/><path d="M212.8 409.4l11.4 77.2-31-2 3.2-78.2 16.4 3z" class="s"/><path d="M224.2 486.6l6.5-1.7-12-75.5h-5.9l11.4 77.2z" class="p"/><path d="M346.9 419.4l11.2 78.5-30.9-3.4 3.2-78.1 16.5 3z" class="s"/><path d="M358.1 497.9l6.6-3-12-75.5h-5.8l11.2 78.5z" class="p"/><path d="M176.9 420.5l-22 85.3 35.2 4.1 8.1-88.4-21.3-1z" class="w"/><path d="M190.1 509.9l7.7-2.1 6.3-86-5.9-.3-8.1 88.4z" class="q"/><path d="M199 465.3l-1.9 23.2 100 8 5.3-21.1L199 465.3z" class="w"/><path d="M314.4 427.2l-22.5 90.3 35.2 2.1 8.6-91.3-21.3-1.1z" class="w"/><path d="M327.1 519.6l7.8-4.1 6.7-87-5.9-.2-8.6 91.3z" class="q"/><path fill="#f9d023" d="M162.3 390.4l200.6 7-2.8 32-197.8-9.6v-29.4z"/><path fill="#442d04" d="M159.8 420.8l40.3-34.5 23 1-35 41-28.3-7.5zm93.3-34.5l-25.5 46.1 22.2 1.4 35.8-44.9-32.5-2.6zm73.2 2l-40.7 49.8 40.7 4 27.1-51.7-27.1-2.1z" clip-path="url(#c2)"/><path stroke="#6d3405" d="M162.3 390.4l200.6 7-2.8 32-197.8-9.6v-29.4z" class="ac ad af"/><path fill="none" stroke="#5e2e0b" stroke-miterlimit="10" stroke-width="2.8" d="M309.9 518.6s9.2-69.4 20.3-31.3m-26.9 31.3s10-103.3 29-53.4m-25.3-8.1s11.1-30.9 27.4-21.2m-147.3-14.4s-5.4 32 9.5 18m-15.3-18s-13.5 64.2 14.2 30m-25.3-5s-3 21.6 7.8 26.1c12 5 2 36.1 2 36.1M160 486s25.6-18.9 6.6 21.7m117.7-34.3S269 486 299.6 486.6m-29.1-14.3s-25.7 20 27.1 22.4m-43.8-24s-17.9 14.3 2.6 22.6M237.1 469s-9.5 15-40 11m19.9-12.7s-5.1 6.3-18.8 5" opacity=".2"/><ellipse cx="79.9" cy="523.1" class="t" rx="27.3" ry="15.3" transform="rotate(-9.3 79.9 523.1)"/><path d="M116.5 507.7S94.1 504 107 475l14.7 23.6z" class="t"/><path d="M118.8 510.2c27-.4 28.4-36.3-2-43.6 0 0 6.1 14 0 23.8s-5.5 19.9 2 19.8zM58.6 535a22.3 22.3 0 00-3.7 9.3m5.8-43.5s4.8 4.8 5.8 10.4m24.9-15.9s-3 6.2-2.1 11.7m-22.4 31.7a22.3 22.3 0 00-.4 10m38.5-21.4a22.4 22.4 0 016.5 7.6m-13.1-1.3a22.2 22.2 0 013.5 9.3" class="t"/><circle cx="60.6" cy="500.4" r="4.7" class="y"/><circle cx="59.2" cy="499.3" r="1.3" class="m"/><path d="M63.2 500.3a1 1 0 00-1.2.6 1.5 1.5 0 01-1.3.9 1 1 0 100 1.9 4 4 0 00.5 0 3.3 3.3 0 002.5-2.1 1 1 0 00-.5-1.3z" class="h"/><circle cx="90.9" cy="495.8" r="4.7" class="y"/><circle cx="89.5" cy="494.7" r="1.3" class="m"/><path d="M93.5 495.7a1 1 0 00-1.2.6 1.5 1.5 0 01-1.3.9 1 1 0 100 1.9 2.8 2.8 0 00.6 0A3.3 3.3 0 0094 497a1 1 0 00-.6-1.3z" class="h"/><path fill="none" stroke="#8e2d1c" stroke-linecap="round" stroke-linejoin="round" stroke-width="3.8" d="M39 511.3s-4.5 18 13.6 13.7m54.3-4.5s15 4.8 12.8-8.7"/><path d="M39.7 511.7s19-12.4-4.7-33.7l-3.8 27.5z" class="t"/><path d="M38.7 515c-25 10.6-40.8-21.7-16-40.7 0 0 0 15.3 9.6 21.8s13.2 15.9 6.4 18.8z" class="t"/><path fill="#b1dcef" d="M52 459.8L41.6 445a2.7 2.7 0 014.4-3.1l.1.2 9 15.7a1.9 1.9 0 01-3 2zm13-10.9l-2.5-22a2.8 2.8 0 015.6-.7v.3l.7 22.2a1.9 1.9 0 01-3.8.2zm18.7 4.3l2.8-19a2.8 2.8 0 115.6.9 2.7 2.7 0 010 .2L87.5 454a1.9 1.9 0 01-3.7-.7z"/><path d="M436.3 427.2l78.8-40.5 9.4 23.7-85.6 24.4-2.6-7.6z" class="w"/><path fill="#829ba8" d="M436.6 426l3.8 9.7-11.6 8.7-4.6-13.2-1.2-3.8zm-3.3 44.1l-14.6 4.5-.2-.6c3-9.4-4.1-13.2-4.1-13.2l14.2-4.5v.2s-3.5 7.3 4.5 13.1z"/><path fill="#acc3d1" d="M423 427.3l1.2 3.9 4.6 13.1 3.8 10.8-4 1.2-14.3 4.5-4.7 1.4s-26.1-63.6 17.2-78.8c0 0-12 15-3.8 44zm28.6 58.7L415 498.4l-4.1-21.4 7.8-2.4 14.6-4.5 9.2-2.8 9.1 18.7z"/><path d="M414.4 460.8l-4.7 1.4s-26.2-63.6 17.1-78.8c0 0-12 15-3.8 44l1.2 3.8 4.6 13.1 3.8 10.8-4 1.2zm0 0s7 3.7 4 13.2m10.2-17.5s-3.5 7.3 4.5 13.1m.2.5l9.2-2.8 9.1 18.7-36.6 12.4-4.1-21.4 7.8-2.4 14.6-4.5z" class="f"/><path d="M423 427.3l13.6-1.4 3.8 9.8-11.6 8.6" class="f"/><path d="M458.6 337.4s-29.3 61.4 11 112c0 0 52-35 26.7-105" class="aa"/><path d="M460.1 338.2a89 89 0 00-4.8 13.7 132.4 132.4 0 00-3.2 14.2 118 118 0 00-1.4 28.9 102.7 102.7 0 002.2 14.3c.2 1.2.6 2.3.9 3.5l1 3.5 1 3.4 1.4 3.4 1.4 3.3 1.5 3.3c1 2 2.1 4.2 3.4 6.3a100.9 100.9 0 008.1 11.8l-3.4-.5 2.7-2 2.6-2.3c1.8-1.6 3.5-3.2 5-5a84.7 84.7 0 008.9-11 81 81 0 0011.4-25.8 78 78 0 002.2-14l.1-1.7v-1.8l.1-3.6-.1-3.5-.1-1.8-.2-1.8a113.9 113.9 0 00-6.1-28 1.7 1.7 0 013.1-1.1 117.3 117.3 0 016.9 28.7l.2 1.8v1.9l.3 3.7v5.5l-.1 1.9a83.6 83.6 0 01-2.1 14.8 85.6 85.6 0 01-11.7 27.3 90 90 0 01-9 11.9 85.5 85.5 0 01-11.2 10.2 2.5 2.5 0 01-3.5-.5 106.1 106.1 0 01-8.4-12.6c-1.3-2.2-2.4-4.5-3.5-6.8-.6-1-1-2.3-1.5-3.4l-1.4-3.5-1.3-3.6-1.1-3.6-1-3.7c-.3-1.3-.7-2.4-.9-3.7a106 106 0 01-2-14.9 122 122 0 011.9-30 136.5 136.5 0 013.5-14.5 125.9 125.9 0 015.2-14.1 1.7 1.7 0 013.1 1.4z" class="x"/><circle cx="302.8" cy="97.3" r="13.9" class="g"/><circle cx="297.9" cy="94.3" r="3" class="k"/><circle cx="266.7" cy="63.3" r="8.8" stroke="#9bd5f9" stroke-width="3.5" class="ac af"/><circle cx="263.6" cy="61.4" r="1.9" class="k"/><circle cx="274.1" cy="131.1" r="4.5" class="g"/><g opacity=".6"><ellipse cx="526.4" cy="120.2" class="l" rx="7.1" ry="10.5" transform="rotate(-26.1 526.4 120.2)"/><ellipse cx="532.4" cy="141.8" class="l" rx="4.1" ry="5.6" transform="rotate(-9.6 532.5 141.8)"/></g></svg>