<svg xmlns="http://www.w3.org/2000/svg" viewBox="0 0 730 608"><defs><clipPath id="s"><path d="M37.3 225.4c99-89.6 560-73.5 660 17 59.4 53.7-17 245.3-82 292.2-105.4 76.2-418 69.6-512-5-66.4-52.7-128.9-247.3-66-304.2z" class="a"/></clipPath><clipPath id="t"><path d="M451.8 369.9c-172 260.7-406-29.3-239-123.3 116.5-65.5 156.5 56 173.5 100s49.5 12 49.5 12-36.1-40.6 11.2-77.3c0 0 32 21.3 11.3 65 0 0 37.7-12.7 56 23-31.3 29.7-62.5.6-62.5.6z" class="a"/></clipPath><style>.a,.c,.d{fill:none}.h{fill:#fff}.q{stroke-width:3.8}.i{fill:#f4eac1}.j{fill:#8eb2ed}.c,.d,.l{stroke-width:3.77px}.c,.d,.l,.x{stroke-linecap:round;stroke-linejoin:round}.k{fill:#d43e2b}.m{fill:#ceac7c}.c{stroke:#ceac7c}.n{fill:#96a3e2}.o{fill:#6b7fc6}.d{stroke:#1c418c}.p{fill:#1c418c}.w{fill:#060b1c}.y{fill:#2b5599}.l{fill:#c15a3a;stroke:#8e2d1c}.r{fill:#230906}.u{fill:#f4e4e4}.v{fill:#1a3b6b}.aa{stroke:#4b8087}.ab{stroke:#d43e2b}</style></defs><g clip-path="url(#s)"><path fill="#7acff4" d="M-28.3 153.8h816.6v119.8H-28.3z"/><path d="M752.3 286.9l-36-73.2-74.3-19.2A56.3 56.3 0 10533.1 220a38 38 0 102.5 66.8zm-642.4-49.4h-1.5a45.3 45.3 0 10-74.6-23.8 777.8 777.8 0 01-67.5 4.5l-3.3 74 130.3-8.8a26 26 0 1016.6-45.9z" class="h"/><path fill="#4046dd" d="M-19.7 273.6h772v311.3h-772z"/><path d="M-39 333.3s54-14 126 25c67.8 36.7 160.7 21 160.7 21s40.8 19.5 69.4 60.3 201.2-6.2 260.6 59.6 184 4.7 184 4.7l10.6 92-426.6 57.8-251.4-44S-57.7 483-58.3 481s-11.4-67.3-11.4-67.3z" class="i"/><g opacity=".4"><path d="M433.3 438.6s117.5-11.6 169 38.5c47.8 46.5 174.5 8.6 174.5 8.6l-4.5-44.3s-99.2 41.2-154.5 17.3c-54.5-23.5-70-46-184.5-20z" class="j"/><path d="M732.8 396.6s-46 35.8-123.5 30.4c0 0 55 20.6 111 5.6s12.5-36 12.5-36zm-173.5 15.5s-66.5-28-231.5 0c0 0 119-49.5 231.5 0z" class="j"/></g></g><path fill="#e59470" d="M495.4 489.6c-16.2-.4-59.4-.5-57.9 21.8 0 0-9.6 12-.4 17 0 0-7.4 19.6 18 13.6 0 0 11 13.8 27.9.2 0 0 37.8 8 21-47.4-.9-3.1-4.3-5-8.6-5.2z"/><path fill="none" stroke="#f4cd9d" stroke-miterlimit="10" stroke-width="3.8" d="M483 542.1c2.5-1.4-3.1-19.7 21.5-45.3M455.1 542c1.8-2 5.9-30.8 46.2-50.8M437 528.4c-2-2.2 18-31.7 58.4-38.8"/><path d="M495.4 489.6c-19-2.6-62.2 4.7-57.9 21.8 0 0-9.6 12-.4 17 0 0-7.4 19.6 18 13.6 0 0 11 13.8 27.9.2 0 0 37.8 8 21-47.4-.9-3.1-4.3-4.6-8.6-5.2z" class="a x q ab"/><path fill="#e5655c" stroke-miterlimit="10" d="M61 383.6a27.3 27.3 0 011.2-12.5 3.8 3.8 0 015.7-2c3 2 7.4 5.7 12.1 12.7a3.9 3.9 0 004.2 1.5c4-1 12-2.7 20-1.3a3.8 3.8 0 012.2 6.3 35.2 35.2 0 01-8.6 6.8 3.8 3.8 0 00-.9 6.1 33.7 33.7 0 017.3 10.2 3.8 3.8 0 01-4 5.3 37.4 37.4 0 01-15.2-5.4 3.8 3.8 0 00-5.3 1 48 48 0 01-13 13 3.8 3.8 0 01-6-2.9 55.7 55.7 0 011.5-14.7 3.8 3.8 0 00-3.6-4.7c-4-.2-10-1-15-4a3.8 3.8 0 010-6.4 29 29 0 0113.9-4.6 3.8 3.8 0 003.6-4.4z" class="ab q"/><ellipse cx="65.5" cy="392.5" class="k" rx="2.3" ry="1.9"/><ellipse cx="70.6" cy="396.4" class="k" rx="1" ry="1.2" transform="rotate(-87.5 70.6 396.4)"/><ellipse cx="67" cy="399.4" class="k" rx="1" ry="1.2" transform="rotate(-87.5 67 399.5)"/><ellipse cx="98.1" cy="451.3" class="m" rx="3.2" ry="6.3" transform="rotate(-72.7 98.1 451.3)"/><ellipse cx="95.1" cy="441.8" class="m" rx="1.6" ry="3.1" transform="rotate(-72.7 95 441.8)"/><ellipse cx="112.2" cy="445.5" class="m" rx=".9" ry="2.1" transform="rotate(-72.7 112.2 445.6)"/><ellipse cx="241.7" cy="522.7" class="m" rx="3.8" ry="7.2" transform="rotate(-84.6 241.8 522.7)"/><ellipse cx="235.5" cy="530.9" class="m" rx="1.9" ry="3.6" transform="rotate(-84.6 235.5 530.9)"/><ellipse cx="251.6" cy="532.8" class="m" rx="1.1" ry="2.4" transform="rotate(-84.6 251.6 532.8)"/><path d="M163.7 433c15.7-1.8 36.4-2.8 59.4 3.8" class="c"/><path d="M451.8 369.9c-172 260.7-406-29.3-239-123.3 116.5-65.5 156.5 56 173.5 100s49.5 12 49.5 12-36.1-40.6 11.2-77.3c0 0 32 21.3 11.3 65 0 0 37.7-12.7 56 23-31.3 29.7-62.5.6-62.5.6z" class="n"/><g clip-path="url(#t)"><ellipse cx="360.3" cy="286.8" class="o" rx="18.3" ry="40.7" transform="rotate(-23.5 361 286.8)"/><path d="M350 338c-4.7 4.5-11.9-.8-16.5-7.6s-5-13.8-.2-17c3.7-2.7 9.8-.4 14.4 6.4s5.6 15 2.3 18.2z" class="o"/><ellipse cx="362.4" cy="342.1" class="o" rx="3.9" ry="7" transform="rotate(-34.3 362.5 342.2)"/><path fill="#bbc6ef" d="M167 410.1s23-42.5 117 14.5S442.3 395 442.3 395l-36 81.1-162 35.6-95.5-32.5-14-32z"/></g><path d="M451.8 369.9c-172 260.7-406-29.3-239-123.3 116.5-65.5 156.5 56 173.5 100s49.5 12 49.5 12-36.1-40.6 11.2-77.3c0 0 32 21.3 11.3 65 0 0 37.7-12.7 56 23-31.3 29.7-62.5.6-62.5.6z" class="d"/><path d="M145 362.6s10.4-10.8 45-6c0 0-3.7 22.6-30.7 46.3 0 0-20.3-8.6-14.3-40.3z" class="n"/><path d="M143.4 361.8a3.3 3.3 0 01.5-.6l.2-.2.3-.3.7-.5a28 28 0 012.7-1.6l1.3-.7a40.6 40.6 0 015.8-2.1 59.2 59.2 0 0111.8-2.1c2-.3 4-.2 6-.4s4 0 5.9.1l5.9.4 5.9.6a2.2 2.2 0 011.8 2.4v.2a34.8 34.8 0 01-.9 3.7c-.4 1.1-.7 2.3-1.2 3.4l-.6 1.7-.7 1.7-1.6 3.3a95.8 95.8 0 01-7.3 12.4c-1.4 2-2.8 3.9-4.4 5.7l-2.2 2.8-2.4 2.7-2.5 2.6-2.5 2.5-5.3 4.8a1.8 1.8 0 01-2 .4 15.1 15.1 0 01-1.4-.8 14.8 14.8 0 01-1.3-.9 12.8 12.8 0 01-1.3-.9l-1.2-1a26.2 26.2 0 01-2.2-2.1l-1-1.1-1-1.2a33.6 33.6 0 01-5.3-10.8l-.9-2.9-.5-3-.2-1.5a14.7 14.7 0 010-1.5l-.2-3 .3-6 1-6.2zm3.2 1.7l-.6 5c0 1.8-.3 3.7-.2 5.5v2.8c0 .4 0 .9.2 1.3l.2 1.4.4 2.7.7 2.6a29.9 29.9 0 004.8 9.6l.8 1 1 1a22.5 22.5 0 001.9 2l1 .8a11.2 11.2 0 001 .7 10.8 10.8 0 001.2.7 10.4 10.4 0 001 .6l-2 .3 5-4.7 2.4-2.5a47 47 0 002.4-2.6l2.3-2.6 2.1-2.7c1.5-1.8 2.8-3.7 4.2-5.6a93 93 0 006.8-11.9l1.4-3 .7-1.7.6-1.6 1-3.2c.3-1 .6-2.2.7-3.1l2 2.5-5.8-.7-5.6-.5c-2-.2-3.8-.1-5.7-.1s-3.8 0-5.7.2a54.7 54.7 0 00-11 1.7 36.3 36.3 0 00-5.3 1.8l-1.2.6-1.2.7-1 .7-.6.3-.2.2-.1.1a1 1 0 00.4-.3z" class="p"/><circle cx="187.3" cy="315.2" r="9.4" class="w"/><circle cx="184.6" cy="312.2" r="3.2" class="h"/><path d="M192.4 316.4a2 2 0 00-2.7.7 3.2 3.2 0 01-3 1.5 2 2 0 10-.6 4 8.8 8.8 0 001 0 7 7 0 006-3.4 2 2 0 00-.7-2.8z" class="y"/><circle cx="277.9" cy="329.1" r="9.4" class="w"/><circle cx="275.1" cy="326.2" r="3.2" class="h"/><path d="M283 330.4a2 2 0 00-2.8.7 3.2 3.2 0 01-3 1.4 2 2 0 00-.5 4 7.2 7.2 0 007-3.4 2 2 0 00-.7-2.7z" class="y"/><path fill="#cae8ef" d="M240.8 242.4L235 123.2s32.8 78.7 45 108.5c6.3 14.8-16.5 21.3-16.5 21.3s-20.5 5-22.7-10.6z" class="aa q"/><path fill="none" stroke="#82bbc4" stroke-linecap="round" stroke-linejoin="round" stroke-width="3.8" d="M241 234.9c4.1 0 23.2-2.3 32-18.8M238.9 204a38 38 0 0023.5-14.3m-25.1-18.4a38.2 38.2 0 0014.1-8.1"/><path d="M240.8 242.4L235 123.2s32.8 78.7 45 108.5" class="aa a x q"/><path fill="none" stroke="#1c418c" stroke-linecap="round" stroke-linejoin="round" stroke-width="3.8" d="M283.9 302.9l8.4 10.7m-109.2-23.1l11.5-3.6" opacity=".7"/><path d="M196.7 458.3s85-48 168.7 17.7-181 26.3-181 26.3z" class="i"/><path d="M196.7 458.3s85-48 168.7 17.7" class="c"/><path d="M324.5 495.4s-11.8 9.8-21-9.7l18.7 3z" class="l"/><path d="M279.3 406.6S231 474.3 309 502.3c0 0 15.3-36.3 0-85.3" class="n"/><path d="M280.4 407.4a89.4 89.4 0 00-7 13 84.8 84.8 0 00-5 13.8c-2.4 9.5-3 19.6-.4 28.8a43.6 43.6 0 006.2 13l1 1.4.5.7.6.7 2.4 2.7 2.6 2.5 1.3 1.2 1.4 1.2a86 86 0 0025.8 13.6l-3.1 1.3a47.7 47.7 0 001.7-4.8l1.5-5.1c.5-1.7.8-3.5 1.2-5.2l1-5.2a134 134 0 001.7-21.3v-5.4l-.4-5.3-.4-5.3-.8-5.3c-.4-3.6-1.3-7-2-10.6l-.2-1.3-.3-1.3-.7-2.6-1.4-5.2a1.5 1.5 0 013-.9l1.5 5.3.7 2.6.4 1.3.3 1.4c.8 3.5 1.7 7 2.2 10.7l.9 5.4.6 5.5.4 5.5.2 2.7v2.8a137 137 0 01-1.3 22l-.8 5.4-1.2 5.4-.6 2.7-.8 2.7-.8 2.7-1 2.7a2.4 2.4 0 01-3 1.3 90.3 90.3 0 01-27-14.9l-1.4-1.2-1.4-1.3-2.8-2.8-2.5-3-.6-.7-.6-.8-1-1.7a47.4 47.4 0 01-6.5-14.2 51.3 51.3 0 01-1.6-15.4 68.5 68.5 0 012.5-15.1 89 89 0 015.4-14.3 92.3 92.3 0 017.5-13.3 1.3 1.3 0 012.2 1.5z" class="p"/><ellipse cx="348.5" cy="508.9" class="l" rx="18.5" ry="10.4"/><path d="M377 503.7s15.2 2.7 13.4-18.8l-14.7 11.8z" class="l"/><path d="M375 504.8c-17.3-6.3-10-29.7 11-27.5 0 0-7 7.6-5.3 15.2s-1 14-5.7 12.3zm-48.2-9.5c11.8-14-6-30.7-23.3-18.3 0 0 10 3 12.3 10.5s7.8 11.7 11 7.8zm6.2 19.2a15 15 0 00-3.6 5.8m8.7-28.5s2.7 3.8 2.7 7.6m18.4-7.9s-2.6 3.8-2.6 7.6M338 518a15 15 0 00-1.3 6.6m28.2-10.1a15.1 15.1 0 013.5 5.8m-8.7-2.3a15 15 0 011.3 6.6" class="l"/><circle cx="338.1" cy="491.5" r="3.2" class="r"/><circle cx="337.2" cy="490.6" r=".9" class="u"/><path d="M339.8 491.8a.6.6 0 00-.9.2 1 1 0 01-1 .5.6.6 0 00-.1 1.3h.3a2.3 2.3 0 002-1.2.6.6 0 00-.3-.8z" class="v"/><circle cx="358.9" cy="491.8" r="3.2" class="r"/><circle cx="358.1" cy="490.9" r=".9" class="u"/><path d="M360.6 492a.7.7 0 00-.8.2 1 1 0 01-1 .5.7.7 0 00-.8.6.6.6 0 00.6.7h.3a2.3 2.3 0 002-1.1.7.7 0 00-.3-.9z" class="v"/><path fill="none" stroke="#8e2d1c" stroke-linecap="round" stroke-linejoin="round" stroke-width="3.8" d="M322.4 496.5s-5 11.5 7.6 10.6m36.9 3s9.5 4.9 9.5-4.4"/><path d="M214.8 333.9s10.5-13.8 24.2-4.4" class="d"/><path d="M293.5 35.6l21 36s43.1-28.4 52 2.8S315 98.6 315 98.6l-6.5 43.5h36v-25s72 1.3 61.5-57-74-42-112.5-24.5z" class="k"/><ellipse cx="326" cy="168" class="k" rx="20" ry="14.8"/></svg>