<svg xmlns="http://www.w3.org/2000/svg" viewBox="0 0 72 72"><path d="M38.4 33.6a21.5 21.5 0 00-12.3-4.9v7.8c2.4.2 4.8 1.1 6.7 2.7l5.6-5.6z" fill="#2d28a1"/><path d="M10 35.1c-3.3 3.4-5.3 7.8-5.7 12.5h8.3c.3-2.5 1.3-5 3-6.9L10 35.1z" fill="#817ec7"/><path d="M23.9 28.7c-4.5.2-8.8 1.9-12.3 4.9l5.6 5.6c1.9-1.5 4.2-2.5 6.7-2.7v-7.8z" fill="#5753b4"/><path d="M40 35.1l-5.6 5.6c1.7 1.9 2.7 4.3 3 6.9h8.3c-.5-4.7-2.5-9.1-5.7-12.5z" fill="#0b0687"/><path d="M7 32C2.9 36.2.4 41.7 0 47.6h4.3c.4-4.7 2.4-9.1 5.7-12.5L7 32zm16.9-7.6c-5.7.2-11.1 2.4-15.4 6.1l3.1 3.1c3.5-2.9 7.8-4.6 12.3-4.9v-4.3zm17.5 6.1c-4.3-3.7-9.7-5.9-15.3-6.1v4.3c4.5.2 8.8 1.9 12.3 4.9l3-3.1zM50 47.6c-.4-5.9-2.9-11.4-7-15.6l-3 3c3.3 3.4 5.3 7.8 5.7 12.5l4.3.1z" fill="#acadda"/><path d="M39.7 42.3l-14.2 4.8" fill="none" stroke="#4046dd" stroke-width="4" stroke-linecap="round" stroke-linejoin="round"/></svg>