<svg xmlns="http://www.w3.org/2000/svg" xmlns:xlink="http://www.w3.org/1999/xlink" width="1013.7" height="892.3" color-interpolation-filters="sRGB" viewBox="0 0 760.3 669.3" fill="none" fill-rule="evenodd" font-size="12" overflow="visible" stroke-linecap="square" stroke-miterlimit="3"><style>.o{stroke:#000;stroke-linecap:round;stroke-linejoin:round;stroke-width:.75}.n{fill:#000;font-family:Calibri;font-size:.66em}.m{font-size:1em}.e,.l{stroke:#000;stroke-linecap:round;stroke-linejoin:round;stroke-width:.75}.e{fill:#fff}.l{stroke-dasharray:5.25,3.75}.k{fill:#000;font-family:Calibri;font-size:1em;font-weight:700}.i,.j{stroke:#000}.j{marker-end:url(#b);stroke-linecap:round;stroke-linejoin:round;stroke-width:.75}.i{fill:#000;fill-opacity:1;stroke-opacity:1;stroke-width:.18796992481203}.h{stroke-width:7.2}.a,.h{fill:#fff;stroke:none;stroke-linecap:butt}.b,.g{marker-end:url(#d);stroke:#000;stroke-linecap:round;stroke-linejoin:round;stroke-width:.75}.b{stroke-dasharray:5.25,3.75}.f,.o4{font-family:Segoe UI Emoji;font-size:1em}.o4{fill:#000;font-size:.66em}.d{font-family:Calibri;font-size:1em}</style><defs><marker id="b" class="i" orient="auto" overflow="visible" refX="-10.6"><use transform="scale(-5.32)" xlink:href="#a"/></marker><marker id="d" class="i" orient="auto" overflow="visible"><use transform="scale(-5.32)" xlink:href="#c"/></marker><path id="a" d="M2 1L0 0l2-1v2"/><path id="c" fill="none" stroke-linecap="round" stroke-linejoin="round" d="M2 1L0 0l2-1"/></defs><path d="M631.4 47.1l-3.7 8.7" class="o"/><text x="4.2" y="652" class="n" transform="translate(602.4 -622.2)">E.g.: “manifest-file-<tspan x="17.9" class="m" dy="1.2em">extension</tspan>”</text><path d="M428 55.7h51v25.5h-51z" class="e"/><path d="M453.5 81.3v550" class="l"/><path d="M428 55.7h51v25.5h-51z" class="e"/><text x="11.1" y="660.1" class="k" transform="translate(428 -588)">hint 1</text><path d="M334.8 55.7h51v25.5h-51z" class="e"/><path d="M360.3 81.3v550" class="l"/><path d="M328 55.7h64.6v25.5H328z" class="e"/><text x="7.1" y="660.1" class="k" transform="translate(328 -588)">connector</text><path d="M356 540.7v-346h8.5v346zm-137.8-485h51v25.5h-51z" class="e"/><path d="M243.7 81.3v551.5" class="l"/><path d="M218.2 55.7h51v25.5h-51z" class="e"/><text x="8.8" y="660.1" class="k" transform="translate(218.2 -588)">Engine</text><path d="M136 55.7h51v25.5h-51z" class="e"/><path d="M161.5 81.3v551.5" class="l"/><path d="M136 55.7h51v25.5h-51z" class="e"/><text x="18.2" y="660.1" class="k" transform="translate(136 -588)">CLI</text><path d="M239.4 548.9V186h8.5v362.9zm-82.2 80V115.3h8.5v513.6zM515.9 55.7h51v25.5h-51z" class="e"/><path d="M541.4 81.3v552.3" class="l"/><path d="M515.9 55.7h51v25.5h-51z" class="e"/><text x="5.3" y="660.1" class="k" transform="translate(515.9 -588)">parser 1</text><path d="M622.1 81.3v552.3" class="l"/><path d="M596.6 55.7h51v25.5h-51z" class="e"/><path d="M596.6 55.7h51v25.5h-51z" class="e"/><text x="11.1" y="660.1" class="k" transform="translate(596.6 -588)">hint 2</text><path d="M674.9 55.7h51v25.5h-51z" class="e"/><path d="M700.4 81.3v551.5" class="l"/><path d="M668.1 55.7h64.6v25.5h-64.6z" class="e"/><text x="7.9" y="660.1" class="k" transform="translate(668.1 -588)">formatter</text><path d="M165.7 132.3h18v34h-10" class="j"/><path d="M130.1 139.7h71.3v19.2h-71.3z" class="h"/><text x="-15.2" y="683.9" class="n" transform="translate(158.7 -537)">Configuration<tspan x="-28.6" class="m" dy="1.2em">(hidden for simplicity)</tspan></text><path d="M43.9 115.5l109.7-.2" class="j"/><path d="M60.9 110.6h83.6v9.6H60.9z" class="a"/><text x="17" y="664.6" class="n" transform="translate(43.9 -546.8)">hint https://example.com</text><path d="M165.8 186.2h73.8" class="g"/><path d="M185.1 181.4h35.2v9.6h-35.2z" class="a"/><text x="19.3" y="664.6" class="n" transform="translate(165.8 -476)">executeOn</text><path d="M248 194.9l108-.3" class="g"/><path d="M291.3 190h21.3v9.6h-21.3z" class="h"/><text x="43.3" y="664.6" class="n" transform="translate(248 -467.4)">collect</text><path d="M239.5 549l-73.7-1.3" class="b"/><path d="M190.8 543.6h23.8v9.6h-23.8z" class="h"/><text x="-48.7" y="664.6" class="n" transform="translate(239.5 -113.8)">reports</text><path d="M356 211.7H248" class="b"/><path d="M270.1 201.9H334v19.4h-63.9z" class="h"/><text x="-79.6" y="659.8" class="n" transform="translate(356 -450.5)">on(&quot;<tspan class="f">⚡</tspan> Name&quot;)<tspan x="-85.9" class="m" dy="1.2em">E.g.: </tspan>&quot;can-evaluate&quot;</text><path d="M18.4 55.9h51v25.5h-51zm20.4-3.5v-17 6.8h-3.4V28.6l1.7-1.7h13.6l1.7 1.7v13.6H49v-6.8 17h-5V38.8v13.6h-5.2zm8.5-30.6a3.4 3.4 0 10-6.8 0 3.4 3.4 0 106.8 0z" class="e"/><path d="M43.9 81.5v551.3" class="l"/><path d="M18.4 55.9h51v25.5h-51z" class="e"/><text x="14.1" y="660.1" class="k" transform="translate(18.4 -587.8)">User</text><path d="M248 237.2l201-2.3" class="g"/><path d="M317.6 226.3h61.9v19.4h-61.9z" class="h"/><text x="85.2" y="659.8" class="o4" transform="translate(248 -426.1)">⚡<tspan class="d"> </tspan><tspan class="d">Event</tspan><tspan x="69.6" class="d" dy="1.2em">E.g: &quot;can</tspan><tspan class="d">-</tspan><tspan class="d">evaluate&quot;</tspan></text><path d="M449.1 302v-67.1h8.5V302z" class="e"/><path d="M457.6 251.9h18v34h-10" class="j"/><path d="M430.5 264.1h54.4v9.6h-54.4z" class="h"/><text x="-20.1" y="688.7" class="n" transform="translate(450.6 -417.4)">Analyze for hints</text><path d="M448 302l-200 .6" class="b"/><path d="M328.8 297.5h38.4v9.6h-38.4z" class="h"/><text x="-119.2" y="678.7" class="n" transform="translate(448 -374)">report(hint)</text><path d="M356.1 328.1l-108-2.2" class="b"/><path d="M265.5 317.2h73.2v19.4h-73.2z" class="h"/><text x="-79.7" y="659.8" class="n" transform="translate(356.1 -335.2)">on(&quot;<tspan class="f">⚡</tspan> Name&quot;)<tspan x="-90.6" class="m" dy="1.2em">E.g.: &quot;fetch::end::json&quot;</tspan></text><path d="M248 347.8l289.5-1.3" class="g"/><path d="M356.2 337.4h73.2v19.4h-73.2z" class="a"/><text x="129.4" y="659.8" class="o4" transform="translate(248 -315)">⚡<tspan class="d"> </tspan><tspan class="d">Event</tspan><tspan x="108.2" class="d" dy="1.2em">E.g.: &quot;fetch::end::json&quot;</tspan></text><path d="M537.5 420.2v-73.7h8.5v73.7z" class="e"/><path d="M546 363.5h18v34h-10" class="j"/><path d="M518.3 375.7h55.5v9.6h-55.5z" class="a"/><text x="-20.7" y="688.7" class="n" transform="translate(539 -305.8)">Analyze resource</text><path d="M537.5 417.3l-289.5.6" class="b"/><path d="M346.6 407.9h92.2v19.4h-92.2z" class="a"/><text x="-170.4" y="674" class="n" transform="translate(537.5 -258.7)">on(&quot;<tspan class="f">⚡</tspan> Name&quot;)<tspan x="-190.9" class="m" dy="1.2em">E.g.: &quot;parser::manifest::end&quot;</tspan></text><path d="M248 440.9l369.9-1" class="g"/><path d="M386.8 430.7H479v19.4h-92.2z" class="h"/><text x="169.6" y="659.8" class="o4" transform="translate(248 -221.7)">⚡<tspan class="d"> </tspan><tspan class="d">Event</tspan><tspan x="138.8" class="d" dy="1.2em">E.g.: &quot;parser::manifest::end&quot;</tspan></text><path d="M617.8 513.7V440h8.5v73.7z" class="e"/><path d="M626.3 457.1h18v34h-10" class="j"/><path d="M599.2 469.3h54.4v9.6h-54.4z" class="h"/><text x="-20.1" y="688.7" class="n" transform="translate(619.3 -212.2)">Analyze for hints</text><path d="M617.9 510.9l-369.8 2.3" class="b"/><path d="M413.8 507.2h38.4v9.6h-38.4z" class="h"/><text x="-204.1" y="678.7" class="n" transform="translate(617.9 -164.3)">report(hint)</text><path d="M356 540.6l-108 .6" class="b"/><path d="M266.2 521.7h71.7v38.4h-71.7z" class="h"/><text x="-89.8" y="664.3" class="n" transform="translate(356 -135.4)">collect() returns when<tspan x="-62.5" class="m" dy="1.2em">all its</tspan><tspan x="-74.4" class="m" dy="1.2em"> </tspan>events have<tspan x="-76" class="m" dy="1.2em">been emitted</tspan></text><path d="M165.8 567.2l530.4-1.2" class="g"/><path d="M405.5 561.8h51v9.6h-51z" class="a"/><text x="239.7" y="664.6" class="n" transform="translate(165.8 -95.6)">format(reports)</text><path d="M696.1 619.8v-53.9h8.5v53.9z" class="e"/><path d="M704.6 575.1h18v34h-10" class="j"/><path d="M672 577.7h65.4v28.8H672z" class="h"/><text x="-25.6" y="679.1" class="n" transform="translate(697.6 -94.2)">print on the console<tspan x="-14.8" class="m" dy="1.2em">write an html</tspan><tspan x="4.1" class="m" dy="1.2em">...</tspan></text><path d="M690.2 615.9l-524.4 2.8m-8.5 6.9l-113.4.1" class="b"/><path d="M86.3 620.8h28.6v9.6H86.3z" class="a"/><text x="-71" y="678.7" class="n" transform="translate(157.3 -50.7)">exitCode</text><path d="M460 41.4l-2.7 10.7" class="o"/><text x="37.8" y="660.3" class="n" transform="translate(411 -627.9)">E.g.: axe</text><path d="M549.5 40.7l-3.4 11.5" class="o"/><text x="16" y="660.3" class="n" transform="translate(501.1 -628.6)">E.g.: “paser-manifest”</text></svg>