<svg version="1.1" id="Layer_1" xmlns="http://www.w3.org/2000/svg" xmlns:xlink="http://www.w3.org/1999/xlink" x="0" y="0" viewBox="0 0 460 360" xml:space="preserve"><style>.st0{fill:#96a3e2}.st1{fill:#1c418c}.st4{fill:#6b7fc6}.st5{fill:none;stroke:#1c418c;stroke-width:3.77;stroke-linecap:round;stroke-linejoin:round}.st9{fill:#060b1c}.st10{fill:#fff}.st11{fill:#2b5599}.st12{fill:none;stroke:#9bd5f9;stroke-width:3.55;stroke-linecap:round;stroke-linejoin:round}.st13{fill:#9bd5f9}</style><path class="st0" d="M181.6 274.7c-7.9 36.3-26.7 53.3-26.7 53.3-32.1-52.9 12-78 12-78"/><path class="st1" d="M166.2 249c.6-.4 1.5-.2 1.9.4.4.6.2 1.5-.5 1.9-3 1.9-5.8 4.2-8.3 6.7-2.6 2.5-4.8 5.3-6.8 8.3-3.9 6-6.4 12.9-7.1 20-.3 3.5-.3 7.1.1 10.6l.4 2.6.2 1.3.3 1.3.6 2.7.8 2.5c2.2 6.9 5.3 13.4 9.2 19.5l-3.7-.6c3.4-3.5 6.5-7.2 9.3-11.1 2.8-4.1 5.4-8.3 7.6-12.7l3.1-6.8 1.4-3.4 1.2-3.5.7-1.7.6-1.8 1-3.6 1.9-7.2v-.1c.2-.8 1-1.3 1.9-1.1.8.2 1.3 1 1 1.9l-1.7 7.4-1 3.7-.5 1.8-.6 1.8-1.2 3.7-1.4 3.6-3 7c-2.2 4.6-4.6 9.1-7.4 13.4l-2.2 3.3-2.3 3c-1.5 2.2-3.3 4.2-5.2 6-.1.1-.3.2-.4.3-1.2.6-2.6.2-3.3-.9-3.9-6.5-7-13.4-9.1-20.7l-.8-2.8-.6-2.8-.3-1.4-.2-1.4c-.1-.9-.3-1.9-.3-2.9-.4-3.8-.3-7.6.1-11.4 1-7.7 3.8-15 8.2-21.3 2.1-3.2 4.6-6.1 7.4-8.7 1.4-1.3 2.8-2.5 4.3-3.7 1.5-1.2 3.1-2.3 4.7-3.3v.2z"/><path class="st0" d="M445.1 227.7c-18.5-39.7-50.7-30.3-50.7-30.3 23.3-24.2-5.3-59.4-5.3-59.4-42 20-16.4 66.3-16.4 66.3s-37.9 19.6-48.3-9C306 145 261.7 37.2 140.2 89.7c-122.9 53.1-31.5 275.6 138.2 221 82.3-26.5 107.3-85.7 107.3-85.7 33 28.7 59.4 2.7 59.4 2.7z"/><defs><path id="SVGID_1_" d="M445.1 227.7c-18.5-39.7-50.7-30.3-50.7-30.3 23.3-24.2-5.3-59.4-5.3-59.4-42 20-16.4 66.3-16.4 66.3s-37.9 19.6-48.3-9C306 145 261.7 37.2 140.2 89.7c-122.9 53.1-31.5 275.6 138.2 221 82.3-26.5 107.3-85.7 107.3-85.7 33 28.7 59.4 2.7 59.4 2.7z"/></defs><clipPath id="SVGID_2_"><use xlink:href="#SVGID_1_" overflow="visible"/></clipPath><g clip-path="url(#SVGID_2_)"><path d="M397.2 315.6l-81 40s-262.5-29.9-222-85 143.5 5.1 177.5 18.4 98-39 98-39l27.5 65.6z" fill="#bbc6ef"/><ellipse transform="rotate(-34.895 278.133 120.897)" class="st4" cx="278.1" cy="120.9" rx="21.7" ry="41.7"/><path class="st4" d="M270.7 172.4c3.1-3.1.7-10.6-5.3-16.8s-12.9-8.1-16.5-5.7c-4.7 3.2-3.2 9.8 2.8 15.9s14.6 10.8 19 6.5v.1z"/><ellipse transform="rotate(-50.104 288.476 174)" class="st4" cx="288.5" cy="174" rx="4.5" ry="7.4"/></g><path class="st5" d="M445.1 227.7c-18.5-39.7-50.7-30.3-50.7-30.3 23.3-24.2-5.3-59.4-5.3-59.4-42 20-16.4 66.3-16.4 66.3s-37.9 19.6-48.3-9C306 145 261.7 37.2 140.2 89.7c-122.9 53.1-31.5 275.6 138.2 221 82.3-26.5 107.3-85.7 107.3-85.7 33 28.7 59.4 2.7 59.4 2.7z"/><path d="M125.5 127.1c7.6 13.8 24.9 1.8 24.9 1.8s19-14.2 7.8-25.8c-22-23.5-80.7-85.3-80.7-85.3l48 109.3h0z" fill="#cae8ef" stroke="#4b8087" stroke-width="3.8" stroke-linecap="round" stroke-linejoin="round"/><path d="M146.2 91c-2.2 18.6-19.4 27.5-23.2 29m3.8-50c-2.7 9.1-8.7 17-16.8 21.9m-2.8-42.5c-2.5 4.9-5.9 9.2-10.2 12.6" fill="none" stroke="#82bbc4" stroke-width="3.8" stroke-linecap="round" stroke-linejoin="round"/><path d="M158.2 103.1c-22-23.5-80.7-85.3-80.7-85.3l48 109.3" fill="none" stroke="#4b8087" stroke-width="3.8" stroke-linecap="round" stroke-linejoin="round"/><path class="st0" d="M295.2 272.6c26.5 38 26 69.6 26 69.6-75.5-15.5-61-77-61-77"/><path class="st1" d="M258.6 264.8c.2-.8 1-1.3 1.9-1.1s1.3 1 1.1 1.9c-.4 2.2-.7 4.4-.9 6.6-.1 2.2-.1 4.5 0 6.7.1 4.5.7 8.9 1.8 13.3 2.1 8.7 6.3 16.7 12.2 23.5 2.9 3.3 6.2 6.3 9.8 9l2.8 1.8 1.4 1 1.4.8 2.9 1.7 3 1.5c8.1 3.8 16.7 6.6 25.6 8.2l-3.2 2.6V340l-.2-2.3c-.1-3-.5-6-1-9l-1-4.5c-1.3-6-3.1-12-5.2-17.8-1.1-2.8-2.2-5.7-3.5-8.5l-2-4.3-2-4.1-1-2-1.2-2-2.4-4c-1.5-2.7-3.3-5.3-5-8-.4-.7-.3-1.6.4-2 .7-.4 1.6-.3 2 .4 1.8 2.6 3.7 5.2 5.4 7.9l2.5 4 1.2 2 1.1 2 2.4 4.2 2 4.3c1.5 2.8 2.7 5.7 4 8.6 2.4 5.9 4.4 12 6 18.2l1 4.7c.4 1.5.8 3.1 1 4.7l.6 4.7c.2 1.7.3 3.3.3 5v.6c-.3 1.4-1.7 2.3-3.1 2h-.1c-9.2-1.9-18.2-4.9-26.6-9.1l-3.1-1.7-3-1.8-1.5-1-1.5-1-2.9-2c-3.8-2.9-7.2-6.3-10.3-9.9-6.1-7.4-10.4-16.1-12.5-25.4-1.1-4.6-1.6-9.3-1.7-14 0-2.4.1-4.7.3-7.1.2-2.4.5-4.7 1-7h-.2z"/><circle class="st9" cx="208.3" cy="197.4" r="9.4"/><circle class="st10" cx="211" cy="194.5" r="3.2"/><path class="st11" d="M203.1 198.7c-.9.6-1.3 1.8-.7 2.7 1.3 2.1 3.5 3.4 6 3.4h1c1.1-.1 1.9-1.1 1.8-2.2s-1.1-1.9-2.2-1.8c-1.2.1-2.4-.5-3-1.5-.6-.9-1.8-1.2-2.7-.7-.1 0-.2 0-.2.1z"/><circle class="st9" cx="114.8" cy="195.5" r="9.4"/><circle class="st10" cx="117.5" cy="192.5" r="3.2"/><path class="st11" d="M109.7 196.7c-1 .6-1.3 1.9-.7 2.8 1.3 2.1 3.5 3.4 6 3.4h1c1.1-.2 1.9-1.2 1.7-2.3-.2-1.1-1.2-1.9-2.3-1.7-1.2.1-2.4-.5-3-1.5-.6-.9-1.8-1.2-2.7-.7z"/><path class="st5" d="M150.2 198.3s.6 9.3 8.4 9.2 8.6-9.1 8.6-9.1"/><circle class="st12" cx="40.6" cy="71.6" r="13.9"/><circle class="st13" cx="45.5" cy="68.6" r="3"/><circle class="st12" cx="23.7" cy="116.3" r="8.8"/><circle class="st13" cx="26.7" cy="114.3" r="1.9"/><circle class="st12" cx="40.6" cy="148.9" r="4.5"/></svg>