<svg xmlns="http://www.w3.org/2000/svg" viewBox="0 0 485.38 506.49"><defs><linearGradient id="Degradado_sin_nombre_157" x1="311.19" y1="61.39" x2="158.65" y2="481.18" gradientUnits="userSpaceOnUse"><stop offset="0" stop-color="#009fff"/><stop offset=".1" stop-color="#29a4ff"/><stop offset=".4" stop-color="#9bb3ff"/><stop offset=".61" stop-color="#e3bcff"/><stop offset=".71" stop-color="#ffc0ff"/></linearGradient><linearGradient id="Degradado_sin_nombre_78" x1="280" y1="288.54" x2="441.61" y2="146.95" gradientUnits="userSpaceOnUse"><stop offset=".09" stop-color="#ffac00"/><stop offset=".75" stop-color="#fe6801"/></linearGradient><linearGradient id="Degradado_sin_nombre_30" x1="399.18" y1="323.9" x2="427.09" y2="323.9" gradientUnits="userSpaceOnUse"><stop offset=".36" stop-color="#fff04d"/><stop offset="1" stop-color="#fe8f01"/></linearGradient><linearGradient id="Degradado_sin_nombre_55" x1="278.74" y1="350.16" x2="408.42" y2="350.16" gradientUnits="userSpaceOnUse"><stop offset=".26" stop-color="#ffff8a"/><stop offset="1" stop-color="#fe8f01"/></linearGradient><linearGradient id="Degradado_sin_nombre_46" x1="259.17" y1="193.3" x2="377.62" y2="148.9" gradientUnits="userSpaceOnUse"><stop offset=".16" stop-color="#ffff8a"/><stop offset="1" stop-color="#fe8f01"/></linearGradient><linearGradient id="Degradado_sin_nombre_51" x1="322.07" y1="226.87" x2="358.32" y2="226.87" gradientUnits="userSpaceOnUse"><stop offset=".25" stop-color="#ffff8a"/><stop offset="1" stop-color="#fe8f01"/></linearGradient><linearGradient id="Degradado_sin_nombre_49" x1="276.4" y1="231.5" x2="313.67" y2="231.5" gradientUnits="userSpaceOnUse"><stop offset=".29" stop-color="#ffff8a"/><stop offset="1" stop-color="#fe8f01"/></linearGradient><linearGradient id="Degradado_sin_nombre_53" x1="356.06" y1="272.76" x2="418.92" y2="235.26" gradientUnits="userSpaceOnUse"><stop offset=".26" stop-color="#ffff8a"/><stop offset="1" stop-color="#fe8f01"/></linearGradient><linearGradient id="Degradado_sin_nombre_81" x1="376.44" y1="380.43" x2="433.53" y2="359.91" gradientUnits="userSpaceOnUse"><stop offset=".12" stop-color="#ffd144"/><stop offset=".74" stop-color="#ff9a00"/></linearGradient><radialGradient id="Degradado_sin_nombre_87" cx="317.14" cy="61.96" fx="301.204" fy="101.353" r="42.5" gradientTransform="matrix(1 0 0 .99 0 .37)" gradientUnits="userSpaceOnUse"><stop offset=".04" stop-color="#fe8f01"/><stop offset=".82" stop-color="#ffff8a"/></radialGradient><style>.cls-2{fill:#e39ee5}.cls-5{fill:#ccf4ff}.cls-6{fill:#fff}.cls-8{fill:#5788c9}.cls-47,.cls-48{fill:none;stroke-linecap:round;stroke-miterlimit:10}.cls-11{fill:#7addb7}.cls-12{fill:#58ba92}.cls-13{fill:#42a57a}.cls-47{stroke-width:2px}.cls-24{fill:#93a0df}.cls-26{fill:#6b7fc3}.cls-27{fill:#1c4189}.cls-37{fill:#fe8f01}.cls-40{fill:#ffff8a}.cls-44{fill:#6d4403}.cls-47,.cls-48{stroke:#6d4403}</style></defs><g id="Capa_2" data-name="Capa 2"><g id="Capa_1-2" data-name="Capa 1"><g id="Capa_3" data-name="Capa 3"><g id="Webhint_Firefox"><ellipse cx="236.8" cy="266.11" rx="223.32" ry="217" fill="url(#Degradado_sin_nombre_157)"/><path class="cls-2" d="M146.68 419.59s50.4-4.41 69.73-52.41 34.36-22 43.71-3.16 22.31 45.34 52.39 55.57z"/><path class="cls-2" d="M235.07 425.29s36.31-2.92 50.24-34.73 24.76-14.57 31.49-2.1 16.07 30.05 37.75 36.83z"/><path d="M436.34 366.39c-53.82 107.09-186.79 149-297 93.61s-160.12-177.92-94-267.68C123.45 86.2 121 346.11 231.24 401.5c39.77 20 106.07 21.22 154.11-6.07 38.85-22.06 54.62-53.69 61.48-60-.73 4.57.27 9.57-10.49 30.96z" fill="#00aed1"/><path d="M141.76 183.31h-2.49a18.08 18.08 0 10-34.31-8v.1a13.13 13.13 0 00-1.54-.1 12.58 12.58 0 100 25.16l38.34-.16a8.54 8.54 0 008.51-8.51 8.54 8.54 0 00-8.51-8.49zM248.14 203h-3.82a27.77 27.77 0 10-52.69-12.23v.15a20.51 20.51 0 00-2.37-.15 19.32 19.32 0 000 38.63l58.87-.24a13.12 13.12 0 0013.08-13.08A13.12 13.12 0 00248.14 203z" fill="#fcf6cd"/><path class="cls-5" d="M94.82 203.83c-14.75 0-7.43 59.23-21.6 59.23-11.55 0-3.82-29.85-12.79-31.1s-6.92 48.84-18.66 46.76c-20.52-3.65-16.84-58.72 3.54-86.4 53.72-73 69.59 23.39 107.54 108.82-26.17-34.7-43.35-97.31-58.03-97.31z"/><ellipse class="cls-5" cx="81.66" cy="143.94" rx="11.35" ry="8.44" transform="rotate(-60 81.658 143.944)"/><ellipse class="cls-6" cx="78.66" cy="140.94" rx="6.01" ry="3.47" transform="rotate(-60 78.657 140.941)"/><ellipse class="cls-5" cx="43.71" cy="160.32" rx="11.35" ry="8.44" transform="rotate(-60 43.713 160.326)"/><ellipse class="cls-6" cx="40.71" cy="157.32" rx="6.01" ry="3.47" transform="rotate(-60 40.713 157.324)"/><ellipse class="cls-5" cx="98.8" cy="157.26" rx="5.93" ry="4.41" transform="rotate(-60 98.798 157.257)"/><ellipse class="cls-6" cx="97.23" cy="155.69" rx="3.14" ry="1.81" transform="rotate(-60 97.23 155.694)"/><path d="M139.35 460q9.48 4.75 19.16 8.57c106 41.8 227.09-1.23 277.83-102.18 10.76-21.41 9.76-26.41 10.49-31-6.86 6.34-22.63 38-61.48 60-48 27.29-114.34 26.06-154.11 6.07 0 0-32.34-15.16-19.45-.51s46.36 22.3 38.9 24.26c-16.14 4.24-37.39-11.63-37.07-4.3.53 12.11 31.22 20 23.18 24.25-11 5.75-71.49-24.86-87.23-30.57-12.55-4.54-1.95 26.53 49.84 47S139.35 460 139.35 460z" fill="#0098b2"/><ellipse class="cls-8" cx="197.56" cy="407.73" rx="6.41" ry="13.21" transform="rotate(-47.07 197.563 407.74)"/><ellipse class="cls-8" cx="166.99" cy="392.22" rx="2.6" ry="4.72" transform="rotate(-47.07 166.994 392.227)"/><ellipse cx="137.27" cy="401.19" rx="4.45" ry="6.6" transform="rotate(-30 137.264 401.18)" fill="#0097d3"/><path d="M59.35 189.06a38.42 38.42 0 017.89-8.26M37.83 232s3.09-16.14 11.76-30.25" stroke-miterlimit="10" stroke="#fff" stroke-width="7" fill="none" stroke-linecap="round"/><path class="cls-11" d="M369.87 143s-38.2 5.6-37.44 47.14c0 0 47-1.29 46.23-42.6z"/><path class="cls-12" d="M363.24 82c42.05 28.89 74.5 76.87 87.87 122.84 5.23 18 4.12 30.17 4.67 49 1.33 46.2-53.78-77-152.57-144.85s-179.39-33.29-137.4-49C230.12 36 303.47 41 363.24 82z"/><path class="cls-12" d="M413.09 130.46s-36.82-11.63-54.27 26.07c0 0 42.84 19.35 60.19-18.15z"/><path class="cls-13" d="M380 229.68s-38.54-2.41-46.38 38.38c0 0 46.25 8.45 54-32.12zM203.16 58.15s-19.85-8.57-31.71 11.44c0 0 22.77 13.21 34.56-6.69z"/><path class="cls-12" d="M409 135.5s-37.71 8.27-34 49.65c0 0 46.78-4.59 43.13-45.74zM237.91 55.56s-17.27-8-23.81 9.72c0 0 17.91 8.51 23.81-9.72z"/><path class="cls-12" d="M249.87 53.18s-23.3 2.52-19 25.36c0 0 24.31-2.36 19-25.36z"/><path class="cls-11" d="M265.26 62.11A43.58 43.58 0 00260 64.7c.1-.91.18-1.82.24-2.78 0 0-15.75-2.91-29.36 4.24.73-1.68 1.41-3.47 2-5.39 0 0-40.42-18.67-55.73 22.75 0 0 20.65 9.81 37.75.9a46.69 46.69 0 00-2.25 7.81c-10.46 5.68-22 17-22.85 39.26 0 0 41.68 1.27 47.89-33.08 0 5.73 1.49 12.2 4.95 19.48-.01 0 43.51-16.1 22.62-55.78z"/><path class="cls-11" d="M286.56 72.12S245 88 263.93 127.9c0 0 43.52-16.1 22.63-55.78z"/><path class="cls-13" d="M289.31 57.81s-27.53 9.45-21.21 40.12c0 0 34.64-7.47 28.35-38z"/><path class="cls-12" d="M268.48 59s-25.36 2.74-20.67 27.6c0 0 26.45-2.57 20.67-27.6z"/><path class="cls-13" d="M284.75 50.49s-20.84-9-33.29 12c0 0 23.9 13.87 36.28-7zM419 138.59c-11.45 2.73-27 10.84-32.1 34.38 0 0 30 6.23 45.2-13.28a244.34 244.34 0 00-13.1-21.1zm-34-39.21c-7.17 3.74-22.67 14.76-17.76 38.57a49.88 49.88 0 0015.43-6.78c.61 5.59 2.83 11.77 7.74 18.26 0 0 15.2-11.72 15.74-27.81A228.24 228.24 0 00385 99.38z"/><path d="M271 251.08c11.69 18.25.4 46.35-25.22 62.77s-55.88 14.93-67.57-3.32-.4-46.35 25.23-62.77 55.86-14.93 67.56 3.32z" stroke-width="2" stroke="#234b7a" stroke-miterlimit="10" fill="#fff" id="path2814"/><path d="M255.93 242.05c2.71 4.24-1.65 14.37-11.78 20.86s-26.08 10.58-28.79 6.35 3.3-12.93 13.43-19.42c7.73-5 21.19-6.61 25.47-8.57.61.27 1.04.45 1.67.78z" fill="#b5d2e2" id="path3655"/><path d="M176.92 284.24c3.15-5.69 13.51-9.14 23.29-7.56s15.72 9.39 12.56 15.07-14.2 7.08-24 5.5c-7.47-1.2-8.71-10.12-12.08-11.47.07-.46.14-1.01.23-1.54z" fill="#2b65aa" id="path3655-4-8"/><path d="M254.26 241.27c-2.73 1.74-23.69 15.29-41.85 26.84-5.87 5.71-10 11.48-10.19 17.64-2.86.1-23.15-1.26-25.3-1.49 5-19.07 21.09-30.87 24.35-33s26-19.93 53-10z" fill="#366ebf" id="path3596"/><path d="M238.17 312.82c-6.49.55-12.06-6.35-9.54-15.88s9.91-19.67 16.4-20.22 9.64 8.67 7.13 18.2c-1.93 7.28-10.88 13.4-12.71 17.17-.45.29-.77.47-1.28.73z" fill="#588ac6" id="path3655-4"/><path d="M239.45 312.09c.35-2.52.2-21.12 2.54-37.88-1.32-5.84-1.88-10.78-8.25-12.23 2.18-2.27 20.23-18.29 22.19-19.93 16.1 8 15.68 23.24 15.28 26.25s.25 24.7-31.76 43.79z" fill="#d0e2f1" id="path3596-1"/><path d="M176.73 285.76c2.4.78 21.19 3.8 37.17 9 7.25.12 13-3.86 19.54-8.61.7 2.17 4.56 24.77 4.77 26.65-21.24 11.16-37.06 7.79-40 6.87s-26.46-4.73-21.53-33.91z" fill="#6c9add" id="path3596-1-7"/><g id="path3645"><path class="cls-6" d="M230.19 290.83c-11.67 7.47-25.41 6.94-30.62-1.2s0-20.84 11.71-28.31 25.4-6.94 30.61 1.2-.04 20.83-11.7 28.31z"/><ellipse cx="219.47" cy="274.26" rx="19.1" ry="13.64" transform="rotate(-32.65 219.45 274.245)" fill="#6c9de5"/></g><ellipse cx="212.91" cy="261.94" rx="35.51" ry="14.59" transform="rotate(-32.9 211.672 262.107)" fill="#fdbdff" opacity=".25"/><path class="cls-24" d="M142.38 392.22a103.36 103.36 0 011.41-18.74c8.22-13.6 12.35-25.56 14-35.5 0 0 13.9-4.88 25.65-3.36-.03 0 10.56 39.99-41.06 57.6z"/><path class="cls-24" d="M143.78 373.48a103.36 103.36 0 00-1.41 18.74c1 41.48 32.93 44.62 32.93 44.62 10.11-48.07 50.36-32.56 50.36-32.56C228.44 449 189.79 450 189.79 450c35.87 32.33 3.79 54.82 3.79 54.82C157.71 493 169.07 452 169.07 452c-47.07 21.78-94.88-6.42-95.73-6.93-9.15 22.33-36.2 23.47-36.2 23.47-11.22-22.1-5.64-39.78.9-50.62l-.9-.72S3.79 375.48 1.71 342.38c-4.17-72.18 54.37-85.69 54.37-85.69s20.28-4.12 37.41-.74a54.5 54.5 0 0145.85 30.32c4.3 7.33 12.93 16.07 17 26.94 2.06 5.53 3.23 14 1.44 24.77-1.65 9.94-5.78 21.9-14 35.5z"/><path d="M143.89 374.12s-10.79-8.72-32-3.23S81 413.62 106.34 436s71.2 9.67 71.2 9.67-13.52 39.84 17.61 58c0 0 29.5-19.39-5.36-53.62 0 0 38.9-.88 35.87-45.72 0 0-36.07-13.13-45.83 34.65 0-.05-44.24-9.22-35.94-64.86z" fill="#b8c3ec"/><path class="cls-26" d="M3.08 316.63s-6.11 42.43 6 54.17 15.09-42.97-6-54.17z"/><ellipse class="cls-26" cx="30.06" cy="355.74" rx="5.05" ry="10.22" transform="rotate(-5.11 30.044 355.788)"/><ellipse class="cls-26" cx="24.51" cy="375.61" rx="2.92" ry="5.89" transform="rotate(-5.11 24.555 375.64)"/><path class="cls-27" d="M37.14 418.73a1.49 1.49 0 01-1.17-.57c-1.38-1.72-33.67-42.5-35.76-75.69-2.19-37.9 13-59.6 26.13-71.13 14.23-12.51 28.79-16 29.4-16.11.88-.18 20.71-4.13 37.91-.78 2.46.07 32 1.5 47 31.14 1.41 2.4 3.42 5.1 5.54 8 4.12 5.55 8.79 11.83 11.5 19.12 1.49 4 3.66 12.6 1.52 25.54-1.88 11.45-6.65 23.58-14.18 36-.4.67-1.69 2.74-2.4 2.3s-.56-3.2-.16-3.85c7.33-12.13 12-23.89 13.78-35 2-12.25 0-20.29-1.37-24-2.56-6.89-7.1-13-11.1-18.38a100.72 100.72 0 01-5.76-8.32 53.53 53.53 0 00-44.56-29.58h-.29c-16.64-3.28-36.62.7-36.82.74a72.72 72.72 0 00-28.16 15.52c-12.58 11.09-27.13 32-25 68.61 2 32.25 34.77 73.59 35.1 74a1.5 1.5 0 01-1.17 2.44z"/><path class="cls-27" d="M36.24 470.11l-.44-.86c-11.5-22.67-5.83-40.83 1-52.08a52.29 52.29 0 0110-12.27 1.5 1.5 0 011.92 2.3 50.14 50.14 0 00-9.39 11.52C33 429.17 27.74 446 38 467c4.79-.47 26.2-3.63 33.92-22.46 3.44-8.38 3.79-18.86 1-31.15a1.49 1.49 0 011.13-1.79 1.51 1.51 0 011.79 1.14c2.88 12.89 2.48 24-1.19 32.94-9.41 22.95-37.25 24.38-37.53 24.4z"/><path class="cls-27" d="M193.82 506.49l-.71-.24C162.05 496 165.18 464.43 167 454.59a92.26 92.26 0 01-36.13 7.13c-31.59 0-56.87-14.51-58.23-15.31a1.48 1.48 0 01-.79-1.31 1.5 1.5 0 011.5-1.5h.42l.36.21c.48.29 48 28.28 94.33 6.86l2.94-1.36-.87 3.12c-.44 1.6-10.39 39.13 22.8 50.72 2.38-1.9 11.23-9.7 11.92-21.27.6-10-4.93-20.38-16.45-30.76l-2.8-2.51 3.75-.1c.15 0 15-.55 25.11-11.59 6.87-7.52 10-18.13 9.36-31.55-3.55-1.12-16.89-4.62-28.68 1.81-9.35 5.09-15.66 15.17-18.77 30l-.28 1.31-1.34-.13c-.33 0-33.26-3.76-34.28-46.08a104.77 104.77 0 011.43-19 1.5 1.5 0 013 .48 102.32 102.32 0 00-1.39 18.46c.84 34.92 24.41 41.78 30.27 42.95 3.41-14.95 10.13-25.24 20-30.6 14.91-8.1 31.37-1.92 32.07-1.65l.9.34.06 1c.91 14.76-2.49 26.46-10.11 34.79-8 8.75-18.5 11.4-23.83 12.2 10.59 10.29 15.63 20.68 15 30.92-.91 14.77-13.26 23.6-13.79 24z"/><path class="cls-27" d="M142.38 393.72a1.5 1.5 0 01-.49-2.92c20.64-7 34.09-18.95 38.93-34.43a43.59 43.59 0 001.35-20.37c-11-1.06-23.78 3.36-23.91 3.4a1.5 1.5 0 11-1-2.83c.58-.2 14.38-5 26.34-3.43l1 .13.26 1a45 45 0 01-1.18 23c-3.58 11.46-13.56 27.08-40.82 36.38a1.61 1.61 0 01-.48.07z"/><path d="M50.32 325l-2-3.53a7.19 7.19 0 012.8-9.9A7.69 7.69 0 0161.25 314l2.46 3.77m49.03-19.26l-.81-2a6.22 6.22 0 013.65-8.08 6.59 6.59 0 018 2.7l1.84 3.09" stroke="#1c4189" stroke-width="2" stroke-miterlimit="10" fill="none" stroke-linecap="round"/><path d="M75.22 317.09s10-9.76 29.56-14.12c4.92-1.14-3.41 5.94-3.41 5.94s5.87 13.58-4.17 19.83-20.65-6.63-21.98-11.65z" fill="#402b5e"/><path d="M78.73 319.83s13.07-9.75 22.73 0c0 0-1.51 8-9.85 8.34s-12.88-8.34-12.88-8.34z" fill="#e57cde"/><path d="M57 259l21.79-84.88L92.46 259s-15.91 9.11-35.46 0z" fill="#c7e5ec"/><path d="M62.32 244.78H61l.16-3c.17 0 17.76.8 25.91-9.8l2.38 1.83c-7.83 10.19-22.59 10.97-27.13 10.97zm7.25-20.09a22.32 22.32 0 01-3.55-.25l.52-3c.11 0 10.85 1.78 18-5.77l2.17 2.07c-5.59 5.96-12.87 6.95-17.14 6.95zm2.14-20.86l-.26-3c.06 0 6.47-.63 10-4.62l2.26 2c-4.33 4.89-11.71 5.59-12 5.62z" fill="#80b8c1"/><path d="M74.94 264.59a43.52 43.52 0 01-18.54-4.22 1.49 1.49 0 01-.82-1.73l21.79-84.88a1.5 1.5 0 012.93.13l13.64 84.89a1.5 1.5 0 01-.73 1.54 39.47 39.47 0 01-18.27 4.27zm-16.14-6.43a39.54 39.54 0 0032 0l-12.32-76.68z" fill="#4b8084"/><path d="M406.16 310.86c-5.51 7.76-11.28 19.71-2.33 27.7 6.91 6.16 16.26-9.32 19.54-14.36 1.24-1.91 2.48-3.9 3.72-5.94-2-1.9-4.86 0-4.86 0 4-21.22-8.21-3.54-8.21-3.54-1.64-8.46-7.86-3.86-7.86-3.86zM288.36 100a213.21 213.21 0 01-2-54.44c.19-.46 3.31-7.86 9.34-8.78-.39 13 .18 27.29 3.17 38.85 3.75 11.87 5.88 17.17 15.23 11.87l8.33-16.17 3 14.89h.33s5.56 1.55 13.42 3.8c14.36 4.11 36.39 10.56 46.19 14.15 0 0-21.26 29.56-35.73 59.89 6.6 4.69 17.69 4.57 23.73 5.17 24.48 2.41 108.76 22.73 111 123.39 0 86.28-55.66 108-96.89 112.22 16.51-4.07 20.93-15.64 20.93-15.64-41.67 11.75-67.34-13.83-67.34-13.83 36.7 6.82 63.72-22.54 63.72-22.54-13.26.94-24.25-10.24-24.25-10.24l8.14-5.47c-4.92-5.28-24.82-20.29-24.82-20.29 12.32-8.91 30.7-13.08 30.7-13.08-10.24-10.8-25.53-9.05-26.07-9a53.7 53.7 0 015-2.45c1.12-.47 2.23-.89 3.31-1.27a47.23 47.23 0 0119.67-2.67c-10.43-4.93-12.25-17.12-12.67-23.9-.29-4.75 0-12.89-3.54-18.7a12.72 12.72 0 00-3.46-3.88c-11-8.36-35.75-3.71-35.75-3.71a20.3 20.3 0 0116.95-8.33c2.46-9.48-10.11-6.82-10.11-6.82s10.3-7.77 6.32-12.74-14.82 2.88-14.82 2.88c1.47-3.6 0-5.77 0-5.77l1-.48c8.44-3.78 11.3-8.61 12.14-12.26l-.77-.05c-17.18-22.49 8.33-70.49 8.33-70.49l-16.16 4.42 6.56-25.39-28 10.61 1.77-10.61-50.15 40.94c-2.37-.47-6.76.19-11.23 3.89-3.59 3-6 6.94-5.59 9.88l-15.69 19.47a88.61 88.61 0 01.73-19.63c.18-1.29.37-2.53.58-3.73l-.57-.1-9.58-12.7 8.58 1.33a250.19 250.19 0 01-18.82-33.44 24.4 24.4 0 013.92-14.69 123.27 123.27 0 0029.75 21.89 25 25 0 01-.71-3.47s4.36 3.56 9.29 2.24a25 25 0 01-1.9-12.89 13 13 0 0012.13 7.2 107.24 107.24 0 0113.36-9.33z" fill="url(#Degradado_sin_nombre_78)"/><path d="M422.23 318.26s2.9-1.9 4.86 0c-1.24 2-2.48 4-3.72 5.94-3.28 5-12.63 20.52-19.54 14.36-8.95-8-3.18-19.94 2.33-27.7 0 0 6.22-4.6 7.86 3.86-.02 0 12.25-17.72 8.21 3.54z" fill="url(#Degradado_sin_nombre_30)"/><path d="M340.29 321a40.22 40.22 0 007.6-6.93c.68-.79 1.33-1.62 2-2.49q1.36-1.87 2.79-3.56a56 56 0 0115.85-13.25c.54-.07 15.83-1.82 26.07 9 0 0-18.38 4.17-30.7 13.08 0 0 19.9 15 24.82 20.29l-8.14 5.47s11 11.18 24.25 10.24c0 0-27 29.36-63.72 22.54 0 0 25.67 25.58 67.34 13.83 0 0-4.42 11.57-20.93 15.64a170 170 0 01-43.52-1.09c9.66 1 27.25-4.35 27.25-4.35-79.79-26.72-92.49-78.64-92.49-78.64 8.31 7.69 40.31 15.1 61.53.22z" fill="url(#Degradado_sin_nombre_55)"/><path class="cls-37" d="M396.5 288.35a47.23 47.23 0 00-19.67 2.65c-1.08.38-2.19.8-3.31 1.27-16.88-26.59 3.31-50.43 3.31-50.43a12.72 12.72 0 013.46 3.88c3.54 5.81 3.25 13.95 3.54 18.7.42 6.81 2.24 19 12.67 23.93z"/><path d="M296 146.52c-.22-.37-.35-.56-.35-.56l-.57.38a121.35 121.35 0 00-20 17.94c-11 12.12-2.51 7.82-2.51 7.82s17.68 11.62 26 4.42c9.58-8.77-.52-26.63-2.57-30zm15.47 60c-3.9-5.83-9.11-8.24-12.6-8.11-25.57 4.3-48.19 26.32-48.19 26.32a64.24 64.24 0 01-2.62-8.2 78.84 78.84 0 01-.43-35l-5.3 1.69-7.33 2.28 6.57-8.17 15.64-19.47c.41 2.92 3.6 4.85 11.2 3.81a2.86 2.86 0 002.5-2.56c.37-3.42 1.45-10 4.55-13.06.87-.78.19-1.63-1.43-2l50.15-40.94-1.77 10.61 28-10.61-6.56 25.39 16.16-4.42s-25.51 48-8.33 70.49l.77.05c-.84 3.65-3.7 8.48-12.14 12.26l-1 .48c-9.22 4.7-18.19 17.12-17.25 28.09l-.53.05-5.07-1.5c1.41-12.94-1.16-21.84-5-27.5z" fill="url(#Degradado_sin_nombre_46)"/><path d="M337.31 243.35c-4.33 4.54-10 3.2-11.85.8a16.12 16.12 0 01-2.06-3.51 16.6 16.6 0 01-1.26-5.16c-.94-11 8-23.39 17.25-28.09 0 0 1.47 2.17 0 5.77 0 0 10.84-7.86 14.82-2.88S347.89 223 347.89 223s12.57-2.66 10.11 6.82a20.3 20.3 0 00-16.92 8.32c-1 1.26-1.68 2.39-2.15 3.12a13.05 13.05 0 01-1.62 2.09z" fill="url(#Degradado_sin_nombre_51)"/><path class="cls-40" d="M352.63 308q-1.42 1.68-2.79 3.56c-.63.87-1.28 1.7-2 2.49-6.75-2.56-9.57 6-9.57 6-1.53-1.11-2.95-3.46-.09-8.1 4.73-7.59 14.45-3.95 14.45-3.95z"/><path d="M338.32 320s2.82-8.55 9.57-6a40.22 40.22 0 01-7.6 6.93 5.8 5.8 0 01-1.97-.93z" fill="#fff04d"/><path d="M342.91 56.15c8.08 13.65-3.62 33.39-3.62 33.39l-.13.46c-7.86-2.25-13.42-3.8-13.42-3.8h-.33l-3-14.89-8.33 16.17c-9.35 5.3-11.48 0-15.23-11.87-3-11.56-3.56-25.89-3.17-38.85a301.85 301.85 0 013.17-35.18S325 24.83 342.91 56.15z" fill="url(#Degradado_sin_nombre_87)"/><path class="cls-37" d="M322.14 235.48a16.6 16.6 0 001.26 5.16 82.71 82.71 0 00-10.49-.45c4-11.24-8.91-13.58-8.91-13.58 7.2-8-2.29-7.5-2.29-7.5 13.16-2.3 10.09-11.72 9.77-12.59 3.82 5.66 6.39 14.56 5 27.5l5.15 1.52z"/><path d="M304 226.61s12.89 2.34 8.91 13.58a67.21 67.21 0 00-18.7 2.82c-2.13.66-16.64 3.22-17.68-5s4-17.24 21.79-18.47a30.88 30.88 0 003.39-.41s9.49-.48 2.29 7.48z" fill="url(#Degradado_sin_nombre_49)"/><path class="cls-44" d="M275.06 164.29a121.35 121.35 0 0120-17.94l.92.18c2 3.37 12.14 21.23 2.56 30-8.34 7.2-26-4.42-26-4.42s-8.46 4.3 2.52-7.82zm22.61-10.62l-2.86-4.87s-15.44 12.2-22 20.38a9.18 9.18 0 004.79 2.67l13.67-11a27.18 27.18 0 014.3 2.84s1.92-.77 2.1-10.02z"/><path class="cls-6" d="M294.81 148.8l2.86 4.87c-.18 9.25-2.07 10-2.07 10a27.18 27.18 0 00-4.3-2.84l-13.67 11a9.18 9.18 0 01-4.79-2.67c6.53-8.16 21.97-20.36 21.97-20.36z"/><path class="cls-44" d="M298.88 1.58a301.85 301.85 0 00-3.17 35.18c-6 .92-9.15 8.32-9.34 8.78 1.49-14.89 5.08-30.6 12.51-43.96zM295.66 146s.13.19.35.56l-.92-.18zm-21.6-1.92c1.62.33 2.3 1.18 1.43 2-3.1 3.1-4.18 9.64-4.55 13.06a2.86 2.86 0 01-2.5 2.56c-7.6 1-10.79-.89-11.2-3.81s2-6.9 5.59-9.88c4.47-3.74 8.86-4.4 11.23-3.93zm-8.47 9c2.12-2.13 3.07-4.62 2.12-5.58s-3.46 0-5.59 2.12-3.07 4.63-2.12 5.58 3.46.02 5.59-2.11z"/><path class="cls-6" d="M267.71 147.51c1 1 0 3.45-2.12 5.58s-4.63 3.08-5.59 2.12 0-3.45 2.12-5.58 4.63-3.08 5.59-2.12z"/><path class="cls-37" d="M242.34 183.17l5.3-1.69a78.84 78.84 0 00.43 35c-4.01-11.29-5.73-33.31-5.73-33.31z"/><path class="cls-40" d="M242.34 153.86l.57.1c-.21 1.2-.4 2.44-.58 3.73h-.29l-23.11-7.77a129.22 129.22 0 01-11-41.68c-1.57-16.67-.54-32.09.94-37.82.07.35 3.19 16.16 13.64 38.67a250.19 250.19 0 0018.82 33.44l-8.58-1.33z"/><path class="cls-44" d="M222.53 109.05C212.07 86.54 209 70.73 208.88 70.38c.67-2.61 1.44-3.21 2.09-1 2.68 9.57 8.69 18 15.48 25a24.4 24.4 0 00-3.92 14.67z"/><path d="M393.49 217.82s14.08 2 22 11.08c0 0-38.11 14.32-12.93 61.06 0 0-17.31 1.26-18.8-27.44s-16.69-24.46-40.64-24.69c0 0 1.81-7.67 17.73-7.93s29.66-1.17 32.64-12.08z" fill="url(#Degradado_sin_nombre_53)"/><path d="M410.34 353.3s-6.78 12.38-27.58 21.19c0 0 21.14 8.82 44.33 2.68" fill="url(#Degradado_sin_nombre_81)"/><path class="cls-44" d="M282.12 131.4a20.5 20.5 0 01.78-7.86 22.47 22.47 0 013.4-7.24 16.63 16.63 0 012.94-3.13 10.39 10.39 0 014.19-2.08c.41-.06.83-.12 1.23-.16a10.22 10.22 0 011.24 0c.4.08.8.18 1.19.27s.73.28 1.08.43a7.57 7.57 0 013 3 .14.14 0 01-.06.19.12.12 0 01-.15 0 9.87 9.87 0 00-3.25-1.64 5.89 5.89 0 00-3.55.12c-2.3.82-4 2.74-5.47 4.71a37.19 37.19 0 00-3.65 6.45 69 69 0 00-2.67 7 .14.14 0 01-.18.09.15.15 0 01-.1-.12zm-23.85 17.85c-1.44.31-2.75.49-4 .73a12.72 12.72 0 00-3.28 1 4.17 4.17 0 00-2 1.94 18 18 0 00-1.06 3.7 6.11 6.11 0 01-1.22-4.3 5.23 5.23 0 011-2.4 5.61 5.61 0 012-1.64 7.87 7.87 0 014.57-.6 8.55 8.55 0 013.99 1.57z"/><path class="cls-47" d="M263.07 126.2s-4.79-2.56-6.87-10a25 25 0 01-.71-3.47s4.36 3.56 9.29 2.24a25 25 0 01-1.9-12.89 13 13 0 0012.13 7.2 107.24 107.24 0 0113.35-9.28 122.4 122.4 0 0110.52-5.64m-12.51-48.82c1.49-14.89 5.08-30.6 12.51-44 0 0 26.09 23.25 44 54.57 8.08 13.65-3.62 33.39-3.62 33.39m-50.9 10.5a213.21 213.21 0 01-2-54.44"/><path class="cls-47" d="M298.88 1.58a301.85 301.85 0 00-3.17 35.18c-.39 13 .18 27.29 3.17 38.85 3.75 11.87 5.62 14.39 15.23 11.87l8.33-16.17 3 14.89m.3 0s5.56 1.55 13.42 3.8c14.36 4.11 36.39 10.56 46.19 14.15 0 0-21.26 29.56-35.73 59.89M208.88 70.38c-1.48 5.73-2.51 21.15-.94 37.82a129.22 129.22 0 0011 41.68l23.06 7.77m14.2-41.4a123.27 123.27 0 01-29.75-21.89c-6.79-7-12.8-15.44-15.48-25-.65-2.19-1.42-1.59-2.09 1m102.6 136.15c3.82 5.66 6.39 14.56 5 27.5l5.15 1.52m-73.56-19.03a64.24 64.24 0 002.62 8.2s22.62-22 48.19-26.32c3.49-.13 8.7 2.28 12.6 8.11m41.03-17.2a10.75 10.75 0 010 5.36c-.84 3.65-3.7 8.48-12.14 12.26l-1 .48c-9.22 4.7-18.19 17.12-17.25 28.09a16.6 16.6 0 001.26 5.16 16.12 16.12 0 002.06 3.51c1.84 2.4 7.52 3.74 11.85-.8a13.05 13.05 0 001.62-2.07c.47-.73 1.17-1.86 2.15-3.12a20.3 20.3 0 0116.94-8.32c11.94.19 45.09 3 34.11-29"/><path class="cls-47" d="M311.46 206.45c.32.87 3.39 10.29-9.77 12.59a30.88 30.88 0 01-3.39.41c-17.81 1.23-22.84 10.23-21.79 18.47s15.55 5.69 17.68 5a67.21 67.21 0 0118.7-2.82 82.71 82.71 0 0110.49.45m17.7-2.39s24.76-4.65 35.75 3.71a12.72 12.72 0 013.46 3.88c3.54 5.81 3.25 13.95 3.54 18.7.42 6.78 2.24 19 12.67 23.9a21.42 21.42 0 004.89 1.61"/><path class="cls-47" d="M435.87 228.51S419 220 402 239.06c-19.9 22.17 2.08 56.9 10.61 64.1a63.89 63.89 0 00-6.41 7.7c-5.51 7.76-11.28 19.71-2.33 27.7 6.91 6.16 16.26-9.32 19.54-14.36 1.24-1.91 2.48-3.9 3.72-5.94 5.6-9.17 11.4-19.5 18.89-29.31 10.23-13.39 3.73-25.54 3.73-25.54"/><path class="cls-44" d="M241.6 177.33l-.94 1.16a99 99 0 01.68-20.94c.18-1.3.37-2.55.58-3.77a103 103 0 013.92-15.61 1 1 0 011.28-.6 1 1 0 01.6 1.27 105.6 105.6 0 00-3.83 15.29c-.2 1.19-.39 2.42-.57 3.7a88.13 88.13 0 00-.8 18.35c.02.35-.92 1.15-.92 1.15zm6.47 40.17a1 1 0 01-.94-.67c-4-11.3-5.71-32.44-5.78-33.35.69-.19 1.45-.46 2-.62 0 .22 1.78 22.25 5.7 33.3a1 1 0 01-.61 1.28 1 1 0 01-.37.06z"/><path class="cls-48" d="M269.77 159.54s.25.3.74.81a37.62 37.62 0 004.55 3.94l.33.24M290.36 146a24.26 24.26 0 014.73.37l.92.18a16.56 16.56 0 013.25 1.09m38.05 95.71s-8.11-.15-5.74-8.59m-44.75 9.14s-5.43-7 2.91-13.18"/><path class="cls-47" d="M368.49 294.75A56 56 0 00352.64 308q-1.42 1.68-2.79 3.56c-.63.87-1.28 1.7-2 2.49a40.22 40.22 0 01-7.6 6.93c-21.22 14.9-53.22 7.49-61.55-.2 0 0 12.7 51.92 92.49 78.64 0 0-17.59 5.3-27.25 4.35a170 170 0 0043.51 1.05c41.23-4.24 96.89-25.94 96.89-112.22-2.27-100.66-86.55-121-111-123.39-6-.6-17.13-.48-23.73-5.17"/><path class="cls-47" d="M396.5 288.36a47.23 47.23 0 00-19.67 2.64c-1.08.38-2.19.8-3.31 1.27a53.7 53.7 0 00-5 2.45m8.31-52.85s-20.19 23.84-3.31 50.43M352.63 308s-9.72-3.64-14.4 3.94c-2.86 4.64-1.44 7 .09 8.1a5.8 5.8 0 002 .94"/><path class="cls-48" d="M413.36 337.1s-7.52-3.24-4-12.53M338.32 320s2.82-8.55 9.57-6"/><path class="cls-47" d="M208.88 70.37c.07.35 3.19 16.16 13.64 38.67a250.19 250.19 0 0018.82 33.44l-8.58-1.33 9.58 12.7m44.02-108.29c.19-.46 3.31-7.86 9.34-8.78m-73.17 72.27a24.4 24.4 0 013.92-14.69"/></g></g></g></g></svg>