<svg id="Layer_1" xmlns="http://www.w3.org/2000/svg" viewBox="0 0 34.9 34.9"><style>.st0{fill:url(#background_1_);} .st1{fill:#FFFFFF;} .st2{fill:none;} .st3{fill:#4D4D4D;} .st4{fill:#4046DD;} .st5{fill:#231F20;} .st6{fill:none;stroke:#4046DD;stroke-width:2;stroke-miterlimit:10;}</style><circle class="st4" cx="17.1" cy="17.4" r="16.1"/><path class="st1" d="M19 22.5c.4.4.6.9.6 1.6 0 .6-.2 1.2-.6 1.6-.4.4-.9.6-1.6.6-.6 0-1.1-.2-1.5-.6-.4-.4-.6-.9-.6-1.6 0-.6.2-1.2.6-1.6.4-.4.9-.6 1.5-.6s1.2.2 1.6.6zm.6-13.9v4.5l-.8 6.9h-2.7l-.8-6.9V8.6h4.3z"/></svg>