<svg id="Layer_1" xmlns="http://www.w3.org/2000/svg" viewBox="0 0 34.9 34.9"><style>.st0{fill:url(#background_1_);} .st1{fill:#FFFFFF;} .st2{fill:none;} .st3{fill:#4D4D4D;} .st4{fill:#4046DD;} .st5{fill:#231F20;} .st6{fill:none;stroke:#4046DD;stroke-width:2;stroke-miterlimit:10;}</style><circle class="st4" cx="17.4" cy="17.4" r="16.1"/><path class="st1" d="M20.66587 13.88637l3.54855-2.05369.60108 1.0386-3.54855 2.05369zM20.51251 23.05691l.77148-.9192 3.1406 2.63589-.77148.9192zM10.33274 12.87172l.60096-1.0386 3.54855 2.05328-.60096 1.0386zM10.7036 24.82122l3.14019-2.63589.77148.91908-3.14019 2.63589zM9 18h3.1v1.2H9zM22.8 18h3.1v1.2h-3.1zM17.6 9.1c-1.5 0-2.8 1-3.1 2.5h6.3c-.4-1.4-1.7-2.5-3.2-2.5z"/><path class="st1" d="M17.1 11.3c-.4 0-.8.1-1.1.2h1.1v-.2zM11.9 18.5c0 3.9 2.3 7 5.2 7.2V12.6h-2.8c-1.4 1.3-2.4 3.5-2.4 5.9zM18.1 11.3v.2h1.1c-.3 0-.7-.1-1.1-.2zM20.9 12.6h-2.8v13.1c2.9-.2 5.2-3.3 5.2-7.2-.1-2.4-1-4.6-2.4-5.9z"/></svg>