<svg xmlns="http://www.w3.org/2000/svg" viewBox="0 0 34.9 34.9"><style>.e{fill:#fff}.a{fill:#4046dd}</style><circle cx="17.4" cy="17.4" r="16.1" class="a"/><path d="M20.666 13.886l3.548-2.053.602 1.038-3.55 2.056zm-.153 9.17l.77-.918 3.142 2.636-.772.92zm-10.18-10.184l.6-1.04 3.55 2.054-.602 1.04zm.37 11.95l3.14-2.637.772.92-3.14 2.635zM9 18h3.1v1.2H9zm13.8 0h3.1v1.2h-3.1zm-5.2-8.9c-1.5 0-2.8 1-3.1 2.5h6.3c-.4-1.4-1.7-2.5-3.2-2.5z" class="e"/><path d="M17.1 11.3c-.4 0-.8.1-1.1.2h1.1v-.2zm-5.2 7.2c0 3.9 2.3 7 5.2 7.2V12.6h-2.8c-1.4 1.3-2.4 3.5-2.4 5.9zm6.2-7.2v.2h1.1c-.3 0-.7-.1-1.1-.2zm2.8 1.3h-2.8v13.1c2.9-.2 5.2-3.3 5.2-7.2-.1-2.4-1-4.6-2.4-5.9z" class="e"/></svg>