<svg xmlns="http://www.w3.org/2000/svg" viewBox="0 0 67 47.7"><path d="M15.1 22c.9.2 1.7.5 2.4.9l-.9 1.7c-.5-.4-1.1-.6-1.8-.8-.7-.2-1.3-.2-1.9 0-.8.2-1.5.5-2.1 1-.6.5-1 1.1-1.2 1.9-.2.7-.3 1.5-.1 2.3.2.8.5 1.5 1 2s1.1 1 1.9 1.2c.7.2 1.5.3 2.3.1.6-.1 1.2-.4 1.7-.8s1-.8 1.4-1.4l1.5 1.1c-.5.7-1.1 1.4-1.9 1.9-.7.5-1.5.9-2.4 1.1-1.2.2-2.3.2-3.3-.1-1.1-.3-2-.9-2.7-1.7-.7-.8-1.2-1.8-1.5-2.9-.2-1.1-.2-2.2.2-3.2s1-1.9 1.8-2.7c.9-.7 1.9-1.2 3-1.5.8-.2 1.7-.2 2.6-.1zm13.6 7.4l.4 1.8-7.3 1.5-2.6-12.1 2-.4 2.2 10.2 5.3-1zm2.5 1.3l-2.6-12.1 2-.4 2.6 12.1-2 .4zM42 16.3c.9.2 1.7.5 2.4.9l-.9 1.8c-.5-.4-1.1-.6-1.8-.8-.7-.2-1.3-.2-1.9 0-.8.2-1.5.5-2.1 1-.6.5-1 1.1-1.2 1.9-.2.7-.3 1.5-.1 2.3.2.8.5 1.5 1 2 .5.6 1.1 1 1.9 1.2.7.2 1.5.3 2.3.1.6-.1 1.2-.4 1.7-.8s1-.8 1.4-1.4l1.5 1.1c-.5.7-1.1 1.4-1.9 1.9-.7.5-1.5.9-2.4 1.1-1.2.2-2.3.2-3.3-.1-1.1-.3-2-.9-2.7-1.7-.7-.8-1.2-1.8-1.5-2.9-.2-1.1-.2-2.2.2-3.2s1-1.9 1.8-2.7 1.9-1.2 3-1.5c.8-.3 1.7-.3 2.6-.2zm9.7 4.5l-1.6 2.7.7 3.1-2 .4-2.6-12 2-.4 1.3 6.2 4.4-7.5 2.4-.5-3.6 6.1 6.4 5.8-2.4.5-5-4.4z"/></svg>