<svg xmlns="http://www.w3.org/2000/svg" viewBox="0 0 100 100">
  <path fill="#FFF" d="M50 100C22.4 100 0 77.6 0 50S22.4 0 50 0s50 22.4 50 50-22.4 50-50 50zm45.8-50C95.8 24.7 75.3 4.2 50 4.2S4.2 24.7 4.2 50 24.8 95.8 50 95.8c25.3 0 45.8-20.5 45.8-45.8z"/>
  <path fill="#4046DD" d="M50 4.2c25.3 0 45.8 20.6 45.8 45.8 0 25.3-20.6 45.8-45.8 45.8C24.7 95.8 4.2 75.3 4.2 50S24.7 4.2 50 4.2z"/>
  <g fill="#FFF">
    <path d="M72.9 68.9V65H31v3.9h-7.5v4h56.8v-4M40.7 52.3l9.5-9.6-13.5-13.5-9.6 9.5 4.9 4.9.7.8-20.5 20.5 2.9 2.8 20.4-20.5M21.48732 36.79458l13.64896-13.6451 2.828 2.8288-13.64896 13.6451zM39.68669 54.99523L53.33372 41.3482l2.8284 2.8284-13.64703 13.64703z"/>
  </g>
</svg>
