<svg xmlns="http://www.w3.org/2000/svg" viewBox="0 0 34.9 34.9"><style>.e{fill:#fff}.a{fill:#4046dd}</style><circle cx="17.4" cy="17.4" r="16.1" class="a"/><path d="M20.67 13.9l3.54-2.07.65 1.04-3.55 2.06zm-.16 9.16l.8-.92 3.16 2.63-.78.92zm-10.14-10.2l.6-1.03 3.55 2.06-.6 1zm.37 11.96l3.15-2.64.78.92-3.14 2.64zM9 18h3.1v1.2H9zm13.8 0h3.1v1.2h-3.1zm-5.2-8.9c-1.5 0-2.8 1-3.1 2.5h6.3c-.4-1.4-1.7-2.5-3.2-2.5z" class="e"/><path d="M17.1 11.3c-.4 0-.8.1-1.1.2h1.1v-.2zm-5.2 7.2c0 3.9 2.3 7 5.2 7.2V12.6h-2.8c-1.4 1.3-2.4 3.5-2.4 5.9zm6.2-7.2v.2h1.1c-.3 0-.7-.1-1.1-.2zm2.8 1.3h-2.8v13.1c2.9-.2 5.2-3.3 5.2-7.2-.1-2.4-1-4.6-2.4-5.9z" class="e"/></svg>