<?xml version="1.0" encoding="utf-8"?>
<!-- Generator: Adobe Illustrator 22.1.0, SVG Export Plug-In . SVG Version: 6.00 Build 0)  -->
<svg version="1.1" id="Layer_1" xmlns="http://www.w3.org/2000/svg" xmlns:xlink="http://www.w3.org/1999/xlink" x="0px" y="0px"
	 viewBox="0 0 360.3 71.8" style="enable-background:new 0 0 360.3 71.8;" xml:space="preserve">
<style type="text/css">
	.st0{fill:#0071CE;}
	.st1{fill:#DC8327;}
	.st2{fill:#F4B21B;}
	.st3{fill:#F2D864;}
	.st4{fill:#0E2F5A;}
</style>
<path class="st0" d="M92.8,61.5c-1.2,0-2.4-0.8-2.8-2c-0.5-1.5,0.3-3.2,1.9-3.7c5.6-1.8,9.2-6.8,9.2-12.5c0-7.3-6-13.3-13.3-13.3
	c-0.5,0-1.1,0-1.7,0.1l-2.9,0.4l-0.4-2.9C81,15.2,70.3,5.9,57.8,5.9c-10.3,0-19.5,6.2-23.4,15.8l-0.7,1.8l-1.9,0
	c-8.9,0.2-16.2,7.6-16.2,16.5c0,6.5,3.8,12.5,9.6,15.1c1.5,0.7,2.1,2.4,1.5,3.9c-0.7,1.5-2.4,2.1-3.9,1.5C14.7,56.9,9.5,48.8,9.5,40
	c0-11.5,8.8-21.1,20.1-22.3C34.8,6.9,45.7,0,57.8,0c14.5,0,27.1,10.2,30.4,24.1c10.4,0.2,18.9,8.7,18.9,19.2
	c0,8.3-5.3,15.5-13.3,18.1C93.4,61.5,93.1,61.5,92.8,61.5z"/>
<path class="st1" d="M47.7,62.9C47.7,62.9,47.7,62.9,47.7,62.9C47.7,62.9,47.7,62.9,47.7,62.9L47.7,62.9L47.7,62.9L47.7,62.9
	C47.7,62.9,47.7,62.9,47.7,62.9L47.7,62.9L47.7,62.9L47.7,62.9L47.7,62.9L47.7,62.9L47.7,62.9C47.7,62.9,47.7,62.9,47.7,62.9
	C47.7,62.9,47.7,62.9,47.7,62.9L47.7,62.9L47.7,62.9C47.7,62.9,47.7,62.9,47.7,62.9L47.7,62.9C47.7,62.9,47.7,62.9,47.7,62.9
	C47.7,62.9,47.7,62.9,47.7,62.9L47.7,62.9C47.7,62.9,47.7,62.9,47.7,62.9C47.7,62.9,47.7,62.9,47.7,62.9
	C47.7,62.9,47.7,62.9,47.7,62.9C47.6,62.9,47.6,62.9,47.7,62.9C47.6,62.9,47.6,62.9,47.7,62.9L47.7,62.9L47.7,62.9
	C47.6,62.9,47.6,62.9,47.7,62.9C47.6,62.9,47.6,62.9,47.7,62.9L47.7,62.9L47.7,62.9L47.7,62.9c-0.1,0-0.1,0-0.2,0h0h0h0l0,0h0l0,0h0
	h0h0l0,0c0,0,0,0,0,0l0,0c0,0,0,0,0,0h0l0,0c0,0,0,0,0,0l0,0l0,0h0h0c0,0,0,0,0,0l0,0l0,0c-1.3,0-2.3-1-2.3-2.3v-26h2c0,0,0,0,0,0
	c0.3,0,0.5-0.2,0.5-0.5c0-0.2-0.1-0.4-0.3-0.5L37.8,27c-0.2-0.1-0.4-0.1-0.6,0l-9.6,6.6c-0.2,0.1-0.3,0.4-0.2,0.6
	c0.1,0.2,0.3,0.4,0.5,0.4h2l0,26c0,1.8,1.5,3.3,3.3,3.3c0,0,0,0,0.1,0h14.3c0,0,0,0,0,0c0.1,0,0.3-0.1,0.3-0.1l0,0c0,0,0,0,0,0
	c0,0,0,0,0,0l0,0l0,0l0,0l0,0l0,0l0,0c0,0,0,0,0,0l0,0l0,0l0,0c0.1-0.1,0.1-0.2,0.1-0.3v0l0,0c0,0,0,0,0,0l0,0l0,0v0l0,0v0
	C48,63.2,47.8,63,47.7,62.9z"/>
<path class="st2" d="M68.3,62.9C68.3,62.9,68.3,62.9,68.3,62.9C68.3,62.9,68.3,62.9,68.3,62.9L68.3,62.9L68.3,62.9L68.3,62.9
	C68.3,62.9,68.3,62.9,68.3,62.9L68.3,62.9L68.3,62.9C68.3,62.9,68.3,62.9,68.3,62.9L68.3,62.9L68.3,62.9L68.3,62.9
	C68.3,62.9,68.3,62.9,68.3,62.9L68.3,62.9L68.3,62.9L68.3,62.9L68.3,62.9L68.3,62.9C68.3,62.9,68.3,62.9,68.3,62.9
	C68.3,62.9,68.3,62.9,68.3,62.9L68.3,62.9L68.3,62.9L68.3,62.9C68.3,62.9,68.3,62.9,68.3,62.9C68.3,62.9,68.3,62.9,68.3,62.9
	C68.3,62.9,68.3,62.9,68.3,62.9L68.3,62.9L68.3,62.9C68.3,62.9,68.3,62.9,68.3,62.9C68.3,62.9,68.3,62.9,68.3,62.9
	C68.3,62.9,68.3,62.9,68.3,62.9L68.3,62.9L68.3,62.9c-0.1,0-0.1,0-0.2,0h0h0h0l0,0h0l0,0h0h0h0l0,0c0,0,0,0,0,0l0,0c0,0,0,0,0,0h0
	l0,0h0l0,0c0,0,0,0,0,0l0,0h0l0,0h0c0,0,0,0,0,0c-1.3,0-2.3-1-2.3-2.3V40.4h2c0,0,0,0,0,0c0.3,0,0.5-0.2,0.5-0.5
	c0-0.2-0.1-0.4-0.3-0.5l-9.6-6.6c-0.2-0.1-0.4-0.1-0.6,0l-9.6,6.6C48.1,39.6,48,39.8,48,40s0.3,0.4,0.5,0.4h2l0,20.2
	c0,1.8,1.5,3.3,3.3,3.3c0,0,0,0,0.1,0h14.3c0,0,0,0,0,0c0.1,0,0.3-0.1,0.3-0.1l0,0c0,0,0,0,0,0c0,0,0,0,0,0c0,0,0,0,0,0l0,0l0,0l0,0
	l0,0l0,0c0,0,0,0,0,0l0,0l0,0l0,0c0.1-0.1,0.1-0.2,0.1-0.3v0l0,0c0,0,0,0,0,0l0,0l0,0v0l0,0v0C68.6,63.2,68.5,63,68.3,62.9z"/>
<path class="st3" d="M89,62.9C89,62.9,89,62.9,89,62.9C89,62.9,89,62.9,89,62.9L89,62.9C89,62.9,89,62.9,89,62.9L89,62.9
	C89,62.9,89,62.9,89,62.9L89,62.9C89,62.9,89,62.9,89,62.9L89,62.9L89,62.9L89,62.9L89,62.9C89,62.9,89,62.9,89,62.9
	C89,62.9,89,62.9,89,62.9L89,62.9L89,62.9L89,62.9L89,62.9C89,62.9,89,62.9,89,62.9C89,62.9,89,62.9,89,62.9L89,62.9L89,62.9
	L89,62.9C89,62.9,89,62.9,89,62.9C89,62.9,89,62.9,89,62.9L89,62.9C89,62.9,89,62.9,89,62.9L89,62.9C89,62.9,89,62.9,89,62.9
	C89,62.9,89,62.9,89,62.9L89,62.9L89,62.9L89,62.9c-0.1,0-0.1,0-0.2,0h0h0h0l0,0h0l0,0h0h0h0l0,0l0,0h0c0,0,0,0,0,0h0l0,0h0l0,0
	c0,0,0,0,0,0l0,0h0l0,0h0c0,0,0,0,0,0c-1.3,0-2.3-1-2.3-2.3V46.2h2c0,0,0,0,0,0c0.3,0,0.5-0.2,0.5-0.5c0-0.2-0.1-0.4-0.3-0.5
	l-9.6-6.6c-0.2-0.1-0.4-0.1-0.6,0l-9.6,6.6c-0.2,0.1-0.3,0.4-0.2,0.6s0.3,0.4,0.5,0.4h2l0,14.3c0,1.8,1.5,3.3,3.3,3.3c0,0,0,0,0.1,0
	h14.3c0,0,0,0,0,0c0.1,0,0.3-0.1,0.3-0.1l0,0c0,0,0,0,0,0c0,0,0,0,0,0c0,0,0,0,0,0l0,0l0,0l0,0l0,0l0,0c0,0,0,0,0,0l0,0l0,0l0,0
	c0.1-0.1,0.1-0.2,0.1-0.3v0l0,0c0,0,0,0,0,0l0,0l0,0v0l0,0v0C89.3,63.2,89.2,63,89,62.9z"/>
<path class="st4" d="M181.7,40.9c-1-1.1-2.3-2-3.9-2.6c-1.6-0.6-3.4-1-5.4-1c-2,0-3.8,0.3-5.4,1c-1.5,0.6-2.8,1.5-3.9,2.6
	c-1.1,1.2-1.8,2.5-2.4,4c-0.5,1.5-0.8,3.2-0.8,5c0,1.4,0.1,2.7,0.4,3.9c0.3,1.2,0.7,2.4,1.3,3.5c0.6,1,1.4,2,2.3,2.7
	c0.9,0.8,2.1,1.4,3.5,1.8c1.4,0.4,3,0.7,4.8,0.7c1.8,0,3.5-0.2,4.8-0.7c1.4-0.4,2.5-1,3.5-1.8c0.9-0.8,1.7-1.7,2.3-2.7
	c0.6-1.1,1-2.2,1.3-3.5c0.3-1.2,0.4-2.5,0.4-3.9c0-1.8-0.3-3.5-0.8-5C183.5,43.4,182.7,42.1,181.7,40.9z M178.5,53
	c-0.2,1-0.6,1.9-1.1,2.7c-0.5,0.8-1.2,1.4-2,1.9c-0.8,0.5-1.8,0.7-2.9,0.7c-1.1,0-2.1-0.2-2.9-0.7c-0.8-0.5-1.5-1.1-2-1.9
	c-0.5-0.8-0.9-1.7-1.1-2.7c-0.2-1-0.4-2-0.4-3.2c0-1.2,0.1-2.3,0.4-3.3c0.2-1,0.6-1.9,1.2-2.7c0.5-0.8,1.2-1.4,2-1.8
	c0.8-0.4,1.8-0.6,2.9-0.7h0c1.1,0,2.1,0.2,2.9,0.7c0.8,0.4,1.5,1,2,1.8c0.5,0.8,0.9,1.7,1.2,2.7c0.2,1,0.4,2.1,0.4,3.3
	C178.8,51,178.7,52.1,178.5,53z M200.3,62c1-0.4,1.9-0.9,2.6-1.5c0.8-0.6,1.5-1.4,2.1-2.2l0.1-0.2h0.7l0.1,0.5v0.9
	c0,0.6,0.1,1.2,0.3,1.7c0.2,0.4,0.5,0.7,0.8,1c0.4,0.2,0.9,0.4,1.5,0.4c0.6,0,1.1-0.1,1.5-0.4c0.4-0.2,0.7-0.6,0.8-1
	c0.2-0.5,0.3-1,0.3-1.6V40.3c0-0.6-0.1-1.1-0.3-1.6c-0.2-0.4-0.4-0.8-0.9-1c-0.4-0.3-1.1-0.4-1.9-0.4c-0.8,0-1.4,0.1-1.8,0.4
	c-0.4,0.3-0.7,0.6-0.9,1c-0.2,0.5-0.3,1-0.3,1.6v11.5c0,1-0.2,1.8-0.5,2.5c-0.3,0.7-0.8,1.4-1.4,1.9c-0.6,0.5-1.2,0.9-1.9,1.2
	c-0.7,0.3-1.4,0.4-2,0.4c-1.1,0-2-0.2-2.7-0.7c-0.7-0.5-1.3-1.1-1.6-1.9c-0.3-0.8-0.5-1.7-0.5-2.7V40.3c0-0.6-0.1-1.1-0.3-1.6
	c-0.2-0.4-0.5-0.8-0.9-1c-0.4-0.3-1.1-0.4-1.9-0.4c-0.8,0-1.4,0.1-1.9,0.4c-0.4,0.3-0.7,0.6-0.9,1c-0.2,0.5-0.3,1-0.3,1.5v13.6
	c0,1.7,0.3,3.1,0.7,4.2c0.5,1.1,1.1,2,1.9,2.6c0.8,0.7,1.7,1.1,2.7,1.4c1,0.3,1.9,0.4,2.9,0.4h0.1C198.2,62.5,199.3,62.3,200.3,62z
	 M154.4,28.2c-0.5-0.2-1-0.3-1.6-0.3c-0.6,0-1.2,0.1-1.6,0.3c-0.4,0.2-0.8,0.5-1,1c-0.2,0.4-0.4,1-0.4,1.7v28.6
	c0,0.7,0.1,1.3,0.4,1.7c0.2,0.4,0.6,0.7,1,1c0.5,0.2,1,0.3,1.6,0.3c0.6,0,1.2-0.1,1.6-0.3c0.4-0.2,0.8-0.5,1-1
	c0.2-0.4,0.4-1,0.4-1.7V30.9c0-0.7-0.1-1.3-0.4-1.7C155.2,28.8,154.9,28.4,154.4,28.2z M350.3,39.2c-0.1-0.3-0.3-0.6-0.5-0.9
	c-0.2-0.3-0.5-0.5-0.9-0.7c-0.4-0.2-0.9-0.3-1.5-0.3c-0.5,0-1,0.1-1.3,0.3c-0.4,0.2-0.7,0.5-0.9,0.9c-0.3,0.4-0.5,0.9-0.6,1.5
	l-4.3,16.2h-0.7l-0.2-0.4l-4.5-16.3c-0.2-0.7-0.5-1.2-1.1-1.6c-0.5-0.4-1.2-0.6-2-0.6c-0.5,0-1,0.1-1.5,0.4c-0.4,0.3-0.8,0.6-1,1
	c-0.3,0.4-0.4,0.9-0.4,1.5c0,0.2,0,0.5,0.1,0.7c0.1,0.3,0.2,0.6,0.3,1c0.1,0.4,0.3,0.9,0.5,1.4l7.3,20.8l0,0.1
	c-0.2,0.8-0.4,1.3-0.8,1.7c-0.3,0.4-0.7,0.6-1.1,0.7c-0.3,0.1-0.6,0.1-0.9,0.1l-0.2,0h-0.7c-0.6,0-1,0.1-1.5,0.3
	c-0.4,0.2-0.7,0.4-0.9,0.8c-0.2,0.3-0.3,0.8-0.3,1.3c0,0.5,0.1,0.9,0.4,1.3c0.3,0.4,0.7,0.7,1.2,1c0.6,0.3,1.4,0.4,2.3,0.4
	c1,0,1.9-0.1,2.7-0.4c0.8-0.3,1.4-0.7,2-1.3c0.6-0.6,1.1-1.3,1.6-2.2c0.5-0.9,0.9-1.9,1.3-3.1l8.1-22.9c0.2-0.4,0.3-0.8,0.4-1.2
	c0.1-0.3,0.1-0.6,0.1-0.8C350.4,39.8,350.4,39.6,350.3,39.2z M305.5,58.8c-0.1-0.3-0.2-0.8-0.3-1.3c-0.1-0.5-0.1-1.1-0.1-1.9V44
	c0-1.2-0.3-2.2-0.8-3c-0.5-0.8-1.2-1.5-2.2-2.1c-0.9-0.6-2.1-1-3.4-1.2c-1.3-0.3-2.8-0.4-4.5-0.4c-0.2,0-0.4,0-0.7,0l-0.2,0
	c-0.7,0-1.3,0.1-1.8,0.2l-0.3,0c-0.7,0.1-1.2,0.2-1.7,0.4c-1.3,0.4-2.4,0.9-3.3,1.4c-0.9,0.6-1.6,1.2-2,1.9
	c-0.4,0.7-0.6,1.3-0.6,1.9c0,0.4,0.1,0.8,0.3,1.1c0.2,0.3,0.5,0.6,0.9,0.8c0.4,0.2,0.8,0.3,1.3,0.3c0.4,0,0.8-0.1,1.1-0.3
	c0.3-0.2,0.7-0.5,1.1-0.9c0.4-0.4,0.8-0.8,1.3-1.2c0.5-0.4,1.1-0.7,1.9-1c0.3-0.1,0.7-0.2,1.1-0.3c0.1,0,0.2,0,0.3,0l0.1,0
	c0.4,0,0.7-0.1,1.2-0.1c0.8,0,1.6,0.1,2.3,0.3c0.7,0.2,1.4,0.6,1.8,1.1c0.5,0.5,0.7,1.2,0.8,2c0,0.8-0.2,1.4-0.5,1.8
	c-0.3,0.4-0.8,0.7-1.3,0.9c-0.5,0.2-1,0.3-1.6,0.3l-4.2,0.5c-1.3,0.1-2.5,0.4-3.7,0.7c-1.1,0.3-2.1,0.8-3,1.3
	c-0.8,0.6-1.5,1.3-1.9,2.2c-0.5,0.9-0.7,2-0.7,3.4c0,1,0.2,1.9,0.6,2.7s0.9,1.5,1.6,2.1c0.7,0.6,1.5,1,2.4,1.3
	c0.9,0.3,1.8,0.5,2.7,0.5h0.1c1.1,0,2.2-0.1,3.3-0.4c0.2,0,0.4-0.1,0.6-0.2c0.1,0,0.3-0.1,0.4-0.2l0.4-0.1c0.1,0,0.2-0.1,0.3-0.1
	c0.5-0.2,1-0.4,1.4-0.7c1-0.6,1.9-1.3,2.8-2.3l0.8-0.9l0,1.2c0,0.6,0.2,1.3,0.4,1.8c0.2,0.5,0.6,0.9,1.1,1.3
	c0.5,0.3,1.2,0.5,2.1,0.5c0.5,0,0.9-0.1,1.3-0.3c0.4-0.2,0.7-0.4,1-0.8c0.2-0.3,0.3-0.7,0.4-1.1c0-0.2,0-0.4-0.1-0.7L305.5,58.8z
	 M299.1,53.4c0,0.7-0.2,1.4-0.5,2.1c-0.3,0.7-0.8,1.2-1.3,1.8c-0.6,0.5-1.3,0.9-2.1,1.2c-0.3,0.1-0.7,0.2-1.2,0.3l-0.2,0
	c-0.5,0.1-0.9,0.1-1.4,0.1c-0.9,0-1.6-0.2-2.3-0.4c-0.7-0.3-1.2-0.7-1.5-1.2c-0.4-0.5-0.6-1.1-0.6-1.7c0-0.8,0.2-1.5,0.6-2
	c0.4-0.5,1-1,1.7-1.3c0.7-0.3,1.6-0.5,2.6-0.6l2.5-0.4c0.3,0,0.6-0.1,0.9-0.2c0.3-0.1,0.7-0.2,1-0.3c0.3-0.1,0.6-0.3,0.8-0.5
	l0.8-0.7L299.1,53.4L299.1,53.4z M129,33.8c1.1-0.5,2.4-0.8,3.7-0.8c1.3,0,2.3,0.2,3.1,0.5c0.8,0.3,1.5,0.7,2.1,1.2
	c0.5,0.5,1,1,1.4,1.6c0.4,0.5,0.7,1,1.1,1.5c0.3,0.4,0.7,0.8,1.1,1c0.4,0.3,1,0.4,1.6,0.4c1,0,1.8-0.3,2.3-0.8
	c0.5-0.5,0.8-1.3,0.8-2.2c0-0.6-0.2-1.3-0.5-2c-0.4-0.7-0.9-1.5-1.6-2.3c-0.7-0.8-1.6-1.5-2.7-2.1c-1.1-0.6-2.3-1.1-3.8-1.5
	c-1.4-0.4-3-0.6-4.8-0.6c-2.1,0-4.1,0.3-5.8,0.9c-1.7,0.6-3.2,1.4-4.6,2.5c-1.3,1.1-2.4,2.4-3.3,3.8c-0.9,1.5-1.6,3.1-2,4.8
	c-0.4,1.7-0.7,3.6-0.7,5.5c0,3.9,0.7,7.1,2,9.7c1.3,2.6,3.2,4.5,5.6,5.8c2.5,1.3,5.5,2,9,2c1.9,0,3.6-0.3,5.2-0.8
	c1.6-0.5,3-1.3,4.2-2.2c1.2-0.9,2.1-1.9,2.8-3c0.6-1.1,1-2.2,1-3.4c0-0.5-0.2-1-0.5-1.3c-0.3-0.4-0.7-0.7-1.2-0.9
	c-0.5-0.2-1.1-0.3-1.7-0.3c-0.5,0-0.9,0.1-1.3,0.4c-0.4,0.3-0.8,0.6-1.1,1.1c-0.4,0.5-0.8,1-1.1,1.6c-0.4,0.6-0.9,1.1-1.4,1.6
	c-0.5,0.5-1.2,1-2,1.3c-0.8,0.3-1.7,0.5-2.8,0.5c-1.8,0-3.3-0.3-4.5-1c-1.2-0.7-2.3-1.6-3-2.7c-0.8-1.1-1.3-2.4-1.7-3.9
	c-0.3-1.4-0.5-3-0.5-4.6c0-1.9,0.3-3.6,0.7-5.1c0.5-1.5,1.2-2.8,2-3.8C126.9,35.2,127.9,34.4,129,33.8z M238.9,30.9
	c0-0.7-0.1-1.2-0.4-1.7c-0.2-0.4-0.6-0.7-1-1c-0.9-0.4-2.3-0.5-3.2,0c-0.4,0.2-0.8,0.5-1,1c-0.2,0.4-0.4,1-0.4,1.7v9.9h-0.8
	l-0.2-0.2c-0.6-1-1.5-1.9-2.6-2.4c-0.3-0.1-0.6-0.3-0.9-0.4c-0.1,0-0.1,0-0.2-0.1l-0.1,0c-0.2-0.1-0.5-0.1-0.7-0.2l-0.1,0
	c-0.1,0-0.2,0-0.3,0l-0.5-0.1c-0.3,0-0.6-0.1-1-0.1c-1.4,0-2.7,0.2-3.8,0.7c-1.1,0.4-2,1-2.9,1.8c-0.8,0.8-1.5,1.7-2,2.7
	c-0.5,1.1-1,2.2-1.2,3.4c-0.3,1.2-0.4,2.5-0.4,3.8c0,2.2,0.3,4.1,0.9,5.7c0.6,1.6,1.3,2.9,2.3,4c1,1,2.1,1.8,3.3,2.3
	c1.2,0.5,2.6,0.8,4,0.8c0.5,0,1,0,1.5-0.1c0.5-0.1,1-0.2,1.5-0.3c0.9-0.3,1.7-0.8,2.4-1.4c0.7-0.6,1.2-1.3,1.5-2.3l0.1-0.3h0.8
	l0.1,0.5v1.1c0,0.9,0.2,1.7,0.7,2.1c0.4,0.5,1.1,0.7,2,0.7c0.9,0,1.6-0.2,2-0.7c0.4-0.5,0.6-1.2,0.6-2.1L238.9,30.9L238.9,30.9z
	 M232.9,52.9c-0.2,1-0.6,1.8-1,2.6c-0.5,0.8-1.1,1.4-1.9,1.8c-0.2,0.1-0.4,0.2-0.6,0.3c-0.1,0-0.1,0-0.2,0.1l-0.1,0
	c-0.1,0-0.2,0.1-0.3,0.1c-0.1,0-0.2,0-0.2,0l-0.1,0c-0.2,0-0.3,0.1-0.4,0.1c-0.1,0-0.2,0-0.3,0l-0.2,0c-0.1,0-0.2,0-0.3,0
	c-1,0-1.9-0.3-2.7-0.7c-0.8-0.4-1.4-1-1.9-1.8c-0.5-0.7-0.9-1.6-1.1-2.5c-0.2-0.9-0.4-1.9-0.4-3c0-0.7,0.1-1.4,0.2-2.1
	c0.1-0.7,0.3-1.5,0.5-2.2c0.3-0.7,0.6-1.4,1.1-2c0.5-0.6,1.1-1.1,1.8-1.4c0.7-0.4,1.5-0.5,2.5-0.5h0c0.1,0,0.3,0,0.4,0l0.2,0
	c0.1,0,0.2,0,0.2,0c0.1,0,0.3,0,0.4,0.1l0.2,0c0.1,0,0.1,0,0.2,0c0.1,0,0.3,0.1,0.4,0.1l0.1,0c0.1,0,0.1,0,0.2,0.1
	c0.2,0.1,0.4,0.2,0.6,0.3c0.8,0.5,1.4,1.2,1.9,2c0.4,0.8,0.8,1.7,1,2.6c0.2,1,0.3,1.9,0.3,2.8C233.2,51,233.1,52,232.9,52.9z
	 M325.4,42c0.3-0.4,0.4-1,0.4-1.8c0-0.6-0.1-1-0.4-1.5c-0.3-0.4-0.7-0.8-1.2-1c-0.5-0.3-1.1-0.4-1.8-0.4c-0.7,0-1.4,0.2-2,0.5
	c-0.6,0.3-1.1,0.7-1.5,1.2c-0.4,0.5-0.8,1.1-1.1,1.8c-0.3,0.7-0.5,1.4-0.7,2.1l-0.1,0.4h-0.9l-0.1-0.5V40c0-0.6-0.1-1.1-0.4-1.5
	c-0.2-0.4-0.5-0.7-0.9-0.9c-0.4-0.2-0.9-0.3-1.4-0.3s-1,0.1-1.4,0.3c-0.4,0.2-0.7,0.5-0.9,0.9c-0.2,0.4-0.3,0.9-0.4,1.5v19.5
	c0,0.6,0.1,1.1,0.3,1.6c0.2,0.4,0.5,0.8,0.9,1c0.4,0.3,1,0.4,1.8,0.4c0.8,0,1.4-0.1,1.9-0.4c0.4-0.3,0.7-0.6,0.9-1
	c0.2-0.5,0.3-1,0.3-1.5v-8.1c0-2,0.2-3.5,0.5-4.7c0.4-1.2,0.9-2.1,1.6-2.7c0.7-0.5,1.6-0.8,2.6-0.8l1.3,0c0.5,0,1-0.1,1.5-0.3
	C324.8,42.7,325.1,42.4,325.4,42z M275.4,39.1c-0.8-0.7-1.7-1.1-2.7-1.4c-1-0.3-1.9-0.4-2.9-0.4c-1.4,0-2.5,0.2-3.4,0.5
	c-1,0.4-1.9,0.9-2.6,1.5c-0.8,0.6-1.5,1.4-2.1,2.2l-0.1,0.2h-0.7l-0.1-0.5v-0.9c0-0.6-0.1-1.2-0.3-1.7c-0.2-0.4-0.5-0.7-0.8-1
	c-0.4-0.2-0.9-0.4-1.5-0.4s-1.1,0.1-1.5,0.4c-0.4,0.2-0.7,0.6-0.8,1c-0.2,0.5-0.3,1-0.3,1.6v19.2c0,0.6,0.1,1.1,0.3,1.6
	c0.2,0.4,0.5,0.8,0.9,1c0.4,0.3,1.1,0.4,1.9,0.4c0.8,0,1.4-0.1,1.9-0.4c0.4-0.3,0.7-0.6,0.9-1c0.2-0.5,0.3-1,0.3-1.5V48
	c0-1,0.2-1.8,0.5-2.5c0.3-0.7,0.8-1.4,1.4-1.9c0.6-0.5,1.2-0.9,1.9-1.2c0.7-0.3,1.3-0.4,2-0.4c1.1,0,2,0.2,2.7,0.7
	c0.7,0.5,1.3,1.1,1.6,1.9c0.3,0.8,0.5,1.7,0.5,2.7v12.2c0,0.6,0.1,1.1,0.3,1.6c0.2,0.4,0.5,0.8,0.9,1c0.4,0.3,1.1,0.4,1.8,0.4
	c0.8,0,1.4-0.1,1.9-0.4c0.4-0.3,0.7-0.6,0.9-1c0.2-0.5,0.3-1,0.3-1.6V46c0-1.7-0.3-3.1-0.7-4.2C276.8,40.6,276.2,39.7,275.4,39.1z
	 M249,37.7c-0.4-0.3-1.1-0.4-1.9-0.4c-0.8,0-1.4,0.2-1.8,0.4c-0.4,0.3-0.7,0.6-0.9,1c-0.2,0.5-0.3,1-0.3,1.5v19.2
	c0,0.6,0.1,1.1,0.3,1.6c0.2,0.4,0.5,0.8,0.9,1c0.4,0.3,1,0.4,1.8,0.4c0.8,0,1.4-0.1,1.9-0.4c0.4-0.3,0.7-0.6,0.9-1
	c0.2-0.5,0.3-1,0.3-1.5V40.3c0-0.6-0.1-1.1-0.3-1.6C249.7,38.3,249.4,38,249,37.7z M248.6,28.3c-0.5-0.3-1-0.4-1.5-0.4
	c-0.6,0-1.1,0.1-1.5,0.4c-0.5,0.3-0.8,0.6-1.1,1.1c-0.3,0.5-0.4,1-0.4,1.5c0,0.6,0.1,1.1,0.4,1.5c0.3,0.5,0.6,0.8,1.1,1.1
	c0.5,0.3,1,0.4,1.5,0.4c0.6,0,1.1-0.1,1.5-0.4c0.5-0.3,0.8-0.6,1.1-1.1c0.3-0.5,0.4-1,0.4-1.5c0-0.6-0.1-1.1-0.4-1.5
	C249.5,28.9,249.1,28.6,248.6,28.3z"/>
</svg>
