<svg xmlns="http://www.w3.org/2000/svg" viewBox="0 0 578 384"><defs><style>.a,.c,.u{fill:none}.d{fill:#96a3e2}.c{stroke:#1c418c}.c,.r{stroke-linecap:round;stroke-linejoin:round}.c{stroke-width:3.77px}.f{fill:#6b7fc6}.g{fill:#060b1c}.h{fill:#fff}.i{fill:#2b5599}.j{fill:#1c418c}.l{fill:#4700a3}.m{fill:#c0c3d8}.v{stroke:#4b8087}.y{fill:#d43e2b}.x{stroke-width:3.8}.w{stroke-miterlimit:10}</style><clipPath id="s"><path d="M54.5 325.9c-15.5-66 13.5-201.5 147.3-183 144 19.9 86.3 188.3 86.3 188.3" class="a"/></clipPath><clipPath id="t"><path d="M457.8 292.7l-12-81.2a9.2 9.2 0 0 0-8.4-7.8l-29.4-2a9.2 9.2 0 0 0-9.8 9.7l5.2 80a43.7 43.7 0 0 1-3.5 20l-5.7 13.5h57l3.8-9.3a44 44 0 0 0 2.8-23z" class="a"/></clipPath></defs><path fill="#96a3e2" stroke="#1c418c" d="M268.7 305.9s28.6 16.3 47.5-2.4c6.5-6.5 18.4-24.1-17.7-32.5" class="x"/><path d="M54.5 325.9c-15.5-66 13.5-201.5 147.3-183 144 19.9 86.3 188.3 86.3 188.3" class="d"/><g clip-path="url(#s)"><path fill="#bbc6ef" d="M88.2 340.2s46-82.3 142.6-72.7 73.5 99.4 73.5 99.4z"/><ellipse cx="86" cy="193.2" class="f" rx="36.2" ry="14.9" transform="rotate(-63.7 86 193.2)"/><path d="M89 238.4c2.8 3.6 8.8-1 13.1-6.8s5.5-11.5 2.5-14.1c-2.4-2-7.1 0-11.4 5.8S87 236 89 238.4z" class="f"/><ellipse cx="76.9" cy="240.8" class="f" rx="6.2" ry="3.2" transform="rotate(-55 76.9 240.8)"/></g><path d="M54.5 325.9c-15.5-66 13.5-201.5 147.3-183 144 19.9 86.3 188.3 86.3 188.3" class="c"/><path fill="#cae8ef" d="M237.3 158.8l17.3-129s-42.8 82.5-58.8 113.8c-8.1 15.4 16 24.6 16 24.6s21.7 7.4 25.5-9.4z" class="r v x"/><path fill="none" stroke="#82bbc4" stroke-linecap="round" stroke-linejoin="round" stroke-width="3.8" d="M237.8 150.6c-4.4-.4-25-4.6-33-23.3m38.2-10.1a41 41 0 0 1-24.3-17.7M247.6 82a41.7 41.7 0 0 1-14.5-10.2"/><path d="M237.3 158.8l17.3-129s-42.8 82.5-58.8 113.8" class="r u v x"/><circle cx="164.3" cy="215.2" r="9.4" class="g"/><circle cx="161.6" cy="212.2" r="3.2" class="h"/><path d="M169.4 216.4a2 2 0 0 0-2.8.7 3.2 3.2 0 0 1-3 1.5 2 2 0 1 0-.5 4 6 6 0 0 0 1 0 7 7 0 0 0 6-3.4 2 2 0 0 0-.7-2.8z" class="i"/><circle cx="259.3" cy="219.4" r="9.4" class="g"/><circle cx="256.6" cy="216.4" r="3.2" class="h"/><path d="M264.4 220.6a2 2 0 0 0-2.7.7 3.2 3.2 0 0 1-3 1.5 2 2 0 0 0-.6 4 8.8 8.8 0 0 0 1 0 7 7 0 0 0 6-3.4 2 2 0 0 0-.7-2.8z" class="i"/><path d="M207.3 220s.9 9 8.7 9.2 8.4-9.3 8.4-9.3" class="c"/><path d="M119.5 257.9s50.3 3.6 83 45.6c0 0-61.3 33-94.7-27.3" class="d"/><path d="M119.6 256.4a98.3 98.3 0 0 1 12.2 1.9c4 .8 8 1.8 12 3a135.4 135.4 0 0 1 22.7 9.4 143 143 0 0 1 20.6 13.6 119.3 119.3 0 0 1 17.4 17.7 2.5 2.5 0 0 1-.4 3.5 2.4 2.4 0 0 1-.4.3 74.7 74.7 0 0 1-13.3 5.2 94 94 0 0 1-13.8 3 72 72 0 0 1-28.2-1.4 63.6 63.6 0 0 1-13.3-5.2 65 65 0 0 1-11.6-8.2 83.4 83.4 0 0 1-17.2-22.2 1.7 1.7 0 0 1 3-1.7 79.6 79.6 0 0 0 16.7 21 60.6 60.6 0 0 0 11 7.5 58.5 58.5 0 0 0 12.4 4.7 67.5 67.5 0 0 0 26.5.9 88.7 88.7 0 0 0 13.1-3.1 89.5 89.5 0 0 0 12.3-5l-.8 3.8a114.2 114.2 0 0 0-16.3-17.2 115 115 0 0 0-19.6-13.6 131.7 131.7 0 0 0-22-9.6c-3.7-1.2-7.6-2.3-11.5-3.2a98 98 0 0 0-11.7-2.1 1.5 1.5 0 0 1 .2-3z" class="j"/><path d="M304.3 283.2s-13.3 2-35.6 22.7c0 0 28.6 16.3 47.5-2.4" class="d"/><path d="M304.5 284.6a20.7 20.7 0 0 0-2.3.7 36.7 36.7 0 0 0-7 3.2 82.6 82.6 0 0 0-8.8 5.6c-2.9 2-5.6 4.2-8.3 6.4l-3.9 3.5-3.8 3.6-.5-3.9a51.6 51.6 0 0 0 5.5 2.6 57 57 0 0 0 5.7 2 47.5 47.5 0 0 0 12 2 31.6 31.6 0 0 0 11.8-1.9 28.4 28.4 0 0 0 10-6.2 1.9 1.9 0 0 1 2.6 2.6 32.4 32.4 0 0 1-11.2 7.4 36 36 0 0 1-13.3 2.4 51.7 51.7 0 0 1-13.1-1.8 64.7 64.7 0 0 1-6.3-2 54.7 54.7 0 0 1-6.1-2.8 2.4 2.4 0 0 1-1-3.2 2.4 2.4 0 0 1 .5-.6l4.1-3.5 4.3-3.4c2.8-2.2 5.7-4.3 8.8-6.3a83.4 83.4 0 0 1 9.4-5.3 54.6 54.6 0 0 1 5-2.2l2.6-.9a22.7 22.7 0 0 1 2.8-.7 1.4 1.4 0 0 1 .5 2.7z" class="j"/><path fill="#5a5d68" d="M360.5 315.5v5.3a4 4 0 0 1-4.1 4H191v-13.4h165.3a4 4 0 0 1 4 4z"/><path fill="#2f3442" d="M191.1 311.4v13.5h-60a4 4 0 0 1-4-4.1v-5.3a4 4 0 0 1 4-4.1z"/><path fill="none" stroke="#394251" stroke-linecap="round" stroke-linejoin="round" stroke-width="3.8" d="M191.1 311.4h165.3a4 4 0 0 1 4 4v5.4a4 4 0 0 1-4 4H131a4 4 0 0 1-4.1-4v-5.3a4 4 0 0 1 4-4.1zm0 0v13.5"/><path fill="#dddeed" stroke="#8489bc" d="M286.8 127.3V265a20.6 20.6 0 0 0 20.3 20.6l193.1 3a20.6 20.6 0 0 0 21-20.6V149.9a20.6 20.6 0 0 0-18.2-20.5L309.8 107a20.6 20.6 0 0 0-23 20.4z" class="x w"/><ellipse cx="358.8" cy="172.7" class="h" rx="28" ry="29.3"/><path d="M358.8 147.2c-13.6 0-24.4 11.4-24.4 25.5s10.8 25.5 24.4 25.5 24.5-11.4 24.5-25.5-11-25.5-24.5-25.5zm21.5 25.5c0 12.4-9.6 22.6-21.6 22.6s-21.5-10-21.5-22.6 9.7-22.6 21.6-22.6 21.6 10.2 21.6 22.6z" class="l"/><path d="M370.7 166.8l.7-1.6 2.4-4-5.4 3.4-.4.2a1.9 1.9 0 0 0 0 2.5 1 1 0 0 0 .7.4 1.8 1.8 0 0 0 1.6-.4 1.8 1.8 0 0 0 .4-.5z" class="l"/><path d="M370 169a2.3 2.3 0 0 1-1 .2 2.8 2.8 0 0 1-2.7-2.8 2.4 2.4 0 0 1 .1-1 7 7 0 0 0-4.5-1.1c-8.4 0-9.7 4.1-9.7 9.3a6.5 6.5 0 0 1-.6 3.8 3.3 3.3 0 0 1-3.1 1.8c-.5 0-2.4-.3-2.5-1h.3a3.7 3.7 0 0 0 3.5-3.8v-1h-1.7a3.8 3.8 0 0 0-3.1 1.6 3.9 3.9 0 0 0-3.2-1.6H340v.8a4 4 0 0 0 3.8 4h.6c0 1.3 1.7 6.5 14.5 6.5 5 0 12.3-1 12.3-10.7a9.8 9.8 0 0 0-1.3-5z" class="l"/><path d="M362.1 244.7l108 5.2V280l-108-1.6v-33.7z" class="m"/><path fill="#a5a6ad" d="M457.8 292.7a43.6 43.6 0 0 1 .2 10.5l-55.4-.7a43.8 43.8 0 0 0 .7-11l-5.1-80.1a9.2 9.2 0 0 1 9.8-9.8l29.4 2a9.2 9.2 0 0 1 8.5 8z"/><path fill="#808189" d="M402.6 302.6l55.4.6a43.6 43.6 0 0 1-3 12.4l-4 9.4h-57l5.8-13.4a43.9 43.9 0 0 0 2.7-9z"/><g clip-path="url(#t)"><path fill="#cdced1" d="M458.2 205.8l-73.4 40.1 5 25.1 75-47.4-6.6-17.8zm9 24.1l-76.5 51.2 2.4 10.6 76-52.3-1.9-9.5z"/></g><path stroke="#60626d" d="M402.6 302.6a43.8 43.8 0 0 0 .7-11.1l-5.1-80.1a9.2 9.2 0 0 1 9.8-9.8l29.4 2a9.2 9.2 0 0 1 8.5 8l11.9 81a44 44 0 0 1-2.9 23l-3.7 9.3h-57l5.7-13.4a43.9 43.9 0 0 0 2.7-9z" class="u x w"/><rect width="531" height="28" x="27.1" y="324.9" stroke="#a31d13" class="y x w" rx="9.9" ry="9.9"/><path fill="#fcfcfc" d="M301.5 130.2a3.7 3.7 0 0 0-3.7 3.7v27.9a3.7 3.7 0 0 0 7.4 0v-27.9a3.7 3.7 0 0 0-3.7-3.7zm0 41.2a3.7 3.7 0 0 0-3.7 3.7v2.8a3.7 3.7 0 0 0 7.4 0v-2.8a3.7 3.7 0 0 0-3.7-3.7z"/><path d="M508.5 243.9a4 4 0 0 0-4 4V268a3.8 3.8 0 0 1-2.5 3.6 4 4 0 0 0 1.4 7.7 4.1 4.1 0 0 0 1.4-.2 11.9 11.9 0 0 0 7.7-11.1v-20.1a4 4 0 0 0-4-4z" class="m" opacity=".3"/><path fill="#4046dd" d="M478 206.3l-22 4.1a4.5 4.5 0 0 1-5.3-4l-3.1-19.8a4.9 4.9 0 0 1 3.6-5.7l22-4.1a4.5 4.5 0 0 1 5.2 4l3.2 19.8a4.9 4.9 0 0 1-3.7 5.7z"/><path d="M492.3 205.2l-27-5.6a6.8 6.8 0 0 1-5-8l4.2-24.1a6.3 6.3 0 0 1 7.3-5.4l27 5.6a6.8 6.8 0 0 1 5 8l-4.3 24.1a6.3 6.3 0 0 1-7.2 5.4z" class="h"/><path d="M491 201.4l-23.3-4.8a5 5 0 0 1-3.6-5.9l3.6-20.9a4.7 4.7 0 0 1 5.5-4l23.2 4.8a5 5 0 0 1 3.6 6l-3.6 20.8a4.7 4.7 0 0 1-5.5 4z" class="y"/></svg>