<svg data-name="Layer 1" xmlns="http://www.w3.org/2000/svg" viewBox="0 0 229 132.82">
  <path fill="#231f20" d="M29.12 24.21h170.77v100.61H29.12z"/>
  <path d="M200.88 125.82H28.12V23.21h172.76zm-170.76-2h168.76V25.21H30.12z" fill="#231f20"/>
  <path fill="#fff" d="M29.12 8h170.77v19.69H29.12z"/>
  <path d="M200.88 28.7H28.12V7h172.76zm-170.76-2h168.76V9H30.12z" fill="#231f20"/>
  <path d="M40.86 58.52a1.44 1.44 0 0 1-1.07-.52 1.42 1.42 0 0 1 .13-2l8.56-7.53-8.63-8.63a1.42 1.42 0 0 1 2-2l9.7 9.71a1.39 1.39 0 0 1-.07 2.06l-9.7 8.53a1.38 1.38 0 0 1-.92.38zM84.68 59.94h-27.1a1.42 1.42 0 0 1 0-2.84h27.1a1.42 1.42 0 0 1 0 2.84z" fill="#4c36e8"/>
</svg>
