<svg data-name="Layer 1" xmlns="http://www.w3.org/2000/svg" viewBox="0 0 229 132.7">
  <path fill="#fff" d="M20.04 16.53h188.93v108.16H20.04z"/>
  <path d="M210 125.68H19V15.53h191zm-189-2h187V17.53H21z" fill="#231f20"/>
  <path fill="#231f20" d="M20.04 8.02h188.93v14H20.04z"/>
  <path d="M210 23H19V7h191zM21 21h187V9H21z" fill="#231f20"/>
  <circle cx="24.87" cy="14.91" r="2" fill="#fff"/>
  <circle cx="32.11" cy="14.91" r="2" fill="#fff"/>
  <circle cx="39.56" cy="14.91" r="2" fill="#fff"/>
  <path fill="#fff" d="M48.63 11.91H156.3v6.67H48.63z"/>
  <path fill="#bbbdbf" d="M28.26 47.47h101.52v7.5H28.26zM28.26 59.97h172.21v16H28.26zM28.26 86.9h101.52v7.5H28.26zM28.26 99.4h172.21v16H28.26z"/>
  <path d="M32.31 30.13a4.85 4.85 0 0 1 1.36.63L33.08 32a5.33 5.33 0 0 0-1.29-.6 4.44 4.44 0 0 0-1.17-.19 1.9 1.9 0 0 0-1 .23.73.73 0 0 0-.36.65.86.86 0 0 0 .24.62 1.73 1.73 0 0 0 .59.41 9.25 9.25 0 0 0 1 .33 11.68 11.68 0 0 1 1.39.5 2.41 2.41 0 0 1 .91.74 1.93 1.93 0 0 1 .39 1.31 2.13 2.13 0 0 1-.4 1.29 2.62 2.62 0 0 1-1.12.85 4.26 4.26 0 0 1-1.65.3 5 5 0 0 1-1.86-.44 5.32 5.32 0 0 1-1.57-1l.61-1.23a5 5 0 0 0 1.4.91 3.81 3.81 0 0 0 1.45.32 2.08 2.08 0 0 0 1.15-.27.85.85 0 0 0 .42-.75.9.9 0 0 0-.25-.64 1.75 1.75 0 0 0-.61-.4c-.25-.09-.58-.2-1-.33a10.68 10.68 0 0 1-1.35-.42 2.47 2.47 0 0 1-.9-.71 1.94 1.94 0 0 1-.38-1.25 2.06 2.06 0 0 1 .33-1.23 2.44 2.44 0 0 1 1.08-.82 4.15 4.15 0 0 1 1.6-.29 5.31 5.31 0 0 1 1.58.24zM39.49 32.19a3 3 0 0 1 1.11.81l-.75.89a2.38 2.38 0 0 0-1.78-.72 1.86 1.86 0 0 0-1.4.57 2 2 0 0 0-.54 1.47 2 2 0 0 0 .53 1.47 1.77 1.77 0 0 0 1.36.57 2.36 2.36 0 0 0 1.89-.77l.76.77a2.79 2.79 0 0 1-1.12.88 3.78 3.78 0 0 1-1.55.27 3.36 3.36 0 0 1-1.7-.4 2.84 2.84 0 0 1-1.14-1.14 3.32 3.32 0 0 1-.41-1.68 3.37 3.37 0 0 1 .41-1.7 2.84 2.84 0 0 1 1.14-1.14 3.26 3.26 0 0 1 1.7-.42 4.07 4.07 0 0 1 1.49.27zM45.68 37.57a2.57 2.57 0 0 1-2.11.84 2.64 2.64 0 0 1-1.19-.26 1.84 1.84 0 0 1-.78-.7 2 2 0 0 1-.28-1A1.7 1.7 0 0 1 42 35a2.84 2.84 0 0 1 1.78-.53h1.93v-.19a1.19 1.19 0 0 0-.39-1 1.72 1.72 0 0 0-1.18-.28 3.35 3.35 0 0 0-1.88.64l-.57-1A6.9 6.9 0 0 1 43 32.1a4.88 4.88 0 0 1 1.43-.18 2.81 2.81 0 0 1 1.9.59 2.1 2.1 0 0 1 .67 1.65v4.19h-1.32zM45.1 37a1.2 1.2 0 0 0 .57-.87v-.59h-1.73a2 2 0 0 0-1 .2.7.7 0 0 0-.31.65.83.83 0 0 0 .33.69 1.44 1.44 0 0 0 .9.26A2.18 2.18 0 0 0 45.1 37zM54.36 32.57a2.51 2.51 0 0 1 .64 1.81v4h-1.39v-3.61a1.58 1.58 0 0 0-.41-1.14 1.48 1.48 0 0 0-1.12-.42 1.73 1.73 0 0 0-1.26.5 2 2 0 0 0-.56 1.29v3.4h-1.38V32h1.38v1.23a2.41 2.41 0 0 1 2.35-1.27 2.33 2.33 0 0 1 1.75.61zM63.81 35.81h-2.38v2.53H60V30h3.41a3.79 3.79 0 0 1 2.5.75 2.63 2.63 0 0 1 .89 2.12 3 3 0 0 1-.46 1.7 2.55 2.55 0 0 1-1.28 1L67 38.35h-1.66zm1.12-1.69a1.53 1.53 0 0 0 .53-1.26 1.46 1.46 0 0 0-.53-1.23 2.42 2.42 0 0 0-1.51-.41h-2v3.33h2a2.3 2.3 0 0 0 1.51-.43zM73.49 32.77a3.52 3.52 0 0 1 .75 2.4v.52h-4.85a2.06 2.06 0 0 0 .7 1.17 2 2 0 0 0 1.28.43 2.53 2.53 0 0 0 1-.2 2.32 2.32 0 0 0 .82-.55l.73.78a3.35 3.35 0 0 1-1.15.8 4 4 0 0 1-1.49.28 3.54 3.54 0 0 1-1.73-.4 2.84 2.84 0 0 1-1.14-1.14 3.65 3.65 0 0 1 0-3.36 3 3 0 0 1 1.14-1.16 3.45 3.45 0 0 1 1.68-.41 2.84 2.84 0 0 1 2.26.84zm-1 .7a1.76 1.76 0 0 0-1.25-.47 1.79 1.79 0 0 0-1.25.44 2 2 0 0 0-.62 1.21H73a1.7 1.7 0 0 0-.5-1.18zM78.77 32.08a3.77 3.77 0 0 1 1 .48l-.51 1a3.66 3.66 0 0 0-.92-.42 3.2 3.2 0 0 0-.92-.15 1.31 1.31 0 0 0-.68.16.51.51 0 0 0-.25.48.54.54 0 0 0 .29.49 6.09 6.09 0 0 0 1 .39 7.33 7.33 0 0 1 1.08.38 2.1 2.1 0 0 1 .73.57 1.83 1.83 0 0 1-.4 2.44 3 3 0 0 1-1.75.48 4.26 4.26 0 0 1-1.44-.22 3.14 3.14 0 0 1-1.15-.65l.49-1a3 3 0 0 0 1 .57 3.16 3.16 0 0 0 1.14.22 1.49 1.49 0 0 0 .75-.17.56.56 0 0 0 .29-.52.57.57 0 0 0-.18-.43 1.24 1.24 0 0 0-.42-.28c-.17-.07-.42-.15-.74-.25a8.85 8.85 0 0 1-1-.37 1.94 1.94 0 0 1-.69-.55 1.51 1.51 0 0 1-.29-1 1.59 1.59 0 0 1 .67-1.39 2.82 2.82 0 0 1 1.68-.47 4.16 4.16 0 0 1 1.22.21zM87.08 38.35h-1.37V37.1a2.36 2.36 0 0 1-2.28 1.3 2.26 2.26 0 0 1-1.72-.66 2.5 2.5 0 0 1-.63-1.8V32h1.39v3.6a1.57 1.57 0 0 0 .39 1.13 1.44 1.44 0 0 0 1.1.41 1.56 1.56 0 0 0 1.27-.57 2.09 2.09 0 0 0 .48-1.42V32h1.37zM89.18 38.35v-8.9h1.39v8.9zM94.7 38.41a1.8 1.8 0 0 1-1.28-.47 1.78 1.78 0 0 1-.5-1.39v-3.31H92v-1h.91v-1.79h1.37v1.76h1.88v1h-1.87v3.09a1 1 0 0 0 .16.67.65.65 0 0 0 .52.19 2.43 2.43 0 0 0 1-.27l.35 1a3.13 3.13 0 0 1-1.62.52zM100.66 32.08a3.77 3.77 0 0 1 1 .48l-.51 1a3.66 3.66 0 0 0-.92-.42 3.2 3.2 0 0 0-.92-.15 1.31 1.31 0 0 0-.68.16.51.51 0 0 0-.25.48.54.54 0 0 0 .29.49 6.51 6.51 0 0 0 1 .39 7.33 7.33 0 0 1 1.08.38 2.1 2.1 0 0 1 .73.57 1.83 1.83 0 0 1-.4 2.44 3 3 0 0 1-1.75.48 4.26 4.26 0 0 1-1.41-.24 3.14 3.14 0 0 1-1.15-.65l.49-1a3 3 0 0 0 1 .57 3.2 3.2 0 0 0 1.14.22 1.49 1.49 0 0 0 .75-.17.56.56 0 0 0 .29-.52.57.57 0 0 0-.18-.43 1.24 1.24 0 0 0-.42-.28c-.17-.07-.42-.15-.74-.25a8.85 8.85 0 0 1-1-.37 1.94 1.94 0 0 1-.69-.55 1.56 1.56 0 0 1-.29-1 1.59 1.59 0 0 1 .67-1.39 2.82 2.82 0 0 1 1.68-.47 4.16 4.16 0 0 1 1.19.23z" fill="#4c36e8"/>
</svg>
