<svg xmlns="http://www.w3.org/2000/svg" viewBox="0 0 229 132.7"><path fill="#fff" d="M20 16.5h189v108.2H20z"/><path fill="#231f20" d="M210 125.7H19V15.5h191zm-189-2h187V17.5H21z"/><path fill="#231f20" d="M20 8h189v14H20z"/><path fill="#231f20" d="M210 23H19V7h191zM21 21h187V9H21z"/><circle cx="24.9" cy="14.9" r="2" fill="#fff"/><circle cx="32.1" cy="14.9" r="2" fill="#fff"/><circle cx="39.6" cy="14.9" r="2" fill="#fff"/><path fill="#fff" d="M48.6 12h107.7v6.6H48.6z"/><path fill="#bbbdbf" d="M28.3 47.5h101.5V55H28.3zm0 12.5h172.2v16H28.3zm0 26.9h101.5v7.5H28.3zm0 12.5h172.2v16H28.3z"/><path fill="#4c36e8" d="M32.3 30.1a4.8 4.8 0 0 1 1.4.7L33 32a5.3 5.3 0 0 0-1.3-.6 4.4 4.4 0 0 0-1.2-.2 1.9 1.9 0 0 0-1 .2.7.7 0 0 0-.3.7.9.9 0 0 0 .2.6 1.7 1.7 0 0 0 .6.4 9.3 9.3 0 0 0 1 .3 11.7 11.7 0 0 1 1.4.5 2.4 2.4 0 0 1 .9.8 2 2 0 0 1 .4 1.3 2.1 2.1 0 0 1-.4 1.3 2.6 2.6 0 0 1-1.1.8 4.3 4.3 0 0 1-1.7.3 5 5 0 0 1-1.9-.4 5.3 5.3 0 0 1-1.5-1l.6-1.2a5 5 0 0 0 1.4.9 3.8 3.8 0 0 0 1.4.3 2 2 0 0 0 1.2-.3.8.8 0 0 0 .4-.7.9.9 0 0 0-.2-.7 1.8 1.8 0 0 0-.7-.4l-1-.3a10.7 10.7 0 0 1-1.3-.4 2.5 2.5 0 0 1-.9-.7 2 2 0 0 1-.4-1.3A2 2 0 0 1 28 31a2.4 2.4 0 0 1 1.1-.8 4.2 4.2 0 0 1 1.6-.3 5.3 5.3 0 0 1 1.6.2zm7.2 2a3 3 0 0 1 1.1.9l-.8.9a2.4 2.4 0 0 0-1.7-.7 1.9 1.9 0 0 0-1.4.5 2 2 0 0 0-.6 1.5 2 2 0 0 0 .6 1.5 1.8 1.8 0 0 0 1.3.5 2.4 2.4 0 0 0 2-.7l.7.7a2.8 2.8 0 0 1-1.2 1 3.8 3.8 0 0 1-1.5.2 3.4 3.4 0 0 1-1.7-.4 2.8 2.8 0 0 1-1.1-1.1 3.3 3.3 0 0 1-.4-1.7 3.4 3.4 0 0 1 .4-1.7 2.8 2.8 0 0 1 1.1-1.2A3.3 3.3 0 0 1 38 32a4 4 0 0 1 1.5.3zm6.2 5.5a2.6 2.6 0 0 1-2.1.8 2.6 2.6 0 0 1-1.2-.2 1.8 1.8 0 0 1-.8-.7 2 2 0 0 1-.3-1A1.7 1.7 0 0 1 42 35a2.8 2.8 0 0 1 1.8-.5h2v-.2a1.2 1.2 0 0 0-.5-1 1.7 1.7 0 0 0-1.2-.3 3.4 3.4 0 0 0-1.8.6l-.6-1a6.9 6.9 0 0 1 1.3-.5 4.9 4.9 0 0 1 1.4-.2 2.8 2.8 0 0 1 2 .6 2.1 2.1 0 0 1 .6 1.7v4.2h-1.3zM45 37a1.2 1.2 0 0 0 .6-.9v-.6h-1.8a2 2 0 0 0-1 .2.7.7 0 0 0-.3.7.8.8 0 0 0 .4.7 1.4 1.4 0 0 0 .9.2A2.2 2.2 0 0 0 45 37zm9.3-4.4a2.5 2.5 0 0 1 .6 1.8v4h-1.4v-3.6a1.6 1.6 0 0 0-.4-1.2 1.5 1.5 0 0 0-1.1-.4 1.7 1.7 0 0 0-1.3.5 2 2 0 0 0-.5 1.3v3.4h-1.4V32h1.4v1.2a2.4 2.4 0 0 1 2.3-1.2 2.3 2.3 0 0 1 1.8.6zm9.4 3.2h-2.4v2.5H60V30h3.4a3.8 3.8 0 0 1 2.5.8 2.6 2.6 0 0 1 .9 2 3 3 0 0 1-.5 1.8 2.5 2.5 0 0 1-1.2 1l1.9 2.8h-1.7zm1.1-1.7a1.5 1.5 0 0 0 .6-1.2 1.5 1.5 0 0 0-.6-1.3 2.4 2.4 0 0 0-1.5-.4h-2v3.4h2A2.3 2.3 0 0 0 65 34zm8.6-1.3a3.5 3.5 0 0 1 .7 2.4v.5h-4.8a2 2 0 0 0 .7 1.2 2 2 0 0 0 1.3.4 2.5 2.5 0 0 0 1-.2 2.3 2.3 0 0 0 .8-.6l.7.8a3.4 3.4 0 0 1-1.1.8 4 4 0 0 1-1.5.3 3.5 3.5 0 0 1-1.7-.4 2.8 2.8 0 0 1-1.2-1.1 3.6 3.6 0 0 1 0-3.4 3 3 0 0 1 1.1-1.2 3.5 3.5 0 0 1 1.7-.4 2.8 2.8 0 0 1 2.3.9zm-1 .7a1.8 1.8 0 0 0-1.3-.5 1.8 1.8 0 0 0-1.2.4 2 2 0 0 0-.6 1.3H73a1.7 1.7 0 0 0-.5-1.2zm6.3-1.4a3.8 3.8 0 0 1 1 .5l-.5 1a3.7 3.7 0 0 0-1-.5 3.2 3.2 0 0 0-.9-.1 1.3 1.3 0 0 0-.7.1.5.5 0 0 0-.2.5.5.5 0 0 0 .3.5 6 6 0 0 0 1 .4 7.3 7.3 0 0 1 1 .4 2.1 2.1 0 0 1 .8.6 1.8 1.8 0 0 1-.4 2.4 3 3 0 0 1-1.8.5 4.3 4.3 0 0 1-1.4-.2 3.1 3.1 0 0 1-1.2-.7l.5-1a3 3 0 0 0 1 .6 3.2 3.2 0 0 0 1.2.2 1.5 1.5 0 0 0 .7-.2.6.6 0 0 0 .3-.5.6.6 0 0 0-.2-.4 1.2 1.2 0 0 0-.4-.3l-.7-.3a8.8 8.8 0 0 1-1-.3 2 2 0 0 1-.7-.6 1.5 1.5 0 0 1-.3-1 1.6 1.6 0 0 1 .7-1.4 2.8 2.8 0 0 1 1.6-.4 4.2 4.2 0 0 1 1.3.2zm8.3 6.3h-1.4V37a2.4 2.4 0 0 1-2.3 1.3 2.3 2.3 0 0 1-1.7-.7 2.5 2.5 0 0 1-.6-1.8V32h1.4v3.6a1.6 1.6 0 0 0 .4 1.1 1.4 1.4 0 0 0 1 .4 1.6 1.6 0 0 0 1.3-.5 2 2 0 0 0 .5-1.5V32H87zm2 0v-9h1.5v9zm5.6 0a1.8 1.8 0 0 1-1.3-.5 1.8 1.8 0 0 1-.5-1.4v-3.3H92v-1h1v-1.8h1.3v1.8h1.9v1h-2v3.1a1 1 0 0 0 .2.7.7.7 0 0 0 .6.2 2.4 2.4 0 0 0 1-.3l.3 1a3.1 3.1 0 0 1-1.6.5zm6-6.3a3.8 3.8 0 0 1 1 .5l-.6 1a3.7 3.7 0 0 0-.9-.5 3.2 3.2 0 0 0-.9-.1 1.3 1.3 0 0 0-.7.1.5.5 0 0 0-.2.5.5.5 0 0 0 .3.5 6.5 6.5 0 0 0 1 .4 7.3 7.3 0 0 1 1 .4 2.1 2.1 0 0 1 .8.6 1.8 1.8 0 0 1-.4 2.4 3 3 0 0 1-1.8.5A4.3 4.3 0 0 1 98 38a3.1 3.1 0 0 1-1.1-.6l.5-1a3 3 0 0 0 1 .6 3.2 3.2 0 0 0 1.1.2 1.5 1.5 0 0 0 .7-.2.6.6 0 0 0 .3-.5.6.6 0 0 0-.1-.4 1.2 1.2 0 0 0-.5-.3l-.7-.3a8.8 8.8 0 0 1-1-.3 2 2 0 0 1-.7-.6 1.6 1.6 0 0 1-.3-1 1.6 1.6 0 0 1 .7-1.4 2.8 2.8 0 0 1 1.7-.5 4.2 4.2 0 0 1 1.2.3z"/></svg>