<?xml version="1.0" encoding="utf-8"?>
<!-- Generator: Adobe Illustrator 22.1.0, SVG Export Plug-In . SVG Version: 6.00 Build 0)  -->
<svg version="1.1" id="Layer_1" xmlns="http://www.w3.org/2000/svg" xmlns:xlink="http://www.w3.org/1999/xlink" x="0px" y="0px"
	 viewBox="0 0 596.3 325.6" style="enable-background:new 0 0 596.3 325.6;" xml:space="preserve">
<style type="text/css">
	.st0{fill:#A1A587;}
	.st1{fill:none;stroke:#848764;stroke-linecap:round;stroke-linejoin:round;}
	.st2{fill:#989B79;}
	.st3{fill:#8A8F69;}
	.st4{fill:#9198CC;stroke:#2B2B2B;stroke-width:0.25;stroke-miterlimit:10;}
	.st5{fill:#D6D9ED;stroke:#2B2B2B;stroke-width:0.25;stroke-miterlimit:10;}
	.st6{fill:#7B86BF;}
	.st7{fill:#221F1F;}
	.st8{fill:#FFFFFF;}
	.st9{clip-path:url(#SVGID_2_);}
	.st10{fill:none;stroke:#6B6B6B;stroke-width:0.25;stroke-linecap:round;stroke-linejoin:round;}
	.st11{fill:none;stroke:#1A1A1A;stroke-width:0.75;stroke-linecap:round;stroke-linejoin:round;}
	.st12{fill:#969595;stroke:#2B2B2B;stroke-width:0.25;stroke-miterlimit:10;}
	.st13{opacity:0.77;fill:#FFFFFF;stroke:#2B2B2B;stroke-width:0.25;stroke-miterlimit:10;enable-background:new    ;}
	
		.st14{opacity:0.46;fill:none;stroke:#969595;stroke-width:2;stroke-linecap:round;stroke-linejoin:round;enable-background:new    ;}
	.st15{fill:#3B5CA9;}
	.st16{fill:#CABEAA;}
	.st17{fill:#9198CC;}
	.st18{fill:#707070;}
	.st19{fill:#705961;}
	.st20{fill:#EDECE4;}
	.st21{fill:#D3D3D1;}
	.st22{fill:#686868;}
</style>
<path class="st0" d="M444.5,307.6c0,0,3.1-3.2,1.8-7.2s-5.9-0.5-7.3-5.4s3.2-5.3,3.3-10.1s-6.8-5.1-8.3-10.1s-1.7-7.1,2.1-8.2
	c4.6-1.3,12,9.2,12.6,13.9c0.7,5.4-4.8,10.9-2.2,13.5S454.3,301,444.5,307.6L444.5,307.6z"/>
<path class="st1" d="M446.9,305.2c0,0,1.9-8.2-2.9-10.7s3.7-7.5,1.8-12.9S435.3,268,435.3,268"/>
<path class="st2" d="M456,307.6c0,0-3.1-3.2-1.8-7.2s5.9-0.5,7.3-5.4s-3.2-5.3-3.3-10.1s6.8-5.1,8.3-10.1s1.7-7.1-2.1-8.2
	c-4.6-1.3-12,9.2-12.6,13.9c-0.7,5.4,4.8,10.9,2.2,13.5S446.2,301,456,307.6L456,307.6z"/>
<path class="st1" d="M453.6,305.2c0,0-1.9-8.2,2.8-10.7s-3.7-7.5-1.8-12.9s10.6-13.7,10.6-13.7"/>
<path class="st3" d="M444.7,307.5c0,0,5.5-3.9,4.7-10.2s-8.6-2.4-9.4-10.2s6.3-7,7.8-14.1s-8.6-9.5-9.4-17.3s-0.6-11.1,5.5-11.6
	c7.2-0.7,15.2,17.1,14.9,24.3c-0.4,8.3-10.2,14.9-7,19.6S461.2,300.4,444.7,307.5L444.7,307.5z"/>
<path class="st1" d="M449,304.7c0,0,5.1-11.7-1.2-16.8s7.6-10.2,6.4-18.6S442.2,246,442.2,246"/>
<path class="st4" d="M286.6,197.5c0,0-22.1,23.8-41.1,9.1c-1.4-1.1-1.7-3.1-0.6-4.5c0.1-0.1,0.2-0.2,0.3-0.3l27.3-27"/>
<path class="st5" d="M465.2,106.6c34.6,1.1,97.3-23.8,97.4-23.8c-2.4,3.8-4.9,7.7-7.7,11.7c-9.3,13.3-7.2,25.8-16.8,35.6
	c-16.7,17.7-51.7,35.7-78.5,52.2c-25.9,15.9-60.2,31.2-82.9,38.2c-9.3,3-10.7,3.4-19.8,4.6c-1.7,0.2-2.7-1.5-4.3-1.3
	c-0.4,0.1-0.9,0.1-1.3,0.1c-1,0.1-2,0.2-2.9,0.2c-29,1.9-55.5-5.5-73.3-22.4C274.5,199.6,465.2,106.6,465.2,106.6L465.2,106.6z"/>
<path class="st4" d="M593.2,59.2l-18-4.3c-4.7-1.1-9.5,1.3-12.5,5.7l-0.3-0.1c-0.7-5.3-3.9-9.6-8.6-10.7l-18-4.3
	c-0.8-0.1-1.6,0.5-1.7,1.3l-2.6,10.8c-2.1,8.6,2.1,17.1,9.2,18.8l1.8,0.4l1.2,0.3c-16.2,22.3-39.4,15.7-39.4,15.7
	s22.4,44.6,30.8,39.8c7.3-4.3,32-41.2,36.9-48.7l2.8,0.7c7.1,1.7,14.7-3.9,16.7-12.6l2.6-10.8C594.5,60.3,594.1,59.4,593.2,59.2
	C593.3,59.2,593.3,59.2,593.2,59.2z"/>
<path class="st6" d="M529.7,100.2l-8.5-7.3l3.7-1.1c0,0,3.4,6.1,3.6,6.4L529.7,100.2z"/>
<path class="st4" d="M553,111.6c0.8-1.4-8.8,5.9-11.5,4.4c-1.6-0.9-4.5-1.4-5.1-2.2c-2.6-3.2-1.3-7.9-4.5-11.6
	c-2.6-3.1-7.3-6.1-10.6-9.3l-1.9-1.8c-17-15.8-41-32.3-60.3-45.1C422.4,21.6,377.2,13,334.4,23.5c-1.2,0.3-2.3,0.6-3.5,0.9
	c-57.3,15.3-103,60.8-97.7,114.7c5.2,53,55.5,91.5,113.1,87.5c1.1-0.1,2.2-0.1,3.3-0.2c25.2-2.3,49-13,67.4-30.4
	c14.4-14,31.2-25.2,49.6-33.2l2.6-1.1c2.7-1.2,5.3-2.4,7.8-3.7l25.9-10.5c12.2-3.9,28.1-10.3,35.4-17.4
	C541.2,127,550.9,115.3,553,111.6z"/>
<ellipse class="st7" cx="244" cy="138.8" rx="5.8" ry="5.1"/>
<circle class="st8" cx="245.2" cy="138.2" r="1"/>
<ellipse class="st7" cx="310" cy="140.9" rx="7" ry="6.1"/>
<circle class="st8" cx="308.8" cy="140.2" r="1.2"/>
<g>
	<defs>
		
			<ellipse id="SVGID_1_" transform="matrix(0.2867 -0.958 0.958 0.2867 65.3721 265.7842)" cx="211.2" cy="89" rx="57.2" ry="53.2"/>
	</defs>
	<clipPath id="SVGID_2_">
		<use xlink:href="#SVGID_1_"  style="overflow:visible;"/>
	</clipPath>
	<g class="st9">
		<path class="st5" d="M155.9,92.7l132.5,20.2l7.1,1.1c4.2-2.9,5.2-8.4,4.2-12.8l-0.2-0.7L155.9,92.7z"/>
		<path class="st10" d="M299.5,100.4c0,0-4.5,11.6-11.8,12.4 M287.5,100.4c-1.6,3.2-5.5,10.1-11.1,10.7 M276.2,99.1
			c-1.7,3.4-5.5,9.6-10.8,10.2 M263.7,98.9c-2,3.5-5.4,8.2-10,8.7 M251.7,98.1c-2,3.3-5.2,7-9.3,7.5 M240.1,97.2c-2,3.2-5.1,6.6-9,7
			 M228,96.5c-2,2.8-4.8,5.4-8.2,5.8 M215.9,95.8c-1.9,2.4-4.4,4.4-7.4,4.8 M203.3,95.4c-1.9,1.8-4.3,3-6.8,3.4 M185.2,97.2
			c2-0.4,3.9-1.2,5.5-2.5"/>
	</g>
</g>
<path class="st11" d="M262.3,181.3c8.6,5.4,19.6,4.3,27-2.6"/>
<circle class="st12" cx="328.7" cy="182.7" r="16"/>
<circle class="st13" cx="328.7" cy="182.7" r="11"/>
<path class="st12" d="M343.5,188.6c-0.8,1.9-2,3.7-3.4,5.2l7.4,4.9l4.2-4.7L343.5,188.6z"/>
<path class="st14" d="M323.2,185.1c-1.2-3.4,0.5-7.1,3.9-8.3c0,0,0,0,0,0"/>
<path class="st15" d="M383.8,193.2c0,0-18.2,26.8-39.2,15.2c-1.6-0.8-2.1-2.8-1.3-4.3c0.1-0.1,0.1-0.2,0.2-0.4l21.6-29.1"/>
<path class="st4" d="M385.1,191.7c0,0-18.2,26.8-39.2,15.2c-1.5-0.8-2.1-2.8-1.3-4.3c0.1-0.1,0.2-0.3,0.2-0.4l22.2-31"/>
<path class="st6" d="M294.2,217.8c0,0,60.1,10.8,94.8-2.6c-12.1,5.9-25.2,9.6-38.6,10.8C315.9,229.3,293.5,217.5,294.2,217.8z"/>
<path class="st16" d="M557.9,303.2h-0.7c-3.7,0.2-36.9,2.4-41.5,1c-4.8-1.5-229.2,0.5-236.4-1c-7.2-1.5-116.4,1-121.8,0
	c-5.4-1-81.8,2-89.5,0.5s-26.3-2.5-38.2-1c-4.8,0.5-9.7,0.3-14.5-0.5c-5.2-0.9-10,2.5-10,7v1.2c0,3.9,3.7,7.1,8.4,7.1H566
	c4.6,0,8.4-3.2,8.4-7.1s-3.7-7.1-8.4-7.1L557.9,303.2z"/>
<path class="st17" d="M517.1,100.6l18.8-0.8c0,0-4.4,6.3,2.8,13.3c2.8,2.7,3.7,2,4.9,1.4c2.9-1.3,8.3-5.3,8.7-5.6
	c5.6-3.4-4.6,10.1-6.4,11.6c-0.9,0.7-7-1.2-11.3-2.2c-1.5-0.4-2.8-1.4-3.4-2.8L517.1,100.6z"/>
<path class="st0" d="M117.4,306.5c0,0,4.9-5.1,2.9-11.5s-9.4-0.7-11.8-8.7s5.1-8.6,5.4-16.2s-10.9-8.2-13.2-16.2s-2.8-11.4,3.4-13.2
	c7.4-2.1,19.2,14.8,20.3,22.3c1.2,8.7-7.6,17.5-3.5,21.8S133.1,295.9,117.4,306.5L117.4,306.5z"/>
<path class="st1" d="M121.3,301.1c0,0,3.1-13.1-4.5-17.2s5.9-12.1,2.9-20.7s-16.9-21.9-16.9-21.9"/>
<path class="st2" d="M135.8,306.5c0,0-4.9-5.1-2.9-11.5s9.4-0.7,11.8-8.7s-5.1-8.6-5.4-16.2s10.9-8.2,13.2-16.2s2.8-11.4-3.4-13.2
	c-7.4-2.1-19.2,14.8-20.3,22.3c-1.2,8.7,7.6,17.5,3.5,21.8S120.1,295.9,135.8,306.5L135.8,306.5z"/>
<path class="st1" d="M132,302.7c0,0-3.1-13.1,4.6-17.2s-5.9-12.1-2.9-20.7s17-21.9,17-21.9"/>
<path class="st3" d="M117.7,306.3c0,0,8.8-6.3,7.5-16.3s-13.8-3.8-15.1-16.3s10.1-11.3,12.6-22.6s-13.9-15.3-15.1-27.8
	s-0.9-17.7,8.9-18.6c11.5-1.1,24.5,27.5,23.9,38.9c-0.7,13.3-16.3,23.9-11.3,31.4S144.1,295,117.7,306.3z"/>
<path class="st1" d="M124.5,301.8c0,0,8.3-18.7-2-26.9s12.3-16.3,10.3-29.9s-19.1-37.4-19.1-37.4"/>
<path class="st0" d="M43.4,305.4c0,0,3-3.2,1.8-7.1s-5.8-0.5-7.3-5.4s3.2-5.3,3.3-10s-6.7-5-8.2-10s-1.7-7,2.1-8.1
	c4.5-1.3,11.9,9.1,12.5,13.8c0.7,5.4-4.8,10.8-2.2,13.4S53,298.9,43.4,305.4L43.4,305.4z"/>
<path class="st1" d="M45.7,303.1c0,0,1.9-8.1-2.8-10.6s3.7-7.5,1.8-12.8s-10.5-13.5-10.5-13.5"/>
<path class="st2" d="M54.7,305.4c0,0-3-3.2-1.8-7.1s5.8-0.5,7.3-5.4c1.5-4.9-3.2-5.3-3.3-10s6.7-5,8.2-10s1.7-7-2.1-8.1
	c-4.5-1.3-11.9,9.2-12.5,13.8c-0.7,5.4,4.7,10.8,2.1,13.4S45,298.9,54.7,305.4L54.7,305.4z"/>
<path class="st1" d="M52.3,303.1c0,0-1.9-8.1,2.8-10.6s-3.7-7.5-1.8-12.8s10.5-13.5,10.5-13.5"/>
<path class="st3" d="M43.5,305.3c0,0,5.4-3.9,4.7-10.1s-8.5-2.3-9.3-10.1s6.2-7,7.8-14s-8.6-9.4-9.3-17.2s-0.6-10.9,5.5-11.5
	c7.1-0.7,15.1,17,14.7,24c-0.4,8.2-10.1,14.7-7,19.4S59.8,298.4,43.5,305.3z"/>
<path class="st1" d="M47.7,302.5c0,0,5.1-11.5-1.2-16.5s7.6-10.1,6.3-18.5s-11.8-23.1-11.8-23.1"/>
<path class="st0" d="M384,303c0.9-1,1.3-2.5,1-3.8c-0.7-2.1-3.1-0.3-3.9-2.9s1.7-2.8,1.8-5.4s-3.6-2.7-4.4-5.4s-0.9-3.8,1.1-4.4
	c2.4-0.7,6.4,4.9,6.7,7.4c0.4,2.9-2.5,5.8-1.1,7.2S389.2,299.5,384,303L384,303z"/>
<path class="st1" d="M385.3,301.8c0,0,1-4.4-1.5-5.7s2-4,1-6.9s-5.6-7.3-5.6-7.3"/>
<path class="st2" d="M392.5,303c-0.9-1-1.3-2.5-1-3.8c0.7-2.1,3.1-0.3,3.9-2.9s-1.7-2.8-1.8-5.4s3.6-2.7,4.4-5.4s0.9-3.8-1.1-4.4
	c-2.4-0.7-6.4,4.9-6.7,7.4c-0.4,2.9,2.5,5.8,1.1,7.2S387.2,299.5,392.5,303L392.5,303z"/>
<path class="st1" d="M391.2,301.8c0,0-1-4.4,1.5-5.7s-2-4-1-6.9s5.6-7.3,5.6-7.3"/>
<path class="st3" d="M384.1,303c0,0,2.9-2.1,2.5-5.4s-4.6-1.3-5-5.4s3.3-3.8,4.2-7.5s-4.6-5.1-5-9.2s-0.3-5.9,2.9-6.2
	c3.8-0.4,8.1,9.1,7.9,12.9c-0.2,4.4-5.4,7.9-3.8,10.4S392.8,299.3,384.1,303L384.1,303z"/>
<path class="st1" d="M386.3,301.5c0,0,2.7-6.2-0.6-8.9s4.1-5.4,3.4-9.9s-6.3-12.4-6.3-12.4"/>
<path class="st18" d="M376,301.2c0,0,5-11.2,17-12.2s32-9,32-9s16.9-2,33,6s23,18,23,18H376V301.2z M40.6,302.7
	c0,0,0.3-15.4,12.3-19.6s41-18.6,41-18.6s23,3.4,30,10.4c7,7,20,31,20,31H42L40.6,302.7z"/>
<path class="st19" d="M149,284l0.3,0.8c0.2,0.5,5,13.4,11.7,14.6c2.6,0.5,5.2,1.5,7.5,2.8c1.8,1.1,3.8,1.9,5.9,2.3l2.4,0.4
	c2.3,0.3,4.6,1,6.7,2c2.8,1,5.8,1.3,8.7,0.9c3.1-0.2,6.3,0.2,9.2,1.3c1.8,0.8,3.7,1.3,5.6,1.4c0.2,0,0.4,0,0.5,0l2-0.3
	c4.1-0.8,8.3-1.2,12.4-1.3c1.2,0.1,2.5,0.3,3.7,0.5c2.3,0.4,4.3,0.8,5.9-0.2c3-1.9,8.7-4.7,10.8-4.1c2.9,1,6.2,0.3,8.5-1.7
	c0.8-0.7,1.8-1.2,2.8-1.4c1.7-0.2,3.5,0,5.2,0.3c1.9,0.3,3.4,0.6,4.2,0c12.8-8.5,14.9-15.4,15-15.7v-1.4L149,284z"/>
<path class="st20" d="M189.4,281.4c0,0-28.6-12.9-33.8-18.9s1.2-18.1,1.2-18.1s0.8-6.5,1.6-7.7c0.8-1.2,6-6.4,6.4-10.1
	c0.4-3.6,4.4-4,8.5-7.3c4-3.3,3.2-6.9,7.7-7.7s11.3-2.8,13.7-5.2c2.4-2.4,8.9-0.6,10.1-0.5s4.8-2.2,8.5-2.9s6.4,2.8,9.3,2.9
	s8.1-2.3,10.1-0.7c2.4,1.8,5,3.4,7.7,4.8c3.6,2,6.7-0.8,12.2,8.9c0,0,1.1,2.4,7.1,3.6s3.2,6.9,5.6,9.3c2.4,2.4,6.8,7.7,7.3,11.3
	s10.9,22.2-35.9,37.9L189.4,281.4z"/>
<path class="st20" d="M188.9,280.6c0,0-26.2,1.1-35.7,2.8c-2.2,0.4-4.1,0.7-4.1,0.7c1.2,0.8,2.4,1.7,3.5,2.7
	c0.5,0.6,0.9,1.1,1.3,1.6c1.1,1.3,2.9,1.9,4.6,1.6c1.3-0.2,2.7,0,3.8,0.8c2.8,1.9,5.2,5.2,8.1,4.6c2.8-0.6,9.7,0.6,11.7,2.7
	c2,2.1,2.8-1.2,6.4,0c3.6,1.2,8.1,3.2,9.7,2.8s3.2-2.7,6.8-1.9c3.6,0.7,1.2,1.6,6.5,2c5.2,0.4,3.6-2.7,8-2c4.4,0.7,4.4,3.5,9.3,1.3
	c4.9-2.1,12.9-5.4,17.3-3c4.4,2.4,3.5-2.4,6.4-2.4s4,4.4,7.5,1.2c3.5-3.2,0.7,0,5.7-2.8c5-2.8,6.2-5.2,9-5.2
	c1.6,0.2,3.1-0.9,3.4-2.5C248.6,281.1,218.7,279.5,188.9,280.6L188.9,280.6z"/>
<circle class="st21" cx="213.5" cy="265.6" r="23.4"/>
<path class="st22" d="M208.1,265.9l-8,3.2l8,3.2v3.1l-10.8-4.5v-3.5l10.8-4.5V265.9z M219.5,257.3l-7.8,22.3H208l7.8-22.3H219.5z
	 M218.3,272.1l8-3.2l-8-3.2v-3.1l10.8,4.5v3.5l-10.8,4.6V272.1z"/>
</svg>
