<svg xmlns="http://www.w3.org/2000/svg" xmlns:xlink="http://www.w3.org/1999/xlink" viewBox="0 0 730 608"><defs><style>.cls-1,.cls-13,.cls-14,.cls-17,.cls-25,.cls-27,.cls-28,.cls-33,.cls-37,.cls-40,.cls-8{fill:none;}.cls-2{fill:#7acff4;opacity:0.4;}.cls-3{fill:#96a3e2;}.cls-4{fill:#1c418c;}.cls-38,.cls-5{fill:#fff;}.cls-6{fill:#e2271e;}.cls-7{fill:#5f7f84;}.cls-7,.cls-8{stroke:#53595b;}.cls-13,.cls-14,.cls-17,.cls-18,.cls-19,.cls-20,.cls-21,.cls-25,.cls-29,.cls-33,.cls-37,.cls-38,.cls-40,.cls-7,.cls-8,.cls-9{stroke-linecap:round;stroke-linejoin:round;}.cls-13,.cls-17,.cls-18,.cls-19,.cls-20,.cls-21,.cls-25,.cls-37,.cls-7,.cls-8,.cls-9{stroke-width:3.77px;}.cls-15,.cls-9{fill:#cc961d;}.cls-17,.cls-9{stroke:#995c14;}.cls-10{clip-path:url(#clip-path);}.cls-11{fill:#bbc6ef;}.cls-12{fill:#6b7fc6;}.cls-13{stroke:#1c418c;}.cls-14{stroke:#060b1c;stroke-width:4.25px;}.cls-16{fill:#efc929;}.cls-18{fill:#42240d;}.cls-18,.cls-19{stroke:#2d1404;}.cls-19{fill:#512d10;}.cls-20{fill:#b26f2d;}.cls-20,.cls-21,.cls-27,.cls-28{stroke:#5e2e0b;}.cls-21{fill:#422109;}.cls-22{fill:#f9d023;}.cls-23{clip-path:url(#clip-path-2);}.cls-24{fill:#442d04;}.cls-25{stroke:#6d3405;}.cls-26,.cls-28{opacity:0.2;}.cls-27,.cls-28{stroke-miterlimit:10;stroke-width:2.83px;}.cls-29{fill:#c15a3a;}.cls-29,.cls-33{stroke:#8e2d1c;stroke-width:3.77px;}.cls-30{fill:#230906;}.cls-31{fill:#f4e4e4;}.cls-32{fill:#1a3b6b;}.cls-34{fill:#b1dcef;}.cls-35{fill:#829ba8;}.cls-36{fill:#acc3d1;}.cls-37{stroke:#596372;}.cls-38,.cls-40{stroke:#9bd5f9;stroke-width:3.55px;}.cls-39{fill:#9bd5f9;}.cls-41{opacity:0.6;}.cls-42{fill:#f9f5de;}</style><clipPath id="clip-path"><path class="cls-1" d="M575.26,359.11c-109.5,78.5-191.19,35.14-232.66-12.33s-44-189,77.5-197C553.9,141,529.65,244,522.1,297.28c-8.5,60,51.83,41.5,51.83,41.5s-10-35.82,43-44.67c0,0,6,44.34-15.88,52.23,0,0,24.28,10.44,24.28,48.45C574,394.12,575.26,359.11,575.26,359.11Z"/></clipPath><clipPath id="clip-path-2"><polygon class="cls-1" points="162.26 390.45 362.93 397.45 360.1 429.45 162.26 419.78 162.26 390.45"/></clipPath></defs><title>illustration_web_webhint_6</title><g id="nellie6"><path class="cls-2" d="M107.56,163.5c80.31-92.61,470-100.22,568-14.25,53.48,46.92,18.41,239.57-40,280.2-101.45,70.55-388,77.45-484.27,0C97,385.72,60.32,218,107.56,163.5Z"/><path class="cls-3" d="M352,301.06s-64.76-17.47-109.13,27.17c0,0,41.94,42.23,107.54,8.36"/><path class="cls-4" d="M351.56,302.65a113,113,0,0,0-14.22-2.33,142.46,142.46,0,0,0-14.46-.76,127.74,127.74,0,0,0-28.67,3.14,104.77,104.77,0,0,0-26.83,10.07A96.82,96.82,0,0,0,244.63,330v-3.52c.71.71,1.62,1.51,2.49,2.24s1.79,1.46,2.71,2.15c1.85,1.4,3.78,2.71,5.76,3.94A84.28,84.28,0,0,0,268,341.19a85.27,85.27,0,0,0,27.19,6.34,93.76,93.76,0,0,0,28-2.48,121.72,121.72,0,0,0,26.49-9.89,1.62,1.62,0,0,1,1.49,2.87A125.1,125.1,0,0,1,324,348.62a97.38,97.38,0,0,1-29.07,3,90,90,0,0,1-41.88-12.76q-3.17-1.9-6.17-4.09c-1-.73-2-1.48-2.95-2.27s-1.88-1.56-2.89-2.53h0a2.48,2.48,0,0,1,0-3.51h0a101.43,101.43,0,0,1,24.14-17.73,108.72,108.72,0,0,1,28.09-10.09,131.62,131.62,0,0,1,29.6-2.81,146.91,146.91,0,0,1,14.82,1,115.55,115.55,0,0,1,14.69,2.64,1.65,1.65,0,0,1-.79,3.2Z"/><polygon class="cls-5" points="257.41 154.07 180.92 182.09 158.91 254.04 223.08 310 293.33 287.91 316.85 207.95 257.41 154.07"/><polygon class="cls-6" points="170.3 250.46 191.82 190.29 253.36 169.04 306.66 211.15 283.57 279.55 225.38 300.28 170.3 250.46"/><polygon class="cls-7" points="253.78 300.35 267.17 357.37 284.25 353.94 262.04 297.75 253.78 300.35"/><polygon class="cls-8" points="257.41 154.07 180.92 182.09 158.91 254.04 223.08 310 293.33 287.91 316.85 207.95 257.41 154.07"/><path class="cls-5" d="M208.59,240.76a13.75,13.75,0,0,1-6.37-2.37,7.36,7.36,0,0,1-2.57-3.65c-.08-.25-.14-.49-.21-.74a2.67,2.67,0,0,1,2-3.5q2.13-.67,3.51,3.71c.19.61.37,1.3.54,2l6.26-2.37q-.24-.94-.51-1.77-3.27-10.44-11.46-7.86l-.2.06q-9,3-6.6,11.29a4.43,4.43,0,0,0,.13.49q2.47,7.88,9.58,9.4c4.89,1.06,7.75,2.8,8.61,5.24l.07.22c.73,2.31,0,3.85-2.23,4.62l-.1,0q-2.76.87-4.5-4.68a28.45,28.45,0,0,1-.72-2.78l-7.1,2.77c.17.64.34,1.26.53,1.85q2.28,7.28,5.7,9.24a9,9,0,0,0,7.48.82c.19-.06.39-.13.58-.21a10.91,10.91,0,0,0,6.05-4.82,10.75,10.75,0,0,0,1.21-7.1,14.28,14.28,0,0,0-.49-2,12.09,12.09,0,0,0-2.54-4.52A11,11,0,0,0,208.59,240.76Z"/><path class="cls-5" d="M229.82,216.58q-5.19,1.88-10.66,3.59c-2.34.74-4.73,1.45-7.14,2.14l2,6.43,6.13-2q3.2,11,8.12,28.55l6.78-2.51q-3.57-10.08-9-27.45l6.16-1.94Z"/><path class="cls-5" d="M243.42,211.66q-11.76,3.69-6.42,20.66,5.75,18.26,16.76,14.79T259.24,226Q253.72,208.43,243.42,211.66Zm8.41,28.88q-4.31,1.35-7.2-7.86-.18-.59-.36-1.23-3-10.53,1.32-11.88t7.53,9.1Q256.4,239.11,251.83,240.54Z"/><path class="cls-5" d="M273.31,204.09c-2-.45-4.68-.14-8,.91a55.92,55.92,0,0,0-7.19,2.91q3.81,10.93,7.06,21.25,2.1,6.72,4,13.2l7.53-2.53q-2.16-5.42-3.43-9.48c-.17-.53-.33-1.06-.47-1.57A15.68,15.68,0,0,0,280,224c1.72-2.12,1.84-5.78.39-11l-.26-.81Q278,205.13,273.31,204.09Zm1.24,14.43q.17,3.25-4.31,4.93l-3.93-11.9a8.89,8.89,0,0,1,1.65-.73,3.56,3.56,0,0,1,4.49,1.46A13.58,13.58,0,0,1,274,215.6,11.27,11.27,0,0,1,274.55,218.52Z"/><path class="cls-9" d="M340.85,184.78s-42.18,1.31-65.25,12.67c-21.75,10.71,73.37,30,73.37,30l2.59-31.13Z"/><path class="cls-3" d="M575.26,359.11c-109.5,78.5-191.19,35.14-232.66-12.33s-44-189,77.5-197C553.9,141,529.65,244,522.1,297.28c-8.5,60,51.83,41.5,51.83,41.5s-10-35.82,43-44.67c0,0,6,44.34-15.88,52.23,0,0,24.28,10.44,24.28,48.45C574,394.12,575.26,359.11,575.26,359.11Z"/><g class="cls-10"><path class="cls-11" d="M330.39,327.9s4.21-25.19,42.35-24.94c51.14.33,75.47,82,197.91,59.4L550.1,416.78l-141,44-92.26-45.5-6.24-25.5Z"/><ellipse class="cls-12" cx="520.62" cy="256.18" rx="32.71" ry="14.72" transform="translate(237.62 762.72) rotate(-87.01)"/><path class="cls-12" d="M494.8,289.19c-5,1.56-8.27-4.82-9.12-11.37s1.41-11.68,6-12.35c3.59-.52,7.13,3.31,8,9.86S498.35,288.08,494.8,289.19Z"/><ellipse class="cls-12" cx="502.25" cy="296.69" rx="3.16" ry="5.62" transform="translate(-35.37 70.31) rotate(-7.74)"/></g><path class="cls-13" d="M575.26,359.11c-109.5,78.5-191.19,35.14-232.66-12.33s-44-189,77.5-197C553.9,141,529.65,244,522.1,297.28c-8.5,60,51.83,41.5,51.83,41.5s-10-35.82,43-44.67c0,0,6,44.34-15.88,52.23,0,0,24.28,10.44,24.28,48.45C574,394.12,575.26,359.11,575.26,359.11Z"/><path class="cls-14" d="M344.5,227.91s-5.07,13.37,3.61,14.17c9.8.91,12-12.47,12-12.47"/><path class="cls-14" d="M426.57,234.11s-4.31,12.84,5.36,14.22C443.57,250,443.6,235,443.6,235"/><path class="cls-13" d="M381.85,251.24s4.25-11.68,18.25-5.82"/><path class="cls-15" d="M488.35,63.53c45.3,12.82,36,31.93,36,31.93-52.69-29-88.94,10.64-89.77,11.55C446.38,57.28,488.35,63.53,488.35,63.53Z"/><path class="cls-16" d="M542.85,235l-4,12.49S511.77,235,442,214.23c11.22-3.55,16.9-8.78,16.9-8.78a138.14,138.14,0,0,1,14.48,3.11c13.44,3.47,35.71,10.49,64.63,24.15Q540.42,233.84,542.85,235Z"/><path class="cls-16" d="M475.93,179s.79,10.54-2.52,29.6a138.14,138.14,0,0,0-14.48-3.11,202,202,0,0,0-24.32-10.76s7-16.24,17.66-24.91A71.23,71.23,0,0,1,475.93,179Z"/><path class="cls-16" d="M336.92,179.63a188.59,188.59,0,0,1,21.68-.58c30.46.91,57.64,8.74,76,15.64a202,202,0,0,1,24.32,10.76s-5.68,5.23-16.9,8.78c-14.27,4.53-37.51,6.34-69.43-8.78-55.44-26.26-94.79-9-96.91-8A158.29,158.29,0,0,1,336.92,179.63Z"/><path class="cls-16" d="M363.1,154.62a117.65,117.65,0,0,0-4.5,24.43,188.59,188.59,0,0,0-21.68.58c3.82-16.8,10.85-24.18,10.85-24.18a20.55,20.55,0,0,1,4.53-1.11A38.57,38.57,0,0,1,363.1,154.62Z"/><path class="cls-16" d="M434.62,107c.83-.91,37.08-40.51,89.77-11.55,31.38,20,37.27,59.78,14.21,136.07l-.56,1.18c-28.92-13.66-51.19-20.68-64.63-24.15,3.31-19.06,2.52-29.6,2.52-29.6a71.23,71.23,0,0,0-23.66-9.18c-10.67,8.67-17.66,24.91-17.66,24.91-18.37-6.9-45.55-14.73-76-15.64a117.65,117.65,0,0,1,4.5-24.43,38.57,38.57,0,0,0-10.8-.28l0-.27S364.9,96.74,424.47,82c9.51-14.23,28.22-28.54,63.88-18.45C488.35,63.53,446.38,57.28,434.62,107Z"/><path class="cls-17" d="M275.69,197.41c2.12-1,41.47-18.22,96.91,8,31.92,15.12,55.16,13.31,69.43,8.78,11.22-3.55,16.9-8.78,16.9-8.78a202,202,0,0,0-24.32-10.76c-18.37-6.9-45.55-14.73-76-15.64a188.59,188.59,0,0,0-21.68.58,158.29,158.29,0,0,0-61.23,17.78l-.05,0,0,0"/><path class="cls-17" d="M524.39,95.46c31.38,20,37.27,59.78,14.21,136.07"/><path class="cls-17" d="M352.27,154.07S364.9,96.74,424.47,82"/><path class="cls-17" d="M458.93,205.45a138.14,138.14,0,0,1,14.48,3.11c13.44,3.47,35.71,10.49,64.63,24.15q2.38,1.13,4.81,2.31l-4,12.49S511.77,235,442,214.23"/><path class="cls-17" d="M434.61,194.69s7-16.24,17.66-24.91A71.23,71.23,0,0,1,475.93,179s.79,10.54-2.52,29.6"/><path class="cls-17" d="M358.6,179.05a117.65,117.65,0,0,1,4.5-24.43,38.57,38.57,0,0,0-10.8-.28,20.55,20.55,0,0,0-4.53,1.11s-7,7.38-10.85,24.18h0"/><path class="cls-17" d="M415.35,103.53A63.18,63.18,0,0,1,424.47,82c9.51-14.23,28.22-28.54,63.88-18.45,45.3,12.82,36,31.93,36,31.93"/><path class="cls-17" d="M434.61,107a0,0,0,0,1,0,0c.83-.91,37.08-40.51,89.77-11.55"/><path class="cls-17" d="M488.35,63.53s-42-6.25-53.73,43.48"/><polygon class="cls-18" points="212.85 409.45 224.18 486.62 193.18 484.62 196.43 406.45 212.85 409.45"/><polygon class="cls-19" points="224.18 486.62 230.68 484.95 218.68 409.45 212.85 409.45 224.18 486.62"/><polygon class="cls-18" points="346.85 419.38 358.1 497.91 327.18 494.54 330.43 416.38 346.85 419.38"/><polygon class="cls-19" points="358.1 497.91 364.68 494.88 352.68 419.38 346.85 419.38 358.1 497.91"/><polygon class="cls-20" points="176.93 420.47 154.92 505.78 190.09 509.95 198.24 421.51 176.93 420.47"/><polygon class="cls-21" points="190.09 509.95 197.75 507.78 204.09 421.79 198.24 421.51 190.09 509.95"/><polygon class="cls-20" points="198.98 465.28 197.09 488.51 297.14 496.54 302.41 475.44 198.98 465.28"/><polygon class="cls-20" points="314.43 427.22 291.93 517.45 327.1 519.62 335.74 428.26 314.43 427.22"/><polygon class="cls-21" points="327.1 519.62 334.91 515.54 341.58 428.54 335.74 428.26 327.1 519.62"/><polygon class="cls-22" points="162.26 390.45 362.93 397.45 360.1 429.45 162.26 419.78 162.26 390.45"/><g class="cls-23"><polygon class="cls-24" points="159.76 420.78 200.1 386.28 223.1 387.28 188.1 428.28 159.76 420.78"/><polygon class="cls-24" points="253.1 386.28 227.6 432.45 249.76 433.78 285.6 388.95 253.1 386.28"/><polygon class="cls-24" points="326.26 388.28 285.6 438.12 326.26 442.12 353.43 390.45 326.26 388.28"/></g><polygon class="cls-25" points="162.26 390.45 362.93 397.45 360.1 429.45 162.26 419.78 162.26 390.45"/><g class="cls-26"><path class="cls-27" d="M309.9,518.56s9.15-69.4,20.25-31.26"/><path class="cls-27" d="M303.26,518.56s10.13-103.26,29-53.35"/><path class="cls-27" d="M307,457.14s11.1-30.93,27.37-21.19"/><path class="cls-27" d="M187.1,421.51s-5.37,32.06,9.48,18"/><path class="cls-27" d="M181.26,421.51s-13.42,64.21,14.21,30.07"/><path class="cls-27" d="M170.21,446.53s-3,21.59,7.79,26.08c12.09,5,1.95,36.14,1.95,36.14"/><path class="cls-27" d="M160,486s25.58-18.89,6.58,21.69"/></g><path class="cls-28" d="M284.25,473.42s-15.16,12.51,15.37,13.19"/><path class="cls-28" d="M270.52,472.31s-25.72,19.94,27.09,22.35"/><path class="cls-28" d="M253.78,470.66s-17.85,14.35,2.61,22.61"/><path class="cls-28" d="M237.1,469s-9.53,15-40,11"/><path class="cls-28" d="M217.09,467.29s-5.21,6.3-18.85,5"/><ellipse class="cls-29" cx="79.91" cy="523.1" rx="27.25" ry="15.34" transform="translate(-83.93 19.93) rotate(-9.35)"/><path class="cls-29" d="M116.5,507.7S94.12,504,107.05,475L121.7,498.6Z"/><path class="cls-29" d="M118.75,510.18c27.06-.38,28.49-36.3-2-43.62,0,0,6.18,14,.08,23.83S111.32,510.28,118.75,510.18Z"/><path class="cls-29" d="M58.59,535a22.26,22.26,0,0,0-3.68,9.29"/><path class="cls-29" d="M60.74,500.77s4.81,4.88,5.72,10.41"/><path class="cls-29" d="M91.37,495.34s-3,6.16-2.08,11.69"/><path class="cls-29" d="M66.89,538.74a22.29,22.29,0,0,0-.34,10"/><path class="cls-29" d="M105,527.32a22.36,22.36,0,0,1,6.45,7.62"/><path class="cls-29" d="M98.36,533.56a22.22,22.22,0,0,1,3.53,9.34"/><circle class="cls-30" cx="60.57" cy="500.41" r="4.65"/><circle class="cls-31" cx="59.16" cy="499.31" r="1.31"/><path class="cls-32" d="M63.2,500.33a1,1,0,0,0-1.23.53,1.5,1.5,0,0,1-1.31.93,1,1,0,1,0,.07,1.9,4.07,4.07,0,0,0,.49-.05,3.33,3.33,0,0,0,2.51-2.08A.94.94,0,0,0,63.2,500.33Z"/><circle class="cls-30" cx="90.91" cy="495.8" r="4.65"/><circle class="cls-31" cx="89.5" cy="494.7" r="1.31"/><path class="cls-32" d="M93.54,495.72a1,1,0,0,0-1.24.54,1.47,1.47,0,0,1-1.31.92,1,1,0,1,0,.08,1.9,2.81,2.81,0,0,0,.49-.05A3.34,3.34,0,0,0,94.07,497,1,1,0,0,0,93.54,495.72Z"/><path class="cls-33" d="M39,511.33S34.52,529.21,52.61,525"/><path class="cls-33" d="M106.89,520.54s15,4.73,12.83-8.75"/><path class="cls-29" d="M39.71,511.74S58.64,499.27,35,478l-3.78,27.54Z"/><path class="cls-29" d="M38.66,514.93c-24.88,10.66-40.79-21.58-15.94-40.66,0,0,.05,15.32,9.62,21.81S45.49,512,38.66,514.93Z"/><path class="cls-34" d="M52,459.8,41.58,445a2.69,2.69,0,0,1,4.4-3.1l.13.2,9.08,15.69a1.89,1.89,0,0,1-3.18,2Z"/><path class="cls-34" d="M65,448.89l-2.55-22a2.83,2.83,0,0,1,5.63-.65c0,.08,0,.16,0,.24l.68,22.17a1.89,1.89,0,0,1-3.77.27Z"/><path class="cls-34" d="M83.73,453.17l2.74-18.93a2.84,2.84,0,1,1,5.62.81,2.74,2.74,0,0,1,0,.28l-4.6,18.56a1.89,1.89,0,0,1-3.71-.72Z"/><polygon class="cls-20" points="436.26 427.22 515.1 386.66 524.47 410.41 438.93 434.78 436.26 427.22"/><path class="cls-35" d="M436.57,426l3.83,9.71-11.56,8.66-4.62-13.14c-.43-1.31-.83-2.6-1.18-3.85Z"/><path class="cls-35" d="M433.29,470.12l-14.63,4.51-.19-.63c3-9.45-4.12-13.24-4.12-13.24l14.2-4.44.06.2s-3.5,7.27,4.52,13.1Z"/><path class="cls-36" d="M423,427.33c.35,1.25.75,2.54,1.18,3.85l4.62,13.14,3.76,10.74-4.05,1.26-14.2,4.44-4.67,1.47s-26.17-63.59,17.15-78.84C426.83,383.39,414.8,398.38,423,427.33Z"/><polygon class="cls-36" points="451.58 485.97 415 498.36 410.88 477.03 418.66 474.63 433.29 470.12 442.47 467.29 451.58 485.97"/><path class="cls-37" d="M414.35,460.76l-4.67,1.47s-26.17-63.59,17.15-78.84c0,0-12,15-3.79,43.94.35,1.25.75,2.54,1.18,3.85l4.62,13.14,3.76,10.74-4.05,1.26Z"/><path class="cls-37" d="M414.35,460.76s7.13,3.79,4.12,13.24"/><path class="cls-37" d="M428.61,456.52s-3.5,7.27,4.52,13.1"/><polygon class="cls-37" points="433.29 470.12 442.47 467.29 451.58 485.97 415 498.36 410.88 477.03 418.66 474.63 433.29 470.12"/><polyline class="cls-37" points="423.03 427.33 423.04 427.33 436.57 425.95 440.4 435.66 428.83 444.32"/><path class="cls-3" d="M458.6,337.45s-29.34,61.33,11,112c0,0,52-35,26.66-105"/><path class="cls-4" d="M460.14,338.19c-.95,2.12-1.83,4.44-2.63,6.71s-1.53,4.61-2.19,7a132.44,132.44,0,0,0-3.2,14.2A118.08,118.08,0,0,0,450.75,395a102.7,102.7,0,0,0,2.17,14.29c.22,1.18.59,2.33.87,3.5s.6,2.33,1,3.46l1.1,3.44,1.28,3.37c.4,1.13.91,2.22,1.39,3.32s.94,2.21,1.5,3.27c1.1,2.13,2.14,4.3,3.42,6.33a100.87,100.87,0,0,0,8.16,11.85h0l-3.48-.54c.84-.58,1.82-1.32,2.71-2s1.79-1.5,2.67-2.28c1.74-1.57,3.44-3.21,5-4.94A84.7,84.7,0,0,0,487.36,427a81,81,0,0,0,11.41-25.78,78,78,0,0,0,2.21-14l.15-1.77,0-1.78.07-3.56-.13-3.56c0-.6,0-1.19-.07-1.79l-.17-1.77A113.89,113.89,0,0,0,494.68,345a1.68,1.68,0,0,1,3.16-1.14,117.34,117.34,0,0,1,6.83,28.69l.2,1.85c.05.61.07,1.23.11,1.85l.19,3.71v3.72l0,1.86-.11,1.86a83.61,83.61,0,0,1-2.1,14.75,85.63,85.63,0,0,1-11.61,27.38,90,90,0,0,1-9.1,11.85c-1.67,1.86-3.44,3.62-5.27,5.33-.92.85-1.86,1.68-2.83,2.49s-1.93,1.57-3.07,2.38a2.51,2.51,0,0,1-3.47-.52h0a106.14,106.14,0,0,1-8.4-12.6c-1.31-2.17-2.37-4.46-3.5-6.72-.57-1.13-1-2.32-1.52-3.47s-1-2.32-1.42-3.52l-1.28-3.56-1.11-3.62c-.38-1.2-.69-2.42-1-3.65s-.64-2.44-.86-3.68a106,106,0,0,1-2-14.94,121.93,121.93,0,0,1,1.85-29.93,136.53,136.53,0,0,1,3.51-14.56c.72-2.39,1.5-4.77,2.36-7.11s1.77-4.65,2.87-7a1.72,1.72,0,0,1,3.12,1.43Z"/><circle class="cls-38" cx="302.77" cy="97.32" r="13.91"/><circle class="cls-39" cx="297.94" cy="94.28" r="3.03"/><circle class="cls-40" cx="266.71" cy="63.28" r="8.82"/><circle class="cls-39" cx="263.65" cy="61.36" r="1.92"/><circle class="cls-38" cx="274.08" cy="131.06" r="4.5"/><g class="cls-41"><ellipse class="cls-42" cx="526.36" cy="120.18" rx="7.07" ry="10.54" transform="translate(0.82 243.91) rotate(-26.11)"/><ellipse class="cls-42" cx="532.36" cy="141.75" rx="4.12" ry="5.56" transform="translate(-16.21 91.07) rotate(-9.63)"/></g></g></svg>