<svg xmlns="http://www.w3.org/2000/svg" xmlns:xlink="http://www.w3.org/1999/xlink" viewBox="0 0 590 670"><defs><style>.cls-1,.cls-15,.cls-17,.cls-25,.cls-6,.cls-8{fill:none;}.cls-2{opacity:0.4;}.cls-3{fill:#7acff4;}.cls-4{fill:#96a3e2;}.cls-5{fill:#6b7fc6;}.cls-6{stroke:#1c418c;}.cls-15,.cls-17,.cls-25,.cls-6,.cls-7,.cls-8{stroke-linecap:round;stroke-linejoin:round;}.cls-15,.cls-17,.cls-6,.cls-7,.cls-8{stroke-width:4.11px;}.cls-7{fill:#cae8ef;}.cls-15,.cls-7{stroke:#4b8087;}.cls-8{stroke:#82bbc4;}.cls-9{fill:#060b1c;}.cls-10{fill:#fff;}.cls-11{fill:#2b5599;}.cls-12{fill:#402b5e;}.cls-13{clip-path:url(#clip-path);}.cls-14{fill:#e87ce1;}.cls-16{fill:#1c418c;}.cls-17{stroke:#9bd5f9;}.cls-18{fill:#9bd5f9;}.cls-19{fill:#211f1f;}.cls-20{fill:#83d4ed;}.cls-21{fill:#f4cbb2;}.cls-22{fill:#ad5c51;}.cls-23{clip-path:url(#clip-path-2);}.cls-24{fill:#e8a3d3;}.cls-25{stroke:#211f1f;stroke-width:1.37px;}.cls-26{fill:#e5a785;}</style><clipPath id="clip-path"><path class="cls-1" d="M263.25,491.89l21.3,27.27s-12.74,10.5-21.07,1.72S263.25,491.89,263.25,491.89Z"/></clipPath><clipPath id="clip-path-2"><path class="cls-1" d="M245.76,206.18l22.8,17.51s-9.9,11.84-21.27,3.57S245.76,206.18,245.76,206.18Z"/></clipPath></defs><title>illustration_web_webhint_4</title><g id="nellie4"><g class="cls-2"><path class="cls-3" d="M503.59,214.27a.6.6,0,0,1-.11-.12c-5.77-7.82-19.69-7.15-3.34,29.67,19,42.84,46.32,104.23-23.43,188.51-63.72,77-9.17,161.17,48.62,70.41q5.5-9.57,10.21-19.65s0,0,0,0A256.26,256.26,0,0,0,559.48,374.5C559.48,313.93,537.21,259.5,503.59,214.27Z"/><path class="cls-3" d="M321.25,519C194.8,507,189.71,458,171,402.53c-28.33-84.2-40,50.14-66.19-23.53-14.4-40.46-1.15-68.1,7.53-135.33,6.48-50.19-32.67-5.34-48.44,32.43a256.87,256.87,0,0,0-19.47,98.4C44.47,516.71,159.76,632,302,632a258.1,258.1,0,0,0,59.31-6.87l.18,0c3-.71,6-1.49,9-2.31l.16,0C435.14,603,442.1,530.47,321.25,519Z"/><path class="cls-3" d="M111.29,186.25c19.25-18.5,43.25-73.5,91.5-80.25,0,0,21.63-19.2,8.5-21.85,0,0-59-8.65-108,46.1S92,204.75,111.29,186.25Z"/></g><path class="cls-4" d="M504.62,368.29s-8.82,60.65-62.54,30.13c-60.25-34.24-134.52-48-195,26.93-68.93,85.37,42.74,206.34,154.86,168,74-25.3,127.25-129.6,119-227.22,0,0,50.67-27.38,24.65-83.53,0,0-46.22,13.35-40.06,52,0,0-24.3-29.79-61.28-17.46C444.25,317.17,449.61,373.2,504.62,368.29Z"/><path class="cls-5" d="M451.44,448.81c0,13.52-12.14,34.23-37,34.23s-45.88-14-48.28-28.41C364,441.29,376,425.7,407.62,425.7,432.45,425.7,451.44,435.28,451.44,448.81Z"/><path class="cls-5" d="M361.14,407.47c.85,1.95-1.85,4.34-5.34,5.86s-7,1.15-7.86-.81.43-5.38,4.16-6.13C356.07,405.6,360.29,405.51,361.14,407.47Z"/><path class="cls-5" d="M401.37,503.65c-.77,2.47-4.32,2.87-8.72,1.5s-6.81-5.52-6-8,4.95-4.27,9-2C399.83,497.56,402.14,501.18,401.37,503.65Z"/><path class="cls-5" d="M442.76,492.94c-.82-3.61-7.15-4.3-15.42-2.42s-13.59,7.86-12.77,11.47,8,6.36,15.74,3.16C438.58,501.76,443.58,496.55,442.76,492.94Z"/><ellipse class="cls-5" cx="394.72" cy="389.43" rx="12.1" ry="27.85" transform="translate(-78.93 677.72) rotate(-75.94)"/><path class="cls-5" d="M458.37,410.45c-1.32,3.71-9.21,4.3-17.62,1.31s-14.16-8.44-12.84-12.15,8.9-2.81,17.31.18S459.7,406.73,458.37,410.45Z"/><path class="cls-5" d="M354.21,383.93c.71,3.52-5.76,7.18-13.61,8.76s-14.78,0-15.49-3.52,5.22-7.45,13.18-8.32C344.62,380.15,353.5,380.41,354.21,383.93Z"/><path class="cls-6" d="M504.62,368.29s-8.82,60.65-62.54,30.13c-60.25-34.24-134.52-48-195,26.93-68.93,85.37,42.74,206.34,154.86,168,74-25.3,127.25-129.6,119-227.22,0,0,50.67-27.38,24.65-83.53,0,0-46.22,13.35-40.06,52,0,0-24.3-29.79-61.28-17.46C444.25,317.17,449.61,373.2,504.62,368.29Z"/><path class="cls-7" d="M332.58,427.68C313.87,398,267.7,324.93,267.7,324.93s18.7,84.73,26,116.69c5.27,22.08,30.38,14.09,30.38,14.09S344.39,447.27,332.58,427.68Z"/><path class="cls-8" d="M328.05,421.53c-3.47,2.36-20.7,11.7-37.64,3.08"/><path class="cls-8" d="M311.67,394.53c-6.43,2.79-17,5.64-27.92,1.82"/><path class="cls-8" d="M293.91,366.43a39,39,0,0,1-16.51,1.44"/><circle class="cls-9" cx="252.41" cy="471" r="9.59"/><circle class="cls-10" cx="249.67" cy="467.92" r="3.22"/><path class="cls-11" d="M257.59,472.34a2.06,2.06,0,0,0-2.83.65,3.23,3.23,0,0,1-3.15,1.45,2.06,2.06,0,0,0-.59,4.07,7.23,7.23,0,0,0,7.22-3.34A2.06,2.06,0,0,0,257.59,472.34Z"/><circle class="cls-9" cx="306.73" cy="533.77" r="9.59"/><circle class="cls-10" cx="303.99" cy="530.69" r="3.22"/><path class="cls-11" d="M311.91,535.11a2.06,2.06,0,0,0-2.83.65,3.23,3.23,0,0,1-3.15,1.45,2.06,2.06,0,0,0-.59,4.07,7.35,7.35,0,0,0,1.06.07,7.22,7.22,0,0,0,6.16-3.41A2.06,2.06,0,0,0,311.91,535.11Z"/><path class="cls-12" d="M263.25,491.89l21.3,27.27s-12.74,10.5-21.07,1.72S263.25,491.89,263.25,491.89Z"/><g class="cls-13"><path class="cls-14" d="M258.55,519.93s6.58-15.4,30.08-7.36l-2.18,13.61-23.62,1.29Z"/></g><path class="cls-15" d="M332.58,427.68C313.87,398,267.7,324.93,267.7,324.93s18.7,84.73,26,116.69c5.27,22.08,30.38,14.09,30.38,14.09S344.39,447.27,332.58,427.68Z"/><path class="cls-4" d="M360.37,587.29s1.71,59.23,76,51.7c0,0-8.22-38-49.65-62.31"/><path class="cls-16" d="M362.25,587.24a46.25,46.25,0,0,0,.85,6.13,58,58,0,0,0,1.57,6.1,56,56,0,0,0,5.07,11.47,49.69,49.69,0,0,0,17.33,17.6,59.52,59.52,0,0,0,11.39,5.13c2,.59,4,1.24,6.07,1.63,1,.21,2.05.5,3.09.64l3.12.48a104.17,104.17,0,0,0,25.39.12h0l-2.16,3c-.17-.69-.37-1.52-.61-2.29s-.46-1.56-.73-2.34c-.49-1.57-1.11-3.11-1.68-4.66a98.67,98.67,0,0,0-4.18-9.05c-1.52-2.95-3.24-5.81-5-8.62l-2.81-4.13-3-4c-1-1.36-2.13-2.56-3.21-3.83s-2.16-2.56-3.37-3.71l-3.53-3.55c-1.2-1.16-2.5-2.22-3.74-3.33-2.44-2.29-5.2-4.2-7.84-6.25-1.3-1.06-2.77-1.88-4.16-2.82l-4.21-2.74-.11-.07a1.79,1.79,0,0,1,1.92-3l4.39,2.75c1.45.94,3,1.76,4.33,2.83,2.77,2.07,5.65,4,8.22,6.33,1.31,1.13,2.67,2.21,3.93,3.39l3.72,3.62c1.28,1.18,2.4,2.51,3.57,3.79s2.36,2.54,3.4,3.93l3.23,4.07,3,4.26c1.92,2.89,3.76,5.84,5.4,8.91s3.15,6.2,4.53,9.4c.64,1.63,1.32,3.24,1.87,4.91.29.82.57,1.66.82,2.51s.5,1.67.74,2.63a2.4,2.4,0,0,1-1.76,2.91l-.36.06h-.05a108.6,108.6,0,0,1-26.53-.44l-3.31-.54c-1.1-.17-2.18-.48-3.27-.72-2.19-.44-4.32-1.16-6.47-1.81a64.32,64.32,0,0,1-12.23-5.68A54,54,0,0,1,366.23,613a59,59,0,0,1-5.29-12.35,60.64,60.64,0,0,1-1.61-6.51,49,49,0,0,1-.84-6.76,1.88,1.88,0,0,1,3.76-.2Z"/><circle class="cls-17" cx="46.61" cy="426.67" r="16.09"/><circle class="cls-18" cx="41.01" cy="423.16" r="3.51"/><circle class="cls-17" cx="498.2" cy="253.14" r="16.09"/><circle class="cls-18" cx="492.61" cy="249.63" r="3.51"/><circle class="cls-17" cx="52.38" cy="313.03" r="10.2"/><circle class="cls-18" cx="48.83" cy="310.81" r="2.22"/><circle class="cls-17" cx="77.98" cy="457.12" r="10.2"/><circle class="cls-18" cx="74.44" cy="454.89" r="2.22"/><circle class="cls-17" cx="496.12" cy="175.93" r="10.2"/><circle class="cls-18" cx="492.58" cy="173.7" r="2.22"/><circle class="cls-17" cx="144.32" cy="529.72" r="12.75"/><circle class="cls-18" cx="139.89" cy="526.94" r="2.78"/><circle class="cls-17" cx="62.58" cy="350.33" r="5.21"/><circle class="cls-17" cx="65.38" cy="499.21" r="5.21"/><circle class="cls-17" cx="164.54" cy="558.88" r="7.47"/><circle class="cls-17" cx="189.09" cy="564.07" r="5.2"/><circle class="cls-17" cx="441.78" cy="134.9" r="7.47"/><circle class="cls-17" cx="492.58" cy="142.37" r="5.83"/><circle class="cls-17" cx="516.82" cy="205.86" r="7.47"/><circle class="cls-17" cx="421.57" cy="117.47" r="5.2"/><path class="cls-19" d="M206.27,224.08S201.6,211,148.56,208.26c0,0-41.19-2.48-25.56-52.28,0,0,6.46-19.34-9.4-2-18.67,20.46-20.87,73.87,33.9,77.24S206.27,224.08,206.27,224.08Z"/><ellipse class="cls-20" cx="109.9" cy="166.62" rx="3.25" ry="1.77" transform="translate(-81.71 222.51) rotate(-72.85)"/><ellipse class="cls-20" cx="106.23" cy="181.1" rx="3.91" ry="1.83" transform="translate(-89.32 257.54) rotate(-80.95)"/><ellipse class="cls-20" cx="107.45" cy="196.91" rx="2.05" ry="4.38" transform="translate(-48.02 35.21) rotate(-15.26)"/><ellipse class="cls-20" cx="116.4" cy="212.13" rx="2.35" ry="5.02" transform="matrix(0.67, -0.74, 0.74, 0.67, -118.84, 155.47)"/><ellipse class="cls-20" cx="132.52" cy="221.56" rx="2.57" ry="5.5" transform="translate(-121.44 267.98) rotate(-69.47)"/><path d="M184.44,231.18l12.12-14.3c-7.79-3.45-21.71-7.12-46.41-8.53,8.34,3.78,12.15,11.42.56,23.08C165.55,232.22,176.45,232,184.44,231.18Z"/><path class="cls-19" d="M111.14,299.79c-6.61,12.33-6.29-6.18-6.29-6.18s-.87-37.79,40-66.08c44.51-30.78,73.28.32,73.28.32,40.36,39.69,17.14,64.45,4.18,76.44-14.92,13.82-31,21.84-41.45,36.37-9,12.45-19.94,25.17-13.14,1.11,6.49-23,24.76-41.14,34.88-50.16,12-10.74,11.42-21.32,11.42-21.32-4.31,13.83-26.91,25.19-38,36.2C153.55,328.94,150,349.81,150,349.81c-3,15.29-8.43,16.52-10.12-.46-4-40.41,30.45-66.91,42.7-77.36,11.39-9.72,12.88-14.18,12.88-14.18-40.84,21.95-57.57,43.67-74.93,81.45-11,23.95-13.36,5.28-6.86-17.13,15.17-52.38,44.82-72.51,66.53-83.79C180.21,238.34,142,242.18,111.14,299.79Z"/><path d="M218.15,227.85s-19.51-21.08-51.25-11.34c14.61,3.18,73,18.75,72.24,64.24C243.4,267.52,240.69,250,218.15,227.85Z"/><path class="cls-19" d="M304.52,276c-45.59-3.7-128.47-63.22-145.3-105.75-13-32.94,27.09-94.57,65.26-101.42C279.37,59,375,124.94,378.37,181.39,380.82,222.32,338.52,278.76,304.52,276Z"/><path class="cls-19" d="M221.34,79.47c6.22-35.59,32.72-49.12,32.72-49.12s25.31,17.71,27.82,53.8"/><path class="cls-19" d="M372.74,168.36c11.46-34.27-5.4-58.78-5.4-58.78s-30.69,3.53-50.07,34.07"/><path class="cls-21" d="M239.14,237.05c37.61,27.51,69.26,39.69,93.43,16.15s14.4-53.7-1.05-62.59-37.92-24.25-37.92-24.25l-3.42-2.51s-21.46-16.77-34.61-28.79-44.86-12.21-60,18,6.1,56.64,43.7,84.14Z"/><circle class="cls-22" cx="264.49" cy="205.99" r="5.1"/><ellipse class="cls-10" cx="231.69" cy="169.4" rx="24.71" ry="17.01" transform="translate(-49.53 226.78) rotate(-47.7)"/><ellipse class="cls-22" cx="231.69" cy="175.93" rx="18.84" ry="12.16" transform="translate(-59.13 168.49) rotate(-35.75)"/><circle class="cls-10" cx="233.81" cy="170.29" r="3.39"/><ellipse class="cls-10" cx="306.12" cy="225.68" rx="24.71" ry="17.01" transform="translate(-66.81 300.23) rotate(-47.7)"/><ellipse class="cls-22" cx="306.12" cy="232.2" rx="18.84" ry="12.16" transform="translate(-77.98 222.58) rotate(-35.75)"/><circle class="cls-10" cx="308.24" cy="226.56" r="3.39"/><path class="cls-22" d="M245.76,206.18l22.8,17.51s-9.9,11.84-21.27,3.57S245.76,206.18,245.76,206.18Z"/><g class="cls-23"><path class="cls-24" d="M237.57,201.32s25.37,6.09,13.81,31.4l-21-16.15Z"/></g><path class="cls-25" d="M185.22,133.45S129.53,102.82,86.84,98"/><path class="cls-25" d="M180,146.55s-59.91-21.23-102.82-19.08"/><path class="cls-25" d="M321.26,268.25s16.68,36.27,14.29,67"/><path class="cls-25" d="M308.44,272s4.37,17.66-.83,60.1"/><path class="cls-26" d="M237.68,241.18l-.08-.06-.08-.06Z"/><path class="cls-26" d="M254,139.07c13.14,12,34.6,28.79,34.6,28.79l3.43,2.51s22.47,15.37,37.92,24.26c11.49,6.61,19.84,25,13.39,43.7,9.24-20,.55-40.63-11.77-47.72-15.44-8.88-37.92-24.25-37.92-24.25l-3.42-2.51s-21.46-16.77-34.61-28.79-44.86-12.21-60,18a50,50,0,0,0-2.5,5.9c.28-.63.56-1.26.88-1.89C209.08,126.86,240.8,127.05,254,139.07Z"/><path class="cls-26" d="M239.3,237.16l-.08,0-.08-.06Z"/></g></svg>