<svg xmlns="http://www.w3.org/2000/svg" xmlns:xlink="http://www.w3.org/1999/xlink" viewBox="0 0 578 424"><defs><style>.cls-1,.cls-17,.cls-19,.cls-21,.cls-22,.cls-26,.cls-27,.cls-28,.cls-5{fill:none;}.cls-2{fill:#f4eac1;}.cls-14,.cls-3{fill:#96a3e2;}.cls-4{fill:#6579c4;}.cls-14,.cls-5{stroke:#1c418c;}.cls-13,.cls-14,.cls-16,.cls-17,.cls-19,.cls-20,.cls-21,.cls-22,.cls-27,.cls-28,.cls-5{stroke-linecap:round;stroke-linejoin:round;}.cls-13,.cls-14,.cls-16,.cls-17,.cls-20,.cls-21,.cls-22,.cls-27,.cls-5{stroke-width:3.77px;}.cls-6{clip-path:url(#clip-path);}.cls-7{fill:#6b7fc6;}.cls-8{fill:#bbc6ef;}.cls-9{fill:#1c418c;}.cls-10{fill:#060b1c;}.cls-11,.cls-18{fill:#fff;}.cls-12{fill:#2b5599;}.cls-13{fill:#3a6287;stroke:#164466;}.cls-15{fill:#56c7d6;opacity:0.55;}.cls-16{fill:#89a7af;}.cls-16,.cls-17{stroke:#4b5e5e;}.cls-18{opacity:0.2;}.cls-19{stroke:#060b1c;stroke-width:6px;}.cls-20{fill:#cae8ef;}.cls-20,.cls-22{stroke:#4b8087;}.cls-21{stroke:#82bbc4;}.cls-23{fill:#d3efef;stroke:#6c828c;stroke-width:3.78px;}.cls-23,.cls-26{stroke-miterlimit:10;}.cls-24{fill:#6c828c;opacity:0.32;}.cls-25{fill:#e59470;}.cls-26{stroke:#f4cd9d;stroke-width:3.77px;}.cls-27{stroke:#d43e2b;}.cls-28{stroke:#9bd5f9;stroke-width:3.55px;}.cls-29{fill:#9bd5f9;}</style><clipPath id="clip-path"><path class="cls-1" d="M485.38,85.42s-31.5,29-83-4.5-176-57.1-210.5,54.5c-36.67,118.63,117.17,180.07,195,137,79.26-43.86,117-173.5,117-173.5s61,14.5,56.5-53c0,0-35-8.5-53.5,26,0,0,7-39.5-31.5-46C475.38,25.92,449.93,70.73,485.38,85.42Z"/></clipPath></defs><title>illustration_web_webhint_2</title><g id="nellie2"><ellipse class="cls-2" cx="178.13" cy="379.07" rx="162.5" ry="15.74"/><ellipse class="cls-2" cx="361.09" cy="389.27" rx="90.96" ry="8.81"/><ellipse class="cls-2" cx="432.11" cy="367.24" rx="45.48" ry="4.41"/><path class="cls-3" d="M226.76,266.9s33.62-16.48,52.37-4.48c0,0-32.57,56.77-68.75,29.25-17.75-13.5,16.38-24.77,16.38-24.77"/><path class="cls-4" d="M236.27,263.2c9.74,2.59,17.11,10,17.33,27.84,0,0,21.53-19.12,25.53-28.62C279.13,262.42,270.23,251,236.27,263.2Z"/><path class="cls-5" d="M226.76,266.9s33.62-16.48,52.37-4.48c0,0-32.57,56.77-68.75,29.25-17.75-13.5,16.38-24.77,16.38-24.77"/><path class="cls-3" d="M485.38,85.42s-31.5,29-83-4.5-176-57.1-210.5,54.5c-36.67,118.63,117.17,180.07,195,137,79.26-43.86,117-173.5,117-173.5s61,14.5,56.5-53c0,0-35-8.5-53.5,26,0,0,7-39.5-31.5-46C475.38,25.92,449.93,70.73,485.38,85.42Z"/><g class="cls-6"><ellipse class="cls-7" cx="357.29" cy="75.35" rx="21.67" ry="41.69" transform="translate(153.99 378.67) rotate(-68.08)"/><path class="cls-7" d="M378.9,124c-1.6,7.23-11.5,8.58-19.94,6.71s-13-7.17-10.59-13.49c1.86-4.92,8.9-7.78,17.33-5.9S380,118.91,378.9,124Z"/><ellipse class="cls-7" cx="393.05" cy="117.75" rx="4.5" ry="7.42" transform="translate(230.11 494.32) rotate(-83.28)"/><path class="cls-8" d="M250.89,267s-4.77-43.09,119.83-13.26c0,0,50.91-12.3,116.51-106.26,49-70.18,11.07,81.29,11.07,81.29L467,292.08l-133.66,37-56-8.33-28.43-4.91Z"/></g><path class="cls-5" d="M487.13,85.42s-31.5,29-83-4.5-176-57.1-210.5,54.5c-36.67,118.63,117.17,180.07,195,137,79.26-43.86,117-173.5,117-173.5s61,14.5,56.5-53c0,0-35-8.5-53.5,26,0,0,7-39.5-31.5-46C477.13,25.92,451.68,70.73,487.13,85.42Z"/><path class="cls-3" d="M347,245.75s-10,69.67,71.34,66.67c0,0-6.67-52-47-76.67"/><path class="cls-9" d="M348.32,245.94a58.24,58.24,0,0,0-.3,6.9c0,2.32.17,4.64.42,7a67,67,0,0,0,2.85,13.56A49.58,49.58,0,0,0,366.12,296a52.28,52.28,0,0,0,11.46,7.38c1,.48,2.11.88,3.16,1.33l1.58.66,1.64.53,3.28,1.05,3.35.81a100.9,100.9,0,0,0,27.62,2.11l-2.41,2.84h0a102.42,102.42,0,0,0-2.17-11c-.92-3.68-2-7.33-3.22-10.92a123.45,123.45,0,0,0-9.23-20.8,100.35,100.35,0,0,0-6.09-9.61,87.88,87.88,0,0,0-7.13-8.85,84.76,84.76,0,0,0-17.35-14.64h0a1.31,1.31,0,0,1,1.39-2.23,87.66,87.66,0,0,1,18.34,14.67,93.16,93.16,0,0,1,7.62,9,103.51,103.51,0,0,1,6.55,9.78,127.63,127.63,0,0,1,10.09,21.22q2.06,5.52,3.62,11.21.8,2.83,1.45,5.72c.43,1.94.82,3.82,1.14,5.88h0v0a2.49,2.49,0,0,1-2.16,2.78l-.25,0a106.06,106.06,0,0,1-28.85-2.81l-3.53-.93c-1.16-.38-2.31-.8-3.47-1.19l-1.73-.6-1.69-.74c-1.12-.5-2.26-1-3.35-1.5A56.44,56.44,0,0,1,363.56,299a49.75,49.75,0,0,1-9.45-11.26,57.57,57.57,0,0,1-6-13.34,70.34,70.34,0,0,1-2.71-14.27c-.21-2.41-.32-4.82-.29-7.24a62,62,0,0,1,.47-7.28,1.37,1.37,0,0,1,1.54-1.18,1.36,1.36,0,0,1,1.17,1.51Z"/><circle class="cls-10" cx="216.81" cy="193.18" r="8.8"/><circle class="cls-11" cx="213.14" cy="192.25" r="2.96"/><path class="cls-12" d="M221.43,191.53a1.88,1.88,0,0,0-1.81,1.95,3,3,0,0,1-1.65,2.73,1.89,1.89,0,0,0,1.65,3.39,7,7,0,0,0,.84-.48,6.65,6.65,0,0,0,2.93-5.77A1.89,1.89,0,0,0,221.43,191.53Z"/><polygon class="cls-13" points="205.26 254.75 257.3 307.08 249.97 317.08 198.63 258.75 205.26 254.75"/><path class="cls-3" d="M217.76,296.17s-13.34-5.67-20-16,27.7-21.42,27.7-21.42.92,18.44-1.6,30.94"/><path class="cls-9" d="M217,297.91a58.73,58.73,0,0,1-7.36-3.94A55.31,55.31,0,0,1,203,289a38.49,38.49,0,0,1-5.8-6.15c-.44-.58-.82-1.12-1.25-1.8a7.16,7.16,0,0,1-1-2.6,7.81,7.81,0,0,1,1.15-5.24,16.27,16.27,0,0,1,3-3.53,31.26,31.26,0,0,1,3.39-2.67,61.38,61.38,0,0,1,7.19-4.19,120.77,120.77,0,0,1,15.14-6.3h0l.13,0a2.25,2.25,0,0,1,2.79,1.52,2.15,2.15,0,0,1,.09.61c0,2.66,0,5.25-.08,7.87s-.21,5.22-.39,7.83A105.25,105.25,0,0,1,225.17,290a1.34,1.34,0,0,1-2.63-.51v0a101.62,101.62,0,0,0,1.11-15.23q0-3.85-.09-7.69c-.09-2.55-.21-5.14-.4-7.65l3,2.09h0a116.86,116.86,0,0,0-14.59,5.85,57.25,57.25,0,0,0-6.73,3.8,18,18,0,0,0-5.19,4.8,3.69,3.69,0,0,0-.66,2.42,3.23,3.23,0,0,0,.43,1.13c.28.45.66,1,1,1.51a35.53,35.53,0,0,0,5.13,5.58,51.42,51.42,0,0,0,6.17,4.66,56.69,56.69,0,0,0,6.74,3.74l.07,0a1.88,1.88,0,0,1-1.54,3.44Z"/><path class="cls-14" d="M202.23,248.45c-25.75-21.5-42.95-51.21-42.7-87.53,0,0,18.77,10.16,30.36,28.61,4.45,7.07,11.55,22.37,13.91,30.39C208.8,236.92,202.23,248.45,202.23,248.45Z"/><ellipse class="cls-15" cx="164.77" cy="205.81" rx="24.69" ry="54.05" transform="translate(-88.73 133.41) rotate(-35.38)"/><path class="cls-16" d="M190.65,187c-20.2-28.45-48.26-43.21-62.67-33s-9.72,41.59,10.48,70,48.26,43.21,62.67,33S210.85,215.41,190.65,187Zm5.42,62.91c-11.12,7.9-34.14-5.43-51.43-29.77s-22.28-50.48-11.16-58.37,34.14,5.43,51.43,29.77S207.19,242,196.07,249.88Z"/><ellipse class="cls-17" cx="164.77" cy="205.81" rx="24.69" ry="54.05" transform="translate(-88.73 133.41) rotate(-35.38)"/><ellipse class="cls-11" cx="138.37" cy="188.1" rx="3.35" ry="5.51" transform="translate(-65.15 73.62) rotate(-24.3)"/><ellipse class="cls-11" cx="143.05" cy="201.07" rx="2.17" ry="3.56" transform="translate(-75.26 86.03) rotate(-26.78)"/><path class="cls-18" d="M164.22,235.35c11.32,10,22.41,14.26,28.54,9.91,8.9-6.32,4.06-28.47-10.75-49.88C178.77,216.84,169.79,229.41,164.22,235.35Z"/><path class="cls-19" d="M279.39,170.65a47.35,47.35,0,0,1,14.46-5.82"/><path class="cls-5" d="M242.13,188.17s6.38,13.37,13.63,10.62,2.12-17.12,2.12-17.12"/><path class="cls-20" d="M216.5,126.44c-25.91-22.72-89.72-78.74-89.72-78.74S206.12,78.86,236,90.86c15,5.77,3.85,26.64,3.85,26.64S229.25,135.73,216.5,126.44Z"/><path class="cls-21" d="M211.23,121.09c2.82-3,14.53-18.28,8.77-36"/><path class="cls-21" d="M187.55,101.05c3.69-5.8,8.08-15.62,6.06-26.8"/><path class="cls-21" d="M163,79.5A38.25,38.25,0,0,0,167,63.71"/><path class="cls-22" d="M216.5,126.44c-25.91-22.72-89.72-78.74-89.72-78.74S206.12,78.86,236,90.86"/><circle class="cls-23" cx="125.15" cy="343.32" r="24"/><circle class="cls-11" cx="140.7" cy="340.6" r="2.48"/><circle class="cls-11" cx="141.19" cy="346.27" r="1.2"/><path class="cls-24" d="M121.3,347.32a29.58,29.58,0,0,1-11.8-12.77,17.94,17.94,0,1,0,31.78,16.63A29,29,0,0,1,121.3,347.32Z"/><path class="cls-25" d="M75,355.12c14.47,2.13,64.49,8,118-2.57a3.1,3.1,0,0,1,3.14,4.85c-6.5,8.86-24.43,23.6-70.72,19.6-37.11-3.22-49-12.46-52.8-18.06A2.46,2.46,0,0,1,75,355.12Z"/><path class="cls-26" d="M108.16,358.23s7.76,15.68,53.41,17.68"/><path class="cls-26" d="M96.43,358.89s-1.24,11.59,14.92,16.44"/><path class="cls-26" d="M86.32,356.75s-2.84,8.25,1,12.45"/><path class="cls-27" d="M75,355.12c14.47,2.13,64.49,8,118-2.57a3.1,3.1,0,0,1,3.14,4.85c-6.5,8.86-24.43,23.6-70.72,19.6-37.11-3.22-49-12.46-52.8-18.06A2.46,2.46,0,0,1,75,355.12Z"/><path class="cls-25" d="M90.26,358.47c-20-14-66.87-52.05-27.2-78.88,0,0,1.6-18.6,17.91-17.83,0,0,19.84-31.39,36.66-3.52,0,0,28.87-9.33,27.67,21.79,0,0,47.14,19.4-38.88,78.47A14.21,14.21,0,0,1,90.26,358.47Z"/><path class="cls-26" d="M145.3,280s-30,15.42-35.73,76.28"/><path class="cls-26" d="M117.63,258.24S83.81,295.61,98.84,361.07"/><path class="cls-26" d="M81,261.76s-16,53.58,9.29,96.71"/><path class="cls-26" d="M63.06,279.59s-6.19,37,12.16,67.27"/><path class="cls-27" d="M90.26,358.47c-20-14-66.87-52.05-27.2-78.88,0,0,1.6-18.6,17.91-17.83,0,0,19.84-31.39,36.66-3.52,0,0,28.87-9.33,27.67,21.79,0,0,47.14,19.4-38.88,78.47A14.21,14.21,0,0,1,90.26,358.47Z"/><circle class="cls-28" cx="70.03" cy="142.99" r="13.91"/><circle class="cls-29" cx="65.2" cy="139.95" r="3.03"/><circle class="cls-28" cx="87.01" cy="187.59" r="8.82"/><circle class="cls-29" cx="83.94" cy="185.67" r="1.92"/><circle class="cls-28" cx="70.03" cy="220.25" r="4.5"/></g></svg>