<svg xmlns="http://www.w3.org/2000/svg" xmlns:xlink="http://www.w3.org/1999/xlink" viewBox="0 0 730 608"><defs><style>.cls-1,.cls-10,.cls-11,.cls-15,.cls-20,.cls-25,.cls-26,.cls-27,.cls-32{fill:none;}.cls-2{clip-path:url(#clip-path);}.cls-3{fill:#7acff4;}.cls-4{fill:#fff;}.cls-5{fill:#4046dd;}.cls-6{fill:#f4eac1;}.cls-7{opacity:0.4;}.cls-8{fill:#8eb2ed;}.cls-9{fill:#e59470;}.cls-10{stroke:#f4cd9d;}.cls-10,.cls-12{stroke-miterlimit:10;}.cls-10,.cls-12,.cls-15,.cls-28,.cls-32{stroke-width:3.77px;}.cls-11,.cls-12{stroke:#d43e2b;}.cls-11,.cls-15,.cls-20,.cls-24,.cls-25,.cls-26,.cls-27,.cls-28,.cls-32{stroke-linecap:round;stroke-linejoin:round;}.cls-11,.cls-20,.cls-24,.cls-25,.cls-26,.cls-27{stroke-width:3.77px;}.cls-12{fill:#e5655c;}.cls-13{fill:#d43e2b;}.cls-14{fill:#ceac7c;}.cls-15{stroke:#ceac7c;}.cls-16{fill:#96a3e2;}.cls-17{clip-path:url(#clip-path-2);}.cls-18{fill:#6b7fc6;}.cls-19{fill:#bbc6ef;}.cls-20,.cls-27{stroke:#1c418c;}.cls-21{fill:#1c418c;}.cls-22{fill:#060b1c;}.cls-23{fill:#2b5599;}.cls-24{fill:#cae8ef;}.cls-24,.cls-26{stroke:#4b8087;}.cls-25{stroke:#82bbc4;}.cls-27{opacity:0.7;}.cls-28{fill:#c15a3a;}.cls-28,.cls-32{stroke:#8e2d1c;}.cls-29{fill:#230906;}.cls-30{fill:#f4e4e4;}.cls-31{fill:#1a3b6b;}</style><clipPath id="clip-path"><path class="cls-1" d="M37.34,225.4c99-89.61,559.88-73.53,660,17,59.4,53.72-17.08,245.3-82,292.2-105.42,76.16-418,69.56-512-5C36.88,476.91-25.56,282.32,37.34,225.4Z"/></clipPath><clipPath id="clip-path-2"><path class="cls-1" d="M451.84,369.86c-172,260.76-406.1-29.29-239-123.24,116.5-65.5,156.5,56,173.5,100s49.5,12,49.5,12S399.67,318,447,281.29c0,0,32,21.33,11.34,65,0,0,37.66-12.67,56,23C483,399,451.84,369.86,451.84,369.86Z"/></clipPath></defs><title>illustration_web_webhint_5</title><g id="nellie5"><g class="cls-2"><rect class="cls-3" x="-28.27" y="153.81" width="816.61" height="119.81"/><path class="cls-4" d="M752.34,286.87l-36-73.15L642,194.48A56.34,56.34,0,1,0,533.1,220a38,38,0,1,0,2.53,66.84Z"/><path class="cls-4" d="M109.87,237.54c-.51,0-1,0-1.51,0a45.3,45.3,0,1,0-74.55-23.86c-29.23,2.63-61.5,5.24-67.47,4.49L-37,292.14l130.25-8.73a26,26,0,1,0,16.66-45.87Z"/><rect class="cls-5" x="-19.66" y="273.62" width="772" height="311.33"/><path class="cls-6" d="M-39,333.33s54-13.95,126,25c67.79,36.63,160.67,20.88,160.67,20.88s40.8,19.59,69.4,60.36,201.27-6.2,260.6,59.61,184,4.67,184,4.67l10.67,92-426.67,57.8-251.33-44S-57.66,483-58.33,481s-11.33-67.34-11.33-67.34Z"/><g class="cls-7"><path class="cls-8" d="M433.34,438.62s117.5-11.6,169,38.53c47.73,46.46,174.5,8.57,174.5,8.57l-4.5-44.3s-99.23,41.15-154.5,17.29C563.29,435.17,547.84,412.62,433.34,438.62Z"/><path class="cls-8" d="M732.84,396.62s-46,35.79-123.5,30.4c0,0,55,20.6,111,5.6S732.84,396.62,732.84,396.62Z"/><path class="cls-8" d="M559.34,412.12s-66.5-28-231.5,0C327.84,412.12,446.84,362.62,559.34,412.12Z"/></g></g><path class="cls-9" d="M495.36,489.6c-16.18-.42-59.4-.52-57.84,21.79,0,0-9.62,12-.46,17,0,0-7.39,19.57,18.06,13.63,0,0,11,13.81,27.84.15,0,0,37.88,8.06,21-47.38C503.1,491.7,499.7,489.72,495.36,489.6Z"/><path class="cls-10" d="M483,542.15c2.52-1.44-3.11-19.7,21.51-45.38"/><path class="cls-10" d="M455.12,542c1.75-2.07,5.87-30.84,46.14-50.82"/><path class="cls-10" d="M437.06,528.37c-2.14-2.18,18-31.7,58.3-38.77"/><path class="cls-11" d="M495.36,489.6c-19-2.64-62.21,4.74-57.84,21.79,0,0-9.62,12-.46,17,0,0-7.39,19.57,18.06,13.63,0,0,11,13.81,27.84.15,0,0,37.88,8.06,21-47.38C503.1,491.7,499.66,490.2,495.36,489.6Z"/><path class="cls-12" d="M61.07,383.65a27.33,27.33,0,0,1,1.16-12.51,3.79,3.79,0,0,1,5.63-2c3,1.94,7.44,5.66,12.17,12.62a3.85,3.85,0,0,0,4.18,1.58c4-1.11,12-2.78,20.06-1.34a3.81,3.81,0,0,1,2.09,6.35,35.24,35.24,0,0,1-8.56,6.78,3.82,3.82,0,0,0-.87,6.11,33.68,33.68,0,0,1,7.31,10.14,3.81,3.81,0,0,1-4,5.33,37.42,37.42,0,0,1-15.21-5.38,3.83,3.83,0,0,0-5.29,1,48.08,48.08,0,0,1-13.07,13,3.81,3.81,0,0,1-5.92-2.9,55.72,55.72,0,0,1,1.41-14.74A3.82,3.82,0,0,0,58.64,403c-4-.17-10-1-15-3.92a3.81,3.81,0,0,1-.09-6.45,29,29,0,0,1,13.93-4.58A3.84,3.84,0,0,0,61.07,383.65Z"/><ellipse class="cls-13" cx="65.46" cy="392.5" rx="2.25" ry="1.88"/><ellipse class="cls-13" cx="70.59" cy="396.39" rx="1.02" ry="1.23" transform="translate(-328.53 449.44) rotate(-87.47)"/><ellipse class="cls-13" cx="67.02" cy="399.45" rx="1.02" ry="1.23" transform="translate(-334.99 448.81) rotate(-87.47)"/><ellipse class="cls-14" cx="98.09" cy="451.29" rx="3.17" ry="6.25" transform="translate(-361.96 410.76) rotate(-72.7)"/><ellipse class="cls-14" cx="95.07" cy="441.77" rx="1.58" ry="3.13" transform="translate(-354.99 401.18) rotate(-72.7)"/><ellipse class="cls-14" cx="112.2" cy="445.54" rx="0.95" ry="2.07" transform="translate(-346.55 420.2) rotate(-72.7)"/><ellipse class="cls-14" cx="241.74" cy="522.68" rx="3.79" ry="7.24" transform="translate(-301.36 714.19) rotate(-84.6)"/><ellipse class="cls-14" cx="235.49" cy="530.85" rx="1.9" ry="3.62" transform="translate(-315.15 715.38) rotate(-84.6)"/><ellipse class="cls-14" cx="251.57" cy="532.77" rx="1.14" ry="2.4" transform="translate(-302.5 733.12) rotate(-84.6)"/><path class="cls-15" d="M163.74,433c15.61-1.82,36.34-2.79,59.34,3.84"/><path class="cls-16" d="M451.84,369.86c-172,260.76-406.1-29.29-239-123.24,116.5-65.5,156.5,56,173.5,100s49.5,12,49.5,12S399.67,318,447,281.29c0,0,32,21.33,11.34,65,0,0,37.66-12.67,56,23C483,399,451.84,369.86,451.84,369.86Z"/><g class="cls-17"><ellipse class="cls-18" cx="360.33" cy="286.78" rx="18.34" ry="40.74" transform="matrix(0.92, -0.4, 0.4, 0.92, -84.68, 168.26)"/><path class="cls-18" d="M350,338c-4.7,4.53-11.89-.75-16.49-7.57s-4.94-13.8-.17-17.12c3.71-2.59,9.78-.29,14.38,6.53S353.3,334.74,350,338Z"/><ellipse class="cls-18" cx="362.45" cy="342.15" rx="3.94" ry="7" transform="translate(-129.82 264.02) rotate(-34.33)"/><path class="cls-19" d="M167,410.12s23.07-42.5,117,14.5S442.34,394.9,442.34,394.9l-36,81.11-162,35.61-95.52-32.5-14-32Z"/></g><path class="cls-20" d="M451.84,369.86c-172,260.76-406.1-29.29-239-123.24,116.5-65.5,156.5,56,173.5,100s49.5,12,49.5,12S399.67,318,447,281.29c0,0,32,21.33,11.34,65,0,0,37.66-12.67,56,23C483,399,451.84,369.86,451.84,369.86Z"/><path class="cls-16" d="M145,362.62s10.45-10.8,45-6c0,0-3.66,22.55-30.66,46.32C159.34,402.94,139,394.29,145,362.62Z"/><path class="cls-21" d="M143.4,361.79a3.26,3.26,0,0,1,.51-.63l.17-.14.33-.29.66-.5c.44-.31.88-.61,1.33-.89s.9-.53,1.36-.78l1.38-.69a40.59,40.59,0,0,1,5.72-2.11,59.16,59.16,0,0,1,11.8-2.1c2-.23,4-.21,6-.32s3.95,0,5.93.07,3.94.22,5.9.38l5.87.64h0a2.17,2.17,0,0,1,1.88,2.41l0,.14a34.8,34.8,0,0,1-.94,3.69c-.37,1.16-.74,2.33-1.18,3.46l-.65,1.7-.71,1.67c-.46,1.12-1,2.2-1.52,3.29a95.8,95.8,0,0,1-7.36,12.39c-1.41,1.94-2.79,3.9-4.34,5.73-.76.92-1.48,1.88-2.28,2.76l-2.39,2.68c-.78.9-1.63,1.75-2.47,2.6l-2.52,2.54c-1.72,1.65-3.51,3.23-5.26,4.85h0a1.78,1.78,0,0,1-1.95.31,15.12,15.12,0,0,1-1.47-.78,14.79,14.79,0,0,1-1.32-.84,12.83,12.83,0,0,1-1.25-.9c-.4-.33-.83-.62-1.2-1a26.18,26.18,0,0,1-2.21-2.13l-1-1.12-.94-1.2a33.63,33.63,0,0,1-5.43-10.81L143,383c-.22-1-.31-2-.47-3l-.21-1.49a14.71,14.71,0,0,1-.09-1.49l-.13-3c0-2,.18-4,.27-5.93C142.67,366,143,363.88,143.4,361.79Zm3.21,1.67c-.17,1.69-.38,3.35-.63,5-.07,1.85-.25,3.7-.23,5.54l.12,2.76c0,.46,0,.92.08,1.37l.21,1.36c.15.9.23,1.82.43,2.7l.68,2.64a29.9,29.9,0,0,0,4.84,9.59l.83,1.06.91,1a22.46,22.46,0,0,0,1.93,1.85c.33.31.7.56,1,.84a11.22,11.22,0,0,0,1.08.77,10.85,10.85,0,0,0,1.11.7,10.43,10.43,0,0,0,1.06.57l-2,.32h0c1.68-1.6,3.39-3.15,5-4.77l2.4-2.5c.81-.83,1.62-1.66,2.36-2.54l2.28-2.62c.77-.86,1.44-1.8,2.17-2.69,1.46-1.78,2.77-3.69,4.11-5.56a93,93,0,0,0,6.87-11.92c.48-1,1-2.06,1.4-3.12l.65-1.58.59-1.6c.4-1.07.73-2.15,1-3.22s.61-2.21.78-3.15l1.88,2.55h0l-5.68-.71c-1.89-.19-3.79-.31-5.69-.47s-3.79-.15-5.69-.17-3.79,0-5.66.21a54.7,54.7,0,0,0-11.08,1.76,36.29,36.29,0,0,0-5.2,1.81l-1.23.59c-.4.2-.78.43-1.17.64s-.75.47-1.11.71l-.5.37-.22.18-.11.09A1,1,0,0,0,146.61,363.46Z"/><circle class="cls-22" cx="187.33" cy="315.2" r="9.39"/><circle class="cls-4" cx="184.59" cy="312.24" r="3.16"/><path class="cls-23" d="M192.43,316.41a2,2,0,0,0-2.76.69,3.16,3.16,0,0,1-3.06,1.49,2,2,0,1,0-.49,4,8.81,8.81,0,0,0,1,.06,7.09,7.09,0,0,0,6-3.47A2,2,0,0,0,192.43,316.41Z"/><circle class="cls-22" cx="277.85" cy="329.15" r="9.39"/><circle class="cls-4" cx="275.11" cy="326.19" r="3.16"/><path class="cls-23" d="M283,330.36a2,2,0,0,0-2.76.69,3.16,3.16,0,0,1-3.06,1.49,2,2,0,0,0-.49,4,7.17,7.17,0,0,0,7-3.41A2,2,0,0,0,283,330.36Z"/><path class="cls-24" d="M240.81,242.42C239.11,208,235,123.19,235,123.19s32.79,78.67,45,108.48c6.28,14.79-16.47,21.3-16.47,21.3S243,258,240.81,242.42Z"/><path class="cls-25" d="M241,234.9c4.12-.05,23.24-2.27,32-18.76"/><path class="cls-25" d="M238.9,204c6.74-1.39,16.85-5.06,23.48-14.3"/><path class="cls-25" d="M237.32,171.34a38.21,38.21,0,0,0,14.09-8.16"/><path class="cls-26" d="M240.81,242.42C239.11,208,235,123.19,235,123.19s32.79,78.67,45,108.48"/><line class="cls-27" x1="283.93" y1="302.87" x2="292.34" y2="313.64"/><line class="cls-27" x1="183.13" y1="290.54" x2="194.59" y2="286.87"/><path class="cls-6" d="M196.72,458.29s85.06-47.9,168.67,17.72-181,26.28-181,26.28Z"/><path class="cls-15" d="M196.72,458.29s85.06-47.9,168.67,17.72"/><path class="cls-28" d="M324.54,495.38s-11.83,9.86-21-9.66l18.64,2.95Z"/><path class="cls-16" d="M279.34,406.62S231,474.29,309,502.29c0,0,15.34-36.33,0-85.33"/><path class="cls-21" d="M280.38,407.37a89.41,89.41,0,0,0-7.06,12.95,84.85,84.85,0,0,0-4.91,13.91c-2.44,9.48-3,19.52-.4,28.8a43.65,43.65,0,0,0,6.19,12.9l1,1.47.53.73.59.67,2.37,2.72c.85.85,1.74,1.66,2.61,2.5.45.4.86.84,1.33,1.22l1.42,1.12c7.56,6.05,16.47,10.41,25.74,13.62h0l-3.09,1.35c.29-.71.62-1.56.9-2.37s.56-1.66.83-2.5c.55-1.67,1-3.39,1.45-5.09s.87-3.43,1.19-5.18.71-3.48,1-5.24a133.94,133.94,0,0,0,1.73-21.27c0-.89,0-1.78,0-2.67l-.09-2.68c-.05-1.78-.09-3.57-.29-5.34l-.46-5.34c-.21-1.77-.49-3.53-.74-5.3-.41-3.56-1.27-7-1.95-10.55l-.27-1.31c-.1-.44-.23-.86-.34-1.3l-.69-2.59-1.39-5.19,0-.09a1.53,1.53,0,0,1,2.94-.82l1.54,5.26.76,2.63c.13.44.26.88.38,1.32l.3,1.34c.78,3.57,1.72,7.11,2.23,10.74.29,1.81.62,3.61.87,5.42l.59,5.46c.24,1.82.32,3.65.42,5.48l.15,2.75c.05.91.1,1.83.08,2.75a137,137,0,0,1-1.31,22c-.22,1.83-.55,3.64-.88,5.45s-.74,3.61-1.12,5.42c-.2.9-.45,1.79-.68,2.69s-.46,1.79-.73,2.68-.52,1.78-.83,2.67-.59,1.75-1,2.72a2.39,2.39,0,0,1-3.08,1.36h0c-9.56-3.52-18.85-8.26-26.82-14.9l-1.5-1.23c-.5-.42-.94-.9-1.41-1.35-.92-.92-1.86-1.81-2.76-2.75l-2.52-3-.62-.75-.56-.81-1.11-1.61a47.4,47.4,0,0,1-6.46-14.2,51.28,51.28,0,0,1-1.54-15.43,68.5,68.5,0,0,1,2.5-15.16,88.93,88.93,0,0,1,5.35-14.29,92.25,92.25,0,0,1,7.58-13.25,1.28,1.28,0,0,1,2.11,1.44Z"/><ellipse class="cls-28" cx="348.5" cy="508.87" rx="18.5" ry="10.42"/><path class="cls-28" d="M377,503.71s15.17,2.66,13.42-18.84l-14.7,11.84Z"/><path class="cls-28" d="M375,504.79c-17.25-6.33-10.08-29.67,11.09-27.5,0,0-7.12,7.58-5.42,15.25S379.74,506.53,375,504.79Z"/><path class="cls-28" d="M326.81,495.32c11.82-14.08-6-30.75-23.29-18.34,0,0,9.94,3,12.28,10.54S323.57,499.19,326.81,495.32Z"/><path class="cls-28" d="M332.91,514.47a15.08,15.08,0,0,0-3.49,5.82"/><path class="cls-28" d="M338.12,491.79s2.68,3.81,2.68,7.61"/><path class="cls-28" d="M359.24,491.53s-2.68,3.81-2.68,7.61"/><path class="cls-28" d="M338.06,517.92a15,15,0,0,0-1.33,6.65"/><path class="cls-28" d="M364.87,514.47a15.12,15.12,0,0,1,3.48,5.82"/><path class="cls-28" d="M359.71,517.92a15.08,15.08,0,0,1,1.34,6.65"/><circle class="cls-29" cx="338.05" cy="491.53" r="3.16"/><circle class="cls-30" cx="337.23" cy="490.64" r="0.89"/><path class="cls-31" d="M339.82,491.77a.64.64,0,0,0-.88.22,1,1,0,0,1-1,.48.64.64,0,0,0-.15,1.28l.33,0a2.27,2.27,0,0,0,1.91-1.11A.64.64,0,0,0,339.82,491.77Z"/><circle class="cls-29" cx="358.89" cy="491.79" r="3.16"/><circle class="cls-30" cx="358.06" cy="490.9" r="0.89"/><path class="cls-31" d="M360.65,492a.65.65,0,0,0-.88.22,1,1,0,0,1-1,.48.65.65,0,0,0-.72.56.64.64,0,0,0,.56.72l.33,0a2.3,2.3,0,0,0,1.92-1.11A.65.65,0,0,0,360.65,492Z"/><path class="cls-32" d="M322.4,496.48s-5,11.48,7.6,10.64"/><path class="cls-32" d="M366.87,510.13s9.55,4.83,9.55-4.44"/><path class="cls-20" d="M214.84,333.9s10.5-13.77,24.16-4.38"/><path class="cls-13" d="M293.51,35.61l21,36s43.12-28.45,52.06,2.78S315,98.61,315,98.61l-6.5,43.5h36v-25s72,1.33,61.5-57.08S332,18.11,293.51,35.61Z"/><ellipse class="cls-13" cx="326.01" cy="168.03" rx="20" ry="14.77"/></g></svg>