<svg xmlns="http://www.w3.org/2000/svg" xmlns:xlink="http://www.w3.org/1999/xlink" viewBox="0 0 596.3 325.6"><style>.c{fill:#a1a587}.d{fill:none;stroke:#848764;stroke-linecap:round;stroke-linejoin:round}.e{fill:#989b79}.f{fill:#8a8f69}.g,.h{fill:#9198cc;stroke:#2b2b2b;stroke-width:.25;stroke-miterlimit:10}.h{fill:#d6d9ed}.j{fill:#7b86bf}.k{fill:#221f1f}.l{fill:#fff}.m{fill:#969595;stroke:#2b2b2b;stroke-width:.25;stroke-miterlimit:10}.n{fill:#edece4}</style><path d="M444.5 307.6s3.1-3.2 1.8-7.2-5.9-.5-7.3-5.4 3.2-5.3 3.3-10.1-6.8-5.1-8.3-10.1-1.7-7.1 2.1-8.2c4.6-1.3 12 9.2 12.6 13.9.7 5.4-4.8 10.9-2.2 13.5s7.8 7-2 13.6z" class="c"/><path d="M446.9 305.2s1.9-8.2-2.9-10.7 3.7-7.5 1.8-12.9-10.5-13.6-10.5-13.6" class="d"/><path d="M456 307.6s-3.1-3.2-1.8-7.2 5.9-.5 7.3-5.4-3.2-5.3-3.3-10.1 6.8-5.1 8.3-10.1 1.7-7.1-2.1-8.2c-4.6-1.3-12 9.2-12.6 13.9-.7 5.4 4.8 10.9 2.2 13.5s-7.8 7 2 13.6z" class="e"/><path d="M453.6 305.2s-1.9-8.2 2.8-10.7-3.7-7.5-1.8-12.9 10.6-13.7 10.6-13.7" class="d"/><path d="M444.7 307.5s5.5-3.9 4.7-10.2-8.6-2.4-9.4-10.2 6.3-7 7.8-14.1-8.6-9.5-9.4-17.3-.6-11.1 5.5-11.6c7.2-.7 15.2 17.1 14.9 24.3-.4 8.3-10.2 14.9-7 19.6s9.4 12.4-7.1 19.5z" class="f"/><path d="M449 304.7s5.1-11.7-1.2-16.8 7.6-10.2 6.4-18.6-12-23.3-12-23.3" class="d"/><path d="M286.6 197.5s-22.1 23.8-41.1 9.1a3.2 3.2 0 0 1-.6-4.5l.3-.3 27.3-27" class="g"/><path d="M465.2 106.6c34.6 1.1 97.3-23.8 97.4-23.8-2.4 3.8-4.9 7.7-7.7 11.7-9.3 13.3-7.2 25.8-16.8 35.6-16.7 17.7-51.7 35.7-78.5 52.2a411.9 411.9 0 0 1-82.9 38.2 81 81 0 0 1-19.8 4.6c-1.7.2-2.7-1.5-4.3-1.3l-1.3.1-2.9.2c-29 1.9-55.5-5.5-73.3-22.4-.6-2.1 190.1-95.1 190.1-95.1z" class="h"/><path d="M593.2 59.2l-18-4.3c-4.7-1.1-9.5 1.3-12.5 5.7l-.3-.1c-.7-5.3-3.9-9.6-8.6-10.7l-18-4.3c-.8-.1-1.6.5-1.7 1.3l-2.6 10.8c-2.1 8.6 2.1 17.1 9.2 18.8l1.8.4 1.2.3c-16.2 22.3-39.4 15.7-39.4 15.7s22.4 44.6 30.8 39.8c7.3-4.3 32-41.2 36.9-48.7l2.8.7c7.1 1.7 14.7-3.9 16.7-12.6l2.6-10.8c.4-.9 0-1.8-.9-2 .1 0 .1 0 0 0z" class="g"/><path d="M529.7 100.2l-8.5-7.3 3.7-1.1 3.6 6.4 1.2 2z" class="j"/><path d="M553 111.6c.8-1.4-8.8 5.9-11.5 4.4-1.6-.9-4.5-1.4-5.1-2.2-2.6-3.2-1.3-7.9-4.5-11.6-2.6-3.1-7.3-6.1-10.6-9.3l-1.9-1.8c-17-15.8-41-32.3-60.3-45.1a157.7 157.7 0 0 0-124.7-22.5l-3.5.9c-57.3 15.3-103 60.8-97.7 114.7 5.2 53 55.5 91.5 113.1 87.5l3.3-.2c25.2-2.3 49-13 67.4-30.4a166 166 0 0 1 49.6-33.2l2.6-1.1c2.7-1.2 5.3-2.4 7.8-3.7l25.9-10.5c12.2-3.9 28.1-10.3 35.4-17.4 2.9-3.1 12.6-14.8 14.7-18.5z" class="g"/><ellipse cx="244" cy="138.8" class="k" rx="5.8" ry="5.1"/><circle cx="245.2" cy="138.2" r="1" class="l"/><ellipse cx="310" cy="140.9" class="k" rx="7" ry="6.1"/><circle cx="308.8" cy="140.2" r="1.2" class="l"/><defs><ellipse id="a" cx="211.2" cy="89" rx="57.2" ry="53.2" transform="rotate(-73.3 211.2 89)"/></defs><clipPath id="b"><use overflow="visible" xlink:href="#a"/></clipPath><g clip-path="url(#b)"><path d="M155.9 92.7l132.5 20.2 7.1 1.1c4.2-2.9 5.2-8.4 4.2-12.8l-.2-.7-143.6-7.8z" class="h"/><path fill="none" stroke="#6b6b6b" stroke-linecap="round" stroke-linejoin="round" stroke-width=".3" d="M299.5 100.4s-4.5 11.6-11.8 12.4m-.2-12.4c-1.6 3.2-5.5 10.1-11.1 10.7m-.2-12c-1.7 3.4-5.5 9.6-10.8 10.2m-1.7-10.4c-2 3.5-5.4 8.2-10 8.7m-2-9.5c-2 3.3-5.2 7-9.3 7.5m-2.3-8.4c-2 3.2-5.1 6.6-9 7m-3.1-7.7c-2 2.8-4.8 5.4-8.2 5.8m-3.9-6.5a11.8 11.8 0 0 1-7.4 4.8m-5.2-5.2a13 13 0 0 1-6.8 3.4m-11.3-1.6c2-.4 3.9-1.2 5.5-2.5"/></g><path fill="none" stroke="#1a1a1a" stroke-linecap="round" stroke-linejoin="round" stroke-width=".8" d="M262.3 181.3a22.2 22.2 0 0 0 27-2.6"/><circle cx="328.7" cy="182.7" r="16" class="m"/><circle cx="328.7" cy="182.7" r="11" fill="#fff" stroke="#2b2b2b" stroke-miterlimit="10" stroke-width=".3" opacity=".8"/><path d="M343.5 188.6a18 18 0 0 1-3.4 5.2l7.4 4.9 4.2-4.7-8.2-5.4z" class="m"/><path fill="none" stroke="#969595" stroke-linecap="round" stroke-linejoin="round" stroke-width="2" d="M323.2 185.1a6.5 6.5 0 0 1 3.9-8.3" opacity=".5"/><path fill="#3b5ca9" d="M383.8 193.2s-18.2 26.8-39.2 15.2a3.2 3.2 0 0 1-1.3-4.3l.2-.4 21.6-29.1"/><path d="M385.1 191.7s-18.2 26.8-39.2 15.2a3.2 3.2 0 0 1-1.3-4.3l.2-.4 22.2-31" class="g"/><path d="M294.2 217.8s60.1 10.8 94.8-2.6a110.7 110.7 0 0 1-38.6 10.8c-34.5 3.3-56.9-8.5-56.2-8.2z" class="j"/><path fill="#cabeaa" d="M557.9 303.2h-.7c-3.7.2-36.9 2.4-41.5 1-4.8-1.5-229.2.5-236.4-1-7.2-1.5-116.4 1-121.8 0-5.4-1-81.8 2-89.5.5s-26.3-2.5-38.2-1c-4.8.5-9.7.3-14.5-.5-5.2-.9-10 2.5-10 7v1.2c0 3.9 3.7 7.1 8.4 7.1H566c4.6 0 8.4-3.2 8.4-7.1s-3.7-7.1-8.4-7.1l-8.1-.1z"/><path fill="#9198cc" d="M517.1 100.6l18.8-.8s-4.4 6.3 2.8 13.3c2.8 2.7 3.7 2 4.9 1.4 2.9-1.3 8.3-5.3 8.7-5.6 5.6-3.4-4.6 10.1-6.4 11.6-.9.7-7-1.2-11.3-2.2a5 5 0 0 1-3.4-2.8l-14.1-14.9z"/><path d="M117.4 306.5s4.9-5.1 2.9-11.5-9.4-.7-11.8-8.7 5.1-8.6 5.4-16.2-10.9-8.2-13.2-16.2-2.8-11.4 3.4-13.2c7.4-2.1 19.2 14.8 20.3 22.3 1.2 8.7-7.6 17.5-3.5 21.8s12.2 11.1-3.5 21.7z" class="c"/><path d="M121.3 301.1s3.1-13.1-4.5-17.2 5.9-12.1 2.9-20.7-16.9-21.9-16.9-21.9" class="d"/><path d="M135.8 306.5s-4.9-5.1-2.9-11.5 9.4-.7 11.8-8.7-5.1-8.6-5.4-16.2 10.9-8.2 13.2-16.2 2.8-11.4-3.4-13.2c-7.4-2.1-19.2 14.8-20.3 22.3-1.2 8.7 7.6 17.5 3.5 21.8s-12.2 11.1 3.5 21.7z" class="e"/><path d="M132 302.7s-3.1-13.1 4.6-17.2-5.9-12.1-2.9-20.7 17-21.9 17-21.9" class="d"/><path d="M117.7 306.3s8.8-6.3 7.5-16.3-13.8-3.8-15.1-16.3 10.1-11.3 12.6-22.6-13.9-15.3-15.1-27.8-.9-17.7 8.9-18.6c11.5-1.1 24.5 27.5 23.9 38.9-.7 13.3-16.3 23.9-11.3 31.4s15 20-11.4 31.3z" class="f"/><path d="M124.5 301.8s8.3-18.7-2-26.9 12.3-16.3 10.3-29.9-19.1-37.4-19.1-37.4" class="d"/><path d="M43.4 305.4s3-3.2 1.8-7.1-5.8-.5-7.3-5.4 3.2-5.3 3.3-10-6.7-5-8.2-10-1.7-7 2.1-8.1c4.5-1.3 11.9 9.1 12.5 13.8.7 5.4-4.8 10.8-2.2 13.4s7.6 6.9-2 13.4z" class="c"/><path d="M45.7 303.1s1.9-8.1-2.8-10.6 3.7-7.5 1.8-12.8-10.5-13.5-10.5-13.5" class="d"/><path d="M54.7 305.4s-3-3.2-1.8-7.1 5.8-.5 7.3-5.4-3.2-5.3-3.3-10 6.7-5 8.2-10 1.7-7-2.1-8.1c-4.5-1.3-11.9 9.2-12.5 13.8-.7 5.4 4.7 10.8 2.1 13.4s-7.6 6.9 2.1 13.4z" class="e"/><path d="M52.3 303.1s-1.9-8.1 2.8-10.6-3.7-7.5-1.8-12.8 10.5-13.5 10.5-13.5" class="d"/><path d="M43.5 305.3s5.4-3.9 4.7-10.1-8.5-2.3-9.3-10.1 6.2-7 7.8-14-8.6-9.4-9.3-17.2-.6-10.9 5.5-11.5c7.1-.7 15.1 17 14.7 24-.4 8.2-10.1 14.7-7 19.4s9.2 12.6-7.1 19.5z" class="f"/><path d="M47.7 302.5s5.1-11.5-1.2-16.5 7.6-10.1 6.3-18.5S41 244.4 41 244.4" class="d"/><path d="M384 303c.9-1 1.3-2.5 1-3.8-.7-2.1-3.1-.3-3.9-2.9s1.7-2.8 1.8-5.4-3.6-2.7-4.4-5.4-.9-3.8 1.1-4.4c2.4-.7 6.4 4.9 6.7 7.4.4 2.9-2.5 5.8-1.1 7.2s4 3.8-1.2 7.3z" class="c"/><path d="M385.3 301.8s1-4.4-1.5-5.7 2-4 1-6.9-5.6-7.3-5.6-7.3" class="d"/><path d="M392.5 303c-.9-1-1.3-2.5-1-3.8.7-2.1 3.1-.3 3.9-2.9s-1.7-2.8-1.8-5.4 3.6-2.7 4.4-5.4.9-3.8-1.1-4.4c-2.4-.7-6.4 4.9-6.7 7.4-.4 2.9 2.5 5.8 1.1 7.2s-4.1 3.8 1.2 7.3z" class="e"/><path d="M391.2 301.8s-1-4.4 1.5-5.7-2-4-1-6.9 5.6-7.3 5.6-7.3" class="d"/><path d="M384.1 303s2.9-2.1 2.5-5.4-4.6-1.3-5-5.4 3.3-3.8 4.2-7.5-4.6-5.1-5-9.2-.3-5.9 2.9-6.2c3.8-.4 8.1 9.1 7.9 12.9-.2 4.4-5.4 7.9-3.8 10.4s5 6.7-3.7 10.4z" class="f"/><path d="M386.3 301.5s2.7-6.2-.6-8.9 4.1-5.4 3.4-9.9-6.3-12.4-6.3-12.4" class="d"/><path fill="#707070" d="M376 301.2s5-11.2 17-12.2 32-9 32-9 16.9-2 33 6 23 18 23 18H376v-2.8zm-335.4 1.5s.3-15.4 12.3-19.6 41-18.6 41-18.6 23 3.4 30 10.4 20 31 20 31H42l-1.4-3.2z"/><path fill="#705961" d="M149 284l.3.8c.2.5 5 13.4 11.7 14.6 2.6.5 5.2 1.5 7.5 2.8 1.8 1.1 3.8 1.9 5.9 2.3l2.4.4c2.3.3 4.6 1 6.7 2 2.8 1 5.8 1.3 8.7.9 3.1-.2 6.3.2 9.2 1.3a16 16 0 0 0 5.6 1.4h.5l2-.3c4.1-.8 8.3-1.2 12.4-1.3l3.7.5c2.3.4 4.3.8 5.9-.2 3-1.9 8.7-4.7 10.8-4.1 2.9 1 6.2.3 8.5-1.7.8-.7 1.8-1.2 2.8-1.4 1.7-.2 3.5 0 5.2.3 1.9.3 3.4.6 4.2 0 12.8-8.5 14.9-15.4 15-15.7v-1.4L149 284z"/><path d="M189.4 281.4s-28.6-12.9-33.8-18.9 1.2-18.1 1.2-18.1.8-6.5 1.6-7.7c.8-1.2 6-6.4 6.4-10.1.4-3.6 4.4-4 8.5-7.3 4-3.3 3.2-6.9 7.7-7.7s11.3-2.8 13.7-5.2c2.4-2.4 8.9-.6 10.1-.5s4.8-2.2 8.5-2.9 6.4 2.8 9.3 2.9 8.1-2.3 10.1-.7c2.4 1.8 5 3.4 7.7 4.8 3.6 2 6.7-.8 12.2 8.9 0 0 1.1 2.4 7.1 3.6s3.2 6.9 5.6 9.3c2.4 2.4 6.8 7.7 7.3 11.3s10.9 22.2-35.9 37.9l-47.3.4z" class="n"/><path d="M188.9 280.6s-26.2 1.1-35.7 2.8l-4.1.7c1.2.8 2.4 1.7 3.5 2.7l1.3 1.6a5 5 0 0 0 4.6 1.6c1.3-.2 2.7 0 3.8.8 2.8 1.9 5.2 5.2 8.1 4.6 2.8-.6 9.7.6 11.7 2.7s2.8-1.2 6.4 0c3.6 1.2 8.1 3.2 9.7 2.8s3.2-2.7 6.8-1.9c3.6.7 1.2 1.6 6.5 2 5.2.4 3.6-2.7 8-2 4.4.7 4.4 3.5 9.3 1.3 4.9-2.1 12.9-5.4 17.3-3 4.4 2.4 3.5-2.4 6.4-2.4s4 4.4 7.5 1.2.7 0 5.7-2.8 6.2-5.2 9-5.2a3 3 0 0 0 3.4-2.5 475.5 475.5 0 0 0-89.2-5z" class="n"/><circle cx="213.5" cy="265.6" r="23.4" fill="#d3d3d1"/><path fill="#686868" d="M208.1 265.9l-8 3.2 8 3.2v3.1l-10.8-4.5v-3.5l10.8-4.5v3zm11.4-8.6l-7.8 22.3H208l7.8-22.3h3.7zm-1.2 14.8l8-3.2-8-3.2v-3.1l10.8 4.5v3.5l-10.8 4.6v-3.1z"/></svg>