<svg xmlns="http://www.w3.org/2000/svg" viewBox="0 0 682 558"><defs><style>.f,.g,.h,.j,.k,.w{fill:none}.x{fill:#96a3e2}.l{fill:#1c418c}.m{fill:#bbc6ef}.n{fill:#6b7fc6}.k{stroke:#1c418c}.f,.g,.h,.j,.k,.o,.p{stroke-linecap:round;stroke-linejoin:round}.f,.g,.k,.o,.p{stroke-width:3.77px}.y{fill:#402b5e}.q{fill:#e87ce1}.o{fill:#cae8ef}.g,.o{stroke:#4b8087}.f{stroke:#82bbc4}.h,.p{stroke:#127dc6}.h{stroke-width:10px}.p{fill:#a9e2ff}.r{fill:#7241bf}.s{fill:#845dd1}.t{fill:#bd8eed}.j{stroke:#9bd5f9;stroke-width:3.55px}.v{fill:#9bd5f9}</style><clipPath id="e"><path d="M102.1 420.4C368.5 343.9 320 138.8 205.8 123 93.4 107.5 61.6 199.8 90.6 287.4s-2.5 116-2.5 116-14.6-38.7-63.6-9.7c0 0 20.3 39.3 52 29.7 0 0-22.7 26.6.3 58.3 0 0 45.3-20 25.3-61.3z" class="w"/></clipPath><clipPath id="a"><path d="M222.2 197.1s-8.6-6-26.3-3c-1.9 19.9 19 43.7 26.3 3z" class="w"/></clipPath><clipPath id="b"><path d="M407.3 491l-23.6-389.3a17.2 17.2 0 0 1 13.8-18L618 38.2a22.4 22.4 0 0 1 27 23.4l-27.8 452.2a17.9 17.9 0 0 1-20.2 16.6l-174.5-23a17.5 17.5 0 0 1-15.2-16.4z" class="w"/></clipPath><clipPath id="c"><path d="M613.5 420.4C347 343.9 395.6 138.8 509.8 123 622.2 107.5 654 199.8 625 287.4s2.5 116 2.5 116 14.7-38.7 63.7-9.7c0 0-20.4 39.3-52 29.7 0 0 22.6 26.6-.4 58.3 0 0-45.3-20-25.3-61.3z" class="w"/></clipPath><clipPath id="d"><path d="M493.4 197.1s8.6-6 26.3-3c2 19.9-19 43.7-26.3 3z" class="w"/></clipPath></defs><path d="M284.1 262s20.7-15.7 61.4-15.7c0 0-3.4 54.4-76 52.7" class="x"/><path d="M283.4 261a56.2 56.2 0 0 1 7-4.3l1.8-.9 1.9-.8 3.7-1.7a116.6 116.6 0 0 1 15.5-5c2.6-.6 5.3-1.2 8-1.6l4-.7 4-.5a56 56 0 0 1 4-.4l4-.3 8.1-.3a1.8 1.8 0 0 1 1.9 1.7 1.8 1.8 0 0 1 0 .2 43.1 43.1 0 0 1-1.2 6.7 62.1 62.1 0 0 1-1.9 6.3 60.3 60.3 0 0 1-5.9 11.8 58.6 58.6 0 0 1-18.7 18.2 69 69 0 0 1-11.9 5.6c-2 .8-4 1.5-6.2 2-1 .3-2 .7-3.1.9l-3.2.7a114.9 114.9 0 0 1-25.8 2 1.6 1.6 0 1 1 0-3.2 111.8 111.8 0 0 0 25.1-2.1l3-.7 3-.8c2-.5 4-1.3 6-2a65.3 65.3 0 0 0 11.2-5.4 55.1 55.1 0 0 0 17.5-17.2 57.7 57.7 0 0 0 5.5-11.1 58.3 58.3 0 0 0 1.8-6 40.8 40.8 0 0 0 1-6l1.9 2c-2.7 0-5.3 0-8 .2l-4 .3-4 .3-3.8.4-4 .6c-2.6.4-5.2 1-7.7 1.5a114.1 114.1 0 0 0-15 4.6l-3.7 1.5-1.8.8-1.7.9a53.3 53.3 0 0 0-6.8 3.8 1.3 1.3 0 0 1-1.5-2z" class="l"/><path d="M102.1 420.4C368.5 343.9 320 138.8 205.8 123 93.4 107.5 61.6 199.8 90.6 287.4s-2.5 116-2.5 116-14.6-38.7-63.6-9.7c0 0 20.3 39.3 52 29.7 0 0-22.7 26.6.3 58.3 0 0 45.3-20 25.3-61.3z" class="x"/><g clip-path="url(#e)"><path d="M257.9 355.1s34-95.3-48.8-103.4c-116.5-11.5-86 79.2-103 133-3.6 11.7-29 44.7 12.4 30.8 52-17.3 139.4-60.4 139.4-60.4z" class="m"/><ellipse cx="83" cy="201.3" class="n" rx="29.3" ry="10.6" transform="rotate(-77.4 83 201.3)"/><path d="M102.4 199c-.7 5.3.4 9.6 2.7 10s7-4.5 7.6-9.8-1.3-9.5-4-9.9-5.6 4.3-6.3 9.7z" class="n"/><ellipse cx="98.1" cy="225.4" class="n" rx="6" ry="2.6" transform="rotate(-68.2 98.1 225.4)"/></g><path d="M102.1 420.4C368.5 343.9 320 138.8 205.8 123 93.4 107.5 61.6 199.8 90.6 287.4s-2.5 116-2.5 116-14.6-38.7-63.6-9.7c0 0 20.3 39.3 52 29.7 0 0-22.7 26.6.3 58.3 0 0 45.3-20 25.3-61.3z" class="k"/><path d="M98.1 259.7s-35.6-29.3-82-32.3c0 0 14.7 77.3 82 58" class="x"/><path d="M97.3 260.8a150.4 150.4 0 0 0-18.6-12 167 167 0 0 0-20-9.4c-3.4-1.4-6.9-2.6-10.4-3.7-1.7-.6-3.5-1-5.3-1.5l-2.6-.8-2.7-.6-5.4-1.2-5.4-.8-2.7-.4-2.7-.3-5.5-.4 2.4-2.8a97 97 0 0 0 3.9 13.4 101.5 101.5 0 0 0 5.6 12.9A71.2 71.2 0 0 0 45 275a49 49 0 0 0 11.7 7.4 51 51 0 0 0 13.3 3.8 69 69 0 0 0 27.8-2.3 1.5 1.5 0 0 1 .7 2.9 72.3 72.3 0 0 1-29 2.8 54.9 54.9 0 0 1-14.2-4 52.9 52.9 0 0 1-12.6-7.7 75.3 75.3 0 0 1-18.5-22.7 105 105 0 0 1-6-13.3 100.7 100.7 0 0 1-4.3-14.1 2.2 2.2 0 0 1 1.7-2.7 2.2 2.2 0 0 1 .7 0l5.7.6 2.8.3 2.8.5 5.6 1 5.5 1.3 2.7.7 2.7.8c1.8.6 3.7 1 5.5 1.7 3.5 1.3 7 2.5 10.5 4a171.7 171.7 0 0 1 20.2 10l4.9 2.9 4.7 3c3.1 2.1 6.1 4.3 9.1 6.7a1.4 1.4 0 0 1-1.7 2.2z" class="l"/><path d="M222.2 197.1s-8.6-6-26.3-3c-1.9 19.9 19 43.7 26.3 3z" class="y"/><g clip-path="url(#a)"><path d="M193 200.5s18.2-7 29.2 15.7c0 0-25.6 18.3-29.2-15.7z" class="q"/></g><path d="M181.7 120.2l39.6-104.3s-1.4 79.7-2.1 109.8c-.2 15-22 12-22 12s-19.5-3.3-15.5-17.5z" class="o"/><path d="M184.6 113.8c3.6 1.5 20.8 6.8 34.5-4m-24.7-23.2c6.3 1.3 16.4 2 25.5-3.5M205.3 58a35.5 35.5 0 0 0 15.1-1.7" class="f"/><path d="M181.7 120.2l39.6-104.3s-1.4 79.7-2.1 109.8" class="g"/><path d="M234.1 179.3s-23.6-20.1-45-3.5" class="h"/><path d="M175.2 211.6a8.5 8.5 0 0 0 8.4-7.4 78.8 78.8 0 0 0 .2-17.9 136.3 136.3 0 0 0 10.2-9 8.5 8.5 0 0 0-2.8-14 103.4 103.4 0 0 0-14.6-4.6 99.9 99.9 0 0 0-6.7-13 8.5 8.5 0 0 0-13.1-1.7 63.7 63.7 0 0 0-9.6 12.2 82.2 82.2 0 0 0-16 2.7 8.5 8.5 0 0 0-4.8 12.8 93.7 93.7 0 0 0 9.2 11.6 143.4 143.4 0 0 0-3.5 16.8 8.5 8.5 0 0 0 8.3 9.7 8.4 8.4 0 0 0 2.9-.5 131 131 0 0 0 15-6.5c4.1 2.7 8.4 5.4 12.9 7.7a8.5 8.5 0 0 0 4 1z" class="p"/><path d="M144.4 181.4a91.2 91.2 0 0 1-11.2-13.5 1.5 1.5 0 0 1 .8-2.3 76.7 76.7 0 0 1 18.3-2.6 59.7 59.7 0 0 1 10.3-14 1.5 1.5 0 0 1 2.3.3 92.3 92.3 0 0 1 7.6 15.5 95.7 95.7 0 0 1 17.1 5 1.5 1.5 0 0 1 .5 2.4 129.6 129.6 0 0 1-12.8 11 74 74 0 0 1 .3 20 1.5 1.5 0 0 1-2.1 1.1 141.2 141.2 0 0 1-15.6-9.8 128.7 128.7 0 0 1-18 8.2 1.5 1.5 0 0 1-2-1.6 130.5 130.5 0 0 1 4.5-19.7z" class="r"/><path d="M146.4 196.8a1.1 1.1 0 0 1-1.5-1.2 101 101 0 0 1 3.5-15.3 70.2 70.2 0 0 1-8.7-10.5 1.1 1.1 0 0 1 .3-1.5 52.6 52.6 0 0 1 34.5 21.7 51.5 51.5 0 0 1-.5 7.2 1.1 1.1 0 0 1-1.6.9 107.2 107.2 0 0 1-12.1-7.6 99 99 0 0 1-13.9 6.3z" class="s"/><ellipse cx="169.1" cy="172.5" class="t" rx="3.6" ry="5.2" transform="rotate(-4.5 169.3 172.6)"/><ellipse cx="169.9" cy="184.3" class="t" rx="3" ry="2.4" transform="rotate(-89.2 170 184.3)"/><path d="M278.7 220.6a8.1 8.1 0 0 0 7.4-7.8 84 84 0 0 0-1-17.9c3.2-3 6.2-6.3 9-9.7a8.9 8.9 0 0 0 1.7-7.8 8.3 8.3 0 0 0-5.2-5.9 90.3 90.3 0 0 0-13.9-3.7 102 102 0 0 0-7-12.6 7.7 7.7 0 0 0-7-3.6 7.6 7.6 0 0 0-5.4 2.7 62.5 62.5 0 0 0-8.1 12.7 72 72 0 0 0-14.7 3.6 8.2 8.2 0 0 0-5 5.6 9 9 0 0 0 1.3 7.5 93 93 0 0 0 9.3 11 151.8 151.8 0 0 0-2.2 17 8.9 8.9 0 0 0 2.2 6.7 7.7 7.7 0 0 0 6.2 2.6 7.5 7.5 0 0 0 2.6-.7 116.8 116.8 0 0 0 13.6-7.4 140.7 140.7 0 0 0 12.4 7 7.6 7.6 0 0 0 3.8.7z" class="p"/><path d="M248.3 192.4a89.6 89.6 0 0 1-11.4-13 1.5 1.5 0 0 1 .7-2.2 66.4 66.4 0 0 1 16.8-3.7A59.8 59.8 0 0 1 263 159a1.3 1.3 0 0 1 2.1.1 94.9 94.9 0 0 1 8.1 15 84.8 84.8 0 0 1 16.2 4 1.5 1.5 0 0 1 .6 2.4 122.8 122.8 0 0 1-11.2 11.8 79.5 79.5 0 0 1 1.6 20 1.4 1.4 0 0 1-2 1.2 130.1 130.1 0 0 1-15.1-8.9 114.8 114.8 0 0 1-16.1 9.2 1.4 1.4 0 0 1-2-1.4 136.7 136.7 0 0 1 3-20z" class="r"/><path d="M250.5 208.5a1.1 1.1 0 0 1-1.6-1.1 102 102 0 0 1 2.5-15.5 70 70 0 0 1-9.3-10 1.1 1.1 0 0 1 .2-1.5 52.5 52.5 0 0 1 35.8 19.6 51 51 0 0 1 0 7.3 1.1 1.1 0 0 1-1.7.9 111 111 0 0 1-12.4-6.8 99.3 99.3 0 0 1-13.5 7z" class="s"/><ellipse cx="270.9" cy="181.7" class="t" rx="3.6" ry="5.2" transform="rotate(-10.7 271 181.7)"/><ellipse cx="273.1" cy="193.4" class="t" rx="2.4" ry="3" transform="rotate(-5.5 273.2 193.5)"/><path fill="#d43e2b" d="M398.2 72l224-51a35.8 35.8 0 0 1 43.5 38l-40.1 460.6a24.6 24.6 0 0 1-28.2 22.2l-176.3-26.1a25.2 25.2 0 0 1-21.5-23.4L375.8 102a28.9 28.9 0 0 1 22.4-30z"/><path fill="#bbddf2" d="M407.3 491l-23.6-389.3a17.2 17.2 0 0 1 13.8-18L618 38.2a22.4 22.4 0 0 1 27 23.4l-27.8 452.2a17.9 17.9 0 0 1-20.2 16.6l-174.5-23a17.5 17.5 0 0 1-15.2-16.4z"/><g clip-path="url(#b)"><g opacity=".7"><path d="M431.5 262s-20.7-15.7-61.4-15.7c0 0 3.4 54.4 76 52.7" class="x"/><path d="M430.7 263a53.3 53.3 0 0 0-6.8-3.8l-1.7-.9-1.8-.8-3.7-1.5a113.7 113.7 0 0 0-15.1-4.6l-7.8-1.4-3.9-.6-3.9-.4a26 26 0 0 0-4-.3l-3.9-.3-8-.1 2-2a40.8 40.8 0 0 0 1 6 58.3 58.3 0 0 0 1.7 5.9 57.7 57.7 0 0 0 5.5 11 55.1 55.1 0 0 0 17.5 17.3 65.3 65.3 0 0 0 11.2 5.4l6 2 3 .7 3 .7a111.9 111.9 0 0 0 25 2.1 1.6 1.6 0 1 1 .1 3.2 114.9 114.9 0 0 1-25.8-2l-3.2-.7-3.1-.8c-2.1-.5-4.2-1.3-6.2-2a69 69 0 0 1-11.8-5.7 58.6 58.6 0 0 1-18.8-18.2 60.3 60.3 0 0 1-5.9-11.8 62.1 62.1 0 0 1-1.9-6.3 43.1 43.1 0 0 1-1.1-6.6 1.8 1.8 0 0 1 1.6-2h.2l8.1.3 4.1.3c1.4 0 2.7.2 4 .4l4 .5 4 .7c2.7.4 5.3 1 8 1.6a116.6 116.6 0 0 1 15.4 5c1.3.6 2.5 1 3.8 1.7l1.8.8 1.8 1a56.2 56.2 0 0 1 7 4.2 1.3 1.3 0 0 1-1.4 2.1z" class="l"/><path d="M613.5 420.4C347 343.9 395.6 138.8 509.8 123 622.2 107.5 654 199.8 625 287.4s2.5 116 2.5 116 14.7-38.7 63.7-9.7c0 0-20.4 39.3-52 29.7 0 0 22.6 26.6-.4 58.3 0 0-45.3-20-25.3-61.3z" class="x"/><g clip-path="url(#c)"><path d="M457.7 355.1s-34-95.3 48.8-103.4c116.5-11.5 86 79.2 103 133 3.6 11.7 29 44.7-12.4 30.8-52.1-17.3-139.4-60.4-139.4-60.4z" class="m"/><ellipse cx="632.6" cy="201.3" class="n" rx="10.6" ry="29.3" transform="rotate(-12.7 625 199.4)"/><path d="M613.2 199c.7 5.3-.4 9.6-2.6 10s-7-4.5-7.7-9.8 1.3-9.5 4-9.9 5.6 4.3 6.3 9.7z" class="n"/><ellipse cx="617.5" cy="225.4" class="n" rx="2.6" ry="6" transform="rotate(-21.8 617.6 225.4)"/></g><path d="M613.5 420.4C347 343.9 395.6 138.8 509.8 123 622.2 107.5 654 199.8 625 287.4s2.5 116 2.5 116 14.7-38.7 63.7-9.7c0 0-20.4 39.3-52 29.7 0 0 22.6 26.6-.4 58.3 0 0-45.3-20-25.3-61.3z" class="k"/><path d="M617.5 259.7s35.6-29.3 82-32.3c0 0-14.7 77.3-82 58" class="x"/><path d="M616.6 258.6c3-2.4 6-4.6 9.1-6.7l4.8-3 4.8-3a171.7 171.7 0 0 1 20.2-10l10.6-4 5.4-1.6 2.7-.8 2.7-.7c1.9-.4 3.7-1 5.6-1.3l5.5-1 2.8-.5 2.9-.3 5.6-.6a2.2 2.2 0 0 1 2.5 2 2.1 2.1 0 0 1 0 .7 100.7 100.7 0 0 1-4.3 14.1 105 105 0 0 1-6 13.3A75.3 75.3 0 0 1 673 278a52.9 52.9 0 0 1-12.6 7.7 54.9 54.9 0 0 1-14.3 4 72.3 72.3 0 0 1-29-2.9 1.5 1.5 0 0 1 .8-2.8 69 69 0 0 0 27.8 2.3 51 51 0 0 0 13.2-3.8 49 49 0 0 0 11.7-7.4 71.2 71.2 0 0 0 17.1-21.8 101.5 101.5 0 0 0 5.7-12.9 97 97 0 0 0 3.8-13.4l2.4 2.7-5.4.5-2.8.3c-.9 0-1.8.2-2.7.4l-5.4.8-5.4 1.2-2.7.6-2.6.8-5.3 1.5c-3.5 1.2-7 2.3-10.4 3.7a167 167 0 0 0-20 9.4 150.4 150.4 0 0 0-18.5 12 1.4 1.4 0 0 1-1.8-2.2z" class="l"/><path d="M493.4 197.1s8.6-6 26.3-3c2 19.9-19 43.7-26.3 3z" class="y"/><g clip-path="url(#d)"><path d="M522.6 200.5s-18.2-7-29.2 15.7c0 0 25.6 18.3 29.2-15.7z" class="q"/></g><path d="M534 120.2L494.2 15.9s1.4 79.7 2.1 109.8c.2 15 22.1 12 22.1 12s19.4-3.3 15.4-17.5z" class="o"/><path d="M531 113.8c-3.5 1.5-20.8 6.8-34.4-4m24.6-23.2c-6.3 1.3-16.4 2-25.5-3.5M510.3 58a35.5 35.5 0 0 1-15.1-1.7" class="f"/><path d="M534 120.2L494.2 15.9s1.4 79.7 2.1 109.8" class="g"/><path d="M481.5 179.3s23.6-20.1 45-3.5" class="h"/><path d="M540.4 211.6a8.5 8.5 0 0 1-8.4-7.4 78.8 78.8 0 0 1-.2-17.9 136.3 136.3 0 0 1-10.2-9 8.5 8.5 0 0 1 2.7-14 103.4 103.4 0 0 1 14.7-4.6 99.9 99.9 0 0 1 6.7-13 8.5 8.5 0 0 1 13.1-1.7 63.7 63.7 0 0 1 9.7 12.2 82.2 82.2 0 0 1 16 2.7 8.5 8.5 0 0 1 4.8 12.8 93.7 93.7 0 0 1-9.3 11.6 143.4 143.4 0 0 1 3.5 16.8 8.5 8.5 0 0 1-11.2 9.2 131 131 0 0 1-15-6.5 209 209 0 0 1-12.9 7.7 8.5 8.5 0 0 1-4 1z" class="p"/><path d="M571.2 181.4a91.2 91.2 0 0 0 11.2-13.5 1.5 1.5 0 0 0-.8-2.3 76.7 76.7 0 0 0-18.3-2.6 59.7 59.7 0 0 0-10.3-14 1.5 1.5 0 0 0-2.3.3 92.3 92.3 0 0 0-7.6 15.5 95.7 95.7 0 0 0-17.1 5 1.5 1.5 0 0 0-.5 2.4 129.6 129.6 0 0 0 12.8 11 74 74 0 0 0-.3 20 1.5 1.5 0 0 0 2.1 1 141.2 141.2 0 0 0 15.7-9.7 128.7 128.7 0 0 0 17.9 8.1 1.5 1.5 0 0 0 2-1.5 130.5 130.5 0 0 0-4.5-19.7z" class="r"/><path d="M569.2 196.8a1.1 1.1 0 0 0 1.5-1.2 101 101 0 0 0-3.5-15.3 70.2 70.2 0 0 0 8.7-10.5 1.1 1.1 0 0 0-.2-1.5 52.6 52.6 0 0 0-34.5 21.7 51.5 51.5 0 0 0 .4 7.2 1.1 1.1 0 0 0 1.6.9 108.3 108.3 0 0 0 12.1-7.6 98.4 98.4 0 0 0 13.9 6.3z" class="s"/><ellipse cx="546.5" cy="172.5" class="t" rx="5.2" ry="3.6" transform="rotate(-85.5 546.5 172.5)"/><ellipse cx="545.7" cy="184.3" class="t" rx="2.4" ry="3" transform="rotate(-.8 546.1 184.6)"/><path d="M436.9 220.6a8.1 8.1 0 0 1-7.3-7.8 84.8 84.8 0 0 1 .9-17.8 136 136 0 0 1-9-9.7 8.9 8.9 0 0 1-1.7-7.8 8.3 8.3 0 0 1 5.2-5.9 90.3 90.3 0 0 1 13.9-3.7 102 102 0 0 1 7.1-12.7 7.7 7.7 0 0 1 7-3.6 7.6 7.6 0 0 1 5.3 2.7 62.5 62.5 0 0 1 8.1 12.7 72 72 0 0 1 14.7 3.6 8.2 8.2 0 0 1 5 5.6 9 9 0 0 1-1.3 7.5 93 93 0 0 1-9.3 11 151.8 151.8 0 0 1 2.2 17 8.9 8.9 0 0 1-2.2 6.7 7.7 7.7 0 0 1-6.2 2.6 7.5 7.5 0 0 1-2.6-.7A116.8 116.8 0 0 1 453 213a140.7 140.7 0 0 1-12.4 7 7.6 7.6 0 0 1-3.8.7z" class="p"/><path d="M467.4 192.4a89.6 89.6 0 0 0 11.3-13 1.5 1.5 0 0 0-.6-2.2 66.4 66.4 0 0 0-16.9-3.7 59.8 59.8 0 0 0-8.7-14.5 1.3 1.3 0 0 0-2.1.1 94.9 94.9 0 0 0-8.1 15 84.8 84.8 0 0 0-16.2 4 1.5 1.5 0 0 0-.6 2.4 122.8 122.8 0 0 0 11.2 11.8 78.9 78.9 0 0 0-1.6 20 1.4 1.4 0 0 0 2 1.2 130.1 130.1 0 0 0 15.1-8.9 114.8 114.8 0 0 0 16.2 9.2 1.4 1.4 0 0 0 1.9-1.4 136.7 136.7 0 0 0-3-20z" class="r"/><path d="M465.1 208.5a1.1 1.1 0 0 0 1.6-1.1 102 102 0 0 0-2.5-15.5 70 70 0 0 0 9.3-10 1.1 1.1 0 0 0-.2-1.5 52.5 52.5 0 0 0-35.8 19.6 51 51 0 0 0 0 7.3 1.1 1.1 0 0 0 1.7.9 111 111 0 0 0 12.5-6.8 99.3 99.3 0 0 0 13.4 7z" class="s"/><ellipse cx="444.7" cy="181.7" class="t" rx="5.2" ry="3.6" transform="rotate(-79.3 444.7 181.7)"/><ellipse cx="442.6" cy="193.4" class="t" rx="3" ry="2.4" transform="rotate(-84.5 442.5 193.4)"/></g><path fill="#fff" d="M475.9 13.8L344.1 167.1l7.3 43.7L497 20.1l-21.1-6.3zm199.9 236.8L428.9 558l43.3 26.4 210.6-301.5-7-32.3zm-17 94.6L523.9 547.4l15.8 13.5 124.7-204-5.6-11.7z" opacity=".8"/></g><circle cx="321.4" cy="97" r="13.9" class="j"/><circle cx="316.6" cy="94" r="3" class="v"/><circle cx="307.5" cy="141.6" r="8.8" class="j"/><circle cx="304.4" cy="139.7" r="1.9" class="v"/><circle cx="328.7" cy="174.3" r="4.5" class="j"/><circle cx="118.8" cy="46.2" r="10.7" class="j"/><circle cx="115.1" cy="43.9" r="2.3" class="v"/><circle cx="107.3" cy="75.3" r="4.5" class="j"/></svg>