<svg xmlns="http://www.w3.org/2000/svg" viewBox="0 0 578 424"><defs><style>.a,.b,.c,.d,.s{fill:none}.k{fill:#f4eac1}.e{fill:#96a3e2}.d{stroke:#1c418c}.r{stroke:#4b8087}.b,.c,.d,.n{stroke-linecap:round;stroke-linejoin:round}.b,.d{stroke-width:3.77px}.i{fill:#6b7fc6}.h{fill:#1c418c}.j{fill:#fff}.q{stroke-miterlimit:10}.f{fill:#e59470}.a{stroke:#f4cd9d}.b{stroke:#d43e2b}.c{stroke:#9bd5f9;stroke-width:3.55px}.g{fill:#9bd5f9}.a,.p{stroke-width:3.77}</style><clipPath id="m"><path d="M485.38 85.42s-31.5 29-83-4.5-176-57.1-210.5 54.5c-36.67 118.63 117.17 180.07 195 137 79.26-43.86 117-173.5 117-173.5s61 14.5 56.5-53c0 0-35-8.5-53.5 26 0 0 7-39.5-31.5-46 0 0-25.45 44.81 10 59.5z" class="s"/></clipPath></defs><ellipse cx="178.13" cy="379.07" class="k" rx="162.5" ry="15.74"/><ellipse cx="361.09" cy="389.27" class="k" rx="90.96" ry="8.81"/><ellipse cx="432.11" cy="367.24" class="k" rx="45.48" ry="4.41"/><path d="M226.76 266.9s33.62-16.48 52.37-4.48c0 0-32.57 56.77-68.75 29.25-17.75-13.5 16.38-24.77 16.38-24.77" class="e"/><path fill="#6579c4" d="M236.27 263.2c9.74 2.59 17.11 10 17.33 27.84 0 0 21.53-19.12 25.53-28.62 0 0-8.9-11.42-42.86.78z"/><path d="M226.76 266.9s33.62-16.48 52.37-4.48c0 0-32.57 56.77-68.75 29.25-17.75-13.5 16.38-24.77 16.38-24.77" class="d"/><path d="M485.38 85.42s-31.5 29-83-4.5-176-57.1-210.5 54.5c-36.67 118.63 117.17 180.07 195 137 79.26-43.86 117-173.5 117-173.5s61 14.5 56.5-53c0 0-35-8.5-53.5 26 0 0 7-39.5-31.5-46 0 0-25.45 44.81 10 59.5z" class="e"/><g clip-path="url(#m)"><ellipse cx="357.29" cy="75.35" class="i" rx="21.67" ry="41.69" transform="rotate(-68.08 357.27 75.36)"/><path d="M378.9 124c-1.6 7.23-11.5 8.58-19.94 6.71s-13-7.17-10.59-13.49c1.86-4.92 8.9-7.78 17.33-5.9s14.3 7.59 13.2 12.68z" class="i"/><ellipse cx="393.05" cy="117.75" class="i" rx="4.5" ry="7.42" transform="rotate(-83.28 393.05 117.75)"/><path fill="#bbc6ef" d="M250.89 267s-4.77-43.09 119.83-13.26c0 0 50.91-12.3 116.51-106.26 49-70.18 11.07 81.29 11.07 81.29L467 292.08l-133.66 37-56-8.33-28.43-4.91z"/></g><path d="M487.13 85.42s-31.5 29-83-4.5-176-57.1-210.5 54.5c-36.67 118.63 117.17 180.07 195 137 79.26-43.86 117-173.5 117-173.5s61 14.5 56.5-53c0 0-35-8.5-53.5 26 0 0 7-39.5-31.5-46 0 0-25.45 44.81 10 59.5z" class="d"/><path d="M347 245.75s-10 69.67 71.34 66.67c0 0-6.67-52-47-76.67" class="e"/><path d="M348.32 245.94a58.24 58.24 0 0 0-.3 6.9c0 2.32.17 4.64.42 7a67 67 0 0 0 2.85 13.56 49.58 49.58 0 0 0 14.83 22.6 52.28 52.28 0 0 0 11.46 7.38c1 .48 2.11.88 3.16 1.33l1.58.66 1.64.53 3.28 1.05 3.35.81a100.9 100.9 0 0 0 27.62 2.11l-2.41 2.84a102.42 102.42 0 0 0-2.17-11 138 138 0 0 0-3.22-10.92 123.45 123.45 0 0 0-9.23-20.8 100.35 100.35 0 0 0-6.09-9.61 87.88 87.88 0 0 0-7.13-8.85 84.76 84.76 0 0 0-17.35-14.64 1.31 1.31 0 0 1 1.39-2.23 87.66 87.66 0 0 1 18.34 14.67 93.16 93.16 0 0 1 7.62 9 103.51 103.51 0 0 1 6.55 9.78 127.63 127.63 0 0 1 10.09 21.22q2.06 5.52 3.62 11.21.8 2.83 1.45 5.72c.43 1.94.82 3.82 1.14 5.88a2.49 2.49 0 0 1-2.16 2.78h-.25a106.06 106.06 0 0 1-28.85-2.81l-3.53-.93c-1.16-.38-2.31-.8-3.47-1.19l-1.73-.6-1.69-.74c-1.12-.5-2.26-1-3.35-1.5a56.44 56.44 0 0 1-12.22-8.15 49.75 49.75 0 0 1-9.45-11.26 57.57 57.57 0 0 1-6-13.34 70.34 70.34 0 0 1-2.71-14.27 72.9 72.9 0 0 1-.29-7.24 62 62 0 0 1 .47-7.28 1.37 1.37 0 0 1 1.54-1.18 1.36 1.36 0 0 1 1.17 1.51z" class="h"/><circle cx="216.81" cy="193.18" r="8.8" fill="#060b1c"/><circle cx="213.14" cy="192.25" r="2.96" class="j"/><path fill="#2b5599" d="M221.43 191.53a1.88 1.88 0 0 0-1.81 1.95 3 3 0 0 1-1.65 2.73 1.89 1.89 0 0 0 1.65 3.39 7 7 0 0 0 .84-.48 6.65 6.65 0 0 0 2.93-5.77 1.89 1.89 0 0 0-1.96-1.82z"/><path fill="#3a6287" stroke="#164466" d="M205.26 254.75l52.04 52.33-7.33 10-51.34-58.33 6.63-4z" class="n p"/><path d="M217.76 296.17s-13.34-5.67-20-16 27.7-21.42 27.7-21.42.92 18.44-1.6 30.94" class="e"/><path d="M217 297.91a58.73 58.73 0 0 1-7.36-3.94A55.31 55.31 0 0 1 203 289a38.49 38.49 0 0 1-5.8-6.15c-.44-.58-.82-1.12-1.25-1.8a7.16 7.16 0 0 1-1-2.6 7.81 7.81 0 0 1 1.15-5.24 16.27 16.27 0 0 1 3-3.53 31.26 31.26 0 0 1 3.39-2.67 61.38 61.38 0 0 1 7.19-4.19 120.77 120.77 0 0 1 15.14-6.3h.13a2.25 2.25 0 0 1 2.79 1.52 2.15 2.15 0 0 1 .09.61c0 2.66 0 5.25-.08 7.87s-.21 5.22-.39 7.83a105.25 105.25 0 0 1-2.19 15.65 1.34 1.34 0 0 1-2.63-.51 101.62 101.62 0 0 0 1.11-15.23q0-3.85-.09-7.69c-.09-2.55-.21-5.14-.4-7.65l3 2.09a116.86 116.86 0 0 0-14.59 5.85 57.25 57.25 0 0 0-6.73 3.8 18 18 0 0 0-5.19 4.8 3.69 3.69 0 0 0-.66 2.42 3.23 3.23 0 0 0 .43 1.13c.28.45.66 1 1 1.51a35.53 35.53 0 0 0 5.13 5.58 51.42 51.42 0 0 0 6.17 4.66 56.69 56.69 0 0 0 6.74 3.74h.07a1.88 1.88 0 0 1-1.54 3.44z" class="h"/><path fill="#96a3e2" stroke="#1c418c" d="M202.23 248.45c-25.75-21.5-42.95-51.21-42.7-87.53 0 0 18.77 10.16 30.36 28.61 4.45 7.07 11.55 22.37 13.91 30.39 5 17-1.57 28.53-1.57 28.53z" class="n p"/><ellipse cx="164.77" cy="205.81" fill="#56c7d6" opacity=".55" rx="24.69" ry="54.05" transform="rotate(-35.38 164.78 205.8)"/><path fill="#89a7af" stroke="#4b5e5e" d="M190.65 187c-20.2-28.45-48.26-43.21-62.67-33s-9.72 41.59 10.48 70 48.26 43.21 62.67 33 9.72-41.59-10.48-70zm5.42 62.91c-11.12 7.9-34.14-5.43-51.43-29.77s-22.28-50.48-11.16-58.37 34.14 5.43 51.43 29.77 22.28 50.46 11.16 58.34z" class="n p"/><ellipse cx="164.77" cy="205.81" stroke="#4b5e5e" class="n p s" rx="24.69" ry="54.05" transform="rotate(-35.38 164.78 205.8)"/><ellipse cx="138.37" cy="188.1" class="j" rx="3.35" ry="5.51" transform="rotate(-24.3 138.4 188.11)"/><ellipse cx="143.05" cy="201.07" class="j" rx="2.17" ry="3.56" transform="rotate(-26.78 143.07 201.1)"/><path fill="#fff" d="M164.22 235.35c11.32 10 22.41 14.26 28.54 9.91 8.9-6.32 4.06-28.47-10.75-49.88-3.24 21.46-12.22 34.03-17.79 39.97z" opacity=".2"/><path stroke="#060b1c" stroke-width="6" d="M279.39 170.65a47.35 47.35 0 0 1 14.46-5.82" class="n s"/><path d="M242.13 188.17s6.38 13.37 13.63 10.62 2.12-17.12 2.12-17.12" class="d"/><path fill="#cae8ef" d="M216.5 126.44c-25.91-22.72-89.72-78.74-89.72-78.74S206.12 78.86 236 90.86c15 5.77 3.85 26.64 3.85 26.64s-10.6 18.23-23.35 8.94z" class="n p r"/><path stroke="#82bbc4" d="M211.23 121.09c2.82-3 14.53-18.28 8.77-36m-32.45 15.96c3.69-5.8 8.08-15.62 6.06-26.8M163 79.5a38.25 38.25 0 0 0 4-15.79" class="n p s"/><path d="M216.5 126.44c-25.91-22.72-89.72-78.74-89.72-78.74S206.12 78.86 236 90.86" class="n p r s"/><circle cx="125.15" cy="343.32" r="24" fill="#d3efef" stroke="#6c828c" stroke-width="3.78" class="q"/><circle cx="140.7" cy="340.6" r="2.48" class="j"/><circle cx="141.19" cy="346.27" r="1.2" class="j"/><path fill="#6c828c" d="M121.3 347.32a29.58 29.58 0 0 1-11.8-12.77 17.94 17.94 0 1 0 31.78 16.63 29 29 0 0 1-19.98-3.86z" opacity=".32"/><path d="M75 355.12c14.47 2.13 64.49 8 118-2.57a3.1 3.1 0 0 1 3.14 4.85c-6.5 8.86-24.43 23.6-70.72 19.6-37.11-3.22-49-12.46-52.8-18.06a2.46 2.46 0 0 1 2.38-3.82z" class="f"/><path d="M108.16 358.23s7.76 15.68 53.41 17.68m-65.14-17.02s-1.24 11.59 14.92 16.44m-25.03-18.58s-2.84 8.25 1 12.45" class="a q"/><path d="M75 355.12c14.47 2.13 64.49 8 118-2.57a3.1 3.1 0 0 1 3.14 4.85c-6.5 8.86-24.43 23.6-70.72 19.6-37.11-3.22-49-12.46-52.8-18.06a2.46 2.46 0 0 1 2.38-3.82z" class="b"/><path d="M90.26 358.47c-20-14-66.87-52.05-27.2-78.88 0 0 1.6-18.6 17.91-17.83 0 0 19.84-31.39 36.66-3.52 0 0 28.87-9.33 27.67 21.79 0 0 47.14 19.4-38.88 78.47a14.21 14.21 0 0 1-16.16-.03z" class="f"/><path d="M145.3 280s-30 15.42-35.73 76.28m8.06-98.04s-33.82 37.37-18.79 102.83M81 261.76s-16 53.58 9.29 96.71m-27.23-78.88s-6.19 37 12.16 67.27" class="a q"/><path d="M90.26 358.47c-20-14-66.87-52.05-27.2-78.88 0 0 1.6-18.6 17.91-17.83 0 0 19.84-31.39 36.66-3.52 0 0 28.87-9.33 27.67 21.79 0 0 47.14 19.4-38.88 78.47a14.21 14.21 0 0 1-16.16-.03z" class="b"/><circle cx="70.03" cy="142.99" r="13.91" class="c"/><circle cx="65.2" cy="139.95" r="3.03" class="g"/><circle cx="87.01" cy="187.59" r="8.82" class="c"/><circle cx="83.94" cy="185.67" r="1.92" class="g"/><circle cx="70.03" cy="220.25" r="4.5" class="c"/></svg>