<svg xmlns="http://www.w3.org/2000/svg" xmlns:xlink="http://www.w3.org/1999/xlink" viewBox="0 0 682 558"><defs><style>.cls-1,.cls-12,.cls-13,.cls-14,.cls-27,.cls-7{fill:none;}.cls-2{fill:#96a3e2;}.cls-3{fill:#1c418c;}.cls-4{clip-path:url(#clip-path);}.cls-5{fill:#bbc6ef;}.cls-6{fill:#6b7fc6;}.cls-7{stroke:#1c418c;}.cls-11,.cls-12,.cls-13,.cls-14,.cls-15,.cls-27,.cls-7{stroke-linecap:round;stroke-linejoin:round;}.cls-11,.cls-12,.cls-13,.cls-15,.cls-7{stroke-width:3.77px;}.cls-8{fill:#402b5e;}.cls-9{clip-path:url(#clip-path-2);}.cls-10{fill:#e87ce1;}.cls-11{fill:#cae8ef;}.cls-11,.cls-13{stroke:#4b8087;}.cls-12{stroke:#82bbc4;}.cls-14,.cls-15{stroke:#127dc6;}.cls-14{stroke-width:10px;}.cls-15{fill:#a9e2ff;}.cls-16{fill:#7241bf;}.cls-17{fill:#845dd1;}.cls-18{fill:#bd8eed;}.cls-19{fill:#d43e2b;}.cls-20{fill:#bbddf2;}.cls-21{clip-path:url(#clip-path-3);}.cls-22{opacity:0.7;}.cls-23{clip-path:url(#clip-path-4);}.cls-24{clip-path:url(#clip-path-5);}.cls-25{opacity:0.8;}.cls-26{fill:#fff;}.cls-27{stroke:#9bd5f9;stroke-width:3.55px;}.cls-28{fill:#9bd5f9;}</style><clipPath id="clip-path"><path class="cls-1" d="M102.14,420.35C368.47,343.85,320,138.78,205.81,123,93.39,107.48,61.64,199.85,90.64,287.35s-2.5,116-2.5,116-14.67-38.67-63.67-9.67c0,0,20.34,39.33,52,29.67,0,0-22.66,26.66.34,58.33C76.81,481.68,122.14,461.68,102.14,420.35Z"/></clipPath><clipPath id="clip-path-2"><path class="cls-1" d="M222.22,197.11s-8.58-6-26.33-3C194,214,214.89,237.78,222.22,197.11Z"/></clipPath><clipPath id="clip-path-3"><path class="cls-1" d="M407.32,490.93,383.75,101.66a17.22,17.22,0,0,1,13.71-17.91L618,38.09a22.45,22.45,0,0,1,27,23.36L617.16,513.67A17.9,17.9,0,0,1,597,530.31L422.53,507.25A17.54,17.54,0,0,1,407.32,490.93Z"/></clipPath><clipPath id="clip-path-4"><path class="cls-1" d="M613.47,420.35C347.14,343.85,395.63,138.78,509.81,123,622.22,107.48,654,199.85,625,287.35s2.5,116,2.5,116,14.67-38.67,63.67-9.67c0,0-20.33,39.33-52,29.67,0,0,22.67,26.66-.33,58.33C638.81,481.68,593.47,461.68,613.47,420.35Z"/></clipPath><clipPath id="clip-path-5"><path class="cls-1" d="M493.39,197.11s8.58-6,26.33-3C521.64,214,500.72,237.78,493.39,197.11Z"/></clipPath></defs><title>illustration_web_webhint_1</title><g id="nellie1-2" data-name="nellie1"><path class="cls-2" d="M284.14,262s20.67-15.66,61.33-15.66c0,0-3.33,54.33-76,52.66"/><path class="cls-3" d="M283.35,261a56.21,56.21,0,0,1,7.07-4.26l1.81-.92,1.85-.86c1.23-.59,2.49-1.09,3.74-1.62a116.62,116.62,0,0,1,15.47-5c2.64-.59,5.28-1.23,7.95-1.65,1.34-.22,2.66-.51,4-.67l4-.52c1.34-.2,2.69-.31,4-.41l4.05-.33c2.7-.15,5.41-.19,8.11-.3a1.84,1.84,0,0,1,1.9,1.76,1.77,1.77,0,0,1,0,.23v0a43.11,43.11,0,0,1-1.16,6.62,62.13,62.13,0,0,1-1.93,6.31,60.32,60.32,0,0,1-5.89,11.78,58.58,58.58,0,0,1-18.77,18.2,69,69,0,0,1-11.81,5.69c-2.06.71-4.11,1.46-6.22,2-1.05.28-2.08.63-3.15.84l-3.18.68a114.88,114.88,0,0,1-25.81,2,1.59,1.59,0,1,1,.07-3.17,111.79,111.79,0,0,0,25.07-2.12l3.06-.68c1-.2,2-.55,3-.82,2-.52,4-1.24,5.94-1.94a65.26,65.26,0,0,0,11.17-5.46,55.12,55.12,0,0,0,17.55-17.2,57.69,57.69,0,0,0,5.46-11.09,58.32,58.32,0,0,0,1.77-5.92,40.76,40.76,0,0,0,1-6l1.89,2c-2.64,0-5.28,0-7.92.14l-3.95.25c-1.32.07-2.64.16-4,.33l-3.94.43c-1.31.14-2.6.4-3.91.59-2.62.36-5.19.94-7.78,1.46A114.12,114.12,0,0,0,298.89,256c-1.22.48-2.45.94-3.65,1.5l-1.8.79-1.77.87a53.25,53.25,0,0,0-6.74,3.87l-.07.05a1.31,1.31,0,0,1-1.51-2.13Z"/><path class="cls-2" d="M102.14,420.35C368.47,343.85,320,138.78,205.81,123,93.39,107.48,61.64,199.85,90.64,287.35s-2.5,116-2.5,116-14.67-38.67-63.67-9.67c0,0,20.34,39.33,52,29.67,0,0-22.66,26.66.34,58.33C76.81,481.68,122.14,461.68,102.14,420.35Z"/><g class="cls-4"><path class="cls-5" d="M257.89,355.1s34-95.25-48.75-103.42c-116.49-11.5-86.11,79.26-103,133-3.67,11.67-29,44.67,12.4,30.85C170.59,398.16,257.89,355.1,257.89,355.1Z"/><ellipse class="cls-6" cx="82.98" cy="201.31" rx="29.25" ry="10.61" transform="translate(-131.56 238.54) rotate(-77.44)"/><path class="cls-6" d="M102.43,199c-.7,5.34.38,9.55,2.62,10s7-4.49,7.67-9.83-1.33-9.5-4-9.85S103.13,193.62,102.43,199Z"/><ellipse class="cls-6" cx="98.14" cy="225.39" rx="5.96" ry="2.62" transform="translate(-147.58 232.79) rotate(-68.2)"/></g><path class="cls-7" d="M102.14,420.35C368.47,343.85,320,138.78,205.81,123,93.39,107.48,61.64,199.85,90.64,287.35s-2.5,116-2.5,116-14.67-38.67-63.67-9.67c0,0,20.34,39.33,52,29.67,0,0-22.66,26.66.34,58.33C76.81,481.68,122.14,461.68,102.14,420.35Z"/><path class="cls-2" d="M98.14,259.68s-35.67-29.33-82-32.33c0,0,14.67,77.33,82,58"/><path class="cls-3" d="M97.25,260.76a150.4,150.4,0,0,0-18.53-12,167,167,0,0,0-20-9.39c-3.41-1.41-6.91-2.52-10.39-3.71-1.76-.54-3.54-1-5.3-1.51l-2.65-.75-2.69-.59c-1.79-.39-3.58-.81-5.37-1.18l-5.43-.85c-.9-.14-1.8-.31-2.71-.42l-2.73-.24L16,229.65l2.41-2.73a97,97,0,0,0,3.86,13.41,101.49,101.49,0,0,0,5.65,12.86A71.21,71.21,0,0,0,45,275a49.05,49.05,0,0,0,11.68,7.36A51,51,0,0,0,70,286.24a68.94,68.94,0,0,0,27.75-2.3h0a1.46,1.46,0,0,1,.79,2.81,72.25,72.25,0,0,1-29,2.81,54.85,54.85,0,0,1-14.25-3.93,52.85,52.85,0,0,1-12.64-7.69,75.3,75.3,0,0,1-18.42-22.77,105,105,0,0,1-6.08-13.31,100.66,100.66,0,0,1-4.27-14.08v-.05a2.22,2.22,0,0,1,1.7-2.65,2.19,2.19,0,0,1,.72,0l5.65.62,2.83.31c.93.14,1.86.33,2.8.49l5.58,1c1.85.41,3.68.88,5.52,1.32l2.75.67,2.71.82c1.8.56,3.62,1.08,5.41,1.67,3.55,1.28,7.12,2.5,10.57,4a171.67,171.67,0,0,1,20.21,10l4.83,2.9c1.58,1,3.17,2,4.73,3.07C93,254,96,256.19,99,258.6a1.4,1.4,0,0,1-1.72,2.2Z"/><path class="cls-8" d="M222.22,197.11s-8.58-6-26.33-3C194,214,214.89,237.78,222.22,197.11Z"/><g class="cls-9"><path class="cls-10" d="M193,200.47s18.17-7,29.21,15.75C222.22,216.22,196.64,234.47,193,200.47Z"/></g><path class="cls-11" d="M181.67,120.2c11.44-30.1,39.68-104.27,39.68-104.27s-1.41,79.65-2.16,109.73c-.16,15-22.08,12.07-22.08,12.07S177.69,134.4,181.67,120.2Z"/><path class="cls-12" d="M184.63,113.84c3.55,1.49,20.75,6.76,34.43-4.08"/><path class="cls-12" d="M194.45,86.56c6.29,1.34,16.32,2,25.45-3.44"/><path class="cls-12" d="M205.32,58a35.52,35.52,0,0,0,15.11-1.71"/><path class="cls-13" d="M181.67,120.2c11.44-30.1,39.68-104.27,39.68-104.27s-1.41,79.65-2.16,109.73"/><path class="cls-14" d="M234.14,179.35s-23.67-20.17-45-3.5"/><path class="cls-15" d="M175.18,211.56a8.51,8.51,0,0,0,8.4-7.33,78.75,78.75,0,0,0,.19-17.9A136.28,136.28,0,0,0,194,177.21a8.48,8.48,0,0,0-2.75-13.89,103.4,103.4,0,0,0-14.62-4.6,99.87,99.87,0,0,0-6.78-13.06A8.47,8.47,0,0,0,156.78,144a63.73,63.73,0,0,0-9.62,12.18,82.15,82.15,0,0,0-16,2.72,8.47,8.47,0,0,0-4.81,12.82,93.67,93.67,0,0,0,9.24,11.62,143.41,143.41,0,0,0-3.53,16.78,8.48,8.48,0,0,0,8.38,9.72,8.36,8.36,0,0,0,2.84-.49,130.91,130.91,0,0,0,15.07-6.58c4.1,2.78,8.4,5.39,12.82,7.78A8.54,8.54,0,0,0,175.18,211.56Z"/><path class="cls-16" d="M144.44,181.43a91.22,91.22,0,0,1-11.25-13.57,1.47,1.47,0,0,1,.82-2.23A76.65,76.65,0,0,1,152.27,163a59.69,59.69,0,0,1,10.35-13.93,1.48,1.48,0,0,1,2.28.28,92.29,92.29,0,0,1,7.64,15.44,95.68,95.68,0,0,1,17.08,5,1.47,1.47,0,0,1,.48,2.41,129.59,129.59,0,0,1-12.75,11,74,74,0,0,1,.29,20,1.46,1.46,0,0,1-2.15,1.1,141.19,141.19,0,0,1-15.63-9.81,128.73,128.73,0,0,1-17.94,8.18,1.48,1.48,0,0,1-1.95-1.6A130.48,130.48,0,0,1,144.44,181.43Z"/><path class="cls-17" d="M146.41,196.82a1.13,1.13,0,0,1-1.5-1.24,101,101,0,0,1,3.45-15.25,70.19,70.19,0,0,1-8.7-10.49,1.15,1.15,0,0,1,.3-1.56c20.23,3,31.56,17.48,34.49,21.72a51.53,51.53,0,0,1-.41,7.23,1.14,1.14,0,0,1-1.67.85,107.16,107.16,0,0,1-12.08-7.59A98.93,98.93,0,0,1,146.41,196.82Z"/><ellipse class="cls-18" cx="169.09" cy="172.46" rx="3.61" ry="5.19" transform="translate(-12.99 13.78) rotate(-4.49)"/><ellipse class="cls-18" cx="169.93" cy="184.28" rx="2.96" ry="2.38" transform="translate(-16.59 351.74) rotate(-89.24)"/><path class="cls-15" d="M278.72,220.63a8.12,8.12,0,0,0,7.34-7.81,84.06,84.06,0,0,0-.95-17.87c3.16-3.11,6.17-6.36,8.95-9.7a8.89,8.89,0,0,0,1.71-7.81,8.35,8.35,0,0,0-5.15-5.89,90.25,90.25,0,0,0-13.88-3.73,102,102,0,0,0-7.12-12.64,7.73,7.73,0,0,0-7-3.6,7.59,7.59,0,0,0-5.3,2.7A62.45,62.45,0,0,0,249.18,167a72,72,0,0,0-14.71,3.65,8.15,8.15,0,0,0-4.94,5.5,9,9,0,0,0,1.28,7.58,93,93,0,0,0,9.32,11.06,151.78,151.78,0,0,0-2.22,17,8.9,8.9,0,0,0,2.24,6.65A7.67,7.67,0,0,0,246.3,221a7.55,7.55,0,0,0,2.62-.66,116.82,116.82,0,0,0,13.59-7.45,140.68,140.68,0,0,0,12.4,7A7.56,7.56,0,0,0,278.72,220.63Z"/><path class="cls-16" d="M248.25,192.36a89.59,89.59,0,0,1-11.32-12.87,1.5,1.5,0,0,1,.63-2.27,66.39,66.39,0,0,1,16.8-3.72A59.8,59.8,0,0,1,263.1,159a1.33,1.33,0,0,1,2.14.15,94.87,94.87,0,0,1,8.07,15,84.83,84.83,0,0,1,16.19,4,1.52,1.52,0,0,1,.6,2.38,122.81,122.81,0,0,1-11.16,11.75,79.52,79.52,0,0,1,1.55,20,1.37,1.37,0,0,1-1.94,1.22,130.14,130.14,0,0,1-15.15-8.87,114.78,114.78,0,0,1-16.15,9.21,1.4,1.4,0,0,1-1.91-1.48A136.71,136.71,0,0,1,248.25,192.36Z"/><path class="cls-17" d="M250.5,208.49a1.14,1.14,0,0,1-1.58-1.14,102,102,0,0,1,2.53-15.43,70,70,0,0,1-9.31-9.95,1.14,1.14,0,0,1,.21-1.58c20.37,1.79,32.55,15.55,35.72,19.61a51,51,0,0,1,0,7.25,1.14,1.14,0,0,1-1.62.94A110.94,110.94,0,0,1,264,201.35,99.28,99.28,0,0,1,250.5,208.49Z"/><ellipse class="cls-18" cx="270.95" cy="181.74" rx="3.61" ry="5.19" transform="translate(-29.14 53.73) rotate(-10.75)"/><ellipse class="cls-18" cx="273.06" cy="193.39" rx="2.38" ry="2.96" transform="translate(-17.26 27.03) rotate(-5.49)"/><path class="cls-19" d="M398.23,72.06l223.91-51a35.77,35.77,0,0,1,43.58,38L625.57,519.56a24.64,24.64,0,0,1-28.16,22.24L421.06,515.67a25.16,25.16,0,0,1-21.43-23.35L375.82,102A28.88,28.88,0,0,1,398.23,72.06Z"/><path class="cls-20" d="M407.32,490.93,383.75,101.66a17.22,17.22,0,0,1,13.71-17.91L618,38.09a22.45,22.45,0,0,1,27,23.36L617.16,513.67A17.9,17.9,0,0,1,597,530.31L422.53,507.25A17.54,17.54,0,0,1,407.32,490.93Z"/><g class="cls-21"><g class="cls-22"><path class="cls-2" d="M431.47,262s-20.66-15.66-61.33-15.66c0,0,3.33,54.33,76,52.66"/><path class="cls-3" d="M430.68,263.05a53.25,53.25,0,0,0-6.74-3.87l-1.77-.87-1.8-.79c-1.2-.56-2.43-1-3.65-1.5a113.67,113.67,0,0,0-15.13-4.58c-2.59-.52-5.16-1.1-7.78-1.46-1.31-.19-2.6-.45-3.91-.59L386,249c-1.31-.17-2.63-.26-3.95-.33l-3.95-.25c-2.64-.09-5.28-.09-7.92-.14l1.89-2a40.76,40.76,0,0,0,1,6,58.32,58.32,0,0,0,1.77,5.92,57.69,57.69,0,0,0,5.46,11.09,55.12,55.12,0,0,0,17.55,17.2A65.26,65.26,0,0,0,409,291.87c2,.7,3.92,1.42,5.94,1.94,1,.27,2,.62,3,.82l3.06.68a111.89,111.89,0,0,0,25.07,2.12,1.59,1.59,0,1,1,.07,3.17,114.88,114.88,0,0,1-25.81-2l-3.18-.68c-1.07-.21-2.1-.56-3.15-.84-2.11-.53-4.16-1.28-6.22-2A69,69,0,0,1,396,289.37a58.58,58.58,0,0,1-18.77-18.2,60.32,60.32,0,0,1-5.89-11.78,62.13,62.13,0,0,1-1.93-6.31,43.11,43.11,0,0,1-1.16-6.62h0a1.83,1.83,0,0,1,1.65-2h.24c2.7.11,5.41.15,8.11.3l4.05.33c1.35.1,2.7.21,4,.41l4,.52c1.35.16,2.67.45,4,.67,2.68.42,5.31,1.06,7.95,1.65a116.62,116.62,0,0,1,15.47,5c1.25.53,2.51,1,3.74,1.62l1.85.86,1.81.92a56.21,56.21,0,0,1,7.07,4.26,1.31,1.31,0,0,1-1.51,2.13Z"/><path class="cls-2" d="M613.47,420.35C347.14,343.85,395.63,138.78,509.81,123,622.22,107.48,654,199.85,625,287.35s2.5,116,2.5,116,14.67-38.67,63.67-9.67c0,0-20.33,39.33-52,29.67,0,0,22.67,26.66-.33,58.33C638.81,481.68,593.47,461.68,613.47,420.35Z"/><g class="cls-23"><path class="cls-5" d="M457.72,355.1s-34-95.25,48.75-103.42c116.49-11.5,86.11,79.26,103,133,3.67,11.67,29,44.67-12.4,30.85C545,398.16,457.72,355.1,457.72,355.1Z"/><ellipse class="cls-6" cx="632.63" cy="201.31" rx="10.61" ry="29.25" transform="matrix(0.98, -0.22, 0.22, 0.98, -28.63, 142.35)"/><path class="cls-6" d="M613.18,199c.7,5.34-.37,9.55-2.62,10s-7-4.49-7.67-9.83,1.33-9.5,4-9.85S612.48,193.62,613.18,199Z"/><ellipse class="cls-6" cx="617.47" cy="225.39" rx="2.62" ry="5.96" transform="translate(-39.54 245.47) rotate(-21.8)"/></g><path class="cls-7" d="M613.47,420.35C347.14,343.85,395.63,138.78,509.81,123,622.22,107.48,654,199.85,625,287.35s2.5,116,2.5,116,14.67-38.67,63.67-9.67c0,0-20.33,39.33-52,29.67,0,0,22.67,26.66-.33,58.33C638.81,481.68,593.47,461.68,613.47,420.35Z"/><path class="cls-2" d="M617.47,259.68s35.67-29.33,82-32.33c0,0-14.66,77.33-82,58"/><path class="cls-3" d="M616.59,258.6c3-2.41,6-4.57,9.14-6.67,1.56-1.05,3.15-2.05,4.73-3.07l4.83-2.9a171.67,171.67,0,0,1,20.21-10c3.45-1.51,7-2.73,10.57-4,1.79-.59,3.61-1.11,5.41-1.67l2.71-.82,2.75-.67c1.84-.44,3.67-.91,5.52-1.32l5.58-1c.94-.16,1.87-.35,2.8-.49l2.83-.31,5.65-.62a2.21,2.21,0,0,1,2.46,2,2.11,2.11,0,0,1,0,.71v.05a100.66,100.66,0,0,1-4.27,14.08,105,105,0,0,1-6.08,13.31A75.3,75.3,0,0,1,673,277.94a52.85,52.85,0,0,1-12.64,7.69,54.85,54.85,0,0,1-14.25,3.93,72.27,72.27,0,0,1-29-2.81,1.46,1.46,0,0,1,.79-2.81h0a68.94,68.94,0,0,0,27.75,2.3,51,51,0,0,0,13.28-3.86A49.05,49.05,0,0,0,670.58,275a71.21,71.21,0,0,0,17.12-21.83,101.49,101.49,0,0,0,5.65-12.86,97,97,0,0,0,3.86-13.41l2.41,2.73-5.46.49-2.73.24c-.91.11-1.81.28-2.71.42l-5.43.85c-1.79.37-3.58.79-5.37,1.18l-2.69.59-2.65.75c-1.76.51-3.54,1-5.3,1.51-3.48,1.19-7,2.3-10.39,3.71a167,167,0,0,0-20,9.39,150.4,150.4,0,0,0-18.53,12l-.05,0a1.39,1.39,0,0,1-1.72-2.19Z"/><path class="cls-8" d="M493.39,197.11s8.58-6,26.33-3C521.64,214,500.72,237.78,493.39,197.11Z"/><g class="cls-24"><path class="cls-10" d="M522.6,200.47s-18.17-7-29.21,15.75C493.39,216.22,519,234.47,522.6,200.47Z"/></g><path class="cls-11" d="M533.94,120.2C522.5,90.1,494.27,15.93,494.27,15.93s1.4,79.65,2.15,109.73c.16,15,22.08,12.07,22.08,12.07S537.92,134.4,533.94,120.2Z"/><path class="cls-12" d="M531,113.84c-3.54,1.49-20.75,6.76-34.43-4.08"/><path class="cls-12" d="M521.16,86.56c-6.29,1.34-16.32,2-25.45-3.44"/><path class="cls-12" d="M510.29,58a35.52,35.52,0,0,1-15.11-1.71"/><path class="cls-13" d="M533.94,120.2C522.5,90.1,494.27,15.93,494.27,15.93s1.4,79.65,2.15,109.73"/><path class="cls-14" d="M481.47,179.35s23.67-20.17,45-3.5"/><path class="cls-15" d="M540.43,211.56a8.51,8.51,0,0,1-8.4-7.33,78.75,78.75,0,0,1-.19-17.9,136.28,136.28,0,0,1-10.24-9.12,8.48,8.48,0,0,1,2.75-13.89,103.4,103.4,0,0,1,14.62-4.6,99.87,99.87,0,0,1,6.78-13.06A8.47,8.47,0,0,1,558.83,144a63.73,63.73,0,0,1,9.62,12.18,82.15,82.15,0,0,1,16,2.72,8.47,8.47,0,0,1,4.81,12.82A93.67,93.67,0,0,1,580,183.33a143.41,143.41,0,0,1,3.53,16.78,8.47,8.47,0,0,1-11.22,9.23,130.91,130.91,0,0,1-15.07-6.58c-4.1,2.78-8.4,5.39-12.82,7.78A8.54,8.54,0,0,1,540.43,211.56Z"/><path class="cls-16" d="M571.17,181.43a91.22,91.22,0,0,0,11.25-13.57,1.47,1.47,0,0,0-.82-2.23A76.65,76.65,0,0,0,563.34,163,59.69,59.69,0,0,0,553,149.05a1.48,1.48,0,0,0-2.28.28,92.29,92.29,0,0,0-7.64,15.44,95.68,95.68,0,0,0-17.08,5,1.47,1.47,0,0,0-.48,2.41,129.59,129.59,0,0,0,12.75,11,74,74,0,0,0-.29,20,1.46,1.46,0,0,0,2.15,1.1,141.19,141.19,0,0,0,15.63-9.81,128.73,128.73,0,0,0,17.94,8.18,1.48,1.48,0,0,0,1.95-1.6A130.48,130.48,0,0,0,571.17,181.43Z"/><path class="cls-17" d="M569.2,196.82a1.13,1.13,0,0,0,1.5-1.24,101,101,0,0,0-3.45-15.25,70.19,70.19,0,0,0,8.7-10.49,1.14,1.14,0,0,0-.3-1.56c-20.23,3-31.56,17.48-34.49,21.72a51.53,51.53,0,0,0,.41,7.23,1.14,1.14,0,0,0,1.67.85,108.25,108.25,0,0,0,12.09-7.59A98.44,98.44,0,0,0,569.2,196.82Z"/><ellipse class="cls-18" cx="546.52" cy="172.46" rx="5.19" ry="3.61" transform="translate(331.76 703.79) rotate(-85.51)"/><ellipse class="cls-18" cx="545.68" cy="184.28" rx="2.38" ry="2.96" transform="translate(-2.4 7.26) rotate(-0.76)"/><path class="cls-15" d="M436.89,220.63a8.12,8.12,0,0,1-7.34-7.81A84.75,84.75,0,0,1,430.5,195c-3.16-3.11-6.16-6.36-8.95-9.7a8.89,8.89,0,0,1-1.71-7.81,8.35,8.35,0,0,1,5.15-5.89,90.25,90.25,0,0,1,13.88-3.73A102,102,0,0,1,446,155.18a7.73,7.73,0,0,1,7-3.6,7.59,7.59,0,0,1,5.3,2.7A62.45,62.45,0,0,1,466.43,167a72,72,0,0,1,14.71,3.65,8.15,8.15,0,0,1,4.94,5.5,9,9,0,0,1-1.28,7.58,93,93,0,0,1-9.32,11.06,151.78,151.78,0,0,1,2.22,17,8.9,8.9,0,0,1-2.24,6.65,7.67,7.67,0,0,1-6.15,2.56,7.55,7.55,0,0,1-2.62-.66,116.82,116.82,0,0,1-13.59-7.45,140.68,140.68,0,0,1-12.4,7A7.56,7.56,0,0,1,436.89,220.63Z"/><path class="cls-16" d="M467.36,192.36a89.59,89.59,0,0,0,11.32-12.87,1.5,1.5,0,0,0-.63-2.27,66.39,66.39,0,0,0-16.8-3.72A59.8,59.8,0,0,0,452.51,159a1.33,1.33,0,0,0-2.14.15,94.87,94.87,0,0,0-8.07,15,84.83,84.83,0,0,0-16.19,4,1.52,1.52,0,0,0-.6,2.38,122.81,122.81,0,0,0,11.16,11.75,78.88,78.88,0,0,0-1.54,20,1.36,1.36,0,0,0,1.93,1.22,130.14,130.14,0,0,0,15.15-8.87,114.78,114.78,0,0,0,16.15,9.21,1.4,1.4,0,0,0,1.91-1.48A136.71,136.71,0,0,0,467.36,192.36Z"/><path class="cls-17" d="M465.11,208.49a1.14,1.14,0,0,0,1.58-1.14,102,102,0,0,0-2.53-15.43,70,70,0,0,0,9.31-9.95,1.14,1.14,0,0,0-.2-1.58c-20.38,1.79-32.56,15.55-35.73,19.61a51,51,0,0,0,0,7.25,1.14,1.14,0,0,0,1.62.94,110.94,110.94,0,0,0,12.52-6.84A99.28,99.28,0,0,0,465.11,208.49Z"/><ellipse class="cls-18" cx="444.66" cy="181.74" rx="5.19" ry="3.61" transform="translate(183.18 584.7) rotate(-79.25)"/><ellipse class="cls-18" cx="442.55" cy="193.39" rx="2.96" ry="2.38" transform="translate(207.67 615.39) rotate(-84.51)"/></g><g class="cls-25"><polygon class="cls-26" points="475.93 13.82 344.12 167.06 351.45 210.81 496.99 20.15 475.93 13.82"/><polygon class="cls-26" points="675.75 250.59 428.93 558.02 472.23 584.43 682.75 282.92 675.75 250.59"/><polygon class="cls-26" points="658.8 345.18 523.89 547.36 539.7 560.89 664.44 356.95 658.8 345.18"/></g></g><circle class="cls-27" cx="321.38" cy="97.03" r="13.91"/><circle class="cls-28" cx="316.55" cy="94" r="3.03"/><circle class="cls-27" cx="307.47" cy="141.63" r="8.82"/><circle class="cls-28" cx="304.41" cy="139.71" r="1.92"/><circle class="cls-27" cx="328.73" cy="174.3" r="4.5"/><circle class="cls-27" cx="118.81" cy="46.18" r="10.67"/><circle class="cls-28" cx="115.1" cy="43.85" r="2.33"/><circle class="cls-27" cx="107.33" cy="75.25" r="4.5"/></g></svg>