<?xml version="1.0" encoding="utf-8"?>
<!-- Generator: Adobe Illustrator 22.1.0, SVG Export Plug-In . SVG Version: 6.00 Build 0)  -->
<svg version="1.1" id="Layer_1" xmlns="http://www.w3.org/2000/svg" xmlns:xlink="http://www.w3.org/1999/xlink" x="0px" y="0px"
	 viewBox="0 0 1000 443.9" style="enable-background:new 0 0 1000 443.9;" xml:space="preserve">
<style type="text/css">
	.st0{fill:#0D1F31;}
	.st1{fill:#DBDBDB;}
	.st2{fill:#3B3B63;}
	.st3{fill:#C6C6C6;}
	.st4{fill:#53537A;}
	.st5{fill:#BC9375;}
	.st6{fill:#083251;}
	.st7{fill:#FFFFFF;}
	.st8{fill:#C49A7E;}
	.st9{fill:#D8B7A0;}
	.st10{fill:#333152;}
</style>
<g>
	<path class="st0" d="M449.7,306c-18.5,0-33.5-3.2-46.4-9.3l3.9-29.5c13.6,6.7,28.9,9.8,41.7,9.8c9.4,0,15.5-3.2,15.5-8.8
		c0-16.2-58.5-12.3-58.5-54.7c0-27.1,24.9-41.3,56-41.3c15.5,0,31.6,4.2,41.9,7.9l-4.2,29c-10.9-4.2-25.7-8.1-38-8.1
		c-7.6,0-13.8,2.7-13.8,7.6c0,16,59.7,12.8,59.7,54.1C507.7,290.2,483.2,306,449.7,306L449.7,306z M611.4,303.2v-73.1
		c0-16.7-7.4-24.6-21.5-24.6c-6.9,0-14.1,1.9-19,4.9v92.8h-43.4V176.5L570,173l-1,20.7h1.4c9.1-12.3,24.7-21.6,43.2-21.6
		c22.2,0,41.4,13.7,41.4,46.2v84.9H611.4L611.4,303.2z M898.1,303.2l-34.7-60.3h-3.5v60.3h-43.4V153.1l43.4-67.7v140.1
		c8.6-10.6,37.7-50.7,37.7-50.7h53.6l-50.8,53.6l52.5,74.9L898.1,303.2L898.1,303.2L898.1,303.2z M760.2,175.2L742.4,233
		c-3.5,10.9-6.9,30.9-6.9,30.9s-2.7-20.7-6.4-31.6l-19-57.1h-48.6l52.8,128c-7.2,17-18.3,31.4-33.1,31.4c-2.7,0-5.3-0.1-7.9-0.4
		L656,360.9c5.4,3.1,15.8,6.3,28.2,6.3c32.1,0,53.6-25.9,68.6-64.3l50.4-127.6L760.2,175.2L760.2,175.2L760.2,175.2z"/>
	<path class="st1" d="M173.2,111.6l3,4.9c7.9-2.2,17.8-4.2,27.9-4.2c10.1,0,20.1,2,28,4.2l3-4.9l3.2-22.1c-10.6-0.6-21.9-1-33.9-1
		c-12.2,0-23.6,0.4-34.3,1L173.2,111.6z"/>
	<path class="st2" d="M269.3,281.4h-65.4V171.3l-66.3,106.9l-10.3,109.6l75.6,54.4l1,0.7l77.3-55.4L269.3,281.4z"/>
	<path class="st3" d="M232.1,116.6l3-4.9l3.2-22.1c-10.6-0.6-21.9-1-33.9-1h-0.2v23.8C214.3,112.4,224.2,114.4,232.1,116.6
		L232.1,116.6z M316,100.2c2.5,8.1,4,15.4,4,20.9v3l-16,43.2c8.2,74.8,4.5,84.2,3.1,87.8c-0.8,2.1-3.2,8.3-18.7,28.9l9.9,91.5
		l46.1-33V108.1C344.3,108.1,334.5,104.3,316,100.2L316,100.2z"/>
	<path class="st2" d="M281.5,387.2l-11.9-105.8h-65.4v161.2L281.5,387.2z"/>
	<path class="st4" d="M127.3,387.8l76.6,55.1V171.3l-66.3,106.9L127.3,387.8z"/>
	<path class="st5" d="M236.9,356.6c0,18.1-17,27.1-32.5,27.1s-32.9-9-32.9-27.1"/>
	<path class="st6" d="M227.3,346.3c0,21.3-11.5,27-23.2,27s-23.2-5.7-23.2-27"/>
	<path class="st7" d="M204.2,366c-12.5,0-18.6-9.2-18.6-28h6c0,22,8.5,22,12.6,22s12.6,0,12.6-22h6C222.8,356.8,216.7,366,204.2,366
		z"/>
	<path class="st8" d="M303.3,121c0-23-38.8-95.2-38.8-95.2l-13.1,91.6l-11.8,19.3l-35.3,1.5l-0.1,0.3v-0.3l-35.3-1.4L157,117.4
		l-13.1-91.6c0,0-38.8,72.2-38.8,95.2l16.4,44.1c0,0-8.3,74.1-4.5,83.8s29.9,42.2,29.9,42.2s-0.1,27.3,7.1,46.9
		c5.1,14,16.4,19.7,27.2,19.7c16.5,0,23-15.1,23-15.1s6.6,15.1,23.1,15.1c10.8,0,22-5.7,27.2-19.7c7.2-19.6,7.1-46.9,7.1-46.9
		s26.2-32.5,29.9-42.2c3.8-9.7-4.5-83.8-4.5-83.8L303.3,121L303.3,121z"/>
	<path class="st9" d="M204.2,138.4l-0.1,0.1v-0.3l-35.3-1.4L157,117.4l-13.1-91.6c0,0-38.8,72.2-38.8,95.2l16.4,44.1
		c0,0-8.3,74.1-4.5,83.8s29.9,42.2,29.9,42.2s-0.1,27.3,7.1,46.9c5.1,14,16.4,19.7,27.2,19.7c16.5,0,23-15.1,23-15.1s0,0.1,0.1,0.2
		L204.2,138.4L204.2,138.4z"/>
	<path class="st2" d="M287.3,169.5c-3-6.3,1.3-21.2,1.3-21.2C264.1,123.2,258,70.8,258,70.8c-4.6,16.5-14.5,65.2-14.5,65.2
		s-18.3-6.8-39.1-6.8h-0.2c-1.1,0-2.3,0-3.4,0.1v205.3l1.6,2.3v-1.1h1v1.1v-1.1h1.9v1.1v-1.1h1v1.1l16.9-24.7l3.7-69.5l21.1,24.1
		l27.2,7.9l10.2-7.2c4.3-6,5.7-11.2,6.8-13.9C295.8,243.8,287.3,169.5,287.3,169.5L287.3,169.5z"/>
	<path class="st4" d="M204.4,129.1C204.4,129.1,204.3,129.1,204.4,129.1c-20.9,0-39.2,6.8-39.2,6.8s-10-48.7-14.5-65.2
		c0,0-6.1,52.4-30.6,77.5c0,0,4.3,14.9,1.3,21.2c0,0-8.5,74.3-4.7,84c1,2.7,2.5,7.8,6.8,13.9l10.2,7.2l27.2-7.9l21.1-24.1l3.7,69.5
		l16.9,24.7v-1.1h1v1.1v-1.1h1L204.4,129.1L204.4,129.1z"/>
	<path class="st10" d="M253.5,216h-31.7v0.3c0,11.1,9.6,20,20.8,20c11.3,0,20.8-9,20.8-20V216H253.5z"/>
	<path class="st7" d="M229.7,216v0.3c0,6.6,5.3,11.9,11.9,11.9s11.9-5.3,11.9-11.9V216H229.7L229.7,216z"/>
	<path class="st10" d="M245.3,216h-5.7c0.7,0.1,1.1,1.7,0.9,2.8c-0.2,1.6-1.6,2.7-3.1,2.7c0.5,2.1,2.2,3.8,4.4,4.1
		c2.9,0.4,5.6-1.6,6-4.4C248,219,247,216,245.3,216L245.3,216z M176.9,216h-31.8v0.3c0,11.1,9.6,20,20.8,20c11.3,0,20.8-9,20.8-20
		V216H176.9z"/>
	<path class="st7" d="M153.1,216v0.3c0,6.6,5.3,11.9,11.9,11.9c6.6,0,11.9-5.3,11.9-11.9V216H153.1L153.1,216z"/>
	<path class="st10" d="M168.7,216H163c0.7,0.1,1.1,1.7,0.9,2.8c-0.2,1.6-1.6,2.7-3.1,2.7c0.5,2.1,2.2,3.8,4.4,4.1
		c2.9,0.4,5.6-1.6,6-4.4C171.4,219,170.4,216,168.7,216L168.7,216z"/>
	<path class="st8" d="M251.1,206.5c1.3-1.5,12.7-14.3-2.5-14.3c-13.7,0-23.5,11-26.1,14.3H251.1z"/>
	<path class="st9" d="M185.8,206.5c-2.6-3.3-12.4-14.3-26.1-14.3c-15.1,0-3.8,12.8-2.5,14.3H185.8z"/>
	<path class="st4" d="M137.8,210.4h57.9v5.4h-57.9L137.8,210.4z"/>
	<path class="st10" d="M311.1,121.2c0-24.3-35.6-91.4-39.7-99L260,1l-16.3,113.9l-7.5,12.4c-7.3-2.4-19.6-5.8-32.1-5.8
		c-12.4,0-24.7,3.4-32,5.8l-7.5-12.4L158.9,75v-0.2L148.3,1l-11.6,21.3c-4.1,7.6-40,74.7-40,99v1.4l16.4,43.7
		c-2.6,23.8-7.6,75.6-3.7,85.7c2.5,6.3,11.9,19.4,19.9,29.8L118.6,382l14.8,10.4l7.8-72.9c1.1,7.1,2.8,14.6,5.3,21.3
		c3.4,9.3,9.4,16.4,17.1,20.6c0.5,22.3,21.2,34.3,40.8,34.3c19.4,0,40-12,40.4-34.3c7.7-4.2,13.7-11.2,17.1-20.5
		c2.6-7,4.3-14.9,5.4-22.2l7.9,73.1L290,381l-10.7-99.5c7.9-10.4,17.2-23.3,19.6-29.5c3.9-10.1-1.3-61.9-3.9-85.7l16.1-43.7V121.2
		L311.1,121.2z M113,119.9c0.9-12.6,14-42.7,26.5-68.1l3.4,23.2c-1.3,8.7-7.1,42.7-22.7,64.2L113,119.9L113,119.9z M204.4,380
		c-8.7,0-21.1-3.9-24.2-14.2h0.9c1.7,0,3.3-0.2,4.8-0.4c4.4,6.1,11.3,8,18.3,8s13.9-1.9,18.3-8c1.5,0.2,3.1,0.4,4.7,0.4h1
		C225.2,376.1,212.9,380,204.4,380z M194.3,363.1c2.1-0.9,4-2.1,5.7-3.3c1.5,0.5,3,0.5,4.2,0.5c1.1,0,2.6,0,4.1-0.4
		c1.7,1.2,3.6,2.3,5.7,3.3c-2.7,2-5.9,3.1-9.8,3.1C200.3,366.2,197,365,194.3,363.1z M284,246.3c-2.3,5.9-18.2,27-28.7,40.1
		l-1.8,2.2v2.8c0,0.3,0,26.1-6.6,44.2c-4.8,13.1-15.4,14.5-19.7,14.5c-11,0-15.7-10-15.9-10.4l-0.6-9.4h-13.3l-0.6,9.3
		c-0.2,0.4-4.8,10.4-15.7,10.4c-4.3,0-14.9-1.4-19.7-14.5c-6.6-18-6.6-43.9-6.6-44.2v-2.8l-1.8-2.2c-10.5-13.1-26.4-34.1-28.7-39.9
		c-1.8-6.2,1.2-46.5,4.9-80.2l0.2-1.9l-3-8c10.4-10.6,17.6-25.3,22.5-39.3l0.5,3.4l16.2,26.6l6.3-2.7c0.2-0.1,16.4-7,32.2-7
		c15.7,0,32.2,6.9,32.4,7l6.3,2.7l16.2-26.6l0.6-4.4c4.9,14.1,12.1,29.1,22.3,40l-3.1,8.4l0.2,1.9C282.8,200,285.8,240.2,284,246.3
		L284,246.3z M288.3,138.8c-16.8-23.6-22.1-62-22.6-65.6l3.1-21.4c12.5,25.4,25.6,55.5,26.5,68.1L288.3,138.8z"/>
	<path class="st10" d="M222.9,303h-37.2c0,0-5,8.7-5,11.5c0,8.4,22.9,21.8,22.9,21.8s24.2-13.8,24.2-21.8
		C227.8,310.7,222.9,303,222.9,303z"/>
	<path class="st8" d="M215.7,328.6c-2.1-3.7-4.8-4.3-6-1.5s-0.5,8.1,1.6,11.8c2.1,3.7,4.8,4.4,6,1.5
		C218.5,337.6,217.8,332.3,215.7,328.6z"/>
	<path class="st9" d="M192.7,328.6c-2.1,3.7-2.8,9-1.5,11.8c1.2,2.8,3.9,2.2,6-1.5s2.8-9,1.5-11.8
		C197.5,324.3,194.8,324.9,192.7,328.6z"/>
	<path class="st1" d="M120.1,284.2c-15.7-20.8-18.1-27.1-19-29.2c-3.4-8.9-2.5-38.4,2.9-87.8L87.8,124v-3c0-5.5,1.5-12.6,4-20.7
		c-18.1,4.2-27.8,7.8-27.8,7.8v234.3l46.3,33.1C110.3,375.5,120.1,284.2,120.1,284.2z"/>
</g>
</svg>
