<?xml version="1.0" encoding="utf-8"?>
<!-- Generator: Adobe Illustrator 23.0.6, SVG Export Plug-In . SVG Version: 6.00 Build 0)  -->
<svg version="1.1" id="Layer_1" xmlns="http://www.w3.org/2000/svg" xmlns:xlink="http://www.w3.org/1999/xlink" x="0px" y="0px"
	 viewBox="0 0 460 360" style="enable-background:new 0 0 460 360;" xml:space="preserve">
<style type="text/css">
	.st0{fill:#96A3E2;}
	.st1{fill:#1C418C;}
	.st2{clip-path:url(#SVGID_2_);}
	.st3{fill:#BBC6EF;}
	.st4{fill:#6B7FC6;}
	.st5{fill:none;stroke:#1C418C;stroke-width:3.77;stroke-linecap:round;stroke-linejoin:round;}
	.st6{fill:#CAE8EF;stroke:#4B8087;stroke-width:3.8;stroke-linecap:round;stroke-linejoin:round;}
	.st7{fill:none;stroke:#82BBC4;stroke-width:3.8;stroke-linecap:round;stroke-linejoin:round;}
	.st8{fill:none;stroke:#4B8087;stroke-width:3.8;stroke-linecap:round;stroke-linejoin:round;}
	.st9{fill:#060B1C;}
	.st10{fill:#FFFFFF;}
	.st11{fill:#2B5599;}
	.st12{fill:none;stroke:#9BD5F9;stroke-width:3.55;stroke-linecap:round;stroke-linejoin:round;}
	.st13{fill:#9BD5F9;}
</style>
<path class="st0" d="M181.6,274.7c-7.9,36.3-26.7,53.3-26.7,53.3c-32.1-52.9,12-78,12-78"/>
<path class="st1" d="M166.2,249L166.2,249c0.6-0.4,1.5-0.2,1.9,0.4c0.4,0.6,0.2,1.5-0.5,1.9c-3,1.9-5.8,4.2-8.3,6.7
	c-2.6,2.5-4.8,5.3-6.8,8.3c-3.9,6-6.4,12.9-7.1,20c-0.3,3.5-0.3,7.1,0.1,10.6l0.4,2.6l0.2,1.3l0.3,1.3l0.6,2.7l0.8,2.5
	c2.2,6.9,5.3,13.4,9.2,19.5l-3.7-0.6c3.4-3.5,6.5-7.2,9.3-11.1c2.8-4.1,5.4-8.3,7.6-12.7l3.1-6.8l1.4-3.4l1.2-3.5l0.7-1.7l0.6-1.8
	l1-3.6l1.9-7.2v-0.1c0.2-0.8,1-1.3,1.9-1.1c0.8,0.2,1.3,1,1,1.9l-1.7,7.4l-1,3.7l-0.5,1.8l-0.6,1.8l-1.2,3.7l-1.4,3.6l-3,7
	c-2.2,4.6-4.6,9.1-7.4,13.4l-2.2,3.3l-2.3,3c-1.5,2.2-3.3,4.2-5.2,6c-0.1,0.1-0.3,0.2-0.4,0.3c0,0,0,0,0,0c-1.2,0.6-2.6,0.2-3.3-0.9
	c-3.9-6.5-7-13.4-9.1-20.7l-0.8-2.8l-0.6-2.8l-0.3-1.4l-0.2-1.4c-0.1-0.9-0.3-1.9-0.3-2.9c-0.4-3.8-0.3-7.6,0.1-11.4
	c1-7.7,3.8-15,8.2-21.3c2.1-3.2,4.6-6.1,7.4-8.7c1.4-1.3,2.8-2.5,4.3-3.7c1.5-1.2,3.1-2.3,4.7-3.3L166.2,249z"/>
<path class="st0" d="M445.1,227.7c-18.5-39.7-50.7-30.3-50.7-30.3c23.3-24.2-5.3-59.4-5.3-59.4c-42,20-16.4,66.3-16.4,66.3
	s-37.9,19.6-48.3-9C306,145,261.7,37.2,140.2,89.7c-122.9,53.1-31.5,275.6,138.2,221c82.3-26.5,107.3-85.7,107.3-85.7
	C418.7,253.7,445.1,227.7,445.1,227.7z"/>
<g>
	<defs>
		<path id="SVGID_1_" d="M445.1,227.7c-18.5-39.7-50.7-30.3-50.7-30.3c23.3-24.2-5.3-59.4-5.3-59.4c-42,20-16.4,66.3-16.4,66.3
			s-37.9,19.6-48.3-9C306,145,261.7,37.2,140.2,89.7c-122.9,53.1-31.5,275.6,138.2,221c82.3-26.5,107.3-85.7,107.3-85.7
			C418.7,253.7,445.1,227.7,445.1,227.7z"/>
	</defs>
	<clipPath id="SVGID_2_">
		<use xlink:href="#SVGID_1_"  style="overflow:visible;"/>
	</clipPath>
	<g class="st2">
		<path class="st3" d="M397.2,315.6l-81,40c0,0-262.5-29.9-222-85s143.5,5.1,177.5,18.4s98-39,98-39L397.2,315.6z"/>
		
			<ellipse transform="matrix(0.8202 -0.5721 0.5721 0.8202 -19.1567 180.8574)" class="st4" cx="278.1" cy="120.9" rx="21.7" ry="41.7"/>
		<path class="st4" d="M270.7,172.4c3.1-3.1,0.7-10.6-5.3-16.8s-12.9-8.1-16.5-5.7c-4.7,3.2-3.2,9.8,2.8,15.9
			c6,6.1,14.6,10.8,19,6.5V172.4z"/>
		<ellipse transform="matrix(0.6414 -0.7672 0.7672 0.6414 -30.045 283.7149)" class="st4" cx="288.5" cy="174" rx="4.5" ry="7.4"/>
	</g>
</g>
<path class="st5" d="M445.1,227.7c-18.5-39.7-50.7-30.3-50.7-30.3c23.3-24.2-5.3-59.4-5.3-59.4c-42,20-16.4,66.3-16.4,66.3
	s-37.9,19.6-48.3-9C306,145,261.7,37.2,140.2,89.7c-122.9,53.1-31.5,275.6,138.2,221c82.3-26.5,107.3-85.7,107.3-85.7
	C418.7,253.7,445.1,227.7,445.1,227.7z"/>
<path class="st6" d="M125.5,127.1c7.6,13.8,24.9,1.8,24.9,1.8s19-14.2,7.8-25.8c-22-23.5-80.7-85.3-80.7-85.3L125.5,127.1
	L125.5,127.1z"/>
<path class="st7" d="M146.2,91c-2.2,18.6-19.4,27.5-23.2,29 M126.8,70c-2.7,9.1-8.7,17-16.8,21.9 M107.2,49.4
	c-2.5,4.9-5.9,9.2-10.2,12.6"/>
<path class="st8" d="M158.2,103.1c-22-23.5-80.7-85.3-80.7-85.3l48,109.3"/>
<path class="st0" d="M295.2,272.6c26.5,38,26,69.6,26,69.6c-75.5-15.5-61-77-61-77"/>
<path class="st1" d="M258.6,264.8c0.2-0.8,1-1.3,1.9-1.1s1.3,1,1.1,1.9c-0.4,2.2-0.7,4.4-0.9,6.6c-0.1,2.2-0.1,4.5,0,6.7
	c0.1,4.5,0.7,8.9,1.8,13.3c2.1,8.7,6.3,16.7,12.2,23.5c2.9,3.3,6.2,6.3,9.8,9l2.8,1.8l1.4,1l1.4,0.8l2.9,1.7l3,1.5
	c8.1,3.8,16.7,6.6,25.6,8.2l-3.2,2.6V340l-0.2-2.3c-0.1-3-0.5-6-1-9l-1-4.5c-1.3-6-3.1-12-5.2-17.8c-1.1-2.8-2.2-5.7-3.5-8.5l-2-4.3
	l-2-4.1l-1-2l-1.2-2l-2.4-4c-1.5-2.7-3.3-5.3-5-8c-0.4-0.7-0.3-1.6,0.4-2c0.7-0.4,1.6-0.3,2,0.4c1.8,2.6,3.7,5.2,5.4,7.9l2.5,4
	l1.2,2l1.1,2l2.4,4.2l2,4.3c1.5,2.8,2.7,5.7,4,8.6c2.4,5.9,4.4,12,6,18.2l1,4.7c0.4,1.5,0.8,3.1,1,4.7l0.6,4.7
	c0.2,1.7,0.3,3.3,0.3,5c0,0.2,0,0.4,0,0.6c0,0,0,0,0,0c-0.3,1.4-1.7,2.3-3.1,2h-0.1c-9.2-1.9-18.2-4.9-26.6-9.1l-3.1-1.7l-3-1.8
	l-1.5-1l-1.5-1l-2.9-2c-3.8-2.9-7.2-6.3-10.3-9.9c-6.1-7.4-10.4-16.1-12.5-25.4c-1.1-4.6-1.6-9.3-1.7-14c0-2.4,0.1-4.7,0.3-7.1
	c0.2-2.4,0.5-4.7,1-7L258.6,264.8z"/>
<circle class="st9" cx="208.3" cy="197.4" r="9.4"/>
<circle class="st10" cx="211" cy="194.5" r="3.2"/>
<path class="st11" d="M203.1,198.7c-0.9,0.6-1.3,1.8-0.7,2.7c1.3,2.1,3.5,3.4,6,3.4c0.3,0,0.7,0,1,0c1.1-0.1,1.9-1.1,1.8-2.2
	s-1.1-1.9-2.2-1.8c-1.2,0.1-2.4-0.5-3-1.5c-0.6-0.9-1.8-1.2-2.7-0.7C203.2,198.6,203.1,198.6,203.1,198.7z"/>
<circle class="st9" cx="114.8" cy="195.5" r="9.4"/>
<circle class="st10" cx="117.5" cy="192.5" r="3.2"/>
<path class="st11" d="M109.7,196.7C109.7,196.7,109.7,196.7,109.7,196.7c-1,0.6-1.3,1.9-0.7,2.8c1.3,2.1,3.5,3.4,6,3.4
	c0.3,0,0.7,0,1,0c1.1-0.2,1.9-1.2,1.7-2.3c-0.2-1.1-1.2-1.9-2.3-1.7c-1.2,0.1-2.4-0.5-3-1.5C111.8,196.5,110.6,196.2,109.7,196.7
	L109.7,196.7z"/>
<path class="st5" d="M150.2,198.3c0,0,0.6,9.3,8.4,9.2s8.6-9.1,8.6-9.1"/>
<circle class="st12" cx="40.6" cy="71.6" r="13.9"/>
<circle class="st13" cx="45.5" cy="68.6" r="3"/>
<circle class="st12" cx="23.7" cy="116.3" r="8.8"/>
<circle class="st13" cx="26.7" cy="114.3" r="1.9"/>
<circle class="st12" cx="40.6" cy="148.9" r="4.5"/>
</svg>
