<?xml version="1.0" encoding="utf-8"?>
<!-- Generator: Adobe Illustrator 22.1.0, SVG Export Plug-In . SVG Version: 6.00 Build 0)  -->
<svg version="1.1" id="Layer_1" xmlns="http://www.w3.org/2000/svg" xmlns:xlink="http://www.w3.org/1999/xlink" x="0px" y="0px"
	 viewBox="0 0 202 39.5" style="enable-background:new 0 0 202 39.5;" xml:space="preserve">
<style type="text/css">
	.st0{fill:#FFFFFF;}
</style>
<path class="st0" d="M19.8,0C8.8,0,0,8.8,0,19.8s8.8,19.8,19.8,19.8s19.8-8.8,19.8-19.8C39.5,8.8,30.7,0,19.8,0z M37.2,19.8
	c0,9.6-7.8,17.5-17.5,17.5S2.3,29.4,2.3,19.7c0-9.6,7.8-17.5,17.5-17.5C29.4,2.3,37.2,10.1,37.2,19.8z"/>
<path class="st0" d="M29.4,15.2L30,14l1.9-3.1l-4.4,2.6c-0.1,0.1-0.2,0.1-0.3,0.2c-0.5,0.5-0.5,1.4,0,1.9c0.2,0.2,0.4,0.3,0.6,0.3
	c0.5,0.1,1,0,1.3-0.3C29.2,15.5,29.3,15.4,29.4,15.2L29.4,15.2z"/>
<path class="st0" d="M28.8,16.9C28.5,17,28.3,17,28,17c-1.2,0-2.2-1-2.2-2.2c0-0.2,0-0.5,0.1-0.7c-1.1-0.7-2.4-1-3.6-0.9
	c-6.8,0-7.9,3.2-7.9,7.2c0.1,1,0,2-0.5,2.9c-0.5,0.9-1.5,1.5-2.5,1.4c-0.4,0-1.9-0.3-2-0.7h0.2c1.6,0,2.9-1.3,2.9-3
	c0-0.1,0-0.1,0-0.2v-0.6h-1.4c-1,0-1.9,0.5-2.5,1.3C8,20.8,7,20.3,6,20.3H4.6v0.6C4.6,22.6,6,24,7.8,24h0.5c0,1,1.4,5,11.7,5
	c4,0,10-0.7,10-8.3C29.9,19.4,29.5,18,28.8,16.9z M57.4,32.3l-6.3-16.7c-0.3-0.7,0.1-1.2,0.8-1.2h0.9c0.5-0.1,1,0.3,1.2,0.8
	l5.2,14.1l4.5-13.4c0.1-0.5,0.6-0.8,1.1-0.8h0.8c0.5,0,1,0.3,1.1,0.8l4.5,13.4l5.2-14c0.1-0.5,0.6-0.9,1.1-0.8h0.9
	c0.8,0,1.1,0.5,0.8,1.2l-6.3,16.7c-0.1,0.5-0.6,0.9-1.2,0.8h-1c-0.5,0-1-0.3-1.1-0.8l-4.5-13.2l-4.4,13.2c-0.1,0.5-0.6,0.9-1.1,0.8
	h-1C58,33.1,57.5,32.8,57.4,32.3z M81.6,23.8c0-5.4,4.3-9.8,9.7-9.9c0.1,0,0.2,0,0.3,0c4.6,0,8.9,2.7,9.3,8.8c0.1,0.6-0.3,1-1,1
	H84.5c-0.3,4.2,3,7.3,7.6,7.3c2,0,4-0.6,5.6-1.9c0.4-0.3,1-0.3,1.4,0.1l0.3,0.3c0.4,0.4,0.4,1,0,1.4c-0.1,0.1-0.1,0.1-0.2,0.2
	c-2,1.6-4.5,2.5-7.1,2.4C85.7,33.5,81.6,29.1,81.6,23.8z M98.1,21.5c-0.5-3.1-3.3-5.2-6.4-5c-3.2-0.1-6.1,1.9-7,5H98.1z M108.2,29.4
	v2.7c0,0.5-0.3,1-0.9,1c0,0-0.1,0-0.1,0h-0.9c-0.5,0-1-0.3-1-0.8c0-0.1,0-0.1,0-0.2V7c0-0.5,0.3-1,0.8-1c0.1,0,0.1,0,0.2,0h0.9
	c0.5,0,1,0.3,1,0.8c0,0.1,0,0.1,0,0.2V18c1.5-2.6,4.3-4.2,7.3-4.1c5.7,0,9.4,4.4,9.4,9.8s-3.7,9.8-9.4,9.8
	C112.5,33.6,109.7,32,108.2,29.4z M122,23.8c0-4-2.5-7.3-6.8-7.3c-3.8-0.1-7,2.9-7.1,6.7c0,0.2,0,0.3,0,0.5c-0.2,3.8,2.8,7,6.6,7.2
	c0.2,0,0.3,0,0.5,0C119.5,31,122,27.7,122,23.8z M129.6,32.1V7c0-0.5,0.3-1,0.8-1c0.1,0,0.1,0,0.2,0h0.9c0.5,0,1,0.3,1,0.9
	c0,0,0,0.1,0,0.1v11.4c1-2.7,3.7-4.5,6.6-4.4c4,0,7.4,2.3,7.4,8.5v9.6c0,0.5-0.3,1-0.9,1c0,0-0.1,0-0.1,0h-0.9c-0.5,0-1-0.3-1-0.9
	c0,0,0-0.1,0-0.1v-9.6c0-4.5-2.4-6-4.7-6c-2.1,0-6.3,1.5-6.3,7.5v8.1c0,0.5-0.3,1-0.9,1c0,0-0.1,0-0.1,0h-0.9
	c-0.5,0.1-1-0.3-1.1-0.8C129.6,32.2,129.6,32.2,129.6,32.1z M151.6,8.1c-0.1-1.1,0.8-2.1,1.9-2.1c0.1,0,0.1,0,0.2,0
	c1.1,0,2.1,0.9,2.1,2c0,0,0,0.1,0,0.1c0,1.1-0.9,2.1-2,2.1c0,0,0,0-0.1,0c-1.1,0-2-0.8-2.1-1.9C151.6,8.2,151.6,8.2,151.6,8.1z
	 M152.3,32.1V15.4c0-0.5,0.4-1,0.9-1c0,0,0.1,0,0.1,0h0.9c0.5-0.1,0.9,0.3,1,0.8c0,0.1,0,0.1,0,0.2v16.7c0.1,0.5-0.3,0.9-0.8,1
	c-0.1,0-0.1,0-0.2,0h-0.9c-0.5,0-1-0.3-1-0.9C152.2,32.2,152.2,32.1,152.3,32.1L152.3,32.1z M161.3,32.1V15.4c0-0.5,0.3-1,0.9-1
	c0,0,0.1,0,0.1,0h0.9c0.5,0,1,0.3,1,0.9c0,0,0,0.1,0,0.1v3c1-2.7,3.6-4.5,6.5-4.4c4,0,7.4,2.3,7.4,8.5v9.6c0,0.5-0.3,1-0.9,1
	c0,0-0.1,0-0.1,0h-0.9c-0.5,0-1-0.3-1-0.9c0,0,0-0.1,0-0.1v-9.7c0-4.5-2.4-6-4.7-6c-2.1,0-6.3,1.5-6.3,7.5v8.1c0,0.5-0.3,1-0.9,1
	c0,0-0.1,0-0.1,0h-0.9c-0.5,0.1-1-0.3-1-0.8C161.3,32.2,161.3,32.2,161.3,32.1L161.3,32.1z M184.5,27.2V16.7h-2.6
	c-0.4,0-0.6-0.2-0.6-0.6V15c0-0.3,0.2-0.6,0.4-0.6c0.1,0,0.1,0,0.2,0h2.6l0.6-4.8c0-0.5,0.4-0.9,0.9-0.8c0,0,0,0,0,0h0.5
	c0.4-0.1,0.8,0.3,0.9,0.7c0,0.1,0,0.1,0,0.2v4.8h5.4c0.3,0,0.6,0.2,0.6,0.5c0,0,0,0.1,0,0.1v1.1c0,0.3-0.2,0.6-0.5,0.6
	c0,0-0.1,0-0.1,0h-5.4v10.8c0,2.7,1.3,3.6,2.7,3.6c1.4,0.1,2.5-0.9,2.7-2.2c0-0.1,0-0.2,0-0.2c0-0.2,0-0.5-0.1-0.7
	c0-0.5,0.1-0.7,0.5-0.7h1.3c0.3,0,0.6,0.2,0.7,0.5c0.1,0.4,0.1,0.8,0.1,1.2c0,2.6-1.8,4.6-5.3,4.6C187.2,33.5,184.5,32.2,184.5,27.2
	L184.5,27.2z"/>
</svg>
