<svg xmlns="http://www.w3.org/2000/svg" xmlns:xlink="http://www.w3.org/1999/xlink" viewBox="0 0 623.8 577.84"><defs><style>.cls-1{fill:url(#Degradado_sin_nombre_26);}.cls-2{fill:#047faf;}.cls-3{fill:#dbe8d6;}.cls-4{fill:#0093dd;}.cls-5{fill:#c0ceba;}.cls-6{fill:#c083c2;stroke:#a562a5;}.cls-12,.cls-15,.cls-20,.cls-23,.cls-40,.cls-51,.cls-6{stroke-miterlimit:10;}.cls-12,.cls-20,.cls-51,.cls-6{stroke-width:2px;}.cls-7{fill:#c482c2;}.cls-8{fill:#a562a5;}.cls-9{fill:#ebf1f7;}.cls-10{fill:#2489ca;}.cls-11{fill:#3c99d4;}.cls-12,.cls-15,.cls-20,.cls-40{fill:none;}.cls-12,.cls-23,.cls-40,.cls-51{stroke:#1c4189;}.cls-13{opacity:0.25;}.cls-14{fill:url(#Degradado_sin_nombre_136);}.cls-15{stroke:#c0ceba;stroke-linecap:round;}.cls-15,.cls-23{stroke-width:3px;}.cls-16{fill:#45c7ef;}.cls-17{fill:#defaff;}.cls-18{fill:#c7f4ff;}.cls-19{fill:#00c7f8;}.cls-20{stroke:#edf8f9;}.cls-21{opacity:0.5;}.cls-22,.cls-23{fill:#edf8f9;}.cls-24{fill:#1070b3;}.cls-25{fill:#0877b9;}.cls-26{fill:url(#Degradado_sin_nombre_136-2);}.cls-27{fill:url(#Degradado_sin_nombre_136-3);}.cls-28{fill:url(#Degradado_sin_nombre_136-4);}.cls-29{fill:url(#Degradado_sin_nombre_136-5);}.cls-30{fill:url(#Degradado_sin_nombre_136-6);}.cls-31{fill:url(#Degradado_sin_nombre_136-7);}.cls-32{fill:url(#Degradado_sin_nombre_136-8);}.cls-33{fill:url(#Degradado_sin_nombre_136-9);}.cls-34{fill:url(#Degradado_sin_nombre_136-10);}.cls-35{fill:url(#Degradado_sin_nombre_136-11);}.cls-36{fill:url(#Degradado_sin_nombre_136-12);}.cls-37{fill:url(#Degradado_sin_nombre_136-13);}.cls-38{fill:url(#Degradado_sin_nombre_136-14);}.cls-39{fill:url(#Degradado_sin_nombre_136-15);}.cls-40{stroke-width:0.5px;}.cls-41{fill:#1c4189;}.cls-42{fill:#6b7fc3;}.cls-43{fill:#b8c3ec;}.cls-44{fill:#93a0df;}.cls-45{fill:#3863a8;}.cls-46{fill:#fff;}.cls-47{fill:#29333f;}.cls-48{fill:#4b8084;}.cls-49{fill:#80b8c1;}.cls-50{fill:#c7e5ec;}.cls-51{fill:url(#Degradado_sin_nombre_173);}.cls-52{fill:url(#Degradado_sin_nombre_136-16);}</style><linearGradient id="Degradado_sin_nombre_26" x1="331.25" y1="7.05" x2="339.72" y2="583.83" gradientUnits="userSpaceOnUse"><stop offset="0" stop-color="#0df"/><stop offset="1" stop-color="#008fe2"/></linearGradient><linearGradient id="Degradado_sin_nombre_136" x1="388.08" y1="525.1" x2="459.54" y2="479.41" gradientUnits="userSpaceOnUse"><stop offset="0" stop-color="#1c4189"/><stop offset="0.44" stop-color="#768fb6"/><stop offset="0.82" stop-color="#beced9"/><stop offset="1" stop-color="#dae6e7"/></linearGradient><linearGradient id="Degradado_sin_nombre_136-2" x1="470.05" y1="342.86" x2="470.05" y2="201.95" xlink:href="#Degradado_sin_nombre_136"/><linearGradient id="Degradado_sin_nombre_136-3" x1="470.57" y1="163.52" x2="470.57" y2="47.47" xlink:href="#Degradado_sin_nombre_136"/><linearGradient id="Degradado_sin_nombre_136-4" x1="212.8" y1="164.1" x2="212.8" y2="47.47" xlink:href="#Degradado_sin_nombre_136"/><linearGradient id="Degradado_sin_nombre_136-5" x1="470.05" y1="407.66" x2="470.05" y2="317.47" xlink:href="#Degradado_sin_nombre_136"/><linearGradient id="Degradado_sin_nombre_136-6" x1="393.11" y1="137.66" x2="393.11" y2="47.47" xlink:href="#Degradado_sin_nombre_136"/><linearGradient id="Degradado_sin_nombre_136-7" x1="470.05" y1="227.66" x2="470.05" y2="137.6" xlink:href="#Degradado_sin_nombre_136"/><linearGradient id="Degradado_sin_nombre_136-8" x1="393.11" y1="407.66" x2="393.11" y2="291.11" xlink:href="#Degradado_sin_nombre_136"/><linearGradient id="Degradado_sin_nombre_136-9" x1="380.04" y1="227.46" x2="380.04" y2="112.85" xlink:href="#Degradado_sin_nombre_136"/><linearGradient id="Degradado_sin_nombre_136-10" x1="393.11" y1="317.47" x2="393.11" y2="200.92" xlink:href="#Degradado_sin_nombre_136"/><linearGradient id="Degradado_sin_nombre_136-11" x1="303.25" y1="253.84" x2="303.25" y2="110.93" xlink:href="#Degradado_sin_nombre_136"/><linearGradient id="Degradado_sin_nombre_136-12" x1="303.25" y1="137.66" x2="303.25" y2="47.47" xlink:href="#Degradado_sin_nombre_136"/><linearGradient id="Degradado_sin_nombre_136-13" x1="302.86" y1="407.66" x2="302.86" y2="317.84" xlink:href="#Degradado_sin_nombre_136"/><linearGradient id="Degradado_sin_nombre_136-14" x1="225.64" y1="227.66" x2="225.64" y2="137.6" xlink:href="#Degradado_sin_nombre_136"/><linearGradient id="Degradado_sin_nombre_136-15" x1="303.12" y1="344.09" x2="303.12" y2="227.46" xlink:href="#Degradado_sin_nombre_136"/><linearGradient id="Degradado_sin_nombre_173" x1="226.52" y1="465.05" x2="369.01" y2="465.05" gradientUnits="userSpaceOnUse"><stop offset="0" stop-color="#c4d4e8"/><stop offset="0.38" stop-color="#d7e6f1"/><stop offset="1" stop-color="#f3ffff"/></linearGradient><linearGradient id="Degradado_sin_nombre_136-16" x1="297.76" y1="513.84" x2="297.76" y2="416.27" xlink:href="#Degradado_sin_nombre_136"/></defs><title>Webhint_puzzle_1</title><g id="Capa_2" data-name="Capa 2"><g id="Capa_12" data-name="Capa 12"><circle class="cls-1" cx="335.38" cy="288.42" r="288.42"/><path class="cls-2" d="M620.6,298.28a25.77,25.77,0,0,0-22,39.24,45.93,45.93,0,0,0-59.53,43.85,46.55,46.55,0,0,0,.43,6.17q-.64,0-1.29,0a25.76,25.76,0,0,0-25.77,25.76c0,.51,0,1,0,1.51a14,14,0,0,0-6.33-1.51,14.18,14.18,0,1,0,13.63,18,25.77,25.77,0,0,0,42.85-9.82,45.7,45.7,0,0,0,22.34,5.8c1.1,0,2.2,0,3.28-.13a287,287,0,0,0,35.32-128.68A25,25,0,0,0,620.6,298.28Z"/><path class="cls-3" d="M335.38,577.84c128.21,0,236.86-83.67,274.39-199.38-28.44,26.3-77.32,57.16-147.72,53.18-183.11-10.22-276.81,63.59-301.71,87A287.15,287.15,0,0,0,335.38,577.84Z"/><path class="cls-4" d="M596.11,166.93s0,0,0,0h0a1.73,1.73,0,0,0-.12.19l.07,0a.08.08,0,0,1,0,0A.54.54,0,0,0,596.11,166.93Z"/><path class="cls-4" d="M597.51,168l-1.47-.86-.18.42c-.16.34-.35.73-.55,1.13-.41.79-.86,1.64-1.34,2.49-1,1.72-2,3.47-3.14,5.22-2.22,3.51-4.68,7-7.27,10.36a145.76,145.76,0,0,1-17.35,18.8,121.93,121.93,0,0,1-43.44,25.78,127.31,127.31,0,0,1-52.38,5.59,176.82,176.82,0,0,1-27.75-4.9l-3.47-.95c-1.17-.32-2.27-.61-3.67-1-2.67-.79-5.3-1.63-8-2.36q-8-2.25-16.13-4.11a282.26,282.26,0,0,0-65.89-7.24,247,247,0,0,0-64.89,9.31,243.38,243.38,0,0,0-85.27,43.86q-6.21,5-12,10.34a146.7,146.7,0,0,0-11,11.27,146.44,146.44,0,0,1,12.39-9.6q6.4-4.49,13.11-8.47A233.3,233.3,0,0,1,225.43,259a230.52,230.52,0,0,1,58.77-16.49,225.7,225.7,0,0,1,59.93-.36,234.33,234.33,0,0,1,29.21,5.55,267.32,267.32,0,0,1,28.28,8.91c4.62,1.74,9.19,3.62,13.72,5.59,2.27,1,4.51,2,6.75,3.05l7.58,3.46a220.26,220.26,0,0,0,32.81,11.43c5.7,1.48,11.53,2.66,17.43,3.66s11.93,1.59,18,2a171.85,171.85,0,0,0,36.86-1.82,173.71,173.71,0,0,0,36.16-9.85A188.79,188.79,0,0,0,604.29,257q8.44-5.43,16.3-11.64A286.33,286.33,0,0,0,597.51,168Z"/><path class="cls-4" d="M322.79,163a232.34,232.34,0,0,0-52.46-7.48,254.85,254.85,0,0,0-53.62,4.23,291,291,0,0,0-52.24,14.92c-2.13.8-4.24,1.65-6.34,2.52s-4.21,1.75-6.29,2.66-4.17,1.83-6.23,2.79l-3.1,1.42-2.74,1.16c-3.63,1.55-7.3,2.91-11,4.23s-7.35,2.45-11,3.44a134.36,134.36,0,0,1-43.56,5,108.28,108.28,0,0,1-12.31-1.38,286.58,286.58,0,0,0-12.81,56.71,164.54,164.54,0,0,0,28.51-1.74,183.48,183.48,0,0,0,56.31-18.19c4.3-2.14,8.45-4.49,12.55-6.87s8-4.93,11.9-7.57l5.41-3.67c1.68-1.15,3.37-2.28,5.08-3.37s3.4-2.21,5.14-3.27,3.45-2.14,5.21-3.16a261.76,261.76,0,0,1,44.11-21,232.85,232.85,0,0,1,47.88-11.91,219.42,219.42,0,0,1,50.1-1.16,205.08,205.08,0,0,1,25.12,3.9,147,147,0,0,1,24.51,7.49,148.1,148.1,0,0,0-23.25-11.56A210,210,0,0,0,322.79,163Z"/><path class="cls-4" d="M539.12,84.65v0S539.15,84.67,539.12,84.65Z"/><ellipse class="cls-5" cx="405.33" cy="447.7" rx="5.61" ry="3.03"/><ellipse class="cls-5" cx="216.31" cy="496.29" rx="5.61" ry="2.33" transform="translate(-137.3 86.35) rotate(-17.23)"/><ellipse class="cls-5" cx="226.49" cy="496.18" rx="4.48" ry="1.86" transform="translate(-136.81 89.36) rotate(-17.23)"/><ellipse class="cls-5" cx="391.64" cy="446.18" rx="4.69" ry="1.52"/><ellipse class="cls-5" cx="393.53" cy="452.24" rx="2.81" ry="1.52"/><path class="cls-6" d="M516.07,456.89s-29.74-19.56-12.35,3.94c0,0-44.62,15.48,1.59,9.79,0,0-10.09,35.91,14.34,3.35,0,0,40.9,12.27,9.43-7.73C529.08,466.24,562.68,446.24,516.07,456.89Z"/><ellipse class="cls-7" cx="517.17" cy="460.28" rx="2.6" ry="1.26" transform="translate(-118.85 186.77) rotate(-18.4)"/><path class="cls-8" d="M518.23,458.83a4.72,4.72,0,0,0-1.58.3c-1.35.48-2.21,1.39-1.92,2,.16.38.69.58,1.38.58a4.82,4.82,0,0,0,1.58-.3c1.35-.48,2.21-1.4,1.92-2-.17-.38-.7-.58-1.38-.58Z"/><path class="cls-8" d="M520.17,462.2a2,2,0,0,0-.67.12c-.68.25-1.07.77-.89,1.18a.91.91,0,0,0,.89.43,2,2,0,0,0,.66-.12c.68-.24,1.08-.77.89-1.18a.93.93,0,0,0-.88-.43Z"/><path class="cls-9" d="M424.78,540.54a12.2,12.2,0,1,1,17.22-11l19-12.17-12.26-19.18A12.21,12.21,0,1,0,438,481.32l-12.27-19.18-18.83,12A12.18,12.18,0,0,1,408,495.36a12.18,12.18,0,0,1-18.76-9.9l-18.83,12,35.31,55.21Z"/><path class="cls-10" d="M428.74,503c3.62,6.9,8.75,3.69,8.75,3.69l11.87-7.6-.59-.92a12.88,12.88,0,0,0,2.23-.12l8.49-5.44A12.19,12.19,0,1,0,438,481.32l-4.4-6.88Z"/><path class="cls-11" d="M449.36,499.09l-11.28,7.22a6.92,6.92,0,0,1-2.89,1.05c-2,.22-4.45-.51-6.36-4.8l-.13.47a6.88,6.88,0,0,0,1.78,6.51l22,13.29,8.57-5.48Z"/><path class="cls-9" d="M455.83,496.26a12.13,12.13,0,0,0,3.66-3.65l-8.5,5.44A12.07,12.07,0,0,0,455.83,496.26Z"/><path class="cls-12" d="M424.78,540.54a12.2,12.2,0,1,1,17.22-11l19-12.17-12.26-19.18A12.21,12.21,0,1,0,438,481.32l-12.27-19.18-18.83,12A12.18,12.18,0,0,1,408,495.36a12.18,12.18,0,0,1-18.76-9.9l-18.83,12,35.31,55.21Z"/><g class="cls-13"><path class="cls-14" d="M424.81,466.28l10.65,16.65,3.11,4.85,2.19-5.32a9.2,9.2,0,1,1,8.52,12.72h-.39l-5.75-.24,3.1,4.85,10.65,16.66-12.69,8.11a15.2,15.2,0,1,0-24.86,15.9l-12.69,8.12-32.08-50.16,12.61-8.07a15.21,15.21,0,1,0,25-16l12.61-8.07m.91-4.14-18.83,12a12.2,12.2,0,0,1-5.43,23.11,12.17,12.17,0,0,1-12.2-11.83l-18.83,12,35.31,55.21,19-12.17a12.2,12.2,0,1,1,17.22-11l19-12.17-12.26-19.18h.51A12.21,12.21,0,1,0,438,481.32l-12.27-19.18Z"/></g><path class="cls-3" d="M376.9,540.5s33.84-15.21,61.22-1.18C438.12,539.32,405.14,577.18,376.9,540.5Z"/><path class="cls-15" d="M376.9,540.5s34-15.59,61.22-1.18"/><path class="cls-16" d="M105.85,179.45c0,7.85-6.37,2.12-14.22,2.12s-14.22,5.73-14.22-2.12a14.22,14.22,0,0,1,28.44,0Z"/><path class="cls-17" d="M103.68,178.45c-1.63,2.83-4.74-3.19-9.06-5.69s-9.88-1-8.25-3.8,8-3.6,12.37-1.11S105.32,175.62,103.68,178.45Z"/><ellipse class="cls-18" cx="82.59" cy="172.02" rx="2.03" ry="1.44" transform="translate(-106.55 146.71) rotate(-56.73)"/><circle class="cls-19" cx="89.16" cy="138.18" r="9.17"/><path class="cls-16" d="M97.69,138.18c0,4.71-3.82,1.27-8.53,1.27s-8.53,3.44-8.53-1.27a8.53,8.53,0,0,1,17.06,0Z"/><path class="cls-18" d="M96.39,137.58c-1,1.7-2.85-1.92-5.44-3.41S85,133.59,86,131.89s4.82-2.17,7.41-.67S97.37,135.88,96.39,137.58Z"/><ellipse class="cls-18" cx="83.73" cy="133.72" rx="1.22" ry="0.86" transform="translate(-74.01 130.38) rotate(-56.73)"/><circle class="cls-19" cx="121.74" cy="119.74" r="6.7"/><path class="cls-16" d="M128,119.74c0,3.44-2.79.93-6.23.93s-6.23,2.51-6.23-.93a6.23,6.23,0,0,1,12.46,0Z"/><path class="cls-18" d="M127,119.3c-.72,1.25-2.08-1.39-4-2.49s-4.33-.42-3.61-1.66,3.52-1.58,5.42-.49S127.74,118.06,127,119.3Z"/><ellipse class="cls-18" cx="117.78" cy="116.49" rx="0.89" ry="0.63" transform="translate(-44.23 151.07) rotate(-56.73)"/><circle class="cls-20" cx="91.63" cy="179.45" r="16.05"/><circle class="cls-20" cx="89.2" cy="138.18" r="9.88"/><circle class="cls-20" cx="121.74" cy="119.63" r="7.59"/><g class="cls-21"><path class="cls-17" d="M544.67,390.16c-.38,1.87,3.31.44,6.16,1s4.7,3.39,5.07,1.52-2.12-4.68-5-5.26S545.05,388.29,544.67,390.16Z"/><ellipse class="cls-18" cx="556.38" cy="395.49" rx="1.18" ry="0.84" transform="translate(86.16 890.33) rotate(-81.87)"/><path class="cls-22" d="M549.55,405.19a9.94,9.94,0,1,1,7.47-3.36A9.87,9.87,0,0,1,549.55,405.19Zm0-18.72a5.24,5.24,0,0,0-.56,0,8.69,8.69,0,0,0-6,2.95,8.78,8.78,0,1,0,12.39-.78A8.71,8.71,0,0,0,549.57,386.47Z"/><path class="cls-18" d="M565.47,362.9c-.26,1.28,2.26.3,4.21.69s3.2,2.32,3.46,1-1.45-3.2-3.4-3.59S565.73,361.63,565.47,362.9Z"/><ellipse class="cls-18" cx="573.47" cy="366.54" rx="0.81" ry="0.57" transform="translate(129.49 882.39) rotate(-81.87)"/><path class="cls-22" d="M568.78,373.58a7.22,7.22,0,0,1-5.41-12h0a7.23,7.23,0,1,1,5.41,12Zm-4.42-11.12a5.9,5.9,0,1,0,8.33-.52,5.9,5.9,0,0,0-8.33.52Z"/><path class="cls-18" d="M563.17,325.39c-.19.93,1.65.22,3.07.5s2.34,1.69,2.53.76-1.06-2.33-2.48-2.62S563.36,324.46,563.17,325.39Z"/><ellipse class="cls-18" cx="569.01" cy="328.05" rx="0.59" ry="0.42" transform="translate(163.77 844.93) rotate(-81.87)"/><path class="cls-22" d="M565.65,333.58a5.71,5.71,0,0,1-4.27-9.48h0a5.7,5.7,0,0,1,10,3.41,5.71,5.71,0,0,1-5.34,6.05ZM562.37,325A4.38,4.38,0,1,0,570,327.6a4.31,4.31,0,0,0-1.47-3,4.38,4.38,0,0,0-6.18.38Z"/></g><rect class="cls-23" x="167.7" y="47.47" width="360.66" height="360.19"/><path class="cls-10" d="M225.53,174.86s-6.47-4.66,1.29-10.88l18.07-16.17s5.18-5.44,10.64-.7L422.32,273.39v60.55s-.08,9.51-12.28,8.46Z"/><path class="cls-24" d="M268.52,213.89l-43,39.08s-4.42,3.29,0,9.16l20,18.15s4.74,5.09,11.74-.7L302.81,245Z"/><path class="cls-25" d="M344,214.21,422.83,154l-.51-60.23s-3.37-13.14-14.6-6.3L302.81,183Z"/><path class="cls-11" d="M410,342.48a10.83,10.83,0,0,0,10.13,3.15l61.44-30.28c7.86-5.36,6.76-12,6.76-12V122.55c0-8-8.14-10.7-8.14-10.7L427,86.18c-11.64-7.19-19.26,1.3-19.26,1.3s9.81-7.06,14.6,6.3V332.84a10.85,10.85,0,0,1-1.05,4.71c-1.4,2.83-4.44,5.47-11.74,4.36Z"/><g class="cls-13"><path class="cls-26" d="M483.27,205a13.74,13.74,0,0,1,11.79,20.84l-2.74,4.55h33v84.19H491.77l3,4.64a13.73,13.73,0,0,1,2.24,7.5c0,7.4-6.05,13.19-13.77,13.19s-13.77-5.79-13.77-13.19a13.65,13.65,0,0,1,2.24-7.5l3-4.64h-33.6V280.32l-4.73,3.35a13.63,13.63,0,0,1-7.93,2.53,13.77,13.77,0,1,1,7.93-25l4.73,3.35v-34.2h33l-2.73-4.55A13.74,13.74,0,0,1,483.27,205m0-3a16.75,16.75,0,0,0-14.37,25.39H438.17v31.41a16.77,16.77,0,1,0,0,27.37v31.41h31.05a16.73,16.73,0,0,0-2.72,9.14c0,9.27,7.51,16.19,16.77,16.19S500,335.94,500,326.67a16.65,16.65,0,0,0-2.73-9.14h31.05V227.34H497.63A16.74,16.74,0,0,0,483.27,202Z"/><path class="cls-27" d="M525.36,50.47v84.19H491.15l3.35,4.74a13.63,13.63,0,0,1,2.53,7.93c0,7.4-6.06,13.19-13.8,13.19s-13.73-5.79-13.73-13.19A13.63,13.63,0,0,1,472,139.4l3.35-4.74H441.17v-33l-4.55,2.73a13.77,13.77,0,1,1,0-23.58l4.55,2.73v-33h84.19m3-3H438.17V78.21a16.77,16.77,0,1,0,0,28.72v30.73h31.41a16.67,16.67,0,0,0-3.08,9.67c0,9.26,7.47,16.19,16.73,16.19s16.8-6.93,16.8-16.19a16.67,16.67,0,0,0-3.08-9.67h31.41V47.47Z"/><path class="cls-28" d="M254.89,50.47V73.63a19.41,19.41,0,0,0-5.62-.83,19.77,19.77,0,0,0,0,39.54,19.41,19.41,0,0,0,5.62-.83v23.15h-34.2L224,139.4a13.77,13.77,0,1,1-22.48,0l3.35-4.74H170.7V50.47h84.19m3-3H167.7v90.19h31.41a16.77,16.77,0,1,0,27.38,0h31.4V106.93a16.77,16.77,0,1,1,0-28.72V47.47Z"/><path class="cls-29" d="M525.36,320.47v84.19H441.17v-34.2l-4.73,3.35a13.77,13.77,0,1,1,0-22.48l4.73,3.35V320.47h23.15A19.77,19.77,0,1,0,503,326.1a19.48,19.48,0,0,0-.83-5.63h23.15m3-3H497.63a16.77,16.77,0,1,1-28.73,0H438.17v31.41a16.77,16.77,0,1,0,0,27.38v31.4h90.19V317.47Z"/><path class="cls-30" d="M435.14,50.47V73.62a19.54,19.54,0,0,0-5.59-.82,19.77,19.77,0,0,0,0,39.54,19.54,19.54,0,0,0,5.59-.82v23.14H412.22a19.5,19.5,0,0,0,.66-5,19.77,19.77,0,0,0-39.54,0,19.5,19.5,0,0,0,.66,5H351.08v-23.3a19.77,19.77,0,1,0,6.15-38.56,19.69,19.69,0,0,0-6.15,1V50.47h84.06m3-3H348.08V78.53a16.77,16.77,0,1,1,0,28.08v31.05H378.4a16.77,16.77,0,1,1,29.42,0h30.32V107a16.77,16.77,0,1,1,0-28.76V47.47Z"/><path class="cls-31" d="M525.33,140.6v84.06H502.18a19.59,19.59,0,0,0,.82-5.59,19.77,19.77,0,1,0-39.54,0,19.59,19.59,0,0,0,.82,5.59H441.14v-34l-4.72,3.3a13.77,13.77,0,1,1,0-22.56l4.72,3.3V140.6h23.3A19.77,19.77,0,1,0,503,146.75a19.69,19.69,0,0,0-1-6.15h23.31m3-3H497.27a16.77,16.77,0,1,1-28.08,0H438.14v31.29a16.77,16.77,0,1,0,0,27.48v31.29h30.71a16.77,16.77,0,1,1,28.76,0h30.72V137.6Z"/><path class="cls-32" d="M393.11,294.11a13.76,13.76,0,0,1,11.28,21.65l-3.3,4.71h34.05v23.31A19.77,19.77,0,1,0,429,382.34a20,20,0,0,0,6.15-1v23.3H351.08V381.52a19.54,19.54,0,0,0,5.59.82,19.77,19.77,0,0,0,0-39.54,19.54,19.54,0,0,0-5.59.82V320.47h34.05l-3.3-4.71a13.76,13.76,0,0,1,11.28-21.65m0-3a16.75,16.75,0,0,0-13.74,26.36H348.08v30.72a16.77,16.77,0,1,1,0,28.76v30.71h90.06V376.61a16.77,16.77,0,1,1,0-28.08V317.47H406.85a16.75,16.75,0,0,0-13.74-26.36Z"/><path class="cls-33" d="M393.11,115.85c7.81,0,13.7,5.5,13.7,12.8a13.69,13.69,0,0,1-2,7.08l-2.73,4.54h33V164a19.77,19.77,0,1,0,0,37.28v23H411.75a19.77,19.77,0,1,0-37.28,0H351v-34l-4.74,3.34a13.63,13.63,0,0,1-7.93,2.53,13.4,13.4,0,0,1-13.34-13.74c0-7.74,5.86-13.79,13.34-13.79a13.63,13.63,0,0,1,7.93,2.53l4.74,3.35V140.27h33l-2.73-4.54a13.78,13.78,0,0,1-2-7.08c0-7.3,6-12.8,13.84-12.8m0-3c-9.26,0-16.84,6.54-16.84,15.8a16.62,16.62,0,0,0,2.41,8.62H348v31.41a16.67,16.67,0,0,0-9.67-3.08c-9.26,0-16.34,7.52-16.34,16.79a16.38,16.38,0,0,0,16.34,16.74,16.67,16.67,0,0,0,9.67-3.08v31.41h.13v-.17h31.29a16.77,16.77,0,1,1,27.48,0h31.29V196.37a16.77,16.77,0,1,1,0-27.48V137.27H407.4a16.62,16.62,0,0,0,2.41-8.62c0-9.26-7.44-15.8-16.7-15.8Z"/><path class="cls-34" d="M393.11,203.92a13.76,13.76,0,0,1,11.28,21.65l-3.3,4.72h34.05v23.3a19.77,19.77,0,1,0,0,37.58v23.3H411.75a19.77,19.77,0,1,0-37.28,0H351.08V291.33a19.54,19.54,0,0,0,5.59.82,19.77,19.77,0,0,0,0-39.54,19.54,19.54,0,0,0-5.59.82V230.29h34.05l-3.3-4.72a13.76,13.76,0,0,1,11.28-21.65m0-3a16.76,16.76,0,0,0-13.74,26.37H348.08V258a16.77,16.77,0,1,1,0,28.76v30.71h31.29a16.77,16.77,0,1,1,27.48,0h31.29V286.42a16.77,16.77,0,1,1,0-28.08v-31H406.85a16.76,16.76,0,0,0-13.74-26.37Z"/><path class="cls-35" d="M303.25,113.93a13.76,13.76,0,0,1,11.29,21.64l-3.3,4.72h34L345,163.74a16.27,16.27,0,0,0-5.87-1.12,19.77,19.77,0,1,0,0,39.53A15.94,15.94,0,0,0,345,201l.25,23.48h-34l3.3,4.72a13.78,13.78,0,1,1-22.57,0l3.3-4.72h-34V201.34a19.52,19.52,0,0,0,5.58.81,19.77,19.77,0,1,0,0-39.53,19.52,19.52,0,0,0-5.58.81V140.29h34l-3.3-4.72a13.64,13.64,0,0,1-2.49-7.87,13.79,13.79,0,0,1,13.77-13.77m0-3a16.75,16.75,0,0,0-13.74,26.36H258.23V168h0a16.77,16.77,0,1,1,0,28.77h0v30.71h31.28a16.77,16.77,0,1,0,27.48,0h31.29L348,196.05c-2.64,1.72-5.44,3.1-8.82,3.1a16.77,16.77,0,1,1,0-33.53,15.9,15.9,0,0,1,8.82,3.06l.33-31.39H317a16.75,16.75,0,0,0-13.74-26.36Z"/><path class="cls-36" d="M345.08,50.47v33.6l4.64-3a13.77,13.77,0,1,1,0,23.06l-4.64-3v33.22H321.89A19.55,19.55,0,0,0,323,127.7a19.77,19.77,0,1,0-38.41,6.59H260.89V101.63l-4.54,2.73a13.77,13.77,0,1,1,0-23.58l4.54,2.73v-33h84.19m3-3H257.89V78.21a16.77,16.77,0,1,0,0,28.72v30.73h.34v-.37h31.28a16.77,16.77,0,1,1,27.48,0h31.09V106.61a16.77,16.77,0,1,0,0-28.08V47.47Z"/><path class="cls-37" d="M345.22,320.84v32.67l4.55-2.73a13.77,13.77,0,1,1,0,23.58l-4.55-2.73v33H261V371.07l-4.64,3a13.77,13.77,0,1,1,0-23.06l4.64,3V320.85h23.2a19.55,19.55,0,0,0-1.13,6.59,19.77,19.77,0,1,0,39.53,0,19.55,19.55,0,0,0-1.13-6.59h23.72m3-3H316.61a16.77,16.77,0,1,1-27.49,0H258v30.68a16.77,16.77,0,1,0,0,28.08v31.05h90.19V376.93a16.77,16.77,0,1,0,0-28.72V317.84Z"/><path class="cls-38" d="M254.89,140.6v34.05l4.72-3.3a13.67,13.67,0,0,1,7.88-2.49c7.46,0,13.09,5.82,13.09,13.53s-5.75,14-13.09,14a13.67,13.67,0,0,1-7.88-2.49l-4.72-3.3v34H231.75a19.59,19.59,0,0,0,.82-5.59,19.77,19.77,0,0,0-39.54,0,19.59,19.59,0,0,0,.82,5.59H170.7V140.6H194a19.77,19.77,0,1,0,38.56,6.15,20,20,0,0,0-1-6.15h23.3m3-3h-31a16.77,16.77,0,1,1-28.08,0H167.7v90.06h30.72a16.77,16.77,0,1,1,28.76,0h30.71V196.37a16.72,16.72,0,0,0,9.6,3c9.26,0,16.09-7.75,16.09-17s-6.83-16.53-16.09-16.53a16.72,16.72,0,0,0-9.6,3V137.6Z"/><path class="cls-39" d="M345.38,230.48v33.57l4.64-3a13.75,13.75,0,0,1,7.51-2.23c7.35,0,12.9,6,12.9,14,0,7.83-5.43,13.51-12.9,13.51a13.75,13.75,0,0,1-7.51-2.23l-4.64-3v33.59h-34.2l3.35,4.73a13.77,13.77,0,1,1-22.48,0l3.35-4.73H261.19v-33l-4.54,2.74a13.77,13.77,0,1,1,0-23.59l4.54,2.74v-33h23.42A19.77,19.77,0,1,0,323,237.07a19.55,19.55,0,0,0-1.13-6.59h23.49m3-3h-.1v0H317a16.77,16.77,0,1,1-27.48,0H258.23v0h0v30.73a16.77,16.77,0,1,0,0,28.73v30.73H289.6a16.77,16.77,0,1,0,27.38,0h31.4v-31a16.68,16.68,0,0,0,9.15,2.72c9.26,0,15.9-7.25,15.9-16.51s-6.64-17-15.9-17a16.68,16.68,0,0,0-9.15,2.72v-31Z"/></g><path class="cls-40" d="M500,326.67a16.65,16.65,0,0,0-2.73-9.14h31.05V227.34H497.63a16.77,16.77,0,1,0-28.72,0H438.17v31.41a16.77,16.77,0,1,0,0,27.37v31.41h31.05a16.73,16.73,0,0,0-2.72,9.14c0,9.27,7.51,16.19,16.77,16.19S500,335.94,500,326.67Z"/><path class="cls-40" d="M528.36,47.47H438.17V78.21a16.77,16.77,0,1,0,0,28.72v30.73h31.41a16.67,16.67,0,0,0-3.08,9.67c0,9.26,7.47,16.19,16.73,16.19s16.8-6.93,16.8-16.19a16.67,16.67,0,0,0-3.08-9.67h31.41Z"/><path class="cls-40" d="M249.27,75.8a16.62,16.62,0,0,1,8.62,2.41V47.47H167.7v90.19h31.41a16.77,16.77,0,1,0,27.38,0h31.4V106.93a16.76,16.76,0,1,1-8.62-31.13Z"/><path class="cls-40" d="M500,326.1a16.69,16.69,0,0,0-2.41-8.63h30.73v90.19H438.17v-31.4a16.77,16.77,0,1,1,0-27.38V317.47h30.74A16.76,16.76,0,1,0,500,326.1Z"/><path class="cls-40" d="M429.55,75.8a16.65,16.65,0,0,1,8.59,2.39V47.47H348.08V78.53a16.77,16.77,0,1,1,0,28.08v31.05H378.4a16.77,16.77,0,1,1,29.42,0h30.32V107a16.76,16.76,0,1,1-8.59-31.15Z"/><path class="cls-40" d="M497.27,137.6a16.77,16.77,0,1,1-28.08,0H438.14v31.29a16.77,16.77,0,1,0,0,27.48v31.29h30.71a16.77,16.77,0,1,1,28.76,0h30.72V137.6Z"/><path class="cls-40" d="M438.14,376.61a16.77,16.77,0,1,1,0-28.08V317.47H406.85a16.77,16.77,0,1,0-27.48,0H348.08v30.72a16.77,16.77,0,1,1,0,28.76v30.71h90.06Z"/><path class="cls-40" d="M407.4,137.27a16.62,16.62,0,0,0,2.41-8.62c0-9.26-7.44-15.8-16.7-15.8s-16.84,6.54-16.84,15.8a16.62,16.62,0,0,0,2.41,8.62H348v31.41a16.67,16.67,0,0,0-9.67-3.08c-9.26,0-16.34,7.52-16.34,16.79a16.38,16.38,0,0,0,16.34,16.74,16.67,16.67,0,0,0,9.67-3.08v31.41h.13v-.17h31.29a16.77,16.77,0,1,1,27.48,0h31.29V196.37a16.77,16.77,0,1,1,0-27.48V137.27Z"/><path class="cls-40" d="M429,255.61a16.69,16.69,0,0,1,9.15,2.73v-31H406.85a16.77,16.77,0,1,0-27.48,0H348.08V258a16.77,16.77,0,1,1,0,28.76v30.71h31.29a16.77,16.77,0,1,1,27.48,0h31.29V286.42A16.77,16.77,0,1,1,429,255.61Z"/><path class="cls-40" d="M317,137.29a16.77,16.77,0,1,0-27.48,0H258.23V168h0a16.77,16.77,0,1,1,0,28.77h0v30.71h31.28a16.77,16.77,0,1,0,27.48,0h31.29L348,196.05h0c-2.64,1.72-5.44,3.1-8.82,3.1a16.77,16.77,0,1,1,0-33.53,15.9,15.9,0,0,1,8.82,3.06h0l.33-31.39H317Z"/><path class="cls-40" d="M357.23,75.8a16.69,16.69,0,0,0-9.15,2.73V47.47H257.89V78.21a16.77,16.77,0,1,0,0,28.72v30.73h.34v-.37h31.28a16.77,16.77,0,1,1,27.48,0h31.09V106.61a16.77,16.77,0,1,0,9.15-30.81Z"/><path class="cls-40" d="M248.88,379.34a16.66,16.66,0,0,0,9.15-2.73v31.05h90.19V376.93a16.77,16.77,0,1,0,0-28.72V317.84H316.61a16.77,16.77,0,1,1-27.49,0H258v30.68a16.76,16.76,0,1,0-9.15,30.81Z"/><path class="cls-40" d="M198.76,137.6a16.77,16.77,0,1,0,28.08,0h31v31.29a16.72,16.72,0,0,1,9.6-3c9.26,0,16.09,7.26,16.09,16.53s-6.83,17-16.09,17a16.72,16.72,0,0,1-9.6-3v31.29H227.18a16.77,16.77,0,1,0-28.76,0H167.7V137.6Z"/><path class="cls-40" d="M357.53,255.79a16.68,16.68,0,0,0-9.15,2.72v-31h-.1v0H317a16.77,16.77,0,1,1-27.48,0H258.23v0h0v30.73a16.77,16.77,0,1,0,0,28.73v30.73H289.6a16.77,16.77,0,1,0,27.38,0h31.4v-31a16.68,16.68,0,0,0,9.15,2.72c9.26,0,15.9-7.25,15.9-16.51S366.79,255.79,357.53,255.79Z"/><path class="cls-41" d="M317,137.29a16.77,16.77,0,1,0-27.48,0H258.23V168h0a16.77,16.77,0,1,1,0,28.77h0v30.71h31.28a16.77,16.77,0,1,0,27.48,0h31.29L348,196.05h0c-2.64,1.72-5.44,3.1-8.82,3.1a16.77,16.77,0,1,1,0-33.53,15.9,15.9,0,0,1,8.82,3.06h0l.33-31.39H317Z"/><path class="cls-41" d="M438.14,376.61a16.77,16.77,0,1,1,0-28.08V317.47H406.85a16.77,16.77,0,1,0-27.48,0H348.08v30.72a16.77,16.77,0,1,1,0,28.76v30.71h90.06Z"/><path class="cls-42" d="M84.77,401.88c1.07,5-.2,9.52-2.85,10.09s-5.66-3-6.73-8,.2-9.52,2.85-10.08S83.7,396.88,84.77,401.88Z"/><path class="cls-42" d="M82.06,367.66c1.74,8.14,0,15.4-3.85,16.23s-8.41-5.1-10.15-13.23,0-15.4,3.84-16.23S80.31,359.53,82.06,367.66Z"/><path class="cls-42" d="M52.92,356.1c8.85,24.18,5.74,47-2.58,50h0c-5.68-7.73-10.7-15.2-13.73-22a110,110,0,0,1-16-57.21q0-4.63.33-9.2l.93.08C30.16,314.77,44.08,331.91,52.92,356.1Z"/><path class="cls-43" d="M260,357.43c-.39,1.53-.8,3.1-1.24,4.72-5.26,19.37-13.68,44.6-26.45,68.89C203.63,485.54,153,535.27,66.91,503.3c.92.08,59.29,5,69.44-47.64,4.17-27.67,8-36.68,8-36.68v-.38c17.08,2.06,36.27-3.74,46-28.38,6.83-17.32,7.1-32.07,4.82-43.7C195.11,346.52,243.84,320.22,260,357.43Z"/><path class="cls-44" d="M258.75,362.15s23.5,19.74,21.22,72c0,0-32.19,9.13-47.67-3.14C245.07,406.75,253.49,381.52,258.75,362.15Z"/><path class="cls-44" d="M52.92,356.1c-8.84-24.19-22.76-41.33-31.09-38.28l-.93-.08c3.74-51.67,38.85-94.93,89.53-108.15l-1.67,4.8a2.13,2.13,0,0,0,.81,2.46,53.42,53.42,0,0,0,22.63,8.8A45.91,45.91,0,0,0,155.59,223a2,2,0,0,0,1.13-1.94l-.7-13.43-.12-2.3c51.73,2.76,59.58,34.71,98.68,86.58a56.41,56.41,0,0,1,11.66,36.42,74.12,74.12,0,0,1-4.86,23.54c-.43,1.76-.89,3.61-1.39,5.52-16.15-37.21-64.88-10.91-64.88-10.91,2.28,11.63,2,26.38-4.82,43.7-9.72,24.64-28.91,30.44-46,28.38V419s-3.79,9-8,36.68c-10.15,52.63-68.52,47.72-69.44,47.64h0q-5-1.85-10.13-4.07s8,49.27-50.78,52.3c0,0-22-42.06,31.46-60.63,0,0-44-.76-26.91-65.94,0,0,54.54,9.45,47,57.6,0,0,25.39,9.1,27.66-14.4.06-.66.09-1.32.09-2,0-17-19.84-39.47-34.94-60C58.66,403.09,61.77,380.28,52.92,356.1Zm61.83-62.51a9.73,9.73,0,1,0,9.73,9.73A9.73,9.73,0,0,0,114.75,293.59Zm99-19.07a9.73,9.73,0,1,0-9.73,9.72A9.73,9.73,0,0,0,213.72,274.52ZM81.92,412c2.65-.57,3.92-5.09,2.85-10.09s-4.09-8.6-6.73-8-3.92,5.08-2.85,10.08S79.27,412.53,81.92,412Zm-3.71-28.08c3.87-.83,5.59-8.09,3.85-16.23S75.77,353.6,71.9,354.43s-5.58,8.09-3.84,16.23S74.35,384.72,78.21,383.89Z"/><path class="cls-45" d="M209.72,272.08a2,2,0,0,1,2,2,8,8,0,0,1-8,8,2,2,0,0,1,0-4,4,4,0,0,0,4-4A2,2,0,0,1,209.72,272.08Z"/><circle class="cls-46" cx="200.27" cy="271.36" r="3.41"/><path class="cls-47" d="M211.72,274.08a2,2,0,0,0-4,0,4,4,0,0,1-4,4,2,2,0,0,0,0,4A8,8,0,0,0,211.72,274.08ZM204,264.79a9.73,9.73,0,1,1-9.72,9.73A9.73,9.73,0,0,1,204,264.79ZM200.27,268a3.41,3.41,0,1,0,3.41,3.41A3.41,3.41,0,0,0,200.27,268Z"/><path class="cls-48" d="M154.93,186.84l1,18.53-1.9-.09-.9-17.13c.42-.41.83-.83,1.23-1.28Z"/><path class="cls-48" d="M154.33,186.87c-.4.45-.81.87-1.23,1.28l-.14-2.71Z"/><path class="cls-48" d="M154,205.28l1.9.09.12,2.3c-.64-.23-1.27-.43-1.92-.64h0Z"/><path class="cls-48" d="M153.78,164.93l1.15,21.91-.6,0L153,185.44l-1-19.56c.37-.29.73-.59,1.1-.91Z"/><path class="cls-48" d="M153.1,188.15l.9,17.13-1.89-.05-.8-15.47C151.92,189.26,152.52,188.72,153.1,188.15Z"/><path class="cls-48" d="M153,165c-.37.32-.73.62-1.1.91l-.12-2.48Z"/><path class="cls-48" d="M152.38,138.18l1.4,26.75-.74,0-1.22-1.57-1.26-24.18c.39-.31.78-.65,1.15-1Z"/><path class="cls-48" d="M150.13,167.21a19.45,19.45,0,0,0,1.81-1.33l1,19.56L151.6,184c-.18.19-.36.39-.56.59Z"/><path class="cls-48" d="M151.71,138.21c-.37.36-.76.7-1.15,1l-.13-2.54Z"/><path class="cls-48" d="M153,185.44l.14,2.71c-.58.57-1.18,1.11-1.79,1.61l-.27-5.15c.2-.2.38-.4.56-.59Z"/><path class="cls-49" d="M151,184.61l.27,5.15c-11.18,9.18-27.13,7.93-32.31,7.22l-.12,0,1.36-3.9C126.07,193.7,141.62,194.34,151,184.61Z"/><path class="cls-48" d="M150.13,167.21l-.25-4.77c.24-.19.48-.4.72-.61l1.22,1.57.12,2.48A19.45,19.45,0,0,1,150.13,167.21Z"/><path class="cls-48" d="M148.74,140.5a15.76,15.76,0,0,0,1.82-1.28l1.26,24.18-1.22-1.57c-.24.21-.48.42-.72.61Z"/><path class="cls-50" d="M130.67,171.3a28.09,28.09,0,0,0,19.46-4.09l.91,17.4c-9.42,9.73-25,9.09-30.8,8.45L128,170.81A27.06,27.06,0,0,0,130.67,171.3Z"/><path class="cls-49" d="M149.88,162.44l.25,4.77a28.09,28.09,0,0,1-19.46,4.09,27.06,27.06,0,0,1-2.7-.49L129.3,167C133.26,167.74,142.35,168.6,149.88,162.44Z"/><path class="cls-48" d="M150.56,139.22a15.76,15.76,0,0,1-1.82,1.28l-.24-4.72c.23-.19.44-.39.65-.6l1.28,1.5Z"/><path class="cls-50" d="M148.74,140.5l1.14,21.94c-7.53,6.16-16.62,5.3-20.58,4.54l8.1-23.26A24.58,24.58,0,0,0,148.74,140.5Z"/><path class="cls-49" d="M148.5,135.78l.24,4.72a24.58,24.58,0,0,1-11.34,3.22l1.45-4.21A18.44,18.44,0,0,0,148.5,135.78Z"/><path class="cls-50" d="M147.4,114.94l1.1,20.84a18.44,18.44,0,0,1-9.65,3.73Z"/><path class="cls-50" d="M152.11,205.23l-.8-15.47c-11.18,9.18-27.13,7.93-32.31,7.22l-.12,0-4,11.56-2,5.78c18.51,11.62,35.45,7,40,5.45Z"/><path class="cls-48" d="M148.78,105.16l1.65,31.52-1.28-1.5c-.21.21-.42.41-.65.6l-1.1-20.84-8.55,24.57c-.87.1-1.59.14-2.08.15Z"/><path class="cls-48" d="M138.85,139.51l-1.45,4.21c-.78,0-1.27,0-1.36,0l0-2,.69-2C137.26,139.65,138,139.61,138.85,139.51Z"/><path class="cls-48" d="M136.77,139.66l-.69,2,0-2Z"/><path class="cls-48" d="M137.4,143.72,129.3,167a16.53,16.53,0,0,1-1.87-.45l8.65-24.83,0,2C136.13,143.73,136.62,143.75,137.4,143.72Z"/><path class="cls-48" d="M128,170.81l-7.73,22.25-1.94-.26,8.46-24.33-.51,1.89C126.37,170.39,127,170.58,128,170.81Z"/><path class="cls-48" d="M127.43,166.53a16.53,16.53,0,0,0,1.87.45L128,170.81c-1-.23-1.6-.42-1.72-.45l.51-1.89Z"/><path class="cls-48" d="M127.43,166.53l-.67,1.94.53-2A.64.64,0,0,0,127.43,166.53Z"/><path class="cls-45" d="M120.48,300.88a2,2,0,0,1,2,2,8,8,0,0,1-8,8,2,2,0,0,1,0-4,4,4,0,0,0,4-4A2,2,0,0,1,120.48,300.88Z"/><path class="cls-48" d="M117.34,196.71c.13,0,.68.13,1.54.25l-4,11.56c-.74.16-1.48.33-2.21.51l2.26-6.51,2.72-7.83Z"/><path class="cls-48" d="M120.24,193.06l-1.36,3.9c-.86-.12-1.41-.22-1.54-.25l.3-2,.66-1.89Z"/><path class="cls-48" d="M117.93,192.73l.37.07-.66,1.89Z"/><path class="cls-48" d="M114.92,202.52,112.66,209c-.75.18-1.49.36-2.23.56l2.41-6.94Z"/><path class="cls-48" d="M117.93,192.73l-.29,2-2.72,7.83-2.08.13L147,104.4a1.83,1.83,0,0,1,2-1.25,2,2,0,0,1,1.59,1.94l1.72,33.09-.67,0-1.28-1.53-1.65-31.52-12,34.5-.67,0,0,2-8.65,24.83a.64.64,0,0,1-.14,0l-.53,2L118.3,192.8Z"/><circle class="cls-46" cx="111.03" cy="300.16" r="3.41"/><path class="cls-48" d="M112.86,214.3c18.51,11.62,35.45,7,40,5.45l-.76-14.52,1.89.05.09,1.75.74,14.14s-21.08,9.48-44.3-6l2.13-6.11c.73-.18,1.47-.35,2.21-.51Z"/><path class="cls-48" d="M132.2,225.65a53.42,53.42,0,0,1-22.63-8.8,2.13,2.13,0,0,1-.81-2.46l1.67-4.8c.74-.2,1.48-.38,2.23-.56l-2.13,6.11c23.22,15.51,44.3,6,44.3,6L154.09,207h0c.65.21,1.28.41,1.92.64l.7,13.43a2,2,0,0,1-1.13,1.94A45.91,45.91,0,0,1,132.2,225.65Z"/><path class="cls-47" d="M105,303.32a9.73,9.73,0,1,1,9.72,9.72A9.73,9.73,0,0,1,105,303.32Zm6-6.57a3.41,3.41,0,1,0,3.41,3.41A3.41,3.41,0,0,0,111,296.75Zm11.45,6.13a2,2,0,0,0-4,0,4,4,0,0,1-4,4,2,2,0,0,0,0,4A8,8,0,0,0,122.48,302.88Z"/><path class="cls-41" d="M118.3,514.84c-16.38,0-33.72-3.38-51.91-10.14l1-2.81c87.05,32.32,137-21.07,163.54-71.55,13.17-25.06,21.59-51.13,26.33-68.59.44-1.61.84-3.17,1.23-4.69.5-1.91,1-3.76,1.39-5.51l.05-.17a72.65,72.65,0,0,0,4.77-23.06,54.9,54.9,0,0,0-11.36-35.47c-8.53-11.31-15.63-21.76-21.9-31-22.38-32.93-35.89-52.82-75.51-55,0,0-.15-3-.15-3h.28c41.12,2.23,55,22.59,77.86,56.3,6.25,9.19,13.33,19.61,21.81,30.87a57.75,57.75,0,0,1,12,37.36,75.23,75.23,0,0,1-4.92,23.94c-.42,1.74-.88,3.57-1.37,5.46-.39,1.53-.81,3.1-1.25,4.73-4.78,17.61-13.27,43.9-26.57,69.2-17,32.37-37.8,55.64-61.75,69.16A107.22,107.22,0,0,1,118.3,514.84Z"/><path class="cls-41" d="M5.11,553.08l-.44-.86c-.37-.7-8.87-17.32-2-34.66,4.41-11.14,14.13-19.88,28.91-26a32.86,32.86,0,0,1-18.56-12c-9-11.91-10.36-30.4-3.94-54.94l.35-1.33,1.36.23a78.34,78.34,0,0,1,26.9,11c11.74,7.76,24.89,22.19,21.5,47.05,3.15.89,12,2.84,18.07-1,3.7-2.35,5.86-6.54,6.43-12.45.06-.61.08-1.22.08-1.85,0-13.58-13.46-31.23-26.49-48.3-2.72-3.57-5.53-7.26-8.15-10.82l2.41-1.78c2.61,3.54,5.41,7.22,8.13,10.78,13.32,17.47,27.1,35.53,27.1,50.12,0,.72,0,1.42-.09,2.13-.67,6.89-3.3,11.84-7.83,14.71-8.75,5.56-21.3,1.16-21.83,1l-1.17-.42.19-1.22c3-19.31-3.68-34.56-19.93-45.33a77.37,77.37,0,0,0-24.48-10.28c-5.77,22.91-4.5,40.06,3.79,51C24,489,37.35,489.4,37.48,489.4l8.44.14-8,2.78c-17,5.89-27.89,14.76-32.49,26.35-5.52,13.94-.13,27.77,1.46,31.3,18-1.11,31.34-6.81,39.54-17,11.74-14.53,8.86-33.35,8.83-33.54l-.43-2.7,2.51,1.08c3.41,1.47,6.8,2.83,10.06,4l-1.05,2.81c-2.55-.94-5.18-2-7.85-3.09.43,5.95.29,20.88-9.73,33.29C39.89,545.92,25.51,552,6.07,553Z"/><path class="cls-41" d="M49.13,407c-4.68-6.36-10.47-14.62-13.86-22.19a112,112,0,0,1-16.2-57.91c0-3.13.12-6.26.34-9.31a122.24,122.24,0,0,1,27.5-69.34,120.64,120.64,0,0,1,63-40.11l1.14-.26s-.77,2.19-1.18,3.38c-49.43,13.32-83.71,55-87.44,106.55-.22,3-.33,6-.33,9.09a108.87,108.87,0,0,0,15.82,56.43l.08.17c3.27,7.33,9,15.46,13.57,21.72Z"/><path class="cls-41" d="M188.3,302.57c-.75-2.13-2.57-3.34-5.24-3.59a6,6,0,0,0,1.14-2,5.07,5.07,0,0,0-.73-4.51c-3.41-5.23-10.32-3.18-13.5-1.36a1.5,1.5,0,1,0,1.49,2.6c.07,0,6.76-3.8,9.5.4a2.12,2.12,0,0,1,.39,1.93c-.44,1.32-2.52,2.81-5.45,3.91-.52.16-.9.3-1,.35l-.1,0a1.5,1.5,0,0,0,.48,2.92,1.67,1.67,0,0,0,.49-.08l.05,0c.19-.05.54-.17,1-.34h0c1.27-.4,7.63-2.22,8.66.7a2,2,0,0,1-.12,1.6c-1.2,2.47-6,4.59-7.8,5.2a1.5,1.5,0,0,0,.49,2.92,1.62,1.62,0,0,0,.49-.08c.77-.27,7.57-2.71,9.51-6.73A5,5,0,0,0,188.3,302.57Z"/><path class="cls-41" d="M93,298.28a1.51,1.51,0,0,1-1.47-1.21,1.49,1.49,0,0,1,1.19-1.76l31.32-6.11-1.85-5.69a1.5,1.5,0,0,1,2.85-.93l2.38,7.3a1.55,1.55,0,0,1-.13,1.23,1.51,1.51,0,0,1-1,.71l-33,6.43A1.36,1.36,0,0,1,93,298.28Z"/><path class="cls-41" d="M186.24,254.28a1.51,1.51,0,0,1-1.17-2.44c.31-.38,7.63-9.28,23.14-4.08a1.5,1.5,0,1,1-1,2.84c-13.54-4.53-19.78,3-19.84,3.11A1.5,1.5,0,0,1,186.24,254.28Z"/><path class="cls-41" d="M150.58,420.48a55.11,55.11,0,0,1-6.46-.39c-15.37-1.86-28.4-9.7-32.85-16.13a1.5,1.5,0,0,1,2.47-1.71c4.13,6,16.76,13.17,30.75,14.86,12,1.44,33.66-.2,44.41-27.44,5.83-14.78,7.42-29.2,4.74-42.86a62.62,62.62,0,0,0-13.12-28.09c-39.79,15.18-52.1,41.55-55.91,56a50.61,50.61,0,0,0-1.79,11.22,1.5,1.5,0,0,1-1.5,1.5h0a1.5,1.5,0,0,1-1.5-1.5,52.13,52.13,0,0,1,1.89-12c4-15.12,16.9-42.81,58.71-58.4l.91-.34.69.7c.43.45,10.81,11.19,14.57,30.32,2.79,14.24,1.14,29.22-4.9,44.54C181.94,415.48,163.72,420.48,150.58,420.48Z"/><path class="cls-41" d="M109.53,381.37a1.5,1.5,0,0,1-1-2.59,20.85,20.85,0,0,1,14.77-5.95,1.5,1.5,0,1,1-.21,3A18.09,18.09,0,0,0,110.57,381,1.52,1.52,0,0,1,109.53,381.37Z"/><path class="cls-41" d="M255.94,439c-8.72,0-18-1.55-24.57-6.76a1.48,1.48,0,0,1-.24-2.1,1.51,1.51,0,0,1,2.11-.25c13.18,10.45,39.7,4.55,45.28,3.15,1.85-50.14-20.5-69.52-20.73-69.71a1.5,1.5,0,0,1,1.93-2.3c1,.82,24,20.82,21.75,73.24l0,1.09-1.05.29A99.27,99.27,0,0,1,255.94,439Zm24-4.79h0Z"/><path class="cls-51" d="M254,447.44a16.77,16.77,0,1,0-2.4,27.38L248.92,506h0l30.6,2.68h0a16.74,16.74,0,0,1,16.53-24,16.73,16.73,0,0,1,12.12,26.51h0l30.6,2.68h0l2.72-31.17a16.77,16.77,0,1,0,2.39-27.38l2.73-31.17h0l-30.94-2.7h0a16.57,16.57,0,0,1,1.92,9.35A16.77,16.77,0,1,1,287.69,419h0l-30.93-2.71h0Z"/><path class="cls-25" d="M244.75,443.59a16.65,16.65,0,0,0-11.24,3.1l5.72,9.32L251,445.4A16.62,16.62,0,0,0,244.75,443.59Z"/><polygon class="cls-25" points="256.76 416.27 256.76 416.27 254.49 442.21 273.59 424.95 267.86 417.24 256.76 416.27"/><path class="cls-10" d="M241.83,477a16.64,16.64,0,0,0,9.81-2.18L248.92,506h0l10.69.94,6.29-6.8-.06-.09L301,462.12l0,0,36-38.88-21.31-1.86h0a16.57,16.57,0,0,1,1.92,9.35A16.77,16.77,0,1,1,287.69,419h0l-6.84-.6L273.59,425h0l-19.1,17.27-.45,5.22a16.71,16.71,0,0,0-3.07-2L239.23,456h0L227.7,466.44A16.75,16.75,0,0,0,241.83,477Z"/><path class="cls-25" d="M270.7,507.89l8.82.77h0a16.74,16.74,0,0,1,16.53-24,16.73,16.73,0,0,1,12.12,26.51h0l30.6,2.68h0l.07-.87L301,462.16l-35.12,38Z"/><g class="cls-13"><path class="cls-52" d="M259.49,419.52l23.22,2a19.57,19.57,0,0,0-1.51,6,19.78,19.78,0,0,0,18,21.41,16.76,16.76,0,0,0,1.74.08,19.77,19.77,0,0,0,19.23-24.26l23.22,2L340.9,455l-.51,5.73,5-2.87a13.7,13.7,0,0,1,6.86-1.84c.39,0,.8,0,1.2.05a13.77,13.77,0,0,1-1.18,27.48c-.4,0-.81,0-1.22-.05a13.63,13.63,0,0,1-7.62-3.16l-4.42-3.7-.5,5.74L336,510.59l-23.05-2a19.74,19.74,0,0,0-16.68-26.91c-.57-.05-1.16-.07-1.74-.07a19.75,19.75,0,0,0-19.35,23.68l-23.05-2,2.46-28.18.5-5.74-5,2.88a13.7,13.7,0,0,1-6.86,1.84c-.4,0-.8,0-1.2-.05a13.77,13.77,0,0,1,1.18-27.49c.4,0,.81,0,1.21.06a13.63,13.63,0,0,1,7.63,3.16l4.41,3.7.51-5.74,2.46-28.18m-2.73-3.25L254,447.44a16.71,16.71,0,0,0-9.29-3.85c-.5,0-1-.07-1.48-.07A16.77,16.77,0,0,0,241.83,477c.49,0,1,.06,1.46.06a16.63,16.63,0,0,0,8.35-2.24L248.92,506h0l30.6,2.68h0a16.74,16.74,0,0,1,15.05-24.07c.49,0,1,0,1.48.06a16.73,16.73,0,0,1,12.12,26.51h0l30.6,2.68h0l2.72-31.17a16.71,16.71,0,0,0,9.29,3.85c.5,0,1,.06,1.48.06a16.77,16.77,0,0,0,1.44-33.47c-.49,0-1-.06-1.46-.06a16.7,16.7,0,0,0-8.36,2.24l2.73-31.17h0l-30.94-2.7h0a16.57,16.57,0,0,1,1.92,9.35,16.76,16.76,0,0,1-16.68,15.31c-.49,0-1,0-1.48-.06a16.76,16.76,0,0,1-11.74-27h0l-30.93-2.71Z"/></g><path class="cls-12" d="M254,447.44a16.77,16.77,0,1,0-2.4,27.38L248.92,506h0l30.6,2.68h0a16.74,16.74,0,0,1,16.53-24,16.73,16.73,0,0,1,12.12,26.51h0l30.6,2.68h0l2.72-31.17a16.77,16.77,0,1,0,2.39-27.38l2.73-31.17h0l-30.94-2.7h0a16.57,16.57,0,0,1,1.92,9.35A16.77,16.77,0,1,1,287.69,419h0l-30.93-2.71h0Z"/></g></g></svg>