<?xml version="1.0" encoding="utf-8"?>
<!-- Generator: Adobe Illustrator 23.0.6, SVG Export Plug-In . SVG Version: 6.00 Build 0)  -->
<svg version="1.1" id="Layer_1" xmlns="http://www.w3.org/2000/svg" xmlns:xlink="http://www.w3.org/1999/xlink" x="0px" y="0px"
	 viewBox="0 0 623.8 577.8" style="enable-background:new 0 0 623.8 577.8;" xml:space="preserve">
<style type="text/css">
	.st0{fill:#0093DD;}
	.st1{fill:#EBF1F7;}
	.st2{fill:#2489CA;}
	.st3{fill:#3C99D4;}
	.st4{fill:none;stroke:#1C4189;stroke-width:2;stroke-miterlimit:10;}
	.st5{fill:#00C7F8;}
	.st6{opacity:0.25;}
	.st7{fill:url(#SVGID_1_);}
	.st8{fill:#45C7EF;}
	.st9{fill:#DEFAFF;}
	.st10{fill:#C7F4FF;}
	.st11{fill:none;stroke:#EDF8F9;stroke-width:2;stroke-miterlimit:10;}
	.st12{fill:#EDF8F9;stroke:#1C4189;stroke-width:3;stroke-miterlimit:10;}
	.st13{fill:#1070B3;}
	.st14{fill:#0877B9;}
	.st15{fill:url(#SVGID_2_);}
	.st16{fill:url(#SVGID_3_);}
	.st17{fill:url(#SVGID_4_);}
	.st18{fill:url(#SVGID_5_);}
	.st19{fill:url(#SVGID_6_);}
	.st20{fill:url(#SVGID_7_);}
	.st21{fill:url(#SVGID_8_);}
	.st22{fill:url(#SVGID_9_);}
	.st23{fill:url(#SVGID_10_);}
	.st24{fill:url(#SVGID_11_);}
	.st25{fill:url(#SVGID_12_);}
	.st26{fill:url(#SVGID_13_);}
	.st27{fill:url(#SVGID_14_);}
	.st28{fill:url(#SVGID_15_);}
	.st29{fill:none;stroke:#1C4189;stroke-width:0.5;stroke-miterlimit:10;}
	.st30{fill:#1C4189;}
	.st31{fill:#6B7FC3;}
	.st32{fill:#B8C3EC;}
	.st33{fill:#93A0DF;}
	.st34{fill:#3863A8;}
	.st35{fill:#FFFFFF;}
	.st36{fill:#29333F;}
	.st37{fill:#4B8084;}
	.st38{fill:#80B8C1;}
	.st39{fill:#C7E5EC;}
	.st40{fill:url(#SVGID_16_);stroke:#1C4189;stroke-width:2;stroke-miterlimit:10;}
	.st41{fill:url(#SVGID_17_);}
</style>
<title>Webhint_puzzle_1</title>
<path class="st0" d="M539.1,84.7L539.1,84.7C539.1,84.7,539.2,84.7,539.1,84.7z"/>
<path class="st1" d="M424.8,540.5c-6.1-2.8-8.9-10-6.1-16.1s10-8.9,16.1-6.1c4.4,2,7.2,6.4,7.2,11.2l19-12.2l-12.3-19.2
	c6.7,0.3,12.4-4.9,12.7-11.7c0.3-6.7-4.9-12.4-11.7-12.7c-5.1-0.2-9.9,2.8-11.8,7.5l-12.3-19.2l-18.8,12c6,3,8.5,10.3,5.5,16.3
	c-1,2-2.5,3.7-4.4,4.9c-5.7,3.6-13.2,2-16.8-3.7c-1.2-1.9-1.9-4-1.9-6.2l-18.8,12l35.3,55.2L424.8,540.5z"/>
<path class="st2" d="M428.7,503c3.6,6.9,8.8,3.7,8.8,3.7l11.9-7.6l-0.6-0.9c0.7,0,1.5,0,2.2-0.1l8.5-5.4c3.7-5.6,2.1-13.2-3.6-16.9
	c-5.6-3.7-13.2-2.1-16.9,3.6c-0.4,0.6-0.8,1.3-1.1,2l-4.4-6.9L428.7,503z"/>
<path class="st3" d="M449.4,499.1l-11.3,7.2c-0.9,0.6-1.9,0.9-2.9,1c-2,0.2-4.5-0.5-6.4-4.8l-0.1,0.5c-0.6,2.3,0.1,4.8,1.8,6.5
	l22,13.3l8.6-5.5L449.4,499.1z"/>
<path class="st1" d="M455.8,496.3c1.5-0.9,2.7-2.2,3.7-3.6l-8.5,5.4C452.7,497.8,454.4,497.2,455.8,496.3z"/>
<path class="st4" d="M424.8,540.5c-6.1-2.8-8.9-10-6.1-16.1s10-8.9,16.1-6.1c4.4,2,7.2,6.4,7.2,11.2l19-12.2l-12.3-19.2
	c6.7,0.3,12.4-4.9,12.7-11.7c0.3-6.7-4.9-12.4-11.7-12.7c-5.1-0.2-9.9,2.8-11.8,7.5l-12.3-19.2l-18.8,12c6,3,8.5,10.3,5.5,16.3
	c-1,2-2.5,3.7-4.4,4.9c-5.7,3.6-13.2,2-16.8-3.7c-1.2-1.9-1.9-4-1.9-6.2l-18.8,12l35.3,55.2L424.8,540.5z"/>
<circle class="st5" cx="91.6" cy="179.5" r="14.2"/>
<g class="st6">
	
		<linearGradient id="SVGID_1_" gradientUnits="userSpaceOnUse" x1="388.0614" y1="52.9727" x2="459.5884" y2="98.7055" gradientTransform="matrix(1 0 0 -1 0 578)">
		<stop  offset="0" style="stop-color:#1C4189"/>
		<stop  offset="0.44" style="stop-color:#768FB6"/>
		<stop  offset="0.82" style="stop-color:#BECED9"/>
		<stop  offset="1" style="stop-color:#DAE6E7"/>
	</linearGradient>
	<path class="st7" d="M424.8,466.3l10.6,16.6l3.1,4.9l2.2-5.3c1.9-4.7,7.3-6.9,12-5s6.9,7.3,5,12c-1.4,3.4-4.8,5.7-8.5,5.7h-0.4
		l-5.8-0.2l3.1,4.9l10.6,16.7l-12.7,8.1c-2.7-8-11.3-12.2-19.3-9.5c-8,2.7-12.2,11.3-9.5,19.3c0.8,2.3,2.1,4.5,3.9,6.2l-12.7,8.1
		l-32.1-50.2l12.6-8.1c2.9,7.9,11.6,12,19.5,9.1s12-11.6,9.1-19.5c-0.8-2.1-2-4-3.6-5.6L424.8,466.3 M425.7,462.1l-18.8,12
		c6,3,8.5,10.3,5.5,16.4c-2.1,4.1-6.3,6.7-10.9,6.7c-6.6,0-12-5.2-12.2-11.8l-18.8,12l35.3,55.2l19-12.2c-6.1-2.8-8.9-10-6.1-16.1
		s10-8.9,16.1-6.1c4.4,2,7.2,6.4,7.2,11.2l19-12.2l-12.3-19.2h0.5c6.7,0.1,12.3-5.3,12.3-12.1c0.1-6.7-5.3-12.3-12.1-12.3
		c-5-0.1-9.6,3-11.4,7.6L425.7,462.1L425.7,462.1z"/>
</g>
<path class="st8" d="M105.8,179.4c0,7.9-6.4,2.1-14.2,2.1s-14.2,5.7-14.2-2.1c0-7.9,6.4-14.2,14.2-14.2S105.8,171.6,105.8,179.4
	L105.8,179.4z"/>
<path class="st9" d="M103.7,178.4c-1.6,2.8-4.7-3.2-9.1-5.7s-9.9-1-8.2-3.8s8-3.6,12.4-1.1S105.3,175.6,103.7,178.4z"/>
<ellipse transform="matrix(0.5486 -0.8361 0.8361 0.5486 -106.5498 146.7014)" class="st10" cx="82.6" cy="172" rx="2" ry="1.4"/>
<circle class="st5" cx="89.2" cy="138.2" r="9.2"/>
<path class="st8" d="M97.7,138.2c0,4.7-3.8,1.3-8.5,1.3s-8.5,3.4-8.5-1.3c0-4.7,3.8-8.5,8.5-8.5C93.9,129.7,97.7,133.5,97.7,138.2z"
	/>
<path class="st10" d="M96.4,137.6c-1,1.7-2.8-1.9-5.4-3.4s-5.9-0.6-4.9-2.3s4.8-2.2,7.4-0.7S97.4,135.9,96.4,137.6z"/>
<ellipse transform="matrix(0.5486 -0.8361 0.8361 0.5486 -74.0164 130.3705)" class="st10" cx="83.7" cy="133.7" rx="1.2" ry="0.9"/>
<circle class="st5" cx="121.7" cy="119.7" r="6.7"/>
<path class="st8" d="M128,119.7c0,3.4-2.8,0.9-6.2,0.9s-6.2,2.5-6.2-0.9c0-3.4,2.8-6.2,6.2-6.2C125.2,113.5,128,116.3,128,119.7z"/>
<path class="st10" d="M127,119.3c-0.7,1.2-2.1-1.4-4-2.5s-4.3-0.4-3.6-1.7s3.5-1.6,5.4-0.5S127.7,118.1,127,119.3z"/>
<ellipse transform="matrix(0.5486 -0.8361 0.8361 0.5486 -44.2374 151.064)" class="st10" cx="117.8" cy="116.5" rx="0.9" ry="0.6"/>
<circle class="st11" cx="91.6" cy="179.4" r="16"/>
<circle class="st11" cx="89.2" cy="138.2" r="9.9"/>
<circle class="st11" cx="121.7" cy="119.6" r="7.6"/>
<rect x="167.7" y="47.5" class="st12" width="360.7" height="360.2"/>
<path class="st2" d="M225.5,174.9c0,0-6.5-4.7,1.3-10.9l18.1-16.2c0,0,5.2-5.4,10.6-0.7l166.8,126.3v60.5c0,0-0.1,9.5-12.3,8.5
	L225.5,174.9z"/>
<path class="st13" d="M268.5,213.9l-43,39.1c0,0-4.4,3.3,0,9.2l20,18.1c0,0,4.7,5.1,11.7-0.7l45.6-34.6L268.5,213.9z"/>
<path class="st14" d="M344,214.2l78.8-60.2l-0.5-60.2c0,0-3.4-13.1-14.6-6.3L302.8,183L344,214.2z"/>
<path class="st3" d="M410,342.5c2.6,2.7,6.4,3.9,10.1,3.1l61.4-30.3c7.9-5.4,6.8-12,6.8-12V122.6c0-8-8.1-10.7-8.1-10.7L427,86.2
	c-11.6-7.2-19.3,1.3-19.3,1.3s9.8-7.1,14.6,6.3v239.1c0,1.6-0.4,3.2-1,4.7c-1.4,2.8-4.4,5.5-11.7,4.4L410,342.5z"/>
<g class="st6">
	
		<linearGradient id="SVGID_2_" gradientUnits="userSpaceOnUse" x1="470.0128" y1="235.09" x2="470.0128" y2="376" gradientTransform="matrix(1 0 0 -1 0 578)">
		<stop  offset="0" style="stop-color:#1C4189"/>
		<stop  offset="0.44" style="stop-color:#768FB6"/>
		<stop  offset="0.82" style="stop-color:#BECED9"/>
		<stop  offset="1" style="stop-color:#DAE6E7"/>
	</linearGradient>
	<path class="st15" d="M483.3,205c7.6,0,13.8,6.1,13.8,13.7c0,2.5-0.7,5-2,7.1l-2.7,4.6h33v84.2h-33.6l3,4.6
		c1.5,2.2,2.2,4.8,2.2,7.5c0,7.4-6,13.2-13.8,13.2s-13.8-5.8-13.8-13.2c0-2.7,0.8-5.3,2.2-7.5l3-4.6h-33.6v-34.3l-4.7,3.4
		c-2.3,1.6-5.1,2.5-7.9,2.5c-7.6,0-13.8-6.1-13.8-13.7s6.1-13.8,13.7-13.8c2.9,0,5.7,0.9,8,2.5l4.7,3.4v-34.2h33l-2.7-4.6
		c-3.9-6.5-1.8-14.9,4.7-18.8C478.3,205.7,480.7,205,483.3,205 M483.3,202c-9.3,0-16.8,7.5-16.8,16.7c0,3.1,0.8,6,2.4,8.7h-30.7
		v31.4c-7.6-5.4-18-3.6-23.4,4c-5.4,7.6-3.6,18,4,23.4c5.8,4.1,13.6,4.1,19.4,0v31.4h31c-1.8,2.7-2.7,5.9-2.7,9.1
		c0,9.3,7.5,16.2,16.8,16.2s16.7-7,16.7-16.2c0-3.2-0.9-6.4-2.7-9.1h31.1v-90.2h-30.7c4.7-7.9,2.2-18.2-5.8-23
		C489.3,202.8,486.3,202,483.3,202z"/>
	
		<linearGradient id="SVGID_3_" gradientUnits="userSpaceOnUse" x1="470.548" y1="414.48" x2="470.548" y2="530.53" gradientTransform="matrix(1 0 0 -1 0 578)">
		<stop  offset="0" style="stop-color:#1C4189"/>
		<stop  offset="0.44" style="stop-color:#768FB6"/>
		<stop  offset="0.82" style="stop-color:#BECED9"/>
		<stop  offset="1" style="stop-color:#DAE6E7"/>
	</linearGradient>
	<path class="st16" d="M525.4,50.5v84.2h-34.2l3.4,4.7c1.6,2.3,2.5,5.1,2.5,7.9c0,7.4-6.1,13.2-13.8,13.2s-13.7-5.8-13.7-13.2
		c0-2.8,0.9-5.6,2.5-7.9l3.4-4.7h-34.2v-33l-4.5,2.7c-6.5,3.9-15,1.8-18.9-4.7s-1.8-15,4.7-18.9c4.4-2.6,9.9-2.6,14.2,0l4.5,2.7v-33
		L525.4,50.5 M528.4,47.5h-90.2v30.7c-7.9-4.8-18.2-2.2-23,5.7s-2.2,18.2,5.7,23c5.3,3.2,12,3.2,17.3,0v30.7h31.4
		c-2,2.8-3.1,6.2-3.1,9.7c0,9.3,7.5,16.2,16.7,16.2s16.8-6.9,16.8-16.2c0-3.5-1.1-6.8-3.1-9.7h31.4L528.4,47.5L528.4,47.5z"/>
	
		<linearGradient id="SVGID_4_" gradientUnits="userSpaceOnUse" x1="212.795" y1="413.8827" x2="212.795" y2="530.53" gradientTransform="matrix(1 0 0 -1 0 578)">
		<stop  offset="0" style="stop-color:#1C4189"/>
		<stop  offset="0.44" style="stop-color:#768FB6"/>
		<stop  offset="0.82" style="stop-color:#BECED9"/>
		<stop  offset="1" style="stop-color:#DAE6E7"/>
	</linearGradient>
	<path class="st17" d="M254.9,50.5v23.2c-1.8-0.6-3.7-0.8-5.6-0.8c-10.9,0-19.8,8.9-19.8,19.8s8.9,19.8,19.8,19.8
		c1.9,0,3.8-0.3,5.6-0.8v23.1h-34.2l3.3,4.7c4.4,6.2,2.9,14.8-3.3,19.2c-6.2,4.4-14.8,2.9-19.2-3.3c-3.4-4.8-3.4-11.1,0-15.9
		l3.4-4.7h-34.2V50.5H254.9 M257.9,47.5h-90.2v90.2h31.4c-5.3,7.6-3.6,18,4,23.4c7.6,5.3,18,3.6,23.4-4c4.1-5.8,4.1-13.6,0-19.4
		h31.4v-30.7c-7.9,4.8-18.2,2.2-23-5.7c-4.8-7.9-2.2-18.2,5.7-23c5.3-3.2,12-3.2,17.3,0V47.5z"/>
	
		<linearGradient id="SVGID_5_" gradientUnits="userSpaceOnUse" x1="470.0364" y1="170.34" x2="470.0364" y2="260.53" gradientTransform="matrix(1 0 0 -1 0 578)">
		<stop  offset="0" style="stop-color:#1C4189"/>
		<stop  offset="0.44" style="stop-color:#768FB6"/>
		<stop  offset="0.82" style="stop-color:#BECED9"/>
		<stop  offset="1" style="stop-color:#DAE6E7"/>
	</linearGradient>
	<path class="st18" d="M525.4,320.5v84.2h-84.2v-34.2l-4.7,3.4c-6.2,4.4-14.8,2.9-19.2-3.3c-4.4-6.2-2.9-14.8,3.3-19.2
		c4.8-3.4,11.1-3.4,15.9,0l4.7,3.4v-34.2h23.1c-3.2,10.4,2.7,21.5,13.1,24.7s21.5-2.7,24.7-13.1c0.6-1.9,0.9-3.9,0.9-5.9
		c0-1.9-0.3-3.8-0.8-5.6H525.4 M528.3,317.5h-30.7c4.8,7.9,2.2,18.2-5.7,23c-7.9,4.8-18.2,2.2-23-5.7c-3.2-5.3-3.2-12,0-17.3h-30.7
		v31.4c-7.6-5.3-18-3.6-23.4,4c-5.3,7.6-3.6,18,4,23.4c5.8,4.1,13.6,4.1,19.4,0v31.4h90.2L528.3,317.5L528.3,317.5z"/>
	
		<linearGradient id="SVGID_6_" gradientUnits="userSpaceOnUse" x1="393.11" y1="440.34" x2="393.11" y2="530.53" gradientTransform="matrix(1 0 0 -1 0 578)">
		<stop  offset="0" style="stop-color:#1C4189"/>
		<stop  offset="0.44" style="stop-color:#768FB6"/>
		<stop  offset="0.82" style="stop-color:#BECED9"/>
		<stop  offset="1" style="stop-color:#DAE6E7"/>
	</linearGradient>
	<path class="st19" d="M435.1,50.5v23.2c-1.8-0.5-3.7-0.8-5.6-0.8c-10.9,0-19.8,8.9-19.8,19.8s8.9,19.8,19.8,19.8
		c1.9,0,3.8-0.3,5.6-0.8v23.1h-22.9c0.4-1.6,0.7-3.3,0.7-5c0-10.9-8.9-19.8-19.8-19.8c-10.9,0-19.8,8.9-19.8,19.8
		c0,1.7,0.2,3.4,0.7,5h-22.9v-23.3c10.4,3.4,21.5-2.3,24.9-12.6c3.4-10.4-2.3-21.5-12.6-24.9c-2-0.6-4.1-1-6.1-1
		c-2.1,0-4.2,0.3-6.1,1V50.5H435.1 M438.1,47.5h-90.1v31.1c7.8-5.1,18.1-2.9,23.2,4.9s2.9,18.1-4.9,23.2c-5.6,3.6-12.8,3.6-18.3,0
		v31.1h30.3c-4.4-8.1-1.5-18.3,6.7-22.8s18.3-1.5,22.8,6.7c2.7,5,2.7,11.1,0,16.1h30.3V107c-7.9,4.8-18.2,2.2-23-5.8
		c-4.8-7.9-2.2-18.2,5.8-23c5.3-3.2,11.9-3.2,17.3,0L438.1,47.5L438.1,47.5z"/>
	
		<linearGradient id="SVGID_7_" gradientUnits="userSpaceOnUse" x1="470.0419" y1="350.34" x2="470.0419" y2="440.4" gradientTransform="matrix(1 0 0 -1 0 578)">
		<stop  offset="0" style="stop-color:#1C4189"/>
		<stop  offset="0.44" style="stop-color:#768FB6"/>
		<stop  offset="0.82" style="stop-color:#BECED9"/>
		<stop  offset="1" style="stop-color:#DAE6E7"/>
	</linearGradient>
	<path class="st20" d="M525.3,140.6v84.1h-23.2c0.5-1.8,0.8-3.7,0.8-5.6c0-10.9-8.9-19.8-19.8-19.8c-10.9,0-19.8,8.9-19.8,19.8l0,0
		c0,1.9,0.3,3.8,0.8,5.6h-23.1v-34l-4.7,3.3c-6.2,4.4-14.8,2.8-19.2-3.4c-4.4-6.2-2.8-14.8,3.4-19.2c4.7-3.3,11.1-3.3,15.8,0
		l4.7,3.3v-34.1h23.3c-3.4,10.4,2.3,21.5,12.6,24.9c10.4,3.4,21.5-2.3,24.9-12.6c0.6-2,1-4.1,1-6.1c0-2.1-0.3-4.2-1-6.1H525.3
		 M528.3,137.6h-31c5.1,7.8,2.9,18.1-4.9,23.2c-7.8,5.1-18.1,2.9-23.2-4.9c-3.6-5.6-3.6-12.8,0-18.3h-31v31.3
		c-7.6-5.3-18-3.5-23.4,4.1c-5.3,7.6-3.5,18,4.1,23.4c5.8,4,13.5,4,19.2,0v31.3h30.7c-4.8-7.9-2.2-18.2,5.8-23
		c7.9-4.8,18.2-2.2,23,5.8c3.2,5.3,3.2,11.9,0,17.3h30.7L528.3,137.6L528.3,137.6z"/>
	
		<linearGradient id="SVGID_8_" gradientUnits="userSpaceOnUse" x1="393.11" y1="170.34" x2="393.11" y2="286.89" gradientTransform="matrix(1 0 0 -1 0 578)">
		<stop  offset="0" style="stop-color:#1C4189"/>
		<stop  offset="0.44" style="stop-color:#768FB6"/>
		<stop  offset="0.82" style="stop-color:#BECED9"/>
		<stop  offset="1" style="stop-color:#DAE6E7"/>
	</linearGradient>
	<path class="st21" d="M393.1,294.1c7.6,0,13.8,6.2,13.8,13.8c0,2.8-0.9,5.6-2.5,7.9l-3.3,4.7h34v23.3c-10.4-3.4-21.5,2.3-24.9,12.6
		s2.3,21.5,12.6,24.9c2,0.6,4.1,1,6.2,1c2.1,0,4.2-0.3,6.1-1v23.3h-84.1v-23.1c1.8,0.5,3.7,0.8,5.6,0.8c10.9,0,19.8-8.9,19.8-19.8
		c0-10.9-8.9-19.8-19.8-19.8c-1.9,0-3.8,0.3-5.6,0.8v-23.1h34l-3.3-4.7c-4.4-6.2-2.8-14.8,3.4-19.2
		C387.5,295,390.3,294.1,393.1,294.1 M393.1,291.1c-9.3,0-16.8,7.5-16.8,16.7c0,3.4,1.1,6.8,3,9.6h-31.3v30.7
		c7.9-4.8,18.2-2.2,23,5.8c4.8,7.9,2.2,18.2-5.8,23c-5.3,3.2-11.9,3.2-17.3,0v30.7h90.1v-31.1c-7.8,5.1-18.1,2.9-23.2-4.9
		c-5.1-7.8-2.9-18.1,4.9-23.2c5.6-3.6,12.8-3.6,18.3,0v-31.1h-31.3c5.3-7.6,3.5-18-4.1-23.3C399.9,292.2,396.6,291.1,393.1,291.1
		L393.1,291.1z"/>
	
		<linearGradient id="SVGID_9_" gradientUnits="userSpaceOnUse" x1="380.088" y1="350.54" x2="380.088" y2="465.15" gradientTransform="matrix(1 0 0 -1 0 578)">
		<stop  offset="0" style="stop-color:#1C4189"/>
		<stop  offset="0.44" style="stop-color:#768FB6"/>
		<stop  offset="0.82" style="stop-color:#BECED9"/>
		<stop  offset="1" style="stop-color:#DAE6E7"/>
	</linearGradient>
	<path class="st22" d="M393.1,115.8c7.8,0,13.7,5.5,13.7,12.8c0,2.5-0.7,4.9-2,7.1l-2.7,4.5h33V164c-10.3-3.6-21.6,1.8-25.2,12.1
		s1.8,21.6,12.1,25.2c4.3,1.5,8.9,1.5,13.2,0v23h-23.3c3.6-10.3-1.8-21.6-12.1-25.2s-21.6,1.8-25.2,12.1c-1.5,4.3-1.5,8.9,0,13.2
		H351v-34l-4.7,3.3c-2.3,1.6-5.1,2.5-7.9,2.5c-7.4,0-13.4-6.1-13.3-13.5c0-0.1,0-0.2,0-0.3c0-7.7,5.9-13.8,13.3-13.8
		c2.8,0,5.6,0.9,7.9,2.5l4.7,3.4v-34.2h33l-2.7-4.5c-1.3-2.1-2-4.6-2-7.1C379.3,121.4,385.3,115.9,393.1,115.8 M393.1,112.9
		c-9.3,0-16.8,6.5-16.8,15.8c0,3,0.8,6,2.4,8.6H348v31.4c-2.8-2-6.2-3.1-9.7-3.1c-9.3,0-16.3,7.5-16.3,16.8c-0.2,9,7,16.5,16,16.7
		c0.1,0,0.2,0,0.3,0c3.5,0,6.8-1.1,9.7-3.1v31.4h0.1v-0.2h31.3c-5.3-7.6-3.5-18,4.1-23.4c7.6-5.3,18-3.5,23.4,4.1
		c4,5.8,4,13.5,0,19.2h31.3v-30.9c-7.6,5.3-18,3.5-23.4-4.1c-5.3-7.6-3.5-18,4.1-23.4c5.8-4,13.5-4,19.2,0v-31.6h-30.8
		c1.6-2.6,2.4-5.6,2.4-8.6C409.8,119.4,402.4,112.9,393.1,112.9z"/>
	
		<linearGradient id="SVGID_10_" gradientUnits="userSpaceOnUse" x1="393.11" y1="260.53" x2="393.11" y2="377.08" gradientTransform="matrix(1 0 0 -1 0 578)">
		<stop  offset="0" style="stop-color:#1C4189"/>
		<stop  offset="0.44" style="stop-color:#768FB6"/>
		<stop  offset="0.82" style="stop-color:#BECED9"/>
		<stop  offset="1" style="stop-color:#DAE6E7"/>
	</linearGradient>
	<path class="st23" d="M393.1,203.9c7.6,0,13.8,6.2,13.8,13.8c0,2.8-0.9,5.6-2.5,7.9l-3.3,4.7h34v23.3c-10.4-3.4-21.5,2.3-24.9,12.6
		c-3.4,10.4,2.3,21.5,12.6,24.9c4,1.3,8.3,1.3,12.3,0v23.3h-23.4c3.6-10.3-1.8-21.6-12.1-25.2s-21.6,1.8-25.2,12.1
		c-1.5,4.3-1.5,8.9,0,13.2h-23.4v-23.1c1.8,0.5,3.7,0.8,5.6,0.8c10.9,0,19.8-8.9,19.8-19.8c0-10.9-8.9-19.8-19.8-19.8
		c-1.9,0-3.8,0.3-5.6,0.8v-23.1h34l-3.3-4.7c-4.4-6.2-2.8-14.8,3.4-19.2C387.5,204.8,390.3,203.9,393.1,203.9 M393.1,200.9
		c-9.3,0-16.8,7.5-16.8,16.8c0,3.4,1.1,6.8,3,9.6h-31.3V258c7.9-4.8,18.2-2.2,23,5.8c4.8,7.9,2.2,18.2-5.8,23
		c-5.3,3.2-11.9,3.2-17.3,0v30.7h31.3c-5.3-7.6-3.5-18,4.1-23.4c7.6-5.3,18-3.5,23.4,4.1c4,5.8,4,13.5,0,19.2h31.3v-31
		c-7.8,5.1-18.1,2.9-23.2-4.9c-5.1-7.8-2.9-18.1,4.9-23.2c5.6-3.6,12.8-3.6,18.3,0v-31h-31.3c5.3-7.6,3.5-18-4.1-23.3
		C399.9,202,396.6,201,393.1,200.9L393.1,200.9z"/>
	
		<linearGradient id="SVGID_11_" gradientUnits="userSpaceOnUse" x1="303.28" y1="324.1337" x2="303.28" y2="467.07" gradientTransform="matrix(1 0 0 -1 0 578)">
		<stop  offset="0" style="stop-color:#1C4189"/>
		<stop  offset="0.44" style="stop-color:#768FB6"/>
		<stop  offset="0.82" style="stop-color:#BECED9"/>
		<stop  offset="1" style="stop-color:#DAE6E7"/>
	</linearGradient>
	<path class="st24" d="M303.2,113.9c7.6,0,13.8,6.2,13.8,13.8c0,2.8-0.9,5.6-2.5,7.9l-3.3,4.7h34l-0.2,23.4
		c-1.9-0.7-3.9-1.1-5.9-1.1c-10.9-0.2-20,8.4-20.2,19.3c-0.2,10.9,8.4,20,19.3,20.2c0.3,0,0.6,0,0.9,0c2,0,4-0.4,5.9-1.2l0.2,23.5
		h-34l3.3,4.7c4.4,6.2,2.9,14.8-3.4,19.2c-6.2,4.4-14.8,2.9-19.2-3.4c-3.3-4.7-3.3-11.1,0-15.8l3.3-4.7h-34v-23.1
		c1.8,0.5,3.7,0.8,5.6,0.8c10.9,0.2,20-8.4,20.2-19.3c0.2-10.9-8.4-20-19.3-20.2c-0.3,0-0.6,0-0.9,0c-1.9,0-3.8,0.3-5.6,0.8v-23.1
		h34l-3.3-4.7c-1.6-2.3-2.5-5.1-2.5-7.9C289.5,120.1,295.7,113.9,303.2,113.9 M303.3,110.9c-9.3,0-16.8,7.5-16.8,16.7
		c0,3.4,1.1,6.8,3,9.6h-31.3V168l0,0c7.9-4.8,18.2-2.2,23,5.8c4.8,7.9,2.2,18.2-5.8,23c-5.3,3.2-11.9,3.2-17.2,0l0,0v30.7h31.3
		c-5.3,7.6-3.5,18,4.1,23.4c7.6,5.3,18,3.5,23.4-4.1c4-5.8,4-13.5,0-19.2h31.3l-0.3-31.4c-2.6,1.7-5.4,3.1-8.8,3.1
		c-9.3,0.2-16.9-7.1-17.2-16.4c-0.2-9.3,7.1-16.9,16.4-17.2c0.3,0,0.5,0,0.8,0c3.2,0.1,6.3,1.2,8.8,3.1l0.3-31.4H317
		c5.3-7.6,3.5-18-4.1-23.3C310.1,112,306.7,110.9,303.3,110.9L303.3,110.9z"/>
	
		<linearGradient id="SVGID_12_" gradientUnits="userSpaceOnUse" x1="303.2395" y1="440.34" x2="303.2395" y2="530.53" gradientTransform="matrix(1 0 0 -1 0 578)">
		<stop  offset="0" style="stop-color:#1C4189"/>
		<stop  offset="0.44" style="stop-color:#768FB6"/>
		<stop  offset="0.82" style="stop-color:#BECED9"/>
		<stop  offset="1" style="stop-color:#DAE6E7"/>
	</linearGradient>
	<path class="st25" d="M345.1,50.5v33.6l4.6-3c6.4-4.2,14.9-2.4,19.1,4c4.2,6.4,2.4,14.9-4,19.1c-4.6,3-10.5,3-15.1,0l-4.6-3v33.2
		h-23.2c0.8-2.1,1.1-4.4,1.1-6.7c0-10.9-8.9-19.8-19.8-19.8s-19.8,8.9-19.8,19.8c0,2.2,0.4,4.5,1.1,6.6h-23.7v-32.7l-4.5,2.7
		c-6.5,3.9-15,1.8-18.9-4.7c-3.9-6.5-1.8-15,4.7-18.9c4.4-2.6,9.9-2.6,14.2,0l4.5,2.7v-33L345.1,50.5 M348.1,47.5h-90.2v30.7
		c-7.9-4.8-18.2-2.2-23,5.7c-4.8,7.9-2.2,18.2,5.7,23c5.3,3.2,12,3.2,17.3,0v30.7h0.3v-0.4h31.3c-5.3-7.6-3.5-18,4.1-23.4
		c7.6-5.3,18-3.5,23.4,4.1c4,5.8,4,13.5,0,19.2h31.1v-30.7c7.8,5.1,18.1,2.9,23.2-4.9s2.9-18.1-4.9-23.2c-5.6-3.6-12.8-3.6-18.3,0
		V47.5L348.1,47.5z"/>
	
		<linearGradient id="SVGID_13_" gradientUnits="userSpaceOnUse" x1="302.8405" y1="170.34" x2="302.8405" y2="260.16" gradientTransform="matrix(1 0 0 -1 0 578)">
		<stop  offset="0" style="stop-color:#1C4189"/>
		<stop  offset="0.44" style="stop-color:#768FB6"/>
		<stop  offset="0.82" style="stop-color:#BECED9"/>
		<stop  offset="1" style="stop-color:#DAE6E7"/>
	</linearGradient>
	<path class="st26" d="M345.2,320.8v32.7l4.5-2.7c6.5-3.9,15-1.8,18.9,4.7s1.8,15-4.7,18.9c-4.4,2.6-9.9,2.6-14.2,0l-4.5-2.7v33H261
		v-33.6l-4.6,3c-6.4,4.2-14.9,2.4-19.1-4c-4.2-6.4-2.4-14.9,4-19.1c4.6-3,10.5-3,15.1,0l4.6,3v-33.2h23.2c-0.8,2.1-1.1,4.3-1.1,6.6
		c-0.2,10.9,8.4,20,19.3,20.2c10.9,0.2,20-8.4,20.2-19.3c0-0.3,0-0.6,0-0.9c0-2.2-0.4-4.5-1.1-6.6L345.2,320.8 M348.2,317.9h-31.6
		c5.3,7.6,3.5,18-4.1,23.4c-7.6,5.3-18,3.5-23.4-4.1c-4-5.8-4-13.4,0-19.2H258v30.7c-7.8-5.1-18.1-2.9-23.2,4.9
		c-5.1,7.8-2.9,18.1,4.9,23.2c5.6,3.6,12.8,3.6,18.3,0v31h90.2v-30.7c7.9,4.8,18.2,2.2,23-5.7s2.2-18.2-5.7-23
		c-5.3-3.2-12-3.2-17.3,0V317.9L348.2,317.9z"/>
	
		<linearGradient id="SVGID_14_" gradientUnits="userSpaceOnUse" x1="225.64" y1="350.34" x2="225.64" y2="440.4" gradientTransform="matrix(1 0 0 -1 0 578)">
		<stop  offset="0" style="stop-color:#1C4189"/>
		<stop  offset="0.44" style="stop-color:#768FB6"/>
		<stop  offset="0.82" style="stop-color:#BECED9"/>
		<stop  offset="1" style="stop-color:#DAE6E7"/>
	</linearGradient>
	<path class="st27" d="M254.9,140.6v34.1l4.7-3.3c2.3-1.6,5.1-2.5,7.9-2.5c7.5,0,13.1,5.8,13.1,13.5s-5.8,14-13.1,14
		c-2.8,0-5.6-0.9-7.9-2.5l-4.7-3.3v34h-23.1c0.5-1.8,0.8-3.7,0.8-5.6c0-10.9-8.9-19.8-19.8-19.8S193,208.1,193,219l0,0
		c0,1.9,0.3,3.8,0.8,5.6h-23.2v-84H194c-3.4,10.4,2.3,21.5,12.6,24.9c10.4,3.4,21.5-2.3,24.9-12.6c0.6-2,1-4.1,1-6.1
		c0-2.1-0.3-4.2-1-6.1H254.9 M257.9,137.6h-31c5.1,7.8,2.9,18.1-4.9,23.2c-7.8,5.1-18.1,2.9-23.2-4.9c-3.6-5.6-3.6-12.8,0-18.3
		h-31.1v90.1h30.7c-4.8-7.9-2.2-18.2,5.8-23c7.9-4.8,18.2-2.2,23,5.8c3.2,5.3,3.2,11.9,0,17.3h30.7v-31.3c2.8,2,6.2,3,9.6,3
		c9.3,0,16.1-7.8,16.1-17s-6.8-16.5-16.1-16.5c-3.4,0-6.8,1-9.6,3L257.9,137.6L257.9,137.6z"/>
	
		<linearGradient id="SVGID_15_" gradientUnits="userSpaceOnUse" x1="303.1171" y1="233.8727" x2="303.1171" y2="350.52" gradientTransform="matrix(1 0 0 -1 0 578)">
		<stop  offset="0" style="stop-color:#1C4189"/>
		<stop  offset="0.44" style="stop-color:#768FB6"/>
		<stop  offset="0.82" style="stop-color:#BECED9"/>
		<stop  offset="1" style="stop-color:#DAE6E7"/>
	</linearGradient>
	<path class="st28" d="M345.4,230.5V264l4.6-3c2.2-1.5,4.8-2.2,7.5-2.2c7.4,0,12.9,6,12.9,14c0,7.8-5.4,13.5-12.9,13.5
		c-2.7,0-5.3-0.8-7.5-2.2l-4.6-3v33.6h-34.2l3.4,4.7c4.4,6.2,2.9,14.8-3.3,19.2c-6.2,4.4-14.8,2.9-19.2-3.3
		c-3.4-4.8-3.4-11.1,0-15.9l3.4-4.7h-34.2v-33l-4.5,2.7c-6.5,3.9-15,1.8-18.9-4.7s-1.8-15,4.7-18.9c4.4-2.6,9.8-2.6,14.2,0l4.5,2.7
		v-33h23.4c-3.7,10.3,1.7,21.6,12,25.3c10.3,3.7,21.6-1.7,25.3-12c0.8-2.2,1.2-4.5,1.1-6.8c0-2.2-0.4-4.5-1.1-6.6L345.4,230.5
		 M348.4,227.5h-0.1l0,0H317c5.3,7.6,3.5,18-4.1,23.4c-7.6,5.3-18,3.5-23.4-4.1c-4-5.8-4-13.5,0-19.2h-31.3l0,0l0,0v30.7
		c-7.9-4.8-18.2-2.2-23,5.7c-4.8,7.9-2.2,18.2,5.7,23c5.3,3.2,12,3.2,17.3,0v30.7h31.4c-5.3,7.6-3.6,18,4,23.4
		c7.6,5.3,18,3.6,23.4-4c4.1-5.8,4.1-13.6,0-19.4h31.4v-31c2.7,1.8,5.9,2.7,9.1,2.7c9.3,0,15.9-7.2,15.9-16.5s-6.6-17-15.9-17
		c-3.2,0-6.4,0.9-9.1,2.7v-31L348.4,227.5z"/>
</g>
<path class="st29" d="M500,326.7c0-3.2-0.9-6.4-2.7-9.1h31.1v-90.2h-30.7c4.8-7.9,2.2-18.2-5.7-23c-7.9-4.8-18.2-2.2-23,5.7
	c-3.2,5.3-3.2,12,0,17.3h-30.7v31.4c-7.6-5.4-18-3.6-23.4,4c-5.4,7.6-3.6,18,4,23.4c5.8,4.1,13.6,4.1,19.4,0v31.4h31
	c-1.8,2.7-2.7,5.9-2.7,9.1c0,9.3,7.5,16.2,16.8,16.2S500,335.9,500,326.7z"/>
<path class="st29" d="M528.4,47.5h-90.2v30.7c-7.9-4.8-18.2-2.2-23,5.7s-2.2,18.2,5.7,23c5.3,3.2,12,3.2,17.3,0v30.7h31.4
	c-2,2.8-3.1,6.2-3.1,9.7c0,9.3,7.5,16.2,16.7,16.2s16.8-6.9,16.8-16.2c0-3.5-1.1-6.8-3.1-9.7h31.4L528.4,47.5z"/>
<path class="st29" d="M249.3,75.8c3,0,6,0.8,8.6,2.4V47.5h-90.2v90.2h31.4c-5.3,7.6-3.6,18,4,23.4c7.6,5.3,18,3.6,23.4-4
	c4.1-5.8,4.1-13.6,0-19.4h31.4v-30.7c-7.9,4.8-18.2,2.2-23-5.7s-2.2-18.2,5.7-23C243.2,76.6,246.2,75.8,249.3,75.8L249.3,75.8z"/>
<path class="st29" d="M500,326.1c0-3-0.8-6-2.4-8.6h30.7v90.2h-90.1v-31.4c-7.6,5.3-18,3.6-23.4-4c-5.3-7.6-3.6-18,4-23.4
	c5.8-4.1,13.6-4.1,19.4,0v-31.4h30.7c-4.8,7.9-2.3,18.2,5.6,23c7.9,4.8,18.2,2.3,23-5.6C499.2,332.2,500,329.2,500,326.1z"/>
<path class="st29" d="M429.5,75.8c3,0,6,0.8,8.6,2.4V47.5h-90.1v31.1c7.8-5.1,18.1-2.9,23.2,4.9s2.9,18.1-4.9,23.2
	c-5.6,3.6-12.8,3.6-18.3,0v31.1h30.3c-4.4-8.1-1.5-18.3,6.7-22.8s18.3-1.5,22.8,6.7c2.7,5,2.7,11.1,0,16.1h30.3V107
	c-7.9,4.7-18.2,2.1-23-5.8S413,83,421,78.2C423.6,76.7,426.5,75.8,429.5,75.8L429.5,75.8z"/>
<path class="st29" d="M497.3,137.6c5.1,7.8,2.9,18.1-4.9,23.2c-7.8,5.1-18.1,2.9-23.2-4.9c-3.6-5.6-3.6-12.8,0-18.3h-31v31.3
	c-7.6-5.3-18-3.5-23.4,4.1c-5.3,7.6-3.5,18,4.1,23.4c5.8,4,13.5,4,19.2,0v31.3h30.7c-4.8-7.9-2.2-18.2,5.8-23
	c7.9-4.8,18.2-2.2,23,5.8c3.2,5.3,3.2,11.9,0,17.3h30.7v-90.1H497.3z"/>
<path class="st29" d="M438.1,376.6c-7.8,5.1-18.1,2.9-23.2-4.9c-5.1-7.8-2.9-18.1,4.9-23.2c5.6-3.6,12.8-3.6,18.3,0v-31.1h-31.3
	c5.3-7.6,3.5-18-4.1-23.4c-7.6-5.3-18-3.5-23.4,4.1c-4,5.8-4,13.5,0,19.2h-31.3v30.7c7.9-4.8,18.2-2.2,23,5.8
	c4.8,7.9,2.2,18.2-5.8,23c-5.3,3.2-11.9,3.2-17.3,0v30.7h90.1L438.1,376.6z"/>
<path class="st29" d="M407.4,137.3c1.6-2.6,2.4-5.6,2.4-8.6c0-9.3-7.4-15.8-16.7-15.8s-16.8,6.5-16.8,15.8c0,3,0.8,6,2.4,8.6H348
	v31.4c-2.8-2-6.2-3.1-9.7-3.1c-9.3,0-16.3,7.5-16.3,16.8c-0.2,9,7,16.5,16,16.7c0.1,0,0.2,0,0.3,0c3.5,0,6.8-1.1,9.7-3.1v31.4h0.1
	v-0.2h31.3c-5.3-7.6-3.5-18,4.1-23.4c7.6-5.3,18-3.5,23.4,4.1c4,5.8,4,13.5,0,19.2h31.3v-30.9c-7.6,5.3-18,3.5-23.4-4.1
	c-5.3-7.6-3.5-18,4.1-23.4c5.8-4,13.5-4,19.2,0v-31.6H407.4z"/>
<path class="st29" d="M429,255.6c3.3,0,6.4,0.9,9.1,2.7v-31h-31.3c5.3-7.6,3.5-18-4.1-23.4c-7.6-5.3-18-3.5-23.4,4.1
	c-4,5.8-4,13.5,0,19.2h-31.3V258c7.9-4.8,18.2-2.2,23,5.8c4.8,7.9,2.2,18.2-5.8,23c-5.3,3.2-11.9,3.2-17.3,0v30.7h31.3
	c-5.3-7.6-3.5-18,4.1-23.4c7.6-5.3,18-3.5,23.4,4.1c4,5.8,4,13.5,0,19.2h31.3v-31c-7.8,5.1-18.1,2.9-23.2-4.9
	c-5.1-7.8-2.9-18.1,4.9-23.2C422.5,256.6,425.7,255.6,429,255.6z"/>
<path class="st29" d="M317,137.3c5.3-7.6,3.5-18-4.1-23.4c-7.6-5.3-18-3.5-23.4,4.1c-4,5.8-4,13.5,0,19.2h-31.3V168l0,0
	c7.9-4.8,18.2-2.2,23,5.8c4.8,7.9,2.2,18.2-5.8,23c-5.3,3.2-11.9,3.2-17.2,0l0,0v30.7h31.3c-5.3,7.6-3.5,18,4.1,23.4
	c7.6,5.3,18,3.5,23.4-4.1c4-5.8,4-13.5,0-19.2h31.3l-0.3-31.4l0,0c-2.6,1.7-5.4,3.1-8.8,3.1c-9.3,0.2-16.9-7.1-17.2-16.4
	c-0.2-9.3,7.1-16.9,16.4-17.2c0.3,0,0.5,0,0.8,0c3.2,0.1,6.3,1.2,8.8,3.1l0,0l0.3-31.4L317,137.3L317,137.3z"/>
<path class="st29" d="M357.2,75.8c-3.3,0-6.4,0.9-9.1,2.7V47.5h-90.2v30.7c-7.9-4.8-18.2-2.2-23,5.7c-4.8,7.9-2.2,18.2,5.7,23
	c5.3,3.2,12,3.2,17.3,0v30.7h0.3v-0.4h31.3c-5.3-7.6-3.5-18,4.1-23.4c7.6-5.3,18-3.5,23.4,4.1c4,5.8,4,13.5,0,19.2h31.1v-30.7
	c7.8,5.1,18.1,2.9,23.2-4.9s2.9-18.1-4.9-23.2C363.7,76.7,360.5,75.8,357.2,75.8z"/>
<path class="st29" d="M248.9,379.3c3.3,0,6.4-0.9,9.1-2.7v31h90.2v-30.7c7.9,4.8,18.2,2.2,23-5.7s2.2-18.2-5.7-23
	c-5.3-3.2-12-3.2-17.3,0v-30.4h-31.6c5.3,7.6,3.5,18-4.1,23.4c-7.6,5.3-18,3.5-23.4-4.1c-4-5.8-4-13.4,0-19.2H258v30.7
	c-7.8-5-18.1-2.8-23.2,4.9c-5,7.8-2.8,18.1,4.9,23.2C242.4,378.4,245.6,379.3,248.9,379.3L248.9,379.3z"/>
<path class="st29" d="M198.8,137.6c-5.1,7.8-2.9,18.1,4.9,23.2c7.8,5.1,18.1,2.9,23.2-4.9c3.6-5.6,3.6-12.8,0-18.3h31v31.3
	c2.8-2,6.2-3,9.6-3c9.3,0,16.1,7.3,16.1,16.5s-6.8,17-16.1,17c-3.4,0-6.8-1-9.6-3v31.3h-30.7c4.8-7.9,2.2-18.2-5.8-23
	c-7.9-4.8-18.2-2.2-23,5.8c-3.2,5.3-3.2,11.9,0,17.3h-30.7v-90.1H198.8z"/>
<path class="st29" d="M357.5,255.8c-3.2,0-6.4,0.9-9.1,2.7v-31h-0.1l0,0H317c5.3,7.6,3.5,18-4.1,23.4c-7.6,5.3-18,3.5-23.4-4.1
	c-4-5.8-4-13.5,0-19.2h-31.3l0,0l0,0v30.7c-7.9-4.8-18.2-2.2-23,5.7c-4.8,7.9-2.2,18.2,5.7,23c5.3,3.2,12,3.2,17.3,0v30.7h31.4
	c-5.3,7.6-3.6,18,4,23.4c7.6,5.3,18,3.6,23.4-4c4.1-5.8,4.1-13.6,0-19.4h31.4v-31c2.7,1.8,5.9,2.7,9.1,2.7c9.3,0,15.9-7.2,15.9-16.5
	S366.8,255.8,357.5,255.8z"/>
<path class="st30" d="M317,137.3c5.3-7.6,3.5-18-4.1-23.4c-7.6-5.3-18-3.5-23.4,4.1c-4,5.8-4,13.5,0,19.2h-31.3V168l0,0
	c7.9-4.8,18.2-2.2,23,5.8c4.8,7.9,2.2,18.2-5.8,23c-5.3,3.2-11.9,3.2-17.2,0l0,0v30.7h31.3c-5.3,7.6-3.5,18,4.1,23.4
	c7.6,5.3,18,3.5,23.4-4.1c4-5.8,4-13.5,0-19.2h31.3l-0.3-31.4l0,0c-2.6,1.7-5.4,3.1-8.8,3.1c-9.3,0.2-16.9-7.1-17.2-16.4
	c-0.2-9.3,7.1-16.9,16.4-17.2c0.3,0,0.5,0,0.8,0c3.2,0.1,6.3,1.2,8.8,3.1l0,0l0.3-31.4L317,137.3L317,137.3z"/>
<path class="st30" d="M438.1,376.6c-7.8,5.1-18.1,2.9-23.2-4.9c-5.1-7.8-2.9-18.1,4.9-23.2c5.6-3.6,12.8-3.6,18.3,0v-31.1h-31.3
	c5.3-7.6,3.5-18-4.1-23.4c-7.6-5.3-18-3.5-23.4,4.1c-4,5.8-4,13.5,0,19.2h-31.3v30.7c7.9-4.8,18.2-2.2,23,5.8
	c4.8,7.9,2.2,18.2-5.8,23c-5.3,3.2-11.9,3.2-17.3,0v30.7h90.1L438.1,376.6z"/>
<path class="st31" d="M84.8,401.9c1.1,5-0.2,9.5-2.8,10.1s-5.7-3-6.7-8s0.2-9.5,2.8-10.1S83.7,396.9,84.8,401.9z"/>
<path class="st31" d="M82.1,367.7c1.7,8.1,0,15.4-3.8,16.2s-8.4-5.1-10.2-13.2s0-15.4,3.8-16.2S80.3,359.5,82.1,367.7z"/>
<path class="st31" d="M52.9,356.1c8.8,24.2,5.7,47-2.6,50l0,0c-5.7-7.7-10.7-15.2-13.7-22c-10.5-17.2-16-37-16-57.2
	c0-3.1,0.1-6.2,0.3-9.2l0.9,0.1C30.2,314.8,44.1,331.9,52.9,356.1z"/>
<path class="st32" d="M260,357.4c-0.4,1.5-0.8,3.1-1.2,4.7c-5.3,19.4-13.7,44.6-26.4,68.9c-28.7,54.5-79.3,104.2-165.4,72.3
	c0.9,0.1,59.3,5,69.4-47.6c4.2-27.7,8-36.7,8-36.7v-0.4c17.1,2.1,36.3-3.7,46-28.4c6.8-17.3,7.1-32.1,4.8-43.7
	C195.1,346.5,243.8,320.2,260,357.4z"/>
<path class="st33" d="M258.8,362.1c0,0,23.5,19.7,21.2,72c0,0-32.2,9.1-47.7-3.1C245.1,406.8,253.5,381.5,258.8,362.1z"/>
<path class="st33" d="M52.9,356.1c-8.8-24.2-22.8-41.3-31.1-38.3l-0.9-0.1c3.7-51.7,38.8-94.9,89.5-108.1l-1.7,4.8
	c-0.3,0.9,0,1.9,0.8,2.5c6.8,4.6,14.5,7.6,22.6,8.8c7.9,1.2,16,0.3,23.4-2.7c0.7-0.4,1.2-1.1,1.1-1.9l-0.7-13.4l-0.1-2.3
	c51.7,2.8,59.6,34.7,98.7,86.6c8,10.4,12.1,23.3,11.7,36.4c-0.3,8.1-2,16-4.9,23.5c-0.4,1.8-0.9,3.6-1.4,5.5
	c-16.1-37.2-64.9-10.9-64.9-10.9c2.3,11.6,2,26.4-4.8,43.7c-9.7,24.6-28.9,30.4-46,28.4v0.4c0,0-3.8,9-8,36.7
	c-10.2,52.6-68.5,47.7-69.4,47.6l0,0c-3.3-1.2-6.7-2.6-10.1-4.1c-5.1-2.2,8,49.3-50.8,52.3c0,0-22-42.1,31.5-60.6
	c0,0-44-0.8-26.9-65.9c0,0,54.5,9.5,47,57.6c0,0,25.4,9.1,27.7-14.4c0.1-0.7,0.1-1.3,0.1-2c0-17-19.8-39.5-34.9-60
	C58.7,403.1,61.8,380.3,52.9,356.1z M114.8,293.6c-5.4,0-9.7,4.4-9.7,9.7c0,5.4,4.4,9.7,9.7,9.7c5.4,0,9.7-4.4,9.7-9.7
	S120.1,293.6,114.8,293.6L114.8,293.6z M213.8,274.5c0-5.4-4.3-9.7-9.7-9.7c-5.4,0-9.7,4.3-9.7,9.7c0,5.4,4.3,9.7,9.7,9.7
	c0,0,0,0,0,0C209.4,284.2,213.7,279.9,213.8,274.5L213.8,274.5z M81.9,412c2.7-0.6,3.9-5.1,2.8-10.1s-4.1-8.6-6.7-8
	s-3.9,5.1-2.8,10.1S79.3,412.5,81.9,412z M78.2,383.9c3.9-0.8,5.6-8.1,3.8-16.2s-6.3-14.1-10.2-13.3s-5.6,8.1-3.8,16.2
	S74.3,384.7,78.2,383.9L78.2,383.9z"/>
<path class="st34" d="M209.7,272.1c1.1,0,2,0.9,2,2c0,4.4-3.6,8-8,8c-1.1,0-2-0.9-2-2s0.9-2,2-2c2.2,0,4-1.8,4-4
	C207.7,273,208.6,272.1,209.7,272.1z"/>
<circle class="st35" cx="200.3" cy="271.4" r="3.4"/>
<path class="st36" d="M211.7,274.1c0-1.1-0.9-2-2-2s-2,0.9-2,2c0,2.2-1.8,4-4,4c-1.1,0-2,0.9-2,2s0.9,2,2,2
	C208.1,282.1,211.7,278.5,211.7,274.1z M204,264.8c5.4,0,9.7,4.3,9.7,9.7s-4.3,9.7-9.7,9.7c-5.4,0-9.7-4.3-9.7-9.7c0,0,0,0,0,0
	C194.3,269.2,198.6,264.8,204,264.8z M200.3,268c-1.9,0-3.4,1.5-3.4,3.4c0,1.9,1.5,3.4,3.4,3.4c1.9,0,3.4-1.5,3.4-3.4
	S202.2,268,200.3,268L200.3,268z"/>
<path class="st37" d="M154.9,186.8l1,18.5l-1.9-0.1l-0.9-17.1c0.4-0.4,0.8-0.8,1.2-1.3L154.9,186.8z"/>
<path class="st37" d="M154.3,186.9c-0.4,0.4-0.8,0.9-1.2,1.3l-0.1-2.7L154.3,186.9z"/>
<path class="st37" d="M154,205.3l1.9,0.1l0.1,2.3c-0.6-0.2-1.3-0.4-1.9-0.6l0,0L154,205.3z"/>
<path class="st37" d="M153.8,164.9l1.1,21.9h-0.6l-1.3-1.4l-1-19.6c0.4-0.3,0.7-0.6,1.1-0.9L153.8,164.9z"/>
<path class="st37" d="M153.1,188.1l0.9,17.1l-1.9-0.1l-0.8-15.5C151.9,189.3,152.5,188.7,153.1,188.1z"/>
<path class="st37" d="M153,165c-0.4,0.3-0.7,0.6-1.1,0.9l-0.1-2.5L153,165z"/>
<path class="st37" d="M152.4,138.2l1.4,26.8H153l-1.2-1.6l-1.3-24.2c0.4-0.3,0.8-0.6,1.1-1H152.4z"/>
<path class="st37" d="M150.1,167.2c0.6-0.4,1.2-0.9,1.8-1.3l1,19.6l-1.3-1.4c-0.2,0.2-0.4,0.4-0.6,0.6L150.1,167.2z"/>
<path class="st37" d="M151.7,138.2c-0.4,0.4-0.8,0.7-1.1,1l-0.1-2.5L151.7,138.2z"/>
<path class="st37" d="M153,185.4l0.1,2.7c-0.6,0.6-1.2,1.1-1.8,1.6l-0.3-5.1c0.2-0.2,0.4-0.4,0.6-0.6L153,185.4z"/>
<path class="st38" d="M151,184.6l0.3,5.1c-11.2,9.2-27.1,7.9-32.3,7.2h-0.1l1.4-3.9C126.1,193.7,141.6,194.3,151,184.6z"/>
<path class="st37" d="M150.1,167.2l-0.2-4.8c0.2-0.2,0.5-0.4,0.7-0.6l1.2,1.6l0.1,2.5C151.4,166.4,150.8,166.8,150.1,167.2z"/>
<path class="st37" d="M148.7,140.5c0.6-0.4,1.2-0.8,1.8-1.3l1.3,24.2l-1.2-1.6c-0.2,0.2-0.5,0.4-0.7,0.6L148.7,140.5z"/>
<path class="st39" d="M130.7,171.3c6.8,1.1,13.7-0.4,19.5-4.1l0.9,17.4c-9.4,9.7-25,9.1-30.8,8.4l7.8-22.2
	C128.9,171,129.8,171.2,130.7,171.3z"/>
<path class="st38" d="M149.9,162.4l0.2,4.8c-5.8,3.7-12.7,5.1-19.5,4.1c-0.9-0.1-1.8-0.3-2.7-0.5l1.3-3.8
	C133.3,167.7,142.4,168.6,149.9,162.4z"/>
<path class="st37" d="M150.6,139.2c-0.6,0.5-1.2,0.9-1.8,1.3l-0.2-4.7c0.2-0.2,0.4-0.4,0.6-0.6l1.3,1.5L150.6,139.2z"/>
<path class="st39" d="M148.7,140.5l1.1,21.9c-7.5,6.2-16.6,5.3-20.6,4.5l8.1-23.3C141.4,143.6,145.3,142.5,148.7,140.5z"/>
<path class="st38" d="M148.5,135.8l0.2,4.7c-3.5,2-7.4,3.1-11.3,3.2l1.4-4.2C142.4,139.2,145.7,137.9,148.5,135.8z"/>
<path class="st39" d="M147.4,114.9l1.1,20.8c-2.8,2.1-6.1,3.4-9.6,3.7L147.4,114.9z"/>
<path class="st39" d="M152.1,205.2l-0.8-15.5c-11.2,9.2-27.1,7.9-32.3,7.2h-0.1l-4,11.6l-2,5.8c18.5,11.6,35.5,7,40,5.4L152.1,205.2
	z"/>
<path class="st37" d="M148.8,105.2l1.6,31.5l-1.3-1.5c-0.2,0.2-0.4,0.4-0.6,0.6l-1.1-20.8l-8.6,24.6c-0.9,0.1-1.6,0.1-2.1,0.1
	L148.8,105.2z"/>
<path class="st37" d="M138.9,139.5l-1.4,4.2c-0.8,0-1.3,0-1.4,0v-2l0.7-2C137.3,139.6,138,139.6,138.9,139.5z"/>
<path class="st37" d="M136.8,139.7l-0.7,2v-2H136.8z"/>
<path class="st37" d="M137.4,143.7l-8.1,23.3c-0.6-0.1-1.3-0.3-1.9-0.4l8.7-24.8v2C136.1,143.7,136.6,143.8,137.4,143.7z"/>
<path class="st37" d="M128,170.8l-7.7,22.2l-1.9-0.3l8.5-24.3l-0.5,1.9C126.4,170.4,127,170.6,128,170.8z"/>
<path class="st37" d="M127.4,166.5c0.6,0.2,1.2,0.3,1.9,0.4l-1.3,3.8c-1-0.2-1.6-0.4-1.7-0.4l0.5-1.9L127.4,166.5z"/>
<path class="st37" d="M127.4,166.5l-0.7,1.9l0.5-2C127.3,166.5,127.4,166.5,127.4,166.5z"/>
<path class="st34" d="M120.5,300.9c1.1,0,2,0.9,2,2c0,4.4-3.6,8-8,8c-1.1,0-2-0.9-2-2s0.9-2,2-2c2.2,0,4-1.8,4-4
	C118.5,301.8,119.4,300.9,120.5,300.9z"/>
<path class="st37" d="M117.3,196.7c0.1,0,0.7,0.1,1.5,0.2l-4,11.6c-0.7,0.2-1.5,0.3-2.2,0.5l2.3-6.5l2.7-7.8L117.3,196.7z"/>
<path class="st37" d="M120.2,193.1l-1.4,3.9c-0.9-0.1-1.4-0.2-1.5-0.2l0.3-2l0.7-1.9L120.2,193.1z"/>
<path class="st37" d="M117.9,192.7l0.4,0.1l-0.7,1.9L117.9,192.7z"/>
<path class="st37" d="M114.9,202.5l-2.3,6.5c-0.8,0.2-1.5,0.4-2.2,0.6l2.4-6.9L114.9,202.5z"/>
<path class="st37" d="M117.9,192.7l-0.3,2l-2.7,7.8l-2.1,0.1l34.2-98.3c0.3-0.8,1.1-1.4,2-1.2c0.9,0.2,1.6,1,1.6,1.9l1.7,33.1h-0.7
	l-1.3-1.5l-1.6-31.5l-12,34.5H136v2l-8.7,24.8c0,0-0.1,0-0.1,0l-0.5,2l-8.4,24.3L117.9,192.7z"/>
<circle class="st35" cx="111" cy="300.2" r="3.4"/>
<path class="st37" d="M112.9,214.3c18.5,11.6,35.4,7,40,5.4l-0.8-14.5l1.9,0.1l0.1,1.8l0.7,14.1c0,0-21.1,9.5-44.3-6l2.1-6.1
	c0.7-0.2,1.5-0.4,2.2-0.5L112.9,214.3z"/>
<path class="st37" d="M132.2,225.6c-8.1-1.2-15.9-4.2-22.6-8.8c-0.8-0.5-1.1-1.6-0.8-2.5l1.7-4.8c0.7-0.2,1.5-0.4,2.2-0.6l-2.1,6.1
	c23.2,15.5,44.3,6,44.3,6l-0.7-14.1l0,0c0.6,0.2,1.3,0.4,1.9,0.6l0.7,13.4c0.1,0.8-0.4,1.6-1.1,1.9
	C148.1,225.9,140.1,226.8,132.2,225.6z"/>
<path class="st36" d="M105,303.3c0-5.4,4.3-9.7,9.7-9.7s9.7,4.3,9.7,9.7c0,5.4-4.3,9.7-9.7,9.7c0,0,0,0,0,0
	C109.4,313,105,308.7,105,303.3z M111,296.8c-1.9,0-3.4,1.5-3.4,3.4s1.5,3.4,3.4,3.4c1.9,0,3.4-1.5,3.4-3.4S112.9,296.8,111,296.8
	L111,296.8z M122.4,302.9c0-1.1-0.9-2-2-2s-2,0.9-2,2c0,2.2-1.8,4-4,4c-1.1,0-2,0.9-2,2s0.9,2,2,2
	C118.9,310.9,122.5,307.3,122.4,302.9C122.5,302.9,122.5,302.9,122.4,302.9L122.4,302.9z"/>
<path class="st30" d="M118.3,514.8c-16.4,0-33.7-3.4-51.9-10.1l1-2.8c87.1,32.3,137-21.1,163.5-71.5c13.2-25.1,21.6-51.1,26.3-68.6
	c0.4-1.6,0.8-3.2,1.2-4.7c0.5-1.9,1-3.8,1.4-5.5l0-0.2c2.8-7.4,4.4-15.2,4.8-23.1c0.5-12.8-3.6-25.3-11.4-35.5
	c-8.5-11.3-15.6-21.8-21.9-31c-22.4-32.9-35.9-52.8-75.5-55l-0.1-3h0.3c41.1,2.2,55,22.6,77.9,56.3c6.2,9.2,13.3,19.6,21.8,30.9
	c8.2,10.7,12.5,23.9,12,37.4c-0.3,8.2-2,16.3-4.9,23.9c-0.4,1.7-0.9,3.6-1.4,5.5c-0.4,1.5-0.8,3.1-1.2,4.7
	c-4.8,17.6-13.3,43.9-26.6,69.2c-17,32.4-37.8,55.6-61.8,69.2C155.5,510.1,137.1,515,118.3,514.8z"/>
<path class="st30" d="M5.1,553.1l-0.4-0.9c-0.4-0.7-8.9-17.3-2-34.7c4.4-11.1,14.1-19.9,28.9-26c-7.4-1.7-13.9-6-18.6-12
	c-9-11.9-10.4-30.4-3.9-54.9l0.4-1.3l1.4,0.2c9.6,2,18.7,5.7,26.9,11c11.7,7.8,24.9,22.2,21.5,47c3.2,0.9,12,2.8,18.1-1
	c3.7-2.4,5.9-6.5,6.4-12.5c0.1-0.6,0.1-1.2,0.1-1.9c0-13.6-13.5-31.2-26.5-48.3c-2.7-3.6-5.5-7.3-8.2-10.8l2.4-1.8
	c2.6,3.5,5.4,7.2,8.1,10.8c13.3,17.5,27.1,35.5,27.1,50.1c0,0.7,0,1.4-0.1,2.1c-0.7,6.9-3.3,11.8-7.8,14.7c-8.8,5.6-21.3,1.2-21.8,1
	l-1.2-0.4l0.2-1.2c3-19.3-3.7-34.6-19.9-45.3c-7.5-4.8-15.8-8.3-24.5-10.3c-5.8,22.9-4.5,40.1,3.8,51c8.6,11.1,21.9,11.5,22.1,11.5
	l8.4,0.1l-8,2.8c-17,5.9-27.9,14.8-32.5,26.3c-5.5,13.9-0.1,27.8,1.5,31.3c18-1.1,31.3-6.8,39.5-17c11.7-14.5,8.9-33.4,8.8-33.5
	l-0.4-2.7l2.5,1.1c3.4,1.5,6.8,2.8,10.1,4l-1.1,2.8c-2.5-0.9-5.2-2-7.8-3.1c0.4,6,0.3,20.9-9.7,33.3C39.9,545.9,25.5,552,6.1,553
	L5.1,553.1z"/>
<path class="st30" d="M49.1,407c-4.7-6.4-10.5-14.6-13.9-22.2c-10.6-17.5-16.2-37.5-16.2-57.9c0-3.1,0.1-6.3,0.3-9.3
	c1.7-25.4,11.3-49.7,27.5-69.3c16.2-19.7,38.3-33.7,63-40.1l1.1-0.3c0,0-0.8,2.2-1.2,3.4c-49.4,13.3-83.7,55-87.4,106.5
	c-0.2,3-0.3,6-0.3,9.1c0,19.9,5.5,39.4,15.8,56.4l0.1,0.2c3.3,7.3,9,15.5,13.6,21.7L49.1,407z"/>
<path class="st30" d="M188.3,302.6c-0.8-2.1-2.6-3.3-5.2-3.6c0.5-0.6,0.9-1.3,1.1-2c0.5-1.5,0.2-3.2-0.7-4.5
	c-3.4-5.2-10.3-3.2-13.5-1.4c-0.7,0.4-1,1.3-0.7,2c0.4,0.7,1.3,1,2,0.7c0,0,0.1,0,0.1-0.1c0.1,0,6.8-3.8,9.5,0.4
	c0.4,0.5,0.6,1.3,0.4,1.9c-0.4,1.3-2.5,2.8-5.4,3.9c-0.5,0.2-0.9,0.3-1,0.4h-0.1c-0.8,0.3-1.2,1.1-0.9,1.9c0.2,0.6,0.8,1,1.4,1
	c0.2,0,0.3,0,0.5-0.1h0.1c0.2,0,0.5-0.2,1-0.3l0,0c1.3-0.4,7.6-2.2,8.7,0.7c0.2,0.5,0.1,1.1-0.1,1.6c-1.2,2.5-6,4.6-7.8,5.2
	c-0.8,0.3-1.2,1.1-0.9,1.9c0.2,0.6,0.8,1,1.4,1c0.2,0,0.3,0,0.5-0.1c0.8-0.3,7.6-2.7,9.5-6.7C188.6,305.2,188.7,303.8,188.3,302.6z"
	/>
<path class="st30" d="M93,298.3c-0.7,0-1.3-0.5-1.5-1.2c-0.2-0.8,0.4-1.6,1.2-1.8c0,0,0,0,0,0l31.3-6.1l-1.8-5.7
	c-0.2-0.8,0.2-1.6,1-1.9c0.8-0.2,1.5,0.2,1.8,0.9l2.4,7.3c0.1,0.4,0.1,0.9-0.1,1.2c-0.2,0.4-0.6,0.6-1,0.7l-33,6.4
	C93.2,298.3,93.1,298.3,93,298.3z"/>
<path class="st30" d="M186.2,254.3c-0.8,0-1.5-0.7-1.5-1.5c0-0.3,0.1-0.7,0.3-0.9c0.3-0.4,7.6-9.3,23.1-4.1c0.8,0.3,1.2,1.1,0.9,1.9
	s-1.1,1.2-1.9,0.9c-13.5-4.5-19.8,3-19.8,3.1C187.1,254.1,186.7,254.3,186.2,254.3z"/>
<path class="st30" d="M150.6,420.5c-2.2,0-4.3-0.1-6.5-0.4c-15.4-1.9-28.4-9.7-32.8-16.1c-0.5-0.7-0.3-1.6,0.4-2.1s1.6-0.3,2.1,0.4
	c4.1,6,16.8,13.2,30.7,14.9c12,1.4,33.7-0.2,44.4-27.4c5.8-14.8,7.4-29.2,4.7-42.9c-1.9-10.3-6.5-20-13.1-28.1
	c-39.8,15.2-52.1,41.5-55.9,56c-1,3.7-1.6,7.4-1.8,11.2c0,0.8-0.7,1.5-1.5,1.5l0,0c-0.8,0-1.5-0.7-1.5-1.5c0.2-4.1,0.8-8.1,1.9-12
	c4-15.1,16.9-42.8,58.7-58.4l0.9-0.3l0.7,0.7c0.4,0.5,10.8,11.2,14.6,30.3c2.8,14.2,1.1,29.2-4.9,44.5
	C181.9,415.5,163.7,420.5,150.6,420.5z"/>
<path class="st30" d="M109.5,381.4c-0.8,0-1.5-0.7-1.5-1.5c0-0.4,0.2-0.8,0.5-1.1c3.9-3.9,9.3-6,14.8-6c0.8,0.1,1.5,0.8,1.4,1.6
	c-0.1,0.8-0.8,1.5-1.6,1.4c-4.7,0-9.2,1.9-12.5,5.2C110.3,381.2,109.9,381.4,109.5,381.4z"/>
<path class="st30" d="M255.9,439c-8.7,0-18-1.5-24.6-6.8c-0.6-0.5-0.8-1.4-0.3-2.1c0,0,0,0,0,0c0.5-0.6,1.5-0.8,2.1-0.2
	c13.2,10.5,39.7,4.5,45.3,3.1c1.9-50.1-20.5-69.5-20.7-69.7c-0.6-0.5-0.7-1.5-0.2-2.1s1.5-0.7,2.1-0.2l0,0c1,0.8,24,20.8,21.8,73.2
	v1.1l-1,0.3C272.4,437.8,264.2,438.9,255.9,439z M279.9,434.2L279.9,434.2z"/>
<linearGradient id="SVGID_16_" gradientUnits="userSpaceOnUse" x1="226.455" y1="112.92" x2="369.0309" y2="112.92" gradientTransform="matrix(1 0 0 -1 0 578)">
	<stop  offset="0" style="stop-color:#C4D4E8"/>
	<stop  offset="0.38" style="stop-color:#D7E6F1"/>
	<stop  offset="1" style="stop-color:#F3FFFF"/>
</linearGradient>
<path class="st40" d="M254,447.4c-7.1-6-17.7-5-23.6,2.1c-6,7.1-5,17.7,2.1,23.6c5.4,4.5,13,5.2,19.1,1.7l-2.7,31.2l0,0l30.6,2.7
	l0,0c-4-8.3-0.6-18.3,7.7-22.4c2.7-1.3,5.8-1.9,8.8-1.6c9.2,0.8,16,8.9,15.3,18.1c-0.3,3-1.3,6-3.1,8.4l0,0l30.6,2.7l0,0l2.7-31.2
	c7.1,5.9,17.7,5,23.6-2.1c5.9-7.1,5-17.7-2.1-23.6c-5.4-4.5-13-5.2-19.2-1.7l2.7-31.2l0,0l-30.9-2.7l0,0c1.5,2.9,2.2,6.1,1.9,9.4
	c-0.8,9.2-8.9,16.1-18.2,15.3c-9.2-0.8-16.1-8.9-15.3-18.2c0.3-3.2,1.5-6.3,3.5-8.9l0,0l-30.9-2.7l0,0L254,447.4z"/>
<path class="st14" d="M244.8,443.6c-4-0.4-8,0.7-11.2,3.1l5.7,9.3l11.8-10.6C249.1,444.4,246.9,443.8,244.8,443.6z"/>
<polygon class="st14" points="256.8,416.3 256.8,416.3 254.5,442.2 273.6,425 267.9,417.2 "/>
<path class="st2" d="M241.8,477c3.4,0.3,6.8-0.5,9.8-2.2l-2.7,31.2l0,0l10.7,0.9l6.3-6.8l-0.1-0.1l35.2-37.9l0,0l36-38.9l-21.3-1.9
	l0,0c1.5,2.9,2.2,6.1,1.9,9.4c-0.8,9.2-8.9,16.1-18.1,15.3c-9.2-0.8-16.1-8.9-15.3-18.1c0.3-3.3,1.5-6.4,3.5-8.9l0,0l-6.8-0.6
	l-7.3,6.6l0,0l-19.1,17.3l-0.4,5.2c-0.9-0.8-2-1.4-3.1-2L239.2,456l0,0l-11.5,10.4C230,472.4,235.5,476.4,241.8,477z"/>
<path class="st14" d="M270.7,507.9l8.8,0.8l0,0c-4-8.3-0.6-18.3,7.7-22.4c2.7-1.3,5.8-1.9,8.8-1.6c9.2,0.8,16,8.9,15.3,18.1
	c-0.3,3-1.3,6-3.1,8.4l0,0l30.6,2.7l0,0l0.1-0.9L301,462.2l-35.1,38L270.7,507.9z"/>
<g class="st6">
	
		<linearGradient id="SVGID_17_" gradientUnits="userSpaceOnUse" x1="297.7095" y1="64.14" x2="297.7095" y2="161.7" gradientTransform="matrix(1 0 0 -1 0 578)">
		<stop  offset="0" style="stop-color:#1C4189"/>
		<stop  offset="0.44" style="stop-color:#768FB6"/>
		<stop  offset="0.82" style="stop-color:#BECED9"/>
		<stop  offset="1" style="stop-color:#DAE6E7"/>
	</linearGradient>
	<path class="st41" d="M259.5,419.5l23.2,2c-0.8,1.9-1.3,3.9-1.5,6c-0.9,10.9,7.1,20.5,18,21.4c0.6,0.1,1.2,0.1,1.7,0.1
		c10.9,0,19.8-8.9,19.7-19.8c0-1.5-0.2-3-0.5-4.5l23.2,2l-2.5,28.3l-0.5,5.7l5-2.9c2.1-1.2,4.5-1.8,6.9-1.8c0.4,0,0.8,0,1.2,0
		c7.6,0.7,13.1,7.4,12.4,15c-0.7,7-6.5,12.4-13.6,12.5c-0.4,0-0.8,0-1.2,0c-2.8-0.2-5.5-1.3-7.6-3.2l-4.4-3.7l-0.5,5.7l-2.5,28.2
		l-23-2c4-10.1-1-21.6-11.1-25.6c-1.8-0.7-3.7-1.1-5.6-1.3c-0.6,0-1.2-0.1-1.7-0.1c-10.9,0-19.7,8.8-19.7,19.8
		c0,1.3,0.1,2.6,0.4,3.9l-23.1-2l2.5-28.2l0.5-5.7l-5,2.9c-2.1,1.2-4.5,1.8-6.9,1.8c-0.4,0-0.8,0-1.2,0c-7.6-0.6-13.2-7.3-12.5-14.9
		c0.6-7.1,6.6-12.6,13.7-12.6c0.4,0,0.8,0,1.2,0.1c2.8,0.2,5.5,1.3,7.6,3.2l4.4,3.7l0.5-5.7L259.5,419.5 M256.7,416.3l-2.7,31.1
		c-2.6-2.2-5.9-3.6-9.3-3.9c-0.5,0-1-0.1-1.5-0.1c-9.3,0-16.8,7.5-16.8,16.8c0,8.7,6.7,16,15.4,16.7c0.5,0,1,0.1,1.5,0.1
		c2.9,0,5.8-0.8,8.4-2.2l-2.7,31.2l0,0l30.6,2.7l0,0c-4-8.3-0.6-18.3,7.7-22.4c2.3-1.1,4.8-1.7,7.3-1.7c0.5,0,1,0,1.5,0.1
		c9.2,0.8,16,8.9,15.3,18.1c-0.3,3-1.3,6-3.1,8.4l0,0l30.6,2.7l0,0l2.7-31.2c2.6,2.2,5.9,3.6,9.3,3.9c0.5,0,1,0.1,1.5,0.1
		c9.3,0,16.7-7.6,16.7-16.9c0-8.6-6.6-15.8-15.2-16.6c-0.5,0-1-0.1-1.5-0.1c-2.9,0-5.8,0.8-8.4,2.2l2.7-31.2l0,0l-30.9-2.7l0,0
		c1.5,2.9,2.2,6.1,1.9,9.4c-0.8,8.7-8,15.3-16.7,15.3c-0.5,0-1,0-1.5-0.1c-9.2-0.8-16-9-15.2-18.2c0.3-3.2,1.5-6.3,3.5-8.8l0,0
		L256.7,416.3L256.7,416.3z"/>
</g>
<path class="st4" d="M254,447.4c-7.1-6-17.7-5-23.6,2.1c-6,7.1-5,17.7,2.1,23.6c5.4,4.5,13,5.2,19.1,1.7l-2.7,31.2l0,0l30.6,2.7l0,0
	c-4-8.3-0.6-18.3,7.7-22.4c2.7-1.3,5.8-1.9,8.8-1.6c9.2,0.8,16,8.9,15.3,18.1c-0.3,3-1.3,6-3.1,8.4l0,0l30.6,2.7l0,0l2.7-31.2
	c7.1,5.9,17.7,5,23.6-2.1c5.9-7.1,5-17.7-2.1-23.6c-5.4-4.5-13-5.2-19.2-1.7l2.7-31.2l0,0l-30.9-2.7l0,0c1.5,2.9,2.2,6.1,1.9,9.4
	c-0.8,9.2-8.9,16.1-18.2,15.3c-9.2-0.8-16.1-8.9-15.3-18.2c0.3-3.2,1.5-6.3,3.5-8.9l0,0l-30.9-2.7l0,0L254,447.4z"/>
</svg>
