<svg id="Layer_1" xmlns="http://www.w3.org/2000/svg" viewBox="0 0 623.8 577.8"><style>.st0{fill:#00c7f8}.st1{fill:#0093dd}.st2{fill:#c0ceba}.st4{fill:#a562a5}.st6{fill:#45c7ef}.st7{fill:#defaff}.st8{fill:#c7f4ff}.st9{fill:none;stroke:#edf8f9;stroke-width:2;stroke-miterlimit:10}.st11{fill:#edf8f9}.st13{fill:#2489ca}.st15{fill:#0877b9}.st16{fill:#3c99d4}.st17{opacity:.25}.st32{fill:none;stroke:#1c4189;stroke-width:.5;stroke-miterlimit:10}.st33{fill:#1c4189}.st34{fill:#d37563}.st35{fill:#9e5252}.st36{fill:#ebf1f7}.st37{fill:none;stroke:#1c4189;stroke-width:2;stroke-miterlimit:10}.st39{fill:#c15a3a}.st40{fill:#263a4a}.st41{fill:#f4e4e4}.st42{fill:#1a3b6b}.st43{fill:#6b7fc3}.st45{fill:#93a0df}.st46{fill:#3863a8}.st47{fill:#fff}.st48{fill:#29333f}.st49{fill:#4b8084}.st50{fill:#80b8c1}.st51{fill:#c7e5ec}</style><circle class="st0" cx="91.6" cy="179.5" r="14.2"/><path class="st1" d="M596.1 166.9c0 .1-.1.1-.1.2h.1v-.2zM539.1 84.7s.1 0 0 0z"/><ellipse class="st2" cx="405.3" cy="447.7" rx="5.6" ry="3"/><ellipse class="st2" cx="391.6" cy="446.2" rx="4.7" ry="1.5"/><ellipse class="st2" cx="393.5" cy="452.2" rx="2.8" ry="1.5"/><path d="M527.4 455.1s-24-15.7-9.9 3.2c0 0-35.9 12.5 1.3 7.9 0 0-8.1 28.9 11.5 2.7 0 0 32.9 9.9 7.6-6.2 0 0 27-16.1-10.5-7.6z" fill="#c083c2"/><path class="st4" d="M518.9 480.7c-.3 0-.7-.1-1-.2-2.9-1.5-1.3-9.5-.3-13.3-14.7 1.7-16.3.5-16.5-.7-.2-1 .2-2.4 8-5.7 2.8-1.2 5.6-2.2 7-2.7-3.6-5-4.6-7.8-3.4-9.1 2.2-2.3 10.8 2.9 14.8 5.5 16.7-3.8 19.7-2.5 20.4-.8 1.1 2.7-5 6.9-8.6 9.2 8.6 5.6 9.3 7.5 8.7 8.8-1.2 2.7-11.3.2-17.5-1.7-6.6 8.7-9.8 10.7-11.6 10.7zm.9-15.4l-.3 1.2c-1.5 5.5-2.3 11.9-.9 12.6.4.2 2.7.5 11-10.6l.4-.4.5.2c8 2.4 15.3 3.6 16.2 2.7 0-.1-.1-1.7-9.2-7.5l-1.1-.7 1.1-.7c5.2-3.1 9.4-6.8 9-7.9-.1-.2-1.4-2.2-18.9 1.8l-.3.1-.3-.2c-6-3.9-12.2-6.8-13-5.9 0 0-.9 1.1 4.2 7.9l.7.9-1 .4c-6.7 2.3-14.1 5.5-15 6.9.6.3 3.3.9 15.9-.6l1-.2z"/><ellipse transform="rotate(-18.396 528.4 457.926)" cx="528.3" cy="457.9" rx="2.1" ry="1" fill="#c482c2"/><path class="st4" d="M529.1 456.7c-.4 0-.9.1-1.3.2-1.1.4-1.8 1.1-1.5 1.6.1.3.6.5 1.1.5.4 0 .9-.1 1.3-.2 1.1-.4 1.8-1.1 1.5-1.6-.1-.3-.5-.5-1.1-.5zM530.7 459.4c-.2 0-.4 0-.5.1-.5.2-.9.6-.7 1 .2.2.4.4.7.4.2 0 .4 0 .5-.1.5-.2.9-.6.7-1-.1-.3-.4-.4-.7-.4z"/><path class="st6" d="M105.8 179.4c0 7.9-6.4 2.1-14.2 2.1s-14.2 5.7-14.2-2.1c0-7.9 6.4-14.2 14.2-14.2s14.2 6.4 14.2 14.2z"/><path class="st7" d="M103.7 178.4c-1.6 2.8-4.7-3.2-9.1-5.7s-9.9-1-8.3-3.8 8-3.6 12.4-1.1 6.6 7.8 5 10.6z"/><ellipse transform="rotate(-56.729 82.586 172.024)" class="st8" cx="82.6" cy="172" rx="2" ry="1.4"/><circle class="st0" cx="89.2" cy="138.2" r="9.2"/><path class="st6" d="M97.7 138.2c0 4.7-3.8 1.3-8.5 1.3s-8.5 3.4-8.5-1.3 3.8-8.5 8.5-8.5 8.5 3.8 8.5 8.5z"/><path class="st8" d="M96.4 137.6c-1 1.7-2.8-1.9-5.4-3.4s-5.9-.6-4.9-2.3 4.8-2.2 7.4-.7 3.9 4.7 2.9 6.4z"/><ellipse transform="rotate(-56.729 83.728 133.73)" class="st8" cx="83.7" cy="133.7" rx="1.2" ry=".9"/><circle class="st0" cx="121.7" cy="119.7" r="6.7"/><path class="st6" d="M128 119.7c0 3.4-2.8.9-6.2.9s-6.2 2.5-6.2-.9 2.8-6.2 6.2-6.2c3.4 0 6.2 2.8 6.2 6.2z"/><path class="st8" d="M127 119.3c-.7 1.3-2.1-1.4-4-2.5s-4.3-.4-3.6-1.7 3.5-1.6 5.4-.5 2.9 3.5 2.2 4.7z"/><ellipse transform="rotate(-56.729 117.781 116.498)" class="st8" cx="117.8" cy="116.5" rx=".9" ry=".6"/><circle class="st9" cx="91.6" cy="179.4" r="16"/><circle class="st9" cx="89.2" cy="138.2" r="9.9"/><circle class="st9" cx="121.7" cy="119.6" r="7.6"/><g opacity=".5"><path class="st7" d="M544.7 390.2c-.4 1.9 3.3.4 6.2 1s4.7 3.4 5.1 1.5-2.1-4.7-5-5.3-6 .9-6.3 2.8z"/><ellipse transform="rotate(-81.871 556.38 395.493)" class="st8" cx="556.4" cy="395.5" rx="1.2" ry=".8"/><path class="st11" d="M549.5 405.2c-5.5 0-9.9-4.5-9.9-10s4.5-9.9 10-9.9 9.9 4.5 9.9 10c0 2.4-.9 4.7-2.5 6.6-1.9 2.1-4.6 3.3-7.5 3.3zm0-18.7h-.6c-2.3.1-4.5 1.2-6 3-3.2 3.6-2.9 9.2.8 12.4 3.6 3.2 9.2 2.9 12.4-.8s2.9-9.2-.8-12.4c-1.5-1.5-3.6-2.2-5.8-2.2z"/><path class="st8" d="M565.5 362.9c-.3 1.3 2.3.3 4.2.7s3.2 2.3 3.5 1-1.5-3.2-3.4-3.6-4.1.6-4.3 1.9z"/><ellipse transform="rotate(-81.871 573.47 366.54)" class="st8" cx="573.4" cy="366.5" rx=".8" ry=".6"/><path class="st11" d="M568.8 373.6c-4 0-7.2-3.2-7.2-7.2 0-1.8.6-3.5 1.8-4.8 2.6-3 7.2-3.3 10.2-.7 3 2.6 3.3 7.2.7 10.2-1.4 1.6-3.4 2.5-5.5 2.5zm-4.4-11.1c-2.2 2.4-1.9 6.2.5 8.3 2.4 2.2 6.2 1.9 8.3-.5 2.2-2.4 1.9-6.2-.5-8.3-2.5-2.2-6.2-2-8.3.5z"/><path class="st8" d="M563.2 325.4c-.2.9 1.7.2 3.1.5s2.3 1.7 2.5.8-1.1-2.3-2.5-2.6-2.9.4-3.1 1.3z"/><ellipse transform="rotate(-81.871 569.016 328.05)" class="st8" cx="569" cy="328" rx=".6" ry=".4"/><path class="st11" d="M565.7 333.6c-3.2 0-5.7-2.6-5.7-5.7 0-1.4.5-2.7 1.4-3.8 2.1-2.4 5.7-2.6 8-.6 1.2 1 1.9 2.4 2 4 .2 3.1-2.2 5.9-5.3 6l-.4.1zm-3.3-8.6c-1.6 1.8-1.5 4.6.3 6.2s4.6 1.5 6.2-.3c.8-.9 1.2-2.1 1.1-3.2-.1-1.2-.6-2.2-1.5-3-1.8-1.7-4.5-1.5-6.1.3z"/></g><path fill="#edf8f9" stroke="#1c4189" stroke-width="3" stroke-miterlimit="10" d="M165.4 34.1h361.4V395H165.4z"/><path class="st13" d="M223.3 161.8s-6.5-4.7 1.3-10.9l18.1-16.2s5.2-5.4 10.7-.7l167.1 126.5v60.7s-.1 9.5-12.3 8.5L223.3 161.8z"/><path d="M266.4 200.9L223.3 240s-4.4 3.3 0 9.2l20 18.2s4.8 5.1 11.8-.7l45.7-34.6-34.4-31.2z" fill="#1070b3"/><path class="st15" d="M342 201.2l79-60.3-.5-60.3s-3.4-13.2-14.6-6.3L300.8 170l41.2 31.2z"/><path class="st16" d="M408.2 329.7c2.6 2.7 6.4 3.9 10.1 3.2l61.6-30.3c7.9-5.4 6.8-12 6.8-12V109.3c0-8-8.1-10.7-8.1-10.7l-53.4-25.7c-11.7-7.2-19.3 1.3-19.3 1.3s9.8-7.1 14.6 6.3V320c0 1.6-.3 3.2-1 4.7-1.4 2.8-4.5 5.5-11.8 4.4l.5.6z"/><g class="st17"><linearGradient id="SVGID_1_" gradientUnits="userSpaceOnUse" x1="468.274" y1="249.92" x2="468.274" y2="391.1" gradientTransform="matrix(1 0 0 -1 0 580)"><stop offset="0" stop-color="#1c4189"/><stop offset=".44" stop-color="#768fb6"/><stop offset=".82" stop-color="#beced9"/><stop offset="1" stop-color="#dae6e7"/></linearGradient><path d="M481.5 191.9c7.6 0 13.8 6.1 13.8 13.7 0 2.5-.7 5-2 7.1l-2.7 4.6h33.1v84.4H490l3 4.6c1.5 2.2 2.2 4.8 2.2 7.5 0 7.4-6.1 13.2-13.8 13.2s-13.8-5.8-13.8-13.2c0-2.7.8-5.3 2.2-7.5l3-4.6h-33.6v-34.3l-4.7 3.4c-2.3 1.7-5.1 2.5-8 2.5-7.6 0-13.8-6.1-13.8-13.8 0-7.6 6.1-13.8 13.8-13.8 2.9 0 5.7.9 8 2.5l4.7 3.4v-34.3h33.1l-2.7-4.6c-3.9-6.5-1.8-15 4.7-18.9 2.2-1.2 4.7-1.9 7.2-1.9m0-3c-9.3 0-16.8 7.5-16.8 16.8 0 3.1.8 6.1 2.4 8.7h-30.8v31.5c-7.6-5.4-18.1-3.6-23.4 4-5.4 7.6-3.6 18.1 4 23.4 5.8 4.1 13.6 4.1 19.4 0v31.5h31.1c-1.8 2.7-2.7 5.9-2.7 9.2 0 9.3 7.5 16.2 16.8 16.2s16.8-6.9 16.8-16.2c0-3.3-.9-6.4-2.7-9.2h31.1v-90.4h-30.8c4.8-7.9 2.2-18.2-5.7-23-2.6-1.7-5.6-2.5-8.7-2.5z" fill="url(#SVGID_1_)"/><linearGradient id="SVGID_2_" gradientUnits="userSpaceOnUse" x1="468.789" y1="429.6" x2="468.789" y2="545.87" gradientTransform="matrix(1 0 0 -1 0 580)"><stop offset="0" stop-color="#1c4189"/><stop offset=".44" stop-color="#768fb6"/><stop offset=".82" stop-color="#beced9"/><stop offset="1" stop-color="#dae6e7"/></linearGradient><path d="M523.7 37.1v84.3h-34.3l3.4 4.7c1.7 2.3 2.6 5.1 2.5 8 0 7.4-6.1 13.2-13.8 13.2s-13.8-5.8-13.8-13.2c0-2.9.9-5.7 2.5-8l3.4-4.7h-34.3v-33l-4.6 2.8c-6.5 3.9-15 1.8-18.9-4.7-3.9-6.5-1.8-15 4.7-18.9 4.4-2.6 9.9-2.6 14.3 0l4.6 2.7V37.1h84.3m3-3h-90.4v30.8c-7.9-4.8-18.3-2.2-23.1 5.7s-2.2 18.3 5.7 23.1c5.3 3.2 12 3.2 17.3 0v30.8h31.5c-2 2.8-3.1 6.2-3.1 9.7 0 9.3 7.5 16.2 16.8 16.2s16.8-6.9 16.8-16.2c0-3.5-1.1-6.9-3.1-9.7h31.5l.1-90.4z" fill="url(#SVGID_2_)"/><linearGradient id="SVGID_3_" gradientUnits="userSpaceOnUse" x1="210.54" y1="428.989" x2="210.54" y2="545.87" gradientTransform="matrix(1 0 0 -1 0 580)"><stop offset="0" stop-color="#1c4189"/><stop offset=".44" stop-color="#768fb6"/><stop offset=".82" stop-color="#beced9"/><stop offset="1" stop-color="#dae6e7"/></linearGradient><path d="M252.7 37.1v23.2c-1.8-.6-3.7-.8-5.6-.8-10.9 0-19.8 8.9-19.8 19.8s8.9 19.8 19.8 19.8c1.9 0 3.8-.3 5.6-.8v23.2h-34.3l3.4 4.7c1.7 2.3 2.6 5.1 2.5 8-.2 7.6-6.5 13.6-14.2 13.4-7.3-.2-13.2-6.1-13.4-13.4 0-2.9.9-5.7 2.5-8l3.4-4.7h-34.3V37.1h84.4m3-3h-90.4v90.4h31.5c-5.4 7.6-3.6 18.1 4 23.4 7.6 5.4 18.1 3.6 23.4-4 4.1-5.8 4.1-13.6 0-19.4h31.5V93.7c-7.9 4.8-18.3 2.2-23.1-5.7-4.8-7.9-2.2-18.3 5.7-23.1 5.3-3.2 12-3.2 17.3 0V34.1h.1z" fill="url(#SVGID_3_)"/><linearGradient id="SVGID_4_" gradientUnits="userSpaceOnUse" x1="468.264" y1="185" x2="468.264" y2="275.35" gradientTransform="matrix(1 0 0 -1 0 580)"><stop offset="0" stop-color="#1c4189"/><stop offset=".44" stop-color="#768fb6"/><stop offset=".82" stop-color="#beced9"/><stop offset="1" stop-color="#dae6e7"/></linearGradient><path d="M523.7 307.6V392h-84.4v-34.3l-4.7 3.4c-2.3 1.7-5.1 2.5-8 2.5-7.6 0-13.8-6.1-13.8-13.8S419 336 426.6 336c2.9 0 5.7.9 8 2.5l4.7 3.4v-34.3h23.2c-.6 1.8-.8 3.7-.8 5.6 0 10.9 8.8 19.8 19.8 19.9s19.8-8.8 19.9-19.8c0-1.9-.3-3.9-.8-5.7h23.1m3-3h-30.8c4.8 7.9 2.2 18.3-5.7 23.1s-18.3 2.2-23.1-5.7c-3.2-5.3-3.2-12 0-17.3h-30.8v31.5c-7.6-5.4-18.1-3.6-23.4 4s-3.6 18.1 4 23.4c5.8 4.1 13.6 4.1 19.4 0V395h90.4v-90.4z" fill="url(#SVGID_4_)"/><linearGradient id="SVGID_5_" gradientUnits="userSpaceOnUse" x1="391.195" y1="455.51" x2="391.195" y2="545.87" gradientTransform="matrix(1 0 0 -1 0 580)"><stop offset="0" stop-color="#1c4189"/><stop offset=".44" stop-color="#768fb6"/><stop offset=".82" stop-color="#beced9"/><stop offset="1" stop-color="#dae6e7"/></linearGradient><path d="M433.3 37.1v23.2c-1.8-.5-3.7-.8-5.6-.8-10.9 0-19.8 8.9-19.8 19.8s8.9 19.8 19.8 19.8c1.9 0 3.8-.3 5.6-.8v23.2h-23c.4-1.7.7-3.4.7-5.1.2-10.9-8.4-20-19.4-20.2-10.9-.2-20 8.4-20.2 19.4v.9c0 1.7.2 3.4.7 5.1h-23V98.1c10.4 3.4 21.6-2.2 25-12.6s-2.2-21.6-12.6-25c-4-1.3-8.4-1.3-12.4 0V37.1h84.2m3-3h-90.2v31.1c7.8-5.1 18.2-2.9 23.3 4.9 5.1 7.8 2.9 18.2-4.9 23.3-5.6 3.6-12.8 3.6-18.4 0v31.1h30.4c-1.4-2.5-2.1-5.2-2.1-8.1 0-9.3 7.5-16.8 16.8-16.8s16.8 7.5 16.8 16.8c0 2.8-.7 5.6-2.1 8.1h30.4V93.7c-8 4.8-18.3 2.2-23-5.8s-2.2-18.3 5.8-23c5.3-3.2 12-3.2 17.3 0l-.1-30.8z" fill="url(#SVGID_5_)"/><linearGradient id="SVGID_6_" gradientUnits="userSpaceOnUse" x1="468.277" y1="365.33" x2="468.277" y2="455.57" gradientTransform="matrix(1 0 0 -1 0 580)"><stop offset="0" stop-color="#1c4189"/><stop offset=".44" stop-color="#768fb6"/><stop offset=".82" stop-color="#beced9"/><stop offset="1" stop-color="#dae6e7"/></linearGradient><path d="M523.7 127.4v84.2h-23.2c.5-1.8.8-3.7.8-5.6 0-10.9-8.9-19.8-19.8-19.8s-19.8 8.9-19.8 19.8c0 1.9.3 3.8.8 5.6h-23.2v-34.1l-4.7 3.3c-6.2 4.4-14.8 2.9-19.2-3.4-4.4-6.2-2.9-14.8 3.4-19.2 4.8-3.3 11.1-3.3 15.8 0l4.7 3.3v-34.1h23.4c-3.4 10.4 2.2 21.6 12.6 25 10.4 3.4 21.6-2.2 25-12.6 1.3-4 1.3-8.4 0-12.4h23.4m3-3h-31.1c5.1 7.8 2.9 18.2-4.9 23.3-7.8 5.1-18.2 2.9-23.3-4.9-3.6-5.6-3.6-12.8 0-18.4h-31.1v31.3c-7.6-5.3-18.1-3.5-23.4 4.1-5.3 7.6-3.5 18.1 4.1 23.4 5.8 4 13.5 4 19.2 0v31.4H467c-4.8-8-2.2-18.3 5.8-23 8-4.8 18.3-2.2 23 5.8 3.2 5.3 3.2 12 0 17.3h30.8v-90.3h.1z" fill="url(#SVGID_6_)"/><linearGradient id="SVGID_7_" gradientUnits="userSpaceOnUse" x1="391.195" y1="185" x2="391.195" y2="301.8" gradientTransform="matrix(1 0 0 -1 0 580)"><stop offset="0" stop-color="#1c4189"/><stop offset=".44" stop-color="#768fb6"/><stop offset=".82" stop-color="#beced9"/><stop offset="1" stop-color="#dae6e7"/></linearGradient><path d="M391.2 281.2c7.6 0 13.8 6.2 13.8 13.8 0 2.8-.9 5.6-2.5 7.9l-3.3 4.7h34.1V331c-10.4-3.4-21.6 2.3-25 12.7-3.4 10.4 2.3 21.6 12.7 25 4 1.3 8.3 1.3 12.3 0V392h-84.2v-23.2c1.8.5 3.7.8 5.6.8 10.9-.2 19.6-9.3 19.4-20.3-.2-10.6-8.8-19.1-19.4-19.4-1.9 0-3.8.3-5.6.8v-23.2h34.1l-3.3-4.7c-1.6-2.3-2.5-5.1-2.5-7.9 0-7.5 6.2-13.7 13.8-13.7m0-3c-9.3 0-16.8 7.5-16.8 16.8 0 3.4 1.1 6.8 3 9.6H346v30.8c8-4.8 18.3-2.2 23 5.8 4.8 8 2.2 18.3-5.8 23-5.3 3.2-12 3.2-17.3 0V395h90.2v-31.1c-7.8 5.1-18.2 2.9-23.3-4.9-5.1-7.8-2.9-18.2 4.9-23.3 5.6-3.6 12.8-3.6 18.4 0v-31.1H405c5.3-7.6 3.5-18.1-4.1-23.4-2.8-1.9-6.2-3-9.7-3z" fill="url(#SVGID_7_)"/><linearGradient id="SVGID_8_" gradientUnits="userSpaceOnUse" x1="378.148" y1="365.53" x2="378.148" y2="480.37" gradientTransform="matrix(1 0 0 -1 0 580)"><stop offset="0" stop-color="#1c4189"/><stop offset=".44" stop-color="#768fb6"/><stop offset=".82" stop-color="#beced9"/><stop offset="1" stop-color="#dae6e7"/></linearGradient><path d="M391.2 102.6c7.8 0 13.7 5.5 13.7 12.8 0 2.5-.7 5-2 7.1l-2.7 4.6h33.1v23.8c-2.1-.8-4.4-1.1-6.6-1.1-10.9 0-19.8 8.8-19.8 19.8 0 10.9 8.8 19.8 19.8 19.8 2.3 0 4.5-.4 6.6-1.1v23.1h-23.4c3.7-10.3-1.7-21.6-12-25.3-10.3-3.7-21.6 1.7-25.3 12-.8 2.1-1.1 4.4-1.1 6.6 0 2.3.4 4.5 1.1 6.6H349v-34.1l-4.7 3.4c-2.3 1.7-5.1 2.5-8 2.5-7.6-.2-13.6-6.5-13.4-14.2.2-7.3 6.1-13.2 13.4-13.4 2.8 0 5.6.9 8 2.5l4.7 3.4v-34.3h33.1l-2.7-4.6c-1.3-2.1-2-4.6-2-7.1 0-7.3 6-12.8 13.8-12.8m0-3c-9.3 0-16.9 6.6-16.9 15.8 0 3 .8 6 2.4 8.6H346v31.5c-2.8-2-6.2-3.1-9.7-3.1-9.3 0-16.4 7.5-16.4 16.8-.2 9.1 7 16.6 16.1 16.8h.3c3.5 0 6.9-1.1 9.7-3.1v31.5h.1v-.2h31.4c-5.3-7.6-3.5-18.1 4.1-23.4s18.1-3.5 23.4 4.1c4.1 5.8 4.1 13.5 0 19.3h31.4v-31c-7.6 5.3-18.1 3.5-23.4-4.1-5.3-7.6-3.5-18.1 4.1-23.4 5.8-4 13.5-4 19.2 0V124h-30.8c1.6-2.6 2.4-5.6 2.4-8.6 0-9.2-7.4-15.8-16.7-15.8z" fill="url(#SVGID_8_)"/><linearGradient id="SVGID_9_" gradientUnits="userSpaceOnUse" x1="391.195" y1="275.34" x2="391.195" y2="392.13" gradientTransform="matrix(1 0 0 -1 0 580)"><stop offset="0" stop-color="#1c4189"/><stop offset=".44" stop-color="#768fb6"/><stop offset=".82" stop-color="#beced9"/><stop offset="1" stop-color="#dae6e7"/></linearGradient><path d="M391.2 190.9c7.6 0 13.8 6.2 13.8 13.8 0 2.8-.9 5.6-2.5 7.9l-3.3 4.7h34.1v23.4c-10.4-3.4-21.6 2.3-25 12.7s2.3 21.6 12.7 25c4 1.3 8.3 1.3 12.3 0v23.4h-23.4c.8-2.1 1.1-4.4 1.1-6.6 0-10.9-8.8-19.8-19.8-19.8s-19.8 8.8-19.8 19.8c0 2.3.4 4.5 1.1 6.6h-23.4v-23.1c10.5 3.1 21.5-2.9 24.6-13.4 3.1-10.5-2.9-21.5-13.4-24.6-1.8-.5-3.7-.8-5.5-.8-1.9 0-3.8.3-5.6.8v-23.2h34.1l-3.3-4.7c-4.4-6.2-2.8-14.8 3.4-19.2 2.2-1.9 5-2.7 7.8-2.7m0-3c-9.3 0-16.8 7.5-16.8 16.8 0 3.4 1.1 6.8 3 9.6H346v30.8c8-4.8 18.3-2.2 23 5.8 4.8 8 2.2 18.3-5.8 23-5.3 3.2-12 3.2-17.3 0v30.8h31.4c-5.3-7.6-3.5-18.1 4.1-23.4s18.1-3.5 23.4 4.1c4.1 5.8 4.1 13.5 0 19.3h31.4v-31.1c-7.8 5.1-18.2 2.9-23.3-4.9-5.1-7.8-2.9-18.2 4.9-23.3 5.6-3.6 12.8-3.6 18.4 0v-31.1H405c5.3-7.6 3.5-18.1-4.1-23.4-2.8-2-6.2-3-9.7-3z" fill="url(#SVGID_9_)"/><linearGradient id="SVGID_10_" gradientUnits="userSpaceOnUse" x1="301.19" y1="339.094" x2="301.19" y2="482.29" gradientTransform="matrix(1 0 0 -1 0 580)"><stop offset="0" stop-color="#1c4189"/><stop offset=".44" stop-color="#768fb6"/><stop offset=".82" stop-color="#beced9"/><stop offset="1" stop-color="#dae6e7"/></linearGradient><path d="M301.2 100.7c7.6 0 13.8 6.2 13.8 13.8 0 2.8-.9 5.6-2.5 7.9l-3.3 4.7h34.1l-.3 23.5c-1.9-.7-3.9-1.1-5.9-1.1-10.9.2-19.6 9.3-19.4 20.3.2 10.6 8.8 19.1 19.4 19.4 2 0 4-.4 5.8-1.1l.3 23.5h-34.1l3.3 4.7c4.4 6.2 2.9 14.8-3.4 19.2-6.2 4.4-14.8 2.9-19.2-3.4-3.3-4.8-3.3-11.1 0-15.8l3.3-4.7H259v-23.2c1.8.5 3.7.8 5.6.8 10.9-.2 19.6-9.3 19.4-20.3-.2-10.6-8.8-19.1-19.4-19.4-1.9 0-3.8.3-5.6.8v-23.2h34.1l-3.3-4.7c-1.6-2.3-2.5-5.1-2.5-7.9.1-7.6 6.3-13.8 13.9-13.8m0-3c-9.3 0-16.8 7.5-16.8 16.8 0 3.4 1.1 6.8 3 9.6H256v30.8c8-4.8 18.3-2.2 23 5.8s2.2 18.3-5.8 23c-5.3 3.2-12 3.2-17.3 0v30.8h31.4c-5.3 7.6-3.5 18.1 4.1 23.4 7.6 5.3 18.1 3.5 23.4-4.1 4-5.8 4-13.5 0-19.2h31.3L346 183c-2.6 1.7-5.5 3.1-8.8 3.1-9.3 0-16.8-7.5-16.8-16.8s7.5-16.8 16.8-16.8c3.2.1 6.3 1.2 8.8 3.1l.3-31.4h-31.4c5.3-7.6 3.5-18.1-4.1-23.4-2.8-2-6.2-3.1-9.6-3.1z" fill="url(#SVGID_10_)"/><linearGradient id="SVGID_11_" gradientUnits="userSpaceOnUse" x1="301.155" y1="455.51" x2="301.155" y2="545.87" gradientTransform="matrix(1 0 0 -1 0 580)"><stop offset="0" stop-color="#1c4189"/><stop offset=".44" stop-color="#768fb6"/><stop offset=".82" stop-color="#beced9"/><stop offset="1" stop-color="#dae6e7"/></linearGradient><path d="M343.1 37.1v33.7l4.6-3c2.2-1.5 4.8-2.2 7.5-2.2 7.6 0 13.8 6.1 13.8 13.8 0 7.6-6.1 13.8-13.8 13.8-2.7 0-5.4-.8-7.6-2.3l-4.6-3v33.3h-23.2c.8-2.1 1.1-4.4 1.1-6.6 0-10.9-8.8-19.8-19.8-19.8-10.9 0-19.8 8.8-19.8 19.8 0 2.3.4 4.5 1.1 6.6h-23.8V88.4l-4.6 2.8c-6.5 3.9-15 1.8-18.9-4.7-3.9-6.5-1.8-15 4.7-18.9 4.4-2.6 9.9-2.6 14.3 0l4.6 2.7V37.1h84.4m3-3h-90.4v30.8c-7.9-4.8-18.3-2.2-23.1 5.7-4.8 7.9-2.2 18.3 5.7 23.1 5.3 3.2 12 3.2 17.3 0v30.8h.3v-.4h31.4c-5.3-7.6-3.5-18.1 4.1-23.4 7.6-5.3 18.1-3.5 23.4 4.1 4 5.8 4 13.5 0 19.2h31.1V93.4c7.8 5.1 18.2 2.9 23.3-4.9 5.1-7.8 2.9-18.2-4.9-23.3-5.6-3.6-12.8-3.6-18.4 0V34.1h.2z" fill="url(#SVGID_11_)"/><linearGradient id="SVGID_12_" gradientUnits="userSpaceOnUse" x1="300.785" y1="185" x2="300.785" y2="275" gradientTransform="matrix(1 0 0 -1 0 580)"><stop offset="0" stop-color="#1c4189"/><stop offset=".44" stop-color="#768fb6"/><stop offset=".82" stop-color="#beced9"/><stop offset="1" stop-color="#dae6e7"/></linearGradient><path d="M343.2 308v32.7l4.5-2.7c6.5-3.9 15-1.8 18.9 4.7s1.8 15-4.7 18.9c-4.4 2.6-9.9 2.6-14.3 0l-4.5-2.7V392h-84.4v-33.6l-4.6 3c-6.4 4.2-14.9 2.4-19.1-4-4.2-6.4-2.4-14.9 4-19.1 4.6-3 10.5-3 15.1 0l4.6 3V308h23.2c-3.7 10.3 1.7 21.6 12 25.3 10.3 3.7 21.6-1.7 25.3-12 .8-2.1 1.1-4.4 1.1-6.6 0-2.2-.4-4.5-1.1-6.6h24m3-3.1h-31.7c5.3 7.6 3.4 18.1-4.2 23.4-7.6 5.3-18.1 3.4-23.4-4.2-4-5.8-4-13.5 0-19.2h-31.1v30.7c-7.8-5.1-18.2-2.9-23.3 4.9-5.1 7.8-2.9 18.2 4.9 23.3 5.6 3.6 12.8 3.6 18.4 0V395h90.4v-30.8c7.9 4.8 18.3 2.2 23.1-5.7s2.2-18.3-5.7-23.1c-5.3-3.2-12-3.2-17.3 0V305z" fill="url(#SVGID_12_)"/><linearGradient id="SVGID_13_" gradientUnits="userSpaceOnUse" x1="223.41" y1="365.33" x2="223.41" y2="455.57" gradientTransform="matrix(1 0 0 -1 0 580)"><stop offset="0" stop-color="#1c4189"/><stop offset=".44" stop-color="#768fb6"/><stop offset=".82" stop-color="#beced9"/><stop offset="1" stop-color="#dae6e7"/></linearGradient><path d="M252.7 127.4v34.1l4.7-3.3c2.3-1.6 5.1-2.5 7.9-2.5 7.5 0 13.1 5.8 13.1 13.6s-5.8 14-13.1 14c-2.8 0-5.6-.9-7.9-2.5l-4.7-3.3v34.1h-23.2c.5-1.8.8-3.7.8-5.6 0-10.9-8.9-19.8-19.8-19.8s-19.8 8.9-19.8 19.8c0 1.9.3 3.8.8 5.6h-23.2v-84.2h23.4c-3.4 10.4 2.2 21.6 12.6 25 10.4 3.4 21.6-2.2 25-12.6 1.3-4 1.3-8.4 0-12.4h23.4m3-3h-31.1c5.1 7.8 2.9 18.2-4.9 23.3-7.8 5.1-18.2 2.9-23.3-4.9-3.6-5.6-3.6-12.8 0-18.4h-31.1v90.2h30.8c-4.8-8-2.2-18.3 5.8-23 8-4.8 18.3-2.2 23 5.8 3.2 5.3 3.2 12 0 17.3h30.8v-31.4c2.8 2 6.2 3 9.6 3 9.3 0 16.1-7.8 16.1-17s-6.9-16.6-16.1-16.6c-3.4 0-6.8 1-9.6 3v-31.3z" fill="url(#SVGID_13_)"/><linearGradient id="SVGID_14_" gradientUnits="userSpaceOnUse" x1="300.981" y1="248.706" x2="300.981" y2="365.54" gradientTransform="matrix(1 0 0 -1 0 580)"><stop offset="0" stop-color="#1c4189"/><stop offset=".44" stop-color="#768fb6"/><stop offset=".82" stop-color="#beced9"/><stop offset="1" stop-color="#dae6e7"/></linearGradient><path d="M343.4 217.5v33.6l4.6-3c2.2-1.5 4.8-2.2 7.5-2.2 7.4 0 12.9 6 12.9 14s-5.4 13.5-12.9 13.5c-2.7 0-5.3-.8-7.5-2.3l-4.6-3v33.7h-34.3l3.4 4.7c1.7 2.3 2.5 5.1 2.5 8-.2 7.6-6.5 13.6-14.2 13.4-7.3-.2-13.2-6.1-13.4-13.4 0-2.8.9-5.6 2.5-8l3.4-4.7H259v-33.1l-4.6 2.7c-6.5 3.9-15 1.8-18.9-4.7-3.9-6.5-1.8-15 4.7-18.9 4.4-2.6 9.9-2.6 14.3 0l4.6 2.7v-33.1h23.5c-3.7 10.3 1.7 21.6 12 25.3 10.3 3.7 21.6-1.7 25.3-12 .8-2.1 1.1-4.4 1.1-6.6 0-2.2-.4-4.5-1.1-6.6h23.5m3-3H315c5.3 7.6 3.5 18.1-4.1 23.4-7.6 5.3-18.1 3.5-23.4-4.1-4-5.8-4-13.5 0-19.2H256v30.8c-7.9-4.8-18.3-2.3-23.1 5.6-4.8 7.9-2.3 18.3 5.6 23.1 5.4 3.3 12.1 3.3 17.4 0v30.8h31.5c-5.4 7.6-3.6 18.1 4 23.4s18.1 3.6 23.4-4c4.1-5.8 4.1-13.6 0-19.4h31.5v-31.1c2.7 1.8 5.9 2.7 9.2 2.7 9.3 0 15.9-7.3 15.9-16.5s-6.6-17-15.9-17c-3.3 0-6.4.9-9.2 2.7l.1-31.2z" fill="url(#SVGID_14_)"/></g><path class="st32" d="M498.3 313.9c0-3.3-.9-6.4-2.7-9.2h31.1v-90.4h-30.8c4.8-7.9 2.2-18.3-5.7-23.1-7.9-4.8-18.3-2.2-23.1 5.7-3.2 5.3-3.2 12 0 17.3h-30.8v31.5c-7.6-5.4-18.1-3.6-23.4 4-5.4 7.6-3.6 18.1 4 23.4 5.8 4.1 13.6 4.1 19.4 0v31.5h31.1c-1.8 2.7-2.7 5.9-2.7 9.2 0 9.3 7.5 16.2 16.8 16.2s16.8-6.9 16.8-16.1zM526.7 34.1h-90.4v30.8c-7.9-4.8-18.3-2.2-23.1 5.7s-2.2 18.3 5.7 23.1c5.3 3.2 12 3.2 17.3 0v30.8h31.5c-2 2.8-3.1 6.2-3.1 9.7 0 9.3 7.5 16.2 16.8 16.2s16.8-6.9 16.8-16.2c0-3.5-1.1-6.9-3.1-9.7h31.5l.1-90.4zM247.1 62.5c3 0 6 .8 8.6 2.4V34.1h-90.4v90.4h31.5c-5.4 7.6-3.6 18.1 4 23.4 7.6 5.4 18.1 3.6 23.4-4 4.1-5.8 4.1-13.6 0-19.4h31.5V93.7c-8 4.8-18.3 2.2-23-5.8-4.8-8-2.2-18.3 5.8-23 2.6-1.6 5.5-2.4 8.6-2.4z"/><path class="st32" d="M498.3 313.3c0-3-.8-6-2.4-8.6h30.8V395h-90.4v-31.5c-7.6 5.4-18.1 3.6-23.4-4s-3.6-18.1 4-23.4c5.8-4.1 13.6-4.1 19.4 0v-31.5h30.8c-4.8 8-2.2 18.3 5.8 23 8 4.8 18.3 2.2 23-5.8 1.6-2.5 2.4-5.5 2.4-8.5zM427.7 62.5c3 0 6 .8 8.6 2.4V34.1h-90.2v31.1c7.8-5.1 18.2-2.9 23.3 4.9 5.1 7.8 2.9 18.2-4.9 23.3-5.6 3.6-12.8 3.6-18.4 0v31.1h30.4c-1.4-2.5-2.1-5.2-2.1-8.1 0-9.3 7.5-16.8 16.8-16.8s16.8 7.5 16.8 16.8c0 2.8-.7 5.6-2.1 8.1h30.4V93.7c-8 4.7-18.3 2.1-23-5.8s-2.1-18.3 5.8-23c2.6-1.6 5.6-2.4 8.6-2.4z"/><path class="st32" d="M495.6 124.4c5.1 7.8 2.9 18.2-4.9 23.3-7.8 5.1-18.2 2.9-23.3-4.9-3.6-5.6-3.6-12.8 0-18.4h-31.1v31.3c-7.6-5.3-18.1-3.5-23.4 4.1-5.3 7.6-3.5 18.1 4.1 23.4 5.8 4 13.5 4 19.2 0v31.4H467c-4.8-8-2.2-18.3 5.8-23 8-4.8 18.3-2.2 23 5.8 3.2 5.3 3.2 12 0 17.3h30.8v-90.2h-31zM436.3 363.9c-7.8 5.1-18.2 2.9-23.3-4.9-5.1-7.8-2.9-18.2 4.9-23.3 5.6-3.6 12.8-3.6 18.4 0v-31.1H405c5.3-7.6 3.5-18.1-4.1-23.4-7.6-5.3-18.1-3.5-23.4 4.1-4 5.8-4 13.5 0 19.2h-31.4v30.8c8-4.8 18.3-2.2 23 5.8 4.8 8 2.2 18.3-5.8 23-5.3 3.2-12 3.2-17.3 0V395h90.2v-31.1z"/><path class="st32" d="M405.5 124.1c1.6-2.6 2.4-5.6 2.4-8.6 0-9.3-7.5-15.8-16.7-15.8s-16.9 6.6-16.9 15.8c0 3 .8 6 2.4 8.6H346v31.5c-2.8-2-6.2-3.1-9.7-3.1-9.3 0-16.4 7.5-16.4 16.8-.2 9.1 7 16.6 16.1 16.8h.3c3.5 0 6.9-1.1 9.7-3.1v31.5h.1v-.2h31.4c-5.3-7.6-3.5-18.1 4.1-23.4s18.1-3.5 23.4 4.1c4.1 5.8 4.1 13.5 0 19.3h31.4v-31c-7.6 5.3-18.1 3.5-23.4-4.1-5.3-7.6-3.5-18.1 4.1-23.4 5.8-4 13.5-4 19.2 0v-31.7h-30.8z"/><path class="st32" d="M427.1 242.7c3.3 0 6.4.9 9.2 2.7v-31.1H405c5.3-7.6 3.5-18.1-4.1-23.4-7.6-5.3-18.1-3.5-23.4 4.1-4 5.8-4 13.5 0 19.3h-31.4v30.8c8-4.8 18.3-2.2 23 5.8 4.8 8 2.2 18.3-5.8 23-5.3 3.2-12 3.2-17.3 0v30.8h31.4c-5.3-7.6-3.5-18.1 4.1-23.4s18.1-3.5 23.4 4.1c4.1 5.8 4.1 13.5 0 19.3h31.4v-31.1c-7.8 5.1-18.2 2.9-23.3-4.9-5.1-7.8-2.9-18.2 4.9-23.3a17 17 0 0 1 9.2-2.7z"/><path class="st32" d="M314.9 124.1c5.3-7.6 3.5-18.1-4.1-23.4-7.6-5.3-18.1-3.5-23.4 4.1-4 5.8-4 13.5 0 19.2H256v30.8c8-4.8 18.3-2.2 23 5.8s2.2 18.3-5.8 23c-5.3 3.2-12 3.2-17.3 0v30.8h31.4c-5.3 7.6-3.5 18.1 4.1 23.4 7.6 5.3 18.1 3.5 23.4-4.1 4-5.8 4-13.5 0-19.2h31.3L346 183c-2.6 1.7-5.5 3.1-8.8 3.1-9.3 0-16.8-7.5-16.8-16.8s7.5-16.8 16.8-16.8c3.2.1 6.3 1.2 8.8 3.1l.3-31.4-31.4-.1z"/><path class="st32" d="M355.3 62.5c-3.3 0-6.4.9-9.2 2.7V34.1h-90.4v30.8c-7.9-4.8-18.3-2.2-23.1 5.7-4.8 7.9-2.2 18.3 5.7 23.1 5.3 3.2 12 3.2 17.3 0v30.8h.3v-.4h31.4c-5.3-7.6-3.5-18.1 4.1-23.4 7.6-5.3 18.1-3.5 23.4 4.1 4 5.8 4 13.5 0 19.2h31.1V93.4c7.8 5.1 18.2 2.9 23.3-4.9 5.1-7.8 2.9-18.2-4.9-23.3-2.6-1.7-5.8-2.7-9-2.7zM246.7 366.6c3.3 0 6.4-.9 9.2-2.7V395h90.4v-30.8c7.9 4.8 18.3 2.2 23.1-5.7s2.2-18.3-5.7-23.1c-5.3-3.2-12-3.2-17.3 0V305h-31.7c5.3 7.6 3.4 18.1-4.2 23.4-7.6 5.3-18.1 3.4-23.4-4.2-4-5.8-4-13.5 0-19.2H256v30.7c-7.8-5.1-18.2-2.9-23.3 4.9-5.1 7.8-2.9 18.2 4.9 23.3 2.6 1.8 5.8 2.7 9.1 2.7z"/><path class="st32" d="M196.5 124.4c-5.1 7.8-2.9 18.2 4.9 23.3 7.8 5.1 18.2 2.9 23.3-4.9 3.6-5.6 3.6-12.8 0-18.4h31.1v31.3c2.8-2 6.2-3 9.6-3 9.3 0 16.1 7.3 16.1 16.6s-6.9 17-16.1 17c-3.4 0-6.8-1-9.6-3v31.4H225c4.8-8 2.2-18.3-5.8-23-8-4.8-18.3-2.2-23 5.8-3.2 5.3-3.2 12 0 17.3h-30.8v-90.3h31.1zM355.5 242.8c-3.3 0-6.4.9-9.2 2.7v-31.1H314.9c5.3 7.6 3.5 18.1-4.1 23.4-7.6 5.3-18.1 3.5-23.4-4.1-4-5.8-4-13.5 0-19.2H256v30.8c-7.9-4.8-18.3-2.3-23.1 5.6-4.8 7.9-2.3 18.3 5.6 23.1 5.3 3.2 12 3.3 17.4 0v30.8h31.5c-5.4 7.6-3.6 18.1 4 23.4s18.1 3.6 23.4-4c4.1-5.8 4.1-13.6 0-19.4h31.5v-31.1c2.7 1.8 5.9 2.7 9.2 2.7 9.3 0 15.9-7.3 15.9-16.5s-6.6-17.1-15.9-17.1z"/><path class="st33" d="M314.9 124.1c5.3-7.6 3.5-18.1-4.1-23.4-7.6-5.3-18.1-3.5-23.4 4.1-4 5.8-4 13.5 0 19.2H256v30.8c8-4.8 18.3-2.2 23 5.8s2.2 18.3-5.8 23c-5.3 3.2-12 3.2-17.3 0v30.8h31.4c-5.3 7.6-3.5 18.1 4.1 23.4 7.6 5.3 18.1 3.5 23.4-4.1 4-5.8 4-13.5 0-19.2h31.3L346 183c-2.6 1.7-5.5 3.1-8.8 3.1-9.3 0-16.8-7.5-16.8-16.8s7.5-16.8 16.8-16.8c3.2.1 6.3 1.2 8.8 3.1l.3-31.4-31.4-.1zM436.3 363.9c-7.8 5.1-18.2 2.9-23.3-4.9-5.1-7.8-2.9-18.2 4.9-23.3 5.6-3.6 12.8-3.6 18.4 0v-31.1H405c5.3-7.6 3.5-18.1-4.1-23.4-7.6-5.3-18.1-3.5-23.4 4.1-4 5.8-4 13.5 0 19.2h-31.4v30.8c8-4.8 18.3-2.2 23 5.8 4.8 8 2.2 18.3-5.8 23-5.3 3.2-12 3.2-17.3 0V395h90.2v-31.1z"/><ellipse transform="rotate(-1.331 459.834 525.78) scale(.99997)" class="st2" cx="459.9" cy="525.8" rx="29.3" ry="6.2"/><path class="st34" d="M437.4 500.8s-10.5 9.2-19.2-8.3l16.9 2.3 2.3 6z"/><path class="st35" d="M431 504.9c-.8 0-1.6 0-2.4-.2-4.6-.9-8.7-4.8-12-11.4-.4-.8-.1-1.9.8-2.3.3-.2.7-.2 1-.2l16.9 2.3c.6.1 1.1.5 1.4 1.1l2.3 6c.3.7.1 1.4-.5 1.9-2.2 1.7-4.8 2.7-7.5 2.8zm-9.7-10.3c2.4 3.9 5.1 6.1 8 6.7 2.1.3 4.2-.1 6-1.2l-1.5-3.8-12.5-1.7z"/><ellipse transform="rotate(-1.331 459.273 512.488) scale(.99997)" class="st34" cx="459.3" cy="512.5" rx="16.7" ry="9.4"/><path class="st35" d="M459.6 523.6c-10.3.2-18.5-4.5-18.7-10.7s7.8-11.3 18.2-11.5 18.5 4.5 18.7 10.7-7.9 11.3-18.2 11.5zm-.5-18.8c-8.1.2-14.9 3.9-14.8 8.1.1 4.2 7.1 7.6 15.2 7.4s14.9-3.9 14.8-8.1-7-7.6-15.2-7.4z"/><path class="st34" d="M485 507.2s13.8 2.1 11.7-17.3l-13 11 1.3 6.3z"/><path class="st35" d="M486.4 509c-.6 0-1.1 0-1.7-.1-.7-.1-1.3-.6-1.4-1.3l-1.3-6.3c-.1-.6.1-1.2.6-1.6l13-11c.7-.6 1.8-.5 2.4.2.2.3.4.6.4.9.8 7.4-.6 12.8-4 16.1-2.2 1.9-5.1 3.1-8 3.1zm-.9-7.4l.8 4c2.1 0 4.2-.8 5.7-2.2 2.1-2 3.2-5.4 3.1-9.9l-9.6 8.1z"/><path class="st34" d="M483.2 508.3c-15.7-5.4-9.7-26.6 9.4-25.1 0 0-6.3 7-4.6 13.9s-.5 12.6-4.8 11.2z"/><path class="st35" d="M484.6 510.2c-.7 0-1.4-.1-2-.3-8.5-2.9-11-10-9.9-15.7 1.4-6.8 8.3-13.7 20-12.7.6.1 1.2.5 1.5 1.1.2.6.1 1.3-.3 1.8 0 .1-5.6 6.4-4.2 12.4 1.3 5.2.5 10-1.9 12.2-.9.7-2 1.1-3.2 1.2zm4.7-25.4c-7.7.5-12.2 5.3-13.2 10-1.1 5.2 1.9 9.8 7.6 11.8.6.3 1.3.2 1.8-.3 1.3-1.1 2-4.6.9-8.9-1.2-4.9 1-9.7 2.9-12.6z"/><path class="st36" d="M455.1 459.4c-3.7 5.5-11.1 7-16.6 3.4-5.5-3.7-7-11.1-3.4-16.6 2.7-4 7.5-6.1 12.3-5.2l-8.5-20.4-20.6 8.6c1.4-6.4-2.7-12.8-9.2-14.2-6.4-1.4-12.8 2.7-14.2 9.2-1.1 4.9 1.1 9.9 5.3 12.6l-20.6 8.6 8.5 20.2c3.9-5.3 11.4-6.5 16.7-2.6s6.5 11.4 2.6 16.7c-2.6 3.6-7 5.4-11.4 4.8l8.5 20.2 59.2-24.8-8.6-20.5z"/><path class="st13" d="M419.6 449.3c7.3-2.3 5-7.8 5-7.8l-5.3-12.7-1 .4c.2-.7.2-1.4.3-2.2l-3.8-9.1c-4.8-4.5-12.4-4.2-16.9.7-4.5 4.8-4.2 12.4.7 16.9.5.5 1.1.9 1.7 1.3l-7.4 3.1 26.7 9.4z"/><path class="st16" d="M419.3 428.7l5.1 12.1c.4.9.6 2 .5 3-.1 2-1.2 4.2-5.7 5.3l.4.2c2.2.9 4.6.7 6.6-.6l16.5-19-3.9-9.2-19.5 8.2z"/><path class="st36" d="M417.6 422c-.7-1.6-1.6-3-2.9-4.1l3.8 9.1c.1-1.7-.2-3.4-.9-5z"/><path class="st37" d="M455.1 459.4c-3.7 5.5-11.1 7-16.6 3.4-5.5-3.7-7-11.1-3.4-16.6 2.7-4 7.5-6.1 12.3-5.2l-8.5-20.4-20.6 8.6c1.4-6.4-2.7-12.8-9.2-14.2-6.4-1.4-12.8 2.7-14.2 9.2-1.1 4.9 1.1 9.9 5.3 12.6l-20.6 8.6 8.5 20.2c3.9-5.3 11.4-6.5 16.7-2.6s6.5 11.4 2.6 16.7c-2.6 3.6-7 5.4-11.4 4.8l8.5 20.2 59.2-24.8-8.6-20.5z"/><g class="st17"><linearGradient id="SVGID_15_" gradientUnits="userSpaceOnUse" x1="-6.195" y1="-216.359" x2="63.71" y2="-171.661" gradientTransform="scale(1 -1) rotate(80.107 378 -92.462)"><stop offset="0" stop-color="#1c4189"/><stop offset=".44" stop-color="#768fb6"/><stop offset=".82" stop-color="#beced9"/><stop offset="1" stop-color="#dae6e7"/></linearGradient><path d="M383.5 446.9l17.9-7.5 5.2-2.2-4.8-3c-4.2-2.7-5.4-8.2-2.8-12.4 1-1.6 2.4-2.8 4.1-3.5 4.6-1.9 9.9.2 11.8 4.8.7 1.6.9 3.3.6 5 0 .1 0 .3-.1.4l-1.2 5.5 5.2-2.2 17.9-7.5L443 438c-1.2.2-2.4.5-3.5 1-7.4 3.6-10.5 12.5-6.9 19.9 3.3 6.8 11.2 10 18.3 7.5 1.1-.5 2.2-1.1 3.1-1.8l5.7 13.6-53.8 22.5-5.7-13.5c1.1-.2 2.1-.5 3.1-.9 7.6-3.1 11.2-11.9 8.1-19.5-3.1-7.6-11.9-11.2-19.5-8.1-1 .4-2 1-2.9 1.6l-5.5-13.4m-3.8-1.6l8.5 20.2c3.9-5.3 11.4-6.4 16.7-2.5s6.4 11.4 2.5 16.7c-2.6 3.6-7 5.4-11.4 4.7l8.5 20.2 59.2-24.8-8.5-20.4c-3.7 5.5-11.1 7-16.6 3.4-5.5-3.7-7-11.1-3.4-16.6 2.7-4 7.5-6.1 12.3-5.1l-8.5-20.4-20.6 8.6c0-.2.1-.3.1-.5 1.1-6.5-3.3-12.7-9.7-13.8s-12.7 3.3-13.8 9.7c-.8 4.7 1.3 9.5 5.4 12.1l-20.7 8.5z" fill="url(#SVGID_15_)"/></g><path class="st34" d="M439.4 500.7c10.4-13-6.1-27.7-21.4-16.1 0 0 9 2.5 11.3 9.3s7.3 10.4 10.1 6.8z"/><path class="st35" d="M436.9 503.8c-.3 0-.7 0-1-.1-3.3-.6-6.5-4.2-8.2-9.3-2-5.8-10.1-8.1-10.2-8.2-.9-.3-1.4-1.2-1.2-2.1.1-.4.3-.7.6-.9 9.4-7.1 18.9-5 23.7 0 4.1 4.2 5.7 11.5.1 18.5-.9 1.3-2.3 2.1-3.8 2.1zm-15.2-19.6c3.1 1.5 7.6 4.3 9.2 9.1 1.4 4.2 3.9 6.7 5.5 7 .6.1 1.3-.2 1.6-.7 3.8-4.7 3.8-10.2.1-14-3.3-3.5-9.6-5.1-16.4-1.4z"/><path class="st39" d="M445.3 517.9c-1.4 1.5-2.4 3.4-3 5.3"/><path class="st35" d="M442.3 524.9c-.2 0-.4 0-.5-.1-.9-.3-1.4-1.2-1.2-2.1.7-2.2 1.8-4.3 3.4-6 .6-.7 1.7-.7 2.4-.1s.7 1.7.1 2.4c-1.2 1.3-2.1 2.9-2.6 4.7-.2.7-.8 1.2-1.6 1.2z"/><path class="st39" d="M449.6 497.3s2.5 3.4 2.6 6.8"/><path class="st35" d="M452.2 505.8c-.9 0-1.7-.7-1.7-1.6-.1-2.8-2.2-5.8-2.3-5.9-.5-.8-.2-1.9.7-2.3.7-.4 1.5-.2 2.1.3.1.2 2.8 3.9 2.9 7.8 0 .9-.8 1.7-1.7 1.7z"/><path class="st39" d="M468.6 496.6s-2.3 3.5-2.3 6.9"/><path class="st35" d="M466.4 505.2c-.9 0-1.7-.7-1.7-1.6-.1-3.9 2.5-7.8 2.5-7.9.6-.7 1.7-.9 2.4-.3.7.5.9 1.5.4 2.2 0 0-2 3.1-2 6 .1.8-.7 1.6-1.6 1.6z"/><path class="st39" d="M450.1 520.9c-.8 1.9-1.2 3.9-1.1 6"/><path class="st35" d="M449 528.6c-.9 0-1.7-.7-1.7-1.6-.1-2.3.3-4.7 1.2-6.8.4-.9 1.4-1.3 2.2-.9.9.4 1.3 1.4.9 2.2-.7 1.7-1 3.5-.9 5.3 0 1-.7 1.8-1.7 1.8.1 0 .1 0 0 0z"/><path class="st39" d="M474.2 517.2c1.5 1.5 2.6 3.2 3.3 5.2"/><path class="st35" d="M477.5 524.1c-.7 0-1.4-.4-1.6-1.1-.6-1.7-1.6-3.3-2.9-4.5-.7-.7-.7-1.7 0-2.4s1.7-.7 2.4 0c1.6 1.6 2.9 3.6 3.7 5.8.3.9-.2 1.9-1 2.2h-.6z"/><path class="st39" d="M469.6 520.4c.9 1.9 1.4 3.9 1.4 6"/><path class="st35" d="M471 528.1c-.9 0-1.7-.8-1.7-1.7 0-1.8-.4-3.6-1.2-5.2-.4-.8-.1-1.9.8-2.3.8-.4 1.9-.1 2.3.8 1 2.1 1.5 4.4 1.5 6.7 0 1-.7 1.7-1.7 1.7z"/><circle class="st40" cx="449.5" cy="497" r="2.9"/><circle class="st41" cx="448.7" cy="496.3" r=".8"/><path class="st42" d="M451.1 497.2c-.3-.2-.6-.1-.8.2-.2.3-.5.5-.9.5-.3 0-.6.2-.6.5s.2.6.5.6h.3c.7 0 1.3-.4 1.7-1 .2-.2.1-.6-.2-.8z"/><circle class="st40" cx="468.3" cy="496.8" r="2.9"/><circle class="st41" cx="467.6" cy="496" r=".8"/><path class="st42" d="M469.9 497c-.3-.1-.6 0-.8.2-.2.3-.5.5-.9.5-.3 0-.6.2-.6.5s.2.6.5.6h.3c.7 0 1.3-.4 1.7-1 .2-.2.1-.6-.2-.8.1 0 0 0 0 0z"/><path class="st35" d="M441.4 513.1c-3.4.1-5.8-.9-7.2-2.8-2.6-3.5-.6-8.5-.4-9.1.4-.9 1.4-1.2 2.3-.8.8.4 1.2 1.3.9 2.1-.4 1-1.3 4.1 0 5.8 1 1.4 3.5 1.5 5.4 1.3.9-.1 1.8.6 1.9 1.5.1.9-.6 1.8-1.5 1.9-.5 0-.9.1-1.4.1zM480.4 516c-1.8 0-3.6-.4-5.2-1.2-.8-.5-1.1-1.5-.7-2.3.4-.7 1.3-1.1 2.1-.8 1.1.5 3.8 1.4 5.1.5.9-.6 1-2 1-3.1 0-.9.8-1.7 1.8-1.6.8 0 1.5.7 1.6 1.5.1 2.9-.8 5-2.6 6.1-.8.6-1.9.9-3.1.9z"/><path class="st43" d="M84.8 401.9c1.1 5-.2 9.5-2.8 10.1s-5.7-3-6.7-8 .2-9.5 2.8-10.1 5.6 3 6.7 8zM82.1 367.7c1.7 8.1 0 15.4-3.8 16.2s-8.4-5.1-10.2-13.2 0-15.4 3.8-16.2 8.4 5 10.2 13.2zM52.9 356.1c8.8 24.2 5.7 47-2.6 50-5.7-7.7-10.7-15.2-13.7-22-10.5-17.2-16-37-16-57.2 0-3.1.1-6.2.3-9.2l.9.1c8.4-3 22.3 14.1 31.1 38.3z"/><path d="M260 357.4c-.4 1.5-.8 3.1-1.2 4.7-5.3 19.4-13.7 44.6-26.4 68.9-28.7 54.5-79.3 104.2-165.4 72.3.9.1 59.3 5 69.4-47.6 4.2-27.7 8-36.7 8-36.7v-.4c17.1 2.1 36.3-3.7 46-28.4 6.8-17.3 7.1-32.1 4.8-43.7-.1 0 48.6-26.3 64.8 10.9z" fill="#b8c3ec"/><path class="st45" d="M258.8 362.1s23.5 19.7 21.2 72c0 0-32.2 9.1-47.7-3.1 12.8-24.2 21.2-49.5 26.5-68.9zM52.9 356.1c-8.8-24.2-22.8-41.3-31.1-38.3l-.9-.1c3.7-51.7 38.8-94.9 89.5-108.1l-1.7 4.8c-.3.9 0 1.9.8 2.5 6.8 4.6 14.5 7.6 22.6 8.8 7.9 1.2 16 .3 23.4-2.7.7-.4 1.2-1.1 1.1-1.9l-.7-13.4-.1-2.3c51.7 2.8 59.6 34.7 98.7 86.6 8 10.4 12.1 23.3 11.7 36.4-.3 8.1-2 16-4.9 23.5-.4 1.8-.9 3.6-1.4 5.5-16.1-37.2-64.9-10.9-64.9-10.9 2.3 11.6 2 26.4-4.8 43.7-9.7 24.6-28.9 30.4-46 28.4v.4s-3.8 9-8 36.7c-10.2 52.6-68.5 47.7-69.4 47.6-3.3-1.2-6.7-2.6-10.1-4.1-5.1-2.2 8 49.3-50.8 52.3 0 0-22-42.1 31.5-60.6 0 0-44-.8-26.9-65.9 0 0 54.5 9.5 47 57.6 0 0 25.4 9.1 27.7-14.4.1-.7.1-1.3.1-2 0-17-19.8-39.5-34.9-60 8.3-3.1 11.4-25.9 2.5-50.1zm61.9-62.5c-5.4 0-9.7 4.4-9.7 9.7 0 5.4 4.4 9.7 9.7 9.7 5.4 0 9.7-4.4 9.7-9.7s-4.4-9.7-9.7-9.7zm99-19.1c0-5.4-4.3-9.7-9.7-9.7-5.4 0-9.7 4.3-9.7 9.7 0 5.4 4.3 9.7 9.7 9.7 5.3 0 9.6-4.3 9.7-9.7zM81.9 412c2.7-.6 3.9-5.1 2.8-10.1s-4.1-8.6-6.7-8-3.9 5.1-2.8 10.1 4.1 8.5 6.7 8zm-3.7-28.1c3.9-.8 5.6-8.1 3.8-16.2s-6.3-14.1-10.2-13.3-5.6 8.1-3.8 16.2 6.3 14.1 10.2 13.3z"/><path class="st46" d="M209.7 272.1c1.1 0 2 .9 2 2 0 4.4-3.6 8-8 8-1.1 0-2-.9-2-2s.9-2 2-2c2.2 0 4-1.8 4-4 0-1.1.9-2 2-2z"/><circle class="st47" cx="200.3" cy="271.4" r="3.4"/><path class="st48" d="M211.7 274.1c0-1.1-.9-2-2-2s-2 .9-2 2c0 2.2-1.8 4-4 4-1.1 0-2 .9-2 2s.9 2 2 2c4.4 0 8-3.6 8-8zm-7.7-9.3c5.4 0 9.7 4.3 9.7 9.7s-4.3 9.7-9.7 9.7c-5.4 0-9.7-4.3-9.7-9.7 0-5.3 4.3-9.7 9.7-9.7zm-3.7 3.2c-1.9 0-3.4 1.5-3.4 3.4s1.5 3.4 3.4 3.4 3.4-1.5 3.4-3.4-1.5-3.4-3.4-3.4z"/><path class="st49" d="M154.9 186.8l1 18.5-1.9-.1-.9-17.1c.4-.4.8-.8 1.2-1.3h.6z"/><path class="st49" d="M154.3 186.9c-.4.4-.8.9-1.2 1.3l-.1-2.7 1.3 1.4zM154 205.3l1.9.1.1 2.3c-.6-.2-1.3-.4-1.9-.6l-.1-1.8zM153.8 164.9l1.1 21.9h-.6l-1.3-1.4-1-19.6c.4-.3.7-.6 1.1-.9h.7z"/><path class="st49" d="M153.1 188.1l.9 17.1-1.9-.1-.8-15.5c.6-.3 1.2-.9 1.8-1.5zM153 165c-.4.3-.7.6-1.1.9l-.1-2.5 1.2 1.6z"/><path class="st49" d="M152.4 138.2l1.4 26.8h-.8l-1.2-1.6-1.3-24.2c.4-.3.8-.6 1.1-1h.8zM150.1 167.2c.6-.4 1.2-.9 1.8-1.3l1 19.6-1.3-1.4-.6.6-.9-17.5z"/><path class="st49" d="M151.7 138.2c-.4.4-.8.7-1.1 1l-.1-2.5 1.2 1.5zM153 185.4l.1 2.7c-.6.6-1.2 1.1-1.8 1.6l-.3-5.1.6-.6 1.4 1.4z"/><path class="st50" d="M151 184.6l.3 5.1c-11.2 9.2-27.1 7.9-32.3 7.2h-.1l1.4-3.9c5.8.7 21.3 1.3 30.7-8.4z"/><path class="st49" d="M150.1 167.2l-.3-4.8c.2-.2.5-.4.7-.6l1.2 1.6.1 2.5c-.4.5-1 .9-1.7 1.3z"/><path class="st49" d="M148.7 140.5c.6-.4 1.2-.8 1.8-1.3l1.3 24.2-1.2-1.6c-.2.2-.5.4-.7.6l-1.2-21.9z"/><path class="st51" d="M130.7 171.3c6.8 1.1 13.7-.4 19.5-4.1l.9 17.4c-9.4 9.7-25 9.1-30.8 8.4l7.8-22.3c.8.3 1.7.5 2.6.6z"/><path class="st50" d="M149.9 162.4l.3 4.8c-5.8 3.7-12.7 5.1-19.5 4.1-.9-.1-1.8-.3-2.7-.5l1.3-3.8c4 .7 13.1 1.6 20.6-4.6z"/><path class="st49" d="M150.6 139.2c-.6.5-1.2.9-1.8 1.3l-.2-4.7.6-.6 1.3 1.5.1 2.5z"/><path class="st51" d="M148.7 140.5l1.1 21.9c-7.5 6.2-16.6 5.3-20.6 4.5l8.1-23.3c4.1 0 8-1.1 11.4-3.1z"/><path class="st50" d="M148.5 135.8l.2 4.7c-3.5 2-7.4 3.1-11.3 3.2l1.4-4.2c3.6-.3 6.9-1.6 9.7-3.7z"/><path class="st51" d="M147.4 114.9l1.1 20.8c-2.8 2.1-6.1 3.4-9.6 3.7l8.5-24.5zM152.1 205.2l-.8-15.5c-11.2 9.2-27.1 7.9-32.3 7.2h-.1l-4 11.6-2 5.8c18.5 11.6 35.5 7 40 5.4l-.8-14.5z"/><path class="st49" d="M148.8 105.2l1.6 31.5-1.3-1.5-.6.6-1.1-20.8-8.6 24.6c-.9.1-1.6.1-2.1.1l12.1-34.5z"/><path class="st49" d="M138.9 139.5l-1.4 4.2h-1.4v-2l.7-2c.5-.1 1.2-.1 2.1-.2z"/><path class="st49" d="M136.8 139.7l-.7 2v-2h.7zM137.4 143.7l-8.1 23.3c-.6-.1-1.3-.3-1.9-.4l8.7-24.8v2c0-.1.5 0 1.3-.1zM128 170.8l-7.7 22.3-1.9-.3 8.5-24.3-.5 1.9s.6.2 1.6.4z"/><path class="st49" d="M127.4 166.5c.6.2 1.2.3 1.9.4l-1.3 3.8c-1-.2-1.6-.4-1.7-.4l.5-1.9.6-1.9z"/><path class="st49" d="M127.4 166.5l-.7 1.9.5-2c.1.1.2.1.2.1z"/><path class="st46" d="M120.5 300.9c1.1 0 2 .9 2 2 0 4.4-3.6 8-8 8-1.1 0-2-.9-2-2s.9-2 2-2c2.2 0 4-1.8 4-4 0-1.1.9-2 2-2z"/><path class="st49" d="M117.3 196.7c.1 0 .7.1 1.5.3l-4 11.6c-.7.2-1.5.3-2.2.5l2.3-6.5 2.7-7.8-.3 1.9z"/><path class="st49" d="M120.2 193.1l-1.4 3.9c-.9-.1-1.4-.2-1.5-.3l.3-2 .7-1.9 1.9.3z"/><path class="st49" d="M117.9 192.7l.4.1-.7 1.9.3-2zM114.9 202.5l-2.3 6.5c-.8.2-1.5.4-2.2.6l2.4-6.9 2.1-.2z"/><path class="st49" d="M117.9 192.7l-.3 2-2.7 7.8-2.1.1 34.2-98.3c.3-.8 1.1-1.4 2-1.3.9.2 1.6 1 1.6 1.9l1.7 33.1h-.7l-1.3-1.5-1.6-31.5-12 34.5h-.7v2l-8.7 24.8h-.1l-.5 2-8.4 24.3-.4.1z"/><circle class="st47" cx="111" cy="300.2" r="3.4"/><path class="st49" d="M112.9 214.3c18.5 11.6 35.4 7 40 5.4l-.8-14.5 1.9.1.1 1.8.7 14.1s-21.1 9.5-44.3-6l2.1-6.1c.7-.2 1.5-.4 2.2-.5l-1.9 5.7z"/><path class="st49" d="M132.2 225.6c-8.1-1.2-15.9-4.2-22.6-8.8-.8-.5-1.1-1.6-.8-2.5l1.7-4.8c.7-.2 1.5-.4 2.2-.6l-2.1 6.1c23.2 15.5 44.3 6 44.3 6l-.7-14.1c.6.2 1.3.4 1.9.6l.7 13.4c.1.8-.4 1.6-1.1 1.9-7.6 3.1-15.6 4-23.5 2.8z"/><path class="st48" d="M105 303.3c0-5.4 4.3-9.7 9.7-9.7s9.7 4.3 9.7 9.7c0 5.4-4.3 9.7-9.7 9.7-5.3 0-9.7-4.3-9.7-9.7zm6-6.5c-1.9 0-3.4 1.5-3.4 3.4s1.5 3.4 3.4 3.4 3.4-1.5 3.4-3.4-1.5-3.4-3.4-3.4zm11.4 6.1c0-1.1-.9-2-2-2s-2 .9-2 2c0 2.2-1.8 4-4 4-1.1 0-2 .9-2 2s.9 2 2 2c4.5 0 8.1-3.6 8-8 .1 0 .1 0 0 0z"/><path class="st33" d="M118.3 514.8c-16.4 0-33.7-3.4-51.9-10.1l1-2.8c87.1 32.3 137-21.1 163.5-71.5 13.2-25.1 21.6-51.1 26.3-68.6.4-1.6.8-3.2 1.2-4.7.5-1.9 1-3.8 1.4-5.5v-.2c2.8-7.4 4.4-15.2 4.8-23.1.5-12.8-3.6-25.3-11.4-35.5-8.5-11.3-15.6-21.8-21.9-31-22.4-32.9-35.9-52.8-75.5-55l-.1-3h.3c41.1 2.2 55 22.6 77.9 56.3 6.3 9.2 13.3 19.6 21.8 30.9 8.2 10.7 12.5 23.9 12 37.4-.3 8.2-2 16.3-4.9 23.9-.4 1.7-.9 3.6-1.4 5.5-.4 1.5-.8 3.1-1.3 4.7-4.8 17.6-13.3 43.9-26.6 69.2-17 32.4-37.8 55.6-61.8 69.2-16.2 9.2-34.6 14.1-53.4 13.9z"/><path class="st33" d="M5.1 553.1l-.4-.9c-.4-.7-8.9-17.3-2-34.7 4.4-11.1 14.1-19.9 28.9-26-7.4-1.7-13.9-6-18.6-12-9-11.9-10.4-30.4-3.9-54.9l.4-1.3 1.4.2c9.6 2 18.7 5.7 26.9 11 11.7 7.8 24.9 22.2 21.5 47 3.2.9 12 2.8 18.1-1 3.7-2.4 5.9-6.5 6.4-12.5.1-.6.1-1.2.1-1.9 0-13.6-13.5-31.2-26.5-48.3-2.7-3.6-5.5-7.3-8.2-10.8l2.4-1.8c2.6 3.5 5.4 7.2 8.1 10.8 13.3 17.5 27.1 35.5 27.1 50.1 0 .7 0 1.4-.1 2.1-.7 6.9-3.3 11.8-7.8 14.7-8.8 5.6-21.3 1.2-21.8 1l-1.2-.4.2-1.2c3-19.3-3.7-34.6-19.9-45.3-7.5-4.8-15.8-8.3-24.5-10.3-5.8 22.9-4.5 40.1 3.8 51 8.6 11.1 21.9 11.5 22.1 11.5l8.4.1-8 2.8c-17 5.9-27.9 14.8-32.5 26.3-5.5 13.9-.1 27.8 1.5 31.3 18-1.1 31.3-6.8 39.5-17 11.7-14.5 8.9-33.4 8.8-33.5l-.4-2.7 2.5 1.1c3.4 1.5 6.8 2.8 10.1 4l-1.1 2.8c-2.5-.9-5.2-2-7.8-3.1.4 6 .3 20.9-9.7 33.3-9 11.3-23.4 17.4-42.8 18.4l-1 .1zM188.3 302.6c-.8-2.1-2.6-3.3-5.2-3.6.5-.6.9-1.3 1.1-2 .5-1.5.2-3.2-.7-4.5-3.4-5.2-10.3-3.2-13.5-1.4-.7.4-1 1.3-.7 2 .4.7 1.3 1 2 .7 0 0 .1 0 .1-.1.1 0 6.8-3.8 9.5.4.4.5.6 1.3.4 1.9-.4 1.3-2.5 2.8-5.4 3.9-.5.2-.9.3-1 .4h-.1c-.8.3-1.2 1.1-.9 1.9.2.6.8 1 1.4 1 .2 0 .3 0 .5-.1h.1c.2 0 .5-.2 1-.3 1.3-.4 7.6-2.2 8.7.7.2.5.1 1.1-.1 1.6-1.2 2.5-6 4.6-7.8 5.2-.8.3-1.2 1.1-.9 1.9.2.6.8 1 1.4 1 .2 0 .3 0 .5-.1.8-.3 7.6-2.7 9.5-6.7.4-1.2.5-2.6.1-3.8zM93 298.3c-.7 0-1.3-.5-1.5-1.2-.2-.8.4-1.6 1.2-1.8l31.3-6.1-1.8-5.7c-.2-.8.2-1.6 1-1.9.8-.2 1.5.2 1.8.9l2.4 7.3c.1.4.1.9-.1 1.2-.2.4-.6.6-1 .7l-33 6.4c-.1.2-.2.2-.3.2zM186.2 254.3c-.8 0-1.5-.7-1.5-1.5 0-.3.1-.7.3-.9.3-.4 7.6-9.3 23.1-4.1.8.3 1.2 1.1.9 1.9s-1.1 1.2-1.9.9c-13.5-4.5-19.8 3-19.8 3.1-.2.4-.6.6-1.1.6zM150.6 420.5c-2.2 0-4.3-.1-6.5-.4-15.4-1.9-28.4-9.7-32.8-16.1-.5-.7-.3-1.6.4-2.1s1.6-.3 2.1.4c4.1 6 16.8 13.2 30.7 14.9 12 1.4 33.7-.2 44.4-27.4 5.8-14.8 7.4-29.2 4.7-42.9-1.9-10.3-6.5-20-13.1-28.1-39.8 15.2-52.1 41.5-55.9 56-1 3.7-1.6 7.4-1.8 11.2 0 .8-.7 1.5-1.5 1.5s-1.5-.7-1.5-1.5c.2-4.1.8-8.1 1.9-12 4-15.1 16.9-42.8 58.7-58.4l.9-.3.7.7c.4.5 10.8 11.2 14.6 30.3 2.8 14.2 1.1 29.2-4.9 44.5-9.8 24.7-28 29.7-41.1 29.7z"/><path class="st33" d="M109.5 381.4c-.8 0-1.5-.7-1.5-1.5 0-.4.2-.8.5-1.1 3.9-3.9 9.3-6 14.8-6 .8.1 1.5.8 1.4 1.6-.1.8-.8 1.5-1.6 1.4-4.7 0-9.2 1.9-12.5 5.2-.3.2-.7.4-1.1.4zM255.9 439c-8.7 0-18-1.5-24.6-6.8-.6-.5-.8-1.4-.3-2.1.5-.6 1.5-.8 2.1-.3 13.2 10.5 39.7 4.5 45.3 3.1 1.9-50.1-20.5-69.5-20.7-69.7-.6-.5-.7-1.5-.2-2.1s1.5-.7 2.1-.2c1 .8 24 20.8 21.8 73.2v1.1l-1 .3c-8 2.3-16.2 3.4-24.5 3.5zm24-4.8z"/><linearGradient id="SVGID_16_" gradientUnits="userSpaceOnUse" x1="11.543" y1="-139.672" x2="154.008" y2="-139.672" gradientTransform="scale(1 -1) rotate(56.172 469.225 -75.063)"><stop offset="0" stop-color="#c4d4e8"/><stop offset=".38" stop-color="#d7e6f1"/><stop offset="1" stop-color="#f3ffff"/></linearGradient><path d="M268.8 458.6c-8.9 2.6-14 11.9-11.4 20.8s11.9 14 20.8 11.4c6.7-2 11.6-7.9 12-15l24.4 19.6 19.3-23.9c-9.2-1.2-15.6-9.7-14.4-18.9 1.2-9.2 9.7-15.6 18.9-14.4 6.1.8 11.3 5 13.5 10.8l19.3-23.9-24.4-19.6c8.9-2.6 14-11.9 11.4-20.8s-11.9-14-20.8-11.4c-6.7 2-11.6 7.9-12 15L301 368.7l-19.5 24.2c9.2.9 15.9 9.1 15 18.4-.9 9.2-9.1 15.9-18.4 15-6.6-.7-12.2-5.2-14.3-11.5L244.4 439l24.4 19.6z" fill="url(#SVGID_16_)" stroke="#1c4189" stroke-width="2" stroke-miterlimit="10"/><path class="st15" d="M260.4 464.1c-2.5 3.1-3.8 7-3.7 11.1l10.9.4-2.3-15.6c-1.8 1-3.5 2.5-4.9 4.1zM244.4 439l20.3 16.3-3.7-25.5-9.6.5z"/><path class="st13" d="M286.5 485.2c2.2-2.7 3.4-5.9 3.7-9.4l24.4 19.6 6.7-8.4-2.1-9h-.1l-11.9-50.3-12.3-51.5-13.4 16.7c9.2.9 15.9 9.1 15 18.4-.9 9.2-9.1 15.9-18.4 15-6.6-.7-12.2-5.2-14.3-11.5l-4.3 5.4 1.4 9.7 3.7 25.5 4.1 3.3c-1.2.3-2.3.8-3.4 1.4l2.3 15.7 2.2 15.3c6.3 1.3 12.7-1 16.7-5.9z"/><path class="st15" d="M328.3 478.4l5.5-6.9c-9.2-1.2-15.6-9.7-14.4-18.9 1.2-9.2 9.7-15.6 18.9-14.4 6.1.8 11.3 5 13.5 10.8l19.3-23.9-.7-.5-63.3 3.1 12 50.3 9.2.4z"/><g class="st17"><linearGradient id="SVGID_17_" gradientUnits="userSpaceOnUse" x1="82.814" y1="-188.445" x2="82.814" y2="-90.885" gradientTransform="scale(1 -1) rotate(56.172 469.225 -75.063)"><stop offset="0" stop-color="#1c4189"/><stop offset=".44" stop-color="#768fb6"/><stop offset=".82" stop-color="#beced9"/><stop offset="1" stop-color="#dae6e7"/></linearGradient><path d="M248.6 438.5l14.6-18.2c5.9 9.2 18.2 11.8 27.3 5.8 1.8-1.2 3.4-2.6 4.7-4.2.4-.4.7-.9 1-1.4 6.1-9.1 3.7-21.3-5.4-27.4-1.3-.8-2.6-1.5-4-2.1l14.6-18.2 22 17.7 4.5 3.6.4-5.7c.2-2.4.9-4.7 2.3-6.7.2-.3.5-.7.7-1 4.5-6.1 13.1-7.5 19.3-2.9s7.5 13.1 2.9 19.3c-.2.3-.5.7-.7 1-1.8 2.2-4.2 3.8-6.9 4.6l-5.5 1.6 4.5 3.6 22 17.7-14.5 18c-6.2-9-18.5-11.2-27.5-5-1.6 1.1-3 2.4-4.2 3.9-.4.5-.7.9-1 1.4-6.1 9.1-3.6 21.3 5.4 27.4 1.1.7 2.3 1.4 3.5 1.9l-14.5 18-22-17.7-4.5-3.6-.4 5.7c-.2 2.4-1 4.7-2.3 6.7-.2.3-.5.7-.7 1-4.5 6.1-13.1 7.5-19.3 3-6.1-4.5-7.5-13.1-3-19.3.2-.3.5-.7.7-1 1.8-2.2 4.2-3.8 6.9-4.6l5.5-1.6-4.5-3.6-21.9-17.7m-4.2.4l24.4 19.6c-3.3 1-6.2 2.9-8.4 5.6l-.9 1.2c-5.1 7.7-3 18.1 4.7 23.2 7.2 4.8 16.8 3.3 22.3-3.4l.9-1.2c1.6-2.4 2.6-5.3 2.8-8.2l24.4 19.6 19.3-23.9c-9.2-1.3-15.6-9.7-14.3-18.9.3-2.5 1.3-4.9 2.7-7l.9-1.2c5.8-7.2 16.3-8.4 23.5-2.6 2.4 1.9 4.2 4.4 5.2 7.3l19.3-23.9-24.4-19.6c3.3-1 6.2-2.9 8.4-5.6l.9-1.2c5.1-7.7 3-18.1-4.7-23.2-7.2-4.8-16.8-3.3-22.3 3.4l-.9 1.2c-1.6 2.4-2.6 5.3-2.8 8.2L301 368.7l-19.5 24.2c9.2.9 15.9 9.1 15 18.3-.3 2.7-1.2 5.4-2.8 7.7l-.9 1.2c-5.8 7.2-16.3 8.4-23.6 2.6-2.5-2-4.4-4.8-5.4-7.9l-19.4 24.1z" fill="url(#SVGID_17_)"/></g><path class="st37" d="M268.8 458.6c-8.9 2.6-14 11.9-11.4 20.8s11.9 14 20.8 11.4c6.7-2 11.6-7.9 12-15l24.4 19.6 19.3-23.9c-9.2-1.2-15.6-9.7-14.4-18.9 1.2-9.2 9.7-15.6 18.9-14.4 6.1.8 11.3 5 13.5 10.8l19.3-23.9-24.4-19.6c8.9-2.6 14-11.9 11.4-20.8s-11.9-14-20.8-11.4c-6.7 2-11.6 7.9-12 15L301 368.7l-19.5 24.2c9.2.9 15.9 9.1 15 18.4-.9 9.2-9.1 15.9-18.4 15-6.6-.7-12.2-5.2-14.3-11.5L244.4 439l24.4 19.6z"/></svg>