<svg id="Layer_1" xmlns="http://www.w3.org/2000/svg" viewBox="0 0 623.8 577.8"><style>.st1{fill:#ebf1f7}.st2{fill:#2489ca}.st3{fill:#3c99d4}.st4{fill:none;stroke:#1c4189;stroke-width:2;stroke-miterlimit:10}.st5{fill:#00c7f8}.st6{opacity:.25}.st8{fill:#45c7ef}.st10{fill:#c7f4ff}.st11{fill:none;stroke:#edf8f9;stroke-width:2;stroke-miterlimit:10}.st14{fill:#0877b9}.st29{fill:none;stroke:#1c4189;stroke-width:.5;stroke-miterlimit:10}.st30{fill:#1c4189}.st31{fill:#6b7fc3}.st33{fill:#93a0df}.st34{fill:#3863a8}.st35{fill:#fff}.st36{fill:#29333f}.st37{fill:#4b8084}.st38{fill:#80b8c1}.st39{fill:#c7e5ec}</style><path d="M539.1 84.7s.1 0 0 0z" fill="#0093dd"/><path class="st1" d="M424.8 540.5c-6.1-2.8-8.9-10-6.1-16.1s10-8.9 16.1-6.1c4.4 2 7.2 6.4 7.2 11.2l19-12.2-12.3-19.2c6.7.3 12.4-4.9 12.7-11.7.3-6.7-4.9-12.4-11.7-12.7-5.1-.2-9.9 2.8-11.8 7.5L425.6 462l-18.8 12c6 3 8.5 10.3 5.5 16.3-1 2-2.5 3.7-4.4 4.9-5.7 3.6-13.2 2-16.8-3.7-1.2-1.9-1.9-4-1.9-6.2l-18.8 12 35.3 55.2 19.1-12z"/><path class="st2" d="M428.7 503c3.6 6.9 8.8 3.7 8.8 3.7l11.9-7.6-.6-.9c.7 0 1.5 0 2.2-.1l8.5-5.4c3.7-5.6 2.1-13.2-3.6-16.9-5.6-3.7-13.2-2.1-16.9 3.6-.4.6-.8 1.3-1.1 2l-4.4-6.9-4.8 28.5z"/><path class="st3" d="M449.4 499.1l-11.3 7.2c-.9.6-1.9.9-2.9 1-2 .2-4.5-.5-6.4-4.8l-.1.5c-.6 2.3.1 4.8 1.8 6.5l22 13.3 8.6-5.5-11.7-18.2z"/><path class="st1" d="M455.8 496.3c1.5-.9 2.7-2.2 3.7-3.6l-8.5 5.4c1.7-.3 3.4-.9 4.8-1.8z"/><path class="st4" d="M424.8 540.5c-6.1-2.8-8.9-10-6.1-16.1s10-8.9 16.1-6.1c4.4 2 7.2 6.4 7.2 11.2l19-12.2-12.3-19.2c6.7.3 12.4-4.9 12.7-11.7.3-6.7-4.9-12.4-11.7-12.7-5.1-.2-9.9 2.8-11.8 7.5L425.6 462l-18.8 12c6 3 8.5 10.3 5.5 16.3-1 2-2.5 3.7-4.4 4.9-5.7 3.6-13.2 2-16.8-3.7-1.2-1.9-1.9-4-1.9-6.2l-18.8 12 35.3 55.2 19.1-12z"/><circle class="st5" cx="91.6" cy="179.5" r="14.2"/><g class="st6"><linearGradient id="SVGID_1_" gradientUnits="userSpaceOnUse" x1="388.061" y1="52.973" x2="459.588" y2="98.706" gradientTransform="matrix(1 0 0 -1 0 578)"><stop offset="0" stop-color="#1c4189"/><stop offset=".44" stop-color="#768fb6"/><stop offset=".82" stop-color="#beced9"/><stop offset="1" stop-color="#dae6e7"/></linearGradient><path d="M424.8 466.3l10.6 16.6 3.1 4.9 2.2-5.3c1.9-4.7 7.3-6.9 12-5s6.9 7.3 5 12c-1.4 3.4-4.8 5.7-8.5 5.7h-.4l-5.8-.2 3.1 4.9 10.6 16.7-12.7 8.1c-2.7-8-11.3-12.2-19.3-9.5-8 2.7-12.2 11.3-9.5 19.3.8 2.3 2.1 4.5 3.9 6.2l-12.7 8.1-32.1-50.2 12.6-8.1c2.9 7.9 11.6 12 19.5 9.1s12-11.6 9.1-19.5c-.8-2.1-2-4-3.6-5.6l12.9-8.2m.9-4.2l-18.8 12c6 3 8.5 10.3 5.5 16.4-2.1 4.1-6.3 6.7-10.9 6.7-6.6 0-12-5.2-12.2-11.8l-18.8 12 35.3 55.2 19-12.2c-6.1-2.8-8.9-10-6.1-16.1s10-8.9 16.1-6.1c4.4 2 7.2 6.4 7.2 11.2l19-12.2-12.3-19.2h.5c6.7.1 12.3-5.3 12.3-12.1.1-6.7-5.3-12.3-12.1-12.3-5-.1-9.6 3-11.4 7.6l-12.3-19.1z" fill="url(#SVGID_1_)"/></g><path class="st8" d="M105.8 179.4c0 7.9-6.4 2.1-14.2 2.1s-14.2 5.7-14.2-2.1c0-7.9 6.4-14.2 14.2-14.2s14.2 6.4 14.2 14.2z"/><path d="M103.7 178.4c-1.6 2.8-4.7-3.2-9.1-5.7s-9.9-1-8.2-3.8 8-3.6 12.4-1.1 6.5 7.8 4.9 10.6z" fill="#defaff"/><ellipse transform="rotate(-56.729 82.586 172.024)" class="st10" cx="82.6" cy="172" rx="2" ry="1.4"/><circle class="st5" cx="89.2" cy="138.2" r="9.2"/><path class="st8" d="M97.7 138.2c0 4.7-3.8 1.3-8.5 1.3s-8.5 3.4-8.5-1.3 3.8-8.5 8.5-8.5 8.5 3.8 8.5 8.5z"/><path class="st10" d="M96.4 137.6c-1 1.7-2.8-1.9-5.4-3.4s-5.9-.6-4.9-2.3 4.8-2.2 7.4-.7 3.9 4.7 2.9 6.4z"/><ellipse transform="rotate(-56.729 83.728 133.73)" class="st10" cx="83.7" cy="133.7" rx="1.2" ry=".9"/><circle class="st5" cx="121.7" cy="119.7" r="6.7"/><path class="st8" d="M128 119.7c0 3.4-2.8.9-6.2.9s-6.2 2.5-6.2-.9 2.8-6.2 6.2-6.2c3.4 0 6.2 2.8 6.2 6.2z"/><path class="st10" d="M127 119.3c-.7 1.2-2.1-1.4-4-2.5s-4.3-.4-3.6-1.7 3.5-1.6 5.4-.5 2.9 3.5 2.2 4.7z"/><ellipse transform="rotate(-56.729 117.781 116.498)" class="st10" cx="117.8" cy="116.5" rx=".9" ry=".6"/><circle class="st11" cx="91.6" cy="179.4" r="16"/><circle class="st11" cx="89.2" cy="138.2" r="9.9"/><circle class="st11" cx="121.7" cy="119.6" r="7.6"/><path fill="#edf8f9" stroke="#1c4189" stroke-width="3" stroke-miterlimit="10" d="M167.7 47.5h360.7v360.2H167.7z"/><path class="st2" d="M225.5 174.9s-6.5-4.7 1.3-10.9l18.1-16.2s5.2-5.4 10.6-.7l166.8 126.3v60.5s-.1 9.5-12.3 8.5L225.5 174.9z"/><path d="M268.5 213.9l-43 39.1s-4.4 3.3 0 9.2l20 18.1s4.7 5.1 11.7-.7l45.6-34.6-34.3-31.1z" fill="#1070b3"/><path class="st14" d="M344 214.2l78.8-60.2-.5-60.2s-3.4-13.1-14.6-6.3L302.8 183l41.2 31.2z"/><path class="st3" d="M410 342.5c2.6 2.7 6.4 3.9 10.1 3.1l61.4-30.3c7.9-5.4 6.8-12 6.8-12V122.6c0-8-8.1-10.7-8.1-10.7L427 86.2c-11.6-7.2-19.3 1.3-19.3 1.3s9.8-7.1 14.6 6.3v239.1c0 1.6-.4 3.2-1 4.7-1.4 2.8-4.4 5.5-11.7 4.4l.4.5z"/><g class="st6"><linearGradient id="SVGID_2_" gradientUnits="userSpaceOnUse" x1="470.013" y1="235.09" x2="470.013" y2="376" gradientTransform="matrix(1 0 0 -1 0 578)"><stop offset="0" stop-color="#1c4189"/><stop offset=".44" stop-color="#768fb6"/><stop offset=".82" stop-color="#beced9"/><stop offset="1" stop-color="#dae6e7"/></linearGradient><path d="M483.3 205c7.6 0 13.8 6.1 13.8 13.7 0 2.5-.7 5-2 7.1l-2.7 4.6h33v84.2h-33.6l3 4.6c1.5 2.2 2.2 4.8 2.2 7.5 0 7.4-6 13.2-13.8 13.2s-13.8-5.8-13.8-13.2c0-2.7.8-5.3 2.2-7.5l3-4.6H441v-34.3l-4.7 3.4c-2.3 1.6-5.1 2.5-7.9 2.5-7.6 0-13.8-6.1-13.8-13.7s6.1-13.8 13.7-13.8c2.9 0 5.7.9 8 2.5l4.7 3.4v-34.2h33l-2.7-4.6c-3.9-6.5-1.8-14.9 4.7-18.8 2.3-1.3 4.7-2 7.3-2m0-3c-9.3 0-16.8 7.5-16.8 16.7 0 3.1.8 6 2.4 8.7h-30.7v31.4c-7.6-5.4-18-3.6-23.4 4-5.4 7.6-3.6 18 4 23.4 5.8 4.1 13.6 4.1 19.4 0v31.4h31c-1.8 2.7-2.7 5.9-2.7 9.1 0 9.3 7.5 16.2 16.8 16.2s16.7-7 16.7-16.2c0-3.2-.9-6.4-2.7-9.1h31.1v-90.2h-30.7c4.7-7.9 2.2-18.2-5.8-23-2.6-1.6-5.6-2.4-8.6-2.4z" fill="url(#SVGID_2_)"/><linearGradient id="SVGID_3_" gradientUnits="userSpaceOnUse" x1="470.548" y1="414.48" x2="470.548" y2="530.53" gradientTransform="matrix(1 0 0 -1 0 578)"><stop offset="0" stop-color="#1c4189"/><stop offset=".44" stop-color="#768fb6"/><stop offset=".82" stop-color="#beced9"/><stop offset="1" stop-color="#dae6e7"/></linearGradient><path d="M525.4 50.5v84.2h-34.2l3.4 4.7c1.6 2.3 2.5 5.1 2.5 7.9 0 7.4-6.1 13.2-13.8 13.2s-13.7-5.8-13.7-13.2c0-2.8.9-5.6 2.5-7.9l3.4-4.7h-34.2v-33l-4.5 2.7c-6.5 3.9-15 1.8-18.9-4.7s-1.8-15 4.7-18.9c4.4-2.6 9.9-2.6 14.2 0l4.5 2.7v-33h84.1m3-3h-90.2v30.7c-7.9-4.8-18.2-2.2-23 5.7s-2.2 18.2 5.7 23c5.3 3.2 12 3.2 17.3 0v30.7h31.4c-2 2.8-3.1 6.2-3.1 9.7 0 9.3 7.5 16.2 16.7 16.2s16.8-6.9 16.8-16.2c0-3.5-1.1-6.8-3.1-9.7h31.4l.1-90.1z" fill="url(#SVGID_3_)"/><linearGradient id="SVGID_4_" gradientUnits="userSpaceOnUse" x1="212.795" y1="413.883" x2="212.795" y2="530.53" gradientTransform="matrix(1 0 0 -1 0 578)"><stop offset="0" stop-color="#1c4189"/><stop offset=".44" stop-color="#768fb6"/><stop offset=".82" stop-color="#beced9"/><stop offset="1" stop-color="#dae6e7"/></linearGradient><path d="M254.9 50.5v23.2c-1.8-.6-3.7-.8-5.6-.8-10.9 0-19.8 8.9-19.8 19.8s8.9 19.8 19.8 19.8c1.9 0 3.8-.3 5.6-.8v23.1h-34.2l3.3 4.7c4.4 6.2 2.9 14.8-3.3 19.2-6.2 4.4-14.8 2.9-19.2-3.3-3.4-4.8-3.4-11.1 0-15.9l3.4-4.7h-34.2V50.5h84.2m3-3h-90.2v90.2h31.4c-5.3 7.6-3.6 18 4 23.4 7.6 5.3 18 3.6 23.4-4 4.1-5.8 4.1-13.6 0-19.4h31.4V107c-7.9 4.8-18.2 2.2-23-5.7-4.8-7.9-2.2-18.2 5.7-23 5.3-3.2 12-3.2 17.3 0V47.5z" fill="url(#SVGID_4_)"/><linearGradient id="SVGID_5_" gradientUnits="userSpaceOnUse" x1="470.036" y1="170.34" x2="470.036" y2="260.53" gradientTransform="matrix(1 0 0 -1 0 578)"><stop offset="0" stop-color="#1c4189"/><stop offset=".44" stop-color="#768fb6"/><stop offset=".82" stop-color="#beced9"/><stop offset="1" stop-color="#dae6e7"/></linearGradient><path d="M525.4 320.5v84.2h-84.2v-34.2l-4.7 3.4c-6.2 4.4-14.8 2.9-19.2-3.3-4.4-6.2-2.9-14.8 3.3-19.2 4.8-3.4 11.1-3.4 15.9 0l4.7 3.4v-34.2h23.1c-3.2 10.4 2.7 21.5 13.1 24.7s21.5-2.7 24.7-13.1c.6-1.9.9-3.9.9-5.9 0-1.9-.3-3.8-.8-5.6h23.2m2.9-3.2h-30.7c4.8 7.9 2.2 18.2-5.7 23-7.9 4.8-18.2 2.2-23-5.7-3.2-5.3-3.2-12 0-17.3h-30.7v31.4c-7.6-5.3-18-3.6-23.4 4-5.3 7.6-3.6 18 4 23.4 5.8 4.1 13.6 4.1 19.4 0v31.4h90.2l-.1-90.2z" fill="url(#SVGID_5_)"/><linearGradient id="SVGID_6_" gradientUnits="userSpaceOnUse" x1="393.11" y1="440.34" x2="393.11" y2="530.53" gradientTransform="matrix(1 0 0 -1 0 578)"><stop offset="0" stop-color="#1c4189"/><stop offset=".44" stop-color="#768fb6"/><stop offset=".82" stop-color="#beced9"/><stop offset="1" stop-color="#dae6e7"/></linearGradient><path d="M435.1 50.5v23.2c-1.8-.5-3.7-.8-5.6-.8-10.9 0-19.8 8.9-19.8 19.8s8.9 19.8 19.8 19.8c1.9 0 3.8-.3 5.6-.8v23.1h-22.9c.4-1.6.7-3.3.7-5 0-10.9-8.9-19.8-19.8-19.8s-19.8 8.9-19.8 19.8c0 1.7.2 3.4.7 5h-22.9v-23.3c10.4 3.4 21.5-2.3 24.9-12.6 3.4-10.4-2.3-21.5-12.6-24.9-2-.6-4.1-1-6.1-1-2.1 0-4.2.3-6.1 1V50.5h83.9m3-3H348v31.1c7.8-5.1 18.1-2.9 23.2 4.9s2.9 18.1-4.9 23.2c-5.6 3.6-12.8 3.6-18.3 0v31.1h30.3c-4.4-8.1-1.5-18.3 6.7-22.8s18.3-1.5 22.8 6.7c2.7 5 2.7 11.1 0 16.1h30.3V107c-7.9 4.8-18.2 2.2-23-5.8-4.8-7.9-2.2-18.2 5.8-23 5.3-3.2 11.9-3.2 17.3 0l-.1-30.7z" fill="url(#SVGID_6_)"/><linearGradient id="SVGID_7_" gradientUnits="userSpaceOnUse" x1="470.042" y1="350.34" x2="470.042" y2="440.4" gradientTransform="matrix(1 0 0 -1 0 578)"><stop offset="0" stop-color="#1c4189"/><stop offset=".44" stop-color="#768fb6"/><stop offset=".82" stop-color="#beced9"/><stop offset="1" stop-color="#dae6e7"/></linearGradient><path d="M525.3 140.6v84.1h-23.2c.5-1.8.8-3.7.8-5.6 0-10.9-8.9-19.8-19.8-19.8s-19.8 8.9-19.8 19.8c0 1.9.3 3.8.8 5.6H441v-34l-4.7 3.3c-6.2 4.4-14.8 2.8-19.2-3.4-4.4-6.2-2.8-14.8 3.4-19.2 4.7-3.3 11.1-3.3 15.8 0l4.7 3.3v-34.1h23.3c-3.4 10.4 2.3 21.5 12.6 24.9 10.4 3.4 21.5-2.3 24.9-12.6.6-2 1-4.1 1-6.1 0-2.1-.3-4.2-1-6.1h23.5m3-3.1h-31c5.1 7.8 2.9 18.1-4.9 23.2-7.8 5.1-18.1 2.9-23.2-4.9-3.6-5.6-3.6-12.8 0-18.3h-31v31.3c-7.6-5.3-18-3.5-23.4 4.1-5.3 7.6-3.5 18 4.1 23.4 5.8 4 13.5 4 19.2 0v31.3h30.7c-4.8-7.9-2.2-18.2 5.8-23 7.9-4.8 18.2-2.2 23 5.8 3.2 5.3 3.2 11.9 0 17.3h30.7v-90.2z" fill="url(#SVGID_7_)"/><linearGradient id="SVGID_8_" gradientUnits="userSpaceOnUse" x1="393.11" y1="170.34" x2="393.11" y2="286.89" gradientTransform="matrix(1 0 0 -1 0 578)"><stop offset="0" stop-color="#1c4189"/><stop offset=".44" stop-color="#768fb6"/><stop offset=".82" stop-color="#beced9"/><stop offset="1" stop-color="#dae6e7"/></linearGradient><path d="M393.1 294.1c7.6 0 13.8 6.2 13.8 13.8 0 2.8-.9 5.6-2.5 7.9l-3.3 4.7h34v23.3c-10.4-3.4-21.5 2.3-24.9 12.6s2.3 21.5 12.6 24.9c2 .6 4.1 1 6.2 1 2.1 0 4.2-.3 6.1-1v23.3H351v-23.1c1.8.5 3.7.8 5.6.8 10.9 0 19.8-8.9 19.8-19.8s-8.9-19.8-19.8-19.8c-1.9 0-3.8.3-5.6.8v-23.1h34l-3.3-4.7c-4.4-6.2-2.8-14.8 3.4-19.2 2.4-1.5 5.2-2.4 8-2.4m0-3c-9.3 0-16.8 7.5-16.8 16.7 0 3.4 1.1 6.8 3 9.6H348v30.7c7.9-4.8 18.2-2.2 23 5.8 4.8 7.9 2.2 18.2-5.8 23-5.3 3.2-11.9 3.2-17.3 0v30.7H438v-31.1c-7.8 5.1-18.1 2.9-23.2-4.9-5.1-7.8-2.9-18.1 4.9-23.2 5.6-3.6 12.8-3.6 18.3 0v-31.1h-31.3c5.3-7.6 3.5-18-4.1-23.3-2.7-1.8-6-2.9-9.5-2.9z" fill="url(#SVGID_8_)"/><linearGradient id="SVGID_9_" gradientUnits="userSpaceOnUse" x1="380.088" y1="350.54" x2="380.088" y2="465.15" gradientTransform="matrix(1 0 0 -1 0 578)"><stop offset="0" stop-color="#1c4189"/><stop offset=".44" stop-color="#768fb6"/><stop offset=".82" stop-color="#beced9"/><stop offset="1" stop-color="#dae6e7"/></linearGradient><path d="M393.1 115.8c7.8 0 13.7 5.5 13.7 12.8 0 2.5-.7 4.9-2 7.1l-2.7 4.5h33V164c-10.3-3.6-21.6 1.8-25.2 12.1s1.8 21.6 12.1 25.2c4.3 1.5 8.9 1.5 13.2 0v23h-23.3c3.6-10.3-1.8-21.6-12.1-25.2s-21.6 1.8-25.2 12.1c-1.5 4.3-1.5 8.9 0 13.2H351v-34l-4.7 3.3c-2.3 1.6-5.1 2.5-7.9 2.5-7.4 0-13.4-6.1-13.3-13.5v-.3c0-7.7 5.9-13.8 13.3-13.8 2.8 0 5.6.9 7.9 2.5l4.7 3.4v-34.2h33l-2.7-4.5c-1.3-2.1-2-4.6-2-7.1 0-7.3 6-12.8 13.8-12.9m0-2.9c-9.3 0-16.8 6.5-16.8 15.8 0 3 .8 6 2.4 8.6H348v31.4c-2.8-2-6.2-3.1-9.7-3.1-9.3 0-16.3 7.5-16.3 16.8-.2 9 7 16.5 16 16.7h.3c3.5 0 6.8-1.1 9.7-3.1v31.4h.1v-.2h31.3c-5.3-7.6-3.5-18 4.1-23.4 7.6-5.3 18-3.5 23.4 4.1 4 5.8 4 13.5 0 19.2h31.3v-30.9c-7.6 5.3-18 3.5-23.4-4.1-5.3-7.6-3.5-18 4.1-23.4 5.8-4 13.5-4 19.2 0v-31.6h-30.8c1.6-2.6 2.4-5.6 2.4-8.6.1-9.1-7.3-15.6-16.6-15.6z" fill="url(#SVGID_9_)"/><linearGradient id="SVGID_10_" gradientUnits="userSpaceOnUse" x1="393.11" y1="260.53" x2="393.11" y2="377.08" gradientTransform="matrix(1 0 0 -1 0 578)"><stop offset="0" stop-color="#1c4189"/><stop offset=".44" stop-color="#768fb6"/><stop offset=".82" stop-color="#beced9"/><stop offset="1" stop-color="#dae6e7"/></linearGradient><path d="M393.1 203.9c7.6 0 13.8 6.2 13.8 13.8 0 2.8-.9 5.6-2.5 7.9l-3.3 4.7h34v23.3c-10.4-3.4-21.5 2.3-24.9 12.6-3.4 10.4 2.3 21.5 12.6 24.9 4 1.3 8.3 1.3 12.3 0v23.3h-23.4c3.6-10.3-1.8-21.6-12.1-25.2s-21.6 1.8-25.2 12.1c-1.5 4.3-1.5 8.9 0 13.2H351v-23.1c1.8.5 3.7.8 5.6.8 10.9 0 19.8-8.9 19.8-19.8s-8.9-19.8-19.8-19.8c-1.9 0-3.8.3-5.6.8v-23.1h34l-3.3-4.7c-4.4-6.2-2.8-14.8 3.4-19.2 2.4-1.6 5.2-2.5 8-2.5m0-3c-9.3 0-16.8 7.5-16.8 16.8 0 3.4 1.1 6.8 3 9.6H348V258c7.9-4.8 18.2-2.2 23 5.8 4.8 7.9 2.2 18.2-5.8 23-5.3 3.2-11.9 3.2-17.3 0v30.7h31.3c-5.3-7.6-3.5-18 4.1-23.4 7.6-5.3 18-3.5 23.4 4.1 4 5.8 4 13.5 0 19.2H438v-31c-7.8 5.1-18.1 2.9-23.2-4.9-5.1-7.8-2.9-18.1 4.9-23.2 5.6-3.6 12.8-3.6 18.3 0v-31h-31.3c5.3-7.6 3.5-18-4.1-23.3-2.7-2-6-3-9.5-3.1z" fill="url(#SVGID_10_)"/><linearGradient id="SVGID_11_" gradientUnits="userSpaceOnUse" x1="303.28" y1="324.134" x2="303.28" y2="467.07" gradientTransform="matrix(1 0 0 -1 0 578)"><stop offset="0" stop-color="#1c4189"/><stop offset=".44" stop-color="#768fb6"/><stop offset=".82" stop-color="#beced9"/><stop offset="1" stop-color="#dae6e7"/></linearGradient><path d="M303.2 113.9c7.6 0 13.8 6.2 13.8 13.8 0 2.8-.9 5.6-2.5 7.9l-3.3 4.7h34l-.2 23.4c-1.9-.7-3.9-1.1-5.9-1.1-10.9-.2-20 8.4-20.2 19.3-.2 10.9 8.4 20 19.3 20.2h.9c2 0 4-.4 5.9-1.2l.2 23.5h-34l3.3 4.7c4.4 6.2 2.9 14.8-3.4 19.2-6.2 4.4-14.8 2.9-19.2-3.4-3.3-4.7-3.3-11.1 0-15.8l3.3-4.7h-34v-23.1c1.8.5 3.7.8 5.6.8 10.9.2 20-8.4 20.2-19.3.2-10.9-8.4-20-19.3-20.2h-.9c-1.9 0-3.8.3-5.6.8v-23.1h34l-3.3-4.7c-1.6-2.3-2.5-5.1-2.5-7.9.1-7.6 6.3-13.8 13.8-13.8m.1-3c-9.3 0-16.8 7.5-16.8 16.7 0 3.4 1.1 6.8 3 9.6h-31.3V168c7.9-4.8 18.2-2.2 23 5.8 4.8 7.9 2.2 18.2-5.8 23-5.3 3.2-11.9 3.2-17.2 0v30.7h31.3c-5.3 7.6-3.5 18 4.1 23.4 7.6 5.3 18 3.5 23.4-4.1 4-5.8 4-13.5 0-19.2h31.3l-.3-31.4c-2.6 1.7-5.4 3.1-8.8 3.1-9.3.2-16.9-7.1-17.2-16.4-.2-9.3 7.1-16.9 16.4-17.2h.8c3.2.1 6.3 1.2 8.8 3.1l.3-31.4H317c5.3-7.6 3.5-18-4.1-23.3-2.8-2.1-6.2-3.2-9.6-3.2z" fill="url(#SVGID_11_)"/><linearGradient id="SVGID_12_" gradientUnits="userSpaceOnUse" x1="303.24" y1="440.34" x2="303.24" y2="530.53" gradientTransform="matrix(1 0 0 -1 0 578)"><stop offset="0" stop-color="#1c4189"/><stop offset=".44" stop-color="#768fb6"/><stop offset=".82" stop-color="#beced9"/><stop offset="1" stop-color="#dae6e7"/></linearGradient><path d="M345.1 50.5v33.6l4.6-3c6.4-4.2 14.9-2.4 19.1 4 4.2 6.4 2.4 14.9-4 19.1-4.6 3-10.5 3-15.1 0l-4.6-3v33.2h-23.2c.8-2.1 1.1-4.4 1.1-6.7 0-10.9-8.9-19.8-19.8-19.8s-19.8 8.9-19.8 19.8c0 2.2.4 4.5 1.1 6.6h-23.7v-32.7l-4.5 2.7c-6.5 3.9-15 1.8-18.9-4.7-3.9-6.5-1.8-15 4.7-18.9 4.4-2.6 9.9-2.6 14.2 0l4.5 2.7v-33l84.3.1m3-3h-90.2v30.7c-7.9-4.8-18.2-2.2-23 5.7-4.8 7.9-2.2 18.2 5.7 23 5.3 3.2 12 3.2 17.3 0v30.7h.3v-.4h31.3c-5.3-7.6-3.5-18 4.1-23.4 7.6-5.3 18-3.5 23.4 4.1 4 5.8 4 13.5 0 19.2h31.1v-30.7c7.8 5.1 18.1 2.9 23.2-4.9s2.9-18.1-4.9-23.2c-5.6-3.6-12.8-3.6-18.3 0V47.5z" fill="url(#SVGID_12_)"/><linearGradient id="SVGID_13_" gradientUnits="userSpaceOnUse" x1="302.841" y1="170.34" x2="302.841" y2="260.16" gradientTransform="matrix(1 0 0 -1 0 578)"><stop offset="0" stop-color="#1c4189"/><stop offset=".44" stop-color="#768fb6"/><stop offset=".82" stop-color="#beced9"/><stop offset="1" stop-color="#dae6e7"/></linearGradient><path d="M345.2 320.8v32.7l4.5-2.7c6.5-3.9 15-1.8 18.9 4.7s1.8 15-4.7 18.9c-4.4 2.6-9.9 2.6-14.2 0l-4.5-2.7v33H261v-33.6l-4.6 3c-6.4 4.2-14.9 2.4-19.1-4-4.2-6.4-2.4-14.9 4-19.1 4.6-3 10.5-3 15.1 0l4.6 3v-33.2h23.2c-.8 2.1-1.1 4.3-1.1 6.6-.2 10.9 8.4 20 19.3 20.2 10.9.2 20-8.4 20.2-19.3v-.9c0-2.2-.4-4.5-1.1-6.6h23.7m3-2.9h-31.6c5.3 7.6 3.5 18-4.1 23.4-7.6 5.3-18 3.5-23.4-4.1-4-5.8-4-13.4 0-19.2H258v30.7c-7.8-5.1-18.1-2.9-23.2 4.9-5.1 7.8-2.9 18.1 4.9 23.2 5.6 3.6 12.8 3.6 18.3 0v31h90.2v-30.7c7.9 4.8 18.2 2.2 23-5.7s2.2-18.2-5.7-23c-5.3-3.2-12-3.2-17.3 0v-30.5z" fill="url(#SVGID_13_)"/><linearGradient id="SVGID_14_" gradientUnits="userSpaceOnUse" x1="225.64" y1="350.34" x2="225.64" y2="440.4" gradientTransform="matrix(1 0 0 -1 0 578)"><stop offset="0" stop-color="#1c4189"/><stop offset=".44" stop-color="#768fb6"/><stop offset=".82" stop-color="#beced9"/><stop offset="1" stop-color="#dae6e7"/></linearGradient><path d="M254.9 140.6v34.1l4.7-3.3c2.3-1.6 5.1-2.5 7.9-2.5 7.5 0 13.1 5.8 13.1 13.5s-5.8 14-13.1 14c-2.8 0-5.6-.9-7.9-2.5l-4.7-3.3v34h-23.1c.5-1.8.8-3.7.8-5.6 0-10.9-8.9-19.8-19.8-19.8S193 208.1 193 219c0 1.9.3 3.8.8 5.6h-23.2v-84H194c-3.4 10.4 2.3 21.5 12.6 24.9 10.4 3.4 21.5-2.3 24.9-12.6.6-2 1-4.1 1-6.1 0-2.1-.3-4.2-1-6.1h23.4m3-3.1h-31c5.1 7.8 2.9 18.1-4.9 23.2-7.8 5.1-18.1 2.9-23.2-4.9-3.6-5.6-3.6-12.8 0-18.3h-31.1v90.1h30.7c-4.8-7.9-2.2-18.2 5.8-23 7.9-4.8 18.2-2.2 23 5.8 3.2 5.3 3.2 11.9 0 17.3h30.7v-31.3c2.8 2 6.2 3 9.6 3 9.3 0 16.1-7.8 16.1-17s-6.8-16.5-16.1-16.5c-3.4 0-6.8 1-9.6 3v-31.4z" fill="url(#SVGID_14_)"/><linearGradient id="SVGID_15_" gradientUnits="userSpaceOnUse" x1="303.117" y1="233.873" x2="303.117" y2="350.52" gradientTransform="matrix(1 0 0 -1 0 578)"><stop offset="0" stop-color="#1c4189"/><stop offset=".44" stop-color="#768fb6"/><stop offset=".82" stop-color="#beced9"/><stop offset="1" stop-color="#dae6e7"/></linearGradient><path d="M345.4 230.5V264l4.6-3c2.2-1.5 4.8-2.2 7.5-2.2 7.4 0 12.9 6 12.9 14 0 7.8-5.4 13.5-12.9 13.5-2.7 0-5.3-.8-7.5-2.2l-4.6-3v33.6h-34.2l3.4 4.7c4.4 6.2 2.9 14.8-3.3 19.2-6.2 4.4-14.8 2.9-19.2-3.3-3.4-4.8-3.4-11.1 0-15.9l3.4-4.7h-34.2v-33l-4.5 2.7c-6.5 3.9-15 1.8-18.9-4.7s-1.8-15 4.7-18.9c4.4-2.6 9.8-2.6 14.2 0l4.5 2.7v-33h23.4c-3.7 10.3 1.7 21.6 12 25.3 10.3 3.7 21.6-1.7 25.3-12 .8-2.2 1.2-4.5 1.1-6.8 0-2.2-.4-4.5-1.1-6.6l23.4.1m3-3H317c5.3 7.6 3.5 18-4.1 23.4-7.6 5.3-18 3.5-23.4-4.1-4-5.8-4-13.5 0-19.2h-31.3v30.7c-7.9-4.8-18.2-2.2-23 5.7-4.8 7.9-2.2 18.2 5.7 23 5.3 3.2 12 3.2 17.3 0v30.7h31.4c-5.3 7.6-3.6 18 4 23.4 7.6 5.3 18 3.6 23.4-4 4.1-5.8 4.1-13.6 0-19.4h31.4v-31c2.7 1.8 5.9 2.7 9.1 2.7 9.3 0 15.9-7.2 15.9-16.5s-6.6-17-15.9-17c-3.2 0-6.4.9-9.1 2.7v-31.1z" fill="url(#SVGID_15_)"/></g><path class="st29" d="M500 326.7c0-3.2-.9-6.4-2.7-9.1h31.1v-90.2h-30.7c4.8-7.9 2.2-18.2-5.7-23-7.9-4.8-18.2-2.2-23 5.7-3.2 5.3-3.2 12 0 17.3h-30.7v31.4c-7.6-5.4-18-3.6-23.4 4-5.4 7.6-3.6 18 4 23.4 5.8 4.1 13.6 4.1 19.4 0v31.4h31c-1.8 2.7-2.7 5.9-2.7 9.1 0 9.3 7.5 16.2 16.8 16.2s16.6-7 16.6-16.2zM528.4 47.5h-90.2v30.7c-7.9-4.8-18.2-2.2-23 5.7s-2.2 18.2 5.7 23c5.3 3.2 12 3.2 17.3 0v30.7h31.4c-2 2.8-3.1 6.2-3.1 9.7 0 9.3 7.5 16.2 16.7 16.2s16.8-6.9 16.8-16.2c0-3.5-1.1-6.8-3.1-9.7h31.4l.1-90.1zM249.3 75.8c3 0 6 .8 8.6 2.4V47.5h-90.2v90.2h31.4c-5.3 7.6-3.6 18 4 23.4 7.6 5.3 18 3.6 23.4-4 4.1-5.8 4.1-13.6 0-19.4h31.4V107c-7.9 4.8-18.2 2.2-23-5.7s-2.2-18.2 5.7-23c2.6-1.7 5.6-2.5 8.7-2.5z"/><path class="st29" d="M500 326.1c0-3-.8-6-2.4-8.6h30.7v90.2h-90.1v-31.4c-7.6 5.3-18 3.6-23.4-4-5.3-7.6-3.6-18 4-23.4 5.8-4.1 13.6-4.1 19.4 0v-31.4h30.7c-4.8 7.9-2.3 18.2 5.6 23 7.9 4.8 18.2 2.3 23-5.6 1.7-2.7 2.5-5.7 2.5-8.8zM429.5 75.8c3 0 6 .8 8.6 2.4V47.5H348v31.1c7.8-5.1 18.1-2.9 23.2 4.9s2.9 18.1-4.9 23.2c-5.6 3.6-12.8 3.6-18.3 0v31.1h30.3c-4.4-8.1-1.5-18.3 6.7-22.8s18.3-1.5 22.8 6.7c2.7 5 2.7 11.1 0 16.1h30.3V107c-7.9 4.7-18.2 2.1-23-5.8S413 83 421 78.2c2.6-1.5 5.5-2.4 8.5-2.4z"/><path class="st29" d="M497.3 137.6c5.1 7.8 2.9 18.1-4.9 23.2-7.8 5.1-18.1 2.9-23.2-4.9-3.6-5.6-3.6-12.8 0-18.3h-31v31.3c-7.6-5.3-18-3.5-23.4 4.1-5.3 7.6-3.5 18 4.1 23.4 5.8 4 13.5 4 19.2 0v31.3h30.7c-4.8-7.9-2.2-18.2 5.8-23 7.9-4.8 18.2-2.2 23 5.8 3.2 5.3 3.2 11.9 0 17.3h30.7v-90.1h-31zM438.1 376.6c-7.8 5.1-18.1 2.9-23.2-4.9-5.1-7.8-2.9-18.1 4.9-23.2 5.6-3.6 12.8-3.6 18.3 0v-31.1h-31.3c5.3-7.6 3.5-18-4.1-23.4-7.6-5.3-18-3.5-23.4 4.1-4 5.8-4 13.5 0 19.2H348V348c7.9-4.8 18.2-2.2 23 5.8 4.8 7.9 2.2 18.2-5.8 23-5.3 3.2-11.9 3.2-17.3 0v30.7H438l.1-30.9z"/><path class="st29" d="M407.4 137.3c1.6-2.6 2.4-5.6 2.4-8.6 0-9.3-7.4-15.8-16.7-15.8s-16.8 6.5-16.8 15.8c0 3 .8 6 2.4 8.6H348v31.4c-2.8-2-6.2-3.1-9.7-3.1-9.3 0-16.3 7.5-16.3 16.8-.2 9 7 16.5 16 16.7h.3c3.5 0 6.8-1.1 9.7-3.1v31.4h.1v-.2h31.3c-5.3-7.6-3.5-18 4.1-23.4 7.6-5.3 18-3.5 23.4 4.1 4 5.8 4 13.5 0 19.2h31.3v-30.9c-7.6 5.3-18 3.5-23.4-4.1-5.3-7.6-3.5-18 4.1-23.4 5.8-4 13.5-4 19.2 0v-31.6h-30.7z"/><path class="st29" d="M429 255.6c3.3 0 6.4.9 9.1 2.7v-31h-31.3c5.3-7.6 3.5-18-4.1-23.4-7.6-5.3-18-3.5-23.4 4.1-4 5.8-4 13.5 0 19.2H348V258c7.9-4.8 18.2-2.2 23 5.8 4.8 7.9 2.2 18.2-5.8 23-5.3 3.2-11.9 3.2-17.3 0v30.7h31.3c-5.3-7.6-3.5-18 4.1-23.4 7.6-5.3 18-3.5 23.4 4.1 4 5.8 4 13.5 0 19.2H438v-31c-7.8 5.1-18.1 2.9-23.2-4.9-5.1-7.8-2.9-18.1 4.9-23.2 2.8-1.7 6-2.7 9.3-2.7z"/><path class="st29" d="M317 137.3c5.3-7.6 3.5-18-4.1-23.4-7.6-5.3-18-3.5-23.4 4.1-4 5.8-4 13.5 0 19.2h-31.3V168c7.9-4.8 18.2-2.2 23 5.8 4.8 7.9 2.2 18.2-5.8 23-5.3 3.2-11.9 3.2-17.2 0v30.7h31.3c-5.3 7.6-3.5 18 4.1 23.4 7.6 5.3 18 3.5 23.4-4.1 4-5.8 4-13.5 0-19.2h31.3l-.3-31.4c-2.6 1.7-5.4 3.1-8.8 3.1-9.3.2-16.9-7.1-17.2-16.4-.2-9.3 7.1-16.9 16.4-17.2h.8c3.2.1 6.3 1.2 8.8 3.1l.3-31.4-31.3-.1z"/><path class="st29" d="M357.2 75.8c-3.3 0-6.4.9-9.1 2.7v-31h-90.2v30.7c-7.9-4.8-18.2-2.2-23 5.7-4.8 7.9-2.2 18.2 5.7 23 5.3 3.2 12 3.2 17.3 0v30.7h.3v-.4h31.3c-5.3-7.6-3.5-18 4.1-23.4 7.6-5.3 18-3.5 23.4 4.1 4 5.8 4 13.5 0 19.2h31.1v-30.7c7.8 5.1 18.1 2.9 23.2-4.9s2.9-18.1-4.9-23.2c-2.7-1.6-5.9-2.5-9.2-2.5zM248.9 379.3c3.3 0 6.4-.9 9.1-2.7v31h90.2v-30.7c7.9 4.8 18.2 2.2 23-5.7s2.2-18.2-5.7-23c-5.3-3.2-12-3.2-17.3 0v-30.4h-31.6c5.3 7.6 3.5 18-4.1 23.4-7.6 5.3-18 3.5-23.4-4.1-4-5.8-4-13.4 0-19.2H258v30.7c-7.8-5-18.1-2.8-23.2 4.9-5 7.8-2.8 18.1 4.9 23.2 2.7 1.7 5.9 2.6 9.2 2.6z"/><path class="st29" d="M198.8 137.6c-5.1 7.8-2.9 18.1 4.9 23.2 7.8 5.1 18.1 2.9 23.2-4.9 3.6-5.6 3.6-12.8 0-18.3h31v31.3c2.8-2 6.2-3 9.6-3 9.3 0 16.1 7.3 16.1 16.5s-6.8 17-16.1 17c-3.4 0-6.8-1-9.6-3v31.3h-30.7c4.8-7.9 2.2-18.2-5.8-23-7.9-4.8-18.2-2.2-23 5.8-3.2 5.3-3.2 11.9 0 17.3h-30.7v-90.1h31.1zM357.5 255.8c-3.2 0-6.4.9-9.1 2.7v-31H317c5.3 7.6 3.5 18-4.1 23.4-7.6 5.3-18 3.5-23.4-4.1-4-5.8-4-13.5 0-19.2h-31.3v30.7c-7.9-4.8-18.2-2.2-23 5.7-4.8 7.9-2.2 18.2 5.7 23 5.3 3.2 12 3.2 17.3 0v30.7h31.4c-5.3 7.6-3.6 18 4 23.4 7.6 5.3 18 3.6 23.4-4 4.1-5.8 4.1-13.6 0-19.4h31.4v-31c2.7 1.8 5.9 2.7 9.1 2.7 9.3 0 15.9-7.2 15.9-16.5s-6.6-17.1-15.9-17.1z"/><path class="st30" d="M317 137.3c5.3-7.6 3.5-18-4.1-23.4-7.6-5.3-18-3.5-23.4 4.1-4 5.8-4 13.5 0 19.2h-31.3V168c7.9-4.8 18.2-2.2 23 5.8 4.8 7.9 2.2 18.2-5.8 23-5.3 3.2-11.9 3.2-17.2 0v30.7h31.3c-5.3 7.6-3.5 18 4.1 23.4 7.6 5.3 18 3.5 23.4-4.1 4-5.8 4-13.5 0-19.2h31.3l-.3-31.4c-2.6 1.7-5.4 3.1-8.8 3.1-9.3.2-16.9-7.1-17.2-16.4-.2-9.3 7.1-16.9 16.4-17.2h.8c3.2.1 6.3 1.2 8.8 3.1l.3-31.4-31.3-.1zM438.1 376.6c-7.8 5.1-18.1 2.9-23.2-4.9-5.1-7.8-2.9-18.1 4.9-23.2 5.6-3.6 12.8-3.6 18.3 0v-31.1h-31.3c5.3-7.6 3.5-18-4.1-23.4-7.6-5.3-18-3.5-23.4 4.1-4 5.8-4 13.5 0 19.2H348V348c7.9-4.8 18.2-2.2 23 5.8 4.8 7.9 2.2 18.2-5.8 23-5.3 3.2-11.9 3.2-17.3 0v30.7H438l.1-30.9z"/><path class="st31" d="M84.8 401.9c1.1 5-.2 9.5-2.8 10.1s-5.7-3-6.7-8 .2-9.5 2.8-10.1 5.6 3 6.7 8zM82.1 367.7c1.7 8.1 0 15.4-3.8 16.2s-8.4-5.1-10.2-13.2 0-15.4 3.8-16.2 8.4 5 10.2 13.2zM52.9 356.1c8.8 24.2 5.7 47-2.6 50-5.7-7.7-10.7-15.2-13.7-22-10.5-17.2-16-37-16-57.2 0-3.1.1-6.2.3-9.2l.9.1c8.4-3 22.3 14.1 31.1 38.3z"/><path d="M260 357.4c-.4 1.5-.8 3.1-1.2 4.7-5.3 19.4-13.7 44.6-26.4 68.9-28.7 54.5-79.3 104.2-165.4 72.3.9.1 59.3 5 69.4-47.6 4.2-27.7 8-36.7 8-36.7v-.4c17.1 2.1 36.3-3.7 46-28.4 6.8-17.3 7.1-32.1 4.8-43.7-.1 0 48.6-26.3 64.8 10.9z" fill="#b8c3ec"/><path class="st33" d="M258.8 362.1s23.5 19.7 21.2 72c0 0-32.2 9.1-47.7-3.1 12.8-24.2 21.2-49.5 26.5-68.9zM52.9 356.1c-8.8-24.2-22.8-41.3-31.1-38.3l-.9-.1c3.7-51.7 38.8-94.9 89.5-108.1l-1.7 4.8c-.3.9 0 1.9.8 2.5 6.8 4.6 14.5 7.6 22.6 8.8 7.9 1.2 16 .3 23.4-2.7.7-.4 1.2-1.1 1.1-1.9l-.7-13.4-.1-2.3c51.7 2.8 59.6 34.7 98.7 86.6 8 10.4 12.1 23.3 11.7 36.4-.3 8.1-2 16-4.9 23.5-.4 1.8-.9 3.6-1.4 5.5-16.1-37.2-64.9-10.9-64.9-10.9 2.3 11.6 2 26.4-4.8 43.7-9.7 24.6-28.9 30.4-46 28.4v.4s-3.8 9-8 36.7c-10.2 52.6-68.5 47.7-69.4 47.6-3.3-1.2-6.7-2.6-10.1-4.1-5.1-2.2 8 49.3-50.8 52.3 0 0-22-42.1 31.5-60.6 0 0-44-.8-26.9-65.9 0 0 54.5 9.5 47 57.6 0 0 25.4 9.1 27.7-14.4.1-.7.1-1.3.1-2 0-17-19.8-39.5-34.9-60 8.3-3.1 11.4-25.9 2.5-50.1zm61.9-62.5c-5.4 0-9.7 4.4-9.7 9.7 0 5.4 4.4 9.7 9.7 9.7 5.4 0 9.7-4.4 9.7-9.7s-4.4-9.7-9.7-9.7zm99-19.1c0-5.4-4.3-9.7-9.7-9.7-5.4 0-9.7 4.3-9.7 9.7 0 5.4 4.3 9.7 9.7 9.7 5.3 0 9.6-4.3 9.7-9.7zM81.9 412c2.7-.6 3.9-5.1 2.8-10.1s-4.1-8.6-6.7-8-3.9 5.1-2.8 10.1 4.1 8.5 6.7 8zm-3.7-28.1c3.9-.8 5.6-8.1 3.8-16.2s-6.3-14.1-10.2-13.3-5.6 8.1-3.8 16.2 6.3 14.1 10.2 13.3z"/><path class="st34" d="M209.7 272.1c1.1 0 2 .9 2 2 0 4.4-3.6 8-8 8-1.1 0-2-.9-2-2s.9-2 2-2c2.2 0 4-1.8 4-4 0-1.1.9-2 2-2z"/><circle class="st35" cx="200.3" cy="271.4" r="3.4"/><path class="st36" d="M211.7 274.1c0-1.1-.9-2-2-2s-2 .9-2 2c0 2.2-1.8 4-4 4-1.1 0-2 .9-2 2s.9 2 2 2c4.4 0 8-3.6 8-8zm-7.7-9.3c5.4 0 9.7 4.3 9.7 9.7s-4.3 9.7-9.7 9.7c-5.4 0-9.7-4.3-9.7-9.7 0-5.3 4.3-9.7 9.7-9.7zm-3.7 3.2c-1.9 0-3.4 1.5-3.4 3.4s1.5 3.4 3.4 3.4 3.4-1.5 3.4-3.4-1.5-3.4-3.4-3.4z"/><path class="st37" d="M154.9 186.8l1 18.5-1.9-.1-.9-17.1c.4-.4.8-.8 1.2-1.3h.6z"/><path class="st37" d="M154.3 186.9c-.4.4-.8.9-1.2 1.3l-.1-2.7 1.3 1.4zM154 205.3l1.9.1.1 2.3c-.6-.2-1.3-.4-1.9-.6l-.1-1.8zM153.8 164.9l1.1 21.9h-.6l-1.3-1.4-1-19.6c.4-.3.7-.6 1.1-.9h.7z"/><path class="st37" d="M153.1 188.1l.9 17.1-1.9-.1-.8-15.5c.6-.3 1.2-.9 1.8-1.5zM153 165c-.4.3-.7.6-1.1.9l-.1-2.5 1.2 1.6z"/><path class="st37" d="M152.4 138.2l1.4 26.8h-.8l-1.2-1.6-1.3-24.2c.4-.3.8-.6 1.1-1h.8zM150.1 167.2c.6-.4 1.2-.9 1.8-1.3l1 19.6-1.3-1.4-.6.6-.9-17.5z"/><path class="st37" d="M151.7 138.2c-.4.4-.8.7-1.1 1l-.1-2.5 1.2 1.5zM153 185.4l.1 2.7c-.6.6-1.2 1.1-1.8 1.6l-.3-5.1.6-.6 1.4 1.4z"/><path class="st38" d="M151 184.6l.3 5.1c-11.2 9.2-27.1 7.9-32.3 7.2h-.1l1.4-3.9c5.8.7 21.3 1.3 30.7-8.4z"/><path class="st37" d="M150.1 167.2l-.2-4.8c.2-.2.5-.4.7-.6l1.2 1.6.1 2.5c-.5.5-1.1.9-1.8 1.3z"/><path class="st37" d="M148.7 140.5c.6-.4 1.2-.8 1.8-1.3l1.3 24.2-1.2-1.6c-.2.2-.5.4-.7.6l-1.2-21.9z"/><path class="st39" d="M130.7 171.3c6.8 1.1 13.7-.4 19.5-4.1l.9 17.4c-9.4 9.7-25 9.1-30.8 8.4l7.8-22.2c.8.2 1.7.4 2.6.5z"/><path class="st38" d="M149.9 162.4l.2 4.8c-5.8 3.7-12.7 5.1-19.5 4.1-.9-.1-1.8-.3-2.7-.5l1.3-3.8c4.1.7 13.2 1.6 20.7-4.6z"/><path class="st37" d="M150.6 139.2c-.6.5-1.2.9-1.8 1.3l-.2-4.7.6-.6 1.3 1.5.1 2.5z"/><path class="st39" d="M148.7 140.5l1.1 21.9c-7.5 6.2-16.6 5.3-20.6 4.5l8.1-23.3c4.1 0 8-1.1 11.4-3.1z"/><path class="st38" d="M148.5 135.8l.2 4.7c-3.5 2-7.4 3.1-11.3 3.2l1.4-4.2c3.6-.3 6.9-1.6 9.7-3.7z"/><path class="st39" d="M147.4 114.9l1.1 20.8c-2.8 2.1-6.1 3.4-9.6 3.7l8.5-24.5zM152.1 205.2l-.8-15.5c-11.2 9.2-27.1 7.9-32.3 7.2h-.1l-4 11.6-2 5.8c18.5 11.6 35.5 7 40 5.4l-.8-14.5z"/><path class="st37" d="M148.8 105.2l1.6 31.5-1.3-1.5-.6.6-1.1-20.8-8.6 24.6c-.9.1-1.6.1-2.1.1l12.1-34.5z"/><path class="st37" d="M138.9 139.5l-1.4 4.2h-1.4v-2l.7-2c.5-.1 1.2-.1 2.1-.2z"/><path class="st37" d="M136.8 139.7l-.7 2v-2h.7zM137.4 143.7l-8.1 23.3c-.6-.1-1.3-.3-1.9-.4l8.7-24.8v2c0-.1.5 0 1.3-.1zM128 170.8l-7.7 22.2-1.9-.3 8.5-24.3-.5 1.9c0 .1.6.3 1.6.5z"/><path class="st37" d="M127.4 166.5c.6.2 1.2.3 1.9.4l-1.3 3.8c-1-.2-1.6-.4-1.7-.4l.5-1.9.6-1.9z"/><path class="st37" d="M127.4 166.5l-.7 1.9.5-2c.1.1.2.1.2.1z"/><path class="st34" d="M120.5 300.9c1.1 0 2 .9 2 2 0 4.4-3.6 8-8 8-1.1 0-2-.9-2-2s.9-2 2-2c2.2 0 4-1.8 4-4 0-1.1.9-2 2-2z"/><path class="st37" d="M117.3 196.7c.1 0 .7.1 1.5.2l-4 11.6c-.7.2-1.5.3-2.2.5l2.3-6.5 2.7-7.8-.3 2z"/><path class="st37" d="M120.2 193.1l-1.4 3.9c-.9-.1-1.4-.2-1.5-.2l.3-2 .7-1.9 1.9.2zM117.9 192.7l.4.1-.7 1.9.3-2zM114.9 202.5l-2.3 6.5c-.8.2-1.5.4-2.2.6l2.4-6.9 2.1-.2z"/><path class="st37" d="M117.9 192.7l-.3 2-2.7 7.8-2.1.1 34.2-98.3c.3-.8 1.1-1.4 2-1.2.9.2 1.6 1 1.6 1.9l1.7 33.1h-.7l-1.3-1.5-1.6-31.5-12 34.5h-.7v2l-8.7 24.8h-.1l-.5 2-8.4 24.3h-.4z"/><circle class="st35" cx="111" cy="300.2" r="3.4"/><path class="st37" d="M112.9 214.3c18.5 11.6 35.4 7 40 5.4l-.8-14.5 1.9.1.1 1.8.7 14.1s-21.1 9.5-44.3-6l2.1-6.1c.7-.2 1.5-.4 2.2-.5l-1.9 5.7z"/><path class="st37" d="M132.2 225.6c-8.1-1.2-15.9-4.2-22.6-8.8-.8-.5-1.1-1.6-.8-2.5l1.7-4.8c.7-.2 1.5-.4 2.2-.6l-2.1 6.1c23.2 15.5 44.3 6 44.3 6l-.7-14.1c.6.2 1.3.4 1.9.6l.7 13.4c.1.8-.4 1.6-1.1 1.9-7.6 3.1-15.6 4-23.5 2.8z"/><path class="st36" d="M105 303.3c0-5.4 4.3-9.7 9.7-9.7s9.7 4.3 9.7 9.7c0 5.4-4.3 9.7-9.7 9.7-5.3 0-9.7-4.3-9.7-9.7zm6-6.5c-1.9 0-3.4 1.5-3.4 3.4s1.5 3.4 3.4 3.4 3.4-1.5 3.4-3.4-1.5-3.4-3.4-3.4zm11.4 6.1c0-1.1-.9-2-2-2s-2 .9-2 2c0 2.2-1.8 4-4 4-1.1 0-2 .9-2 2s.9 2 2 2c4.5 0 8.1-3.6 8-8 .1 0 .1 0 0 0z"/><path class="st30" d="M118.3 514.8c-16.4 0-33.7-3.4-51.9-10.1l1-2.8c87.1 32.3 137-21.1 163.5-71.5 13.2-25.1 21.6-51.1 26.3-68.6.4-1.6.8-3.2 1.2-4.7.5-1.9 1-3.8 1.4-5.5v-.2c2.8-7.4 4.4-15.2 4.8-23.1.5-12.8-3.6-25.3-11.4-35.5-8.5-11.3-15.6-21.8-21.9-31-22.4-32.9-35.9-52.8-75.5-55l-.1-3h.3c41.1 2.2 55 22.6 77.9 56.3 6.2 9.2 13.3 19.6 21.8 30.9 8.2 10.7 12.5 23.9 12 37.4-.3 8.2-2 16.3-4.9 23.9-.4 1.7-.9 3.6-1.4 5.5-.4 1.5-.8 3.1-1.2 4.7-4.8 17.6-13.3 43.9-26.6 69.2-17 32.4-37.8 55.6-61.8 69.2-16.3 9.2-34.7 14.1-53.5 13.9z"/><path class="st30" d="M5.1 553.1l-.4-.9c-.4-.7-8.9-17.3-2-34.7 4.4-11.1 14.1-19.9 28.9-26-7.4-1.7-13.9-6-18.6-12-9-11.9-10.4-30.4-3.9-54.9l.4-1.3 1.4.2c9.6 2 18.7 5.7 26.9 11 11.7 7.8 24.9 22.2 21.5 47 3.2.9 12 2.8 18.1-1 3.7-2.4 5.9-6.5 6.4-12.5.1-.6.1-1.2.1-1.9 0-13.6-13.5-31.2-26.5-48.3-2.7-3.6-5.5-7.3-8.2-10.8l2.4-1.8c2.6 3.5 5.4 7.2 8.1 10.8 13.3 17.5 27.1 35.5 27.1 50.1 0 .7 0 1.4-.1 2.1-.7 6.9-3.3 11.8-7.8 14.7-8.8 5.6-21.3 1.2-21.8 1l-1.2-.4.2-1.2c3-19.3-3.7-34.6-19.9-45.3-7.5-4.8-15.8-8.3-24.5-10.3-5.8 22.9-4.5 40.1 3.8 51 8.6 11.1 21.9 11.5 22.1 11.5l8.4.1-8 2.8c-17 5.9-27.9 14.8-32.5 26.3-5.5 13.9-.1 27.8 1.5 31.3 18-1.1 31.3-6.8 39.5-17 11.7-14.5 8.9-33.4 8.8-33.5l-.4-2.7 2.5 1.1c3.4 1.5 6.8 2.8 10.1 4l-1.1 2.8c-2.5-.9-5.2-2-7.8-3.1.4 6 .3 20.9-9.7 33.3-9 11.3-23.4 17.4-42.8 18.4l-1 .1z"/><path class="st30" d="M49.1 407c-4.7-6.4-10.5-14.6-13.9-22.2C24.6 367.3 19 347.3 19 326.9c0-3.1.1-6.3.3-9.3 1.7-25.4 11.3-49.7 27.5-69.3 16.2-19.7 38.3-33.7 63-40.1l1.1-.3s-.8 2.2-1.2 3.4c-49.4 13.3-83.7 55-87.4 106.5-.2 3-.3 6-.3 9.1 0 19.9 5.5 39.4 15.8 56.4l.1.2c3.3 7.3 9 15.5 13.6 21.7l-2.4 1.8zM188.3 302.6c-.8-2.1-2.6-3.3-5.2-3.6.5-.6.9-1.3 1.1-2 .5-1.5.2-3.2-.7-4.5-3.4-5.2-10.3-3.2-13.5-1.4-.7.4-1 1.3-.7 2 .4.7 1.3 1 2 .7 0 0 .1 0 .1-.1.1 0 6.8-3.8 9.5.4.4.5.6 1.3.4 1.9-.4 1.3-2.5 2.8-5.4 3.9-.5.2-.9.3-1 .4h-.1c-.8.3-1.2 1.1-.9 1.9.2.6.8 1 1.4 1 .2 0 .3 0 .5-.1h.1c.2 0 .5-.2 1-.3 1.3-.4 7.6-2.2 8.7.7.2.5.1 1.1-.1 1.6-1.2 2.5-6 4.6-7.8 5.2-.8.3-1.2 1.1-.9 1.9.2.6.8 1 1.4 1 .2 0 .3 0 .5-.1.8-.3 7.6-2.7 9.5-6.7.4-1.2.5-2.6.1-3.8zM93 298.3c-.7 0-1.3-.5-1.5-1.2-.2-.8.4-1.6 1.2-1.8l31.3-6.1-1.8-5.7c-.2-.8.2-1.6 1-1.9.8-.2 1.5.2 1.8.9l2.4 7.3c.1.4.1.9-.1 1.2-.2.4-.6.6-1 .7l-33 6.4c-.1.2-.2.2-.3.2zM186.2 254.3c-.8 0-1.5-.7-1.5-1.5 0-.3.1-.7.3-.9.3-.4 7.6-9.3 23.1-4.1.8.3 1.2 1.1.9 1.9s-1.1 1.2-1.9.9c-13.5-4.5-19.8 3-19.8 3.1-.2.4-.6.6-1.1.6zM150.6 420.5c-2.2 0-4.3-.1-6.5-.4-15.4-1.9-28.4-9.7-32.8-16.1-.5-.7-.3-1.6.4-2.1s1.6-.3 2.1.4c4.1 6 16.8 13.2 30.7 14.9 12 1.4 33.7-.2 44.4-27.4 5.8-14.8 7.4-29.2 4.7-42.9-1.9-10.3-6.5-20-13.1-28.1-39.8 15.2-52.1 41.5-55.9 56-1 3.7-1.6 7.4-1.8 11.2 0 .8-.7 1.5-1.5 1.5s-1.5-.7-1.5-1.5c.2-4.1.8-8.1 1.9-12 4-15.1 16.9-42.8 58.7-58.4l.9-.3.7.7c.4.5 10.8 11.2 14.6 30.3 2.8 14.2 1.1 29.2-4.9 44.5-9.8 24.7-28 29.7-41.1 29.7z"/><path class="st30" d="M109.5 381.4c-.8 0-1.5-.7-1.5-1.5 0-.4.2-.8.5-1.1 3.9-3.9 9.3-6 14.8-6 .8.1 1.5.8 1.4 1.6-.1.8-.8 1.5-1.6 1.4-4.7 0-9.2 1.9-12.5 5.2-.3.2-.7.4-1.1.4zM255.9 439c-8.7 0-18-1.5-24.6-6.8-.6-.5-.8-1.4-.3-2.1.5-.6 1.5-.8 2.1-.2 13.2 10.5 39.7 4.5 45.3 3.1 1.9-50.1-20.5-69.5-20.7-69.7-.6-.5-.7-1.5-.2-2.1s1.5-.7 2.1-.2c1 .8 24 20.8 21.8 73.2v1.1l-1 .3c-8 2.2-16.2 3.3-24.5 3.4zm24-4.8z"/><linearGradient id="SVGID_16_" gradientUnits="userSpaceOnUse" x1="226.455" y1="112.92" x2="369.031" y2="112.92" gradientTransform="matrix(1 0 0 -1 0 578)"><stop offset="0" stop-color="#c4d4e8"/><stop offset=".38" stop-color="#d7e6f1"/><stop offset="1" stop-color="#f3ffff"/></linearGradient><path d="M254 447.4c-7.1-6-17.7-5-23.6 2.1-6 7.1-5 17.7 2.1 23.6 5.4 4.5 13 5.2 19.1 1.7l-2.7 31.2 30.6 2.7c-4-8.3-.6-18.3 7.7-22.4 2.7-1.3 5.8-1.9 8.8-1.6 9.2.8 16 8.9 15.3 18.1-.3 3-1.3 6-3.1 8.4l30.6 2.7 2.7-31.2c7.1 5.9 17.7 5 23.6-2.1 5.9-7.1 5-17.7-2.1-23.6-5.4-4.5-13-5.2-19.2-1.7l2.7-31.2-30.9-2.7c1.5 2.9 2.2 6.1 1.9 9.4-.8 9.2-8.9 16.1-18.2 15.3-9.2-.8-16.1-8.9-15.3-18.2.3-3.2 1.5-6.3 3.5-8.9l-30.9-2.7-2.6 31.1z" fill="url(#SVGID_16_)" stroke="#1c4189" stroke-width="2" stroke-miterlimit="10"/><path class="st14" d="M244.8 443.6c-4-.4-8 .7-11.2 3.1l5.7 9.3 11.8-10.6c-2-1-4.2-1.6-6.3-1.8zM256.8 416.3l-2.3 25.9 19.1-17.2-5.7-7.8z"/><path class="st2" d="M241.8 477c3.4.3 6.8-.5 9.8-2.2l-2.7 31.2 10.7.9 6.3-6.8-.1-.1 35.2-37.9 36-38.9-21.3-1.9c1.5 2.9 2.2 6.1 1.9 9.4-.8 9.2-8.9 16.1-18.1 15.3-9.2-.8-16.1-8.9-15.3-18.1.3-3.3 1.5-6.4 3.5-8.9l-6.8-.6-7.3 6.6-19.1 17.3-.4 5.2c-.9-.8-2-1.4-3.1-2L239.2 456l-11.5 10.4c2.3 6 7.8 10 14.1 10.6z"/><path class="st14" d="M270.7 507.9l8.8.8c-4-8.3-.6-18.3 7.7-22.4 2.7-1.3 5.8-1.9 8.8-1.6 9.2.8 16 8.9 15.3 18.1-.3 3-1.3 6-3.1 8.4l30.6 2.7.1-.9-37.9-50.8-35.1 38 4.8 7.7z"/><g class="st6"><linearGradient id="SVGID_17_" gradientUnits="userSpaceOnUse" x1="297.709" y1="64.14" x2="297.709" y2="161.7" gradientTransform="matrix(1 0 0 -1 0 578)"><stop offset="0" stop-color="#1c4189"/><stop offset=".44" stop-color="#768fb6"/><stop offset=".82" stop-color="#beced9"/><stop offset="1" stop-color="#dae6e7"/></linearGradient><path d="M259.5 419.5l23.2 2c-.8 1.9-1.3 3.9-1.5 6-.9 10.9 7.1 20.5 18 21.4.6.1 1.2.1 1.7.1 10.9 0 19.8-8.9 19.7-19.8 0-1.5-.2-3-.5-4.5l23.2 2-2.5 28.3-.5 5.7 5-2.9c2.1-1.2 4.5-1.8 6.9-1.8h1.2c7.6.7 13.1 7.4 12.4 15-.7 7-6.5 12.4-13.6 12.5H351c-2.8-.2-5.5-1.3-7.6-3.2l-4.4-3.7-.5 5.7-2.5 28.2-23-2c4-10.1-1-21.6-11.1-25.6-1.8-.7-3.7-1.1-5.6-1.3-.6 0-1.2-.1-1.7-.1-10.9 0-19.7 8.8-19.7 19.8 0 1.3.1 2.6.4 3.9l-23.1-2 2.5-28.2.5-5.7-5 2.9c-2.1 1.2-4.5 1.8-6.9 1.8h-1.2c-7.6-.6-13.2-7.3-12.5-14.9.6-7.1 6.6-12.6 13.7-12.6.4 0 .8 0 1.2.1 2.8.2 5.5 1.3 7.6 3.2l4.4 3.7.5-5.7 2.5-28.3m-2.8-3.2l-2.7 31.1c-2.6-2.2-5.9-3.6-9.3-3.9-.5 0-1-.1-1.5-.1-9.3 0-16.8 7.5-16.8 16.8 0 8.7 6.7 16 15.4 16.7.5 0 1 .1 1.5.1 2.9 0 5.8-.8 8.4-2.2L249 506l30.6 2.7c-4-8.3-.6-18.3 7.7-22.4 2.3-1.1 4.8-1.7 7.3-1.7.5 0 1 0 1.5.1 9.2.8 16 8.9 15.3 18.1-.3 3-1.3 6-3.1 8.4l30.6 2.7 2.7-31.2c2.6 2.2 5.9 3.6 9.3 3.9.5 0 1 .1 1.5.1 9.3 0 16.7-7.6 16.7-16.9 0-8.6-6.6-15.8-15.2-16.6-.5 0-1-.1-1.5-.1-2.9 0-5.8.8-8.4 2.2l2.7-31.2-30.9-2.7c1.5 2.9 2.2 6.1 1.9 9.4-.8 8.7-8 15.3-16.7 15.3-.5 0-1 0-1.5-.1-9.2-.8-16-9-15.2-18.2.3-3.2 1.5-6.3 3.5-8.8l-31.1-2.7z" fill="url(#SVGID_17_)"/></g><path class="st4" d="M254 447.4c-7.1-6-17.7-5-23.6 2.1-6 7.1-5 17.7 2.1 23.6 5.4 4.5 13 5.2 19.1 1.7l-2.7 31.2 30.6 2.7c-4-8.3-.6-18.3 7.7-22.4 2.7-1.3 5.8-1.9 8.8-1.6 9.2.8 16 8.9 15.3 18.1-.3 3-1.3 6-3.1 8.4l30.6 2.7 2.7-31.2c7.1 5.9 17.7 5 23.6-2.1 5.9-7.1 5-17.7-2.1-23.6-5.4-4.5-13-5.2-19.2-1.7l2.7-31.2-30.9-2.7c1.5 2.9 2.2 6.1 1.9 9.4-.8 9.2-8.9 16.1-18.2 15.3-9.2-.8-16.1-8.9-15.3-18.2.3-3.2 1.5-6.3 3.5-8.9l-30.9-2.7-2.6 31.1z"/></svg>