<svg xmlns="http://www.w3.org/2000/svg" viewBox="0 0 67 47.7"><path d="M17.1 15.6c.8.5 1.4 1.1 1.9 1.7l-1.5 1.3c-.4-.6-.8-1-1.4-1.4-.6-.4-1.1-.6-1.8-.7-.8-.1-1.6-.1-2.3.2-.7.3-1.3.7-1.8 1.3-.5.6-.8 1.3-1 2.1s-.1 1.5.2 2.3.7 1.3 1.3 1.8c.6.5 1.3.8 2.1 1 .6.1 1.2.1 1.9-.1.6-.1 1.2-.4 1.8-.8l1 1.6c-.7.5-1.5.9-2.4 1.1-.9.2-1.8.2-2.6.1-1.2-.2-2.2-.7-3.1-1.4C8.6 24.9 8 24 7.6 23c-.4-1-.5-2.1-.3-3.3.2-1.1.7-2.1 1.4-2.9s1.6-1.4 2.7-1.8 2.2-.5 3.4-.2c.8 0 1.6.3 2.3.8zm10 11.9l-.3 1.9-7.3-1.3L21.6 16l2 .4-1.8 10.3 5.3.8zm1.8 2.2L31 17.6l2 .4-2.1 12.1-2-.4zm15.3-9.4c.8.5 1.4 1.1 1.9 1.7l-1.5 1.3c-.4-.6-.8-1-1.4-1.4-.6-.4-1.1-.6-1.8-.7-.8-.1-1.6-.1-2.3.2-.7.3-1.3.7-1.8 1.3-.5.6-.8 1.3-1 2.1s-.1 1.5.2 2.3c.3.7.7 1.3 1.3 1.8.6.5 1.3.8 2.1 1 .6.1 1.2.1 1.9-.1.6-.1 1.2-.4 1.8-.8l1 1.6c-.7.5-1.5.9-2.4 1.1-.9.2-1.8.2-2.6.1-1.2-.2-2.2-.7-3.1-1.4-.9-.7-1.5-1.6-1.9-2.6-.4-1-.5-2.1-.3-3.3.2-1.1.7-2.1 1.4-2.9s1.6-1.4 2.7-1.8c1.1-.4 2.2-.5 3.4-.2.9 0 1.7.3 2.4.7zm7.4 7.9l-2.5 1.9-.5 3.1-2-.4 2.1-12.1 2 .4-1.1 6.3 6.9-5.3 2.4.4-5.6 4.4 3.8 7.8-2.5-.4-3-6.1z"/></svg>