<svg xmlns="http://www.w3.org/2000/svg" viewBox="0 0 67 47.7"><path d="M15.6 19.6c.8.3 1.6.7 2.2 1.2l-1.1 1.6c-.5-.5-1-.8-1.7-1-.6-.2-1.3-.3-1.9-.3-.8.1-1.5.3-2.2.7-.6.4-1.1 1-1.5 1.7-.3.7-.4 1.4-.4 2.2.1.8.3 1.5.7 2.1.4.6 1 1.1 1.7 1.5.7.3 1.4.5 2.3.4.6 0 1.2-.2 1.8-.5.6-.3 1.1-.7 1.5-1.2l1.3 1.3c-.6.7-1.3 1.2-2.1 1.6-.8.4-1.7.7-2.5.7-1.2.1-2.3-.1-3.3-.6s-1.8-1.2-2.5-2.1c-.6-.9-1-2-1.1-3.1-.1-1.1.1-2.2.6-3.2s1.2-1.8 2.2-2.4c1-.6 2-1 3.2-1 1.1 0 1.9.1 2.8.4zm12.5 9.1l.1 1.9-7.4.5-.8-12.3 2.1-.1.7 10.4 5.3-.4zm2.2 1.8l-.8-12.3 2.1-.1.8 12.3-2.1.1zM43 17.7c.8.3 1.6.7 2.2 1.2l-1.1 1.6c-.5-.5-1-.8-1.7-1-.6-.2-1.3-.3-1.9-.3-.8.1-1.5.3-2.2.7-.6.4-1.1 1-1.5 1.7-.3.7-.5 1.4-.4 2.2.1.8.3 1.5.7 2.1.4.6 1 1.1 1.7 1.5.7.3 1.4.5 2.3.4.6 0 1.2-.2 1.8-.5.6-.3 1.1-.7 1.5-1.2l1.3 1.3c-.6.7-1.3 1.2-2.1 1.6-.8.4-1.7.7-2.5.7-1.2.1-2.3-.1-3.3-.6S36 27.9 35.3 27c-.6-.9-1-2-1.1-3.1-.1-1.1.1-2.2.6-3.2s1.2-1.8 2.2-2.4c1-.6 2-1 3.2-1 1.1 0 1.9.1 2.8.4zm9 5.9L50.1 26l.2 3.1-2.1.1-.8-12.2 2.1-.1.4 6.4 5.4-6.8 2.4-.2-4.4 5.6 5.5 6.7-2.5.2-4.3-5.2z"/></svg>