<svg xmlns="http://www.w3.org/2000/svg" viewBox="0 0 153.3 91"><path fill="#fff" d="M121.9 26.3l-13.1 15.3L103 26 84 8.7l-16.2 15L38.6.4 7.7 26.5.8 59.6H.7v.3h.1L6 74.5l14.4.2 13.9 12.2 6.7-4.5 10.9 6 21.7-13.7 20.8 15.9 4-4.4 13.5.9 10.9-5.4 29.8-21.8z"/><path fill="#d3d3d3" d="M117.3 43l4.9-16.5-.2-.2-13.2 15.3 6.7 18.3h8.2l1.2-13.6zM84 8.7l-10.1 19 1.4 23-7.5-27zM38.6.4L25.3 27.1l-6.2 2-11.4-2.6z"/><path fill="#dbeef2" d="M122.2 26.5l.6 3.7L139.6 50l3.3 7.3-4.4 2.6h13.7zm-34 13.2L84 8.7l-10.1 19 1.7 24.2-7.8-28.2L38.6.4 25.3 27.1l-13.8-3.8-3.8 3.2 18 13-10.9 20.4h.6L21.1 75l3.1-2 10.3 13.6 9.4-21 3.1-.3 1.7-5.7h-3.4L41.6 50l6-11.6-3.5-8 9.5-9.9 19.5 39.4h42.4z"/></svg>