<?xml version="1.0" encoding="utf-8"?>
<!-- Generator: Adobe Illustrator 22.0.1, SVG Export Plug-In . SVG Version: 6.00 Build 0)  -->
<svg version="1.1" xmlns="http://www.w3.org/2000/svg" xmlns:xlink="http://www.w3.org/1999/xlink" x="0px" y="0px"
	 viewBox="0 0 475.1 489.4" style="enable-background:new 0 0 475.1 489.4;" xml:space="preserve">
<style type="text/css">
	.st0{fill:url(#);stroke:#2B2B2B;stroke-width:0.25;stroke-miterlimit:10;}
	.st1{fill:#826354;}
	.st2{fill:#78766C;}
	.st3{fill:#786A5F;}
	.st4{opacity:0.5;fill:#826354;}
	.st5{opacity:0.5;fill:#78766C;}
	.st6{opacity:0.5;fill:#786A5F;}
	.st7{fill:#CEB7A5;stroke:#2B2B2B;stroke-width:0.25;stroke-linecap:round;stroke-linejoin:round;stroke-miterlimit:10;}
	.st8{fill:#BCA696;stroke:#2B2B2B;stroke-width:0.25;stroke-linecap:round;stroke-linejoin:round;stroke-miterlimit:10;}
	.st9{fill:#CEB7A5;stroke:#2B2B2B;stroke-width:0.25;stroke-miterlimit:10;}
	.st10{fill:#CEB7A5;stroke:#2B2B2B;stroke-width:0.25;stroke-linejoin:round;stroke-miterlimit:10;}
	.st11{fill:#BCA696;stroke:#2B2B2B;stroke-width:0.25;stroke-miterlimit:10;}
	.st12{fill:#4046DD;}
	.st13{opacity:0.9;fill:#18186D;}
	.st14{fill:#9198CC;stroke:#2B2B2B;stroke-width:0.25;stroke-miterlimit:10;}
	.st15{fill:#221F1F;}
	.st16{fill:#FFFFFF;}
	.st17{fill:#D6D9ED;stroke:#2B2B2B;stroke-width:0.25;stroke-miterlimit:10;}
	.st18{fill:none;stroke:#1A1A1A;stroke-width:0.75;stroke-linecap:round;stroke-linejoin:round;stroke-miterlimit:10;}
	.st19{fill:#262626;}
	.st20{fill:#CECECD;stroke:#231F20;stroke-miterlimit:10;}
	.st21{fill:#20242B;}
	.st22{fill:#7C5E2A;}
	.st23{clip-path:url(#SVGID_2_);fill:#9198CC;stroke:#2B2B2B;stroke-width:0.25;stroke-miterlimit:10;}
	.st24{clip-path:url(#SVGID_2_);fill:#221F1F;}
	.st25{clip-path:url(#SVGID_2_);fill:#FFFFFF;}
	.st26{clip-path:url(#SVGID_2_);fill:#D6D9ED;stroke:#2B2B2B;stroke-width:0.25;stroke-miterlimit:10;}
	
		.st27{clip-path:url(#SVGID_2_);fill:none;stroke:#1A1A1A;stroke-width:0.75;stroke-linecap:round;stroke-linejoin:round;stroke-miterlimit:10;}
	.st28{clip-path:url(#SVGID_2_);}
	.st29{fill:none;stroke:#6B6B6B;stroke-width:0.25;stroke-linecap:round;stroke-linejoin:round;stroke-miterlimit:10;}
	.st30{clip-path:url(#SVGID_2_);fill:none;}
	.st31{clip-path:url(#SVGID_2_);fill:none;stroke:#505680;stroke-width:0.25;stroke-miterlimit:10;}
	.st32{clip-path:url(#SVGID_2_);fill:#E5EBF1;stroke:#505680;stroke-width:0.25;stroke-miterlimit:10;}
	.st33{fill:#DD615B;stroke:#2B2B2B;stroke-width:0.25;stroke-miterlimit:10;}
	.st34{clip-path:url(#SVGID_4_);}
	.st35{fill:#00035B;}
	.st36{fill:#D5D5D5;stroke:#55504F;stroke-width:0.5;stroke-miterlimit:10;}
	.st37{fill:#F16F69;}
	.st38{fill:#C5665E;stroke:#2B2B2B;stroke-width:0.25;stroke-miterlimit:10;}
	.st39{fill:#3B5CA9;}
	.st40{fill:#FFFFFF;stroke:#2B2B2B;stroke-width:0.25;stroke-miterlimit:10;}
	.st41{fill:#8F8EB2;}
	.st42{fill:#D6D9ED;}
	.st43{fill:#231F20;}
	.st44{fill:#505680;}
	.st45{fill:#F6F7F7;stroke:#231F20;stroke-width:0.25;stroke-miterlimit:10;}
	.st46{fill:#3F458A;}
	.st47{clip-path:url(#SVGID_6_);fill:#9198CC;stroke:#2B2B2B;stroke-width:0.25;stroke-miterlimit:10;}
	.st48{clip-path:url(#SVGID_6_);fill:#221F1F;}
	.st49{clip-path:url(#SVGID_6_);fill:#FFFFFF;}
	.st50{clip-path:url(#SVGID_6_);fill:#D6D9ED;stroke:#2B2B2B;stroke-width:0.25;stroke-miterlimit:10;}
	
		.st51{clip-path:url(#SVGID_6_);fill:none;stroke:#1A1A1A;stroke-width:0.75;stroke-linecap:round;stroke-linejoin:round;stroke-miterlimit:10;}
	.st52{clip-path:url(#SVGID_6_);}
	.st53{clip-path:url(#SVGID_6_);fill:none;}
	.st54{clip-path:url(#SVGID_6_);fill:none;stroke:#505680;stroke-width:0.25;stroke-miterlimit:10;}
	.st55{clip-path:url(#SVGID_6_);fill:#E5EBF1;stroke:#505680;stroke-width:0.25;stroke-miterlimit:10;}
	.st56{fill:#AAACAF;}
	.st57{fill:#626366;}
	.st58{fill:#9198CC;stroke:#2B2B2B;stroke-width:0.25;stroke-linecap:round;stroke-linejoin:round;stroke-miterlimit:10;}
	.st59{fill:none;stroke:#2B2B2B;stroke-width:0.25;stroke-miterlimit:10;}
	.st60{fill:#00A386;stroke:#2B2B2B;stroke-width:0.25;stroke-miterlimit:10;}
	.st61{fill:#854185;stroke:#2B2B2B;stroke-width:0.25;stroke-miterlimit:10;}
	.st62{fill:#BF4041;stroke:#2B2B2B;stroke-width:0.25;stroke-miterlimit:10;}
	.st63{fill:#CCCBCB;}
	.st64{fill:#4D4E4E;stroke:#4D4E4E;stroke-miterlimit:10;}
	.st65{fill:#E6E6E5;}
	.st66{fill:none;stroke:#231F20;stroke-width:3;stroke-miterlimit:10;}
	.st67{fill:#231F20;stroke:#231F20;stroke-miterlimit:10;}
	.st68{fill:#F2F2F2;stroke:#231F20;stroke-width:3;stroke-miterlimit:10;}
	.st69{fill:none;}
	.st70{fill:#666667;stroke:#000000;stroke-miterlimit:10;}
	.st71{fill:none;stroke:#231F20;stroke-miterlimit:10;}
	.st72{fill:#BF4041;}
	.st73{fill:#EE8322;}
	.st74{fill:none;stroke:#000000;stroke-miterlimit:10;}
	.st75{fill:#333333;}
	.st76{fill:#F7E8CE;stroke:#2B2B2B;stroke-width:0.25;stroke-miterlimit:10;}
	.st77{stroke:#231F20;stroke-width:3;stroke-miterlimit:10;}
	.st78{fill:#BA9066;stroke:#2B2B2B;stroke-width:0.25;stroke-miterlimit:10;}
	.st79{fill:#2B2B2B;stroke:#BA9066;stroke-width:0.25;stroke-miterlimit:10;}
	.st80{fill:#DDCFC3;stroke:#2B2B2B;stroke-width:0.25;stroke-linecap:round;stroke-linejoin:round;stroke-miterlimit:10;}
	.st81{fill:#444444;stroke:#2B2B2B;stroke-width:0.5;stroke-linecap:round;stroke-linejoin:round;stroke-miterlimit:10;}
	.st82{fill:none;stroke:#FFFFFF;stroke-miterlimit:10;}
	.st83{fill:#99BFA3;stroke:#2B2B2B;stroke-width:0.25;stroke-linecap:round;stroke-linejoin:round;stroke-miterlimit:10;}
	.st84{fill:#FFFFFF;stroke:#2B2B2B;stroke-width:0.25;stroke-linecap:round;stroke-linejoin:round;stroke-miterlimit:10;}
	.st85{fill:#60436F;stroke:#2B2B2B;stroke-width:0.25;stroke-linecap:round;stroke-linejoin:round;stroke-miterlimit:10;}
	.st86{fill:#826354;stroke:#2B2B2B;stroke-width:0.25;stroke-miterlimit:10;}
	.st87{fill:none;stroke:#2B1007;stroke-miterlimit:10;}
	.st88{fill:none;stroke:#78766C;stroke-miterlimit:10;}
	.st89{fill:#181818;}
	.st90{fill:#595959;}
	.st91{fill:#4B4B4B;}
	.st92{fill:#343434;}
	.st93{fill:#444444;}
	.st94{fill:#525252;}
	.st95{fill:#575757;}
	.st96{fill:#242424;}
	.st97{fill:#373737;}
	.st98{fill:#4C4C4C;}
	.st99{fill:#676767;}
	.st100{fill:#818181;}
	.st101{fill:#959595;}
	.st102{fill:#3D3D3D;}
	.st103{fill:#6D6D6D;}
	.st104{fill:#393939;}
	.st105{fill:#3A3A3A;}
	.st106{fill:#484848;}
	.st107{fill:#737373;}
	.st108{fill:#4F4F4F;}
	.st109{fill:#AAAAAA;}
	.st110{fill:#505050;}
	.st111{fill:#929292;}
	.st112{fill:#9D9D9D;}
	.st113{fill:#8F8F8F;}
	.st114{fill:#868686;}
	.st115{fill:#454545;}
	.st116{fill:#8B8B8B;}
	.st117{fill:#828282;}
	.st118{fill:#4E4E4E;}
	.st119{fill:#9F9F9F;}
	.st120{fill:#717171;}
	.st121{fill:#636363;}
	.st122{fill:#6A6A6A;}
	.st123{fill:#565656;}
	.st124{fill:#BABABA;}
	.st125{fill:#313131;}
	.st126{fill:#474747;}
	.st127{fill:#5B5B5B;}
	.st128{fill:#C3C3C3;}
	.st129{fill:#BDBDBD;}
	.st130{fill:#7A7A7A;}
	.st131{fill:#AFAFAF;}
	.st132{fill:#A6A6A6;}
	.st133{fill:#A7A7A7;}
	.st134{fill:#B8B8B8;}
	.st135{fill:#585858;}
	.st136{fill:#ADADAD;}
	.st137{fill:#939393;}
	.st138{fill:#B5B5B5;}
	.st139{fill:#9A9A9A;}
	.st140{fill:#A1A1A1;}
	.st141{fill:#7F7F7F;}
	.st142{fill:#D9D9D9;}
	.st143{fill:#686868;}
	.st144{fill:#6F6F6F;}
	.st145{fill:#909090;}
	.st146{fill:#919191;}
	.st147{fill:#888888;}
	.st148{fill:#A0A0A0;}
	.st149{fill:#272727;}
	.st150{fill:#202020;}
	.st151{fill:#131313;}
	.st152{fill:#191919;}
	.st153{fill:#232323;}
	.st154{fill:#464646;}
	.st155{fill:#292929;}
	.st156{fill:#212121;}
	.st157{fill:#707070;}
	.st158{fill:#5C5C5C;}
	.st159{fill:#353535;}
	.st160{fill:#7D7D7D;}
	.st161{fill:#545454;}
	.st162{fill:#515151;}
	.st163{fill:#555555;}
	.st164{fill:#8D8D8D;}
	.st165{fill:#787878;}
	.st166{fill:#616161;}
	.st167{fill:#878787;}
	.st168{fill:#1A1A1A;}
	.st169{fill:#5D5D5D;}
	.st170{fill:#424242;}
	.st171{fill:#2F2F2F;}
	.st172{fill:#848484;}
	.st173{fill:#8A8A8A;}
	.st174{fill:#2E2E2E;}
	.st175{fill:#121212;}
	.st176{fill:#363636;}
	.st177{fill:#979797;}
	.st178{fill:#ABABAB;}
	.st179{fill:#D1D1D1;}
	.st180{fill:#898989;}
	.st181{fill:#999999;}
	.st182{fill:#A5A5A5;}
	.st183{fill:#494949;}
	.st184{fill:#969696;}
	.st185{fill:#9C9C9C;}
	.st186{fill:#A3A3A3;}
	.st187{fill:#B0B0B0;}
	.st188{fill:#656565;}
	.st189{fill:#808080;}
	.st190{fill:#BEBEBE;}
	.st191{fill:#BFBFBF;}
	.st192{fill:#C8C8C8;}
	.st193{fill:#777777;}
	.st194{fill:#BCBCBC;}
	.st195{fill:#C5C5C5;}
	.st196{fill:#C1C1C1;}
	.st197{fill:#7C7C7C;}
	.st198{fill:#C2C2C2;}
	.st199{fill:#B9B9B9;}
	.st200{fill:#AEAEAE;}
	.st201{fill:#6C6C6C;}
	.st202{fill:#B6B6B6;}
	.st203{fill:#CECECE;}
	.st204{fill:#B1B1B1;}
	.st205{fill:#767676;}
	.st206{fill:#5E5E5E;}
	.st207{fill:#4D4D4D;}
	.st208{fill:#5F5F5F;}
	.st209{fill:#949494;}
	.st210{fill:#8E8E8E;}
	.st211{fill:#606060;}
	.st212{fill:#696969;}
	.st213{fill:#1D1D1D;}
	.st214{fill:#383838;}
	.st215{fill:#E4E4E4;}
	.st216{fill:#404040;}
	.st217{fill:#323232;}
	.st218{fill:#1E1E1E;}
	.st219{fill:#3E3E3E;}
	.st220{fill:#646464;}
	.st221{fill:#7E7E7E;}
	.st222{fill:#2C2C2C;}
	.st223{fill:#3F3F3F;}
	.st224{fill:#838383;}
	.st225{fill:#5A5A5A;}
	.st226{fill:#8C8C8C;}
	.st227{fill:#3B3B3B;}
	.st228{fill:#535353;}
	.st229{fill:#757575;}
	.st230{fill:#434343;}
	.st231{fill:#1B1B1B;}
	.st232{fill:#4A4A4A;}
	.st233{fill:#3C3C3C;}
	.st234{fill:#858585;}
	.st235{fill:#9B9B9B;}
	.st236{fill:#7B7B7B;}
	.st237{fill:#6B6B6B;}
	.st238{fill:#989898;}
	.st239{fill:#A4A4A4;}
	.st240{fill:#A2A2A2;}
	.st241{fill:#6E6E6E;}
	.st242{fill:#222222;}
	.st243{fill:#727272;}
	.st244{fill:#747474;}
	.st245{fill:#A8A8A8;}
	.st246{fill:#303030;}
	.st247{fill:#414141;}
	.st248{fill:#ACACAC;}
	.st249{fill:#C0C0C0;}
	.st250{fill:#A9A9A9;}
	.st251{fill:#B7B7B7;}
	.st252{fill:#666666;}
	.st253{fill:#B3B3B3;}
	.st254{fill:#9E9E9E;}
	.st255{fill:#C7C7C7;}
	.st256{fill:#CBCBCB;}
	.st257{fill:#D0D0D0;}
	.st258{fill:#C6C6C6;}
	.st259{fill:#282828;}
	.st260{fill:#2D2D2D;}
	.st261{fill:#626262;}
	.st262{fill:#2A2A2A;}
	.st263{fill:#2B2B2B;}
	.st264{fill:#B2B2B2;}
	.st265{fill:#C4C4C4;}
	.st266{fill:#797979;}
	.st267{fill:#B4B4B4;}
	.st268{fill:#CFCFCF;}
	.st269{fill:#CACACA;}
	.st270{fill:#BBBBBB;}
	.st271{fill:#252525;}
	.st272{fill:#D6D6D6;}
	.st273{fill:#CCCCCC;}
	.st274{fill:#786A63;stroke:#000000;stroke-width:0.25;stroke-miterlimit:10;}
	.st275{fill:#667763;stroke:#000000;stroke-width:0.25;stroke-miterlimit:10;}
	.st276{opacity:0.65;fill:#3B5CA9;}
	.st277{clip-path:url(#SVGID_8_);fill:url(#);stroke:#2B2B2B;stroke-width:0.25;stroke-miterlimit:10;}
	.st278{clip-path:url(#SVGID_10_);fill:url(#);stroke:#2B2B2B;stroke-width:0.25;stroke-miterlimit:10;}
	.st279{fill:#969595;stroke:#2B2B2B;stroke-width:0.25;stroke-miterlimit:10;}
	.st280{opacity:0.77;fill:#FFFFFF;stroke:#2B2B2B;stroke-width:0.25;stroke-miterlimit:10;}
	.st281{opacity:0.46;fill:none;stroke:#969595;stroke-width:2;stroke-linecap:round;stroke-linejoin:round;stroke-miterlimit:10;}
	.st282{clip-path:url(#SVGID_12_);}
	.st283{fill:#FFD833;stroke:#686868;stroke-width:0.5;stroke-miterlimit:10;}
	.st284{fill:#EFC307;stroke:#686868;stroke-width:0.5;stroke-miterlimit:10;}
	.st285{clip-path:url(#SVGID_14_);}
	.st286{fill:none;stroke:#000000;stroke-width:0.25;stroke-miterlimit:10;}
	.st287{fill:#D0D2D3;stroke:#686868;stroke-width:0.5;stroke-miterlimit:10;}
	.st288{fill:#404041;stroke:#686868;stroke-width:0.5;stroke-miterlimit:10;}
	.st289{fill:#2D28A1;}
	.st290{fill:#EA664F;}
	.st291{fill:#EA5238;}
	.st292{fill:#D43E2B;}
	.st293{fill:#D33E2A;}
</style>
<g id="Layer_1">
	<g>
		<path class="st14" d="M159,171.9c74.1-7.2,140.6,52.7,148.5,133.8c0.6,6.5,0.8,12.9,0.7,19.3c20.9,8.4,37.7,19.6,48.4,32.6
			c0,0,0,0,0,0c12.4-5.3,23.8-8.8,33.4-10.1l-0.3-0.5l-3.9-6.6l-1.6-2.6c-6-10.2-0.8-24.6,11.5-31.9l15.6-9.2
			c1.3-0.8,2.8-0.5,3.4,0.6l15.3,25.9c3.9,6.7,2.5,15.3-2.8,22.1l0.2,0.4c8.5-1.4,16.7,1.5,20.7,8.2l15.3,25.9
			c0.6,1.1,0.1,2.5-1.2,3.3l-15.6,9.2c-12.4,7.3-27.4,4.9-33.5-5.4l-2.8-4.8c0,0,0,0,0,0c-8,12.6-22.9,28.1-40.8,41.8
			c-4.7,3.6-8.6,6.1-13.9,9.6c-15.9,10.5-31.7,18.6-46,24c-25.1,10.3-56.2,16.4-89.9,16.4c-32.4,0-62.4-5.7-87-15.2
			c-10.1-3.7-19.8-8.6-28.8-14.7c-1.7-1.1-3.3-2.3-4.9-3.4c-0.4-0.3-0.8-0.6-1.2-1c-0.9-0.7-1.9-1.4-2.8-2.2
			c-30.4-24.2-51.7-61.8-56-105.5C31.2,250.7,84.8,179.1,159,171.9z"/>
		<g>
			<ellipse class="st15" cx="199.9" cy="246.9" rx="8.5" ry="7.4"/>
			<circle class="st16" cx="198.4" cy="246" r="1.5"/>
		</g>
		<g>
			<ellipse class="st15" cx="106.3" cy="246.9" rx="8.5" ry="7.4"/>
			<circle class="st16" cx="108" cy="246" r="1.5"/>
		</g>
		<path class="st17" d="M151.5,288.1c96.3,0,115.8,86.4,115.8,86.4c64.5,14.7,102,49.6,102,49.7c-4.3,3.3-8.8,6.5-13.5,9.6
			c-15.9,10.5-31.7,18.6-46,24c-25.1,10.3-56.2,16.4-89.9,16.4c-32.4,0-62.4-5.7-87-15.2c-10.1-3.7-19.8-8.6-28.8-14.7
			c-1.7-1.1-3.3-2.3-4.9-3.4c-0.4-0.3-0.8-0.6-1.2-1c-0.9-0.7-1.9-1.4-2.8-2.2c-27.5-21.9-47.5-54.7-54.3-93.1
			C41.5,341.2,57.4,288.1,151.5,288.1z"/>
		<path class="st18" d="M162.7,272.4L162.7,272.4c-5.8,4.3-13.7,4.4-19.6,0.2l-0.3-0.2"/>
		<path class="st39" d="M252.9,342.6c0,0-33.6,19-49.9-4.5c-1.3-1.9-0.7-4.5,1.4-5.6l38.5-19.7"/>
		<g>
			<path class="st17" d="M120.7,15.2l26.9,191.8l1.4,10.3c5.8,4.6,13.9,3.8,19.5,0.5l0.9-0.5L120.7,15.2z"/>
			<path class="st29" d="M169.6,217.4c0,0-17.9-1.5-22.1-11.3"/>
			<path class="st29" d="M164.6,200.7c-5.1-0.8-16.2-3.5-19.4-10.9"/>
			<path class="st29" d="M161.6,184.5c-5.4-1-15.5-3.7-18.6-10.8"/>
			<path class="st29" d="M156.8,167.1c-5.6-1.3-13.6-4.2-16.2-10.3"/>
			<path class="st29" d="M152.8,150.1c-5.4-1.5-11.9-4.3-14.2-9.8"/>
			<path class="st29" d="M149.4,133.8c-5.3-1.5-11.2-4.3-13.5-9.6"/>
			<path class="st29" d="M145.3,116.7c-4.7-1.6-9.5-4.4-11.5-8.9"/>
			<path class="st29" d="M141.2,99.7c-4.1-1.7-8-4.3-9.7-8.2"/>
			<path class="st29" d="M136.5,82c-3-1.6-6.3-5-7.6-8"/>
			<path class="st29" d="M126.7,57.7c1,2.3,3.7,5.2,5.8,6.6"/>
		</g>
		<path class="st14" d="M39.3,333c0,0-35.4-15.5-26.4-42.6c0.7-2.2,3.2-3.3,5.3-2.3l41.1,20.1"/>
		<path class="st283" d="M171.8,151.5c-40.9,0-76.6,22.2-95.7,55.3h191.5C248.4,173.7,212.7,151.5,171.8,151.5z"/>
		<path class="st283" d="M266.4,213.7H77.2c-3.1,0-5.7-2.6-5.7-5.7v-0.8c0-3.1,2.6-5.7,5.7-5.7h189.2c3.1,0,5.7,2.6,5.7,5.7v0.8
			C272.1,211.2,269.5,213.7,266.4,213.7z"/>
		<polygon class="st284" points="160.8,201.6 135.5,201.6 134,150.1 171.5,150.1 		"/>
		<g>
			<defs>
				<path id="SVGID_13_" d="M169.2,150.5c1,4.6-6.2,12.5-16.2,14.6c-10,2.1-19.2-2.4-20.1-7s6.4-10,16.4-12.2
					C159.3,143.9,168.2,145.9,169.2,150.5z"/>
			</defs>
			<clipPath id="SVGID_2_">
				<use xlink:href="#SVGID_13_"  style="overflow:visible;"/>
			</clipPath>
			<g class="st28">
				<path class="st17" d="M120.7,15.2l26.9,191.8l1.4,10.3c5.8,4.6,13.9,3.8,19.5,0.5l0.9-0.5L120.7,15.2z"/>
				<path class="st29" d="M169.6,217.4c0,0-17.9-1.5-22.1-11.3"/>
				<path class="st29" d="M164.6,200.7c-5.1-0.8-16.2-3.5-19.4-10.9"/>
				<path class="st29" d="M161.6,184.5c-5.4-1-15.5-3.7-18.6-10.8"/>
				<path class="st29" d="M156.8,167.1c-5.6-1.3-13.6-4.2-16.2-10.3"/>
				<path class="st29" d="M152.8,150.1c-5.4-1.5-11.9-4.3-14.2-9.8"/>
				<path class="st29" d="M149.4,133.8c-5.3-1.5-11.2-4.3-13.5-9.6"/>
				<path class="st29" d="M145.3,116.7c-4.7-1.6-9.5-4.4-11.5-8.9"/>
				<path class="st29" d="M141.2,99.7c-4.1-1.7-8-4.3-9.7-8.2"/>
				<path class="st29" d="M136.5,82c-3-1.6-6.3-5-7.6-8"/>
				<path class="st29" d="M126.7,57.7c1,2.3,3.7,5.2,5.8,6.6"/>
			</g>
		</g>
		<path class="st286" d="M141.6,164.9c0,0,7.5,2.1,15-0.8"/>
		<g>
			<path class="st287" d="M181,317.1c0,0,10.7-5.9,15.5-0.7l5.8-5.4c0,0-7-8.9-2.6-13.1c4.5-4.2,16.9-6.8,20.6-7.7
				c0,0-17.2-4.6-24.7,0.5c-0.1,0.1-0.1,0.1-0.2,0.2c-7.6,5.2-13.9,12.1-18.5,20.1l-0.7,1.3L181,317.1z"/>
			
				<rect x="171.8" y="310.6" transform="matrix(-0.7301 0.6834 -0.6834 -0.7301 522.3621 430.4789)" class="st287" width="8.8" height="15.6"/>
			<polygon class="st287" points="215.5,338.2 222.7,331.4 202.3,311 196.5,316.4 			"/>
			<path class="st288" d="M250.9,369.4l0.5-0.5c2-1.9,2.1-5.1,0.2-7.1l-29.1-31.1l-7.9,7.4l29.1,31.1
				C245.7,371.2,248.9,371.3,250.9,369.4z"/>
		</g>
		<path class="st14" d="M255.1,341.7c0,0-33.6,19-49.9-4.5c-1.3-1.9-0.7-4.5,1.4-5.6l40.1-21.4"/>
	</g>
</g>
<g id="Styles">
</g>
</svg>
