<svg xmlns="http://www.w3.org/2000/svg" xmlns:xlink="http://www.w3.org/1999/xlink" viewBox="0 0 420.7 253"><style>.s0{opacity:.87}.s1{fill:#ffbd48}.s2{fill:#2b2b2b}.s3{clip-path:url(#e)}.s4{fill:#9198cc}.s5{fill:#221f1f}.s6{fill:#fff}.s7{fill:#d6d9ed}.s8{fill:#1a1a1a}.s9{fill:#6b6b6b}.s10{fill:#d5d5d5}.s11{fill:#55504f}.s12{opacity:.25}.s13{fill:#505680}.s14{fill:#505b91}.s15{fill:#dd615b}.s16{fill:#f16f69}.s17{fill:#c5665e}.s18{fill:#20236f}.s19{fill:#00097c}</style><g class="s0"><path d="M310.9 56.9l29.4 20v165.8l-313.4 2.6z" class="s1"/><path d="M26.5 245.5l.4-.2 284-188.6h.1l29.4 20v166h-.1l-313.8 2.8zM310.9 57L27.4 245.2l312.8-2.7V76.9L310.9 57z" class="s2"/></g><defs><path id="f" d="M267.1 229l-254.9-.8 2-277.8h252.9z"/></defs><clipPath id="e"><use xlink:href="#f" overflow="visible"/></clipPath><g class="s3"><path d="M116.1 108c-51.2-4.9-97.1 36.4-102.6 92.4-.4 4.5-.5 8.9-.4 13.3 1.4 22.5 14.6 34.6 7.1 43.7L.7 254.1c-8.5-3.7-37.5-23.9-44.1-24.9l.1-.3 2.6-4.5 1.1-1.8c4.1-7 .5-17-8-22l-10.7-6.3c-.8-.5-1.9-.4-2.3.4l-10.4 18c-2.7 4.7-1.8 10.6 1.9 15.2l-.1.3c-5.9-1-11.5 1.1-14.3 5.6l-10.6 17.9c-.4.7 0 1.8.8 2.2l10.7 6.3c8.5 5.1 19 3.4 23.1-3.7l1.9-3.3c5.5 8.7 15.8 19.4 28.2 28.8 3.3 2.5 5.9 4.3 9.6 6.6 11 7.3 22 12.9 31.7 16.6 17.3 7.1 38.9 11.3 62.1 11.3 22.4 0 43.1-3.8 60-10.6 7-2.6 13.7-5.9 19.9-10.2 1.2-.8 2.3-1.5 3.4-2.3.3-.3.5-.4.8-.7l1.9-1.5c21-16.8 35.7-42.7 38.7-72.9 5.6-55.8-31.5-105.2-82.6-110.3z" class="s4"/><path d="M74 316.6c-22.8 0-44.3-3.9-62.1-11.3-10.2-3.9-21.2-9.6-31.7-16.6-3.7-2.4-6.4-4.1-9.6-6.6-11.9-9.2-22.4-19.9-28.1-28.7l-1.8 3.1c-1.7 3-4.7 5.2-8.4 6.2-4.8 1.2-10.2.4-14.8-2.4l-10.7-6.3c-.5-.2-.8-.7-1-1.2-.1-.4-.1-.8.1-1.2l10.6-17.9c2.7-4.4 8.3-6.7 14.3-5.7l.1-.1c-3.8-4.9-4.6-10.8-1.9-15.3l10.6-17.9c.2-.4.5-.6.9-.7.5-.1 1.1 0 1.6.3l10.7 6.3c4.6 2.7 8 7 9.2 11.7 1 3.7.5 7.4-1.2 10.4l-1.1 1.8-2.7 4.6c4 .7 15.1 7.6 25.9 14.3 7.5 4.6 14.6 9 18.1 10.6l19.4 3.3c4-5 1.8-10.8-1.2-18.9-2.4-6.5-5.4-14.5-6-24.6-.1-4.4 0-8.8.4-13.3 2.7-27.1 14.8-51.7 34.2-69.2 19.4-17.5 43.7-25.8 68.5-23.4 51.1 5.1 88.3 54.6 82.8 110.4-1.5 14.8-5.7 28.8-12.6 41.6-6.7 12.4-15.5 22.9-26.1 31.5l-1.9 1.5c-.1.1-.3.2-.4.3-.1.1-.3.2-.4.3-.8.6-1.7 1.2-2.5 1.7l-.9.6c-5.8 4-12.4 7.4-19.9 10.2-17.7 7-38.5 10.6-60.4 10.6zm-131.6-63.7l.1.2c5.6 8.8 16.1 19.6 28.1 28.8 3.3 2.4 5.9 4.2 9.6 6.6 10.5 7 21.5 12.7 31.7 16.6 17.8 7.4 39.3 11.3 62 11.3 21.9 0 42.6-3.7 60-10.6 7.6-2.8 14.1-6.1 19.9-10.1l.9-.6c.9-.6 1.7-1.1 2.5-1.7.1-.1.3-.2.4-.3.1-.1.3-.2.4-.3l1.9-1.5c10.6-8.5 19.4-19 26.1-31.4 6.9-12.7 11.1-26.7 12.6-41.5 5.5-55.7-31.6-105.1-82.6-110.1-24.7-2.4-49 5.9-68.3 23.3-19.3 17.4-31.4 41.9-34.1 69-.4 4.6-.5 8.9-.4 13.3.6 10 3.6 18.1 6 24.5 3.1 8.2 5.3 14.1 1.1 19.2v.1h-.1L.7 254.4c-3.6-1.6-10.7-5.9-18.1-10.6-10.4-6.4-22.1-13.7-25.9-14.3h-.2l.2-.4 2.6-4.5 1.1-1.8c1.7-2.9 2.1-6.6 1.2-10.2-1.2-4.7-4.6-8.9-9.1-11.6l-10.7-6.3c-.4-.3-.9-.4-1.4-.3-.4.1-.6.3-.8.6L-71 212.9c-2.6 4.5-1.9 10.3 1.9 15.1v.1l-.2.4h-.1c-6-1-11.5 1.2-14.2 5.6L-94 251.7c-.2.3-.2.6-.1 1 .1.5.5.8.9 1l10.7 6.3c4.6 2.7 9.9 3.6 14.6 2.4 3.6-.9 6.6-3.1 8.3-6.1l2-3.4z" class="s2"/><ellipse cx="87.8" cy="161.4" class="s5" rx="5.9" ry="5.1"/><ellipse cx="152.5" cy="161.4" class="s5" rx="5.9" ry="5.1"/><circle cx="88.8" cy="160.9" r="1" class="s6"/><circle cx="151.3" cy="160.9" r="1" class="s6"/><path d="M121.1 188.1c-66.5 0-79.9 59.6-79.9 59.6C-3.5 257.8-29.3 282-29.3 282c3 2.2 6 4.5 9.3 6.6 11 7.3 22 12.9 31.7 16.6 17.3 7.1 38.9 11.3 62.1 11.3 22.4 0 43.1-3.8 60-10.6 7-2.6 13.7-5.9 19.9-10.2 1.2-.8 2.3-1.5 3.4-2.3.3-.3.5-.4.8-.7l1.9-1.5c19-15.1 32.8-37.8 37.5-64.3-.3-2.1-11.3-38.8-76.2-38.8z" class="s7"/><path d="M73.8 316.6c-22.8 0-44.3-3.9-62.1-11.3-10.2-3.9-21.2-9.6-31.7-16.6-2.6-1.6-5-3.4-7.3-5.1-.7-.5-1.4-1-2-1.5l-.1-.1.1-.1c.1-.1 6.6-6.1 18.5-13.4 11-6.7 28.9-15.7 51.9-21 .3-1.2 3.9-15.6 15-29.8 6.8-8.7 15-15.6 24.4-20.5 11.8-6.2 25.4-9.3 40.6-9.3 14.9 0 28.1 1.9 39.3 5.8 9.1 3.1 16.9 7.4 23.1 12.9 11.7 10.1 14 20.2 14 20.3-4.6 25.8-17.9 48.7-37.5 64.3l-1.9 1.5c-.1.1-.3.2-.4.3-.1.1-.3.2-.4.3-.8.6-1.7 1.2-2.5 1.7l-.9.6c-5.8 4-12.4 7.4-19.9 10.2-17.5 7.2-38.2 10.8-60.2 10.8zM-29.1 282c.6.5 1.3.9 1.9 1.4 2.3 1.7 4.7 3.5 7.3 5.1 10.6 7 21.5 12.7 31.7 16.6 17.8 7.4 39.3 11.3 62 11.3 21.9 0 42.6-3.7 60-10.6 7.6-2.8 14.1-6.1 19.9-10.1l.9-.6c.9-.6 1.7-1.1 2.5-1.7.1-.1.3-.2.4-.3.1-.1.3-.2.4-.3l1.9-1.5c19.6-15.6 32.9-38.4 37.4-64.2-.1-.5-2.6-10.4-13.9-20.2-6.3-5.4-14-9.7-23.1-12.8-11.2-3.8-24.4-5.8-39.2-5.8-15.1 0-28.8 3.1-40.5 9.3-9.4 4.9-17.6 11.8-24.3 20.5-11.5 14.7-15 29.6-15 29.8v.1h-.1c-23 5.2-40.9 14.3-51.9 21-11 6.5-17.4 12.2-18.3 13z" class="s2"/><path d="M120.4 181.7c-2.5 0-5-.8-7.1-2.4-.2-.1-.2-.4-.1-.5s.4-.2.5-.1c3.8 2.9 9.1 3 13.2.1l.3-.2c.2-.1.4 0 .5.2s0 .4-.2.5l-.3.1c-2 1.6-4.4 2.3-6.8 2.3z" class="s8"/><path d="M149.1 1.5L130.6 134l-1 7.1c-4 3.2-9.6 2.6-13.5.4l-.7-.4L149.1 1.5z" class="s7"/><path d="M122.9 143.5c-2.5 0-4.9-.7-6.8-1.8l-.8-.5v-.1L149 1.4h.2L130.7 134l-1 7.2c-2 1.6-4.4 2.3-6.8 2.3zm-7.3-2.4l.6.4c3.7 2.1 9.2 2.8 13.3-.4l1-7.1L148.6 4l-33 137.1z" class="s2"/><path d="M115.5 141.2c-.1 0-.1 0-.1-.1s0-.1.1-.1 12.3-1 15.1-7.8c0-.1.1-.1.2-.1s.1.1.1.2c-3 6.9-15.3 7.9-15.4 7.9zm3.4-11.5c-.1 0-.1 0-.1-.1s0-.1.1-.1c3.3-.5 11.2-2.2 13.4-7.5 0-.1.1-.1.2-.1s.1.1.1.2c-2.4 5.3-10.4 7.1-13.7 7.6zm2-11.3c-.1 0-.1 0-.1-.1s0-.1.1-.1c3.9-.7 10.7-2.6 12.7-7.3 0-.1.1-.1.2-.1s.1.1.1.2c-2.1 4.8-9 6.7-13 7.4.1 0 .1 0 0 0zm3.3-11.9c-.1 0-.1 0-.1-.1s0-.1.1-.1c2.7-.6 9.1-2.4 11-7.1 0-.1.1-.1.2-.1s.1.1.1.2c-2 4.8-8.5 6.6-11.3 7.2.1 0 0 0 0 0zm2.8-11.8c-.1 0-.1 0-.1-.1s0-.1.1-.2c6.7-1.7 9-4.9 9.8-6.7 0-.1.1-.1.2-.1s.1.1.1.2c-2 4.2-7.1 6.1-10.1 6.9zm2.3-11.3c-.1 0-.1 0-.1-.1s0-.1.1-.2c4.8-1.5 7.9-3.7 9.3-6.5 0-.1.1-.1.2-.1s.1.1.1.2c-1.5 3-4.6 5.2-9.6 6.7zm2.8-11.6c-.1 0-.1 0-.1-.1s0-.1.1-.2c2.8-1 6.5-2.8 7.9-6.1 0-.1.1-.1.2-.1s.1.1.1.2c-1.6 3.4-5.3 5.3-8.2 6.3zm2.9-11.9s-.1 0-.1-.1 0-.1.1-.2c3.2-1.3 5.6-3.3 6.7-5.6 0-.1.1-.1.2-.1s.1.1.1.2c-1.3 2.5-3.8 4.5-7 5.8zm3.2-12.2s-.1 0-.1-.1 0-.1.1-.2c2.2-1.2 4.4-3.5 5.2-5.4 0-.1.1-.1.2-.1s.1.1.1.2c-.9 2-3.2 4.4-5.5 5.6.1 0 .1 0 0 0zm2.8-12.2s-.1 0-.1-.1v-.2c1.6-1 3.3-2.9 3.9-4.5 0-.1.1-.1.2-.1s.1.1.1.2c-.7 1.7-2.4 3.6-4.1 4.7z" class="s9"/><path d="M56.3 248.1s33.4-11.3 28.4-30.3c-.4-1.5-2.1-2.5-3.6-1.8l-32.7 11.8m130.5 16.3s-25-9.2-19.9-28.3c.4-1.5 2.1-2.3 3.6-1.8l29.1 12.2" class="s4"/><path d="M56.3 248.2l-.1-.2c.1 0 8.4-2.9 16-8 12.7-8.6 13.7-16.8 12.3-22.2-.2-.7-.7-1.4-1.4-1.7-.6-.3-1.3-.3-2 0l-32.7 11.8-.1-.2L81 215.9c.7-.3 1.5-.3 2.2 0 .7.4 1.3 1 1.5 1.8 2 7.9-2.3 15.6-12.4 22.5-7.6 5.1-15.9 8-16 8zm122.6-4c-.1 0-6.3-2.4-11.9-7-5.1-4.3-10.7-11.5-8.1-21.4.2-.8.7-1.4 1.4-1.7.7-.4 1.6-.4 2.3-.1l29.1 12.2-.1.2-29.1-12.2c-.7-.3-1.5-.2-2.1.1-.6.3-1.1.9-1.3 1.6-1.4 5.4-1.2 13.5 8 21.2 5.5 4.6 11.8 6.9 11.8 7v.1z" class="s2"/></g><path d="M187.7 225.3H81.8l-3.2 3.7h109v-3.7z" class="s10"/><path d="M187.9 229.3H78.1l3.6-4.2h106.2v4.2zm-108.7-.5h108.2v-3.2H81.9l-2.7 3.2z" class="s11"/><path d="M310.9 56.9l29.4 20v165.8l-313.4 2.6z" class="s12 s1"/><path d="M70.7 153.9v-.2c.1 0 10.4-.1 20-8.1l.2.2c-9.7 8-20.1 8.1-20.2 8.1z" class="s13"/><path d="M66.8 162.8l-1.7-2-1.7 2c-1 1.1-1 2.9 0 4s2.5 1.1 3.4 0c.9-1 .9-2.8 0-4z" class="s7"/><path d="M65.1 167.8c-.7 0-1.3-.3-1.8-.9-1-1.2-1-3 0-4.2l1.8-2.1 1.8 2.1c1 1.2 1 3 0 4.2-.5.6-1.2.9-1.8.9zm0-6.8l-1.6 1.9c-.9 1.1-.9 2.8 0 3.9.4.5 1 .8 1.6.8.6 0 1.2-.3 1.6-.8.9-1.1.9-2.8 0-3.9l-1.6-1.9z" class="s14"/><path d="M59 166.2l-1.2-1.5-1.2 1.5c-.7.8-.7 2.1 0 2.9.7.8 1.8.8 2.5 0 .6-.8.6-2.1-.1-2.9z" class="s7"/><path d="M57.8 169.9c-.5 0-1-.2-1.3-.7-.7-.9-.7-2.2 0-3.1l1.3-1.6 1.3 1.6c.7.9.7 2.2 0 3.1-.3.4-.8.7-1.3.7zm0-5l-1.2 1.4c-.7.8-.7 2 0 2.8.3.4.7.6 1.2.6.4 0 .8-.2 1.2-.6.7-.8.7-2 0-2.8l-1.2-1.4z" class="s14"/><path d="M344.9 228.5h-61.5V116.8c0-4.7 3.8-8.5 8.5-8.5h44.4c4.7 0 8.5 3.8 8.5 8.5v111.6h.1z" class="s15"/><path d="M344.9 228.6h-61.6V116.8c0-4.8 3.9-8.6 8.6-8.6h44.4c4.8 0 8.6 3.9 8.6 8.6v111.8zm-61.4-.3h61.1V116.8c0-4.6-3.8-8.4-8.4-8.4h-44.4c-4.6 0-8.4 3.8-8.4 8.4v111.5z" class="s2"/><path d="M274.5 210.2H103.2c-.4 0-.7-.3-.7-.7V108.8c0-.4.3-.7.7-.7h171.1c.4 0 .7.3.7.7v100.7c0 .4-.2.7-.5.7z" class="s15"/><path d="M274.5 210.3H103.2c-.5 0-.8-.3-.8-.8V108.8c0-.5.3-.8.8-.8h171.1c.5 0 .8.3.8.8v100.7c.1.5-.3.8-.6.8zm-171.3-102c-.3 0-.6.2-.6.6v100.7c0 .3.2.6.6.6h171.3c.2 0 .4-.2.4-.6V108.8c0-.3-.2-.6-.6-.6H103.2z" class="s2"/><path d="M273.8 109.9h-11.3s-19.8 38.2-65.9 45.9c-50.8 8.5-88.9 52.7-88.9 52.7h165.9v-98.6h.2z" class="s16"/><path d="M196.3 221.7v-36.5h-10.8v36.5l-27.1 3.3v4h64.8v-4l-26.9-3.3z" class="s17"/><path d="M223.4 229.1h-65.1v-4.2h.1l26.9-3.3v-36.5h11.1v36.5l26.9 3.3v4.2zm-64.8-.2h64.6v-3.7l-26.9-3.3v-36.5h-10.6v36.5h-.1l-26.9 3.3v3.7z" class="s2"/><path d="M308.7 55.3l34.8 25.1c6.1-8.4 5.2-19.7-1.6-27.1-1-1-2-2-3.2-2.9-9.6-6.8-23.1-4.7-30 4.9z" class="s18"/><path d="M418.1 122.5l-68.8-83.8-15.6 15.6 2.1 2 2.3 3.5 10.7-10.7 61.6 75-27.2 95.6h-22.9v8.8h52v-8.8h-21.8z" class="s18"/><path d="M2.5 228.5h416.3v20.2H2.5v-20.2z" class="s19"/></svg>