<svg xmlns="http://www.w3.org/2000/svg" id="Layer_1" viewBox="0 0 494 120">
  <style>
    .st0{fill:#FFFFFF;}
  </style>
  <path d="M59.5 119.5C26.7 119.5 0 92.8 0 60S26.7.5 59.5.5 119 27.2 119 60s-26.7 59.5-59.5 59.5zm0-114.1C29.4 5.4 4.9 29.9 4.9 60s24.4 54.6 54.6 54.6 54.6-24.4 54.6-54.6S89.6 5.4 59.5 5.4z" class="st0"/>
  <path d="M88.9 45.8l1.9-3.5 5.7-9.6S83.3 40.4 83 40.5l-.9.6c-1 1-1.5 2.6-1 4 .2.7.5 1.4 1 1.9s1.1.8 1.9 1c1.4.3 2.9 0 4-1 .3-.3.5-.6.7-.9 0-.1.2-.3.2-.3z" class="st0"/>
  <path d="M87.2 51.1c-.7.3-1.5.4-2.3.4-3.8 0-6.8-3-6.8-6.8 0-.7.1-1.5.4-2.2-3.2-2-6.4-2.9-11.1-2.9-20.8 0-24.1 9.8-24.1 22 0 2.9.4 6.1-1.5 9-2.9 4.5-6.8 4.4-7.7 4.4-1.3 0-6-.7-6.3-2.1h.7c5.1 0 8.8-4.1 8.8-9.6v-1.9h-4.5c-3 0-6 1.5-7.7 3.9-1.8-2.4-4.7-3.9-7.7-3.9H13v1.9c0 5.3 4.3 9.6 9.6 9.6H24c0 3.1 4.3 15.3 35.9 15.3 12.4 0 30.7-2.2 30.7-25.5.1-4.2-1.4-8.1-3.4-11.6z" class="st0"/>
  <g>
    <path d="M139.9 79.9c-.7-1.2-.1-2.1 1.2-2.5l1.3-.4c1.1-.3 1.7.1 2.5 1.1 1.4 2.2 4.3 3.7 7.7 3.7 4 0 7.2-2.4 7.2-5.8 0-2.7-2-4.4-5.1-5.4l-5.1-1.7c-5.2-1.6-8.6-4.5-8.6-9.5 0-5.7 4.5-10.5 11.6-10.5 4.1 0 8.2 1.7 10.5 5.9.7 1.2 0 2.2-1.3 2.5l-1.2.3c-1.1.3-1.7-.1-2.5-1.2-1.3-1.9-3.4-2.7-5.4-2.7-4 0-6.4 2.7-6.4 5.6 0 3 2.5 4.4 5 5.2l5.3 1.7c6.4 2 8.4 5.9 8.4 9.9 0 6.6-5.8 10.5-12.5 10.5-5.5-.1-10.4-2.5-12.6-6.7zm30.9-12.1c0-10.3 8.5-18.9 18.9-18.9 10.5 0 19 8.6 19 18.9 0 10.4-8.5 18.8-19 18.8-10.4 0-18.9-8.4-18.9-18.8zm32.3 0c0-7.7-6-14-13.4-14-7.3 0-13.3 6.4-13.3 14 0 7.7 6 13.8 13.3 13.8 7.4 0 13.4-6.2 13.4-13.8zm14.4 16.1V51.6c0-1.2.7-2 1.9-2h1.7c1.2 0 2 .7 2 2v5.7c2-5.7 7.2-8.5 12.6-8.5 7.7 0 14.3 4.5 14.3 16.4v18.5c0 1.2-.7 2-2 2h-1.7c-1.2 0-2-.7-2-2V65.4c0-8.7-4.6-11.5-9.1-11.5-4 0-12.1 2.8-12.2 14.5v15.5c0 1.2-.7 2-2 2h-1.7c-1.1-.1-1.8-.8-1.8-2zm40.7-16.1c0-10.3 6.9-18.9 18-18.9 5.9 0 10.9 2.5 14.2 7.9v-5.2c0-1.2.7-2 1.9-2h1.7c1.2 0 2 .7 2 2v32.2c0 1.2-.7 2-2 2h-1.7c-1.2 0-1.9-.7-1.9-2v-5.1c-3.3 5.5-8.4 7.9-14.2 7.9-10.9 0-18-8.5-18-18.8zm32.3 0c0-7.9-5.5-13.9-13.7-13.9-8.3 0-13.1 6.4-13.1 13.9 0 7.6 4.8 13.9 13.2 13.9 7.9-.1 13.6-5.9 13.6-13.9zm17.1 16.1V51.6c0-1.2.7-2 1.9-2h1.7c1.2 0 2 .7 2 2v6.8c1.4-5.9 5.3-9.5 10.6-9.5.4 0 1.2.1 1.7.1 1.1.2 1.3 1.1 1.3 2.2v1.5c0 1.4-.5 2-1.4 1.7-.7-.1-1.4-.1-2-.1-4.6 0-10.1 4-10.2 17.8v11.8c0 1.2-.7 2-2 2h-1.7c-1.2-.1-1.9-.8-1.9-2zm34.6.2l-12.1-32.2c-.5-1.4.1-2.2 1.6-2.2h1.7c1.2 0 1.9.4 2.2 1.6l10 27.1 8.6-25.9c.4-1 1.1-1.6 2.2-1.6h1.4c1.1 0 1.9.6 2.2 1.6l8.7 25.9 10-27.1c.4-1.2 1.1-1.6 2.2-1.6h1.7c1.4 0 2.1.9 1.6 2.2l-12.1 32.2c-.4 1.2-1.2 1.6-2.2 1.6h-2c-1.1 0-1.9-.5-2.2-1.6l-8.6-25.4-8.5 25.4c-.4 1.1-1.1 1.6-2.2 1.6h-2c-1.1.1-1.8-.5-2.2-1.6zm50.6-.2V35.5c0-1.2.7-2 1.9-2h1.7c1.2 0 2 .7 2 2v21.9c2-5.7 7.2-8.5 12.6-8.5 7.7 0 14.3 4.5 14.3 16.4v18.5c0 1.2-.7 2-2 2h-1.7c-1.2 0-2-.7-2-2V65.4c0-8.7-4.6-11.5-9.1-11.5-4 0-12.1 2.8-12.2 14.5v15.5c0 1.2-.7 2-2 2h-1.7c-1.1-.1-1.8-.8-1.8-2zm40.7-16.1c0-10.3 6.9-18.9 18-18.9 5.9 0 10.9 2.5 14.2 7.9v-5.2c0-1.2.7-2 1.9-2h1.7c1.2 0 2 .7 2 2v32.2c0 1.2-.7 2-2 2h-1.7c-1.2 0-1.9-.7-1.9-2v-5.1c-3.3 5.5-8.4 7.9-14.2 7.9-10.9 0-18-8.5-18-18.8zm32.2 0c0-7.9-5.5-13.9-13.7-13.9-8.3 0-13.1 6.4-13.1 13.9 0 7.6 4.8 13.9 13.2 13.9 8-.1 13.6-5.9 13.6-13.9zm17.4 16.1V35.5c0-1.2.7-2 2-2h1.7c1.2 0 1.9.7 1.9 2v48.3c0 1.2-.7 2-1.9 2H485c-1.2 0-1.9-.7-1.9-1.9z" class="st0"/>
  </g>
</svg>
