<svg xmlns="http://www.w3.org/2000/svg" data-name="Layer 1" viewBox="0 0 301.87 284.32">
  <defs>
    <clipPath id="a">
      <ellipse cx="98.6" cy="57.24" fill="none" rx="51" ry="47.44"/>
    </clipPath>
  </defs>
  <path fill="#9198cc" stroke="#2b2b2b" stroke-miterlimit="10" stroke-width=".25" d="M102.44 88c45.73-4.46 86.76 32.48 91.64 82.52a99.53 99.53 0 0 1 .43 11.91c12.88 5.16 23.24 12.08 29.89 20.13a81 81 0 0 1 20.6-6.19l-.18-.3-2.38-4-1-1.63c-3.72-6.31-.52-15.16 7.11-19.66l9.6-5.66a1.54 1.54 0 0 1 2.12.34l9.42 16c2.43 4.13 1.55 9.46-1.74 13.61l.13.24c5.23-.88 10.32.94 12.75 5.07l9.42 16a1.53 1.53 0 0 1-.73 2L280 224c-7.64 4.49-16.92 3-20.65-3.31l-1.74-3c-4.94 7.78-14.16 17.36-25.16 25.8-2.91 2.24-5.33 3.78-8.56 5.92a144 144 0 0 1-28.38 14.79C180 270.56 160.8 274.33 140 274.33c-20 0-38.53-3.49-53.67-9.41a82 82 0 0 1-17.8-9.06c-1-.7-2-1.41-3-2.13l-.77-.59c-.58-.44-1.16-.88-1.71-1.34-18.74-14.92-31.92-38.1-34.55-65.1-4.91-50.04 28.2-94.22 73.94-98.7z"/>
  <ellipse cx="127.67" cy="134.28" fill="#221f1f" rx="5.23" ry="4.54"/>
  <circle cx="126.78" cy="133.75" r=".9" fill="#fff"/>
  <ellipse cx="69.93" cy="134.28" fill="#221f1f" rx="5.23" ry="4.54"/>
  <circle cx="71.02" cy="133.75" r=".9" fill="#fff"/>
  <path fill="#d6d9ed" stroke="#2b2b2b" stroke-miterlimit="10" stroke-width=".25" d="M97.84 159.74c59.43 0 71.44 53.31 71.44 53.31 39.82 9.06 62.93 30.63 62.94 30.64q-4 3-8.35 5.92a144 144 0 0 1-28.38 14.79c-15.49 6.35-34.67 10.11-55.49 10.11-20 0-38.52-3.49-53.67-9.4A82 82 0 0 1 68.54 256q-1.56-1-3-2.13c-.26-.19-.51-.39-.76-.59-.58-.44-1.16-.88-1.71-1.33-16.95-13.5-29.31-33.74-33.48-57.46.41-1.99 10.22-34.75 68.25-34.75z"/>
  <path fill="none" stroke="#1a1a1a" stroke-linecap="round" stroke-linejoin="round" stroke-width=".75" d="M104.76 150a10.36 10.36 0 0 1-12.11.15l-.21-.15"/>
  <path fill="#3b5ca9" d="M160.39 193.34s-20.76 11.75-30.81-2.75a2.34 2.34 0 0 1 .83-3.44L154.15 175"/>
  <path fill="#9198cc" stroke="#2b2b2b" stroke-miterlimit="10" stroke-width=".25" d="M161.73 192.81s-20.76 11.75-30.81-2.76a2.34 2.34 0 0 1 .83-3.44l24.75-13.18M28.61 187.4s-21.85-9.57-16.27-26.31a2.35 2.35 0 0 1 3.25-1.4l25.35 12.41"/>
  <g stroke-width=".25" clip-path="url(#a)">
    <path fill="#d6d9ed" stroke="#2b2b2b" stroke-miterlimit="10" d="M81.28 11l16.63 118.34.89 6.37c3.56 2.82 8.56 2.32 12 .33l.59-.33z"/>
    <path fill="none" stroke="#6b6b6b" stroke-linecap="round" stroke-linejoin="round" d="M111.44 135.71s-11-.9-13.61-7M108.35 125.39c-3.16-.51-10-2.13-12-6.73M106.53 115.4c-3.35-.6-9.59-2.28-11.46-6.64M103.53 104.68c-3.46-.79-8.37-2.56-10-6.34M101.11 94.17c-3.31-.92-7.34-2.69-8.78-6M99 84.13c-3.24-.94-6.93-2.66-8.32-5.9M96.48 73.62c-2.88-1-5.87-2.71-7.07-5.5M94 63.09c-2.51-1-4.93-2.64-6-5.08M91.06 52.17a11.79 11.79 0 0 1-4.69-5M85 37.17a11.63 11.63 0 0 0 3.55 4.1"/>
  </g>
</svg>
