<svg xmlns="http://www.w3.org/2000/svg" viewBox="0 0 231.7 178.9"><style>.a{fill:#dbeef2}.b{fill:#d3d3d3}</style><path d="M108.3 96.2l22 13.4-6 22 40.8-37.3-58.2-.4z" class="a"/><path d="M191.3 51L177 12.6 160.3 37l-10.6 6.8-6.3 15.8-12.6-12-18.9 24L76.9 0l-40 61.9L.8 93.6l-.8.3.2.2-.2.2h.5l25.9 21.9 8.6 8.4.6 26.3 21.3 28 29-5.6 23.9 5.6 43-32.7 28.5 20.7 50.4-72.6z" fill="#fff"/><path d="M117.3 87.9l3.7-4.4 9.8-35.9-18.9 24 3.6 9z" class="b"/><path d="M177 12.6l-6.3 29.5 5.6 20.3-10.2 18.9-35.3-33.7 5.2 30.6 13.6 16.1h57.9z" class="a"/><path d="M149.7 43.8L166 81.4l-22.6-21.8zm10.6-6.8l13.9-11.4 2.8-13z" class="b"/><path d="M117.3 87.9l-1.6-6.9-3.8-9.4L76.9 0 81 47.2 71 66.9l13.6 27.4H42.3l-.7 1.9-10.7 15.1 18.7 22.5-14 17.1 21.3 28 18-38.7 18-10.6 32.8-35.4z" class="a"/></svg>