<svg xmlns="http://www.w3.org/2000/svg" viewBox="0 0 216 20"><style>.e{fill:#fff}</style><path d="M26.8 2h.2l5.5 13.1H31l-1.2-2.9h-5.9l-1.2 2.9h-1.3L26.8 2zm2.6 9l-2-4.9-.5-1.5-.5 1.5-2 5h5zm8.2 1.8l2.2-1.3c.4.7.8 1.4 1.7 1.4.9 0 1.4-.3 1.4-1.7v-9h2.7v9.1c0 2.8-1.6 4-4 4-2.2-.1-3.4-1.2-4-2.5zm9.4-.3l2.2-1.3c.6.9 1.3 1.6 2.6 1.6 1.1 0 1.8-.6 1.8-1.3 0-.9-.7-1.2-1.9-1.8l-.7-.2c-1.9-.8-3.2-1.8-3.2-4 0-2 1.5-3.5 3.9-3.5a4 4 0 0 1 3.8 2.1l-2.1 1.3c-.5-.8-1-1.1-1.7-1.1-.8 0-1.3.5-1.3 1.1 0 .8.5 1.1 1.6 1.6l.7.3c2.3 1 3.5 2 3.5 4.2 0 2.4-1.9 3.7-4.4 3.7-2.4 0-4-1.1-4.8-2.7zM62.5 2.2h8.3v2.3h-5.7v3.4h5.1v2.4h-5.1v4.8h-2.7V2.2zM72 11c0-2.5 2-4.2 4.5-4.2s4.4 1.8 4.4 4.2c0 2.5-1.9 4.2-4.4 4.2S72 13.5 72 11zm6.3 0c0-1.2-.7-2-1.8-2s-1.8.8-1.8 2 .7 2 1.8 2 1.8-.8 1.8-2zm4.3.7V7h2.6v4.5c0 .9.4 1.4 1.3 1.4 1 0 1.6-.6 1.6-1.6V7h2.6v8.1h-2.6l.1-1.3c-.5 1-1.4 1.5-2.5 1.5-1.9-.1-3.1-1.3-3.1-3.6zm10-4.7h2.6l-.1 1.3c.5-1 1.4-1.5 2.6-1.5 1.8 0 3 1.3 3 3.6v4.7h-2.6v-4.5c0-.9-.4-1.4-1.3-1.4-1 0-1.6.6-1.6 1.6v4.3h-2.6V7zm9.9 4c0-2.5 1.7-4.2 3.6-4.2 1.3 0 2 .5 2.5 1.3V1.4h2.6v13.7h-2.6l.1-1.2c-.5.9-1.3 1.3-2.5 1.3-2.1 0-3.7-1.7-3.7-4.2zm6.2 0c0-1.2-.7-1.9-1.8-1.9s-1.8.7-1.8 1.9c0 1.3.7 2 1.8 2s1.8-.7 1.8-2zm7.9-2.1c-1 0-1.5.4-1.8.7l-1.4-1.5c.8-.7 1.6-1.3 3.5-1.3 2.1 0 3.6 1.1 3.6 3.7v4.6H118V14c-.6.9-1.3 1.3-2.4 1.3-1.5 0-2.8-.7-2.8-2.5 0-1.7 1.3-2.4 3.3-2.4h1.9c-.1-1.1-.5-1.5-1.4-1.5zm-.4 2.9c-.6 0-.9.3-.9.7 0 .5.4.7 1.1.7 1 0 1.6-.5 1.6-1.1v-.3h-1.8zm6.9.2V9.1h-1.2V7h1.2V4.1h2.5V7h2.1v2.1h-2.1v3c0 .8.3 1 .7 1 .4 0 .7-.2.9-.3l1 1.8c-.4.3-1.1.7-2.3.7-1.6 0-2.8-.8-2.8-3.3zm6.2-8c0-.9.8-1.6 1.6-1.6s1.6.7 1.6 1.6c0 .9-.7 1.6-1.6 1.6s-1.6-.6-1.6-1.6zm.3 3h2.6v8.1h-2.6V7zm4.4 4c0-2.5 2-4.2 4.5-4.2s4.4 1.8 4.4 4.2c0 2.5-1.9 4.2-4.4 4.2S134 13.5 134 11zm6.3 0c0-1.2-.7-2-1.8-2s-1.8.8-1.8 2 .7 2 1.8 2 1.8-.8 1.8-2zm4.4-4h2.6l-.1 1.3c.5-1 1.4-1.5 2.6-1.5 1.8 0 3 1.3 3 3.6v4.7h-2.6v-4.5c0-.9-.4-1.4-1.3-1.4-1 0-1.6.6-1.6 1.6v4.3h-2.6V7zm15-4.8h3.8c2.8 0 4.6 1.3 4.6 4 0 2.6-1.8 4-4.6 4H161v4.9h-1.4V2.2zm3.7 6.8c2.2 0 3.3-.9 3.3-2.8s-1.1-2.8-3.3-2.8H161V9h2.4zm6.7-1.8h1.3v1.5c.5-1.2 1.4-1.7 2.3-1.7.6 0 1 .1 1.4.4l-.5 1.2c-.2-.2-.6-.3-1.1-.3-1.1 0-2 .8-2 2.6V15h-1.3V7.2zm6.1 3.9a4 4 0 0 1 4.2-4.1 4 4 0 0 1 4.1 4.1 4 4 0 0 1-4.1 4.1 4 4 0 0 1-4.2-4.1zm7 0c0-1.7-1.1-2.9-2.8-2.9-1.7 0-2.8 1.3-2.8 2.9 0 1.7 1.1 2.9 2.8 2.9 1.6.1 2.8-1.2 2.8-2.9zm1.1 7.4l.7-.8c.2.2.5.4.9.4.5 0 .9-.3.9-1.2V7.2h1.3v9.7c0 1.6-.9 2.4-2.1 2.4-.7 0-1.3-.4-1.7-.8zM186.6 4c0-.6.5-1 .9-1 .5 0 1 .4 1 1s-.5.9-1 .9a.9.9 0 0 1-.9-.9zm8.2 10.1c1.2 0 2-.5 2.5-1l.8.8c-.7.8-1.8 1.4-3.3 1.4-2.6 0-4.3-1.8-4.3-4.1a4 4 0 0 1 4.1-4.1c2.5 0 4 1.9 4 4.5h-6.7c.2 1.5 1.2 2.5 2.9 2.5zm2.4-3.5c-.1-1.3-1-2.4-2.6-2.4-1.5 0-2.5 1-2.7 2.4h5.3zm3.2.5a4 4 0 0 1 4.1-4.1c1.4 0 2.4.5 3.1 1.4l-1 .8c-.5-.6-1.2-1-2.1-1-1.7 0-2.7 1.3-2.7 2.9 0 1.7 1 2.9 2.7 2.9 1.1 0 1.8-.4 2.3-1l.9.8c-.7.9-1.7 1.4-3.2 1.4a4 4 0 0 1-4.1-4.1zm9.8 1.6V8.3H209V7.2h1.2V4.5h1.3v2.7h2.2v1.1h-2.2v4.4c0 1 .4 1.4.9 1.4.6 0 .9-.2 1.1-.5l.6.9c-.4.4-.9.8-1.9.8-1.1-.1-2-.7-2-2.6z" class="e"/><path fill="#016baf" d="M17.9 13.6l-7.4 4.2-7.3-4.2V5.1L10.5.8l7.4 4.3z"/><path d="M8.1 11.2l1-.6c.2.3.4.6.8.6s.6-.2.6-.8v-4h1.2v4.1c0 1.2-.7 1.8-1.8 1.8-1 0-1.5-.5-1.8-1.1m4.2-.1l1-.6c.3.4.6.7 1.2.7.5 0 .8-.2.8-.6 0-.4-.3-.6-.9-.8l-.3-.1c-.9-.4-1.4-.8-1.4-1.8 0-.9.7-1.6 1.7-1.6.8 0 1.3.3 1.7 1l-.9.6c-.2-.4-.4-.5-.8-.5-.3 0-.6.2-.6.5 0 .4.2.5.7.7l.3.1c1 .4 1.6.9 1.6 1.9 0 1.1-.8 1.7-2 1.7-1 0-1.7-.6-2.1-1.2" class="e"/><path fill="#343433" d="M10.5 17.8l7.4-4.2H3.2z"/></svg>