<?xml version="1.0" encoding="utf-8"?>
<!-- Generator: Adobe Illustrator 22.0.1, SVG Export Plug-In . SVG Version: 6.00 Build 0)  -->
<svg version="1.1" id="Layer_1" xmlns="http://www.w3.org/2000/svg" xmlns:xlink="http://www.w3.org/1999/xlink" x="0px" y="0px"
	 viewBox="0 0 216 20" style="enable-background:new 0 0 216 20;" xml:space="preserve">
<style type="text/css">
	.st0{fill:#FFFFFF;}
	.st1{fill:#016BAF;}
	.st2{fill:#343433;}
</style>
<g>
	<path class="st0" d="M26.8,2H27l5.5,13.1H31l-1.2-2.9h-5.9l-1.2,2.9h-1.3L26.8,2z M29.4,11l-2-4.9c-0.2-0.6-0.5-1.5-0.5-1.5
		c0,0-0.3,0.9-0.5,1.5l-2,5H29.4z"/>
	<path class="st0" d="M37.6,12.8l2.2-1.3c0.4,0.7,0.8,1.4,1.7,1.4c0.9,0,1.4-0.3,1.4-1.7v-9h2.7v9.1c0,2.8-1.6,4-4,4
		C39.4,15.2,38.2,14.1,37.6,12.8z"/>
	<path class="st0" d="M47,12.5l2.2-1.3c0.6,0.9,1.3,1.6,2.6,1.6c1.1,0,1.8-0.6,1.8-1.3c0-0.9-0.7-1.2-1.9-1.8L51,9.5
		c-1.9-0.8-3.2-1.8-3.2-4c0-2,1.5-3.5,3.9-3.5c1.7,0,2.9,0.6,3.8,2.1l-2.1,1.3c-0.5-0.8-1-1.1-1.7-1.1c-0.8,0-1.3,0.5-1.3,1.1
		c0,0.8,0.5,1.1,1.6,1.6l0.7,0.3c2.3,1,3.5,2,3.5,4.2c0,2.4-1.9,3.7-4.4,3.7C49.4,15.2,47.8,14.1,47,12.5z"/>
	<path class="st0" d="M62.5,2.2h8.3v2.3h-5.7v3.4h5.1v2.4h-5.1v4.8h-2.7V2.2z"/>
	<path class="st0" d="M72,11c0-2.5,2-4.2,4.5-4.2s4.4,1.8,4.4,4.2c0,2.5-1.9,4.2-4.4,4.2S72,13.5,72,11z M78.3,11c0-1.2-0.7-2-1.8-2
		s-1.8,0.8-1.8,2c0,1.2,0.7,2,1.8,2S78.3,12.2,78.3,11z"/>
	<path class="st0" d="M82.6,11.7V7h2.6v4.5c0,0.9,0.4,1.4,1.3,1.4c1,0,1.6-0.6,1.6-1.6V7h2.6v8.1h-2.6l0.1-1.3
		c-0.5,1-1.4,1.5-2.5,1.5C83.8,15.2,82.6,14,82.6,11.7z"/>
	<path class="st0" d="M92.6,7h2.6l-0.1,1.3c0.5-1,1.4-1.5,2.6-1.5c1.8,0,3,1.3,3,3.6v4.7h-2.6v-4.5c0-0.9-0.4-1.4-1.3-1.4
		c-1,0-1.6,0.6-1.6,1.6v4.3h-2.6V7z"/>
	<path class="st0" d="M102.5,11c0-2.5,1.7-4.2,3.6-4.2c1.3,0,2,0.5,2.5,1.3V1.4h2.6v13.7h-2.6l0.1-1.2c-0.5,0.9-1.3,1.3-2.5,1.3
		C104.1,15.2,102.5,13.5,102.5,11z M108.7,11c0-1.2-0.7-1.9-1.8-1.9c-1.1,0-1.8,0.7-1.8,1.9c0,1.3,0.7,2,1.8,2
		C108,13,108.7,12.3,108.7,11z"/>
	<path class="st0" d="M116.6,8.9c-1,0-1.5,0.4-1.8,0.7l-1.4-1.5c0.8-0.7,1.6-1.3,3.5-1.3c2.1,0,3.6,1.1,3.6,3.7v4.6H118L118,14
		c-0.6,0.9-1.3,1.3-2.4,1.3c-1.5,0-2.8-0.7-2.8-2.5c0-1.7,1.3-2.4,3.3-2.4h1.9C117.9,9.3,117.5,8.9,116.6,8.9z M116.2,11.8
		c-0.6,0-0.9,0.3-0.9,0.7c0,0.5,0.4,0.7,1.1,0.7c1,0,1.6-0.5,1.6-1.1v-0.3H116.2z"/>
	<path class="st0" d="M123.1,12V9.1h-1.2V7h1.2V4.1h2.5V7h2.1v2.1h-2.1v3c0,0.8,0.3,1,0.7,1c0.4,0,0.7-0.2,0.9-0.3l1,1.8
		c-0.4,0.3-1.1,0.7-2.3,0.7C124.3,15.3,123.1,14.5,123.1,12z"/>
	<path class="st0" d="M129.3,4c0-0.9,0.8-1.6,1.6-1.6s1.6,0.7,1.6,1.6c0,0.9-0.7,1.6-1.6,1.6S129.3,5,129.3,4z M129.6,7h2.6v8.1
		h-2.6V7z"/>
	<path class="st0" d="M134,11c0-2.5,2-4.2,4.5-4.2s4.4,1.8,4.4,4.2c0,2.5-1.9,4.2-4.4,4.2S134,13.5,134,11z M140.3,11
		c0-1.2-0.7-2-1.8-2s-1.8,0.8-1.8,2c0,1.2,0.7,2,1.8,2S140.3,12.2,140.3,11z"/>
	<path class="st0" d="M144.7,7h2.6l-0.1,1.3c0.5-1,1.4-1.5,2.6-1.5c1.8,0,3,1.3,3,3.6v4.7h-2.6v-4.5c0-0.9-0.4-1.4-1.3-1.4
		c-1,0-1.6,0.6-1.6,1.6v4.3h-2.6V7z"/>
	<path class="st0" d="M159.7,2.2h3.8c2.8,0,4.6,1.3,4.6,4c0,2.6-1.8,4-4.6,4H161v4.9h-1.4V2.2z M163.4,9c2.2,0,3.3-0.9,3.3-2.8
		c0-1.9-1.1-2.8-3.3-2.8H161V9H163.4z"/>
	<path class="st0" d="M170.1,7.2h1.3l0,1.5c0.5-1.2,1.4-1.7,2.3-1.7c0.6,0,1,0.1,1.4,0.4l-0.5,1.2c-0.2-0.2-0.6-0.3-1.1-0.3
		c-1.1,0-2,0.8-2,2.6v4.1h-1.3V7.2z"/>
	<path class="st0" d="M176.2,11.1c0-2.3,1.8-4.1,4.2-4.1c2.3,0,4.1,1.8,4.1,4.1c0,2.3-1.8,4.1-4.1,4.1
		C178,15.2,176.2,13.4,176.2,11.1z M183.2,11.1c0-1.7-1.1-2.9-2.8-2.9c-1.7,0-2.8,1.3-2.8,2.9c0,1.7,1.1,2.9,2.8,2.9
		C182,14.1,183.2,12.8,183.2,11.1z"/>
	<path class="st0" d="M184.3,18.5l0.7-0.8c0.2,0.2,0.5,0.4,0.9,0.4c0.5,0,0.9-0.3,0.9-1.2V7.2h1.3v9.7c0,1.6-0.9,2.4-2.1,2.4
		C185.3,19.3,184.7,18.9,184.3,18.5z M186.6,4c0-0.6,0.5-1,0.9-1c0.5,0,1,0.4,1,1c0,0.6-0.5,0.9-1,0.9C187,4.9,186.6,4.5,186.6,4z"
		/>
	<path class="st0" d="M194.8,14.1c1.2,0,2-0.5,2.5-1l0.8,0.8c-0.7,0.8-1.8,1.4-3.3,1.4c-2.6,0-4.3-1.8-4.3-4.1
		c0-2.3,1.8-4.1,4.1-4.1c2.5,0,4,1.9,4,4.5h-6.7C192.1,13.1,193.1,14.1,194.8,14.1z M197.2,10.6c-0.1-1.3-1-2.4-2.6-2.4
		c-1.5,0-2.5,1-2.7,2.4H197.2z"/>
	<path class="st0" d="M200.4,11.1c0-2.3,1.8-4.1,4.1-4.1c1.4,0,2.4,0.5,3.1,1.4l-1,0.8c-0.5-0.6-1.2-1-2.1-1c-1.7,0-2.7,1.3-2.7,2.9
		c0,1.7,1,2.9,2.7,2.9c1.1,0,1.8-0.4,2.3-1l0.9,0.8c-0.7,0.9-1.7,1.4-3.2,1.4C202.1,15.2,200.4,13.4,200.4,11.1z"/>
	<path class="st0" d="M210.2,12.7V8.3H209V7.2h1.2V4.5h1.3v2.7h2.2v1.1h-2.2v4.4c0,1,0.4,1.4,0.9,1.4c0.6,0,0.9-0.2,1.1-0.5l0.6,0.9
		c-0.4,0.4-0.9,0.8-1.9,0.8C211.1,15.2,210.2,14.6,210.2,12.7z"/>
</g>
<g id="XMLID_123_">
	<polygon id="XMLID_1_" class="st1" points="17.9,13.6 10.5,17.8 3.2,13.6 3.2,5.1 10.5,0.8 17.9,5.1 	"/>
	<g id="XMLID_3_">
		<path id="XMLID_5_" class="st0" d="M8.1,11.2l1-0.6c0.2,0.3,0.4,0.6,0.8,0.6c0.4,0,0.6-0.2,0.6-0.8V6.4h1.2v4.1
			c0,1.2-0.7,1.8-1.8,1.8C8.9,12.3,8.4,11.8,8.1,11.2"/>
		<path id="XMLID_4_" class="st0" d="M12.3,11.1l1-0.6c0.3,0.4,0.6,0.7,1.2,0.7c0.5,0,0.8-0.2,0.8-0.6c0-0.4-0.3-0.6-0.9-0.8
			l-0.3-0.1c-0.9-0.4-1.4-0.8-1.4-1.8c0-0.9,0.7-1.6,1.7-1.6c0.8,0,1.3,0.3,1.7,1l-0.9,0.6c-0.2-0.4-0.4-0.5-0.8-0.5
			c-0.3,0-0.6,0.2-0.6,0.5c0,0.4,0.2,0.5,0.7,0.7l0.3,0.1c1,0.4,1.6,0.9,1.6,1.9c0,1.1-0.8,1.7-2,1.7C13.4,12.3,12.7,11.7,12.3,11.1
			"/>
	</g>
	<polygon id="XMLID_70_" class="st2" points="10.5,17.8 17.9,13.6 3.2,13.6 	"/>
</g>
</svg>
