<?xml version="1.0" encoding="utf-8"?>
<!-- Generator: Adobe Illustrator 22.0.1, SVG Export Plug-In . SVG Version: 6.00 Build 0)  -->
<svg version="1.1" id="Layer_1" xmlns="http://www.w3.org/2000/svg" xmlns:xlink="http://www.w3.org/1999/xlink" x="0px" y="0px"
	 viewBox="0 0 1000 725.6" style="enable-background:new 0 0 1000 725.6;" xml:space="preserve">
<style type="text/css">
	.st0{fill:#9198CC;stroke:#2B2B2B;stroke-width:0.25;stroke-miterlimit:10;}
	.st1{fill:#221F1F;}
	.st2{fill:#FFFFFF;}
	.st3{fill:#D6D9ED;stroke:#2B2B2B;stroke-width:0.25;stroke-miterlimit:10;}
	.st4{fill:none;stroke:#1A1A1A;stroke-width:0.75;stroke-linecap:round;stroke-linejoin:round;stroke-miterlimit:10;}
	.st5{fill:#F7E8CE;stroke:#2B2B2B;stroke-width:0.25;stroke-miterlimit:10;}
	.st6{fill:#3B5CA9;}
	.st7{fill:#BA9066;stroke:#2B2B2B;stroke-width:0.25;stroke-miterlimit:10;}
	.st8{fill:#2B2B2B;stroke:#BA9066;stroke-width:0.25;stroke-miterlimit:10;}
	.st9{clip-path:url(#SVGID_2_);}
	.st10{fill:#D6D9ED;stroke:#515151;stroke-miterlimit:10;}
	.st11{fill:none;stroke:#515151;stroke-linecap:round;stroke-linejoin:round;stroke-miterlimit:10;}
</style>
<path class="st0" d="M370.4,179c131.5-12.8,249.5,93.4,263.5,237.3c1.1,11.5,1.5,23,1.2,34.2c37,14.8,66.8,34.7,85.9,57.9
	c21.9-9.5,42.2-15.6,59.2-17.9l-0.5-0.9l-6.9-11.6l-2.8-4.7c-10.7-18.2-1.5-43.6,20.4-56.5l27.6-16.3c2.3-1.3,5-0.9,6.1,1l27.1,46
	c7,11.9,4.5,27.2-5,39.1l0.4,0.7c15-2.5,29.7,2.7,36.7,14.6l27.1,46c1.1,1.9,0.2,4.5-2.1,5.8L880.7,570
	c-21.9,12.9-48.6,8.6-59.4-9.5l-5-8.5c-14.2,22.4-40.7,49.9-72.3,74.2c-8.4,6.4-15.3,10.9-24.6,17c-28.2,18.7-56.3,33.1-81.6,42.5
	c-44.5,18.3-99.7,29.1-159.5,29.1c-57.5,0-110.8-10-154.3-27c-18-6.5-35.2-15.3-51.2-26.1c-3-2-5.9-4-8.7-6.1
	c-0.7-0.6-1.5-1.1-2.2-1.7c-1.7-1.3-3.3-2.5-4.9-3.8c-53.9-42.9-91.8-109.6-99.3-187.2C143.7,318.9,238.9,191.9,370.4,179L370.4,179
	z"/>
<ellipse class="st1" cx="443" cy="312.1" rx="15.1" ry="13"/>
<circle class="st2" cx="440.4" cy="310.5" r="2.6"/>
<ellipse class="st1" cx="276.9" cy="312.1" rx="15.1" ry="13"/>
<circle class="st2" cx="280.1" cy="310.5" r="2.6"/>
<path class="st3" d="M357.6,385.3c170.9,0,205.4,153.3,205.4,153.3c114.5,26.1,181,88.1,181,88.1c-7.6,5.8-15.6,11.5-24,17
	c-28.2,18.7-56.3,33.1-81.6,42.5c-44.5,18.3-99.7,29.1-159.5,29.1c-57.5,0-110.8-10-154.3-27c-18-6.5-35.2-15.3-51.2-26.1
	c-3-2-5.9-4-8.7-6.1c-0.7-0.6-1.5-1.1-2.2-1.7c-1.7-1.3-3.3-2.5-4.9-3.8c-48.7-38.8-84.3-97-96.3-165.2
	C162.4,479.5,190.7,385.3,357.6,385.3z"/>
<path class="st4" d="M377.1,357.3c-10.3,7.6-24.3,7.8-34.8,0.4l-0.6-0.4"/>
<path class="st0" d="M160.3,454.8c0,0-68.5-2.6-71.2-53.2c-0.2-4.1,3.2-7.5,7.2-7.2l80.9,6.5"/>
<path class="st5" d="M425.6,456.1H183.2c-7.1,0-13.7-3.5-17.7-9.4l-10-14.7h301.7l-15.6,17.1C437.4,453.6,431.6,456.1,425.6,456.1
	L425.6,456.1z"/>
<ellipse class="st5" cx="308.9" cy="426.1" rx="193" ry="23.5"/>
<path class="st6" d="M519.2,453.7c0,0-68.3,6.5-77.7-43.3c-0.8-4,2.1-7.8,6.2-8.1l76.6-4.1"/>
<path class="st0" d="M522.4,452.3c0,0-68.3,6.5-77.7-43.3c-0.8-4,2.1-7.8,6.2-8.1l80.4-5.6"/>
<ellipse class="st7" cx="199.6" cy="424.7" rx="37.1" ry="7.9"/>
<ellipse class="st8" cx="177.8" cy="424.1" rx="5.7" ry="2"/>
<ellipse class="st8" cx="198" cy="421.4" rx="5.3" ry="2"/>
<ellipse class="st8" cx="221.5" cy="425.6" rx="6.6" ry="1.7"/>
<ellipse class="st8" cx="199.6" cy="427.3" rx="6.6" ry="1.7"/>
<ellipse class="st7" cx="256" cy="423" rx="37.1" ry="7.9"/>
<ellipse class="st8" cx="241.4" cy="421.4" rx="5.7" ry="2"/>
<ellipse class="st8" cx="254" cy="427.3" rx="5.3" ry="2"/>
<ellipse class="st8" cx="258.4" cy="421.4" rx="6.6" ry="1.7"/>
<ellipse class="st7" cx="277.5" cy="429.3" rx="37.1" ry="7.9"/>
<ellipse class="st8" cx="262.9" cy="427.7" rx="5.7" ry="2"/>
<ellipse class="st8" cx="275.5" cy="433.5" rx="5.3" ry="2"/>
<ellipse class="st8" cx="279.9" cy="427.7" rx="6.6" ry="1.7"/>
<ellipse class="st7" cx="345.2" cy="430.4" rx="37.1" ry="7.9"/>
<ellipse class="st8" cx="330.6" cy="428.8" rx="5.7" ry="2"/>
<ellipse class="st8" cx="359.4" cy="434" rx="5.3" ry="2"/>
<ellipse class="st8" cx="347.5" cy="428.8" rx="6.6" ry="1.7"/>
<ellipse class="st7" cx="388.8" cy="424.7" rx="37.1" ry="7.9"/>
<ellipse class="st8" cx="374.2" cy="423" rx="5.7" ry="2"/>
<ellipse class="st8" cx="386.9" cy="428.9" rx="5.3" ry="2"/>
<ellipse class="st8" cx="391.2" cy="423" rx="6.6" ry="1.7"/>
<ellipse class="st8" cx="406.9" cy="425.2" rx="4.3" ry="1.6"/>
<ellipse class="st7" cx="310" cy="421.4" rx="37.1" ry="7.9"/>
<ellipse class="st8" cx="295.4" cy="419.8" rx="5.7" ry="2"/>
<ellipse class="st8" cx="308" cy="425.7" rx="5.3" ry="2"/>
<ellipse class="st8" cx="325.6" cy="423" rx="5.9" ry="1.6"/>
<ellipse class="st8" cx="312.4" cy="419.8" rx="6.6" ry="1.7"/>
<ellipse class="st7" cx="351.2" cy="420" rx="37.1" ry="7.9"/>
<ellipse class="st8" cx="336.6" cy="418.4" rx="5.7" ry="2"/>
<ellipse class="st8" cx="349.2" cy="424.2" rx="5.3" ry="2"/>
<ellipse class="st8" cx="353.6" cy="418.4" rx="6.6" ry="1.7"/>
<ellipse class="st8" cx="369.3" cy="420.6" rx="4.3" ry="1.6"/>
<ellipse class="st7" cx="228.8" cy="415.2" rx="37.1" ry="7.9"/>
<ellipse class="st8" cx="206.2" cy="413.2" rx="5.7" ry="2"/>
<ellipse class="st8" cx="237.8" cy="419.4" rx="5.3" ry="2"/>
<ellipse class="st8" cx="231.2" cy="413.6" rx="6.6" ry="1.7"/>
<ellipse class="st8" cx="256" cy="415.6" rx="4.3" ry="1.6"/>
<g>
	<defs>
		<path id="SVGID_1_" d="M219.5,108.9c0,68.7,77.4,152.6,133.7,152.6c48.5,0,133.7-83.9,133.7-152.6S427.1-32.3,353.2-32.3
			S219.5,40.2,219.5,108.9z"/>
	</defs>
	<clipPath id="SVGID_2_">
		<use xlink:href="#SVGID_1_"  style="overflow:visible;"/>
	</clipPath>
	<g class="st9">
		<path class="st10" d="M307.8,3.3l43.6,310.3l2.3,16.7c9.3,7.4,22.4,6.1,31.6,0.9l1.5-0.9L307.8,3.3z"/>
		<path class="st11" d="M386.9,330.3c0,0-28.9-2.4-35.7-18.2"/>
		<path class="st11" d="M378.8,303.3c-8.3-1.3-26.3-5.6-31.4-17.7"/>
		<path class="st11" d="M374,277.1c-8.8-1.6-25.1-6-30-17.4"/>
		<path class="st11" d="M366.1,249c-9.1-2.1-22-6.7-26.2-16.6"/>
		<path class="st11" d="M359.8,221.4c-8.7-2.4-19.2-7-23-15.8"/>
		<path class="st11" d="M354.3,195.1c-8.5-2.5-18.2-7-21.8-15.5"/>
		<path class="st11" d="M347.7,167.5c-7.5-2.7-15.4-7.1-18.5-14.4"/>
		<path class="st11" d="M341,140c-6.6-2.7-12.9-6.9-15.7-13.3"/>
		<path class="st11" d="M333.4,111.3c-4.8-2.7-10.2-8.1-12.3-13"/>
		<path class="st11" d="M317.5,72c1.6,3.7,5.9,8.4,9.3,10.7"/>
	</g>
</g>
</svg>
