<svg xmlns="http://www.w3.org/2000/svg" xmlns:xlink="http://www.w3.org/1999/xlink" viewBox="0 0 1000 725.6"><style>.a{fill:#9198cc;stroke:#2b2b2b;stroke-width:.25;stroke-miterlimit:10}.b{fill:#221f1f}.c{fill:#fff}.d,.e{stroke:#2b2b2b;stroke-width:.25}.e{fill:#f7e8ce}.d,.e,.f{stroke-miterlimit:10}.d{fill:#ba9066}.f{stroke-width:.25;fill:#2b2b2b;stroke:#ba9066}</style><path d="M370.4 179c131.5-12.8 249.5 93.4 263.5 237.3 1.1 11.5 1.5 23 1.2 34.2 37 14.8 66.8 34.7 85.9 57.9a232.4 232.4 0 0 1 59.2-17.9l-.5-.9-6.9-11.6-2.8-4.7c-10.7-18.2-1.5-43.6 20.4-56.5l27.6-16.3c2.3-1.3 5-.9 6.1 1l27.1 46c7 11.9 4.5 27.2-5 39.1l.4.7c15-2.5 29.7 2.7 36.7 14.6l27.1 46c1.1 1.9.2 4.5-2.1 5.8L880.7 570c-21.9 12.9-48.6 8.6-59.4-9.5l-5-8.5c-14.2 22.4-40.7 49.9-72.3 74.2-8.4 6.4-15.3 10.9-24.6 17a425 425 0 0 1-241.1 71.6c-57.5 0-110.8-10-154.3-27a233.2 233.2 0 0 1-59.9-32.2l-2.2-1.7-4.9-3.8a272 272 0 0 1-99.3-187.2c-14-144 81.2-271 212.7-283.9z" class="a"/><ellipse cx="443" cy="312.1" class="b" rx="15.1" ry="13"/><circle cx="440.4" cy="310.5" r="2.6" class="c"/><ellipse cx="276.9" cy="312.1" class="b" rx="15.1" ry="13"/><circle cx="280.1" cy="310.5" r="2.6" class="c"/><path fill="#d6d9ed" stroke="#2b2b2b" stroke-miterlimit="10" stroke-width=".3" d="M357.6 385.3c170.9 0 205.4 153.3 205.4 153.3 114.5 26.1 181 88.1 181 88.1a407.8 407.8 0 0 1-24 17 425 425 0 0 1-241.1 71.6c-57.5 0-110.8-10-154.3-27a233.2 233.2 0 0 1-59.9-32.2l-2.2-1.7-4.9-3.8a270.6 270.6 0 0 1-96.3-165.2c1.1-5.9 29.4-100.1 196.3-100.1z"/><path fill="none" stroke="#1a1a1a" stroke-linecap="round" stroke-linejoin="round" stroke-miterlimit="10" stroke-width=".8" d="M377.1 357.3a29.7 29.7 0 0 1-34.8.4l-.6-.4"/><path d="M160.3 454.8s-68.5-2.6-71.2-53.2a6.8 6.8 0 0 1 7.2-7.2l80.9 6.5" class="a"/><path d="M425.6 456.1H183.2c-7.1 0-13.7-3.5-17.7-9.4l-10-14.7h301.7l-15.6 17.1c-4.2 4.5-10 7-16 7z" class="e"/><ellipse cx="308.9" cy="426.1" class="e" rx="193" ry="23.5"/><path fill="#3b5ca9" d="M519.2 453.7s-68.3 6.5-77.7-43.3c-.8-4 2.1-7.8 6.2-8.1l76.6-4.1"/><path d="M522.4 452.3s-68.3 6.5-77.7-43.3c-.8-4 2.1-7.8 6.2-8.1l80.4-5.6" class="a"/><ellipse cx="199.6" cy="424.7" class="d" rx="37.1" ry="7.9"/><ellipse cx="177.8" cy="424.1" class="f" rx="5.7" ry="2"/><ellipse cx="198" cy="421.4" class="f" rx="5.3" ry="2"/><ellipse cx="221.5" cy="425.6" class="f" rx="6.6" ry="1.7"/><ellipse cx="199.6" cy="427.3" class="f" rx="6.6" ry="1.7"/><ellipse cx="256" cy="423" class="d" rx="37.1" ry="7.9"/><ellipse cx="241.4" cy="421.4" class="f" rx="5.7" ry="2"/><ellipse cx="254" cy="427.3" class="f" rx="5.3" ry="2"/><ellipse cx="258.4" cy="421.4" class="f" rx="6.6" ry="1.7"/><ellipse cx="277.5" cy="429.3" class="d" rx="37.1" ry="7.9"/><ellipse cx="262.9" cy="427.7" class="f" rx="5.7" ry="2"/><ellipse cx="275.5" cy="433.5" class="f" rx="5.3" ry="2"/><ellipse cx="279.9" cy="427.7" class="f" rx="6.6" ry="1.7"/><ellipse cx="345.2" cy="430.4" class="d" rx="37.1" ry="7.9"/><ellipse cx="330.6" cy="428.8" class="f" rx="5.7" ry="2"/><ellipse cx="359.4" cy="434" class="f" rx="5.3" ry="2"/><ellipse cx="347.5" cy="428.8" class="f" rx="6.6" ry="1.7"/><ellipse cx="388.8" cy="424.7" class="d" rx="37.1" ry="7.9"/><ellipse cx="374.2" cy="423" class="f" rx="5.7" ry="2"/><ellipse cx="386.9" cy="428.9" class="f" rx="5.3" ry="2"/><ellipse cx="391.2" cy="423" class="f" rx="6.6" ry="1.7"/><ellipse cx="406.9" cy="425.2" class="f" rx="4.3" ry="1.6"/><ellipse cx="310" cy="421.4" class="d" rx="37.1" ry="7.9"/><ellipse cx="295.4" cy="419.8" class="f" rx="5.7" ry="2"/><ellipse cx="308" cy="425.7" class="f" rx="5.3" ry="2"/><ellipse cx="325.6" cy="423" class="f" rx="5.9" ry="1.6"/><ellipse cx="312.4" cy="419.8" class="f" rx="6.6" ry="1.7"/><ellipse cx="351.2" cy="420" class="d" rx="37.1" ry="7.9"/><ellipse cx="336.6" cy="418.4" class="f" rx="5.7" ry="2"/><ellipse cx="349.2" cy="424.2" class="f" rx="5.3" ry="2"/><ellipse cx="353.6" cy="418.4" class="f" rx="6.6" ry="1.7"/><ellipse cx="369.3" cy="420.6" class="f" rx="4.3" ry="1.6"/><ellipse cx="228.8" cy="415.2" class="d" rx="37.1" ry="7.9"/><ellipse cx="206.2" cy="413.2" class="f" rx="5.7" ry="2"/><ellipse cx="237.8" cy="419.4" class="f" rx="5.3" ry="2"/><ellipse cx="231.2" cy="413.6" class="f" rx="6.6" ry="1.7"/><ellipse cx="256" cy="415.6" class="f" rx="4.3" ry="1.6"/><defs><path id="g" d="M219.5 108.9c0 68.7 77.4 152.6 133.7 152.6 48.5 0 133.7-83.9 133.7-152.6S427.1-32.3 353.2-32.3 219.5 40.2 219.5 108.9z"/></defs><clipPath id="h"><use overflow="visible" xlink:href="#g"/></clipPath><g stroke="#515151" stroke-miterlimit="10" clip-path="url(#h)"><path fill="#d6d9ed" d="M307.8 3.3l43.6 310.3 2.3 16.7c9.3 7.4 22.4 6.1 31.6.9l1.5-.9-79-327z"/><path fill="none" stroke-linecap="round" stroke-linejoin="round" d="M386.9 330.3s-28.9-2.4-35.7-18.2m27.6-8.8c-8.3-1.3-26.3-5.6-31.4-17.7m26.6-8.5c-8.8-1.6-25.1-6-30-17.4m22.1-10.7c-9.1-2.1-22-6.7-26.2-16.6m19.9-11c-8.7-2.4-19.2-7-23-15.8m17.5-10.5c-8.5-2.5-18.2-7-21.8-15.5m15.2-12.1c-7.5-2.7-15.4-7.1-18.5-14.4M341 140c-6.6-2.7-12.9-6.9-15.7-13.3m8.1-15.4a31.4 31.4 0 0 1-12.3-13M317.5 72c1.6 3.7 5.9 8.4 9.3 10.7"/></g></svg>
