<svg xmlns="http://www.w3.org/2000/svg" viewBox="0 0 454.69 328.42">
  <defs>
    <clipPath id="a">
      <path fill="none" d="M212.69 127a7.68 7.68 0 0 1-7.94 7.38c-4.39 0-7.08-5.82-7.08-5.82l12.64-7.76a8.59 8.59 0 0 1 2.38 6.2z"/>
    </clipPath>
    <clipPath id="b">
      <path fill="none" d="M249.09 143.48h-62.38l22.73-9.02 1.59-13.82 6.09-3.92 7.67 5.12 2.58 2.63 21.72 19.01z"/>
    </clipPath>
    <clipPath id="c">
      <ellipse cx="204.71" cy="84.26" fill="none" rx="53.94" ry="50.17"/>
    </clipPath>
    <clipPath id="d">
      <path fill="none" d="M220.11 84.4c0 1.55-3 5.43-7 5.43s-6.64-4.16-6.64-5.72-1-14.26 8.21-14.26c10.69 0 5.43 12.99 5.43 14.55z"/>
    </clipPath>
    <clipPath id="e">
      <rect width="124.9" height="269.75" x="320.61" y="50.91" fill="none" rx="28.56" ry="28.56"/>
    </clipPath>
    <clipPath id="f">
      <path fill="none" d="M371.52 127a7.67 7.67 0 0 0 7.94 7.38c4.38 0 7.07-5.82 7.07-5.82l-12.64-7.76a8.6 8.6 0 0 0-2.37 6.2z"/>
    </clipPath>
    <clipPath id="g">
      <path fill="none" d="M335.12 143.48h62.37l-22.73-9.02-1.58-13.82-6.1-3.92-7.66 5.12-2.59 2.63-21.71 19.01z"/>
    </clipPath>
    <clipPath id="h">
      <ellipse cx="379.5" cy="84.26" fill="none" rx="53.94" ry="50.17"/>
    </clipPath>
    <clipPath id="i">
      <path fill="none" d="M364.1 84.4c0 1.55 3 5.43 7 5.43s6.64-4.16 6.64-5.72 1-14.26-8.2-14.26c-10.7 0-5.44 12.99-5.44 14.55z"/>
    </clipPath>
  </defs>
  <g data-name="Layer 1">
    <path fill="#2d292a" stroke="#231f20" stroke-miterlimit="10" d="M191.27 132.54s-15.72-.19-20.22-2.78-6.14-7.17-5.94-8.91l1.34-4 7.47.09 18.4 13.61.1 1.64z"/>
    <path fill="#9198cc" stroke="#2b2b2b" stroke-miterlimit="10" stroke-width=".25" d="M273 216.15s23.43 9.35 31.9-7.28a2.49 2.49 0 0 0-1.37-3.49l-28.17-9.88"/>
    <path fill="#9198cc" stroke="#2b2b2b" stroke-miterlimit="10" stroke-width=".25" d="M200.65 116.81c-48.37-4.72-91.76 34.35-96.93 87.28a106.65 106.65 0 0 0-.45 12.59C89.65 222.13 78.7 229.46 71.66 238a86 86 0 0 0-21.78-6.58l.19-.32 2.52-4.28 1-1.72c3.94-6.68.56-16-7.51-20.79l-10.16-6a1.62 1.62 0 0 0-2.24.36l-10 16.9c-2.57 4.37-1.65 10 1.84 14.4l-.14.24c-5.53-.92-10.91 1-13.49 5.37L2 252.47a1.62 1.62 0 0 0 .78 2.13l10.15 6c8.07 4.75 17.9 3.18 21.83-3.5l1.82-3.1c5.22 8.23 15 18.36 26.6 27.29 3.08 2.36 5.65 4 9.06 6.26a152 152 0 0 0 30 15.64c16.36 6.72 36.67 10.7 58.69 10.7 21.16 0 40.74-3.69 56.76-10a86.05 86.05 0 0 0 18.82-9.59c1.1-.73 2.16-1.48 3.2-2.25l.81-.62c.61-.47 1.22-.93 1.81-1.41 19.82-15.79 33.75-40.3 36.54-68.85 5.13-52.92-29.87-99.64-78.22-104.36z"/>
    <ellipse cx="173.96" cy="165.74" fill="#221f1f" rx="5.54" ry="4.8"/>
    <circle cx="174.91" cy="165.17" r=".95" fill="#fff"/>
    <ellipse cx="235.03" cy="165.74" fill="#221f1f" rx="5.54" ry="4.8"/>
    <circle cx="233.88" cy="165.17" r=".95" fill="#fff"/>
    <path fill="#d6d9ed" stroke="#2b2b2b" stroke-miterlimit="10" stroke-width=".25" d="M205.51 192.66C142.66 192.66 130 249 130 249c-42.12 9.59-66.56 32.39-66.57 32.41q4.22 3.18 8.83 6.25a151.85 151.85 0 0 0 30 15.65c16.35 6.72 36.67 10.7 58.68 10.7 21.16 0 40.74-3.7 56.76-9.95a86.94 86.94 0 0 0 18.82-9.59c1.1-.73 2.17-1.49 3.2-2.25l.81-.63c.61-.46 1.23-.93 1.81-1.4 17.92-14.28 31-35.69 35.41-60.77-.48-2.12-10.86-36.76-72.24-36.76z"/>
    <path fill="none" stroke="#1a1a1a" stroke-linecap="round" stroke-linejoin="round" stroke-width=".75" d="M198.19 182.36a11 11 0 0 0 12.81.16l.23-.16"/>
    <path fill="#3b5ca9" d="M139.36 228.2s21.95 12.43 32.59-2.91a2.48 2.48 0 0 0-.89-3.64L146 208.81"/>
    <path fill="#9198cc" stroke="#2b2b2b" stroke-miterlimit="10" stroke-width=".25" d="M137.94 227.63s21.95 12.43 32.59-2.91a2.49 2.49 0 0 0-.88-3.64l-26.18-14"/>
    <path fill="#d9f7ff" d="M349.17 322.46c-17.4 0-31.56-13.79-31.56-30.73V78.63c0-16.94 14.16-30.72 31.56-30.72H417c17.4 0 31.55 13.78 31.55 30.72v213.1c0 16.94-14.15 30.73-31.55 30.73z"/>
    <path fill="#b1b1b5" d="M417 50.91c15.7 0 28.55 12.48 28.55 27.72v213.1c0 15.25-12.85 27.73-28.55 27.73h-67.83c-15.71 0-28.56-12.48-28.56-27.73V78.63c0-15.24 12.85-27.72 28.56-27.72H417m0-6h-67.83c-19.06 0-34.56 15.13-34.56 33.72v213.1c0 18.6 15.5 33.73 34.56 33.73H417c19.05 0 34.55-15.13 34.55-33.73V78.63C451.51 60 436 44.91 417 44.91z"/>
    <path fill="#8271cc" d="M179.76 174.45l-11.13 5.85 2.13-12.39-9.01-8.78 12.45-1.81 5.56-11.27 5.56 11.27 12.45 1.81-9.01 8.78 2.13 12.39-11.13-5.85z"/>
    <path fill="#081647" d="M179.76 146.89l5.32 10.78 11.92 1.72-8.6 8.39 2 11.84-10.64-5.62-10.63 5.59 2-11.84-8.6-8.39 11.88-1.72 5.32-10.78m0-1.69l-.67 1.36L174 157l-11.5 1.67-1.5.22 1.08 1.06 8.32 8.11-2 11.45-.26 1.5 1.35-.71 10.28-5.41 10.23 5.39 1.35.71-.26-1.5-2-11.45 8.32-8.11 1.08-1.06-1.5-.22-11.42-1.65-5.14-10.42-.67-1.36z"/>
    <path fill="#3f458a" d="M171 168.54l-1.9 11.08 10.66-5.62 10.63 5.59-1.9-11.08a42.79 42.79 0 0 1-17.46 0z" style="mix-blend-mode:overlay"/>
    <path fill="#8271cc" d="M221.94 167.91l-9-8.78 12.44-1.81 5.56-11.27 5.57 11.27 12.44 1.81-9 8.78 2.12 12.39-11.13-5.85-11.13 5.85 2.13-12.39z"/>
    <path fill="#081647" d="M230.94 146.89l5.32 10.78 11.89 1.72-8.6 8.39 2 11.84-10.61-5.62-10.63 5.59 2-11.84-8.6-8.39 11.89-1.72 5.31-10.78m0-1.69l-.67 1.36-5.11 10.47-11.5 1.67-1.5.22 1.09 1.06 8.32 8.11-2 11.45-.25 1.5 1.34-.71 10.28-5.41 10.29 5.41 1.34.71-.25-1.5-2-11.45 8.32-8.11 1.09-1.06-1.51-.22-11.43-1.67-5.14-10.42-.68-1.36z"/>
    <path fill="#3f458a" d="M222.21 168.54l-1.9 11.08 10.63-5.62 10.64 5.59-1.9-11.08a42.84 42.84 0 0 1-17.47 0z" style="mix-blend-mode:overlay"/>
    <path fill="none" stroke="#081647" stroke-miterlimit="10" stroke-width=".75" d="M188.67 168.54l1-.13a124 124 0 0 1 32.54.13"/>
    <g stroke-width=".25" clip-path="url(#a)">
      <path fill="#d6d9ed" stroke="#2b2b2b" stroke-miterlimit="10" d="M223.06 35.31l-17.58 125.18-.95 6.74c-3.76 3-9.05 2.45-12.74.35l-.62-.35z"/>
      <path fill="none" stroke="#6b6b6b" stroke-linecap="round" stroke-linejoin="round" d="M191.17 167.23s11.65-1 14.39-7.34M194.43 156.32c3.34-.55 10.6-2.26 12.68-7.13M196.36 145.75c3.54-.63 10.14-2.41 12.11-7M199.53 134.41c3.66-.84 8.86-2.71 10.57-6.7M211.38 116.91c-1.52 3.55-5.79 5.42-9.29 6.38M204.32 112.68c3.43-1 7.33-2.81 8.8-6.25M207 101.56c3-1.07 6.21-2.86 7.47-5.82M209.67 90.43c2.65-1.1 5.21-2.8 6.32-5.38M212.72 78.88a12.47 12.47 0 0 0 5-5.25M219.17 63a12.29 12.29 0 0 1-3.75 4.34"/>
    </g>
    <g clip-path="url(#b)">
      <path fill="#9198cc" stroke="#2b2b2b" stroke-miterlimit="10" stroke-width=".25" d="M200.1 116.56c-48.37-4.72-91.77 34.36-96.93 87.28a106.83 106.83 0 0 0-.46 12.59c-13.62 5.45-24.57 12.78-31.6 21.29a86.27 86.27 0 0 0-21.77-6.58l.18-.32 2.48-4.27 1-1.72c3.94-6.68.55-16-7.52-20.79l-10.15-6a1.61 1.61 0 0 0-2.24.36l-10 16.9c-2.58 4.37-1.65 10 1.83 14.4l-.14.24c-5.53-.92-10.91 1-13.48 5.37l-10 16.9a1.62 1.62 0 0 0 .77 2.14l10.16 6c8.07 4.76 17.89 3.18 21.83-3.5l1.94-3.14c5.22 8.23 15 18.36 26.61 27.29 3.07 2.37 5.64 4 9.05 6.26a151.24 151.24 0 0 0 30 15.64c16.35 6.72 36.67 10.7 58.68 10.7 21.16 0 40.75-3.69 56.76-10a86.23 86.23 0 0 0 18.9-9.53c1.11-.74 2.17-1.49 3.2-2.25l.81-.63c.61-.47 1.23-.93 1.81-1.41 19.83-15.79 33.76-40.29 36.54-68.85 5.13-52.93-29.9-99.65-78.26-104.37z"/>
    </g>
    <g stroke-width=".25" clip-path="url(#c)">
      <path fill="#d6d9ed" stroke="#2b2b2b" stroke-miterlimit="10" d="M223 35.33l-17.56 125.18-.95 6.73c-3.76 3-9 2.46-12.74.36l-.62-.36z"/>
      <path fill="none" stroke="#6b6b6b" stroke-linecap="round" stroke-linejoin="round" d="M191.13 167.24s11.65-1 14.4-7.34M194.39 156.33c3.34-.54 10.6-2.26 12.69-7.12M196.32 145.77c3.54-.64 10.14-2.42 12.12-7M199.49 134.43c3.66-.84 8.86-2.71 10.57-6.71M211.34 116.92c-1.52 3.55-5.79 5.42-9.28 6.39M204.28 112.69c3.43-1 7.33-2.81 8.81-6.24M207 101.58c3-1.08 6.21-2.87 7.47-5.82M209.63 90.44c2.66-1.1 5.21-2.79 6.32-5.37M212.68 78.89a12.47 12.47 0 0 0 5-5.25M219.13 63a12.16 12.16 0 0 1-3.75 4.33"/>
    </g>
    <path fill="#2d292a" stroke="#231f20" stroke-miterlimit="10" d="M226.27 122.82s7.19-2.3 12.17 5-12.24 18-26.35 10.82a124.18 124.18 0 0 1-23-15.06z"/>
    <path fill="#2d292a" stroke="#231f20" stroke-miterlimit="10" d="M231 89.22a80.73 80.73 0 0 0-50.56-7s.3 13.62-1.22 23.31-3 10-3 10l22.32 16.05s20.67 3 26.12 1.21c-.01.03-4.25-20.25 6.34-43.57z"/>
    <path stroke="#231f20" stroke-miterlimit="10" d="M176.47 115.82a149.25 149.25 0 0 0 24.15 6.9 99.29 99.29 0 0 0 23.22 1.44l.81 8.66s-11 2.2-26.14-1.08z"/>
    <path fill="#58595b" stroke="#231f20" stroke-miterlimit="10" d="M216.06 140.64s-17-3.16-26.46-10.83-17.15-12.11-19-12.28-5.27-.27-5.52 3.37c0 0-1-11.21 11.1-5.56l16.27 12.17s18.15 12.86 23.61 13.13z"/>
    <g clip-path="url(#d)">
      <g stroke-width=".25" clip-path="url(#c)">
        <path fill="#d6d9ed" stroke="#2b2b2b" stroke-miterlimit="10" d="M223 35.33l-17.56 125.18-.95 6.73c-3.76 3-9 2.46-12.74.36l-.62-.36z"/>
        <path fill="none" stroke="#6b6b6b" stroke-linecap="round" stroke-linejoin="round" d="M191.13 167.24s11.65-1 14.4-7.34M194.39 156.33c3.34-.54 10.6-2.26 12.69-7.12M196.32 145.77c3.54-.64 10.14-2.42 12.12-7M199.49 134.43c3.66-.84 8.86-2.71 10.57-6.71M211.34 116.92c-1.52 3.55-5.79 5.42-9.28 6.39M204.28 112.69c3.43-1 7.33-2.81 8.81-6.24M207 101.58c3-1.08 6.21-2.87 7.47-5.82M209.63 90.44c2.66-1.1 5.21-2.79 6.32-5.37M212.68 78.89a12.47 12.47 0 0 0 5-5.25M219.13 63a12.16 12.16 0 0 1-3.75 4.33"/>
      </g>
    </g>
    <g clip-path="url(#e)">
      <path fill="#2d292a" stroke="#231f20" stroke-miterlimit="10" d="M392.94 132.54s15.71-.19 20.22-2.78 6.13-7.17 5.94-8.91l-1.35-4-7.47.09-18.4 13.61-.09 1.64z"/>
      <path fill="#9198cc" stroke="#2b2b2b" stroke-miterlimit="10" stroke-width=".25" d="M311.2 216.15s-23.43 9.35-31.89-7.28a2.48 2.48 0 0 1 1.36-3.49l28.17-9.88"/>
      <path fill="#9198cc" stroke="#2b2b2b" stroke-miterlimit="10" stroke-width=".25" d="M383.55 116.81c48.37-4.72 91.77 34.35 96.93 87.28a104.55 104.55 0 0 1 .45 12.59c13.63 5.45 24.58 12.78 31.61 21.29a85.86 85.86 0 0 1 21.77-6.58l-.18-.32-2.52-4.28-1-1.72c-3.94-6.68-.55-16 7.52-20.79l10.15-6a1.61 1.61 0 0 1 2.24.36l10 16.9c2.58 4.37 1.65 10-1.83 14.4l.14.24c5.53-.92 10.91 1 13.48 5.37l10 16.9a1.61 1.61 0 0 1-.77 2.13l-10.16 6c-8.07 4.75-17.89 3.18-21.83-3.5l-1.92-3.08c-5.22 8.23-15 18.36-26.61 27.29-3.08 2.36-5.64 4-9.06 6.26a151.71 151.71 0 0 1-30 15.64c-16.36 6.72-36.67 10.7-58.68 10.7-21.17 0-40.75-3.69-56.77-10a86 86 0 0 1-18.81-9.59c-1.11-.73-2.17-1.48-3.2-2.25-.28-.2-.54-.42-.81-.62-.61-.47-1.23-.93-1.81-1.41-19.83-15.79-33.76-40.3-36.54-68.85-5.18-52.92 29.85-99.64 78.21-104.36z"/>
      <ellipse cx="410.24" cy="165.74" fill="#221f1f" rx="5.54" ry="4.8"/>
      <circle cx="409.3" cy="165.17" r=".95" fill="#fff"/>
      <ellipse cx="349.18" cy="165.74" fill="#221f1f" rx="5.54" ry="4.8"/>
      <circle cx="350.33" cy="165.17" r=".95" fill="#fff"/>
      <path fill="#d6d9ed" stroke="#2b2b2b" stroke-miterlimit="10" stroke-width=".25" d="M378.7 192.66c62.85 0 75.55 56.38 75.55 56.38 42.12 9.59 66.56 32.39 66.57 32.41q-4.22 3.18-8.84 6.25a151.79 151.79 0 0 1-30 15.65c-16.36 6.72-36.67 10.7-58.68 10.7-21.17 0-40.75-3.7-56.77-9.95a87.17 87.17 0 0 1-18.82-9.59c-1.1-.73-2.16-1.49-3.2-2.25l-.81-.63c-.61-.46-1.22-.93-1.81-1.4-17.92-14.28-31-35.69-35.4-60.77.44-2.16 10.83-36.8 72.21-36.8z"/>
      <path fill="none" stroke="#1a1a1a" stroke-linecap="round" stroke-linejoin="round" stroke-width=".75" d="M386 182.36a11 11 0 0 1-12.82.16l-.22-.16"/>
      <path fill="#3b5ca9" d="M444.84 228.2s-21.95 12.43-32.58-2.91a2.48 2.48 0 0 1 .88-3.64l25.11-12.84"/>
      <path fill="#9198cc" stroke="#2b2b2b" stroke-miterlimit="10" stroke-width=".25" d="M446.26 227.63s-21.95 12.43-32.58-2.91a2.49 2.49 0 0 1 .88-3.64l26.17-14"/>
      <path fill="#8271cc" d="M404.44 174.45l-11.13 5.85 2.13-12.39-9-8.78 12.44-1.81 5.56-11.27 5.57 11.27 12.44 1.81-9 8.78 2.12 12.39-11.13-5.85z"/>
      <path fill="#081647" d="M404.44 146.89l5.32 10.78 11.89 1.72-8.6 8.39 2 11.84-10.61-5.62-10.63 5.59 2-11.84-8.6-8.39 11.89-1.72 5.31-10.78m0-1.69l-.67 1.36-5.11 10.47-11.5 1.67-1.5.22 1.09 1.06L395 168l-2 11.45-.25 1.5 1.34-.71 10.28-5.41 10.29 5.41 1.34.71-.25-1.5-2-11.45 8.32-8.11 1.09-1.06-1.5-.22-11.4-1.61-5.14-10.42-.68-1.36z"/>
      <path fill="#3f458a" d="M413.18 168.54l1.9 11.08-10.64-5.62-10.63 5.59 1.9-11.08a42.84 42.84 0 0 0 17.47 0z" style="mix-blend-mode:overlay"/>
      <path fill="#8271cc" d="M353.26 174.45l-11.13 5.85 2.13-12.39-9.01-8.78 12.45-1.81 5.56-11.27 5.57 11.27 12.44 1.81-9 8.78 2.12 12.39-11.13-5.85z"/>
      <path fill="#081647" d="M353.26 146.89l5.32 10.78 11.88 1.72-8.6 8.39 2 11.84-10.6-5.62-10.63 5.59 2-11.84-8.6-8.39 11.97-1.69 5.31-10.78m0-1.69l-.67 1.36-5.19 10.44-11.45 1.65-1.5.22 1.08 1.06 8.32 8.11-2 11.45-.26 1.5 1.35-.71 10.28-5.41 10.28 5.41 1.35.71-.26-1.5-2-11.45 8.32-8.11 1.09-1.06-1.51-.22-11.46-1.65-5.15-10.42-.67-1.36z"/>
      <path fill="#3f458a" d="M362 168.54l1.9 11.08-10.64-5.62-10.63 5.59 1.9-11.08a42.79 42.79 0 0 0 17.46 0z" style="mix-blend-mode:overlay"/>
      <path fill="none" stroke="#081647" stroke-miterlimit="10" stroke-width=".75" d="M395.54 168.54l-1-.13a124 124 0 0 0-32.55.13"/>
      <g stroke-width=".25" clip-path="url(#f)">
        <path fill="#d6d9ed" stroke="#2b2b2b" stroke-miterlimit="10" d="M361.14 35.31l17.59 125.18.94 6.74c3.76 3 9.05 2.45 12.75.35l.62-.35z"/>
        <path fill="none" stroke="#6b6b6b" stroke-linecap="round" stroke-linejoin="round" d="M393 167.23s-11.66-1-14.4-7.34M389.78 156.32c-3.35-.55-10.6-2.26-12.69-7.13M387.84 145.75c-3.53-.63-10.13-2.41-12.11-7M384.67 134.41c-3.65-.84-8.85-2.71-10.57-6.7M372.83 116.91c1.52 3.55 5.79 5.42 9.28 6.38M379.88 112.68c-3.42-1-7.33-2.81-8.8-6.25M377.22 101.56c-3-1.07-6.21-2.86-7.48-5.82M374.54 90.43c-2.66-1.1-5.22-2.8-6.32-5.38M371.49 78.88a12.47 12.47 0 0 1-5-5.25M365 63a12.19 12.19 0 0 0 3.75 4.34"/>
      </g>
      <g clip-path="url(#g)">
        <path fill="#9198cc" stroke="#2b2b2b" stroke-miterlimit="10" stroke-width=".25" d="M384.11 116.56c48.37-4.72 91.76 34.36 96.93 87.28a106.8 106.8 0 0 1 .45 12.59c13.62 5.45 24.57 12.78 31.61 21.29a86.44 86.44 0 0 1 21.78-6.58l-.19-.32-2.52-4.28-1-1.72c-3.94-6.68-.56-16 7.51-20.79l10.16-6a1.62 1.62 0 0 1 2.24.36l10 16.9c2.57 4.37 1.65 10-1.84 14.4l.15.24c5.53-.92 10.9 1 13.48 5.37l10 16.9a1.63 1.63 0 0 1-.77 2.14l-10.16 6c-8.07 4.76-17.9 3.18-21.83-3.5l-1.84-3.13c-5.22 8.23-15 18.36-26.6 27.29-3.08 2.37-5.64 4-9.06 6.26a151.45 151.45 0 0 1-30 15.64c-16.36 6.72-36.67 10.7-58.68 10.7-21.17 0-40.75-3.69-56.77-10a86.68 86.68 0 0 1-18.82-9.58c-1.1-.74-2.16-1.49-3.2-2.25l-.81-.63c-.61-.47-1.22-.93-1.81-1.41-19.82-15.79-33.75-40.29-36.54-68.85-5.26-52.88 29.76-99.6 78.13-104.32z"/>
      </g>
      <g stroke-width=".25" clip-path="url(#h)">
        <path fill="#d6d9ed" stroke="#2b2b2b" stroke-miterlimit="10" d="M361.18 35.33l17.58 125.18.95 6.73c3.76 3 9.05 2.46 12.75.36l.61-.36z"/>
        <path fill="none" stroke="#6b6b6b" stroke-linecap="round" stroke-linejoin="round" d="M393.07 167.24s-11.65-1-14.39-7.34M389.81 156.33c-3.34-.54-10.59-2.26-12.68-7.12M387.88 145.77c-3.53-.64-10.14-2.42-12.11-7M384.71 134.43c-3.65-.84-8.86-2.71-10.57-6.71M372.87 116.92c1.52 3.55 5.78 5.42 9.28 6.39M379.92 112.69c-3.43-1-7.33-2.81-8.8-6.24M377.26 101.58c-3.05-1.08-6.21-2.87-7.48-5.82M374.58 90.44c-2.66-1.1-5.22-2.79-6.32-5.37M371.52 78.89a12.47 12.47 0 0 1-5-5.25M365.07 63a12.36 12.36 0 0 0 3.75 4.33"/>
      </g>
      <path fill="#2d292a" stroke="#231f20" stroke-miterlimit="10" d="M357.93 122.82s-7.18-2.3-12.16 5 12.23 18 26.34 10.82a124.51 124.51 0 0 0 23-15.06z"/>
      <path fill="#2d292a" stroke="#231f20" stroke-miterlimit="10" d="M353.19 89.22a80.78 80.78 0 0 1 50.57-7s-.3 13.62 1.21 23.31 3 10 3 10l-22.32 16.05s-20.68 3-26.13 1.21c.03.03 4.27-20.25-6.33-43.57z"/>
      <path stroke="#231f20" stroke-miterlimit="10" d="M407.73 115.82a149.32 149.32 0 0 1-24.14 6.9 99.29 99.29 0 0 1-23.22 1.44l-.82 8.66s11 2.2 26.14-1.08z"/>
      <path fill="#58595b" stroke="#231f20" stroke-miterlimit="10" d="M368.14 140.64s17-3.16 26.46-10.83 17.16-12.11 19-12.28 5.27-.27 5.51 3.37c0 0 1-11.21-11.09-5.56l-16.27 12.17s-18.14 12.86-23.61 13.13z"/>
      <g clip-path="url(#i)">
        <g stroke-width=".25" clip-path="url(#h)">
          <path fill="#d6d9ed" stroke="#2b2b2b" stroke-miterlimit="10" d="M361.18 35.33l17.58 125.18.95 6.73c3.76 3 9.05 2.46 12.75.36l.61-.36z"/>
          <path fill="none" stroke="#6b6b6b" stroke-linecap="round" stroke-linejoin="round" d="M393.07 167.24s-11.65-1-14.39-7.34M389.81 156.33c-3.34-.54-10.59-2.26-12.68-7.12M387.88 145.77c-3.53-.64-10.14-2.42-12.11-7M384.71 134.43c-3.65-.84-8.86-2.71-10.57-6.71M372.87 116.92c1.52 3.55 5.78 5.42 9.28 6.39M379.92 112.69c-3.43-1-7.33-2.81-8.8-6.24M377.26 101.58c-3.05-1.08-6.21-2.87-7.48-5.82M374.58 90.44c-2.66-1.1-5.22-2.79-6.32-5.37M371.52 78.89a12.47 12.47 0 0 1-5-5.25M365.07 63a12.36 12.36 0 0 0 3.75 4.33"/>
        </g>
      </g>
    </g>
  </g>
</svg>
