<svg xmlns="http://www.w3.org/2000/svg" viewBox="0 0 454.7 328.4"><clipPath id="a"><path fill="none" d="M212.7 127a7.7 7.7 0 0 1-8 7.4c-4.3 0-7-5.8-7-5.8l12.6-7.8a8.6 8.6 0 0 1 2.4 6.2z"/></clipPath><clipPath id="b"><path fill="none" d="M249 143.5h-62.3l22.7-9 1.6-13.9 6.1-3.9 7.7 5.1 2.6 2.7 21.7 19z"/></clipPath><clipPath id="c"><ellipse cx="204.7" cy="84.3" fill="none" rx="53.9" ry="50.2"/></clipPath><clipPath id="d"><path fill="none" d="M220.1 84.4c0 1.6-3 5.4-7 5.4s-6.6-4.1-6.6-5.7-1-14.2 8.2-14.2c10.7 0 5.4 13 5.4 14.5z"/></clipPath><clipPath id="e"><rect width="124.9" height="269.8" x="320.6" y="50.9" fill="none" rx="28.6" ry="28.6"/></clipPath><clipPath id="f"><path fill="none" d="M371.5 127a7.7 7.7 0 0 0 8 7.4c4.3 0 7-5.8 7-5.8l-12.6-7.8a8.6 8.6 0 0 0-2.4 6.2z"/></clipPath><clipPath id="g"><path fill="none" d="M335.1 143.5h62.4l-22.7-9-1.6-13.9-6.1-3.9-7.7 5.1-2.6 2.7-21.7 19z"/></clipPath><clipPath id="h"><ellipse cx="379.5" cy="84.3" fill="none" rx="53.9" ry="50.2"/></clipPath><clipPath id="i"><path fill="none" d="M364.1 84.4c0 1.6 3 5.4 7 5.4s6.6-4.1 6.6-5.7 1-14.2-8.2-14.2c-10.7 0-5.4 13-5.4 14.5z"/></clipPath><path fill="#2d292a" stroke="#231f20" stroke-miterlimit="10" d="M191.3 132.5s-15.8-.2-20.3-2.7-6-7.2-5.9-9l1.4-4 7.4.1 18.4 13.6.1 1.7z"/><path fill="#9198cc" stroke="#2b2b2b" stroke-miterlimit="10" stroke-width=".3" d="M273 216.2s23.4 9.3 31.9-7.3a2.5 2.5 0 0 0-1.4-3.5l-28.1-9.9"/><path fill="#9198cc" stroke="#2b2b2b" stroke-miterlimit="10" stroke-width=".3" d="M200.7 116.8c-48.4-4.7-91.8 34.4-97 87.3a106.7 106.7 0 0 0-.4 12.6A78.4 78.4 0 0 0 71.7 238a86 86 0 0 0-21.8-6.6l.2-.3 2.5-4.3 1-1.7c4-6.7.5-16-7.5-20.8l-10.2-6a1.6 1.6 0 0 0-2.2.4l-10 16.9c-2.6 4.3-1.7 10 1.8 14.4l-.1.2c-5.5-1-11 1-13.5 5.4L2 252.5a1.6 1.6 0 0 0 .8 2.1l10.1 6c8.1 4.8 18 3.2 21.9-3.5l1.8-3.1c5.2 8.2 15 18.4 26.6 27.3 3 2.4 5.6 4 9 6.3a152 152 0 0 0 30 15.6 156.5 156.5 0 0 0 58.7 10.7 157 157 0 0 0 56.8-10 86 86 0 0 0 18.8-9.6l3.2-2.3.8-.6 1.8-1.4a100.2 100.2 0 0 0 36.6-68.8c5.1-53-29.9-99.7-78.2-104.4z"/><ellipse cx="174" cy="165.7" fill="#221f1f" rx="5.5" ry="4.8"/><circle cx="174.9" cy="165.2" r=".9" fill="#fff"/><ellipse cx="235" cy="165.7" fill="#221f1f" rx="5.5" ry="4.8"/><circle cx="233.9" cy="165.2" r=".9" fill="#fff"/><path fill="#d6d9ed" stroke="#2b2b2b" stroke-miterlimit="10" stroke-width=".3" d="M205.5 192.7c-62.8 0-75.5 56.3-75.5 56.3a154.8 154.8 0 0 0-66.6 32.4q4.3 3.2 8.9 6.3a151.8 151.8 0 0 0 30 15.6 156.5 156.5 0 0 0 58.6 10.7 158 158 0 0 0 56.8-10 87 87 0 0 0 18.8-9.5l3.2-2.3.8-.6 1.8-1.4c18-14.3 31-35.7 35.4-60.8-.4-2.1-10.8-36.7-72.2-36.7z"/><path fill="none" stroke="#1a1a1a" stroke-linecap="round" stroke-linejoin="round" stroke-width=".8" d="M198.2 182.4a11 11 0 0 0 12.8.1l.2-.1"/><path fill="#3b5ca9" d="M139.4 228.2s22 12.4 32.6-3a2.5 2.5 0 0 0-1-3.5l-25-12.9"/><path fill="#9198cc" stroke="#2b2b2b" stroke-miterlimit="10" stroke-width=".3" d="M138 227.6s21.9 12.5 32.5-2.9a2.5 2.5 0 0 0-.8-3.6l-26.2-14"/><path fill="#d9f7ff" d="M349.2 322.5a31.2 31.2 0 0 1-31.6-30.8v-213c0-17 14.2-30.8 31.6-30.8H417a31.2 31.2 0 0 1 31.6 30.7v213.1c0 17-14.2 30.8-31.6 30.8z"/><path fill="#b1b1b5" d="M417 51a28.2 28.2 0 0 1 28.6 27.6v213.1a28.2 28.2 0 0 1-28.6 27.8h-67.8a28.2 28.2 0 0 1-28.6-27.8v-213a28.2 28.2 0 0 1 28.6-27.8H417m0-6h-67.8c-19 0-34.6 15.1-34.6 33.7v213.1a34.2 34.2 0 0 0 34.6 33.8H417c19 0 34.5-15.2 34.5-33.8v-213A34.2 34.2 0 0 0 417 44.8z"/><path fill="#8271cc" d="M179.8 174.4l-11.2 5.9 2.2-12.4-9-8.8 12.4-1.8 5.6-11.3 5.5 11.3 12.5 1.8-9 8.8 2 12.4-11-5.9z"/><path fill="#081647" d="M179.8 146.9l5.3 10.8 11.9 1.7-8.6 8.4 2 11.8-10.6-5.6-10.7 5.6 2-11.9-8.6-8.3 12-1.8 5.2-10.7m0-1.7l-.6 1.3L174 157l-11.5 1.7-1.5.2 1 1 8.4 8.2-2 11.4-.3 1.5 1.4-.7 10.3-5.4 10.2 5.4 1.4.7-.3-1.5-2-11.5 8.3-8 1-1.1-1.4-.3-11.4-1.6-5.2-10.4-.6-1.4z"/><path fill="#3f458a" d="M171 168.5l-1.9 11.1 10.7-5.6 10.6 5.6-2-11a42.8 42.8 0 0 1-17.4 0z" style="mix-blend-mode:overlay"/><path fill="#8271cc" d="M222 168l-9-8.9 12.4-1.8 5.5-11.3 5.6 11.3 12.4 1.8-9 8.8 2.2 12.4-11.2-5.8-11 5.8 2-12.4z"/><path fill="#081647" d="M231 146.9l5.3 10.8 11.8 1.7-8.6 8.4 2 11.8L231 174l-10.6 5.6 2-11.9-8.6-8.3 11.9-1.8 5.3-10.7m0-1.7l-.7 1.3-5 10.5-11.6 1.7-1.5.2 1.1 1 8.3 8.2-2 11.4-.2 1.5 1.3-.7 10.3-5.4 10.3 5.4 1.3.7-.2-1.5-2-11.4 8.3-8.2 1.1-1-1.5-.2-11.4-1.7-5.2-10.4-.7-1.4z"/><path fill="#3f458a" d="M222.2 168.5l-1.9 11.1L231 174l10.7 5.6-2-11a42.8 42.8 0 0 1-17.4 0z" style="mix-blend-mode:overlay"/><path fill="none" stroke="#081647" stroke-miterlimit="10" stroke-width=".8" d="M188.7 168.5h1a124 124 0 0 1 32.5 0"/><g stroke-width=".3" clip-path="url(#a)"><path fill="#d6d9ed" stroke="#2b2b2b" stroke-miterlimit="10" d="M223 35.3l-17.5 125.2-1 6.7c-3.7 3-9 2.5-12.7.4l-.6-.4z"/><path fill="none" stroke="#6b6b6b" stroke-linecap="round" stroke-linejoin="round" d="M191.2 167.2s11.6-1 14.4-7.3m-11.2-3.6c3.4-.5 10.6-2.2 12.7-7.1m-10.7-3.4c3.5-.7 10.1-2.5 12-7m-8.9-4.4c3.7-.8 8.9-2.7 10.6-6.7m1.3-10.8c-1.5 3.6-5.8 5.4-9.3 6.4m2.2-10.6c3.4-1 7.3-2.8 8.8-6.3m-6.1-4.8c3-1.1 6.2-2.9 7.5-5.9m-4.8-5.3c2.6-1 5.2-2.8 6.3-5.3m-3.3-6.2a12.5 12.5 0 0 0 5-5.3m1.5-10.6a12.3 12.3 0 0 1-3.8 4.3"/></g><g clip-path="url(#b)"><path fill="#9198cc" stroke="#2b2b2b" stroke-miterlimit="10" stroke-width=".3" d="M200.1 116.6c-48.4-4.8-91.8 34.3-97 87.2a106.8 106.8 0 0 0-.4 12.6 78.6 78.6 0 0 0-31.6 21.3 86.3 86.3 0 0 0-21.8-6.6l.2-.3 2.5-4.3 1-1.7c4-6.7.5-16-7.5-20.8l-10.2-6a1.6 1.6 0 0 0-2.2.4l-10 16.9c-2.6 4.4-1.7 10 1.8 14.4l-.1.2c-5.6-.9-11 1-13.5 5.4l-10 17a1.6 1.6 0 0 0 .8 2l10.1 6c8.1 4.8 18 3.2 21.9-3.4l1.9-3.2c5.2 8.2 15 18.4 26.6 27.3 3 2.4 5.6 4 9 6.3a151.2 151.2 0 0 0 30 15.6 156.5 156.5 0 0 0 58.7 10.7 157 157 0 0 0 56.8-10 86.2 86.2 0 0 0 18.9-9.5l3.2-2.3.8-.6 1.8-1.4a100 100 0 0 0 36.6-68.9c5-52.9-30-99.6-78.3-104.3z"/></g><g stroke-width=".3" clip-path="url(#c)"><path fill="#d6d9ed" stroke="#2b2b2b" stroke-miterlimit="10" d="M223 35.3l-17.6 125.2-1 6.7c-3.7 3-9 2.5-12.6.4l-.7-.4z"/><path fill="none" stroke="#6b6b6b" stroke-linecap="round" stroke-linejoin="round" d="M191.1 167.2s11.7-1 14.4-7.3m-11.1-3.6c3.3-.5 10.6-2.2 12.7-7m-10.8-3.5c3.6-.7 10.2-2.5 12.1-7m-9-4.4c3.8-.8 9-2.7 10.7-6.7m1.2-10.8c-1.5 3.6-5.8 5.4-9.2 6.4m2.2-10.6c3.4-1 7.3-2.8 8.8-6.3m-6.1-4.8c3-1.1 6.2-2.9 7.5-5.8m-4.9-5.4c2.7-1 5.2-2.8 6.4-5.3m-3.3-6.2a12.5 12.5 0 0 0 5-5.3M219 63a12.2 12.2 0 0 1-3.7 4.3"/></g><path fill="#2d292a" stroke="#231f20" stroke-miterlimit="10" d="M226.3 122.8s7.2-2.3 12.1 5-12.2 18-26.3 10.8a124.2 124.2 0 0 1-23-15z"/><path fill="#2d292a" stroke="#231f20" stroke-miterlimit="10" d="M231 89.2a80.7 80.7 0 0 0-50.6-7s.3 13.6-1.2 23.3-3 10-3 10l22.3 16s20.7 3 26.2 1.3c0 0-4.3-20.3 6.3-43.6z"/><path stroke="#231f20" stroke-miterlimit="10" d="M176.5 115.8a149.3 149.3 0 0 0 24.1 7 99.3 99.3 0 0 0 23.2 1.4l.8 8.6s-11 2.2-26-1z"/><path fill="#58595b" stroke="#231f20" stroke-miterlimit="10" d="M216 140.6s-17-3.1-26.4-10.8-17.1-12.1-19-12.3-5.3-.2-5.5 3.4c0 0-1-11.2 11-5.6l16.3 12.2s18.2 12.9 23.7 13.1z"/><g clip-path="url(#d)"><g stroke-width=".3" clip-path="url(#c)"><path fill="#d6d9ed" stroke="#2b2b2b" stroke-miterlimit="10" d="M223 35.3l-17.6 125.2-1 6.7c-3.7 3-9 2.5-12.6.4l-.7-.4z"/><path fill="none" stroke="#6b6b6b" stroke-linecap="round" stroke-linejoin="round" d="M191.1 167.2s11.7-1 14.4-7.3m-11.1-3.6c3.3-.5 10.6-2.2 12.7-7m-10.8-3.5c3.6-.7 10.2-2.5 12.1-7m-9-4.4c3.8-.8 9-2.7 10.7-6.7m1.2-10.8c-1.5 3.6-5.8 5.4-9.2 6.4m2.2-10.6c3.4-1 7.3-2.8 8.8-6.3m-6.1-4.8c3-1.1 6.2-2.9 7.5-5.8m-4.9-5.4c2.7-1 5.2-2.8 6.4-5.3m-3.3-6.2a12.5 12.5 0 0 0 5-5.3M219 63a12.2 12.2 0 0 1-3.7 4.3"/></g></g><g clip-path="url(#e)"><path fill="#2d292a" stroke="#231f20" stroke-miterlimit="10" d="M393 132.5s15.6-.2 20.2-2.7 6-7.2 5.9-9l-1.4-4-7.4.1-18.4 13.6-.1 1.7z"/><path fill="#9198cc" stroke="#2b2b2b" stroke-miterlimit="10" stroke-width=".3" d="M311.2 216.2s-23.4 9.3-31.9-7.3a2.5 2.5 0 0 1 1.4-3.5l28.1-9.9"/><path fill="#9198cc" stroke="#2b2b2b" stroke-miterlimit="10" stroke-width=".3" d="M383.6 116.8c48.3-4.7 91.7 34.4 96.9 87.3a104.5 104.5 0 0 1 .4 12.6 78.5 78.5 0 0 1 31.6 21.3 85.9 85.9 0 0 1 21.8-6.6l-.2-.3-2.5-4.3-1-1.7c-4-6.7-.5-16 7.5-20.8l10.2-6a1.6 1.6 0 0 1 2.2.3l10 17c2.6 4.3 1.7 10-1.8 14.3l.1.3c5.6-1 11 1 13.5 5.4l10 16.9a1.6 1.6 0 0 1-.8 2l-10.1 6c-8 4.8-18 3.3-21.8-3.4l-2-3.1c-5.2 8.2-15 18.4-26.6 27.3-3 2.4-5.6 4-9 6.3a151.7 151.7 0 0 1-30 15.6 156.5 156.5 0 0 1-58.7 10.7 157 157 0 0 1-56.8-10 86 86 0 0 1-18.8-9.6l-3.2-2.3-.8-.6-1.8-1.4a100.1 100.1 0 0 1-36.6-68.8c-5.1-53 29.9-99.7 78.2-104.4z"/><ellipse cx="410.2" cy="165.7" fill="#221f1f" rx="5.5" ry="4.8"/><circle cx="409.3" cy="165.2" r=".9" fill="#fff"/><ellipse cx="349.2" cy="165.7" fill="#221f1f" rx="5.5" ry="4.8"/><circle cx="350.3" cy="165.2" r=".9" fill="#fff"/><path fill="#d6d9ed" stroke="#2b2b2b" stroke-miterlimit="10" stroke-width=".3" d="M378.7 192.7a75.6 75.6 0 0 1 75.5 56.3 154.8 154.8 0 0 1 66.6 32.4q-4.2 3.2-8.8 6.3a151.8 151.8 0 0 1-30 15.7 156.5 156.5 0 0 1-58.7 10.6 158 158 0 0 1-56.8-9.9 87.2 87.2 0 0 1-18.8-9.6l-3.2-2.2-.8-.7-1.8-1.4a99.5 99.5 0 0 1-35.4-60.7c.4-2.2 10.8-36.8 72.2-36.8z"/><path fill="none" stroke="#1a1a1a" stroke-linecap="round" stroke-linejoin="round" stroke-width=".8" d="M386 182.4a11 11 0 0 1-12.8.1l-.2-.1"/><path fill="#3b5ca9" d="M444.8 228.2s-22 12.4-32.5-3a2.5 2.5 0 0 1 .8-3.5l25.1-12.9"/><path fill="#9198cc" stroke="#2b2b2b" stroke-miterlimit="10" stroke-width=".3" d="M446.3 227.6s-22 12.5-32.6-2.9a2.5 2.5 0 0 1 .9-3.6l26.1-14"/><path fill="#8271cc" d="M404.4 174.4l-11 5.9 2-12.4-9-8.8 12.5-1.8 5.5-11.3 5.6 11.3 12.4 1.8-9 8.8 2.2 12.4-11.2-5.9z"/><path fill="#081647" d="M404.4 146.9l5.4 10.8 11.8 1.7-8.6 8.4 2 11.8-10.6-5.6-10.6 5.6 2-11.9-8.6-8.3 11.9-1.8 5.3-10.7m0-1.7l-.7 1.3-5 10.5-11.6 1.7-1.5.2 1.1 1 8.3 8.1-2 11.4-.3 1.5 1.4-.7 10.3-5.4 10.3 5.4 1.3.7-.3-1.5-2-11.4 8.4-8.1 1-1-1.4-.3-11.4-1.6-5.2-10.4-.7-1.4z"/><path fill="#3f458a" d="M413.2 168.5l1.9 11.1-10.7-5.6-10.6 5.6 2-11a42.8 42.8 0 0 0 17.4 0z" style="mix-blend-mode:overlay"/><path fill="#8271cc" d="M353.3 174.4l-11.2 5.9 2.2-12.4-9-8.8 12.4-1.8 5.6-11.3 5.5 11.3 12.5 1.8-9 8.8 2 12.4-11-5.9z"/><path fill="#081647" d="M353.3 146.9l5.3 10.8 11.9 1.7-8.6 8.4 2 11.8-10.6-5.6-10.7 5.6 2-11.9-8.6-8.3 12-1.7 5.3-10.8m0-1.7l-.7 1.4-5.2 10.4-11.4 1.6-1.5.3 1 1 8.4 8.1-2 11.5-.3 1.5 1.4-.7 10.3-5.4 10.2 5.4 1.4.7-.3-1.5-2-11.5 8.4-8 1-1.1-1.5-.3-11.4-1.6-5.2-10.4-.6-1.4z"/><path fill="#3f458a" d="M362 168.5l1.9 11.1-10.6-5.6-10.7 5.6 2-11a42.8 42.8 0 0 0 17.4 0z" style="mix-blend-mode:overlay"/><path fill="none" stroke="#081647" stroke-miterlimit="10" stroke-width=".8" d="M395.5 168.5h-1a124 124 0 0 0-32.5 0"/><g stroke-width=".3" clip-path="url(#f)"><path fill="#d6d9ed" stroke="#2b2b2b" stroke-miterlimit="10" d="M361.1 35.3l17.6 125.2 1 6.7c3.7 3 9 2.5 12.7.4l.6-.4z"/><path fill="none" stroke="#6b6b6b" stroke-linecap="round" stroke-linejoin="round" d="M393 167.2s-11.7-1-14.4-7.3m11.2-3.6c-3.4-.5-10.6-2.2-12.7-7.1m10.7-3.4c-3.5-.7-10-2.5-12-7m8.9-4.4c-3.7-.8-8.9-2.7-10.6-6.7m-1.3-10.8c1.5 3.6 5.8 5.4 9.3 6.4m-2.2-10.6c-3.4-1-7.3-2.8-8.8-6.3m6.1-4.8c-3-1.1-6.2-2.9-7.5-5.9m4.8-5.3c-2.6-1-5.2-2.8-6.3-5.3m3.3-6.2a12.5 12.5 0 0 1-5-5.3M365 63a12.2 12.2 0 0 0 3.8 4.3"/></g><g clip-path="url(#g)"><path fill="#9198cc" stroke="#2b2b2b" stroke-miterlimit="10" stroke-width=".3" d="M384.1 116.6c48.4-4.8 91.8 34.3 97 87.2a106.8 106.8 0 0 1 .4 12.6 78.7 78.7 0 0 1 31.6 21.3 86.4 86.4 0 0 1 21.8-6.6l-.2-.3-2.5-4.3-1-1.7c-4-6.7-.6-16 7.5-20.8l10.1-6a1.6 1.6 0 0 1 2.3.4l10 16.9c2.5 4.4 1.6 10-1.9 14.4l.2.2c5.5-.9 10.9 1 13.5 5.4l10 16.9a1.6 1.6 0 0 1-.8 2.1l-10.2 6c-8 4.8-17.9 3.2-21.8-3.5l-1.8-3c-5.3 8.1-15 18.3-26.6 27.2-3.1 2.4-5.7 4-9 6.3a151.4 151.4 0 0 1-30 15.6 156.5 156.5 0 0 1-58.8 10.7c-21.1 0-40.7-3.7-56.7-10a86.7 86.7 0 0 1-18.9-9.6l-3.2-2.2-.8-.7-1.8-1.4A100.2 100.2 0 0 1 306 221c-5.3-52.9 29.7-99.6 78.1-104.3z"/></g><g stroke-width=".3" clip-path="url(#h)"><path fill="#d6d9ed" stroke="#2b2b2b" stroke-miterlimit="10" d="M361.2 35.3l17.6 125.2 1 6.7c3.7 3 9 2.5 12.7.4l.6-.4z"/><path fill="none" stroke="#6b6b6b" stroke-linecap="round" stroke-linejoin="round" d="M393 167.2s-11.6-1-14.3-7.3m11.1-3.6c-3.3-.5-10.6-2.2-12.7-7m10.8-3.5c-3.5-.7-10.2-2.5-12.1-7m9-4.4c-3.7-.8-9-2.7-10.7-6.7M373 117c1.5 3.6 5.8 5.4 9.3 6.4m-2.3-10.6c-3.4-1-7.3-2.8-8.8-6.3m6.2-4.8c-3-1.1-6.3-2.9-7.5-5.8m4.8-5.4c-2.7-1-5.2-2.8-6.3-5.3m3.2-6.2a12.5 12.5 0 0 1-5-5.3M365.1 63a12.4 12.4 0 0 0 3.7 4.3"/></g><path fill="#2d292a" stroke="#231f20" stroke-miterlimit="10" d="M358 122.8s-7.2-2.3-12.2 5 12.2 18 26.3 10.8a124.5 124.5 0 0 0 23-15z"/><path fill="#2d292a" stroke="#231f20" stroke-miterlimit="10" d="M353.2 89.2a80.8 80.8 0 0 1 50.6-7s-.3 13.6 1.2 23.3 3 10 3 10l-22.4 16s-20.6 3-26 1.3c0 0 4.2-20.3-6.4-43.6z"/><path stroke="#231f20" stroke-miterlimit="10" d="M407.7 115.8a149.3 149.3 0 0 1-24.1 7 99.3 99.3 0 0 1-23.2 1.4l-.8 8.6s11 2.2 26-1z"/><path fill="#58595b" stroke="#231f20" stroke-miterlimit="10" d="M368.1 140.6s17-3.1 26.5-10.8 17.2-12.1 19-12.3 5.3-.2 5.5 3.4c0 0 1-11.2-11-5.6l-16.4 12.2s-18 12.9-23.6 13.1z"/><g clip-path="url(#i)"><g stroke-width=".3" clip-path="url(#h)"><path fill="#d6d9ed" stroke="#2b2b2b" stroke-miterlimit="10" d="M361.2 35.3l17.6 125.2 1 6.7c3.7 3 9 2.5 12.7.4l.6-.4z"/><path fill="none" stroke="#6b6b6b" stroke-linecap="round" stroke-linejoin="round" d="M393 167.2s-11.6-1-14.3-7.3m11.1-3.6c-3.3-.5-10.6-2.2-12.7-7m10.8-3.5c-3.5-.7-10.2-2.5-12.1-7m9-4.4c-3.7-.8-9-2.7-10.7-6.7M373 117c1.5 3.6 5.8 5.4 9.3 6.4m-2.3-10.6c-3.4-1-7.3-2.8-8.8-6.3m6.2-4.8c-3-1.1-6.3-2.9-7.5-5.8m4.8-5.4c-2.7-1-5.2-2.8-6.3-5.3m3.2-6.2a12.5 12.5 0 0 1-5-5.3M365.1 63a12.4 12.4 0 0 0 3.7 4.3"/></g></g></g></svg>
