<svg xmlns="http://www.w3.org/2000/svg" viewBox="0 0 100 100"><path fill="#fff" d="M50 100C22.4 100 0 77.6 0 50S22.4 0 50 0s50 22.4 50 50-22.4 50-50 50zm45.8-50C95.8 24.7 75.3 4.2 50 4.2S4.2 24.7 4.2 50c0 25.3 20.6 45.8 45.8 45.8S95.8 75.3 95.8 50z"/><path fill="#4046dd" d="M50 95.8C24.7 95.8 4.2 75.3 4.2 50 4.2 24.7 24.7 4.2 50 4.2S95.8 24.7 95.8 50c0 25.3-20.5 45.8-45.8 45.8z"/><path fill="none" stroke="#fff" stroke-width="4" stroke-miterlimit="10" d="M30.6 35h49.6m-59 0h3.9m5.5 15.4h49.6m-59 0h3.9m5.5 15.5h49.6m-59 0h3.9"/></svg>