<?xml version="1.0" encoding="utf-8"?>
<!-- Generator: Adobe Illustrator 21.0.2, SVG Export Plug-In . SVG Version: 6.00 Build 0)  -->
<svg version="1.1" xmlns="http://www.w3.org/2000/svg" xmlns:xlink="http://www.w3.org/1999/xlink" x="0px" y="0px"
	 viewBox="0 0 256.4 380" style="enable-background:new 0 0 256.4 380;" xml:space="preserve">
<style type="text/css">
	.st0{fill:#231F20;}
	.st1{fill:#FFFFFF;}
	.st2{fill:#D3D3D3;}
	.st3{fill:#DBEEF2;}
</style>
<g id="Layer_1">
</g>
<g id="Comp_1">
	<g>
		<polygon class="st1" points="3.2,161.3 17.4,213.6 42,223.2 57,245.7 84.8,327 122.3,376.2 145.8,311 180,260.7 205.7,208.3 
			252.4,161.3 		"/>
		<g>
			<polygon class="st1" points="3.2,161.3 54.4,100 84.8,116.8 112.6,9.8 127,70.9 159.3,54.1 172.9,69.4 200.4,83.2 252.4,161.3 
							"/>
			<polygon class="st2" points="112.6,9.8 80.7,127.7 106.8,139.1 			"/>
			<polygon class="st3" points="84.8,116.8 124.1,161.3 83,161.3 49.6,161.3 69.6,137 54.4,100 			"/>
			<polygon class="st3" points="112.6,9.8 105.9,112.5 92.9,161.3 136.3,161.3 124.1,112.7 127,70.9 			"/>
			<polygon class="st2" points="124.1,112.7 159.3,54.1 127,70.9 			"/>
			<polygon class="st2" points="177.3,121.8 200.4,83.2 172.9,69.4 			"/>
			<polygon class="st3" points="159.3,54.1 148.9,120.1 148.6,161.3 193.2,161.3 178.3,122.1 172.9,69.4 			"/>
		</g>
		<polygon class="st3" points="49.6,161.3 42,179.4 69.9,208.3 86,245.7 88,208.3 136.3,161.3 		"/>
		<polygon class="st3" points="148.6,161.3 129.8,179.4 165.9,207.3 183.6,253.4 202.8,214.3 193.2,160.8 		"/>
	</g>
</g>
</svg>
