<?xml version="1.0" encoding="utf-8"?>
<!-- Generator: Adobe Illustrator 21.0.2, SVG Export Plug-In . SVG Version: 6.00 Build 0)  -->
<svg version="1.1" xmlns="http://www.w3.org/2000/svg" xmlns:xlink="http://www.w3.org/1999/xlink" x="0px" y="0px"
	 viewBox="0 0 153.3 91" style="enable-background:new 0 0 153.3 91;" xml:space="preserve">
<style type="text/css">
	.st0{fill:#FFFFFF;}
	.st1{fill:#D3D3D3;}
	.st2{fill:#DBEEF2;}
</style>
<g id="Layer_1">
</g>
<g id="Comp_1">
	<g>
		<polygon class="st0" points="0.7,59.6 6,74.5 20.4,74.7 34.3,86.9 41,82.4 51.9,88.4 73.6,74.7 94.4,90.6 98.4,86.2 111.9,87.1 
			122.8,81.7 152.6,59.9 		"/>
		<polygon class="st0" points="0.7,59.9 7.7,26.5 38.6,0.4 67.8,23.7 84,8.7 103,26 115.5,59.9 		"/>
		<polygon class="st0" points="121.9,26.3 152.6,59.9 93.1,59.9 		"/>
		<polygon class="st1" points="117.3,43 122.2,26.5 122,26.3 108.8,41.6 115.5,59.9 123.7,59.9 124.9,46.3 		"/>
		<polygon class="st2" points="94.4,59.9 115.5,59.9 88.2,39.7 84,8.7 73.9,27.7 75.6,52.1 77.8,59.9 		"/>
		<polygon class="st1" points="84,8.7 73.9,27.7 75.3,50.7 67.8,23.7 		"/>
		<polygon class="st1" points="38.6,0.4 25.3,27.1 19.1,29.1 7.7,26.5 		"/>
		<polygon class="st2" points="38.6,0.4 25.3,27.1 11.5,23.3 7.7,26.5 25.7,39.5 14.8,59.9 45.4,59.8 41.6,50 47.6,38.4 44.1,30.4 
			53.6,20.5 73.1,59.9 77.8,59.9 67.8,23.7 		"/>
		<polygon class="st2" points="122.2,26.5 122.8,30.2 139.6,50 142.9,57.3 138.5,59.9 152.2,59.9 		"/>
		<polygon class="st2" points="15.3,59.6 21.1,75 24.2,73 34.5,86.6 43.9,65.6 47,65.3 48.7,59.6 		"/>
	</g>
</g>
</svg>
