<svg xmlns="http://www.w3.org/2000/svg" viewBox="0 0 370.5 177.7"><style>.a{fill:#8f9dff;stroke:#8f9dff;stroke-width:.25;stroke-miterlimit:10}.b{fill:#d6dbf7}.c{fill:#bac2e2}.d{fill:#a2a9c6}</style><path d="M251.3 26.8S163.9 46.1 154.1 50c-5.9 1.8-23.4 8.5-33.8 13.4-20.1 9.6-26 12.3-40 23.7S29 139.7 29 139.7l-3-4.6c-5.9-8.3-17.5-10.3-25.8-4.3l9 12.6c3.3 4.6 8.7 6.9 14 6.4-2.2 4.8-1.8 10.7 1.5 15.3l9 12.6c8.3-5.9 10.3-17.5 4.3-25.8l-2.2-2.6L53 140c44.2-23 64.7-24.8 102.7-27.6 29.3-1.9 122.8-24.7 122.8-24.7 7-1.7 7.7-6.5 7.7-6.5s1.2-.2 2.9-1.3c1-.6 1.9-1.5 2.4-2 4.9-5.1 3.4-14.8 1.7-21.8l-1-4c-4.2-18.3-22.7-29.7-40.9-25.3z" class="a"/><ellipse cx="269.7" cy="53.8" transform="rotate(-13.394 269.713 53.857)" fill="#231f20" rx="3.7" ry="3.2"/><ellipse cx="270.2" cy="53.3" transform="rotate(-13.394 270.24 53.343)" fill="#fff" rx=".6" ry=".6"/><path d="M35.7 149.1l15.9-8.4c44.1-23.3 69.2-25.5 107.2-28.6 24-2 82.8-15.8 107.7-21.7-22.5-2.7-58.3-4.9-98.8.5-87.3 11.6-124.1 49.2-132 58.2z" class="b"/><path d="M283.1 81.9c-2.4 0-4.6-.5-6.4-1.7v-.3c2.6 1.7 6.3 2.3 9.6 1.4v.3c-1.1.2-2.1.3-3.2.3z" fill="#282828"/><path d="M199.9 76.8l-17.6 17.4c-.8.8-1 1.9-.4 2.4 5 5.1 14.9 3.5 22.1-3.6l6-6" class="a"/><path d="M284 32.8c.7.6 2.4 2 4.7 3 1.5.7 2.9 1.1 4.2 1.2l7.9-3.7c-3.6.8-7.7-1.6-9.7-3.2l-7.1 2.7zm67.7-24c.1 0 0 .1 0 0L370.5 0l-22.8 8.6c1.1.3 2.8.5 4 .2zM286 40.2c-4.8 1.1-9.9-3.9-10.3-4.3h-.1v.5c.2 2.7 2.1 5.6 5.5 6.3l4.6-2.2.5-.2c-.1-.1-.1-.1-.2-.1zm40-20.9c-1.1-.3-2.1-.8-2.9-1.3l-8 3c2.7 1.7 4.9 2.6 7.1 2.1l.3-.1 6.7-3.2.4-.2c-1.3.2-2.5 0-3.6-.3zm18.6-6.9l-.1-.1c-1.5.3-3.7.1-5.2-.4h-.1l-7.7 2.9c2.1 1.1 4.1 1.4 5.9 1l6.8-3.2.4-.2z" class="b"/><path d="M331.5 14.8l-.4.1L323 18l8.5-3.2z" class="c"/><path d="M331.5 14.8L323 18c.8.5 1.8 1 2.9 1.3 1.1.3 2.2.5 3.4.3l8-3.8c-1.7.4-3.7 0-5.8-1z" class="d"/><path d="M307.3 24l-.3.1-8.2 3.1c1.2.8 5.1 3 8.8 2.9l.5-.2 6.6-3.1.3-.1.3-.2.5-.2c-2.6.4-5.5-.4-8.5-2.3z" class="b"/><path d="M348 8.5l-.2.1-8.6 3.3h.1c1.6.6 3.9.8 5.4.5l7.6-3.6c-1.3.1-3.1 0-4.3-.3z" class="d"/><path d="M275.5 36s.1 0 0 0z" class="c"/><path d="M292.9 37.1c-1.3-.1-2.7-.5-4.2-1.2-2.3-1.1-4-2.5-4.7-3l-.2.1-8.2 3.1c.5.5 4.8 4.6 9.3 4.9l.7-.4 7.3-3.5z" class="d"/><path d="M307.3 24l-8.5 3.2c1.2.8 5 2.9 8.7 2.9l7.6-3.6c-2.4.1-5-.7-7.8-2.5z" class="b"/><path d="M298.8 27.2l-.3.1-7.5 2.8 7.8-2.9z" class="c"/><path d="M291 30.1c2 1.6 5.8 4.1 9.4 3.3l7-3.4c-3.7-.1-7.4-2.2-8.7-2.9l-7.7 3z" class="d"/><path d="M315.5 20.8l-.3.1-8 3 8.3-3.1c.1 0 0 0 0 0z" class="c"/><path d="M315.6 20.8l-8.3 3.1c2.8 1.8 5.4 2.6 7.8 2.5l7.3-3.5c-2.1.3-4.4-.5-6.8-2.1z" class="d"/></svg>