<?xml version="1.0" encoding="utf-8"?>
<!-- Generator: Adobe Illustrator 21.0.2, SVG Export Plug-In . SVG Version: 6.00 Build 0)  -->
<svg version="1.1" xmlns="http://www.w3.org/2000/svg" xmlns:xlink="http://www.w3.org/1999/xlink" x="0px" y="0px"
	 viewBox="0 0 452 120" style="enable-background:new 0 0 452 120;" xml:space="preserve">
<style type="text/css">
	.st0{fill:none;}
	.st1{fill:#FFFFFF;}
	.st2{fill:#7F3F98;}
	.st3{fill:#FFFFFF;stroke:#FFFFFF;stroke-miterlimit:10;}
</style>
<g id="Layer_1">
</g>
<g id="Comp_2">
	<g>
		<g>
			<path class="st1" d="M138.4,80.4c-0.7-1.4,0-2.4,1.5-2.9l2.1-0.5c1.4-0.4,2.2,0.2,2.9,1.5c2.3,4.2,7.4,7.9,14.7,7.9
				c9,0,14.4-4.8,14.4-10.8c0-5.5-4.7-8.9-10-10.8l-9.8-3.3c-11.6-3.8-13.7-10.5-13.7-15.7c0-10.3,9.1-16.5,19.4-16.5
				c9.5,0,16.3,4.6,18.8,11.6c0.5,1.4-0.2,2.4-1.6,2.9l-1.8,0.5c-1.4,0.4-2.3-0.1-2.9-1.5c-1.9-4.6-6.6-7.3-12.6-7.3
				c-6.7,0-12.3,3.8-12.3,10.2c0,3.1,1,6.9,8.8,9.7l9.9,3.5c9,2.9,14.6,9.3,14.6,16.3c0,10.2-8.3,17.3-21,17.3
				C149,92.4,141.4,87.1,138.4,80.4z"/>
			<path class="st1" d="M191.2,60.8c0-17.4,14.4-31.6,31.8-31.6c17.5,0,31.8,14.2,31.8,31.6c0,17.4-14.3,31.6-31.8,31.6
				C205.5,92.4,191.2,78.3,191.2,60.8z M247.7,60.8c0-14.3-11.2-25.4-24.8-25.4c-13.6,0-24.7,11.1-24.7,25.4
				c0,14.3,11.1,25.4,24.7,25.4C236.5,86.2,247.7,75.1,247.7,60.8z"/>
			<path class="st1" d="M270.1,89.1V32.6c0-1.5,0.9-2.4,2.4-2.4h1.1c1.1,0,2.1,0.4,2.9,1.4l34.9,47.3V32.6c0-1.5,0.9-2.4,2.4-2.4
				h2.3c1.4,0,2.3,0.9,2.3,2.4v56.6c0,1.5-0.8,2.4-2.3,2.4H315c-1.2,0-2.2-0.4-2.9-1.4l-35-47.5v46.5c0,1.5-0.9,2.4-2.4,2.4h-2.2
				C271,91.5,270.1,90.6,270.1,89.1z"/>
			<path class="st1" d="M332,88.8l22.2-56.6c0.4-1.3,1.4-1.9,2.7-1.9h4.2c1.3,0,2.3,0.6,2.7,1.9l22.3,56.6c0.6,1.7-0.1,2.7-1.8,2.7
				h-2.1c-1.4,0-2.3-0.6-2.8-1.9L375,78.3h-32l-4.4,11.2c-0.4,1.3-1.3,1.9-2.7,1.9h-2.2C332,91.5,331.3,90.4,332,88.8z M372.9,72.7
				L359,36.8l-13.8,35.9H372.9z"/>
			<path class="st1" d="M421.3,67.6h-14.8v21.5c0,1.5-0.9,2.4-2.3,2.4h-2.3c-1.4,0-2.3-0.9-2.3-2.4V32.6c0-1.5,0.8-2.4,2.3-2.4h22.8
				c11.5,0,18,8.8,18,18.9c0,9.2-5.5,16.9-15,18.2c0.5,7.1,4.7,19.2,13,19.2c1.7,0,3.3-0.4,4.8-1.1c1.4-0.7,2.4-0.6,3.2,0.8l0.4,0.8
				c0.6,1.2,0.5,2.4-0.7,3.2c-2.4,1.7-5.4,2.4-8.1,2.4C426.3,92.4,421.9,75.3,421.3,67.6z M423.4,62c7.6,0,12.2-5.5,12.2-13
				c0-7.4-4.5-13.1-12.2-13.1h-17V62H423.4z"/>
		</g>
		<g>
			<path class="st3" d="M57.8,115.5C27.2,115.5,2.4,90.6,2.4,60c0-30.6,24.9-55.5,55.5-55.5s55.5,24.9,55.5,55.5
				C113.3,90.6,88.4,115.5,57.8,115.5z M57.8,9.1C29.8,9.1,7,32,7,60s22.8,50.9,50.9,50.9S108.7,88,108.7,60S85.9,9.1,57.8,9.1z"/>
		</g>
		<path class="st1" d="M85.3,46.7l1.8-3.3l5.4-8.9c0,0-12.3,7.2-12.6,7.3c-0.3,0.2-0.6,0.4-0.8,0.6c-1,1-1.3,2.4-1,3.7
			c0.2,0.6,0.5,1.3,1,1.8c0.5,0.5,1.1,0.8,1.8,1c1.3,0.3,2.7,0,3.7-1c0.3-0.3,0.5-0.6,0.6-0.9L85.3,46.7z"/>
		<path class="st1" d="M83.6,51.7C83.6,51.7,83.6,51.7,83.6,51.7c-0.7,0.2-1.4,0.4-2.2,0.4c-3.5,0-6.3-2.8-6.3-6.3
			c0-0.7,0.1-1.4,0.3-2.1c0,0,0,0,0,0c-3-1.9-6-2.7-10.4-2.7c-19.3,0-22.5,9.2-22.5,20.6c0,2.7,0.4,5.6-1.4,8.4
			c-2.7,4.2-6.3,4.1-7.2,4.1c-1.2,0-5.6-0.7-5.8-2l0.7,0c4.7,0,8.2-3.8,8.2-8.9v-1.8H33c-2.9,0-5.5,1.3-7.2,3.6
			c-1.7-2.3-4.3-3.6-7.2-3.6h-4.1v1.8c0,5,4,9,9,9h1h0.3c0,2.9,4,14.3,33.5,14.3c11.5,0,28.6-2,28.6-23.7
			C86.9,58.7,85.6,54.9,83.6,51.7z"/>
	</g>
</g>
</svg>
