<svg xmlns="http://www.w3.org/2000/svg" viewBox="0 0 100 100"><style>.a{fill:#fff}</style><path d="M50 100C22.4 100 0 77.6 0 50S22.4 0 50 0s50 22.4 50 50-22.4 50-50 50zm45.8-50C95.8 24.7 75.3 4.2 50 4.2 24.7 4.2 4.2 24.7 4.2 50c0 25.3 20.6 45.8 45.8 45.8 25.3 0 45.8-20.5 45.8-45.8z" class="a"/><path fill="#4046dd" d="M50 4.2c25.3 0 45.8 20.6 45.8 45.8 0 25.3-20.6 45.8-45.8 45.8C24.7 95.8 4.2 75.3 4.2 50 4.2 24.7 24.7 4.2 50 4.2z"/><path d="M61.2 36.6l10-7.7-7.7 10zm-24.7 1.7l-7.8-10 10 7.8zm1.7 25.5l-10 7.7 7.7-9.9zm25.4-2.4l7.8 10-10-7.8z" class="a"/><path d="M50 87.1l-8.6-28.5L12.9 50l28.5-8.6L50 12.9l8.6 28.5L87.1 50l-28.5 8.6L50 87.1zM23.8 50l20.1 6.1L50 76.2l6.1-20.1L76.2 50l-20.1-6.1L50 23.8l-6.1 20.1L23.8 50z" class="a"/><path d="M50 55.2c-2.9 0-5.2-2.3-5.2-5.2 0-2.9 2.3-5.2 5.2-5.2s5.2 2.3 5.2 5.2c0 2.9-2.3 5.2-5.2 5.2zm0-7.2c-1.1 0-2 .9-2 2s.9 2 2 2 2-.9 2-2-.9-2-2-2z" class="a"/></svg>